<?xml version="1.0" encoding="UTF-8" ?>
<!DOCTYPE svg PUBLIC "-//W3C//DTD SVG 1.1//EN" "http://www.w3.org/Graphics/SVG/1.1/DTD/svg11.dtd">
<svg width="1280pt" height="1279pt" viewBox="0 0 1280 1279" version="1.1" xmlns="http://www.w3.org/2000/svg">
<g id="#7ac143ff">
<path fill="#7ac143" opacity="1.00" d=" M 171.35 0.00 L 173.66 0.00 C 220.66 -0.05 267.12 20.56 298.76 55.28 C 321.34 79.68 336.53 110.80 341.83 143.63 C 389.03 132.40 439.14 133.75 485.74 147.21 C 521.18 157.44 554.57 174.71 583.37 197.75 C 595.52 207.22 606.34 218.20 617.26 229.02 C 575.01 271.04 532.92 313.23 490.82 355.41 C 487.78 352.37 484.77 349.30 481.73 346.26 C 471.74 336.08 459.70 327.91 446.47 322.54 C 423.35 313.05 396.81 312.22 373.15 320.30 C 351.34 327.59 332.18 342.35 319.42 361.47 C 305.58 381.98 299.42 407.51 302.31 432.09 C 304.49 451.73 312.40 470.71 324.86 486.06 C 329.57 492.00 335.19 497.11 340.49 502.51 C 432.74 594.63 524.85 686.89 617.12 778.98 C 574.94 821.04 532.86 863.20 490.83 905.41 C 402.08 816.76 313.36 728.08 224.66 639.38 C 212.86 627.44 200.55 615.95 189.77 603.05 C 169.09 578.61 152.62 550.61 141.31 520.66 C 119.44 462.84 116.96 397.71 135.05 338.56 C 105.50 331.72 77.78 317.12 55.71 296.29 C 30.38 272.58 12.48 241.04 5.36 207.07 C -1.51 174.91 1.11 140.77 12.90 110.07 C 24.94 78.47 46.64 50.67 74.29 31.23 C 102.46 11.24 136.82 0.23 171.35 0.00 Z" />
</g>
<g id="#f9a541ff">
<path fill="#f9a541" opacity="1.00" d=" M 1051.97 9.10 C 1099.45 -7.24 1154.06 -1.32 1196.71 25.26 C 1228.31 44.60 1253.34 74.47 1266.74 109.03 C 1280.51 144.13 1282.13 183.81 1271.40 219.95 C 1261.60 253.32 1241.26 283.46 1214.07 305.13 C 1189.94 324.56 1160.41 337.15 1129.70 341.18 C 1142.48 385.41 1144.18 432.75 1134.81 477.81 C 1126.44 518.33 1109.02 556.96 1084.14 590.04 C 1073.41 604.66 1060.70 617.64 1047.90 630.44 C 1005.77 588.28 963.79 545.95 921.49 503.97 C 930.93 494.81 940.47 485.48 947.12 474.01 C 965.00 444.74 967.03 406.60 952.39 375.59 C 939.05 346.40 911.56 324.18 880.17 317.41 C 859.21 312.72 836.83 314.67 817.03 322.99 C 803.61 328.51 791.47 336.97 781.42 347.41 C 687.10 441.76 592.69 536.02 498.40 630.39 C 456.15 588.34 414.16 546.02 371.86 504.02 C 467.34 408.81 562.58 313.36 658.04 218.11 C 683.13 193.31 712.85 173.16 745.28 159.24 C 805.43 133.19 874.73 129.01 937.56 147.70 C 941.95 115.01 956.25 83.78 977.93 58.94 C 997.64 36.19 1023.47 18.79 1051.97 9.10 Z" />
</g>
<g id="#f44321ff">
<path fill="#f44321" opacity="1.00" d=" M 646.89 511.77 C 689.06 469.67 731.24 427.58 773.31 385.38 C 868.49 480.63 963.63 575.92 1058.76 671.21 C 1093.33 706.05 1118.66 749.98 1131.24 797.43 C 1143.48 843.20 1144.09 892.06 1132.81 938.09 C 1177.25 944.07 1218.64 968.73 1245.50 1004.57 C 1267.74 1033.86 1280.01 1070.48 1280.00 1107.25 L 1280.00 1107.78 C 1280.06 1141.94 1269.60 1176.03 1250.26 1204.20 C 1230.57 1233.14 1201.81 1255.81 1169.02 1268.08 C 1150.10 1275.25 1129.88 1278.85 1109.66 1279.00 L 1108.37 1279.00 C 1064.89 1279.08 1021.74 1261.72 990.45 1231.53 C 965.35 1207.61 947.72 1175.90 940.97 1141.87 C 889.07 1157.85 832.59 1158.58 780.33 1143.79 C 744.97 1133.87 711.60 1116.96 682.71 1094.29 C 669.89 1084.48 658.51 1073.02 647.04 1061.72 C 689.10 1019.53 731.29 977.45 773.27 935.18 C 778.82 940.48 783.94 946.26 789.88 951.15 C 802.82 962.08 818.48 969.72 835.03 973.29 C 856.80 978.05 880.08 975.66 900.39 966.47 C 927.31 954.52 948.61 930.65 957.35 902.52 C 964.31 880.67 963.79 856.55 955.92 835.01 C 950.49 819.95 941.47 806.27 930.01 795.12 C 835.61 700.69 741.38 606.10 646.89 511.77 Z" />
</g>
<g id="#5091cdff">
<path fill="#5091cd" opacity="1.00" d=" M 186.14 692.00 C 195.18 680.70 205.39 670.42 215.71 660.31 C 257.77 702.52 299.96 744.60 342.11 786.72 C 338.79 789.85 335.59 793.10 332.36 796.32 C 319.36 809.19 309.88 825.57 305.16 843.24 C 299.09 865.60 300.70 889.95 309.72 911.30 C 321.17 938.94 345.02 961.08 373.46 970.41 C 403.75 980.66 438.66 976.12 465.15 958.14 C 475.55 951.44 483.81 942.17 492.54 933.54 C 583.50 842.46 674.53 751.45 765.43 660.31 C 807.51 702.52 849.69 744.62 891.75 786.84 C 853.78 824.50 816.16 862.53 778.33 900.33 C 722.03 956.71 665.73 1013.08 609.40 1069.43 C 573.08 1106.57 526.43 1133.54 475.97 1146.02 C 430.95 1157.32 383.20 1157.30 338.16 1146.14 C 329.06 1186.19 304.90 1222.52 271.57 1246.50 C 243.33 1267.12 208.60 1278.54 173.65 1279.00 L 168.50 1279.00 C 133.79 1278.48 99.31 1267.15 71.20 1246.73 C 44.64 1227.66 23.73 1200.81 11.81 1170.35 C 4.06 1150.77 0.14 1129.73 0.00 1108.69 L 0.00 1107.31 C -0.11 1064.07 17.06 1021.14 46.94 989.90 C 69.64 965.82 99.47 948.51 131.71 941.00 C 118.38 888.94 120.23 833.13 137.01 782.07 C 147.70 749.38 164.45 718.69 186.14 692.00 Z" />
</g>
</svg>
