<?xml version="1.0" encoding="UTF-8" ?>
<!DOCTYPE svg PUBLIC "-//W3C//DTD SVG 1.1//EN" "http://www.w3.org/Graphics/SVG/1.1/DTD/svg11.dtd">
<svg width="1280pt" height="1280pt" viewBox="0 0 1280 1280" version="1.1" xmlns="http://www.w3.org/2000/svg">
<g id="#49a7c8ff">
<path fill="#49a7c8" opacity="1.00" d=" M 601.92 300.90 C 610.86 299.42 619.95 299.94 628.92 298.87 C 645.98 298.29 663.08 298.69 680.02 300.92 C 691.65 302.94 703.51 304.01 714.91 307.20 C 718.04 307.41 721.04 308.37 724.12 308.97 C 728.10 310.33 732.26 311.14 736.19 312.69 C 735.56 313.36 734.94 314.04 734.35 314.73 C 735.74 317.44 736.64 320.44 736.14 323.52 C 734.78 323.06 733.43 322.61 732.10 322.15 C 731.83 322.59 731.31 323.48 731.05 323.93 C 732.34 325.64 733.50 327.51 735.16 328.91 C 737.55 330.45 740.89 330.81 742.09 333.78 C 743.34 333.44 744.60 333.09 745.86 332.74 C 745.81 333.98 745.75 335.22 745.72 336.47 C 746.40 334.74 747.07 333.01 747.76 331.29 C 748.19 331.22 749.06 331.08 749.50 331.01 C 749.53 332.47 749.57 333.93 749.65 335.40 C 751.17 333.37 751.59 330.84 752.03 328.42 C 753.18 331.22 754.70 333.86 756.55 336.27 C 755.20 337.13 753.86 337.99 752.53 338.85 C 752.90 339.84 753.29 340.83 753.69 341.83 C 752.23 341.29 750.78 340.76 749.34 340.23 C 749.12 340.97 748.70 342.44 748.48 343.18 C 740.18 339.76 731.30 338.19 722.87 335.17 C 718.64 333.63 714.20 332.88 709.82 331.93 C 692.28 327.12 674.04 325.98 656.04 324.00 C 647.34 323.99 638.64 324.59 629.94 324.02 C 613.94 325.07 597.79 325.68 582.06 329.15 C 577.00 330.37 571.75 330.51 566.70 331.81 C 553.37 336.21 539.27 338.30 526.58 344.56 C 515.74 348.15 505.39 353.03 495.14 358.03 C 487.73 361.39 481.15 366.26 473.91 369.95 C 467.65 374.55 460.32 377.43 454.27 382.34 C 444.17 390.20 433.69 397.62 424.28 406.34 C 415.68 414.37 407.33 422.68 399.49 431.45 C 394.04 436.76 389.83 443.13 384.86 448.86 C 378.41 457.18 372.12 465.69 367.03 474.92 C 363.25 481.50 358.96 487.77 355.49 494.52 C 348.34 507.23 343.14 520.88 337.44 534.27 C 333.92 544.06 331.93 554.32 328.56 564.17 C 326.54 569.62 326.50 575.48 325.17 581.09 C 322.85 588.59 321.41 596.35 320.65 604.16 C 320.41 613.30 318.77 622.35 319.24 631.52 C 319.83 631.46 321.01 631.34 321.60 631.27 C 321.82 638.86 321.07 646.43 321.35 654.02 C 322.24 676.45 325.25 698.80 330.61 720.61 C 330.22 722.60 329.76 724.58 329.27 726.56 C 327.17 727.26 324.92 727.72 323.08 729.01 C 322.57 730.47 322.34 732.01 322.05 733.54 C 321.55 733.64 320.55 733.83 320.05 733.92 C 320.23 732.03 320.41 730.14 320.59 728.26 C 319.61 728.76 318.63 729.25 317.66 729.77 C 317.25 729.20 316.84 728.64 316.43 728.09 C 317.11 726.91 317.90 725.80 318.36 724.53 C 317.82 722.89 316.00 722.14 314.79 721.06 C 314.62 719.58 314.46 718.11 314.30 716.64 C 313.65 716.12 312.99 715.60 312.34 715.10 C 312.40 716.73 312.47 718.38 312.55 720.04 C 311.55 719.23 310.57 718.44 309.54 717.71 C 309.02 717.66 307.97 717.55 307.45 717.50 L 306.57 717.42 C 305.93 712.93 305.00 708.48 303.89 704.08 C 303.60 702.02 303.74 699.85 302.85 697.93 C 302.62 696.24 302.44 694.55 302.23 692.88 C 300.47 686.78 300.85 680.34 299.84 674.12 C 299.11 664.85 298.23 655.55 298.61 646.23 L 297.44 646.73 C 297.59 642.54 297.61 638.36 297.44 634.18 L 298.55 634.77 C 298.56 627.24 298.49 619.69 298.88 612.17 C 300.28 604.50 300.74 596.65 302.19 589.02 C 302.26 584.24 304.09 579.78 304.69 575.09 C 306.43 565.98 308.40 556.93 311.02 548.04 C 312.59 541.87 314.30 535.75 316.70 529.85 C 317.24 528.27 317.73 526.67 318.28 525.10 C 319.11 523.02 319.93 520.94 320.71 518.84 C 321.17 517.57 321.62 516.31 322.09 515.05 C 322.48 514.08 322.87 513.12 323.29 512.16 C 324.52 509.42 325.77 506.67 326.69 503.80 C 328.69 499.96 330.42 496.00 332.18 492.05 C 333.86 489.14 335.48 486.17 336.70 483.03 C 338.72 479.80 340.16 476.26 342.17 473.02 C 353.60 452.47 367.49 433.35 382.78 415.52 C 385.40 412.53 388.29 409.79 390.86 406.76 C 417.19 378.36 448.69 354.92 483.01 337.04 C 486.30 335.29 489.66 333.69 493.03 332.11 C 497.14 329.61 501.80 328.27 506.07 326.07 C 509.38 324.74 512.72 323.45 516.06 322.20 C 521.57 319.77 527.33 317.94 533.06 316.12 C 536.55 314.64 540.31 314.02 543.85 312.70 C 544.41 312.56 545.52 312.29 546.08 312.15 C 552.57 309.98 559.29 308.22 566.07 307.28 C 570.75 305.19 576.00 305.19 580.91 303.94 C 582.63 303.64 584.60 303.92 586.06 302.74 C 588.07 302.55 590.19 302.71 592.06 301.75 C 595.34 301.49 598.68 301.64 601.92 300.90 Z" />
</g>
<g id="#45a1c3ff">
<path fill="#45a1c3" opacity="1.00" d=" M 736.19 312.69 C 741.20 313.26 746.07 315.52 750.85 317.25 C 751.41 317.36 752.52 317.56 753.07 317.67 C 757.27 319.67 761.85 320.72 766.01 322.84 C 770.15 324.21 774.18 325.89 778.03 327.94 C 779.04 328.26 780.06 328.59 781.09 328.90 C 783.70 330.31 786.35 331.65 789.04 332.92 C 795.15 335.67 801.06 338.86 806.93 342.10 C 861.33 372.38 907.21 417.82 937.83 472.05 C 939.28 474.69 940.66 477.36 942.21 479.96 C 944.20 483.96 946.35 487.87 948.37 491.87 C 949.57 494.59 950.78 497.31 952.20 499.95 C 954.49 505.30 956.70 510.69 958.85 516.11 C 959.30 517.36 959.76 518.64 960.24 519.91 C 960.85 521.57 961.48 523.23 962.09 524.90 C 962.60 527.11 963.54 529.18 964.58 531.20 L 964.35 532.82 C 963.86 533.75 963.36 534.67 962.87 535.59 C 958.49 534.98 954.16 535.97 949.82 536.26 C 946.87 535.06 945.34 531.70 942.27 530.57 C 942.79 532.31 943.37 534.03 943.97 535.76 C 941.90 535.45 939.24 536.17 937.76 534.33 C 936.76 533.30 935.88 532.19 934.97 531.11 C 935.01 531.85 935.09 533.31 935.12 534.05 C 926.95 511.15 915.84 489.38 902.68 468.96 C 902.09 463.41 897.93 459.42 894.94 455.04 C 885.96 442.50 875.93 430.75 865.26 419.64 C 856.49 411.46 848.37 402.55 838.59 395.53 C 827.46 385.74 814.60 378.26 802.54 369.75 C 797.94 366.35 792.67 364.07 787.76 361.19 C 780.03 357.06 772.38 352.68 764.16 349.59 C 758.89 347.56 753.77 345.15 748.48 343.18 C 748.70 342.44 749.12 340.97 749.34 340.23 C 750.78 340.76 752.23 341.29 753.69 341.83 C 753.29 340.83 752.90 339.84 752.53 338.85 C 753.86 337.99 755.20 337.13 756.55 336.27 C 754.70 333.86 753.18 331.22 752.03 328.42 C 751.59 330.84 751.17 333.37 749.65 335.40 C 749.57 333.93 749.53 332.47 749.50 331.01 C 749.06 331.08 748.19 331.22 747.76 331.29 C 747.07 333.01 746.40 334.74 745.72 336.47 C 745.75 335.22 745.81 333.98 745.86 332.74 C 744.60 333.09 743.34 333.44 742.09 333.78 C 740.89 330.81 737.55 330.45 735.16 328.91 C 733.50 327.51 732.34 325.64 731.05 323.93 C 731.31 323.48 731.83 322.59 732.10 322.15 C 733.43 322.61 734.78 323.06 736.14 323.52 C 736.64 320.44 735.74 317.44 734.35 314.73 C 734.94 314.04 735.56 313.36 736.19 312.69 Z" />
</g>
<g id="#3699beff">
<path fill="#3699be" opacity="1.00" d=" M 582.06 329.15 C 597.79 325.68 613.94 325.07 629.94 324.02 C 638.64 324.59 647.34 323.99 656.04 324.00 C 674.04 325.98 692.28 327.12 709.82 331.93 C 714.20 332.88 718.64 333.63 722.87 335.17 C 731.30 338.19 740.18 339.76 748.48 343.18 C 753.77 345.15 758.89 347.56 764.16 349.59 C 772.38 352.68 780.03 357.06 787.76 361.19 C 792.67 364.07 797.94 366.35 802.54 369.75 C 801.63 369.78 799.81 369.86 798.90 369.90 C 755.38 344.14 705.49 329.29 655.00 326.77 C 626.13 325.69 597.14 327.85 568.91 334.05 C 522.23 344.67 478.02 365.86 440.51 395.61 C 431.89 401.87 424.55 409.62 416.56 416.62 C 404.47 428.26 393.69 441.15 383.36 454.35 C 372.85 468.63 363.57 483.80 355.30 499.47 C 345.81 518.88 337.68 539.02 332.22 559.95 C 328.76 571.41 327.11 583.30 324.74 595.01 C 323.25 607.04 321.14 619.11 321.60 631.27 C 321.01 631.34 319.83 631.46 319.24 631.52 C 318.77 622.35 320.41 613.30 320.65 604.16 C 321.41 596.35 322.85 588.59 325.17 581.09 C 326.50 575.48 326.54 569.62 328.56 564.17 C 331.93 554.32 333.92 544.06 337.44 534.27 C 343.14 520.88 348.34 507.23 355.49 494.52 C 358.96 487.77 363.25 481.50 367.03 474.92 C 372.12 465.69 378.41 457.18 384.86 448.86 C 389.83 443.13 394.04 436.76 399.49 431.45 C 407.33 422.68 415.68 414.37 424.28 406.34 C 433.69 397.62 444.17 390.20 454.27 382.34 C 460.32 377.43 467.65 374.55 473.91 369.95 C 481.15 366.26 487.73 361.39 495.14 358.03 C 505.39 353.03 515.74 348.15 526.58 344.56 C 539.27 338.30 553.37 336.21 566.70 331.81 C 571.75 330.51 577.00 330.37 582.06 329.15 Z" />
</g>
<g id="#f1eeedff">
<path fill="#f1eeed" opacity="1.00" d=" M 568.91 334.05 C 597.14 327.85 626.13 325.69 655.00 326.77 C 705.49 329.29 755.38 344.14 798.90 369.90 C 810.37 376.58 821.25 384.20 831.89 392.11 C 839.00 398.35 846.86 403.70 853.48 410.50 C 872.09 427.99 888.53 447.71 902.68 468.96 C 915.84 489.38 926.95 511.15 935.12 534.05 C 940.22 548.62 944.54 563.47 947.57 578.61 C 956.65 626.41 955.81 676.38 943.01 723.42 C 932.77 762.21 915.02 798.98 891.15 831.24 C 868.54 861.72 840.31 887.92 808.53 908.61 C 767.69 935.26 720.42 951.68 672.01 957.10 C 659.74 958.70 647.33 958.63 634.98 958.76 C 624.66 958.60 614.31 958.49 604.07 957.03 C 576.29 954.88 549.05 947.84 523.04 938.01 C 489.81 925.14 458.78 906.63 431.61 883.57 C 409.49 864.86 390.60 842.64 374.22 818.80 C 354.38 788.78 339.40 755.52 330.61 720.61 C 325.25 698.80 322.24 676.45 321.35 654.02 C 321.07 646.43 321.82 638.86 321.60 631.27 C 321.14 619.11 323.25 607.04 324.74 595.01 C 327.11 583.30 328.76 571.41 332.22 559.95 C 337.68 539.02 345.81 518.88 355.30 499.47 C 363.57 483.80 372.85 468.63 383.36 454.35 C 393.69 441.15 404.47 428.26 416.56 416.62 C 424.55 409.62 431.89 401.87 440.51 395.61 C 478.02 365.86 522.23 344.67 568.91 334.05 M 508.98 388.97 C 466.07 410.54 429.19 443.48 401.96 482.97 C 401.29 483.68 401.15 484.47 401.54 485.33 C 423.73 486.21 445.91 485.03 468.08 484.24 C 476.01 483.09 484.07 483.69 491.99 482.42 C 496.33 481.61 500.71 483.26 503.99 486.09 C 507.34 490.35 508.24 497.15 504.17 501.25 C 502.28 503.79 499.15 505.03 496.09 505.34 C 486.69 506.11 477.32 507.39 467.88 507.62 C 466.52 507.75 463.61 507.55 464.34 509.79 C 472.00 533.52 479.70 557.25 487.64 580.90 C 491.83 593.42 495.47 606.16 500.24 618.46 C 501.23 624.08 503.97 629.16 505.43 634.65 C 520.04 679.47 535.03 724.18 549.63 768.99 C 554.55 784.86 560.29 800.50 564.84 816.48 C 565.24 816.60 566.05 816.82 566.46 816.94 C 568.54 809.18 571.39 801.66 573.97 794.05 C 585.81 758.63 597.92 723.29 609.70 687.84 C 616.27 668.64 622.37 649.22 629.41 630.19 C 625.37 619.70 621.51 609.14 617.72 598.55 C 611.93 581.22 605.03 564.29 599.34 546.93 C 595.24 534.90 590.46 523.12 586.47 511.06 C 586.07 509.40 584.93 507.93 583.12 507.91 C 573.01 507.44 562.80 506.99 552.87 504.88 C 548.27 503.78 545.81 499.40 545.10 495.03 C 544.82 488.87 549.40 482.25 556.06 482.62 C 567.40 482.78 578.68 484.61 590.03 484.69 C 598.65 485.65 607.33 485.44 615.98 485.80 C 624.61 486.70 633.30 486.39 641.96 486.34 C 656.18 486.55 670.32 484.87 684.51 484.35 C 693.58 485.12 702.54 482.16 711.60 483.46 C 718.21 485.13 722.66 493.10 719.32 499.39 C 717.74 503.70 713.22 505.68 708.96 506.16 C 698.37 507.16 687.76 507.93 677.14 508.53 C 681.06 522.47 686.26 536.02 690.47 549.87 C 693.45 558.34 695.79 567.05 699.13 575.39 C 700.13 582.02 703.14 588.11 704.83 594.58 C 710.14 610.25 715.51 625.91 720.55 641.67 C 730.14 670.46 739.80 699.26 748.85 728.22 C 752.53 738.41 755.80 748.76 759.12 759.08 C 760.02 761.76 760.49 764.64 762.13 767.03 C 762.82 770.69 764.37 774.10 765.49 777.65 C 769.60 790.04 773.67 802.44 777.61 814.88 C 777.98 814.76 778.70 814.53 779.07 814.41 C 780.76 807.15 783.21 800.09 785.46 793.00 C 792.22 769.01 800.02 745.34 807.29 721.51 C 813.11 705.48 819.09 689.47 823.07 672.87 C 827.05 656.25 830.33 639.21 829.45 622.03 C 828.23 615.05 828.68 607.87 826.86 600.98 C 823.68 584.43 817.21 568.63 808.86 554.04 C 802.30 542.08 794.42 530.85 788.59 518.49 C 782.59 507.35 778.85 494.75 779.24 482.01 C 778.86 474.62 781.40 467.57 783.98 460.77 C 789.33 449.97 798.32 440.87 809.53 436.22 C 815.99 433.60 823.02 433.01 829.92 433.18 C 829.32 430.71 827.03 429.38 825.30 427.76 C 811.34 415.72 796.48 404.71 780.48 395.50 C 770.26 389.89 760.05 384.04 749.03 380.14 C 746.82 378.82 744.29 378.20 741.93 377.22 C 737.92 375.79 734.18 373.38 729.82 373.19 C 717.89 367.91 704.95 365.57 692.29 362.72 C 681.54 361.02 670.78 359.37 659.91 358.67 C 647.29 358.18 634.63 356.79 622.03 358.27 C 582.77 360.59 544.01 371.08 508.98 388.97 M 887.21 506.77 C 889.16 521.08 888.93 535.57 888.52 549.99 C 886.79 576.11 880.04 601.62 871.18 626.16 C 863.22 646.30 856.80 667.01 849.24 687.30 C 841.19 711.66 831.92 735.61 824.03 760.02 C 820.04 770.27 816.63 780.74 813.02 791.12 C 805.47 811.95 798.17 832.87 790.83 853.78 C 786.48 865.48 782.12 877.19 778.17 889.04 C 783.42 886.50 788.43 883.42 793.27 880.15 C 844.48 846.43 884.14 795.65 904.66 737.90 C 906.49 731.58 909.34 725.60 910.73 719.15 C 912.09 713.02 914.39 707.16 916.24 701.17 C 916.39 690.36 919.46 679.83 920.25 669.05 C 920.52 660.02 921.58 651.05 921.55 642.01 C 921.46 598.10 911.77 554.00 892.09 514.67 C 890.67 511.93 889.92 508.56 887.21 506.77 M 353.43 622.96 C 352.62 636.32 351.76 649.79 353.41 663.12 C 355.18 690.03 360.86 716.66 370.19 741.97 C 371.04 744.68 372.09 747.36 373.75 749.71 C 375.35 755.26 378.53 760.20 380.12 765.76 C 385.61 775.60 390.68 785.69 396.73 795.22 C 403.01 805.00 409.71 814.57 417.23 823.45 C 424.97 833.37 433.71 842.49 442.97 851.01 C 449.53 857.83 457.22 863.39 464.60 869.28 C 472.26 875.43 480.42 880.95 488.84 886.02 C 496.34 890.43 503.71 895.34 512.00 898.15 C 511.13 893.63 509.26 889.41 507.64 885.14 C 505.31 879.67 503.89 873.85 501.42 868.43 C 499.24 863.48 498.24 858.12 496.05 853.18 C 493.45 847.19 492.08 840.71 489.13 834.87 C 489.29 833.93 489.14 833.03 488.68 832.16 C 478.87 805.44 469.39 778.60 459.71 751.85 C 436.30 686.37 412.61 620.98 389.44 555.41 C 385.89 546.77 383.47 537.72 379.90 529.08 C 379.61 527.49 379.11 525.94 378.17 524.61 C 364.29 555.62 355.53 589.01 353.43 622.96 M 641.52 667.16 C 636.43 683.23 630.25 698.94 625.04 714.96 C 616.00 740.09 607.45 765.41 598.65 790.64 C 593.92 804.45 588.82 818.13 584.23 831.98 C 583.77 833.52 582.78 834.80 581.82 836.07 C 581.04 843.53 577.32 850.20 575.29 857.34 C 572.30 865.87 569.06 874.32 566.20 882.89 C 562.76 893.90 558.00 904.49 555.11 915.67 C 556.83 916.08 558.56 916.45 560.31 916.79 C 576.50 921.55 593.20 924.70 610.04 925.94 C 617.87 926.93 625.80 926.40 633.64 927.39 C 638.78 927.57 643.90 927.09 649.02 926.70 C 661.13 926.71 673.11 924.81 685.09 923.22 C 700.10 920.11 715.23 916.96 729.59 911.51 C 728.03 905.10 724.87 899.13 723.14 892.74 C 718.15 880.69 715.09 867.96 709.90 856.01 C 704.14 839.70 698.58 823.32 692.58 807.10 C 691.23 802.09 689.25 797.30 687.23 792.54 C 675.99 760.28 664.22 728.22 652.94 695.97 C 649.98 687.59 646.49 679.40 644.08 670.84 C 643.46 669.51 643.69 666.61 641.52 667.16 Z" />
</g>
<g id="#47a5c6ff">
<path fill="#47a5c6" opacity="1.00" d=" M 508.98 388.97 C 544.01 371.08 582.77 360.59 622.03 358.27 C 634.63 356.79 647.29 358.18 659.91 358.67 C 670.78 359.37 681.54 361.02 692.29 362.72 C 704.95 365.57 717.89 367.91 729.82 373.19 C 734.18 373.38 737.92 375.79 741.93 377.22 C 744.29 378.20 746.82 378.82 749.03 380.14 C 750.32 381.48 751.55 382.89 752.77 384.30 C 749.74 383.38 746.83 381.93 743.68 381.54 C 742.89 382.16 742.14 382.81 741.42 383.50 C 744.28 384.88 747.96 386.18 747.91 389.97 C 743.27 391.66 739.01 394.19 735.03 397.07 C 735.29 400.95 735.00 405.16 737.77 408.29 C 739.15 407.31 740.54 406.34 741.94 405.37 C 740.26 404.05 738.64 402.62 737.56 400.76 C 740.23 401.17 744.41 402.64 743.36 406.16 C 743.37 409.57 739.75 409.94 737.28 410.74 C 736.22 409.54 735.16 408.35 734.11 407.16 C 733.23 408.92 732.27 410.64 731.24 412.33 C 730.20 411.52 729.18 410.71 728.16 409.91 C 729.08 408.83 729.99 407.75 730.92 406.68 C 728.53 405.20 726.19 403.65 723.88 402.05 C 723.37 402.14 722.34 402.31 721.83 402.39 C 721.63 403.70 721.43 405.00 721.26 406.32 C 720.29 403.81 719.21 401.32 717.57 399.17 C 717.59 401.28 718.10 403.34 718.71 405.35 C 718.00 405.38 717.30 405.41 716.61 405.45 C 716.89 406.71 717.18 407.97 717.48 409.23 C 717.07 409.02 716.27 408.61 715.87 408.40 C 714.80 406.51 713.72 404.64 712.58 402.80 C 711.38 404.77 710.21 406.75 709.04 408.74 C 707.87 408.00 706.70 407.25 705.54 406.52 C 704.46 407.35 703.37 408.18 702.30 409.02 C 702.58 406.39 703.42 403.80 705.59 402.14 C 705.09 401.06 704.59 399.99 704.10 398.93 C 705.62 398.25 707.13 397.56 708.64 396.86 C 707.44 396.09 706.38 394.74 704.80 395.03 C 703.50 394.87 701.81 395.47 700.90 394.21 C 700.58 392.98 700.48 391.72 700.33 390.47 C 699.37 390.32 698.42 390.17 697.48 390.03 C 697.84 390.99 698.22 391.95 698.60 392.92 C 696.87 393.72 695.14 394.52 693.43 395.34 C 695.99 395.85 698.63 396.09 701.11 396.98 C 701.92 398.22 702.48 399.61 703.12 400.95 C 702.26 401.77 701.41 402.61 700.56 403.44 C 698.76 403.12 696.94 402.99 695.13 403.00 C 694.22 401.81 693.41 400.55 692.34 399.52 C 688.82 400.63 686.83 404.04 684.71 406.81 C 687.14 406.12 689.30 404.79 691.32 403.29 C 693.16 404.95 695.25 406.50 696.34 408.80 C 697.05 410.49 696.77 412.36 696.93 414.14 C 698.73 414.06 700.56 413.39 702.37 413.78 C 703.72 415.83 703.28 418.61 704.08 420.92 C 705.30 421.67 706.80 421.69 708.18 422.00 C 709.04 419.40 710.17 416.89 711.72 414.63 C 712.00 415.90 712.28 417.19 712.55 418.48 C 713.35 418.12 714.15 417.76 714.96 417.41 C 714.92 422.25 717.24 428.10 713.59 432.17 C 717.90 433.00 722.32 432.80 726.65 433.47 C 728.21 434.53 728.63 436.65 729.62 438.20 C 727.47 438.90 725.32 439.57 723.16 440.21 C 724.05 438.77 724.95 437.34 725.86 435.91 C 725.69 435.57 725.35 434.91 725.18 434.58 C 722.53 435.93 719.67 436.81 716.73 437.26 C 716.70 436.49 716.68 435.73 716.67 434.97 C 714.05 435.00 711.29 434.47 709.30 432.65 C 707.01 430.64 706.78 427.42 706.19 424.64 C 701.66 423.10 696.97 421.89 692.14 422.08 C 692.13 422.62 692.11 423.71 692.10 424.25 C 694.10 425.18 696.29 425.47 698.47 425.01 C 702.13 424.44 705.19 427.79 705.12 431.35 C 702.59 430.76 700.20 429.72 698.00 428.39 C 697.72 428.79 697.17 429.60 696.89 430.00 C 698.35 431.98 700.23 433.59 702.44 434.69 C 700.91 435.37 699.39 436.07 697.88 436.78 C 699.25 441.23 701.52 445.47 705.57 448.04 C 705.44 448.32 705.19 448.88 705.06 449.16 C 702.31 449.05 699.58 448.85 696.86 448.50 C 696.22 449.87 695.23 451.48 696.28 452.94 C 697.42 453.32 698.62 453.44 699.81 453.68 C 696.60 455.00 693.34 456.20 689.92 456.81 C 690.74 458.22 691.56 459.63 692.39 461.05 C 693.77 459.91 695.15 458.77 696.51 457.60 C 695.40 460.59 695.39 463.76 696.53 466.75 C 694.52 466.05 692.50 465.43 690.46 464.85 C 689.29 467.04 688.61 469.69 686.64 471.32 C 685.19 471.33 683.76 471.08 682.34 470.94 C 681.94 469.19 681.54 467.46 681.14 465.73 C 682.26 465.59 683.40 465.46 684.54 465.35 C 685.94 462.66 687.14 459.88 688.05 456.99 C 685.37 458.12 683.02 459.93 682.94 463.09 C 681.72 463.28 680.52 463.48 679.31 463.68 C 678.99 463.17 678.35 462.13 678.03 461.61 C 681.79 458.24 685.32 453.83 690.77 453.47 C 687.15 452.27 683.82 450.26 681.68 447.04 C 681.44 447.23 680.95 447.61 680.71 447.80 C 680.95 448.95 681.21 450.12 681.46 451.29 C 680.40 450.37 679.36 449.47 678.31 448.56 C 677.94 449.80 677.57 451.03 677.20 452.27 C 675.75 449.39 676.27 446.21 676.83 443.18 C 675.76 443.56 674.69 443.95 673.64 444.34 C 673.05 446.08 672.48 447.81 671.91 449.56 C 670.84 448.03 669.79 446.51 668.74 444.98 C 667.32 445.69 665.92 446.39 664.51 447.08 C 665.49 447.19 666.47 447.30 667.46 447.42 C 667.05 448.27 666.64 449.12 666.24 449.98 C 667.79 450.55 669.38 451.10 670.76 452.04 C 669.92 453.79 668.72 455.35 668.01 457.16 C 667.43 460.27 667.17 463.45 666.15 466.47 C 664.64 465.27 663.13 464.09 661.56 462.98 C 661.57 462.04 661.58 461.09 661.61 460.17 C 660.52 460.96 659.43 461.76 658.35 462.56 C 660.39 464.66 662.24 466.94 663.86 469.38 C 665.22 469.32 666.58 469.26 667.96 469.20 C 669.23 471.35 670.89 473.37 671.55 475.83 C 671.30 478.58 669.41 480.78 667.86 482.94 C 656.89 483.11 645.94 484.32 634.96 483.88 C 621.97 484.09 609.02 482.75 596.03 482.88 C 584.89 482.08 573.71 481.76 562.60 480.56 C 557.94 480.11 552.75 479.81 548.87 482.91 C 544.28 485.92 542.18 491.59 543.25 496.92 C 543.71 496.44 544.64 495.50 545.10 495.03 C 545.81 499.40 548.27 503.78 552.87 504.88 C 562.80 506.99 573.01 507.44 583.12 507.91 C 584.93 507.93 586.07 509.40 586.47 511.06 C 590.46 523.12 595.24 534.90 599.34 546.93 C 605.03 564.29 611.93 581.22 617.72 598.55 C 621.51 609.14 625.37 619.70 629.41 630.19 C 622.37 649.22 616.27 668.64 609.70 687.84 C 597.92 723.29 585.81 758.63 573.97 794.05 C 571.39 801.66 568.54 809.18 566.46 816.94 C 566.05 816.82 565.24 816.60 564.84 816.48 C 560.29 800.50 554.55 784.86 549.63 768.99 C 535.03 724.18 520.04 679.47 505.43 634.65 C 503.97 629.16 501.23 624.08 500.24 618.46 C 497.86 605.01 492.53 592.35 488.74 579.28 C 484.69 568.84 481.72 558.03 477.92 547.50 C 475.22 539.01 472.04 530.67 469.85 522.03 C 468.43 517.61 466.56 513.24 466.77 508.50 C 476.87 507.53 486.99 506.83 497.09 505.92 C 503.60 505.72 508.94 499.33 508.50 492.96 C 508.31 490.00 506.18 487.80 503.99 486.09 C 500.71 483.26 496.33 481.61 491.99 482.42 C 484.07 483.69 476.01 483.09 468.08 484.24 C 445.91 485.03 423.73 486.21 401.54 485.33 C 401.15 484.47 401.29 483.68 401.96 482.97 C 429.19 443.48 466.07 410.54 508.98 388.97 Z" />
<path fill="#47a5c6" opacity="1.00" d=" M 378.27 526.50 C 378.83 527.34 379.37 528.21 379.90 529.08 C 383.47 537.72 385.89 546.77 389.44 555.41 C 412.61 620.98 436.30 686.37 459.71 751.85 C 469.39 778.60 478.87 805.44 488.68 832.16 C 489.14 833.03 489.29 833.93 489.13 834.87 C 488.68 836.71 487.43 838.69 488.48 840.58 C 490.07 844.66 491.39 848.82 492.59 853.03 C 489.30 850.77 485.62 849.18 481.85 847.92 C 480.65 849.93 479.46 851.95 478.29 853.98 C 475.39 853.11 473.22 851.05 471.48 848.66 C 468.84 844.94 464.13 843.96 460.37 841.82 C 461.06 843.96 461.93 846.08 462.16 848.35 C 459.55 851.33 455.73 852.77 451.98 853.66 C 451.44 852.48 450.91 851.32 450.38 850.16 C 450.02 851.45 449.66 852.74 449.31 854.05 C 447.00 852.58 444.91 850.73 444.02 848.07 C 445.37 848.54 446.73 849.06 448.09 849.57 C 448.39 849.12 449.00 848.23 449.31 847.79 C 448.14 846.99 447.12 845.90 445.76 845.46 C 444.18 845.49 442.66 846.00 441.15 846.37 C 435.51 841.18 430.29 835.55 425.23 829.80 C 422.90 827.34 421.16 823.38 417.23 823.45 C 409.71 814.57 403.01 805.00 396.73 795.22 C 390.68 785.69 385.61 775.60 380.12 765.76 C 378.53 760.20 375.35 755.26 373.75 749.71 C 371.02 740.32 367.25 731.27 364.64 721.85 C 359.08 701.40 355.41 680.39 354.29 659.22 C 353.18 650.84 353.36 642.38 354.04 633.97 C 354.39 622.78 355.49 611.63 356.91 600.53 C 358.05 591.72 360.37 583.13 362.05 574.42 C 363.24 568.24 365.56 562.36 367.28 556.32 C 370.25 546.13 374.70 536.47 378.27 526.50 Z" />
</g>
<g id="#468eaaff">
<path fill="#468eaa" opacity="1.00" d=" M 798.90 369.90 C 799.81 369.86 801.63 369.78 802.54 369.75 C 814.60 378.26 827.46 385.74 838.59 395.53 C 848.37 402.55 856.49 411.46 865.26 419.64 C 875.93 430.75 885.96 442.50 894.94 455.04 C 897.93 459.42 902.09 463.41 902.68 468.96 C 888.53 447.71 872.09 427.99 853.48 410.50 C 846.86 403.70 839.00 398.35 831.89 392.11 C 821.25 384.20 810.37 376.58 798.90 369.90 Z" />
<path fill="#468eaa" opacity="1.00" d=" M 503.99 486.09 C 506.18 487.80 508.31 490.00 508.50 492.96 C 508.94 499.33 503.60 505.72 497.09 505.92 C 486.99 506.83 476.87 507.53 466.77 508.50 C 466.56 513.24 468.43 517.61 469.85 522.03 C 472.04 530.67 475.22 539.01 477.92 547.50 C 481.72 558.03 484.69 568.84 488.74 579.28 C 492.53 592.35 497.86 605.01 500.24 618.46 C 495.47 606.16 491.83 593.42 487.64 580.90 C 479.70 557.25 472.00 533.52 464.34 509.79 C 463.61 507.55 466.52 507.75 467.88 507.62 C 477.32 507.39 486.69 506.11 496.09 505.34 C 499.15 505.03 502.28 503.79 504.17 501.25 C 508.24 497.15 507.34 490.35 503.99 486.09 Z" />
<path fill="#468eaa" opacity="1.00" d=" M 556.30 915.08 C 556.47 914.49 556.81 913.32 556.98 912.73 C 566.68 917.47 577.46 919.55 588.09 921.02 C 603.07 923.24 618.19 925.08 633.36 924.68 C 633.45 925.57 633.54 926.48 633.64 927.39 C 625.80 926.40 617.87 926.93 610.04 925.94 C 593.20 924.70 576.50 921.55 560.31 916.79 C 558.95 916.24 557.62 915.64 556.30 915.08 Z" />
</g>
<g id="#46a2c3ff">
<path fill="#46a2c3" opacity="1.00" d=" M 743.68 381.54 C 746.83 381.93 749.74 383.38 752.77 384.30 C 751.55 382.89 750.32 381.48 749.03 380.14 C 760.05 384.04 770.26 389.89 780.48 395.50 C 796.48 404.71 811.34 415.72 825.30 427.76 C 827.03 429.38 829.32 430.71 829.92 433.18 C 823.02 433.01 815.99 433.60 809.53 436.22 C 798.32 440.87 789.33 449.97 783.98 460.77 C 781.40 467.57 778.86 474.62 779.24 482.01 C 778.85 494.75 782.59 507.35 788.59 518.49 C 794.42 530.85 802.30 542.08 808.86 554.04 C 817.21 568.63 823.68 584.43 826.86 600.98 C 828.68 607.87 828.23 615.05 829.45 622.03 C 830.33 639.21 827.05 656.25 823.07 672.87 C 819.09 689.47 813.11 705.48 807.29 721.51 C 800.02 745.34 792.22 769.01 785.46 793.00 C 783.21 800.09 780.76 807.15 779.07 814.41 C 778.70 814.53 777.98 814.76 777.61 814.88 C 773.67 802.44 769.60 790.04 765.49 777.65 C 764.37 774.10 762.82 770.69 762.13 767.03 C 761.22 761.59 759.35 756.41 757.68 751.19 C 746.76 719.21 736.98 686.86 725.94 654.92 C 720.52 638.10 715.26 621.23 709.27 604.60 C 705.80 594.90 703.43 584.78 699.13 575.39 C 695.79 567.05 693.45 558.34 690.47 549.87 C 686.26 536.02 681.06 522.47 677.14 508.53 C 687.76 507.93 698.37 507.16 708.96 506.16 C 713.22 505.68 717.74 503.70 719.32 499.39 C 722.66 493.10 718.21 485.13 711.60 483.46 C 702.54 482.16 693.58 485.12 684.51 484.35 C 686.00 483.66 687.49 482.92 688.96 482.18 C 681.91 481.67 674.89 482.69 667.86 482.94 C 669.41 480.78 671.30 478.58 671.55 475.83 C 670.89 473.37 669.23 471.35 667.96 469.20 C 666.58 469.26 665.22 469.32 663.86 469.38 C 662.24 466.94 660.39 464.66 658.35 462.56 C 659.43 461.76 660.52 460.96 661.61 460.17 C 661.58 461.09 661.57 462.04 661.56 462.98 C 663.13 464.09 664.64 465.27 666.15 466.47 C 667.17 463.45 667.43 460.27 668.01 457.16 C 668.72 455.35 669.92 453.79 670.76 452.04 C 669.38 451.10 667.79 450.55 666.24 449.98 C 666.64 449.12 667.05 448.27 667.46 447.42 C 666.47 447.30 665.49 447.19 664.51 447.08 C 665.92 446.39 667.32 445.69 668.74 444.98 C 669.79 446.51 670.84 448.03 671.91 449.56 C 672.48 447.81 673.05 446.08 673.64 444.34 C 674.69 443.95 675.76 443.56 676.83 443.18 C 676.27 446.21 675.75 449.39 677.20 452.27 C 677.57 451.03 677.94 449.80 678.31 448.56 C 679.36 449.47 680.40 450.37 681.46 451.29 C 681.21 450.12 680.95 448.95 680.71 447.80 C 680.95 447.61 681.44 447.23 681.68 447.04 C 683.82 450.26 687.15 452.27 690.77 453.47 C 685.32 453.83 681.79 458.24 678.03 461.61 C 678.35 462.13 678.99 463.17 679.31 463.68 C 680.52 463.48 681.72 463.28 682.94 463.09 C 683.02 459.93 685.37 458.12 688.05 456.99 C 687.14 459.88 685.94 462.66 684.54 465.35 C 683.40 465.46 682.26 465.59 681.14 465.73 C 681.54 467.46 681.94 469.19 682.34 470.94 C 683.76 471.08 685.19 471.33 686.64 471.32 C 688.61 469.69 689.29 467.04 690.46 464.85 C 692.50 465.43 694.52 466.05 696.53 466.75 C 695.39 463.76 695.40 460.59 696.51 457.60 C 695.15 458.77 693.77 459.91 692.39 461.05 C 691.56 459.63 690.74 458.22 689.92 456.81 C 693.34 456.20 696.60 455.00 699.81 453.68 C 698.62 453.44 697.42 453.32 696.28 452.94 C 695.23 451.48 696.22 449.87 696.86 448.50 C 699.58 448.85 702.31 449.05 705.06 449.16 C 705.19 448.88 705.44 448.32 705.57 448.04 C 701.52 445.47 699.25 441.23 697.88 436.78 C 699.39 436.07 700.91 435.37 702.44 434.69 C 700.23 433.59 698.35 431.98 696.89 430.00 C 697.17 429.60 697.72 428.79 698.00 428.39 C 700.20 429.72 702.59 430.76 705.12 431.35 C 705.19 427.79 702.13 424.44 698.47 425.01 C 696.29 425.47 694.10 425.18 692.10 424.25 C 692.11 423.71 692.13 422.62 692.14 422.08 C 696.97 421.89 701.66 423.10 706.19 424.64 C 706.78 427.42 707.01 430.64 709.30 432.65 C 711.29 434.47 714.05 435.00 716.67 434.97 C 716.68 435.73 716.70 436.49 716.73 437.26 C 719.67 436.81 722.53 435.93 725.18 434.58 C 725.35 434.91 725.69 435.57 725.86 435.91 C 724.95 437.34 724.05 438.77 723.16 440.21 C 725.32 439.57 727.47 438.90 729.62 438.20 C 728.63 436.65 728.21 434.53 726.65 433.47 C 722.32 432.80 717.90 433.00 713.59 432.17 C 717.24 428.10 714.92 422.25 714.96 417.41 C 714.15 417.76 713.35 418.12 712.55 418.48 C 712.28 417.19 712.00 415.90 711.72 414.63 C 710.17 416.89 709.04 419.40 708.18 422.00 C 706.80 421.69 705.30 421.67 704.08 420.92 C 703.28 418.61 703.72 415.83 702.37 413.78 C 700.56 413.39 698.73 414.06 696.93 414.14 C 696.77 412.36 697.05 410.49 696.34 408.80 C 695.25 406.50 693.16 404.95 691.32 403.29 C 689.30 404.79 687.14 406.12 684.71 406.81 C 686.83 404.04 688.82 400.63 692.34 399.52 C 693.41 400.55 694.22 401.81 695.13 403.00 C 696.94 402.99 698.76 403.12 700.56 403.44 C 701.41 402.61 702.26 401.77 703.12 400.95 C 702.48 399.61 701.92 398.22 701.11 396.98 C 698.63 396.09 695.99 395.85 693.43 395.34 C 695.14 394.52 696.87 393.72 698.60 392.92 C 698.22 391.95 697.84 390.99 697.48 390.03 C 698.42 390.17 699.37 390.32 700.33 390.47 C 700.48 391.72 700.58 392.98 700.90 394.21 C 701.81 395.47 703.50 394.87 704.80 395.03 C 706.38 394.74 707.44 396.09 708.64 396.86 C 707.13 397.56 705.62 398.25 704.10 398.93 C 704.59 399.99 705.09 401.06 705.59 402.14 C 703.42 403.80 702.58 406.39 702.30 409.02 C 703.37 408.18 704.46 407.35 705.54 406.52 C 706.70 407.25 707.87 408.00 709.04 408.74 C 710.21 406.75 711.38 404.77 712.58 402.80 C 713.72 404.64 714.80 406.51 715.87 408.40 C 716.27 408.61 717.07 409.02 717.48 409.23 C 717.18 407.97 716.89 406.71 716.61 405.45 C 717.30 405.41 718.00 405.38 718.71 405.35 C 718.10 403.34 717.59 401.28 717.57 399.17 C 719.21 401.32 720.29 403.81 721.26 406.32 C 721.43 405.00 721.63 403.70 721.83 402.39 C 722.34 402.31 723.37 402.14 723.88 402.05 C 726.19 403.65 728.53 405.20 730.92 406.68 C 729.99 407.75 729.08 408.83 728.16 409.91 C 729.18 410.71 730.20 411.52 731.24 412.33 C 732.27 410.64 733.23 408.92 734.11 407.16 C 735.16 408.35 736.22 409.54 737.28 410.74 C 739.75 409.94 743.37 409.57 743.36 406.16 C 744.41 402.64 740.23 401.17 737.56 400.76 C 738.64 402.62 740.26 404.05 741.94 405.37 C 740.54 406.34 739.15 407.31 737.77 408.29 C 735.00 405.16 735.29 400.95 735.03 397.07 C 739.01 394.19 743.27 391.66 747.91 389.97 C 747.96 386.18 744.28 384.88 741.42 383.50 C 742.14 382.81 742.89 382.16 743.68 381.54 M 692.13 468.96 C 691.60 470.56 692.16 471.11 693.81 470.61 C 694.32 468.99 693.76 468.44 692.13 468.96 M 732.22 643.42 C 730.75 644.76 733.12 646.99 734.44 645.58 C 735.87 644.24 733.52 642.03 732.22 643.42 Z" />
</g>
<g id="#83aebeff">
<path fill="#83aebe" opacity="1.00" d=" M 692.13 468.96 C 693.76 468.44 694.32 468.99 693.81 470.61 C 692.16 471.11 691.60 470.56 692.13 468.96 Z" />
</g>
<g id="#3599bbff">
<path fill="#3599bb" opacity="1.00" d=" M 548.87 482.91 C 552.75 479.81 557.94 480.11 562.60 480.56 C 573.71 481.76 584.89 482.08 596.03 482.88 C 609.02 482.75 621.97 484.09 634.96 483.88 C 645.94 484.32 656.89 483.11 667.86 482.94 C 674.89 482.69 681.91 481.67 688.96 482.18 C 687.49 482.92 686.00 483.66 684.51 484.35 C 670.32 484.87 656.18 486.55 641.96 486.34 C 633.30 486.39 624.61 486.70 615.98 485.80 C 607.33 485.44 598.65 485.65 590.03 484.69 C 578.68 484.61 567.40 482.78 556.06 482.62 C 549.40 482.25 544.82 488.87 545.10 495.03 C 544.64 495.50 543.71 496.44 543.25 496.92 C 542.18 491.59 544.28 485.92 548.87 482.91 Z" />
</g>
<g id="#459fc1ff">
<path fill="#459fc1" opacity="1.00" d=" M 887.21 506.77 C 889.92 508.56 890.67 511.93 892.09 514.67 C 911.77 554.00 921.46 598.10 921.55 642.01 C 921.58 651.05 920.52 660.02 920.25 669.05 C 919.46 679.83 916.39 690.36 916.24 701.17 C 914.39 707.16 912.09 713.02 910.73 719.15 C 909.34 725.60 906.49 731.58 904.66 737.90 C 884.14 795.65 844.48 846.43 793.27 880.15 C 788.43 883.42 783.42 886.50 778.17 889.04 C 782.12 877.19 786.48 865.48 790.83 853.78 C 798.17 832.87 805.47 811.95 813.02 791.12 C 816.63 780.74 820.04 770.27 824.03 760.02 C 831.92 735.61 841.19 711.66 849.24 687.30 C 856.80 667.01 863.22 646.30 871.18 626.16 C 880.04 601.62 886.79 576.11 888.52 549.99 C 888.93 535.57 889.16 521.08 887.21 506.77 Z" />
</g>
<g id="#9bb0b5ff">
<path fill="#9bb0b5" opacity="1.00" d=" M 353.43 622.96 C 355.53 589.01 364.29 555.62 378.17 524.61 C 379.11 525.94 379.61 527.49 379.90 529.08 C 379.37 528.21 378.83 527.34 378.27 526.50 C 374.70 536.47 370.25 546.13 367.28 556.32 C 365.56 562.36 363.24 568.24 362.05 574.42 C 360.37 583.13 358.05 591.72 356.91 600.53 C 355.49 611.63 354.39 622.78 354.04 633.97 C 353.36 642.38 353.18 650.84 354.29 659.22 C 355.41 680.39 359.08 701.40 364.64 721.85 C 367.25 731.27 371.02 740.32 373.75 749.71 C 372.09 747.36 371.04 744.68 370.19 741.97 C 360.86 716.66 355.18 690.03 353.41 663.12 C 351.76 649.79 352.62 636.32 353.43 622.96 Z" />
</g>
<g id="#459ebfff">
<path fill="#459ebf" opacity="1.00" d=" M 934.97 531.11 C 935.88 532.19 936.76 533.30 937.76 534.33 C 939.24 536.17 941.90 535.45 943.97 535.76 C 943.37 534.03 942.79 532.31 942.27 530.57 C 945.34 531.70 946.87 535.06 949.82 536.26 C 954.16 535.97 958.49 534.98 962.87 535.59 C 963.36 534.67 963.86 533.75 964.35 532.82 L 964.88 531.82 C 965.18 533.54 965.39 535.31 966.10 536.94 C 966.24 537.47 966.53 538.54 966.67 539.07 C 967.08 540.08 967.51 541.09 967.96 542.10 C 968.81 546.38 970.31 550.49 971.27 554.73 C 972.15 562.64 975.22 570.12 976.12 578.03 C 978.64 592.61 980.75 607.30 981.26 622.10 C 981.41 625.21 981.48 628.34 981.99 631.43 C 982.78 636.27 982.91 641.22 981.77 646.03 C 980.87 649.54 981.09 653.19 982.29 656.61 C 982.42 657.14 982.69 658.21 982.82 658.74 L 981.48 658.17 C 981.42 662.13 981.51 666.12 981.14 670.08 C 979.93 680.39 978.83 690.74 977.18 701.01 C 975.62 705.87 975.33 711.00 974.01 715.92 C 972.26 724.78 969.53 733.40 967.18 742.11 C 964.54 749.77 962.22 757.55 958.90 764.94 C 958.34 766.98 957.62 768.97 956.78 770.92 C 953.69 778.02 950.50 785.07 947.26 792.11 C 945.55 794.90 944.05 797.80 942.77 800.80 C 934.09 816.83 924.61 832.52 913.28 846.84 C 913.00 845.01 912.72 843.19 912.47 841.37 C 910.48 841.95 908.51 842.53 906.54 843.11 C 906.07 840.83 905.63 838.57 905.18 836.30 C 902.15 837.68 899.13 839.07 896.11 840.46 C 896.89 840.90 897.67 841.35 898.47 841.82 C 898.52 842.75 898.57 843.68 898.65 844.63 C 900.35 845.25 902.06 845.88 903.78 846.52 C 903.23 847.37 902.67 848.22 902.14 849.08 C 899.50 847.51 897.07 845.56 895.45 842.92 C 894.73 843.70 894.01 844.48 893.37 845.33 C 894.49 848.10 896.89 850.15 898.02 852.92 C 897.30 856.54 893.88 859.30 890.11 858.71 C 890.66 857.71 891.22 856.72 891.79 855.75 C 889.88 854.10 887.97 852.49 886.04 850.89 C 884.50 853.13 883.12 855.49 881.98 857.96 C 881.00 857.43 880.03 856.91 879.08 856.41 C 880.17 854.86 881.28 853.33 882.38 851.79 C 881.00 851.72 879.63 851.66 878.27 851.61 C 882.00 847.85 884.70 843.24 888.21 839.28 C 890.28 836.88 892.06 834.27 893.76 831.61 C 895.11 831.57 896.47 831.54 897.84 831.52 C 896.85 830.44 895.86 829.37 894.89 828.31 C 893.63 829.26 892.36 830.22 891.15 831.24 C 915.02 798.98 932.77 762.21 943.01 723.42 C 955.81 676.38 956.65 626.41 947.57 578.61 C 944.54 563.47 940.22 548.62 935.12 534.05 C 935.09 533.31 935.01 531.85 934.97 531.11 Z" />
</g>
<g id="#27526182">
<path fill="#275261" opacity="0.51" d=" M 971.27 554.73 C 973.49 559.01 973.84 563.94 975.04 568.55 C 978.83 583.46 979.97 598.86 982.23 614.02 C 982.19 619.28 983.71 624.57 982.77 629.81 L 981.99 631.43 C 981.48 628.34 981.41 625.21 981.26 622.10 C 980.75 607.30 978.64 592.61 976.12 578.03 C 975.22 570.12 972.15 562.64 971.27 554.73 Z" />
</g>
<g id="#8da9b3ff">
<path fill="#8da9b3" opacity="1.00" d=" M 699.13 575.39 C 703.43 584.78 705.80 594.90 709.27 604.60 C 715.26 621.23 720.52 638.10 725.94 654.92 C 736.98 686.86 746.76 719.21 757.68 751.19 C 759.35 756.41 761.22 761.59 762.13 767.03 C 760.49 764.64 760.02 761.76 759.12 759.08 C 755.80 748.76 752.53 738.41 748.85 728.22 C 739.80 699.26 730.14 670.46 720.55 641.67 C 715.51 625.91 710.14 610.25 704.83 594.58 C 703.14 588.11 700.13 582.02 699.13 575.39 Z" />
</g>
<g id="#568d9fd2">
<path fill="#568d9f" opacity="0.82" d=" M 981.99 631.43 L 982.77 629.81 C 983.09 638.72 983.37 647.76 982.29 656.61 C 981.09 653.19 980.87 649.54 981.77 646.03 C 982.91 641.22 982.78 636.27 981.99 631.43 Z" />
</g>
<g id="#77b2d1ff">
<path fill="#77b2d1" opacity="1.00" d=" M 732.22 643.42 C 733.52 642.03 735.87 644.24 734.44 645.58 C 733.12 646.99 730.75 644.76 732.22 643.42 Z" />
</g>
<g id="#98afb6ff">
<path fill="#98afb6" opacity="1.00" d=" M 641.52 667.16 C 643.69 666.61 643.46 669.51 644.08 670.84 C 643.51 670.53 642.37 669.92 641.80 669.61 C 636.59 686.48 630.02 702.89 624.55 719.67 C 616.79 740.83 609.64 762.22 602.40 783.57 C 596.74 798.66 591.61 813.94 586.24 829.13 C 582.29 839.09 579.48 849.44 575.64 859.44 C 569.55 877.25 562.88 894.86 556.98 912.73 C 556.81 913.32 556.47 914.49 556.30 915.08 C 557.62 915.64 558.95 916.24 560.31 916.79 C 558.56 916.45 556.83 916.08 555.11 915.67 C 558.00 904.49 562.76 893.90 566.20 882.89 C 569.06 874.32 572.30 865.87 575.29 857.34 C 577.32 850.20 581.04 843.53 581.82 836.07 C 582.78 834.80 583.77 833.52 584.23 831.98 C 588.82 818.13 593.92 804.45 598.65 790.64 C 607.45 765.41 616.00 740.09 625.04 714.96 C 630.25 698.94 636.43 683.23 641.52 667.16 Z" />
</g>
<g id="#439ec0ff">
<path fill="#439ec0" opacity="1.00" d=" M 641.80 669.61 C 642.37 669.92 643.51 670.53 644.08 670.84 C 646.49 679.40 649.98 687.59 652.94 695.97 C 664.22 728.22 675.99 760.28 687.23 792.54 C 689.25 797.30 691.23 802.09 692.58 807.10 C 698.58 823.32 704.14 839.70 709.90 856.01 C 715.09 867.96 718.15 880.69 723.14 892.74 C 724.87 899.13 728.03 905.10 729.59 911.51 C 715.23 916.96 700.10 920.11 685.09 923.22 C 673.11 924.81 661.13 926.71 649.02 926.70 C 643.90 927.09 638.78 927.57 633.64 927.39 C 633.54 926.48 633.45 925.57 633.36 924.68 C 618.19 925.08 603.07 923.24 588.09 921.02 C 577.46 919.55 566.68 917.47 556.98 912.73 C 562.88 894.86 569.55 877.25 575.64 859.44 C 579.48 849.44 582.29 839.09 586.24 829.13 C 591.61 813.94 596.74 798.66 602.40 783.57 C 609.64 762.22 616.79 740.83 624.55 719.67 C 630.02 702.89 636.59 686.48 641.80 669.61 Z" />
<path fill="#439ec0" opacity="1.00" d=" M 417.23 823.45 C 421.16 823.38 422.90 827.34 425.23 829.80 C 430.29 835.55 435.51 841.18 441.15 846.37 C 442.66 846.00 444.18 845.49 445.76 845.46 C 447.12 845.90 448.14 846.99 449.31 847.79 C 449.00 848.23 448.39 849.12 448.09 849.57 C 446.73 849.06 445.37 848.54 444.02 848.07 C 444.91 850.73 447.00 852.58 449.31 854.05 C 449.66 852.74 450.02 851.45 450.38 850.16 C 450.91 851.32 451.44 852.48 451.98 853.66 C 455.73 852.77 459.55 851.33 462.16 848.35 C 461.93 846.08 461.06 843.96 460.37 841.82 C 464.13 843.96 468.84 844.94 471.48 848.66 C 473.22 851.05 475.39 853.11 478.29 853.98 C 479.46 851.95 480.65 849.93 481.85 847.92 C 485.62 849.18 489.30 850.77 492.59 853.03 C 491.39 848.82 490.07 844.66 488.48 840.58 C 487.43 838.69 488.68 836.71 489.13 834.87 C 492.08 840.71 493.45 847.19 496.05 853.18 C 498.24 858.12 499.24 863.48 501.42 868.43 C 503.89 873.85 505.31 879.67 507.64 885.14 C 509.26 889.41 511.13 893.63 512.00 898.15 C 503.71 895.34 496.34 890.43 488.84 886.02 C 480.42 880.95 472.26 875.43 464.60 869.28 C 457.22 863.39 449.53 857.83 442.97 851.01 C 433.71 842.49 424.97 833.37 417.23 823.45 Z" />
</g>
<g id="#44a0c2ff">
<path fill="#44a0c2" opacity="1.00" d=" M 312.34 715.10 C 312.99 715.60 313.65 716.12 314.30 716.64 C 314.46 718.11 314.62 719.58 314.79 721.06 C 316.00 722.14 317.82 722.89 318.36 724.53 C 317.90 725.80 317.11 726.91 316.43 728.09 C 316.84 728.64 317.25 729.20 317.66 729.77 C 318.63 729.25 319.61 728.76 320.59 728.26 C 320.41 730.14 320.23 732.03 320.05 733.92 C 320.55 733.83 321.55 733.64 322.05 733.54 C 322.34 732.01 322.57 730.47 323.08 729.01 C 324.92 727.72 327.17 727.26 329.27 726.56 C 329.76 724.58 330.22 722.60 330.61 720.61 C 339.40 755.52 354.38 788.78 374.22 818.80 C 390.60 842.64 409.49 864.86 431.61 883.57 C 428.52 884.67 424.99 885.11 422.57 887.52 C 420.64 889.48 417.96 890.27 415.44 891.17 C 415.48 892.23 415.53 893.30 415.58 894.38 C 413.94 894.42 412.29 894.44 410.66 894.50 C 381.19 867.80 356.43 835.97 337.83 800.81 C 336.22 797.51 334.42 794.32 332.78 791.04 C 330.83 787.04 329.03 782.97 327.24 778.90 C 325.27 775.00 323.83 770.88 322.14 766.87 C 320.58 763.03 319.31 759.09 317.86 755.22 C 317.53 754.17 317.19 753.14 316.83 752.12 C 315.41 748.46 314.40 744.67 313.28 740.93 C 312.21 738.39 311.39 735.76 310.99 733.03 C 309.32 729.18 309.09 724.90 307.61 721.01 C 307.54 719.83 307.49 718.66 307.45 717.50 C 307.97 717.55 309.02 717.66 309.54 717.71 C 310.57 718.44 311.55 719.23 312.55 720.04 C 312.47 718.38 312.40 716.73 312.34 715.10 Z" />
</g>
<g id="#3f96b8ff">
<path fill="#3f96b8" opacity="1.00" d=" M 891.15 831.24 C 892.36 830.22 893.63 829.26 894.89 828.31 C 895.86 829.37 896.85 830.44 897.84 831.52 C 896.47 831.54 895.11 831.57 893.76 831.61 C 892.06 834.27 890.28 836.88 888.21 839.28 C 884.70 843.24 882.00 847.85 878.27 851.61 C 879.63 851.66 881.00 851.72 882.38 851.79 C 881.28 853.33 880.17 854.86 879.08 856.41 C 880.03 856.91 881.00 857.43 881.98 857.96 C 883.12 855.49 884.50 853.13 886.04 850.89 C 887.97 852.49 889.88 854.10 891.79 855.75 C 891.22 856.72 890.66 857.71 890.11 858.71 C 893.88 859.30 897.30 856.54 898.02 852.92 C 896.89 850.15 894.49 848.10 893.37 845.33 C 894.01 844.48 894.73 843.70 895.45 842.92 C 897.07 845.56 899.50 847.51 902.14 849.08 C 902.67 848.22 903.23 847.37 903.78 846.52 C 902.06 845.88 900.35 845.25 898.65 844.63 C 898.57 843.68 898.52 842.75 898.47 841.82 C 897.67 841.35 896.89 840.90 896.11 840.46 C 899.13 839.07 902.15 837.68 905.18 836.30 C 905.63 838.57 906.07 840.83 906.54 843.11 C 908.51 842.53 910.48 841.95 912.47 841.37 C 912.72 843.19 913.00 845.01 913.28 846.84 L 913.34 847.18 C 902.39 861.14 890.84 874.69 877.90 886.84 C 855.81 908.69 830.29 927.00 802.99 941.78 C 799.69 943.67 796.15 945.12 793.04 947.31 C 792.51 947.40 791.45 947.56 790.92 947.65 C 787.83 949.82 784.36 951.34 780.89 952.78 C 777.97 954.22 774.92 955.40 771.94 956.71 C 770.89 957.07 769.84 957.44 768.81 957.81 C 766.22 958.94 763.63 960.07 761.08 961.28 C 760.54 961.37 759.45 961.55 758.90 961.63 C 757.65 962.18 756.40 962.70 755.17 963.27 C 749.80 964.84 744.58 966.89 739.13 968.20 C 726.73 972.27 713.94 975.13 701.11 977.43 C 691.86 979.62 682.37 980.37 672.96 981.44 C 671.33 981.85 668.70 980.82 668.00 982.95 C 667.24 980.75 664.65 981.83 663.09 982.18 C 647.74 983.03 632.32 982.66 616.96 982.24 C 613.06 980.84 608.82 981.74 604.80 981.08 C 595.53 979.80 586.19 978.92 576.99 977.19 C 568.05 975.02 558.91 973.63 550.08 970.97 C 546.67 970.00 543.31 968.82 539.80 968.26 C 534.91 966.41 529.94 964.80 525.07 962.93 C 520.62 961.50 516.14 960.03 512.05 957.74 C 511.50 957.63 510.38 957.42 509.83 957.32 C 506.86 955.91 503.88 954.54 500.92 953.13 C 499.93 952.78 498.93 952.45 497.94 952.13 C 494.60 950.43 491.33 948.57 487.85 947.17 C 484.47 945.63 481.38 943.50 477.91 942.14 C 453.72 928.96 431.10 912.96 410.66 894.50 C 412.29 894.44 413.94 894.42 415.58 894.38 C 415.53 893.30 415.48 892.23 415.44 891.17 C 417.96 890.27 420.64 889.48 422.57 887.52 C 424.99 885.11 428.52 884.67 431.61 883.57 C 458.78 906.63 489.81 925.14 523.04 938.01 C 549.05 947.84 576.29 954.88 604.07 957.03 C 614.31 958.49 624.66 958.60 634.98 958.76 C 647.33 958.63 659.74 958.70 672.01 957.10 C 720.42 951.68 767.69 935.26 808.53 908.61 C 840.31 887.92 868.54 861.72 891.15 831.24 Z" />
</g>
</svg>
