<?xml version="1.0" encoding="UTF-8" ?>
<!DOCTYPE svg PUBLIC "-//W3C//DTD SVG 1.1//EN" "http://www.w3.org/Graphics/SVG/1.1/DTD/svg11.dtd">
<svg width="1280pt" height="1919pt" viewBox="0 0 1280 1919" version="1.1" xmlns="http://www.w3.org/2000/svg">
<g id="#f24e1eff">
<path fill="#f24e1e" opacity="1.00" d=" M 316.23 0.00 L 639.89 0.00 C 640.21 193.33 639.81 386.67 640.05 580.01 C 639.95 599.86 640.08 619.73 639.93 639.58 C 542.62 639.80 445.31 639.61 348.00 639.67 C 330.64 639.48 313.24 640.26 295.92 638.73 C 273.47 637.05 251.19 633.03 229.59 626.64 C 158.48 605.92 95.38 559.35 54.26 497.78 C 17.75 443.72 -1.41 378.19 0.24 312.96 C 1.14 262.84 14.23 212.99 38.00 168.87 C 72.72 103.86 130.60 51.59 198.87 23.80 C 236.01 8.50 276.08 0.53 316.23 0.00 Z" />
</g>
<g id="#ff7262ff">
<path fill="#ff7262" opacity="1.00" d=" M 639.89 0.00 L 967.62 0.00 C 1016.52 1.29 1065.15 13.64 1108.43 36.52 C 1175.84 71.72 1229.90 131.74 1257.63 202.58 C 1275.63 247.94 1282.77 297.48 1278.78 346.09 C 1275.35 388.86 1263.11 430.90 1243.04 468.83 C 1210.15 531.41 1155.92 582.49 1091.41 611.44 C 1049.09 630.63 1002.48 640.27 956.03 639.58 C 850.68 639.80 745.30 639.54 639.93 639.73 L 639.93 639.58 C 640.08 619.73 639.95 599.86 640.05 580.01 C 639.81 386.67 640.21 193.33 639.89 0.00 Z" />
</g>
<g id="#a259ffff">
<path fill="#a259ff" opacity="1.00" d=" M 109.12 719.11 C 164.72 670.03 237.86 641.21 312.06 639.88 C 421.35 639.64 530.64 639.92 639.93 639.73 C 640.01 729.84 639.98 819.95 639.98 910.06 C 640.24 923.40 639.44 936.76 640.08 950.09 C 640.14 954.68 639.69 959.29 640.34 963.86 C 639.47 976.55 640.01 989.27 640.01 1001.98 C 639.87 1094.44 640.12 1186.90 639.93 1279.36 C 541.94 1279.31 443.94 1279.35 345.95 1279.34 C 322.97 1279.41 299.90 1279.58 277.09 1276.44 C 236.52 1271.02 197.03 1257.63 161.52 1237.28 C 129.96 1219.24 101.49 1195.80 77.77 1168.25 C 47.93 1133.75 25.57 1092.80 12.86 1048.98 C -10.28 970.24 -1.63 882.59 37.14 810.17 C 55.30 775.76 79.88 744.76 109.12 719.11 Z" />
</g>
<g id="#1abcfeff">
<path fill="#1abcfe" opacity="1.00" d=" M 866.41 653.58 C 914.66 638.78 966.40 635.99 1016.08 644.56 C 1056.25 651.71 1095.04 666.62 1129.59 688.35 C 1192.85 727.78 1241.57 789.98 1264.36 860.98 C 1278.47 904.33 1282.90 950.71 1277.80 995.98 C 1273.14 1036.80 1260.56 1076.73 1240.74 1112.74 C 1205.60 1177.35 1147.44 1229.06 1079.13 1256.36 C 1037.00 1273.36 991.18 1281.03 945.81 1278.98 C 901.03 1277.11 856.67 1265.62 816.64 1245.45 C 752.33 1213.36 699.53 1158.91 669.48 1093.64 C 652.01 1056.15 642.20 1015.19 640.28 973.91 C 640.07 970.54 641.03 967.19 640.34 963.86 C 639.69 959.29 640.14 954.68 640.08 950.09 C 640.82 927.46 643.86 904.90 649.25 882.90 C 663.07 826.43 692.85 774.06 734.05 733.08 C 770.84 696.35 816.67 668.74 866.41 653.58 Z" />
</g>
<g id="#0acf83ff">
<path fill="#0acf83" opacity="1.00" d=" M 187.27 1308.16 C 226.31 1290.23 269.04 1280.54 311.96 1279.41 C 421.33 1279.53 530.71 1279.39 640.09 1279.48 C 639.84 1366.98 640.08 1454.48 639.94 1541.98 C 639.83 1565.34 640.30 1588.69 639.70 1612.04 C 637.97 1658.93 625.57 1705.38 603.81 1746.94 C 569.05 1813.84 509.88 1867.66 439.91 1895.76 C 402.19 1911.08 361.50 1918.90 320.80 1919.00 L 319.24 1919.00 C 266.06 1918.91 212.95 1905.35 166.37 1879.67 C 100.57 1843.75 48.17 1783.99 21.39 1713.95 C 4.09 1669.27 -2.69 1620.64 1.20 1572.90 C 4.44 1532.55 15.52 1492.85 33.62 1456.64 C 65.94 1391.57 121.12 1338.21 187.27 1308.16 Z" />
</g>
</svg>
