<?xml version="1.0" encoding="UTF-8" ?>
<!DOCTYPE svg PUBLIC "-//W3C//DTD SVG 1.1//EN" "http://www.w3.org/Graphics/SVG/1.1/DTD/svg11.dtd">
<svg width="1280pt" height="1248pt" viewBox="0 0 1280 1248" version="1.1" xmlns="http://www.w3.org/2000/svg">
<g id="#3df0f0ff">
<path fill="#3df0f0" opacity="1.00" d=" M 200.61 1.88 C 209.05 0.98 217.54 0.34 226.05 0.41 C 502.05 0.41 778.05 0.41 1054.05 0.41 C 1101.71 0.38 1149.19 16.02 1187.51 44.36 C 1234.68 78.82 1267.56 132.20 1276.75 189.93 C 1280.67 211.75 1279.56 233.97 1279.71 256.01 C 1279.71 511.01 1279.72 766.01 1279.70 1021.01 C 1279.94 1065.22 1266.67 1109.38 1242.19 1146.18 C 1213.44 1189.81 1169.12 1222.91 1119.06 1237.91 C 1096.10 1244.89 1072.03 1248.03 1048.05 1247.59 C 779.38 1247.59 510.70 1247.59 242.03 1247.59 C 230.66 1247.51 219.27 1247.91 207.94 1246.81 C 169.07 1243.70 131.10 1230.24 98.95 1208.19 C 65.53 1185.42 38.39 1153.52 21.37 1116.83 C 8.65 1089.67 1.54 1059.93 0.41 1029.97 C 0.16 1015.97 0.33 1001.97 0.28 987.97 C 0.31 733.31 0.24 478.65 0.32 223.99 C 0.61 180.81 13.87 137.84 37.76 101.88 C 62.96 63.67 100.05 33.44 142.59 16.52 C 161.16 9.08 180.74 4.19 200.61 1.88 M 144.29 83.28 C 107.39 106.43 78.65 142.33 64.35 183.50 C 58.49 200.52 54.59 218.40 53.98 236.40 C 53.49 240.59 53.58 244.81 53.55 249.02 C 53.54 496.00 53.55 742.99 53.55 989.97 C 53.65 997.18 53.26 1004.41 53.99 1011.60 C 54.31 1024.52 56.69 1037.39 59.88 1049.92 C 71.02 1092.63 97.40 1131.08 133.05 1157.07 C 163.77 1179.56 201.34 1193.06 239.45 1194.04 C 259.28 1194.71 279.14 1194.15 298.98 1194.34 C 522.01 1194.34 745.03 1194.34 968.05 1194.34 C 992.23 1194.15 1016.43 1194.71 1040.60 1194.05 C 1060.88 1193.65 1081.08 1189.31 1100.12 1182.33 C 1136.83 1168.73 1169.12 1143.61 1191.45 1111.45 C 1212.74 1081.00 1224.94 1044.24 1225.85 1007.08 C 1226.00 983.71 1225.87 960.35 1225.92 936.98 C 1225.92 711.99 1225.92 487.00 1225.92 262.02 C 1225.86 249.66 1226.27 237.25 1224.71 224.97 C 1219.96 182.02 1200.07 141.00 1169.49 110.50 C 1135.65 76.38 1088.61 55.31 1040.51 53.96 C 1026.35 53.31 1012.15 53.83 997.98 53.66 C 747.63 53.66 497.28 53.66 246.93 53.66 C 244.42 53.66 241.92 53.71 239.43 53.96 C 205.87 54.80 172.69 65.45 144.29 83.28 Z" />
</g>
<g id="#022326ff">
<path fill="#022326" opacity="1.00" d=" M 144.29 83.28 C 172.69 65.45 205.87 54.80 239.43 53.96 C 241.26 54.37 243.08 54.87 244.97 55.00 C 508.00 55.01 771.05 54.97 1034.08 55.03 C 1036.25 54.95 1038.38 54.42 1040.51 53.96 C 1088.61 55.31 1135.65 76.38 1169.49 110.50 C 1200.07 141.00 1219.96 182.02 1224.71 224.97 C 1226.27 237.25 1225.86 249.66 1225.92 262.02 C 1225.92 487.00 1225.92 711.99 1225.92 936.98 C 1225.87 960.35 1226.00 983.71 1225.85 1007.08 C 1224.94 1044.24 1212.74 1081.00 1191.45 1111.45 C 1169.12 1143.61 1136.83 1168.73 1100.12 1182.33 C 1081.08 1189.31 1060.88 1193.65 1040.60 1194.05 C 1034.87 1192.36 1028.89 1193.08 1023.02 1193.00 C 767.67 1192.99 512.32 1193.02 256.97 1192.99 C 251.12 1193.11 245.14 1192.32 239.45 1194.04 C 201.34 1193.06 163.77 1179.56 133.05 1157.07 C 97.40 1131.08 71.02 1092.63 59.88 1049.92 C 56.69 1037.39 54.31 1024.52 53.99 1011.60 C 55.23 1007.50 55.13 1003.21 55.00 998.99 C 55.00 751.98 54.99 504.98 55.00 257.97 C 54.67 250.79 55.96 243.43 53.98 236.40 C 54.59 218.40 58.49 200.52 64.35 183.50 C 78.65 142.33 107.39 106.43 144.29 83.28 M 346.71 289.98 C 346.71 480.98 346.71 671.97 346.72 862.96 C 346.66 865.65 347.36 868.99 350.19 870.07 C 352.73 870.84 355.37 871.35 358.04 871.37 C 454.01 871.33 549.98 871.39 645.95 871.34 C 650.19 871.68 653.64 868.05 654.02 864.01 C 658.48 838.64 662.99 813.27 667.40 787.90 C 668.34 785.09 665.80 782.50 663.01 782.85 C 589.56 782.78 516.11 782.83 442.66 782.83 C 442.74 618.22 442.68 453.60 442.69 288.99 C 443.09 286.03 441.46 282.43 437.98 282.84 C 409.66 282.76 381.33 282.82 353.00 282.82 C 348.99 282.35 346.21 286.25 346.71 289.98 M 345.00 297.01 C 344.98 485.01 345.04 673.02 344.98 861.02 C 345.03 862.75 345.29 864.48 345.59 866.21 C 345.82 864.45 346.02 862.70 346.08 860.96 C 346.04 674.32 346.07 487.68 346.08 301.04 C 346.04 296.28 346.35 291.50 345.63 286.79 C 344.76 290.13 344.95 293.59 345.00 297.01 M 799.20 452.21 C 784.58 456.45 770.03 461.08 755.96 466.93 C 753.44 467.83 751.75 470.27 752.00 472.97 C 752.75 484.19 753.83 495.39 754.21 506.64 C 753.97 507.00 753.48 507.72 753.24 508.09 C 752.60 513.84 753.02 519.68 753.19 525.46 L 754.40 524.62 C 753.81 545.39 754.31 566.19 754.15 586.98 C 754.17 679.67 754.10 772.36 754.18 865.05 C 753.80 868.36 756.70 871.14 759.99 870.76 C 788.01 870.81 816.03 870.77 844.05 870.78 C 846.21 870.98 848.22 870.18 849.77 868.70 C 850.26 867.14 850.53 865.56 850.58 863.95 C 850.56 752.00 850.59 640.06 850.57 528.12 L 851.09 527.89 C 851.41 641.38 851.03 754.90 851.26 868.40 C 851.73 867.31 851.99 866.18 852.02 865.01 C 852.05 759.01 852.02 653.02 852.05 547.03 C 852.17 540.43 851.59 533.79 852.61 527.24 C 867.76 522.11 883.80 520.34 899.65 518.81 C 902.44 521.41 906.65 519.71 910.04 519.67 C 909.65 519.30 908.85 518.56 908.46 518.19 C 923.59 516.83 938.82 517.07 954.00 517.35 C 956.54 517.56 959.01 515.67 958.77 512.99 C 958.89 487.34 958.78 461.69 958.83 436.05 C 958.87 434.08 958.66 431.63 956.65 430.68 C 953.60 429.46 950.23 430.01 947.05 430.02 C 897.06 430.64 847.26 438.56 799.20 452.21 Z" />
</g>
<g id="#00070aff">
<path fill="#00070a" opacity="1.00" d=" M 239.43 53.96 C 241.92 53.71 244.42 53.66 246.93 53.66 C 497.28 53.66 747.63 53.66 997.98 53.66 C 1012.15 53.83 1026.35 53.31 1040.51 53.96 C 1038.38 54.42 1036.25 54.95 1034.08 55.03 C 771.05 54.97 508.00 55.01 244.97 55.00 C 243.08 54.87 241.26 54.37 239.43 53.96 Z" />
<path fill="#00070a" opacity="1.00" d=" M 239.45 1194.04 C 245.14 1192.32 251.12 1193.11 256.97 1192.99 C 512.32 1193.02 767.67 1192.99 1023.02 1193.00 C 1028.89 1193.08 1034.87 1192.36 1040.60 1194.05 C 1016.43 1194.71 992.23 1194.15 968.05 1194.34 C 745.03 1194.34 522.01 1194.34 298.98 1194.34 C 279.14 1194.15 259.28 1194.71 239.45 1194.04 Z" />
</g>
<g id="#00080bff">
<path fill="#00080b" opacity="1.00" d=" M 53.98 236.40 C 55.96 243.43 54.67 250.79 55.00 257.97 C 54.99 504.98 55.00 751.98 55.00 998.99 C 55.13 1003.21 55.23 1007.50 53.99 1011.60 C 53.26 1004.41 53.65 997.18 53.55 989.97 C 53.55 742.99 53.54 496.00 53.55 249.02 C 53.58 244.81 53.49 240.59 53.98 236.40 Z" />
<path fill="#00080b" opacity="1.00" d=" M 851.09 527.89 C 851.47 527.73 852.23 527.40 852.61 527.24 C 851.59 533.79 852.17 540.43 852.05 547.03 C 852.02 653.02 852.05 759.01 852.02 865.01 C 851.99 866.18 851.73 867.31 851.26 868.40 C 851.03 754.90 851.41 641.38 851.09 527.89 Z" />
</g>
<g id="#ccfbffff">
<path fill="#ccfbff" opacity="1.00" d=" M 346.71 289.98 C 346.21 286.25 348.99 282.35 353.00 282.82 C 381.33 282.82 409.66 282.76 437.98 282.84 C 441.46 282.43 443.09 286.03 442.69 288.99 C 442.68 453.60 442.74 618.22 442.66 782.83 C 516.11 782.83 589.56 782.78 663.01 782.85 C 665.80 782.50 668.34 785.09 667.40 787.90 C 662.99 813.27 658.48 838.64 654.02 864.01 C 653.64 868.05 650.19 871.68 645.95 871.34 C 549.98 871.39 454.01 871.33 358.04 871.37 C 355.37 871.35 352.73 870.84 350.19 870.07 C 347.36 868.99 346.66 865.65 346.72 862.96 C 346.71 671.97 346.71 480.98 346.71 289.98 Z" />
<path fill="#ccfbff" opacity="1.00" d=" M 799.20 452.21 C 847.26 438.56 897.06 430.64 947.05 430.02 C 950.23 430.01 953.60 429.46 956.65 430.68 C 958.66 431.63 958.87 434.08 958.83 436.05 C 958.78 461.69 958.89 487.34 958.77 512.99 C 959.01 515.67 956.54 517.56 954.00 517.35 C 938.82 517.07 923.59 516.83 908.46 518.19 C 905.51 518.36 902.57 518.56 899.65 518.81 C 883.80 520.34 867.76 522.11 852.61 527.24 C 852.23 527.40 851.47 527.73 851.09 527.89 L 850.57 528.12 L 849.35 528.70 C 848.73 533.09 848.96 537.53 848.99 541.96 C 849.03 642.64 848.98 743.32 849.00 844.01 C 849.29 852.23 848.18 860.57 849.77 868.70 C 848.22 870.18 846.21 870.98 844.05 870.78 C 816.03 870.77 788.01 870.81 759.99 870.76 C 756.70 871.14 753.80 868.36 754.18 865.05 C 754.10 772.36 754.17 679.67 754.15 586.98 C 754.31 566.19 753.81 545.39 754.40 524.62 C 754.78 518.63 754.34 512.62 754.21 506.64 C 753.83 495.39 752.75 484.19 752.00 472.97 C 751.75 470.27 753.44 467.83 755.96 466.93 C 770.03 461.08 784.58 456.45 799.20 452.21 Z" />
</g>
<g id="#000609ff">
<path fill="#000609" opacity="1.00" d=" M 345.00 297.01 C 344.95 293.59 344.76 290.13 345.63 286.79 C 346.35 291.50 346.04 296.28 346.08 301.04 C 346.07 487.68 346.04 674.32 346.08 860.96 C 346.02 862.70 345.82 864.45 345.59 866.21 C 345.29 864.48 345.03 862.75 344.98 861.02 C 345.04 673.02 344.98 485.01 345.00 297.01 Z" />
</g>
<g id="#000709ff">
<path fill="#000709" opacity="1.00" d=" M 753.24 508.09 C 753.48 507.72 753.97 507.00 754.21 506.64 C 754.34 512.62 754.78 518.63 754.40 524.62 L 753.19 525.46 C 753.02 519.68 752.60 513.84 753.24 508.09 Z" />
</g>
<g id="#00090cff">
<path fill="#00090c" opacity="1.00" d=" M 899.65 518.81 C 902.57 518.56 905.51 518.36 908.46 518.19 C 908.85 518.56 909.65 519.30 910.04 519.67 C 906.65 519.71 902.44 521.41 899.65 518.81 Z" />
</g>
<g id="#e8ffffff">
<path fill="#e8ffff" opacity="1.00" d=" M 849.35 528.70 L 850.57 528.12 C 850.59 640.06 850.56 752.00 850.58 863.95 C 850.53 865.56 850.26 867.14 849.77 868.70 C 848.18 860.57 849.29 852.23 849.00 844.01 C 848.98 743.32 849.03 642.64 848.99 541.96 C 848.96 537.53 848.73 533.09 849.35 528.70 Z" />
</g>
</svg>
