<?xml version="1.0" encoding="UTF-8" ?>
<!DOCTYPE svg PUBLIC "-//W3C//DTD SVG 1.1//EN" "http://www.w3.org/Graphics/SVG/1.1/DTD/svg11.dtd">
<svg width="1280pt" height="1248pt" viewBox="0 0 1280 1248" version="1.1" xmlns="http://www.w3.org/2000/svg">
<g id="#a1d1dbee">
<path fill="#a1d1db" opacity="0.93" d=" M 207.38 0.00 L 220.08 0.00 L 221.44 1.14 C 216.30 1.23 211.15 1.53 206.02 1.08 L 207.38 0.00 Z" />
</g>
<g id="#7eb8d0ee">
<path fill="#7eb8d0" opacity="0.93" d=" M 220.08 0.00 L 1062.41 0.00 C 1061.21 0.41 1060.01 0.82 1058.84 1.24 C 829.20 1.31 599.57 1.24 369.94 1.27 C 320.44 1.18 270.93 1.43 221.44 1.14 L 220.08 0.00 Z" />
</g>
<g id="#99d1daee">
<path fill="#99d1da" opacity="0.93" d=" M 1062.41 0.00 L 1072.89 0.00 L 1073.73 1.25 C 1068.76 1.52 1063.79 1.32 1058.84 1.24 C 1060.01 0.82 1061.21 0.41 1062.41 0.00 Z" />
<path fill="#99d1da" opacity="0.93" d=" M 178.45 4.80 C 181.24 4.76 184.05 4.70 186.83 4.33 C 181.44 6.39 175.43 5.75 170.11 8.06 C 166.50 9.62 162.70 10.58 158.81 11.12 C 159.12 10.79 159.74 10.13 160.05 9.80 C 161.69 9.63 163.34 9.56 164.99 9.45 C 165.21 5.75 169.46 7.76 171.82 7.18 C 173.45 6.56 175.17 6.23 176.89 5.92 C 177.28 5.64 178.06 5.08 178.45 4.80 Z" />
<path fill="#99d1da" opacity="0.93" d=" M 1094.66 4.57 C 1096.81 4.71 1098.98 4.78 1101.15 4.89 C 1103.42 5.82 1105.81 6.41 1108.14 7.21 C 1109.65 7.26 1111.18 7.30 1112.73 7.35 C 1114.46 9.60 1117.22 9.74 1119.85 9.84 C 1122.39 11.71 1125.53 12.30 1128.62 12.36 C 1129.48 12.88 1130.34 13.40 1131.23 13.92 C 1132.28 14.24 1133.35 14.53 1134.44 14.80 C 1136.11 16.39 1138.28 16.94 1140.55 17.03 C 1141.58 17.84 1142.59 18.66 1143.63 19.48 C 1144.44 19.45 1146.06 19.38 1146.87 19.34 C 1147.52 20.11 1148.19 20.88 1148.88 21.65 C 1149.76 21.74 1150.67 21.83 1151.59 21.93 C 1152.94 23.99 1155.45 24.25 1157.37 25.52 C 1155.45 25.33 1153.57 25.13 1151.69 24.88 C 1151.43 24.50 1150.92 23.74 1150.66 23.36 C 1144.74 19.24 1137.57 17.74 1131.05 14.89 C 1124.31 11.80 1116.89 10.74 1109.99 8.10 C 1105.08 6.04 1099.63 6.36 1094.66 4.57 Z" />
<path fill="#99d1da" opacity="0.93" d=" M 151.20 12.31 C 153.57 12.22 155.93 11.92 158.24 11.36 C 149.12 15.03 139.58 17.80 130.83 22.36 C 127.17 25.03 122.75 26.16 118.62 27.89 C 118.95 27.65 119.62 27.16 119.95 26.92 C 120.50 26.73 121.60 26.34 122.15 26.15 C 122.42 25.70 122.96 24.81 123.22 24.37 C 124.48 24.47 125.70 24.32 126.89 23.91 C 127.18 23.45 127.75 22.52 128.03 22.06 C 130.07 21.87 131.86 21.04 133.23 19.50 C 134.42 19.44 135.61 19.38 136.81 19.32 C 137.67 18.54 138.54 17.76 139.42 17.00 C 141.76 16.96 144.03 16.41 145.62 14.58 C 146.81 14.56 148.00 14.54 149.19 14.53 C 149.86 13.79 150.53 13.05 151.20 12.31 Z" />
<path fill="#99d1da" opacity="0.93" d=" M 52.58 80.59 C 53.46 80.17 54.34 79.72 55.21 79.26 C 54.03 81.07 52.58 82.67 50.93 84.06 C 51.48 82.90 52.03 81.75 52.58 80.59 Z" />
<path fill="#99d1da" opacity="0.93" d=" M 4.16 182.86 C 5.15 184.78 5.44 187.27 3.70 188.87 C 3.50 187.07 3.26 185.22 3.82 183.46 L 4.16 182.86 Z" />
<path fill="#99d1da" opacity="0.93" d=" M 0.55 1026.61 C 2.05 1033.53 0.91 1040.72 2.38 1047.67 C 2.98 1054.95 4.41 1062.14 6.04 1069.27 C 8.44 1082.56 13.25 1095.25 17.82 1107.92 C 14.71 1105.93 14.71 1101.97 13.58 1098.85 C 13.50 1098.13 13.34 1096.71 13.26 1095.99 C 12.48 1094.41 11.74 1092.82 11.02 1091.23 C 10.88 1088.65 9.72 1086.36 8.81 1084.01 C 7.63 1078.96 5.95 1074.03 5.51 1068.84 C 3.03 1062.90 2.66 1056.38 2.14 1050.04 C 1.95 1049.47 1.58 1048.32 1.40 1047.75 C 1.47 1040.68 0.35 1033.67 0.55 1026.61 Z" />
<path fill="#99d1da" opacity="0.93" d=" M 1274.05 1068.99 L 1274.43 1068.16 C 1274.04 1071.04 1274.22 1074.08 1272.88 1076.77 C 1272.37 1081.85 1269.81 1086.36 1268.92 1091.33 C 1266.44 1096.14 1265.83 1101.58 1264.13 1106.67 C 1263.68 1106.90 1262.77 1107.35 1262.32 1107.58 C 1266.87 1094.93 1271.60 1082.26 1274.05 1068.99 Z" />
<path fill="#99d1da" opacity="0.93" d=" M 17.97 1108.18 C 21.12 1112.64 22.30 1118.08 24.92 1122.82 C 30.71 1134.10 37.20 1145.07 44.95 1155.11 C 47.58 1158.49 49.55 1162.73 53.62 1164.63 C 54.09 1165.98 54.51 1167.36 55.00 1168.72 C 53.47 1166.97 51.88 1165.28 50.45 1163.46 C 50.09 1163.22 49.36 1162.75 49.00 1162.51 C 48.25 1160.60 47.09 1158.90 45.60 1157.52 C 44.05 1155.51 42.38 1153.60 40.84 1151.59 C 40.63 1150.83 40.20 1149.30 39.99 1148.54 C 39.42 1148.46 38.28 1148.30 37.71 1148.21 C 37.64 1147.18 37.57 1146.17 37.50 1145.17 C 36.57 1144.03 35.72 1142.86 34.82 1141.72 C 31.56 1140.17 32.22 1135.82 29.76 1133.53 C 28.00 1130.24 26.46 1126.84 24.68 1123.57 C 22.23 1118.52 19.33 1113.67 17.97 1108.18 Z" />
<path fill="#99d1da" opacity="0.93" d=" M 1243.20 1144.51 C 1244.31 1140.99 1246.49 1138.01 1248.86 1135.24 C 1247.98 1137.60 1247.75 1140.72 1244.97 1141.69 C 1244.12 1143.77 1243.26 1145.87 1242.02 1147.77 C 1238.41 1151.03 1236.76 1155.97 1232.80 1158.97 C 1232.20 1160.13 1231.62 1161.30 1231.09 1162.51 C 1230.70 1162.75 1229.93 1163.23 1229.55 1163.46 C 1228.11 1165.32 1226.53 1167.06 1224.88 1168.74 C 1225.62 1167.24 1226.09 1165.52 1227.46 1164.45 C 1231.17 1161.04 1233.97 1156.80 1236.69 1152.60 C 1238.34 1150.22 1239.94 1147.81 1241.71 1145.52 C 1242.08 1145.27 1242.82 1144.76 1243.20 1144.51 Z" />
</g>
<g id="#25c8ffff">
<path fill="#25c8ff" opacity="1.00" d=" M 201.82 2.19 C 203.18 1.68 204.59 1.35 206.02 1.08 C 211.15 1.53 216.30 1.23 221.44 1.14 C 270.93 1.43 320.44 1.18 369.94 1.27 C 599.57 1.24 829.20 1.31 1058.84 1.24 C 1063.79 1.32 1068.76 1.52 1073.73 1.25 C 1075.27 1.21 1076.79 1.56 1078.21 2.20 C 1081.63 2.70 1085.38 1.69 1088.57 3.35 C 1090.61 3.64 1092.66 3.99 1094.66 4.57 C 1099.63 6.36 1105.08 6.04 1109.99 8.10 C 1116.89 10.74 1124.31 11.80 1131.05 14.89 C 1137.57 17.74 1144.74 19.24 1150.66 23.36 C 1150.92 23.74 1151.43 24.50 1151.69 24.88 C 1153.57 25.13 1155.45 25.33 1157.37 25.52 C 1157.58 25.65 1158.00 25.91 1158.21 26.04 C 1158.68 26.25 1159.62 26.67 1160.10 26.88 C 1161.03 27.67 1161.97 28.46 1162.93 29.26 C 1163.48 29.25 1164.59 29.23 1165.15 29.22 C 1165.52 31.98 1168.36 31.43 1170.42 31.73 C 1170.47 32.22 1170.56 33.19 1170.60 33.67 C 1171.41 33.84 1173.03 34.16 1173.84 34.33 C 1174.22 34.81 1174.96 35.78 1175.33 36.26 C 1178.80 40.53 1184.30 42.16 1188.12 45.99 C 1190.31 48.03 1192.79 49.71 1195.25 51.42 C 1200.52 55.10 1204.88 59.87 1209.69 64.10 C 1214.77 68.55 1218.58 74.29 1224.02 78.36 C 1225.04 79.24 1226.16 79.98 1227.31 80.72 C 1227.99 81.93 1228.69 83.13 1229.43 84.31 C 1231.41 86.15 1232.43 88.80 1234.60 90.48 C 1235.28 91.83 1235.97 93.18 1236.64 94.56 C 1237.05 94.66 1237.86 94.87 1238.27 94.97 C 1239.19 96.98 1239.69 99.66 1242.25 100.21 C 1242.30 100.83 1242.40 102.07 1242.45 102.69 C 1244.86 105.39 1246.28 108.75 1247.94 111.93 C 1257.04 128.11 1265.08 145.06 1269.91 163.05 C 1271.50 167.99 1272.25 173.16 1273.99 178.05 L 1274.64 179.28 C 1277.13 183.57 1275.77 188.66 1277.29 193.22 C 1277.57 196.82 1277.79 200.42 1278.64 203.96 C 1278.61 209.61 1279.21 215.22 1279.44 220.86 C 1278.39 229.86 1279.14 238.96 1278.86 248.00 C 1278.84 500.68 1278.87 753.35 1278.85 1006.03 C 1278.72 1010.15 1278.85 1014.29 1279.41 1018.40 C 1280.19 1028.28 1278.42 1038.13 1278.72 1048.01 C 1278.42 1048.41 1277.82 1049.20 1277.52 1049.59 C 1277.50 1052.29 1278.02 1055.23 1276.54 1057.68 C 1276.54 1061.31 1276.57 1065.03 1274.43 1068.16 L 1274.05 1068.99 C 1271.60 1082.26 1266.87 1094.93 1262.32 1107.58 C 1261.59 1109.69 1260.62 1111.71 1259.57 1113.69 C 1259.48 1114.23 1259.30 1115.31 1259.21 1115.85 C 1255.60 1122.22 1253.09 1129.24 1248.86 1135.24 C 1246.49 1138.01 1244.31 1140.99 1243.20 1144.51 C 1242.82 1144.76 1242.08 1145.27 1241.71 1145.52 C 1239.94 1147.81 1238.34 1150.22 1236.69 1152.60 C 1233.97 1156.80 1231.17 1161.04 1227.46 1164.45 C 1226.09 1165.52 1225.62 1167.24 1224.88 1168.74 C 1224.65 1168.99 1224.19 1169.49 1223.96 1169.74 C 1221.00 1172.19 1218.30 1174.94 1215.46 1177.53 C 1213.18 1179.69 1211.86 1183.65 1208.18 1183.61 C 1208.10 1184.14 1207.94 1185.19 1207.86 1185.71 C 1200.96 1192.73 1192.89 1198.36 1185.29 1204.55 C 1184.95 1204.82 1184.29 1205.34 1183.95 1205.60 C 1179.47 1207.77 1175.57 1210.88 1171.36 1213.50 C 1161.73 1218.56 1152.22 1223.87 1142.48 1228.71 C 1136.20 1231.90 1129.04 1232.99 1122.94 1236.53 L 1122.71 1236.73 C 1117.48 1237.27 1112.50 1239.02 1107.53 1240.64 C 1103.78 1241.90 1099.76 1241.71 1095.96 1242.70 C 1090.13 1244.33 1084.03 1244.44 1078.12 1245.63 C 1071.56 1246.98 1064.84 1246.32 1058.20 1246.74 C 786.14 1246.68 514.08 1246.78 242.02 1246.69 C 230.00 1246.66 217.95 1246.86 205.94 1246.25 C 198.64 1244.81 191.10 1244.76 183.92 1242.74 C 180.99 1242.00 177.96 1241.93 175.01 1241.34 C 159.12 1236.60 142.82 1232.30 128.41 1223.85 C 125.19 1222.38 121.83 1221.29 118.58 1219.91 C 117.34 1219.36 116.06 1218.91 114.80 1218.45 C 114.32 1216.07 111.81 1216.57 110.00 1216.26 C 108.71 1213.22 105.27 1212.38 102.50 1211.25 C 102.33 1210.80 101.97 1209.90 101.79 1209.44 C 101.13 1209.34 99.80 1209.14 99.14 1209.03 C 97.50 1206.42 94.90 1204.60 91.89 1203.92 C 90.10 1201.86 87.98 1200.08 85.46 1199.00 C 85.35 1198.69 85.14 1198.06 85.04 1197.74 C 81.82 1195.47 78.76 1192.98 75.94 1190.25 C 70.94 1185.54 65.93 1180.85 61.36 1175.73 C 60.54 1174.90 59.72 1174.08 58.90 1173.28 C 57.50 1171.84 56.24 1170.28 55.00 1168.72 C 54.51 1167.36 54.09 1165.98 53.62 1164.63 C 49.55 1162.73 47.58 1158.49 44.95 1155.11 C 37.20 1145.07 30.71 1134.10 24.92 1122.82 C 22.30 1118.08 21.12 1112.64 17.97 1108.18 L 17.82 1107.92 C 13.25 1095.25 8.44 1082.56 6.04 1069.27 C 4.41 1062.14 2.98 1054.95 2.38 1047.67 C 0.91 1040.72 2.05 1033.53 0.55 1026.61 C 0.39 1023.55 0.29 1020.50 0.00 1017.47 L 0.00 221.23 C 1.40 214.89 1.19 208.37 1.34 201.92 C 2.24 197.59 2.60 193.17 3.70 188.87 C 5.44 187.27 5.15 184.78 4.16 182.86 C 6.06 178.11 6.13 172.87 8.22 168.17 C 8.69 164.30 10.46 160.75 11.17 156.93 C 11.97 153.75 12.59 150.47 14.31 147.62 C 16.21 144.05 17.75 140.27 18.60 136.31 C 19.25 135.76 19.89 135.22 20.54 134.68 C 20.59 134.05 20.70 132.79 20.76 132.16 C 23.95 126.46 26.31 120.29 30.00 114.86 C 32.92 111.06 34.36 106.34 37.53 102.73 C 37.59 102.10 37.70 100.84 37.76 100.22 C 40.31 99.62 40.83 96.97 41.75 94.94 C 42.15 94.84 42.95 94.66 43.35 94.56 C 44.02 93.19 44.70 91.84 45.41 90.49 C 46.46 89.51 47.41 88.43 48.29 87.30 C 48.82 85.96 49.85 84.97 50.93 84.06 C 52.58 82.67 54.03 81.07 55.21 79.26 C 56.31 77.65 57.41 76.02 58.91 74.74 C 59.73 73.91 60.55 73.07 61.37 72.24 C 62.18 71.42 63.01 70.61 63.84 69.81 C 64.60 68.94 65.36 68.08 66.17 67.26 C 66.39 67.04 66.85 66.60 67.08 66.38 C 72.47 63.12 76.32 58.03 81.28 54.22 C 86.38 50.11 91.11 45.36 97.07 42.48 C 100.04 41.02 102.25 38.47 104.63 36.25 C 105.03 35.76 105.82 34.78 106.22 34.29 C 107.01 34.13 108.58 33.82 109.37 33.66 C 109.42 33.18 109.53 32.23 109.58 31.75 C 111.63 31.47 114.23 31.79 114.95 29.27 C 115.42 29.26 116.37 29.24 116.84 29.24 C 117.28 28.90 118.17 28.23 118.62 27.89 C 122.75 26.16 127.17 25.03 130.83 22.36 C 139.58 17.80 149.12 15.03 158.24 11.36 L 158.81 11.12 C 162.70 10.58 166.50 9.62 170.11 8.06 C 175.43 5.75 181.44 6.39 186.83 4.33 C 191.55 2.06 196.74 2.45 201.82 2.19 M 211.15 54.88 C 212.58 56.66 215.09 55.95 217.03 55.84 C 208.80 56.85 200.86 59.34 192.71 60.74 C 192.63 60.91 192.47 61.24 192.39 61.40 C 186.60 62.94 180.98 65.00 175.39 67.09 C 172.85 66.66 170.07 66.50 167.77 67.86 C 159.15 73.44 148.91 76.32 140.89 82.87 C 134.30 86.79 128.70 92.10 122.33 96.35 C 119.69 97.95 118.02 100.59 115.86 102.71 C 106.53 109.66 99.70 119.25 91.98 127.82 C 89.14 132.19 85.40 136.05 83.11 140.73 C 83.58 140.84 84.52 141.06 84.99 141.17 C 66.64 168.68 56.18 201.11 53.61 234.00 C 53.19 252.32 53.48 270.66 53.39 288.99 C 53.41 527.01 53.36 765.02 53.42 1003.04 C 53.43 1035.62 62.53 1068.07 78.55 1096.40 C 77.14 1100.65 81.07 1103.74 82.98 1107.05 C 89.71 1118.91 99.71 1128.34 108.08 1138.98 C 111.07 1142.70 115.65 1144.65 118.69 1148.31 C 120.92 1151.13 124.25 1152.67 126.98 1154.93 C 133.80 1160.59 141.21 1165.51 148.71 1170.23 C 157.46 1174.10 165.43 1179.66 174.64 1182.49 C 180.09 1184.29 185.35 1186.69 190.93 1188.06 C 192.74 1188.66 194.61 1188.22 196.42 1187.87 C 203.23 1189.64 210.13 1191.13 217.12 1192.01 C 215.49 1192.11 213.84 1192.14 212.25 1192.55 C 218.45 1192.44 224.60 1193.13 230.77 1193.72 C 230.96 1194.18 231.34 1195.10 231.53 1195.56 C 260.65 1196.67 289.82 1195.86 318.96 1196.11 C 538.98 1196.13 759.01 1196.11 979.03 1196.12 C 1002.27 1195.95 1025.53 1196.56 1048.75 1195.53 C 1048.77 1195.27 1048.80 1194.73 1048.82 1194.46 C 1045.50 1194.39 1042.18 1194.60 1038.87 1194.46 C 1053.66 1193.72 1068.42 1191.87 1082.76 1188.07 C 1090.74 1189.36 1097.94 1184.74 1105.29 1182.43 C 1114.13 1180.03 1121.59 1174.50 1129.87 1170.78 C 1141.01 1164.28 1151.52 1156.68 1161.25 1148.20 C 1163.41 1146.09 1165.58 1143.95 1168.13 1142.28 C 1171.56 1140.04 1173.31 1136.14 1176.21 1133.34 C 1182.01 1128.34 1185.92 1121.65 1190.70 1115.74 C 1199.88 1106.04 1204.05 1093.02 1210.59 1081.65 C 1212.51 1076.02 1216.10 1070.92 1216.73 1064.91 C 1214.67 1067.65 1213.93 1071.10 1212.09 1073.99 C 1218.15 1057.89 1223.25 1041.22 1224.70 1024.01 C 1226.15 1015.08 1226.45 1006.03 1226.29 997.00 C 1226.30 745.32 1226.30 493.63 1226.29 241.95 C 1225.59 228.50 1223.85 215.12 1221.04 201.95 C 1222.77 196.84 1219.80 191.91 1218.65 187.03 C 1218.41 185.36 1216.83 184.61 1215.57 183.84 C 1208.42 163.16 1197.78 143.72 1184.17 126.58 C 1184.56 123.42 1182.13 121.05 1180.27 118.84 C 1176.50 114.92 1172.59 111.14 1168.89 107.16 C 1167.02 105.31 1165.39 102.78 1162.49 102.66 L 1163.15 104.00 C 1162.09 103.05 1161.03 102.16 1159.96 101.28 C 1160.94 101.69 1161.98 101.96 1163.08 102.08 C 1162.21 100.90 1161.26 99.78 1160.13 98.86 C 1152.70 92.90 1145.56 86.45 1137.14 81.88 C 1132.26 78.13 1126.45 75.98 1121.33 72.61 C 1116.17 70.50 1111.60 67.02 1106.00 66.14 C 1089.56 58.80 1071.80 54.88 1054.02 52.47 C 1039.67 51.95 1025.31 51.85 1010.95 51.91 C 767.30 51.89 523.65 51.92 280.00 51.89 C 263.31 51.85 246.62 51.94 229.93 52.26 C 223.57 52.17 217.42 54.04 211.15 54.88 Z" />
</g>
<g id="#95cde0ee">
<path fill="#95cde0" opacity="0.93" d=" M 101.21 36.46 C 102.35 36.39 103.49 36.33 104.63 36.25 C 102.25 38.47 100.04 41.02 97.07 42.48 C 91.11 45.36 86.38 50.11 81.28 54.22 C 76.32 58.03 72.47 63.12 67.08 66.38 C 68.77 64.83 70.23 63.01 71.00 60.82 C 71.73 60.76 73.17 60.64 73.89 60.59 C 74.05 60.09 74.35 59.11 74.51 58.62 C 76.34 57.17 78.11 55.64 79.66 53.88 C 81.89 52.51 84.12 51.04 85.82 49.00 C 89.25 46.76 92.75 44.52 95.46 41.39 C 96.07 41.35 97.29 41.26 97.89 41.22 C 98.43 39.91 99.30 38.88 100.65 38.36 C 100.79 37.88 101.07 36.93 101.21 36.46 Z" />
<path fill="#95cde0" opacity="0.93" d=" M 118.58 1219.91 C 121.83 1221.29 125.19 1222.38 128.41 1223.85 C 142.82 1232.30 159.12 1236.60 175.01 1241.34 C 177.96 1241.93 180.99 1242.00 183.92 1242.74 C 191.10 1244.76 198.64 1244.81 205.94 1246.25 C 217.95 1246.86 230.00 1246.66 242.02 1246.69 C 514.08 1246.78 786.14 1246.68 1058.20 1246.74 L 1059.55 1248.00 L 208.98 1248.00 C 204.55 1246.05 199.71 1245.60 194.94 1245.39 C 189.60 1244.17 184.17 1243.24 178.69 1243.08 C 176.46 1242.15 174.12 1241.58 171.85 1240.79 C 169.47 1240.23 165.16 1242.24 164.96 1238.50 C 162.83 1238.40 160.71 1238.36 158.59 1238.35 C 158.30 1237.90 157.72 1237.00 157.44 1236.55 C 153.55 1236.49 150.47 1233.96 146.80 1233.11 C 143.69 1231.31 139.64 1231.66 137.12 1228.84 C 135.25 1228.44 133.34 1228.61 131.45 1228.59 C 131.42 1228.00 131.35 1226.81 131.31 1226.22 C 130.58 1226.23 129.12 1226.26 128.38 1226.27 C 127.58 1225.39 126.78 1224.52 125.99 1223.67 C 125.38 1223.67 124.17 1223.66 123.56 1223.65 C 122.37 1222.65 121.15 1221.69 119.89 1220.80 C 119.56 1220.58 118.91 1220.13 118.58 1219.91 Z" />
</g>
<g id="#95cce0ee">
<path fill="#95cce0" opacity="0.93" d=" M 1175.33 36.26 C 1176.47 36.33 1177.62 36.39 1178.78 36.45 C 1178.93 36.92 1179.22 37.85 1179.37 38.32 C 1180.62 38.93 1181.53 39.94 1182.16 41.20 C 1182.74 41.24 1183.91 41.33 1184.50 41.38 C 1187.33 44.48 1190.75 47.00 1194.48 48.96 C 1194.65 49.34 1194.98 50.09 1195.15 50.46 C 1196.90 51.57 1198.63 52.72 1200.36 53.87 C 1202.32 56.08 1204.88 57.78 1206.31 60.44 C 1207.32 60.57 1208.35 60.71 1209.39 60.84 C 1209.44 61.34 1209.54 62.34 1209.58 62.84 C 1211.00 64.22 1212.40 65.64 1213.77 67.10 C 1214.89 68.41 1216.06 69.68 1217.31 70.89 C 1218.58 72.13 1219.86 73.41 1221.08 74.73 C 1222.38 75.65 1223.21 77.01 1224.02 78.36 C 1218.58 74.29 1214.77 68.55 1209.69 64.10 C 1204.88 59.87 1200.52 55.10 1195.25 51.42 C 1192.79 49.71 1190.31 48.03 1188.12 45.99 C 1184.30 42.16 1178.80 40.53 1175.33 36.26 Z" />
<path fill="#95cce0" opacity="0.93" d=" M 1247.94 111.93 C 1248.62 112.91 1249.33 113.89 1250.05 114.86 C 1252.15 117.86 1253.62 121.23 1255.34 124.45 C 1257.79 128.28 1258.64 132.93 1261.34 136.59 C 1262.28 140.52 1263.86 144.27 1265.84 147.80 C 1267.50 150.60 1267.97 153.85 1268.96 156.92 C 1269.07 157.65 1269.31 159.10 1269.43 159.82 C 1270.45 162.52 1271.46 165.25 1271.80 168.13 C 1272.84 171.36 1273.69 174.66 1273.99 178.05 C 1272.25 173.16 1271.50 167.99 1269.91 163.05 C 1265.08 145.06 1257.04 128.11 1247.94 111.93 Z" />
<path fill="#95cce0" opacity="0.93" d=" M 1215.46 1177.53 C 1218.30 1174.94 1221.00 1172.19 1223.96 1169.74 C 1223.06 1171.05 1222.26 1172.50 1220.79 1173.25 C 1220.14 1174.47 1219.52 1175.72 1218.96 1177.00 C 1216.48 1177.65 1214.79 1179.56 1213.94 1181.91 C 1212.90 1182.51 1211.98 1183.26 1211.31 1184.26 C 1210.00 1184.92 1208.78 1185.73 1207.72 1186.74 C 1206.84 1187.52 1205.99 1188.33 1205.15 1189.15 C 1204.22 1189.97 1203.55 1191.01 1202.94 1192.09 C 1202.43 1192.20 1201.41 1192.43 1200.90 1192.54 C 1199.30 1194.59 1197.36 1196.36 1195.10 1197.68 C 1194.95 1198.01 1194.66 1198.68 1194.51 1199.01 C 1192.53 1200.07 1190.67 1201.34 1188.81 1202.58 C 1188.76 1203.00 1188.66 1203.84 1188.62 1204.26 C 1187.49 1204.34 1186.38 1204.44 1185.29 1204.55 C 1192.89 1198.36 1200.96 1192.73 1207.86 1185.71 C 1207.94 1185.19 1208.10 1184.14 1208.18 1183.61 C 1211.86 1183.65 1213.18 1179.69 1215.46 1177.53 Z" />
<path fill="#95cce0" opacity="0.93" d=" M 1171.36 1213.50 C 1175.57 1210.88 1179.47 1207.77 1183.95 1205.60 C 1182.89 1206.63 1181.90 1207.73 1180.92 1208.85 C 1179.47 1209.29 1177.87 1209.65 1177.27 1211.23 C 1174.64 1212.51 1171.33 1213.32 1170.04 1216.25 C 1168.12 1216.18 1166.45 1216.98 1165.12 1218.30 C 1161.97 1219.57 1158.95 1221.25 1156.50 1223.63 C 1155.88 1223.65 1154.64 1223.68 1154.03 1223.70 C 1153.19 1224.54 1152.37 1225.41 1151.56 1226.29 C 1150.84 1226.27 1149.41 1226.23 1148.69 1226.21 C 1148.65 1226.81 1148.57 1227.99 1148.53 1228.59 C 1145.54 1228.26 1142.64 1228.66 1140.48 1230.90 C 1137.93 1231.22 1135.48 1231.96 1133.22 1233.15 C 1131.11 1233.52 1129.14 1234.32 1127.41 1235.58 C 1125.91 1235.90 1124.41 1236.20 1122.94 1236.53 C 1129.04 1232.99 1136.20 1231.90 1142.48 1228.71 C 1152.22 1223.87 1161.73 1218.56 1171.36 1213.50 Z" />
<path fill="#95cce0" opacity="0.93" d=" M 1107.53 1240.64 C 1112.50 1239.02 1117.48 1237.27 1122.71 1236.73 C 1122.33 1237.10 1121.55 1237.84 1121.16 1238.21 C 1118.68 1238.80 1114.56 1237.18 1114.12 1240.75 C 1112.12 1240.73 1110.13 1240.71 1108.16 1240.77 C 1105.89 1241.58 1103.55 1242.16 1101.32 1243.08 C 1096.13 1243.14 1091.03 1244.05 1086.06 1245.45 C 1081.62 1245.51 1077.20 1245.84 1072.93 1247.14 C 1072.48 1247.35 1071.59 1247.78 1071.14 1248.00 L 1059.55 1248.00 L 1058.20 1246.74 C 1064.84 1246.32 1071.56 1246.98 1078.12 1245.63 C 1084.03 1244.44 1090.13 1244.33 1095.96 1242.70 C 1099.76 1241.71 1103.78 1241.90 1107.53 1240.64 Z" />
</g>
<g id="#42c8e8ff">
<path fill="#42c8e8" opacity="1.00" d=" M 211.15 54.88 C 217.42 54.04 223.57 52.17 229.93 52.26 C 246.62 51.94 263.31 51.85 280.00 51.89 C 523.65 51.92 767.30 51.89 1010.95 51.91 C 1025.31 51.85 1039.67 51.95 1054.02 52.47 C 1071.80 54.88 1089.56 58.80 1106.00 66.14 C 1111.60 67.02 1116.17 70.50 1121.33 72.61 C 1126.45 75.98 1132.26 78.13 1137.14 81.88 C 1145.56 86.45 1152.70 92.90 1160.13 98.86 C 1161.26 99.78 1162.21 100.90 1163.08 102.08 C 1161.98 101.96 1160.94 101.69 1159.96 101.28 C 1143.69 87.14 1125.12 75.62 1105.13 67.56 C 1098.57 65.16 1092.13 62.17 1085.17 61.15 C 1085.70 61.06 1086.24 60.96 1086.80 60.87 C 1068.85 56.56 1050.54 53.07 1032.00 53.54 C 770.00 53.50 508.00 53.48 246.00 53.55 C 236.29 53.39 226.61 54.33 217.03 55.84 C 215.09 55.95 212.58 56.66 211.15 54.88 Z" />
<path fill="#42c8e8" opacity="1.00" d=" M 167.77 67.86 C 170.07 66.50 172.85 66.66 175.39 67.09 C 151.34 76.97 129.13 91.37 110.64 109.67 C 101.19 119.40 92.36 129.76 84.99 141.17 C 84.52 141.06 83.58 140.84 83.11 140.73 C 85.40 136.05 89.14 132.19 91.98 127.82 C 99.70 119.25 106.53 109.66 115.86 102.71 C 118.02 100.59 119.69 97.95 122.33 96.35 C 128.70 92.10 134.30 86.79 140.89 82.87 C 148.91 76.32 159.15 73.44 167.77 67.86 Z" />
<path fill="#42c8e8" opacity="1.00" d=" M 1162.49 102.66 C 1165.39 102.78 1167.02 105.31 1168.89 107.16 C 1172.59 111.14 1176.50 114.92 1180.27 118.84 C 1182.13 121.05 1184.56 123.42 1184.17 126.58 C 1177.78 118.49 1170.41 111.29 1163.15 104.00 L 1162.49 102.66 Z" />
<path fill="#42c8e8" opacity="1.00" d=" M 1212.09 1073.99 C 1213.93 1071.10 1214.67 1067.65 1216.73 1064.91 C 1216.10 1070.92 1212.51 1076.02 1210.59 1081.65 C 1204.05 1093.02 1199.88 1106.04 1190.70 1115.74 C 1185.92 1121.65 1182.01 1128.34 1176.21 1133.34 C 1173.31 1136.14 1171.56 1140.04 1168.13 1142.28 C 1165.58 1143.95 1163.41 1146.09 1161.25 1148.20 C 1151.52 1156.68 1141.01 1164.28 1129.87 1170.78 C 1121.59 1174.50 1114.13 1180.03 1105.29 1182.43 C 1097.94 1184.74 1090.74 1189.36 1082.76 1188.07 C 1108.65 1181.13 1133.03 1168.72 1153.92 1151.92 C 1179.48 1131.38 1199.60 1104.30 1212.09 1073.99 Z" />
<path fill="#42c8e8" opacity="1.00" d=" M 78.55 1096.40 C 85.15 1107.54 92.42 1118.35 101.10 1127.99 C 125.98 1156.84 159.72 1177.79 196.42 1187.87 C 194.61 1188.22 192.74 1188.66 190.93 1188.06 C 185.35 1186.69 180.09 1184.29 174.64 1182.49 C 165.43 1179.66 157.46 1174.10 148.71 1170.23 C 141.21 1165.51 133.80 1160.59 126.98 1154.93 C 124.25 1152.67 120.92 1151.13 118.69 1148.31 C 115.65 1144.65 111.07 1142.70 108.08 1138.98 C 99.71 1128.34 89.71 1118.91 82.98 1107.05 C 81.07 1103.74 77.14 1100.65 78.55 1096.40 Z" />
<path fill="#42c8e8" opacity="1.00" d=" M 230.77 1193.72 C 238.47 1194.68 246.25 1194.39 254.00 1194.48 C 515.62 1194.46 777.25 1194.50 1038.87 1194.46 C 1042.18 1194.60 1045.50 1194.39 1048.82 1194.46 C 1048.80 1194.73 1048.77 1195.27 1048.75 1195.53 C 1025.53 1196.56 1002.27 1195.95 979.03 1196.12 C 759.01 1196.11 538.98 1196.13 318.96 1196.11 C 289.82 1195.86 260.65 1196.67 231.53 1195.56 C 231.34 1195.10 230.96 1194.18 230.77 1193.72 Z" />
</g>
<g id="#061f26ff">
<path fill="#061f26" opacity="1.00" d=" M 217.03 55.84 C 226.61 54.33 236.29 53.39 246.00 53.55 C 508.00 53.48 770.00 53.50 1032.00 53.54 C 1050.54 53.07 1068.85 56.56 1086.80 60.87 C 1086.24 60.96 1085.70 61.06 1085.17 61.15 C 1092.13 62.17 1098.57 65.16 1105.13 67.56 C 1125.12 75.62 1143.69 87.14 1159.96 101.28 C 1161.03 102.16 1162.09 103.05 1163.15 104.00 C 1170.41 111.29 1177.78 118.49 1184.17 126.58 C 1197.78 143.72 1208.42 163.16 1215.57 183.84 C 1217.58 189.82 1219.17 195.92 1221.04 201.95 C 1223.85 215.12 1225.59 228.50 1226.29 241.95 C 1226.30 493.63 1226.30 745.32 1226.29 997.00 C 1226.45 1006.03 1226.15 1015.08 1224.70 1024.01 C 1223.25 1041.22 1218.15 1057.89 1212.09 1073.99 C 1199.60 1104.30 1179.48 1131.38 1153.92 1151.92 C 1133.03 1168.72 1108.65 1181.13 1082.76 1188.07 C 1068.42 1191.87 1053.66 1193.72 1038.87 1194.46 C 777.25 1194.50 515.62 1194.46 254.00 1194.48 C 246.25 1194.39 238.47 1194.68 230.77 1193.72 C 224.60 1193.13 218.45 1192.44 212.25 1192.55 C 213.84 1192.14 215.49 1192.11 217.12 1192.01 C 210.13 1191.13 203.23 1189.64 196.42 1187.87 C 159.72 1177.79 125.98 1156.84 101.10 1127.99 C 92.42 1118.35 85.15 1107.54 78.55 1096.40 C 62.53 1068.07 53.43 1035.62 53.42 1003.04 C 53.36 765.02 53.41 527.01 53.39 288.99 C 53.48 270.66 53.19 252.32 53.61 234.00 C 56.18 201.11 66.64 168.68 84.99 141.17 C 92.36 129.76 101.19 119.40 110.64 109.67 C 129.13 91.37 151.34 76.97 175.39 67.09 C 180.98 65.00 186.60 62.94 192.39 61.40 C 192.47 61.24 192.63 60.91 192.71 60.74 C 200.86 59.34 208.80 56.85 217.03 55.84 M 356.95 302.99 C 351.66 303.22 346.35 302.48 341.09 303.28 C 335.42 304.17 329.67 303.20 323.99 303.99 C 320.11 304.31 314.87 303.64 312.91 307.91 C 311.53 314.82 312.06 321.92 311.92 328.92 C 311.94 511.27 311.90 693.63 311.95 875.98 C 312.00 878.80 314.02 883.03 317.47 881.90 C 319.11 882.92 321.10 882.98 322.97 883.06 C 345.64 883.03 368.31 882.97 390.98 883.08 C 393.72 882.50 398.80 884.56 399.38 880.68 C 401.08 880.59 403.11 880.70 404.21 879.12 C 404.95 877.49 405.58 875.76 405.42 873.96 C 405.21 806.73 405.63 739.50 405.21 672.28 L 406.00 672.25 C 406.03 672.94 406.08 674.33 406.11 675.02 C 411.04 674.86 415.98 674.76 420.91 675.20 C 434.59 675.23 448.28 675.46 461.96 675.18 C 467.70 674.88 473.63 675.54 479.13 673.49 C 474.46 672.16 469.54 673.39 464.78 672.58 C 476.74 671.69 488.72 670.79 500.53 668.55 C 506.46 667.69 512.29 666.21 518.17 665.09 C 515.74 666.05 513.34 667.21 510.72 667.58 C 508.57 668.04 505.93 667.78 504.70 669.99 C 508.28 670.40 511.61 668.82 515.07 668.24 C 526.59 666.32 537.54 662.12 548.58 658.51 C 553.62 655.59 559.60 654.84 564.44 651.50 C 565.29 650.75 566.86 650.32 566.94 649.00 C 566.42 648.87 565.37 648.59 564.85 648.45 C 583.28 639.33 600.42 627.37 614.55 612.36 L 614.67 614.22 C 617.56 613.57 619.04 610.87 620.90 608.86 C 625.47 604.00 629.72 598.81 633.03 593.02 C 639.11 585.19 642.63 575.88 647.09 567.13 C 651.45 557.49 654.84 547.36 656.90 536.97 C 657.73 533.51 659.11 530.17 659.53 526.61 C 660.32 516.40 661.99 506.26 662.78 496.05 C 662.50 485.74 663.65 475.31 661.68 465.10 C 660.84 460.33 661.55 455.42 660.46 450.69 C 659.29 445.62 659.26 440.32 657.56 435.37 C 655.65 429.78 655.18 423.78 652.74 418.35 C 648.29 403.97 640.59 390.95 633.12 377.99 C 632.39 376.31 629.89 374.61 629.03 377.19 C 626.73 374.01 624.24 370.98 621.77 367.93 C 624.27 365.51 620.64 363.44 619.28 361.69 C 614.62 356.36 609.19 351.83 604.16 346.88 C 602.80 345.73 600.66 344.28 599.06 345.95 C 590.45 339.38 581.32 333.52 571.67 328.59 C 572.34 328.44 573.67 328.13 574.34 327.97 C 573.09 326.68 571.76 325.42 570.03 324.84 C 565.17 322.92 560.32 320.88 555.88 318.11 C 551.00 317.68 546.64 315.31 542.03 313.90 C 537.61 311.64 532.56 311.58 527.93 309.95 C 520.26 308.09 512.59 306.00 504.69 305.36 C 494.61 303.21 484.27 303.11 474.08 301.79 C 440.08 301.68 406.07 301.78 372.07 301.91 C 367.04 302.34 362.01 302.96 356.95 302.99 M 838.71 447.57 C 833.29 448.22 828.13 450.01 822.76 450.85 C 819.77 452.18 816.57 452.82 813.40 453.51 C 806.33 456.39 798.95 458.58 792.20 462.21 C 783.06 467.61 773.34 472.39 765.69 479.90 C 766.04 480.37 766.74 481.31 767.09 481.78 C 747.50 498.37 733.91 521.83 729.18 547.06 C 727.06 556.56 727.10 566.33 727.22 576.01 C 727.25 597.65 733.34 619.42 745.47 637.43 C 759.29 658.24 779.93 673.31 801.11 685.96 C 814.98 694.25 829.90 700.57 843.93 708.57 C 853.94 714.17 863.66 720.34 872.85 727.21 C 881.64 734.41 890.72 742.45 894.31 753.63 C 890.13 757.20 895.09 762.49 893.72 766.91 C 892.20 772.69 892.01 779.25 887.89 783.97 C 885.28 787.84 882.13 791.34 878.17 793.87 C 878.02 793.19 877.72 791.83 877.56 791.15 C 877.27 792.27 876.98 793.38 876.72 794.53 C 863.35 801.60 847.88 803.21 833.01 802.64 C 828.72 804.25 824.07 802.99 819.75 804.37 C 788.19 801.35 757.05 791.33 730.49 773.85 L 731.82 773.05 L 732.22 771.90 C 728.83 768.55 723.58 771.94 723.35 776.10 C 722.26 803.44 723.47 830.87 722.75 858.18 C 723.33 859.95 724.36 861.53 725.28 863.17 C 725.58 862.78 726.19 862.01 726.49 861.63 C 727.25 862.48 728.20 863.14 729.21 863.70 C 739.82 869.77 751.45 873.88 763.23 877.05 C 762.89 877.86 762.55 878.68 762.22 879.51 C 768.48 880.93 774.79 882.13 780.97 883.87 C 786.88 885.33 793.03 885.19 798.94 886.60 C 803.96 887.42 809.08 886.95 814.13 887.59 C 820.44 887.86 826.68 889.16 833.03 888.95 C 839.56 889.29 846.14 888.24 852.64 889.42 C 855.60 887.03 859.54 887.80 863.06 887.36 C 873.22 886.36 883.53 885.13 893.10 881.40 C 891.97 881.00 890.85 880.63 889.73 880.31 C 891.17 879.91 892.58 879.41 894.01 878.94 C 913.04 873.74 931.29 864.89 946.39 852.10 C 959.76 840.95 970.37 826.59 977.23 810.59 C 977.70 811.47 977.86 813.44 979.34 812.64 C 980.33 809.39 981.55 806.23 982.81 803.08 C 986.89 793.27 987.30 782.52 989.39 772.23 C 989.97 766.82 989.72 761.36 989.91 755.93 C 989.79 751.52 990.40 746.91 988.65 742.74 C 986.96 746.67 988.34 751.15 987.38 755.29 C 987.19 753.20 986.84 751.13 986.78 749.05 C 986.09 727.51 979.42 705.97 966.49 688.60 C 952.95 669.79 934.05 655.75 914.52 643.70 C 892.41 629.88 867.93 620.32 846.15 605.94 C 836.08 599.34 825.81 592.08 819.47 581.59 C 814.32 572.28 814.16 560.68 818.52 551.03 C 823.45 541.06 833.05 534.07 843.53 530.81 C 847.94 534.11 852.62 529.90 857.32 530.21 C 874.39 528.62 891.46 530.74 908.41 532.59 C 912.90 533.53 917.29 535.82 922.01 534.67 C 918.56 533.56 915.09 532.53 911.76 531.11 C 924.67 533.60 937.36 537.30 949.47 542.45 C 953.85 544.66 958.74 546.22 962.52 549.42 C 962.07 549.81 961.16 550.60 960.71 551.00 C 962.83 552.86 966.31 551.99 968.96 551.84 C 971.60 549.70 973.69 546.59 973.23 543.04 C 973.26 522.05 972.95 501.06 973.23 480.07 C 973.19 476.05 973.39 471.99 972.85 468.00 C 971.17 463.31 966.95 459.95 962.30 458.43 C 958.87 456.36 954.90 455.90 951.16 454.73 C 946.47 452.68 941.24 452.96 936.37 451.57 C 931.08 451.13 926.29 448.09 920.91 448.55 C 918.07 448.79 915.50 446.97 912.67 447.51 C 907.72 448.24 902.99 446.07 898.06 446.11 C 878.29 445.88 858.37 444.83 838.71 447.57 M 406.63 680.02 C 406.63 744.03 406.65 808.05 406.64 872.06 C 406.59 873.26 406.94 874.34 407.69 875.31 C 408.34 862.87 407.88 850.40 408.01 837.95 C 408.00 806.30 408.03 774.65 408.02 743.01 C 407.87 720.90 408.31 698.78 407.75 676.69 C 407.07 677.70 406.70 678.81 406.63 680.02 Z" />
<path fill="#061f26" opacity="1.00" d=" M 408.09 390.30 C 423.69 388.96 439.37 388.90 455.02 388.76 C 463.92 388.57 472.75 389.74 481.60 390.47 C 499.23 393.37 516.89 398.78 531.37 409.63 C 544.42 419.92 553.99 434.31 559.08 450.08 C 562.67 462.06 563.59 474.59 564.16 487.01 C 564.59 493.41 562.43 499.58 562.66 505.96 C 560.64 519.17 557.10 532.46 549.74 543.78 C 547.30 547.01 545.13 550.43 542.82 553.75 C 539.51 558.42 534.72 561.68 530.32 565.22 C 522.36 572.11 512.32 575.80 502.64 579.54 C 496.24 582.12 489.17 581.90 482.78 584.42 C 478.92 585.58 474.79 584.79 470.91 585.84 C 465.38 587.27 459.61 586.70 453.98 587.31 C 447.33 588.11 440.66 586.82 434.01 587.30 C 430.98 587.51 427.94 587.75 424.91 587.45 C 419.36 586.86 413.75 587.39 408.20 586.71 C 408.02 521.25 408.25 455.77 408.09 390.30 Z" />
</g>
<g id="#37cae8ff">
<path fill="#37cae8" opacity="1.00" d=" M 1215.57 183.84 C 1216.83 184.61 1218.41 185.36 1218.65 187.03 C 1219.80 191.91 1222.77 196.84 1221.04 201.95 C 1219.17 195.92 1217.58 189.82 1215.57 183.84 Z" />
</g>
<g id="#27c5e4ee">
<path fill="#27c5e4" opacity="0.93" d=" M 1279.44 220.86 L 1280.00 219.47 L 1280.00 1018.33 L 1279.41 1018.40 C 1278.85 1014.29 1278.72 1010.15 1278.85 1006.03 C 1278.87 753.35 1278.84 500.68 1278.86 248.00 C 1279.14 238.96 1278.39 229.86 1279.44 220.86 Z" />
</g>
<g id="#041015ff">
<path fill="#041015" opacity="1.00" d=" M 356.95 302.99 C 362.01 302.96 367.04 302.34 372.07 301.91 C 406.07 301.78 440.08 301.68 474.08 301.79 C 484.27 303.11 494.61 303.21 504.69 305.36 C 512.59 306.00 520.26 308.09 527.93 309.95 C 532.56 311.58 537.61 311.64 542.03 313.90 C 546.64 315.31 551.00 317.68 555.88 318.11 C 560.32 320.88 565.17 322.92 570.03 324.84 C 571.76 325.42 573.09 326.68 574.34 327.97 C 573.67 328.13 572.34 328.44 571.67 328.59 C 561.61 323.51 551.06 319.45 540.37 315.89 C 530.74 312.59 520.79 309.83 510.63 308.82 C 508.19 308.41 505.78 307.95 503.36 307.51 C 500.60 306.88 497.82 306.32 495.01 306.06 C 484.97 305.13 474.93 303.86 464.83 304.29 C 445.29 303.75 425.75 304.34 406.20 304.40 C 388.13 303.82 370.06 304.92 351.99 305.12 C 344.20 305.78 336.35 305.34 328.60 306.28 C 324.16 306.36 319.64 306.07 315.34 307.37 C 314.84 309.54 314.36 311.74 314.33 313.99 C 314.41 500.66 314.34 687.34 314.37 874.01 C 314.24 876.39 315.23 878.62 316.52 880.57 L 317.47 881.90 C 314.02 883.03 312.00 878.80 311.95 875.98 C 311.90 693.63 311.94 511.27 311.92 328.92 C 312.06 321.92 311.53 314.82 312.91 307.91 C 314.87 303.64 320.11 304.31 323.99 303.99 C 329.67 303.20 335.42 304.17 341.09 303.28 C 346.35 302.48 351.66 303.22 356.95 302.99 Z" />
</g>
<g id="#8a9b9fff">
<path fill="#8a9b9f" opacity="1.00" d=" M 351.99 305.12 C 370.06 304.92 388.13 303.82 406.20 304.40 C 394.50 305.36 382.75 305.07 371.02 305.39 C 356.45 305.62 341.89 306.99 327.33 306.56 L 328.60 306.28 C 336.35 305.34 344.20 305.78 351.99 305.12 Z" />
</g>
<g id="#d9f5ffff">
<path fill="#d9f5ff" opacity="1.00" d=" M 406.20 304.40 C 425.75 304.34 445.29 303.75 464.83 304.29 C 469.54 304.64 474.24 305.05 478.96 305.31 C 487.12 305.80 495.18 307.41 503.36 307.51 C 505.78 307.95 508.19 308.41 510.63 308.82 C 514.62 310.10 518.73 310.97 522.85 311.75 C 528.77 312.82 534.36 315.28 540.37 315.89 C 551.06 319.45 561.61 323.51 571.67 328.59 C 581.32 333.52 590.45 339.38 599.06 345.95 C 607.58 352.23 614.94 359.87 621.77 367.93 C 624.24 370.98 626.73 374.01 629.03 377.19 C 641.13 394.09 649.52 413.45 654.52 433.58 C 654.91 439.16 656.74 444.49 657.45 450.02 C 660.44 470.51 660.52 491.38 658.47 511.97 C 657.92 519.15 655.96 526.13 655.35 533.31 C 648.94 562.59 635.40 590.63 614.55 612.36 C 600.42 627.37 583.28 639.33 564.85 648.45 C 550.01 655.82 534.20 661.01 518.17 665.09 C 512.29 666.21 506.46 667.69 500.53 668.55 C 496.51 665.60 491.45 667.16 487.01 668.02 C 468.86 671.22 450.38 669.85 432.05 670.25 C 422.70 669.75 413.33 669.89 403.97 669.50 C 403.48 671.29 402.94 673.10 402.84 674.98 C 402.80 741.01 402.89 807.05 402.80 873.08 C 403.47 876.51 399.91 878.17 397.03 877.97 C 372.02 877.97 347.00 877.83 322.00 877.96 C 319.65 878.12 316.83 876.75 317.15 874.02 C 317.28 689.67 317.11 505.31 317.23 320.97 C 317.45 319.12 316.24 317.70 315.30 316.28 C 315.15 313.50 315.57 310.74 316.05 308.01 C 319.74 307.08 323.54 306.80 327.33 306.56 C 341.89 306.99 356.45 305.62 371.02 305.39 C 382.75 305.07 394.50 305.36 406.20 304.40 M 405.27 387.32 C 405.29 454.48 405.21 521.67 405.32 588.80 C 411.49 590.25 417.96 589.54 424.25 589.59 C 441.53 589.71 458.89 590.33 476.07 588.13 C 481.40 587.16 486.74 586.24 492.05 585.18 C 513.38 580.11 534.23 569.47 547.55 551.58 C 558.89 536.47 564.50 517.69 565.73 499.00 C 567.24 487.13 566.19 475.12 564.56 463.33 C 561.34 444.07 552.62 425.23 537.80 412.18 C 528.67 403.99 517.73 397.94 506.14 394.00 C 502.78 391.95 498.81 391.43 495.09 390.35 C 481.38 386.68 467.10 386.25 453.00 386.22 C 437.07 386.03 421.18 387.09 405.27 387.32 Z" />
<path fill="#d9f5ff" opacity="1.00" d=" M 835.79 450.85 C 845.17 449.88 854.53 448.56 863.98 448.49 C 881.76 448.01 899.52 449.33 917.23 450.76 C 933.08 452.97 948.99 455.86 963.92 461.81 C 968.83 463.50 971.20 469.11 970.72 474.01 C 970.72 495.67 970.65 517.33 970.73 538.98 C 970.62 542.45 971.50 546.75 968.43 549.27 C 966.57 550.15 964.46 549.43 962.52 549.42 C 958.74 546.22 953.85 544.66 949.47 542.45 C 937.36 537.30 924.67 533.60 911.76 531.11 C 898.03 528.37 884.00 527.07 870.00 527.26 C 861.06 527.05 852.06 528.08 843.53 530.81 C 833.05 534.07 823.45 541.06 818.52 551.03 C 814.16 560.68 814.32 572.28 819.47 581.59 C 825.81 592.08 836.08 599.34 846.15 605.94 C 867.93 620.32 892.41 629.88 914.52 643.70 C 934.05 655.75 952.95 669.79 966.49 688.60 C 979.42 705.97 986.09 727.51 986.78 749.05 C 986.84 751.13 987.19 753.20 987.38 755.29 C 987.40 774.11 984.81 793.23 977.23 810.59 C 970.37 826.59 959.76 840.95 946.39 852.10 C 931.29 864.89 913.04 873.74 894.01 878.94 C 892.58 879.41 891.17 879.91 889.73 880.31 C 854.13 888.99 816.80 887.57 780.96 881.16 C 774.99 880.07 769.12 878.51 763.23 877.05 C 751.45 873.88 739.82 869.77 729.21 863.70 C 728.20 863.14 727.25 862.48 726.49 861.63 C 725.72 859.49 725.18 857.25 725.27 854.97 C 725.35 828.95 725.19 802.93 725.34 776.91 C 724.94 774.85 726.82 773.76 728.05 772.52 C 728.85 772.95 729.67 773.40 730.49 773.85 C 757.05 791.33 788.19 801.35 819.75 804.37 C 836.61 805.64 854.19 806.20 870.30 800.21 C 878.54 797.31 886.01 791.95 890.76 784.55 C 896.33 775.39 897.09 763.81 894.31 753.63 C 890.72 742.45 881.64 734.41 872.85 727.21 C 863.66 720.34 853.94 714.17 843.93 708.57 C 829.90 700.57 814.98 694.25 801.11 685.96 C 779.93 673.31 759.29 658.24 745.47 637.43 C 733.34 619.42 727.25 597.65 727.22 576.01 C 727.10 566.33 727.06 556.56 729.18 547.06 C 733.91 521.83 747.50 498.37 767.09 481.78 C 786.43 465.15 810.86 455.32 835.79 450.85 Z" />
</g>
<g id="#768b8fff">
<path fill="#768b8f" opacity="1.00" d=" M 464.83 304.29 C 474.93 303.86 484.97 305.13 495.01 306.06 C 497.82 306.32 500.60 306.88 503.36 307.51 C 495.18 307.41 487.12 305.80 478.96 305.31 C 474.24 305.05 469.54 304.64 464.83 304.29 Z" />
</g>
<g id="#99abaeff">
<path fill="#99abae" opacity="1.00" d=" M 315.34 307.37 C 319.64 306.07 324.16 306.36 328.60 306.28 L 327.33 306.56 C 323.54 306.80 319.74 307.08 316.05 308.01 C 315.57 310.74 315.15 313.50 315.30 316.28 C 315.20 502.18 315.29 688.08 315.26 873.97 C 314.67 877.47 317.45 880.54 321.00 880.26 C 342.35 880.32 363.71 880.31 385.07 880.28 C 391.46 880.24 397.95 880.73 404.21 879.12 C 403.11 880.70 401.08 880.59 399.38 880.68 C 371.76 880.54 344.14 880.72 316.52 880.57 C 315.23 878.62 314.24 876.39 314.37 874.01 C 314.34 687.34 314.41 500.66 314.33 313.99 C 314.36 311.74 314.84 309.54 315.34 307.37 Z" />
</g>
<g id="#7a8e93ff">
<path fill="#7a8e93" opacity="1.00" d=" M 510.63 308.82 C 520.79 309.83 530.74 312.59 540.37 315.89 C 534.36 315.28 528.77 312.82 522.85 311.75 C 518.73 310.97 514.62 310.10 510.63 308.82 Z" />
</g>
<g id="#e9feffff">
<path fill="#e9feff" opacity="1.00" d=" M 315.30 316.28 C 316.24 317.70 317.45 319.12 317.23 320.97 C 317.11 505.31 317.28 689.67 317.15 874.02 C 316.83 876.75 319.65 878.12 322.00 877.96 C 347.00 877.83 372.02 877.97 397.03 877.97 C 399.91 878.17 403.47 876.51 402.80 873.08 C 402.89 807.05 402.80 741.01 402.84 674.98 C 402.94 673.10 403.48 671.29 403.97 669.50 C 413.33 669.89 422.70 669.75 432.05 670.25 C 450.38 669.85 468.86 671.22 487.01 668.02 C 491.45 667.16 496.51 665.60 500.53 668.55 C 488.72 670.79 476.74 671.69 464.78 672.58 C 453.85 672.95 442.89 673.95 431.97 672.75 C 423.31 672.58 414.66 672.01 406.00 672.25 L 405.21 672.28 C 405.63 739.50 405.21 806.73 405.42 873.96 C 405.58 875.76 404.95 877.49 404.21 879.12 C 397.95 880.73 391.46 880.24 385.07 880.28 C 363.71 880.31 342.35 880.32 321.00 880.26 C 317.45 880.54 314.67 877.47 315.26 873.97 C 315.29 688.08 315.20 502.18 315.30 316.28 Z" />
</g>
<g id="#00080fff">
<path fill="#00080f" opacity="1.00" d=" M 599.06 345.95 C 600.66 344.28 602.80 345.73 604.16 346.88 C 609.19 351.83 614.62 356.36 619.28 361.69 C 620.64 363.44 624.27 365.51 621.77 367.93 C 614.94 359.87 607.58 352.23 599.06 345.95 Z" />
<path fill="#00080f" opacity="1.00" d=" M 987.38 755.29 C 988.34 751.15 986.96 746.67 988.65 742.74 C 990.40 746.91 989.79 751.52 989.91 755.93 C 989.72 761.36 989.97 766.82 989.39 772.23 C 987.30 782.52 986.89 793.27 982.81 803.08 C 981.55 806.23 980.33 809.39 979.34 812.64 C 977.86 813.44 977.70 811.47 977.23 810.59 C 984.81 793.23 987.40 774.11 987.38 755.29 Z" />
<path fill="#00080f" opacity="1.00" d=" M 723.35 776.10 C 723.58 771.94 728.83 768.55 732.22 771.90 L 731.82 773.05 L 730.49 773.85 C 729.67 773.40 728.85 772.95 728.05 772.52 C 726.82 773.76 724.94 774.85 725.34 776.91 C 725.19 802.93 725.35 828.95 725.27 854.97 C 725.18 857.25 725.72 859.49 726.49 861.63 C 726.19 862.01 725.58 862.78 725.28 863.17 C 724.36 861.53 723.33 859.95 722.75 858.18 C 723.47 830.87 722.26 803.44 723.35 776.10 Z" />
</g>
<g id="#040d14ff">
<path fill="#040d14" opacity="1.00" d=" M 629.03 377.19 C 629.89 374.61 632.39 376.31 633.12 377.99 C 640.59 390.95 648.29 403.97 652.74 418.35 C 655.18 423.78 655.65 429.78 657.56 435.37 C 659.26 440.32 659.29 445.62 660.46 450.69 C 661.55 455.42 660.84 460.33 661.68 465.10 C 663.65 475.31 662.50 485.74 662.78 496.05 C 661.99 506.26 660.32 516.40 659.53 526.61 C 659.11 530.17 657.73 533.51 656.90 536.97 C 654.84 547.36 651.45 557.49 647.09 567.13 C 642.63 575.88 639.11 585.19 633.03 593.02 C 629.72 598.81 625.47 604.00 620.90 608.86 C 619.04 610.87 617.56 613.57 614.67 614.22 L 614.55 612.36 C 635.40 590.63 648.94 562.59 655.35 533.31 C 658.72 521.19 659.81 508.55 660.45 496.02 C 660.96 481.41 660.69 466.70 658.46 452.23 C 657.29 445.98 656.73 439.58 654.52 433.58 C 649.52 413.45 641.13 394.09 629.03 377.19 Z" />
</g>
<g id="#617a81ff">
<path fill="#617a81" opacity="1.00" d=" M 405.27 387.32 C 421.18 387.09 437.07 386.03 453.00 386.22 C 467.10 386.25 481.38 386.68 495.09 390.35 C 498.81 391.43 502.78 391.95 506.14 394.00 C 502.34 393.23 498.61 392.18 494.89 391.09 C 471.97 385.52 448.18 386.18 424.80 387.32 C 418.38 387.74 411.87 387.17 405.54 388.54 C 405.81 455.13 405.45 521.72 405.71 588.31 C 411.87 588.94 418.06 589.34 424.25 589.59 C 417.96 589.54 411.49 590.25 405.32 588.80 C 405.21 521.67 405.29 454.48 405.27 387.32 Z" />
</g>
<g id="#020b13ff">
<path fill="#020b13" opacity="1.00" d=" M 424.80 387.32 C 448.18 386.18 471.97 385.52 494.89 391.09 C 498.61 392.18 502.34 393.23 506.14 394.00 C 517.73 397.94 528.67 403.99 537.80 412.18 C 552.62 425.23 561.34 444.07 564.56 463.33 C 566.19 475.12 567.24 487.13 565.73 499.00 C 564.50 517.69 558.89 536.47 547.55 551.58 C 534.23 569.47 513.38 580.11 492.05 585.18 C 486.74 586.24 481.40 587.16 476.07 588.13 C 458.89 590.33 441.53 589.71 424.25 589.59 C 418.06 589.34 411.87 588.94 405.71 588.31 C 405.45 521.72 405.81 455.13 405.54 388.54 C 411.87 387.17 418.38 387.74 424.80 387.32 M 408.09 390.30 C 408.25 455.77 408.02 521.25 408.20 586.71 C 413.75 587.39 419.36 586.86 424.91 587.45 C 427.94 587.75 430.98 587.51 434.01 587.30 C 440.66 586.82 447.33 588.11 453.98 587.31 C 459.61 586.70 465.38 587.27 470.91 585.84 C 474.79 584.79 478.92 585.58 482.78 584.42 C 489.17 581.90 496.24 582.12 502.64 579.54 C 512.32 575.80 522.36 572.11 530.32 565.22 C 534.72 561.68 539.51 558.42 542.82 553.75 C 545.13 550.43 547.30 547.01 549.74 543.78 C 557.10 532.46 560.64 519.17 562.66 505.96 C 562.43 499.58 564.59 493.41 564.16 487.01 C 563.59 474.59 562.67 462.06 559.08 450.08 C 553.99 434.31 544.42 419.92 531.37 409.63 C 516.89 398.78 499.23 393.37 481.60 390.47 C 472.75 389.74 463.92 388.57 455.02 388.76 C 439.37 388.90 423.69 388.96 408.09 390.30 Z" />
</g>
<g id="#697b82ff">
<path fill="#697b82" opacity="1.00" d=" M 654.52 433.58 C 656.73 439.58 657.29 445.98 658.46 452.23 C 660.69 466.70 660.96 481.41 660.45 496.02 C 659.81 508.55 658.72 521.19 655.35 533.31 C 655.96 526.13 657.92 519.15 658.47 511.97 C 660.52 491.38 660.44 470.51 657.45 450.02 C 656.74 444.49 654.91 439.16 654.52 433.58 Z" />
</g>
<g id="#061117ff">
<path fill="#061117" opacity="1.00" d=" M 838.71 447.57 C 858.37 444.83 878.29 445.88 898.06 446.11 C 902.99 446.07 907.72 448.24 912.67 447.51 C 915.50 446.97 918.07 448.79 920.91 448.55 C 926.29 448.09 931.08 451.13 936.37 451.57 C 941.24 452.96 946.47 452.68 951.16 454.73 C 954.90 455.90 958.87 456.36 962.30 458.43 C 966.95 459.95 971.17 463.31 972.85 468.00 C 973.39 471.99 973.19 476.05 973.23 480.07 C 972.95 501.06 973.26 522.05 973.23 543.04 C 973.69 546.59 971.60 549.70 968.96 551.84 C 966.31 551.99 962.83 552.86 960.71 551.00 C 961.16 550.60 962.07 549.81 962.52 549.42 C 964.46 549.43 966.57 550.15 968.43 549.27 C 971.50 546.75 970.62 542.45 970.73 538.98 C 970.65 517.33 970.72 495.67 970.72 474.01 C 971.20 469.11 968.83 463.50 963.92 461.81 C 948.99 455.86 933.08 452.97 917.23 450.76 C 899.33 447.61 881.08 447.55 862.96 447.76 C 853.82 447.72 844.69 448.86 835.79 450.85 C 810.86 455.32 786.43 465.15 767.09 481.78 C 766.74 481.31 766.04 480.37 765.69 479.90 C 773.34 472.39 783.06 467.61 792.20 462.21 C 798.95 458.58 806.33 456.39 813.40 453.51 C 816.57 452.82 819.77 452.18 822.76 450.85 C 828.13 450.01 833.29 448.22 838.71 447.57 Z" />
</g>
<g id="#6d7c80ff">
<path fill="#6d7c80" opacity="1.00" d=" M 835.79 450.85 C 844.69 448.86 853.82 447.72 862.96 447.76 C 881.08 447.55 899.33 447.61 917.23 450.76 C 899.52 449.33 881.76 448.01 863.98 448.49 C 854.53 448.56 845.17 449.88 835.79 450.85 Z" />
</g>
<g id="#020d11ff">
<path fill="#020d11" opacity="1.00" d=" M 843.53 530.81 C 852.06 528.08 861.06 527.05 870.00 527.26 C 884.00 527.07 898.03 528.37 911.76 531.11 C 915.09 532.53 918.56 533.56 922.01 534.67 C 917.29 535.82 912.90 533.53 908.41 532.59 C 891.46 530.74 874.39 528.62 857.32 530.21 C 852.62 529.90 847.94 534.11 843.53 530.81 Z" />
</g>
<g id="#091319ff">
<path fill="#091319" opacity="1.00" d=" M 518.17 665.09 C 534.20 661.01 550.01 655.82 564.85 648.45 C 565.37 648.59 566.42 648.87 566.94 649.00 C 566.86 650.32 565.29 650.75 564.44 651.50 C 559.60 654.84 553.62 655.59 548.58 658.51 C 537.54 662.12 526.59 666.32 515.07 668.24 C 511.61 668.82 508.28 670.40 504.70 669.99 C 505.93 667.78 508.57 668.04 510.72 667.58 C 513.34 667.21 515.74 666.05 518.17 665.09 Z" />
</g>
<g id="#000c13ff">
<path fill="#000c13" opacity="1.00" d=" M 406.00 672.25 C 414.66 672.01 423.31 672.58 431.97 672.75 C 442.89 673.95 453.85 672.95 464.78 672.58 C 469.54 673.39 474.46 672.16 479.13 673.49 C 473.63 675.54 467.70 674.88 461.96 675.18 C 448.28 675.46 434.59 675.23 420.91 675.20 C 415.98 674.76 411.04 674.86 406.11 675.02 C 406.08 674.33 406.03 672.94 406.00 672.25 Z" />
</g>
<g id="#000411ff">
<path fill="#000411" opacity="1.00" d=" M 406.63 680.02 C 406.70 678.81 407.07 677.70 407.75 676.69 C 408.31 698.78 407.87 720.90 408.02 743.01 C 408.03 774.65 408.00 806.30 408.01 837.95 C 407.88 850.40 408.34 862.87 407.69 875.31 C 406.94 874.34 406.59 873.26 406.64 872.06 C 406.65 808.05 406.63 744.03 406.63 680.02 Z" />
</g>
<g id="#060c13ff">
<path fill="#060c13" opacity="1.00" d=" M 894.31 753.63 C 897.09 763.81 896.33 775.39 890.76 784.55 C 886.01 791.95 878.54 797.31 870.30 800.21 C 854.19 806.20 836.61 805.64 819.75 804.37 C 824.07 802.99 828.72 804.25 833.01 802.64 C 847.88 803.21 863.35 801.60 876.72 794.53 C 876.98 793.38 877.27 792.27 877.56 791.15 C 877.72 791.83 878.02 793.19 878.17 793.87 C 882.13 791.34 885.28 787.84 887.89 783.97 C 892.01 779.25 892.20 772.69 893.72 766.91 C 895.09 762.49 890.13 757.20 894.31 753.63 Z" />
</g>
<g id="#020d0fff">
<path fill="#020d0f" opacity="1.00" d=" M 763.23 877.05 C 769.12 878.51 774.99 880.07 780.96 881.16 C 816.80 887.57 854.13 888.99 889.73 880.31 C 890.85 880.63 891.97 881.00 893.10 881.40 C 883.53 885.13 873.22 886.36 863.06 887.36 C 859.54 887.80 855.60 887.03 852.64 889.42 C 846.14 888.24 839.56 889.29 833.03 888.95 C 826.68 889.16 820.44 887.86 814.13 887.59 C 809.08 886.95 803.96 887.42 798.94 886.60 C 793.03 885.19 786.88 885.33 780.97 883.87 C 774.79 882.13 768.48 880.93 762.22 879.51 C 762.55 878.68 762.89 877.86 763.23 877.05 Z" />
</g>
<g id="#011218ff">
<path fill="#011218" opacity="1.00" d=" M 316.52 880.57 C 344.14 880.72 371.76 880.54 399.38 880.68 C 398.80 884.56 393.72 882.50 390.98 883.08 C 368.31 882.97 345.64 883.03 322.97 883.06 C 321.10 882.98 319.11 882.92 317.47 881.90 L 316.52 880.57 Z" />
</g>
</svg>
