<?xml version="1.0" encoding="UTF-8" ?>
<!DOCTYPE svg PUBLIC "-//W3C//DTD SVG 1.1//EN" "http://www.w3.org/Graphics/SVG/1.1/DTD/svg11.dtd">
<svg width="1280pt" height="1344pt" viewBox="0 0 1280 1344" version="1.1" xmlns="http://www.w3.org/2000/svg">
<g id="#3e2f2941">
<path fill="#3e2f29" opacity="0.25" d=" M 635.91 0.00 L 642.81 0.00 C 643.18 0.41 643.92 1.22 644.29 1.63 C 639.27 1.60 633.87 1.37 629.69 4.64 C 627.30 4.85 625.15 5.89 623.13 7.09 C 620.64 7.19 618.19 7.67 616.17 9.21 C 614.86 9.41 613.56 9.60 612.27 9.79 C 610.43 10.04 608.61 10.33 606.80 10.69 C 616.09 6.03 627.05 5.61 635.91 0.00 Z" />
</g>
<g id="#91391f94">
<path fill="#91391f" opacity="0.58" d=" M 629.69 4.64 C 633.87 1.37 639.27 1.60 644.29 1.63 C 655.04 5.17 665.91 8.31 676.66 11.86 C 677.10 12.27 677.98 13.10 678.43 13.51 C 682.22 14.38 686.03 15.34 689.56 17.03 C 682.45 15.90 675.85 12.79 668.90 11.03 C 660.90 8.37 652.79 6.10 644.89 3.19 C 640.52 2.19 635.82 2.53 631.72 4.38 C 631.21 4.44 630.20 4.57 629.69 4.64 Z" />
</g>
<g id="#fe3c00ff">
<path fill="#fe3c00" opacity="1.00" d=" M 631.72 4.38 C 635.82 2.53 640.52 2.19 644.89 3.19 C 652.79 6.10 660.90 8.37 668.90 11.03 C 675.85 12.79 682.45 15.90 689.56 17.03 C 697.81 20.36 706.49 22.60 714.97 25.34 C 718.86 25.83 722.11 28.32 726.06 28.59 C 729.15 30.15 732.61 30.67 735.82 31.96 C 747.22 35.22 758.27 39.70 769.85 42.36 C 770.87 42.82 771.76 43.53 772.71 44.15 C 774.14 44.26 775.57 44.35 777.02 44.46 C 779.04 46.04 781.52 46.63 784.04 46.84 C 789.75 49.63 796.23 50.33 801.99 53.02 C 805.70 53.68 809.16 55.23 812.78 56.25 C 816.52 57.48 820.48 58.12 823.95 60.06 C 826.42 60.21 828.82 60.83 830.87 62.26 C 837.50 63.08 843.39 66.77 849.99 67.69 C 852.11 69.03 854.52 69.64 857.00 69.87 C 862.59 72.76 869.15 73.11 874.72 76.04 C 878.51 76.69 882.00 78.39 885.76 79.18 C 889.32 81.11 893.56 81.07 897.02 83.22 C 898.42 83.32 899.84 83.41 901.27 83.49 C 902.08 84.14 902.91 84.79 903.76 85.44 C 905.39 85.63 907.11 85.66 908.67 86.31 C 915.55 88.99 922.65 91.09 929.75 93.11 C 934.80 94.60 939.61 96.98 944.88 97.68 C 946.83 99.43 949.43 99.57 951.92 99.83 C 954.59 101.54 957.82 101.83 960.74 102.95 C 971.16 106.55 981.85 109.33 992.23 113.05 C 993.38 113.32 994.56 113.57 995.75 113.78 C 999.91 115.50 1004.27 117.50 1008.82 117.50 C 1009.05 117.51 1009.51 117.52 1009.74 117.53 C 1010.44 118.33 1011.24 119.01 1012.15 119.58 C 1026.83 123.54 1041.21 128.56 1055.73 133.08 C 1062.38 135.10 1068.86 137.84 1075.75 139.00 C 1076.27 139.28 1077.32 139.83 1077.84 140.11 C 1118.92 152.92 1159.92 166.05 1200.99 178.96 C 1202.96 179.66 1205.01 180.12 1207.09 180.52 C 1210.50 182.36 1214.42 182.82 1217.99 184.30 C 1224.87 186.27 1231.50 189.16 1238.60 190.33 L 1240.26 190.61 C 1242.14 191.00 1244.01 191.53 1245.86 192.13 C 1246.36 192.44 1247.35 193.06 1247.84 193.37 C 1249.39 193.42 1250.98 193.47 1252.56 193.53 C 1252.57 193.98 1252.58 194.89 1252.59 195.34 C 1254.66 195.44 1256.73 195.54 1258.83 195.72 C 1260.98 198.19 1264.47 197.83 1267.43 198.36 C 1267.44 198.69 1267.47 199.33 1267.49 199.66 C 1269.33 199.93 1271.18 200.21 1273.05 200.46 C 1273.96 201.29 1274.91 202.12 1275.88 202.92 L 1274.88 203.29 C 1242.72 213.96 1210.18 223.38 1178.00 233.98 C 1117.86 253.00 1057.73 272.13 997.48 290.85 C 984.48 295.56 971.07 299.02 957.99 303.49 C 946.32 306.77 935.00 311.16 923.28 314.28 C 915.17 317.42 906.68 319.37 898.50 322.29 C 892.64 324.42 886.52 325.70 880.64 327.74 C 870.07 331.47 859.25 334.42 848.58 337.81 C 840.29 341.10 831.56 343.02 823.18 346.03 C 818.30 347.80 813.33 349.26 808.31 350.57 C 784.21 358.46 759.95 365.92 735.76 373.54 C 724.81 377.51 713.48 380.27 702.50 384.15 C 683.50 390.16 664.48 396.08 645.50 402.14 C 643.86 402.61 642.20 402.97 640.54 403.29 C 636.16 403.13 632.13 401.28 628.01 400.01 C 596.56 390.10 565.13 380.15 533.69 370.24 C 529.16 368.41 524.26 367.83 519.65 366.27 C 510.05 362.78 499.99 360.67 490.64 356.48 C 467.10 349.66 443.85 341.82 420.46 334.52 C 414.80 332.07 408.66 331.19 402.90 329.08 C 393.67 325.51 383.88 323.75 374.58 320.40 C 366.43 318.65 358.96 314.78 350.84 312.95 C 346.35 311.87 342.29 309.55 337.86 308.30 C 327.29 305.30 316.90 301.71 306.38 298.54 C 301.64 296.77 296.85 295.13 291.90 294.05 C 278.25 289.65 264.64 285.07 250.84 281.18 C 244.57 278.98 238.38 276.56 231.90 275.06 C 215.85 269.64 199.48 265.20 183.54 259.48 C 179.19 258.03 174.61 257.40 170.36 255.65 C 165.91 253.81 161.25 252.61 156.63 251.29 C 142.73 246.78 128.83 242.28 114.82 238.14 C 110.57 236.66 106.35 235.04 101.96 233.97 C 81.17 227.45 60.45 220.71 39.61 214.37 C 27.92 210.23 15.88 207.17 4.28 202.77 C 7.24 200.41 12.13 201.76 14.14 198.27 C 15.83 197.90 17.53 197.60 19.23 197.29 C 21.03 195.28 23.74 195.45 26.20 195.29 C 28.06 193.50 30.63 193.23 33.04 192.73 C 33.25 192.70 33.68 192.63 33.89 192.59 C 43.64 190.57 52.96 186.87 62.50 184.03 C 65.79 182.64 69.47 182.38 72.56 180.52 C 86.51 177.15 99.89 171.80 113.74 168.05 C 114.83 167.68 115.85 167.16 116.90 166.68 C 125.70 164.56 134.08 160.90 142.92 158.92 C 143.37 158.57 144.25 157.86 144.69 157.51 C 146.09 157.19 147.50 156.89 148.91 156.59 C 149.37 156.49 150.28 156.29 150.74 156.19 C 165.38 151.81 179.87 146.98 194.48 142.50 C 197.63 141.08 201.28 140.97 204.17 138.97 C 206.29 138.66 208.42 138.30 210.42 137.49 C 223.27 133.34 236.19 129.39 249.02 125.16 C 251.08 124.63 253.12 123.96 255.01 122.93 C 259.85 122.37 264.25 120.09 268.98 118.97 C 271.72 117.80 275.29 118.14 277.15 115.44 C 277.62 115.37 278.10 115.31 278.58 115.27 C 280.60 115.45 282.44 114.78 284.09 113.69 C 289.92 112.84 295.25 110.06 300.96 108.64 C 309.19 106.58 317.01 103.08 325.29 101.26 C 328.14 98.89 332.24 99.96 335.09 97.59 C 339.56 96.90 343.79 95.26 348.02 93.75 C 356.03 91.19 364.35 89.31 371.99 85.79 C 373.47 85.66 374.97 85.56 376.46 85.45 C 377.16 84.78 377.86 84.11 378.57 83.43 C 380.01 83.38 381.45 83.32 382.90 83.24 C 384.99 81.81 387.49 81.32 389.90 80.69 C 394.92 79.03 399.91 77.22 405.06 76.02 C 410.69 73.16 417.39 73.03 422.80 69.73 C 424.24 69.60 425.69 69.49 427.15 69.38 C 428.05 68.77 428.96 68.16 429.88 67.56 C 434.55 67.39 438.61 64.79 443.11 63.77 C 446.02 62.65 449.41 62.71 451.95 60.71 C 451.79 60.49 451.45 60.07 451.28 59.86 C 451.72 59.83 452.59 59.77 453.02 59.74 C 453.74 59.80 455.17 59.93 455.88 60.00 C 464.04 56.62 472.86 55.07 481.00 51.69 C 486.20 50.62 491.14 48.57 496.18 46.92 C 498.38 46.19 501.39 46.69 502.24 43.90 C 502.48 43.86 502.98 43.77 503.23 43.73 C 505.71 44.59 508.06 44.11 510.01 42.40 C 521.53 39.89 532.50 35.35 543.83 32.12 C 547.22 30.98 550.79 30.32 553.97 28.60 C 556.22 28.30 558.43 27.72 560.50 26.75 C 574.89 22.52 589.09 17.69 603.43 13.28 C 606.30 11.90 609.98 12.26 612.27 9.79 C 613.56 9.60 614.86 9.41 616.17 9.21 C 618.19 7.67 620.64 7.19 623.13 7.09 C 625.15 5.89 627.30 4.85 629.69 4.64 C 630.20 4.57 631.21 4.44 631.72 4.38 Z" />
</g>
<g id="#7e412f82">
<path fill="#7e412f" opacity="0.51" d=" M 606.80 10.69 C 608.61 10.33 610.43 10.04 612.27 9.79 C 609.98 12.26 606.30 11.90 603.43 13.28 C 589.09 17.69 574.89 22.52 560.50 26.75 C 558.43 27.72 556.22 28.30 553.97 28.60 C 550.79 30.32 547.22 30.98 543.83 32.12 C 532.50 35.35 521.53 39.89 510.01 42.40 C 508.06 44.11 505.71 44.59 503.23 43.73 C 517.58 38.36 532.46 34.50 546.97 29.55 C 566.91 23.24 586.88 17.04 606.80 10.69 Z" />
<path fill="#7e412f" opacity="0.51" d=" M 885.76 79.18 C 888.56 79.59 891.36 79.95 894.15 80.48 C 914.35 86.65 934.41 93.22 954.57 99.53 C 969.63 104.34 984.80 108.84 999.81 113.82 C 1002.92 114.76 1006.10 115.64 1008.82 117.50 C 1004.27 117.50 999.91 115.50 995.75 113.78 C 994.56 113.57 993.38 113.32 992.23 113.05 C 981.85 109.33 971.16 106.55 960.74 102.95 C 957.82 101.83 954.59 101.54 951.92 99.83 C 949.43 99.57 946.83 99.43 944.88 97.68 C 939.61 96.98 934.80 94.60 929.75 93.11 C 922.65 91.09 915.55 88.99 908.67 86.31 C 907.11 85.66 905.39 85.63 903.76 85.44 C 902.91 84.79 902.08 84.14 901.27 83.49 C 899.84 83.41 898.42 83.32 897.02 83.22 C 893.56 81.07 889.32 81.11 885.76 79.18 Z" />
<path fill="#7e412f" opacity="0.51" d=" M 84.79 175.56 C 103.38 169.69 121.87 163.47 140.58 158.01 C 141.61 157.88 143.66 157.64 144.69 157.51 C 144.25 157.86 143.37 158.57 142.92 158.92 C 134.08 160.90 125.70 164.56 116.90 166.68 C 115.85 167.16 114.83 167.68 113.74 168.05 C 99.89 171.80 86.51 177.15 72.56 180.52 C 69.47 182.38 65.79 182.64 62.50 184.03 C 52.96 186.87 43.64 190.57 33.89 192.59 C 34.47 190.72 36.52 190.73 38.01 190.16 C 53.68 185.56 69.10 180.12 84.79 175.56 Z" />
<path fill="#7e412f" opacity="0.51" d=" M 391.62 1238.51 L 393.50 1238.63 C 396.50 1239.38 399.28 1240.79 402.11 1242.02 C 409.01 1245.14 416.25 1247.51 422.94 1251.10 C 428.43 1252.38 433.25 1255.47 438.51 1257.41 C 447.32 1260.70 455.69 1265.18 464.70 1267.87 C 465.47 1268.71 466.24 1269.54 467.01 1270.42 C 464.74 1270.03 462.66 1269.00 460.56 1268.13 C 442.02 1260.44 423.54 1252.59 405.04 1244.81 C 400.60 1242.63 395.62 1241.53 391.62 1238.51 Z" />
</g>
<g id="#74403177">
<path fill="#744031" opacity="0.47" d=" M 676.66 11.86 C 682.49 13.48 688.27 15.28 694.02 17.20 C 760.73 38.31 827.50 59.20 894.15 80.48 C 891.36 79.95 888.56 79.59 885.76 79.18 C 882.00 78.39 878.51 76.69 874.72 76.04 C 869.15 73.11 862.59 72.76 857.00 69.87 C 854.52 69.64 852.11 69.03 849.99 67.69 C 843.39 66.77 837.50 63.08 830.87 62.26 C 828.82 60.83 826.42 60.21 823.95 60.06 C 820.48 58.12 816.52 57.48 812.78 56.25 C 809.16 55.23 805.70 53.68 801.99 53.02 C 796.23 50.33 789.75 49.63 784.04 46.84 C 781.52 46.63 779.04 46.04 777.02 44.46 C 775.57 44.35 774.14 44.26 772.71 44.15 C 771.76 43.53 770.87 42.82 769.85 42.36 C 758.27 39.70 747.22 35.22 735.82 31.96 C 732.61 30.67 729.15 30.15 726.06 28.59 C 722.11 28.32 718.86 25.83 714.97 25.34 C 706.49 22.60 697.81 20.36 689.56 17.03 C 686.03 15.34 682.22 14.38 678.43 13.51 C 677.98 13.10 677.10 12.27 676.66 11.86 Z" />
<path fill="#744031" opacity="0.47" d=" M 471.22 53.44 C 481.61 50.42 491.74 46.52 502.24 43.90 C 501.39 46.69 498.38 46.19 496.18 46.92 C 491.14 48.57 486.20 50.62 481.00 51.69 C 472.86 55.07 464.04 56.62 455.88 60.00 C 455.17 59.93 453.74 59.80 453.02 59.74 C 458.81 56.89 465.09 55.33 471.22 53.44 Z" />
<path fill="#744031" opacity="0.47" d=" M 417.98 70.24 C 429.10 66.86 440.07 62.96 451.28 59.86 C 451.45 60.07 451.79 60.49 451.95 60.71 C 449.41 62.71 446.02 62.65 443.11 63.77 C 438.61 64.79 434.55 67.39 429.88 67.56 C 428.96 68.16 428.05 68.77 427.15 69.38 C 425.69 69.49 424.24 69.60 422.80 69.73 C 417.39 73.03 410.69 73.16 405.06 76.02 C 399.91 77.22 394.92 79.03 389.90 80.69 C 387.49 81.32 384.99 81.81 382.90 83.24 C 381.45 83.32 380.01 83.38 378.57 83.43 C 377.86 84.11 377.16 84.78 376.46 85.45 C 374.97 85.56 373.47 85.66 371.99 85.79 C 364.35 89.31 356.03 91.19 348.02 93.75 C 343.79 95.26 339.56 96.90 335.09 97.59 C 332.24 99.96 328.14 98.89 325.29 101.26 C 317.01 103.08 309.19 106.58 300.96 108.64 C 295.25 110.06 289.92 112.84 284.09 113.69 C 282.44 114.78 280.60 115.45 278.58 115.27 C 279.70 114.34 280.93 113.58 282.25 112.99 C 327.55 98.93 372.71 84.43 417.98 70.24 Z" />
<path fill="#744031" opacity="0.47" d=" M 1224.91 1096.04 C 1229.53 1094.06 1234.02 1091.43 1239.05 1090.63 C 1237.42 1092.02 1235.60 1093.17 1233.60 1093.91 C 1205.45 1105.53 1177.47 1117.53 1149.39 1129.30 C 1146.36 1130.66 1143.29 1132.08 1139.95 1132.46 C 1141.18 1131.63 1142.37 1130.73 1143.71 1130.07 C 1161.20 1123.04 1178.42 1115.27 1195.90 1108.20 C 1205.48 1103.96 1215.20 1100.00 1224.91 1096.04 Z" />
<path fill="#744031" opacity="0.47" d=" M 1120.63 1139.83 C 1127.02 1137.46 1133.00 1133.83 1139.74 1132.50 C 1135.75 1136.01 1130.29 1136.96 1125.59 1139.19 C 1108.83 1146.55 1091.83 1153.36 1075.02 1160.59 C 1071.42 1161.99 1068.03 1164.14 1064.11 1164.50 C 1067.72 1161.20 1072.70 1160.27 1076.99 1158.16 C 1091.61 1152.22 1106.07 1145.92 1120.63 1139.83 Z" />
<path fill="#744031" opacity="0.47" d=" M 199.29 1157.46 C 199.90 1157.52 201.12 1157.63 201.73 1157.68 C 216.29 1163.81 230.73 1170.26 245.49 1175.90 C 246.25 1176.40 247.01 1176.92 247.77 1177.46 C 252.42 1178.49 256.48 1181.10 260.95 1182.68 C 265.76 1184.66 270.68 1186.45 275.31 1188.86 C 286.71 1193.19 297.76 1198.38 309.06 1202.96 C 317.26 1206.04 325.05 1210.19 333.40 1212.85 C 333.80 1213.21 334.59 1213.93 334.98 1214.28 C 339.64 1215.09 343.65 1217.71 348.01 1219.37 C 356.54 1222.70 364.83 1226.62 373.35 1229.98 C 378.32 1231.85 382.97 1234.56 388.15 1235.83 C 388.59 1236.37 389.45 1237.45 389.89 1237.99 C 388.23 1237.48 386.58 1237.01 384.96 1236.42 C 326.03 1211.65 267.15 1186.78 208.21 1162.04 C 205.12 1160.75 201.86 1159.69 199.29 1157.46 Z" />
<path fill="#744031" opacity="0.47" d=" M 1051.07 1169.19 C 1055.23 1167.52 1059.18 1164.98 1063.74 1164.56 C 1060.65 1167.14 1056.72 1168.25 1053.08 1169.80 C 1038.99 1175.74 1024.90 1181.65 1010.83 1187.64 L 1010.99 1186.46 C 1012.78 1184.51 1015.55 1184.14 1017.88 1183.13 C 1028.95 1178.49 1039.96 1173.73 1051.07 1169.19 Z" />
<path fill="#744031" opacity="0.47" d=" M 918.71 1224.72 C 948.15 1212.67 977.33 1199.96 1006.76 1187.89 L 1008.04 1187.65 C 1007.44 1188.38 1006.94 1189.27 1006.03 1189.67 C 984.36 1198.73 962.70 1207.85 941.05 1216.97 C 933.24 1219.96 925.80 1223.95 917.83 1226.47 C 918.05 1226.03 918.49 1225.15 918.71 1224.72 Z" />
<path fill="#744031" opacity="0.47" d=" M 910.00 1228.52 C 912.12 1227.57 914.28 1226.56 916.66 1226.60 C 914.21 1228.75 911.10 1229.73 908.10 1230.82 C 882.04 1241.72 856.10 1252.89 829.99 1263.67 C 825.51 1265.46 821.23 1267.94 816.41 1268.70 C 816.06 1268.43 815.37 1267.90 815.03 1267.64 C 816.27 1267.36 817.53 1267.14 818.78 1266.83 C 849.25 1254.21 879.56 1241.23 910.00 1228.52 Z" />
<path fill="#744031" opacity="0.47" d=" M 467.33 1270.46 C 468.78 1270.58 470.33 1270.58 471.69 1271.23 C 479.87 1275.05 488.34 1278.21 496.57 1281.93 C 499.55 1283.34 503.29 1283.56 505.37 1286.45 C 499.23 1285.19 493.77 1281.95 487.95 1279.79 C 481.10 1276.64 473.72 1274.49 467.33 1270.46 Z" />
<path fill="#744031" opacity="0.47" d=" M 804.06 1273.15 C 806.92 1271.78 809.81 1270.25 813.08 1270.14 C 811.46 1271.20 809.81 1272.22 808.12 1273.15 C 806.42 1272.64 804.11 1273.05 803.88 1275.15 C 798.89 1276.15 794.54 1278.99 789.76 1280.63 C 760.40 1292.95 731.12 1305.47 701.69 1317.61 C 697.21 1319.74 692.66 1321.82 687.84 1323.06 C 688.74 1321.98 689.82 1321.15 691.07 1320.58 C 728.81 1304.94 766.34 1288.82 804.06 1273.15 Z" />
<path fill="#744031" opacity="0.47" d=" M 522.15 1293.48 C 527.73 1294.36 532.90 1296.99 537.90 1299.53 C 538.51 1299.63 539.73 1299.82 540.34 1299.92 C 544.65 1302.51 549.61 1303.73 553.94 1306.27 C 556.70 1307.04 559.37 1308.09 561.95 1309.34 C 577.61 1316.01 593.36 1322.49 608.99 1329.23 C 615.39 1331.77 621.67 1334.60 628.08 1337.13 C 628.42 1337.51 629.08 1338.28 629.42 1338.66 C 626.47 1338.07 623.64 1337.08 620.95 1335.78 C 591.93 1323.51 562.90 1311.28 533.85 1299.08 C 529.88 1297.35 525.58 1296.24 522.15 1293.48 Z" />
<path fill="#744031" opacity="0.47" d=" M 661.11 1333.23 C 668.99 1330.32 676.46 1326.37 684.43 1323.70 L 685.75 1323.46 C 685.40 1323.91 684.71 1324.81 684.36 1325.26 C 670.48 1330.35 657.21 1337.08 643.26 1341.93 C 641.38 1342.41 638.70 1341.78 637.84 1344.00 L 637.43 1344.00 C 635.86 1341.50 632.88 1340.79 630.50 1339.35 C 633.83 1338.69 636.40 1341.54 639.67 1341.51 C 640.51 1341.46 642.18 1341.36 643.02 1341.31 C 648.74 1337.97 655.14 1336.08 661.11 1333.23 Z" />
</g>
<g id="#8a44308e">
<path fill="#8a4430" opacity="0.56" d=" M 262.00 119.61 C 267.06 118.26 271.91 116.06 277.15 115.44 C 275.29 118.14 271.72 117.80 268.98 118.97 C 264.25 120.09 259.85 122.37 255.01 122.93 C 253.12 123.96 251.08 124.63 249.02 125.16 C 236.19 129.39 223.27 133.34 210.42 137.49 C 208.42 138.30 206.29 138.66 204.17 138.97 C 201.28 140.97 197.63 141.08 194.48 142.50 C 179.87 146.98 165.38 151.81 150.74 156.19 C 150.28 156.29 149.37 156.49 148.91 156.59 C 150.01 155.78 151.06 154.92 152.16 154.12 C 181.01 145.43 209.63 135.97 238.43 127.11 C 242.65 125.93 246.61 123.89 250.98 123.23 C 254.41 121.35 258.39 121.03 262.00 119.61 Z" />
</g>
<g id="#8f4a3894">
<path fill="#8f4a38" opacity="0.58" d=" M 1009.74 117.53 C 1015.44 118.15 1020.55 121.15 1026.24 121.84 C 1029.85 124.00 1034.17 124.34 1038.02 125.95 C 1103.65 146.73 1169.32 167.35 1234.94 188.14 C 1236.93 188.45 1238.92 188.95 1240.26 190.61 L 1238.60 190.33 C 1231.50 189.16 1224.87 186.27 1217.99 184.30 C 1214.42 182.82 1210.50 182.36 1207.09 180.52 C 1205.01 180.12 1202.96 179.66 1200.99 178.96 C 1159.92 166.05 1118.92 152.92 1077.84 140.11 C 1077.32 139.83 1076.27 139.28 1075.75 139.00 C 1068.86 137.84 1062.38 135.10 1055.73 133.08 C 1041.21 128.56 1026.83 123.54 1012.15 119.58 C 1011.24 119.01 1010.44 118.33 1009.74 117.53 Z" />
<path fill="#8f4a38" opacity="0.58" d=" M 1.77 202.57 C 5.45 200.02 9.83 199.15 14.14 198.27 C 12.13 201.76 7.24 200.41 4.28 202.77 C 4.00 202.90 3.42 203.16 3.13 203.30 C 3.05 493.45 3.19 783.60 3.06 1073.76 C 11.63 1077.87 20.64 1080.99 29.19 1085.13 C 40.15 1089.07 50.63 1094.25 61.47 1098.51 C 96.71 1113.29 131.84 1128.29 167.12 1142.97 C 177.05 1147.15 186.86 1151.67 197.00 1155.31 C 197.76 1155.95 198.47 1156.65 199.12 1157.44 C 190.97 1155.24 183.48 1151.18 175.62 1148.14 C 162.70 1142.71 149.83 1137.16 136.87 1131.82 C 129.65 1129.21 122.91 1125.36 115.55 1123.13 C 114.86 1122.68 114.18 1122.24 113.50 1121.82 C 100.94 1117.12 88.85 1111.24 76.34 1106.41 C 51.69 1095.82 26.83 1085.70 2.22 1075.01 C 1.44 1069.03 1.86 1063.01 1.77 1057.01 C 1.77 772.20 1.78 487.38 1.77 202.57 Z" />
</g>
<g id="#47231849">
<path fill="#472318" opacity="0.29" d=" M 140.58 158.01 C 144.18 156.01 148.17 154.99 152.16 154.12 C 151.06 154.92 150.01 155.78 148.91 156.59 C 147.50 156.89 146.09 157.19 144.69 157.51 C 143.66 157.64 141.61 157.88 140.58 158.01 Z" />
</g>
<g id="#71403893">
<path fill="#714038" opacity="0.58" d=" M 1273.05 200.46 C 1274.98 200.54 1276.60 201.66 1278.29 202.49 C 1278.19 428.98 1278.28 655.48 1278.25 881.97 C 1278.19 946.22 1278.37 1010.46 1278.16 1074.71 C 1269.56 1078.97 1260.50 1082.19 1251.76 1086.14 C 1247.81 1087.62 1244.09 1089.89 1239.86 1090.48 C 1242.58 1087.60 1246.56 1086.73 1250.06 1085.16 C 1257.96 1081.84 1265.94 1078.69 1273.75 1075.15 C 1274.52 1074.80 1276.07 1074.11 1276.85 1073.76 C 1276.94 794.49 1276.86 515.23 1276.89 235.96 C 1276.75 225.17 1277.16 214.37 1276.69 203.60 L 1275.88 202.92 C 1274.91 202.12 1273.96 201.29 1273.05 200.46 Z" />
</g>
<g id="#11111112">
<path fill="#111111" opacity="0.07" d=" M 0.00 203.17 C 0.44 203.02 1.33 202.72 1.77 202.57 C 1.78 487.38 1.77 772.20 1.77 1057.01 C 1.86 1063.01 1.44 1069.03 2.22 1075.01 C 1.66 1074.95 0.55 1074.85 0.00 1074.80 L 0.00 203.17 Z" />
<path fill="#111111" opacity="0.07" d=" M 1278.29 202.49 C 1278.72 202.69 1279.57 203.10 1280.00 203.31 L 1280.00 1074.85 C 1279.54 1074.81 1278.62 1074.74 1278.16 1074.71 C 1278.37 1010.46 1278.19 946.22 1278.25 881.97 C 1278.28 655.48 1278.19 428.98 1278.29 202.49 Z" />
</g>
<g id="#dd2c00ff">
<path fill="#dd2c00" opacity="1.00" d=" M 3.13 203.30 C 3.42 203.16 4.00 202.90 4.28 202.77 C 15.88 207.17 27.92 210.23 39.61 214.37 C 60.45 220.71 81.17 227.45 101.96 233.97 C 106.35 235.04 110.57 236.66 114.82 238.14 C 128.83 242.28 142.73 246.78 156.63 251.29 C 161.25 252.61 165.91 253.81 170.36 255.65 C 174.61 257.40 179.19 258.03 183.54 259.48 C 199.48 265.20 215.85 269.64 231.90 275.06 C 238.38 276.56 244.57 278.98 250.84 281.18 C 264.64 285.07 278.25 289.65 291.90 294.05 C 296.85 295.13 301.64 296.77 306.38 298.54 C 316.90 301.71 327.29 305.30 337.86 308.30 C 342.29 309.55 346.35 311.87 350.84 312.95 C 358.96 314.78 366.43 318.65 374.58 320.40 C 383.88 323.75 393.67 325.51 402.90 329.08 C 408.66 331.19 414.80 332.07 420.46 334.52 C 443.85 341.82 467.10 349.66 490.64 356.48 C 499.99 360.67 510.05 362.78 519.65 366.27 C 524.26 367.83 529.16 368.41 533.69 370.24 C 565.13 380.15 596.56 390.10 628.01 400.01 C 632.13 401.28 636.16 403.13 640.54 403.29 C 639.35 407.44 640.07 411.75 640.02 415.99 C 639.95 703.99 640.12 992.00 640.11 1280.04 C 640.01 1300.54 640.22 1321.03 639.67 1341.51 C 636.40 1341.54 633.83 1338.69 630.50 1339.35 C 630.23 1339.17 629.69 1338.83 629.42 1338.66 C 629.08 1338.28 628.42 1337.51 628.08 1337.13 C 621.67 1334.60 615.39 1331.77 608.99 1329.23 C 593.36 1322.49 577.61 1316.01 561.95 1309.34 C 559.37 1308.09 556.70 1307.04 553.94 1306.27 C 549.61 1303.73 544.65 1302.51 540.34 1299.92 C 539.73 1299.82 538.51 1299.63 537.90 1299.53 C 532.90 1296.99 527.73 1294.36 522.15 1293.48 C 521.84 1293.36 521.22 1293.13 520.91 1293.01 C 518.65 1291.89 516.34 1290.87 513.92 1290.17 C 512.56 1288.50 510.38 1288.49 508.42 1288.29 C 508.46 1287.90 508.56 1287.12 508.61 1286.74 C 507.52 1286.65 506.43 1286.54 505.37 1286.45 C 503.29 1283.56 499.55 1283.34 496.57 1281.93 C 488.34 1278.21 479.87 1275.05 471.69 1271.23 C 470.33 1270.58 468.78 1270.58 467.33 1270.46 L 467.01 1270.42 C 466.24 1269.54 465.47 1268.71 464.70 1267.87 C 455.69 1265.18 447.32 1260.70 438.51 1257.41 C 433.25 1255.47 428.43 1252.38 422.94 1251.10 C 416.25 1247.51 409.01 1245.14 402.11 1242.02 C 399.28 1240.79 396.50 1239.38 393.50 1238.63 L 391.62 1238.51 C 391.03 1238.32 390.46 1238.14 389.89 1237.99 C 389.45 1237.45 388.59 1236.37 388.15 1235.83 C 382.97 1234.56 378.32 1231.85 373.35 1229.98 C 364.83 1226.62 356.54 1222.70 348.01 1219.37 C 343.65 1217.71 339.64 1215.09 334.98 1214.28 C 334.59 1213.93 333.80 1213.21 333.40 1212.85 C 325.05 1210.19 317.26 1206.04 309.06 1202.96 C 297.76 1198.38 286.71 1193.19 275.31 1188.86 C 270.68 1186.45 265.76 1184.66 260.95 1182.68 C 256.48 1181.10 252.42 1178.49 247.77 1177.46 C 247.01 1176.92 246.25 1176.40 245.49 1175.90 C 230.73 1170.26 216.29 1163.81 201.73 1157.68 C 201.12 1157.63 199.90 1157.52 199.29 1157.46 L 199.12 1157.44 C 198.47 1156.65 197.76 1155.95 197.00 1155.31 C 186.86 1151.67 177.05 1147.15 167.12 1142.97 C 131.84 1128.29 96.71 1113.29 61.47 1098.51 C 50.63 1094.25 40.15 1089.07 29.19 1085.13 C 20.64 1080.99 11.63 1077.87 3.06 1073.76 C 3.19 783.60 3.05 493.45 3.13 203.30 M 246.00 475.14 C 238.08 477.48 230.53 481.10 223.73 485.79 C 217.05 490.28 211.54 496.21 206.04 502.03 C 195.05 515.13 188.78 531.55 185.14 548.10 C 183.67 553.25 184.13 558.76 182.81 563.95 C 182.08 574.96 182.05 586.05 182.79 597.06 C 184.25 603.43 183.71 610.17 185.39 616.54 C 186.39 620.31 186.70 624.27 188.16 627.93 C 189.42 634.23 191.69 640.26 193.81 646.31 C 200.58 664.06 209.42 681.07 220.55 696.49 C 227.36 707.09 236.12 716.21 244.03 725.95 C 255.40 737.60 266.75 749.38 279.58 759.46 C 298.73 776.85 320.51 790.97 340.10 807.85 C 348.63 814.23 356.23 821.73 363.87 829.13 C 370.17 835.91 376.90 842.40 381.91 850.25 C 389.26 859.90 394.51 871.12 397.15 882.95 C 398.54 889.19 399.71 895.53 399.75 901.95 C 399.97 911.36 400.21 920.88 398.24 930.15 L 397.72 930.81 C 397.59 931.37 397.32 932.47 397.18 933.02 C 394.96 940.32 391.27 947.37 385.60 952.58 C 381.54 956.59 376.22 958.99 370.90 960.85 C 369.70 961.23 368.48 961.48 367.24 961.58 C 367.09 961.01 366.80 959.87 366.65 959.30 C 361.23 959.15 355.76 959.01 350.35 959.38 C 349.92 959.92 349.06 960.99 348.64 961.53 C 347.95 961.48 346.59 961.36 345.91 961.31 C 327.93 957.18 310.41 950.35 295.04 940.04 C 273.64 926.82 257.20 906.19 248.20 882.77 C 246.96 880.24 245.98 877.59 245.18 874.90 C 243.02 868.03 241.56 860.97 240.12 853.93 C 239.03 849.68 239.71 845.24 239.04 840.95 C 238.46 836.96 238.70 832.92 238.38 828.93 C 230.59 826.26 222.77 823.62 215.06 820.73 C 205.93 817.76 197.03 814.16 187.91 811.16 C 182.00 809.26 176.33 806.59 170.29 805.11 C 170.43 812.74 170.19 820.39 170.85 828.01 C 171.66 830.92 171.42 834.00 172.08 836.95 C 172.14 837.51 172.26 838.63 172.32 839.20 C 171.80 838.70 170.77 837.69 170.25 837.19 C 168.99 840.69 169.13 844.53 170.29 848.05 C 171.17 845.98 172.00 843.86 172.54 841.68 C 174.09 847.34 174.70 853.22 176.18 858.88 C 182.92 886.49 194.95 912.73 210.69 936.35 C 214.01 941.86 218.45 946.57 221.99 951.93 C 251.15 988.43 290.34 1017.49 334.88 1032.17 C 343.47 1034.87 352.13 1037.47 361.06 1038.86 C 363.94 1039.79 367.00 1040.01 370.00 1040.30 C 380.35 1040.85 390.73 1040.80 401.08 1040.18 C 402.73 1039.82 404.40 1039.53 406.07 1039.23 C 419.67 1035.93 433.27 1030.34 443.13 1020.08 C 453.63 1010.40 460.47 997.46 465.20 984.15 C 465.49 983.11 465.81 982.08 466.18 981.08 C 466.85 978.42 467.43 975.74 468.21 973.12 C 470.30 963.57 471.55 953.76 471.92 943.98 C 473.01 933.64 471.80 923.27 471.20 912.95 C 470.08 910.11 470.65 906.97 469.89 904.06 C 469.48 901.08 469.79 897.99 468.87 895.10 C 467.00 888.14 466.18 880.90 463.81 874.08 C 463.03 871.32 462.33 868.53 461.20 865.90 C 451.57 835.94 433.99 809.10 413.47 785.48 C 396.08 766.19 377.03 748.35 356.42 732.55 C 343.57 721.96 329.71 712.69 316.64 702.39 C 302.89 690.53 288.65 679.01 277.07 664.92 C 268.41 655.67 261.70 644.78 256.74 633.14 C 255.62 630.49 254.85 627.71 253.85 625.02 C 253.04 619.67 251.10 614.47 251.27 609.00 C 251.24 601.97 251.06 594.92 251.80 587.92 C 253.46 579.76 255.37 571.34 260.20 564.38 C 265.38 556.49 273.67 550.76 282.93 548.82 C 283.94 548.46 284.94 548.10 285.95 547.73 C 292.28 547.40 298.63 547.36 304.95 547.77 C 306.59 548.29 308.25 548.72 309.91 549.19 C 331.92 553.47 353.23 563.88 368.55 580.51 C 373.74 585.68 378.35 591.47 382.03 597.81 C 389.20 609.89 394.70 623.10 397.18 636.95 C 398.76 647.00 400.47 657.06 400.43 667.28 C 401.05 667.50 402.28 667.95 402.90 668.17 C 411.56 671.27 420.26 674.24 429.07 676.87 C 434.04 678.62 438.97 680.54 444.11 681.79 C 447.99 683.43 452.02 684.71 456.08 685.85 C 457.35 686.26 458.63 686.68 459.89 687.15 C 461.87 687.87 463.87 688.53 465.87 689.24 C 467.73 689.93 469.63 690.48 471.62 690.77 C 472.05 684.81 471.44 678.84 471.23 672.89 C 469.99 669.76 470.81 666.28 469.86 663.08 C 469.63 660.32 469.52 657.56 469.26 654.82 C 466.93 647.03 466.33 638.77 463.71 631.10 C 463.58 630.56 463.33 629.47 463.21 628.93 C 462.59 626.89 461.95 624.87 461.26 622.87 C 448.84 583.03 425.89 546.19 394.35 518.72 C 376.53 502.66 355.55 490.28 333.14 481.84 C 328.54 479.81 323.60 478.83 318.89 477.15 C 313.05 475.18 306.93 474.31 301.00 472.81 C 289.44 470.89 277.69 470.95 266.03 471.37 C 259.28 472.11 252.45 472.97 246.00 475.14 Z" />
</g>
<g id="#a52005ff">
<path fill="#a52005" opacity="1.00" d=" M 1178.00 233.98 C 1210.18 223.38 1242.72 213.96 1274.88 203.29 C 1274.11 208.17 1274.85 213.11 1274.76 218.02 C 1274.75 498.35 1274.74 778.68 1274.77 1059.01 C 1275.26 1064.44 1273.98 1069.76 1273.75 1075.15 C 1265.94 1078.69 1257.96 1081.84 1250.06 1085.16 C 1246.56 1086.73 1242.58 1087.60 1239.86 1090.48 C 1239.65 1090.52 1239.25 1090.59 1239.05 1090.63 C 1234.02 1091.43 1229.53 1094.06 1224.91 1096.04 C 1215.20 1100.00 1205.48 1103.96 1195.90 1108.20 C 1178.42 1115.27 1161.20 1123.04 1143.71 1130.07 C 1142.37 1130.73 1141.18 1131.63 1139.95 1132.46 L 1139.74 1132.50 C 1133.00 1133.83 1127.02 1137.46 1120.63 1139.83 C 1106.07 1145.92 1091.61 1152.22 1076.99 1158.16 C 1072.70 1160.27 1067.72 1161.20 1064.11 1164.50 L 1063.74 1164.56 C 1059.18 1164.98 1055.23 1167.52 1051.07 1169.19 C 1039.96 1173.73 1028.95 1178.49 1017.88 1183.13 C 1015.55 1184.14 1012.78 1184.51 1010.99 1186.46 C 1010.77 1186.65 1010.33 1187.04 1010.11 1187.23 C 1009.59 1187.33 1008.56 1187.55 1008.04 1187.65 L 1006.76 1187.89 C 977.33 1199.96 948.15 1212.67 918.71 1224.72 C 918.49 1225.15 918.05 1226.03 917.83 1226.47 C 917.54 1226.50 916.95 1226.56 916.66 1226.60 C 914.28 1226.56 912.12 1227.57 910.00 1228.52 C 879.56 1241.23 849.25 1254.21 818.78 1266.83 C 817.53 1267.14 816.27 1267.36 815.03 1267.64 L 814.23 1267.66 C 813.98 1268.26 813.48 1269.45 813.22 1270.05 L 813.08 1270.14 C 809.81 1270.25 806.92 1271.78 804.06 1273.15 C 766.34 1288.82 728.81 1304.94 691.07 1320.58 C 689.82 1321.15 688.74 1321.98 687.84 1323.06 C 687.14 1323.18 686.44 1323.32 685.75 1323.46 L 684.43 1323.70 C 676.46 1326.37 668.99 1330.32 661.11 1333.23 C 655.14 1336.08 648.74 1337.97 643.02 1341.31 C 642.18 1341.36 640.51 1341.46 639.67 1341.51 C 640.22 1321.03 640.01 1300.54 640.11 1280.04 C 640.12 992.00 639.95 703.99 640.02 415.99 C 640.07 411.75 639.35 407.44 640.54 403.29 C 642.20 402.97 643.86 402.61 645.50 402.14 C 664.48 396.08 683.50 390.16 702.50 384.15 C 713.48 380.27 724.81 377.51 735.76 373.54 C 759.95 365.92 784.21 358.46 808.31 350.57 C 813.33 349.26 818.30 347.80 823.18 346.03 C 831.56 343.02 840.29 341.10 848.58 337.81 C 859.25 334.42 870.07 331.47 880.64 327.74 C 886.52 325.70 892.64 324.42 898.50 322.29 C 906.68 319.37 915.17 317.42 923.28 314.28 C 935.00 311.16 946.32 306.77 957.99 303.49 C 971.07 299.02 984.48 295.56 997.48 290.85 C 1057.73 272.13 1117.86 253.00 1178.00 233.98 M 1161.21 409.17 C 1159.11 409.65 1157.05 410.32 1155.12 411.27 C 1154.56 411.38 1153.44 411.59 1152.87 411.70 C 1149.80 413.34 1146.37 414.04 1143.14 415.23 C 1140.52 416.39 1137.75 417.13 1135.10 418.18 C 1130.46 419.93 1125.62 421.15 1121.08 423.14 C 1119.57 423.60 1118.09 424.08 1116.62 424.57 C 1115.73 427.29 1115.56 430.18 1114.77 432.93 C 1114.45 438.33 1113.89 443.70 1113.22 449.07 C 1112.56 451.00 1112.37 453.04 1112.15 455.06 C 1111.34 457.98 1111.48 461.04 1111.16 464.04 C 1109.53 471.92 1109.46 480.05 1107.86 487.95 C 1107.55 492.46 1106.45 496.88 1106.35 501.42 L 1105.61 501.59 C 1105.25 507.69 1105.00 513.91 1103.81 519.88 C 1103.54 521.29 1103.36 522.72 1102.81 524.06 C 1102.54 529.99 1101.74 535.89 1100.77 541.75 C 1100.51 544.19 1100.40 546.63 1100.18 549.08 C 1099.24 551.61 1099.75 554.41 1098.80 556.94 C 1098.70 561.48 1097.55 565.91 1097.36 570.44 L 1096.61 570.58 C 1096.53 576.41 1095.41 582.16 1095.21 587.98 C 1094.44 590.24 1094.41 592.64 1093.87 594.95 C 1093.44 600.67 1092.25 606.28 1091.59 611.98 C 1091.20 616.64 1090.78 621.33 1089.83 625.92 C 1088.96 636.02 1086.66 645.93 1086.20 656.07 C 1085.31 658.62 1085.74 661.40 1084.84 663.95 C 1083.89 674.02 1081.82 683.95 1081.20 694.06 C 1079.81 699.23 1080.24 704.75 1078.80 709.94 C 1078.56 711.63 1078.39 713.35 1078.17 715.06 C 1077.11 720.96 1077.20 727.05 1075.87 732.94 C 1075.26 737.32 1074.70 741.70 1074.26 746.11 C 1072.91 751.58 1072.78 757.40 1072.16 763.03 C 1071.00 767.95 1070.74 773.05 1070.21 778.07 C 1069.55 780.00 1069.42 782.04 1069.21 784.06 C 1067.72 789.88 1068.44 796.11 1066.85 801.93 C 1066.07 806.61 1065.44 811.30 1065.20 816.04 C 1063.39 823.29 1063.04 830.80 1062.26 838.21 C 1061.52 840.12 1061.37 842.18 1061.23 844.21 C 1060.84 844.30 1060.05 844.47 1059.66 844.55 C 1059.44 841.93 1059.16 839.32 1058.92 836.71 C 1059.49 837.43 1060.07 838.16 1060.66 838.90 C 1062.02 830.98 1062.45 822.88 1061.62 814.88 C 1059.47 816.95 1059.91 820.20 1059.44 822.91 C 1059.13 821.24 1058.80 819.58 1058.48 817.94 C 1058.26 821.94 1058.33 825.95 1058.33 829.97 C 1057.79 828.32 1057.26 826.70 1056.75 825.08 C 1056.61 823.03 1056.42 820.99 1056.23 818.97 C 1055.71 817.33 1055.29 815.70 1054.82 814.08 C 1054.59 812.01 1054.39 809.96 1054.21 807.91 C 1051.14 796.74 1050.35 785.12 1047.58 773.91 C 1045.57 761.61 1043.39 749.37 1040.90 737.16 C 1040.44 733.41 1040.26 729.60 1038.79 726.07 C 1038.41 722.70 1037.74 719.38 1037.26 716.04 C 1036.53 714.04 1036.35 711.92 1036.24 709.83 L 1035.77 709.12 C 1035.61 707.08 1035.68 704.98 1034.86 703.08 C 1033.80 698.64 1033.29 694.11 1032.34 689.65 C 1031.16 685.17 1031.42 680.43 1029.84 676.05 C 1029.55 674.37 1029.22 672.70 1028.83 671.06 C 1028.55 668.78 1028.46 666.46 1027.73 664.27 C 1026.94 660.87 1026.55 657.41 1026.22 653.94 C 1024.50 649.10 1024.25 643.92 1023.14 638.93 C 1022.00 634.49 1022.09 629.80 1020.67 625.41 C 1018.44 613.26 1016.44 601.07 1014.19 588.92 C 1012.72 584.78 1013.26 580.24 1011.85 576.10 C 1010.46 571.15 1010.22 565.97 1008.86 561.01 C 1008.23 557.03 1007.92 552.98 1006.81 549.10 C 1006.58 547.37 1006.41 545.65 1006.22 543.93 C 1005.69 541.99 1005.28 540.04 1004.79 538.11 C 1003.74 534.17 1004.01 529.97 1002.82 526.10 C 1001.76 521.40 1000.88 516.66 1000.19 511.90 C 999.60 509.65 999.29 507.35 998.89 505.08 C 997.67 498.05 996.72 490.96 994.83 484.07 C 994.54 480.34 994.28 476.54 992.74 473.08 C 992.56 471.48 992.44 469.89 992.33 468.29 C 990.84 468.36 989.33 468.41 987.98 469.05 C 982.55 470.94 977.25 473.19 971.71 474.72 C 962.69 478.20 953.51 481.23 944.35 484.29 C 942.04 485.20 939.02 485.36 937.93 487.95 C 935.99 498.24 935.29 508.75 932.78 518.93 C 932.60 522.69 932.03 526.43 931.15 530.10 C 929.88 534.30 930.13 538.78 929.26 543.07 C 928.61 544.99 928.28 547.00 927.86 548.98 C 926.20 561.05 924.36 573.11 922.16 585.10 C 920.68 589.60 921.19 594.48 919.87 599.00 C 919.30 602.70 918.64 606.38 918.19 610.10 C 917.64 612.35 917.31 614.64 916.80 616.90 C 915.97 624.69 914.45 632.38 913.19 640.11 C 912.56 642.33 912.32 644.63 911.85 646.89 C 911.56 651.29 910.85 655.64 909.84 659.93 C 909.60 661.94 909.31 663.94 908.83 665.92 C 907.30 675.64 905.73 685.36 904.17 695.08 C 902.07 705.62 900.97 716.37 898.83 726.90 C 898.49 728.56 898.23 730.25 897.90 731.92 C 897.68 733.96 897.51 736.03 897.23 738.08 C 895.69 743.64 895.56 749.48 894.12 755.07 C 892.58 767.78 889.66 780.34 888.16 793.07 C 887.19 797.01 886.59 801.03 886.15 805.07 C 885.74 806.71 885.48 808.40 885.22 810.09 C 883.78 814.61 884.21 819.52 882.99 824.12 C 881.40 829.95 881.49 836.09 879.78 841.89 C 879.26 848.62 877.71 855.20 876.89 861.89 C 875.43 867.49 874.77 873.23 874.17 878.97 C 872.42 886.56 871.57 894.33 869.79 901.92 C 869.58 904.11 869.45 906.32 869.41 908.54 L 868.45 908.51 C 867.93 903.24 870.06 897.77 867.88 892.71 C 867.37 893.89 866.89 895.09 866.44 896.31 C 866.12 896.40 865.48 896.60 865.16 896.69 C 865.17 901.73 865.44 906.77 865.27 911.82 C 864.80 910.21 864.29 908.63 863.76 907.07 C 863.56 904.36 863.43 901.65 863.15 898.96 C 862.42 896.71 862.83 894.21 861.77 892.09 C 860.37 881.38 858.96 870.66 856.77 860.09 C 856.48 857.39 856.36 854.67 856.20 851.97 C 855.01 848.09 854.58 844.05 853.81 840.10 C 853.47 837.60 853.36 835.10 853.43 832.60 C 853.19 832.59 852.73 832.57 852.49 832.57 C 852.52 828.30 851.51 824.13 851.27 819.89 C 848.29 806.80 847.41 793.27 844.84 780.08 C 844.58 778.02 844.39 775.97 844.12 773.94 C 843.56 771.67 843.34 769.33 842.80 767.07 C 842.57 764.69 842.47 762.32 842.25 759.95 C 840.35 752.98 839.97 745.71 838.57 738.63 C 837.75 734.48 838.16 730.09 836.81 726.08 C 835.69 719.60 835.02 713.05 833.72 706.61 C 833.32 702.40 833.16 698.12 831.78 694.09 C 831.54 692.37 831.34 690.64 831.13 688.93 C 830.46 685.84 830.44 682.65 829.71 679.57 C 828.49 673.76 828.80 667.75 827.09 662.04 C 826.05 657.38 826.13 652.53 824.84 647.93 C 824.51 645.62 824.34 643.30 824.09 641.00 C 822.89 634.38 822.20 627.66 820.81 621.08 C 820.56 619.07 820.29 617.05 819.82 615.09 C 819.83 608.60 818.06 602.38 816.85 596.06 C 816.65 593.68 816.54 591.30 816.27 588.94 C 815.14 586.79 815.47 584.26 815.10 581.95 C 814.61 579.64 814.45 577.28 814.20 574.95 C 813.49 572.69 813.40 570.32 812.84 568.04 C 812.56 566.02 812.37 563.99 812.17 561.96 C 811.53 559.00 810.74 556.05 810.54 553.02 C 810.16 545.95 808.27 539.09 807.47 532.08 C 802.45 533.09 797.87 535.54 792.96 536.94 C 779.53 541.45 766.21 546.23 752.81 550.82 C 750.61 551.72 748.33 552.41 746.10 553.20 C 744.50 553.77 742.91 554.33 741.29 554.81 C 741.23 557.25 741.41 559.68 741.78 562.10 C 743.19 567.67 743.62 573.44 744.86 579.05 C 745.55 580.61 745.61 582.32 745.79 584.01 C 746.34 590.43 748.11 596.65 748.88 603.05 C 751.08 612.85 751.71 622.96 754.23 632.71 C 755.25 636.72 754.96 640.97 756.13 644.94 C 756.81 648.62 757.28 652.34 757.91 656.03 C 760.28 665.87 760.89 676.04 763.19 685.88 C 764.45 691.52 764.66 697.33 766.17 702.93 C 766.37 704.94 766.57 706.97 766.80 708.99 C 768.36 714.53 769.05 720.26 769.85 725.95 C 770.97 729.87 771.09 733.99 772.17 737.92 C 772.45 739.58 772.76 741.24 773.19 742.89 C 773.85 750.99 775.74 758.94 777.17 766.92 C 777.47 768.59 777.75 770.26 778.10 771.94 C 778.32 773.96 778.52 776.00 778.84 778.02 C 779.98 781.93 780.09 786.06 780.84 790.06 C 781.19 791.39 781.49 792.74 781.85 794.10 C 782.80 796.62 782.41 799.40 782.91 802.02 C 783.84 807.71 785.16 813.33 785.85 819.06 C 787.14 822.93 787.39 827.02 787.82 831.05 C 789.32 836.29 789.38 841.83 790.87 847.09 C 792.20 851.58 791.69 856.44 793.17 860.92 C 793.90 864.90 794.25 868.95 795.09 872.91 C 795.42 874.27 795.76 875.63 796.16 876.99 C 796.83 884.76 798.68 892.37 799.86 900.08 C 801.31 904.57 800.72 909.45 802.19 913.91 C 803.36 919.22 803.73 924.69 805.21 929.93 C 805.91 938.00 807.64 945.95 809.19 953.90 C 810.78 965.35 813.17 976.68 814.85 988.11 C 815.31 990.37 815.31 992.77 816.23 994.93 C 816.65 998.65 817.23 1002.36 817.83 1006.07 C 818.28 1007.70 818.71 1009.35 819.23 1010.99 C 819.44 1013.34 819.60 1015.71 819.80 1018.08 C 820.28 1020.02 820.66 1022.00 821.14 1023.96 C 822.01 1031.70 824.12 1039.23 824.81 1047.00 C 825.38 1048.91 825.79 1050.88 826.21 1052.85 C 826.38 1054.90 826.56 1056.96 826.83 1059.03 C 827.16 1060.34 827.47 1061.70 827.78 1063.06 C 829.27 1066.67 828.34 1070.86 829.51 1074.64 C 832.07 1073.94 834.30 1072.42 836.88 1071.74 C 838.58 1071.14 840.30 1070.53 842.00 1069.87 C 849.19 1066.64 856.47 1063.58 863.84 1060.78 C 868.26 1058.94 872.68 1057.05 877.11 1055.23 C 879.00 1054.41 880.91 1053.61 882.80 1052.78 C 884.90 1051.96 887.00 1051.09 889.08 1050.20 C 890.41 1049.45 892.25 1049.30 893.13 1047.95 C 893.43 1046.31 893.56 1044.65 893.79 1043.02 C 894.79 1040.06 895.21 1036.95 895.68 1033.88 C 897.36 1023.55 899.10 1013.25 900.85 1002.94 C 901.27 1000.94 901.60 998.94 902.14 996.99 C 902.39 994.63 902.55 992.27 902.75 989.92 C 904.37 984.71 904.86 979.26 905.82 973.92 C 907.37 965.96 908.48 957.92 909.83 949.93 C 910.26 947.96 910.65 945.99 911.21 944.07 C 911.65 939.72 911.97 935.32 913.15 931.10 C 915.24 919.14 917.17 907.17 919.16 895.20 C 920.87 889.62 920.60 883.69 922.17 878.10 C 923.29 870.36 925.14 862.74 925.81 854.96 C 926.32 853.00 926.72 851.03 927.24 849.10 C 927.45 847.07 927.63 845.05 927.86 843.05 C 928.21 841.66 928.52 840.26 928.87 838.89 C 930.02 834.65 929.98 830.21 930.77 825.91 C 931.27 823.97 931.68 822.02 932.21 820.09 C 933.35 812.36 934.49 804.63 935.89 796.94 C 936.88 793.03 937.27 789.01 937.83 785.03 C 939.24 780.80 939.12 776.30 940.09 772.00 C 940.38 770.34 940.71 768.69 941.19 767.09 C 941.91 763.09 942.04 758.98 943.18 755.08 C 943.82 751.08 944.08 747.00 945.16 743.08 C 946.14 735.32 948.29 727.74 948.80 719.92 C 949.23 717.95 949.60 715.98 950.13 714.04 C 951.24 706.32 952.93 698.69 953.81 690.93 C 955.86 681.33 957.30 671.61 958.81 661.92 C 959.72 658.55 959.96 655.04 960.73 651.64 C 961.23 656.33 961.11 661.05 961.23 665.77 C 962.65 666.06 964.09 666.36 965.53 666.67 C 965.91 662.02 965.43 657.15 967.45 652.81 C 968.54 657.01 967.79 661.50 969.38 665.62 C 970.75 669.49 969.24 673.90 971.34 677.56 C 973.20 681.13 973.05 685.27 973.78 689.14 C 974.52 693.16 973.66 697.39 975.09 701.30 C 977.92 698.64 977.57 694.27 978.32 690.74 C 978.82 693.48 979.30 696.25 980.15 698.93 C 980.62 702.64 981.08 706.38 982.14 709.98 C 982.39 715.78 984.76 721.18 985.27 726.94 C 985.45 728.62 985.50 730.37 986.17 731.97 C 987.17 736.64 987.85 741.37 988.80 746.06 C 990.08 749.57 990.08 753.40 990.84 757.05 C 991.83 760.91 992.08 764.94 993.24 768.78 C 994.78 773.70 994.52 778.98 996.18 783.89 C 996.67 786.96 997.20 790.03 997.84 793.08 C 999.01 796.64 999.06 800.46 999.80 804.13 C 1000.88 807.67 1001.04 811.42 1001.85 815.03 C 1002.32 816.65 1002.76 818.28 1003.29 819.90 C 1003.63 823.63 1004.02 827.38 1005.17 830.97 C 1005.64 834.35 1006.24 837.71 1006.86 841.07 C 1008.89 849.62 1009.83 858.43 1012.01 866.98 C 1013.04 870.89 1012.94 875.03 1014.14 878.92 C 1016.60 890.45 1018.33 902.10 1020.68 913.64 C 1022.13 917.94 1021.96 922.55 1023.15 926.90 C 1023.90 930.21 1024.44 933.57 1025.12 936.90 C 1025.41 938.25 1025.73 939.61 1026.15 940.97 C 1026.89 948.07 1028.66 955.00 1030.00 962.01 C 1031.50 966.93 1031.19 972.20 1032.87 977.08 C 1033.68 980.77 1034.16 984.52 1034.62 988.28 C 1035.20 988.59 1036.37 989.21 1036.96 989.52 C 1041.90 987.18 1046.94 985.06 1052.10 983.24 C 1066.38 977.00 1080.93 971.36 1095.27 965.26 C 1095.97 961.20 1096.09 957.02 1097.19 953.05 C 1097.43 951.04 1097.63 949.02 1098.15 947.07 C 1098.36 944.71 1098.52 942.36 1098.85 940.02 C 1099.39 938.06 1099.72 936.04 1100.18 934.06 C 1100.41 929.02 1101.21 924.03 1102.22 919.09 C 1102.49 916.41 1102.51 913.70 1103.10 911.06 C 1104.49 904.76 1105.01 898.34 1105.83 891.95 C 1106.48 889.69 1106.52 887.33 1107.16 885.08 C 1108.93 871.35 1110.83 857.62 1113.18 843.98 C 1113.82 839.31 1114.33 834.62 1114.78 829.93 C 1115.46 827.69 1115.50 825.33 1116.17 823.10 C 1117.62 813.78 1118.42 804.33 1120.19 795.09 C 1120.53 791.00 1121.36 786.98 1121.83 782.92 C 1122.32 780.65 1122.61 778.35 1123.17 776.10 C 1123.40 773.37 1123.49 770.65 1123.83 767.94 C 1124.42 765.67 1124.43 763.29 1125.19 761.07 C 1126.24 752.31 1127.87 743.64 1128.74 734.87 C 1129.71 732.38 1129.37 729.60 1130.12 727.06 C 1130.54 722.69 1131.09 718.30 1132.25 714.07 C 1132.42 709.21 1133.44 704.43 1133.62 699.58 L 1134.37 699.44 C 1134.49 695.22 1135.41 691.09 1135.81 686.91 C 1137.18 681.36 1137.17 675.56 1138.33 669.97 C 1139.83 659.28 1141.84 648.69 1142.78 637.93 C 1144.40 631.70 1144.70 625.24 1145.87 618.93 C 1146.65 613.66 1146.94 608.31 1148.15 603.09 C 1148.66 599.02 1149.46 595.00 1149.81 590.91 C 1151.31 585.75 1150.70 580.21 1152.22 575.06 C 1152.44 573.04 1152.47 570.97 1153.14 569.03 C 1153.86 564.72 1153.90 560.25 1155.24 556.06 C 1156.19 541.91 1159.73 528.07 1160.77 513.93 C 1161.45 511.70 1161.67 509.38 1162.16 507.11 C 1162.40 503.01 1163.17 498.98 1163.84 494.93 C 1165.25 489.78 1164.67 484.23 1166.17 479.08 C 1166.80 475.04 1167.43 471.00 1167.74 466.93 C 1168.48 465.06 1168.61 463.04 1168.89 461.08 C 1169.60 458.08 1169.50 454.99 1169.81 451.94 C 1171.26 445.68 1171.93 439.28 1172.79 432.92 C 1174.01 428.36 1174.19 423.59 1174.81 418.93 C 1175.66 416.69 1175.48 414.25 1175.79 411.92 C 1176.59 409.39 1176.59 406.72 1176.62 404.09 C 1171.31 405.19 1166.26 407.26 1161.21 409.17 Z" />
</g>
<g id="#970000ff">
<path fill="#970000" opacity="1.00" d=" M 1274.88 203.29 L 1275.88 202.92 L 1276.69 203.60 C 1277.16 214.37 1276.75 225.17 1276.89 235.96 C 1276.86 515.23 1276.94 794.49 1276.85 1073.76 C 1276.07 1074.11 1274.52 1074.80 1273.75 1075.15 C 1273.98 1069.76 1275.26 1064.44 1274.77 1059.01 C 1274.74 778.68 1274.75 498.35 1274.76 218.02 C 1274.85 213.11 1274.11 208.17 1274.88 203.29 Z" />
<path fill="#970000" opacity="1.00" d=" M 866.44 896.31 C 866.89 895.09 867.37 893.89 867.88 892.71 C 870.06 897.77 867.93 903.24 868.45 908.51 C 868.65 912.31 868.22 916.11 867.51 919.84 C 867.04 919.79 866.10 919.69 865.63 919.64 C 865.53 917.02 865.41 914.41 865.27 911.82 C 865.44 906.77 865.17 901.73 865.16 896.69 C 865.48 896.60 866.12 896.40 866.44 896.31 Z" />
</g>
<g id="#fefefeff">
<path fill="#fefefe" opacity="1.00" d=" M 1161.21 409.17 C 1166.26 407.26 1171.31 405.19 1176.62 404.09 C 1176.59 406.72 1176.59 409.39 1175.79 411.92 C 1175.48 414.25 1175.66 416.69 1174.81 418.93 C 1174.19 423.59 1174.01 428.36 1172.79 432.92 C 1171.93 439.28 1171.26 445.68 1169.81 451.94 C 1169.50 454.99 1169.60 458.08 1168.89 461.08 C 1168.61 463.04 1168.48 465.06 1167.74 466.93 C 1167.43 471.00 1166.80 475.04 1166.17 479.08 C 1164.67 484.23 1165.25 489.78 1163.84 494.93 C 1163.17 498.98 1162.40 503.01 1162.16 507.11 C 1161.67 509.38 1161.45 511.70 1160.77 513.93 C 1159.73 528.07 1156.19 541.91 1155.24 556.06 C 1153.90 560.25 1153.86 564.72 1153.14 569.03 C 1152.47 570.97 1152.44 573.04 1152.22 575.06 C 1150.70 580.21 1151.31 585.75 1149.81 590.91 C 1149.46 595.00 1148.66 599.02 1148.15 603.09 C 1146.94 608.31 1146.65 613.66 1145.87 618.93 C 1144.70 625.24 1144.40 631.70 1142.78 637.93 C 1141.84 648.69 1139.83 659.28 1138.33 669.97 C 1137.17 675.56 1137.18 681.36 1135.81 686.91 C 1135.41 691.09 1134.49 695.22 1134.37 699.44 L 1133.62 699.58 C 1133.44 704.43 1132.42 709.21 1132.25 714.07 C 1131.09 718.30 1130.54 722.69 1130.12 727.06 C 1129.37 729.60 1129.71 732.38 1128.74 734.87 C 1127.87 743.64 1126.24 752.31 1125.19 761.07 C 1124.43 763.29 1124.42 765.67 1123.83 767.94 C 1123.49 770.65 1123.40 773.37 1123.17 776.10 C 1122.61 778.35 1122.32 780.65 1121.83 782.92 C 1121.36 786.98 1120.53 791.00 1120.19 795.09 C 1118.42 804.33 1117.62 813.78 1116.17 823.10 C 1115.50 825.33 1115.46 827.69 1114.78 829.93 C 1114.33 834.62 1113.82 839.31 1113.18 843.98 C 1110.83 857.62 1108.93 871.35 1107.16 885.08 C 1106.52 887.33 1106.48 889.69 1105.83 891.95 C 1105.01 898.34 1104.49 904.76 1103.10 911.06 C 1102.51 913.70 1102.49 916.41 1102.22 919.09 C 1101.21 924.03 1100.41 929.02 1100.18 934.06 C 1099.72 936.04 1099.39 938.06 1098.85 940.02 C 1098.52 942.36 1098.36 944.71 1098.15 947.07 C 1097.63 949.02 1097.43 951.04 1097.19 953.05 C 1096.09 957.02 1095.97 961.20 1095.27 965.26 C 1080.93 971.36 1066.38 977.00 1052.10 983.24 C 1046.94 985.06 1041.90 987.18 1036.96 989.52 C 1036.37 989.21 1035.20 988.59 1034.62 988.28 C 1034.16 984.52 1033.68 980.77 1032.87 977.08 C 1031.19 972.20 1031.50 966.93 1030.00 962.01 C 1028.66 955.00 1026.89 948.07 1026.15 940.97 C 1025.73 939.61 1025.41 938.25 1025.12 936.90 C 1024.44 933.57 1023.90 930.21 1023.15 926.90 C 1021.96 922.55 1022.13 917.94 1020.68 913.64 C 1018.33 902.10 1016.60 890.45 1014.14 878.92 C 1012.94 875.03 1013.04 870.89 1012.01 866.98 C 1009.83 858.43 1008.89 849.62 1006.86 841.07 C 1006.24 837.71 1005.64 834.35 1005.17 830.97 C 1004.02 827.38 1003.63 823.63 1003.29 819.90 C 1002.76 818.28 1002.32 816.65 1001.85 815.03 C 1001.04 811.42 1000.88 807.67 999.80 804.13 C 999.06 800.46 999.01 796.64 997.84 793.08 C 997.20 790.03 996.67 786.96 996.18 783.89 C 994.52 778.98 994.78 773.70 993.24 768.78 C 992.08 764.94 991.83 760.91 990.84 757.05 C 990.08 753.40 990.08 749.57 988.80 746.06 C 987.85 741.37 987.17 736.64 986.17 731.97 C 985.50 730.37 985.45 728.62 985.27 726.94 C 984.76 721.18 982.39 715.78 982.14 709.98 C 981.08 706.38 980.62 702.64 980.15 698.93 C 979.30 696.25 978.82 693.48 978.32 690.74 C 974.37 669.03 969.51 647.46 966.25 625.63 C 965.87 625.60 965.11 625.54 964.73 625.51 C 963.58 634.24 962.27 642.96 960.73 651.64 C 959.96 655.04 959.72 658.55 958.81 661.92 C 957.30 671.61 955.86 681.33 953.81 690.93 C 952.93 698.69 951.24 706.32 950.13 714.04 C 949.60 715.98 949.23 717.95 948.80 719.92 C 948.29 727.74 946.14 735.32 945.16 743.08 C 944.08 747.00 943.82 751.08 943.18 755.08 C 942.04 758.98 941.91 763.09 941.19 767.09 C 940.71 768.69 940.38 770.34 940.09 772.00 C 939.12 776.30 939.24 780.80 937.83 785.03 C 937.27 789.01 936.88 793.03 935.89 796.94 C 934.49 804.63 933.35 812.36 932.21 820.09 C 931.68 822.02 931.27 823.97 930.77 825.91 C 929.98 830.21 930.02 834.65 928.87 838.89 C 928.52 840.26 928.21 841.66 927.86 843.05 C 927.63 845.05 927.45 847.07 927.24 849.10 C 926.72 851.03 926.32 853.00 925.81 854.96 C 925.14 862.74 923.29 870.36 922.17 878.10 C 920.60 883.69 920.87 889.62 919.16 895.20 C 917.17 907.17 915.24 919.14 913.15 931.10 C 911.97 935.32 911.65 939.72 911.21 944.07 C 910.65 945.99 910.26 947.96 909.83 949.93 C 908.48 957.92 907.37 965.96 905.82 973.92 C 904.86 979.26 904.37 984.71 902.75 989.92 C 902.55 992.27 902.39 994.63 902.14 996.99 C 901.60 998.94 901.27 1000.94 900.85 1002.94 C 899.10 1013.25 897.36 1023.55 895.68 1033.88 C 895.21 1036.95 894.79 1040.06 893.79 1043.02 C 893.56 1044.65 893.43 1046.31 893.13 1047.95 C 892.25 1049.30 890.41 1049.45 889.08 1050.20 C 887.00 1051.09 884.90 1051.96 882.80 1052.78 C 880.91 1053.61 879.00 1054.41 877.11 1055.23 C 872.68 1057.05 868.26 1058.94 863.84 1060.78 C 856.47 1063.58 849.19 1066.64 842.00 1069.87 C 840.30 1070.53 838.58 1071.14 836.88 1071.74 C 834.30 1072.42 832.07 1073.94 829.51 1074.64 C 828.34 1070.86 829.27 1066.67 827.78 1063.06 C 827.47 1061.70 827.16 1060.34 826.83 1059.03 C 826.56 1056.96 826.38 1054.90 826.21 1052.85 C 825.79 1050.88 825.38 1048.91 824.81 1047.00 C 824.12 1039.23 822.01 1031.70 821.14 1023.96 C 820.66 1022.00 820.28 1020.02 819.80 1018.08 C 819.60 1015.71 819.44 1013.34 819.23 1010.99 C 818.71 1009.35 818.28 1007.70 817.83 1006.07 C 817.23 1002.36 816.65 998.65 816.23 994.93 C 815.31 992.77 815.31 990.37 814.85 988.11 C 813.17 976.68 810.78 965.35 809.19 953.90 C 807.64 945.95 805.91 938.00 805.21 929.93 C 803.73 924.69 803.36 919.22 802.19 913.91 C 800.72 909.45 801.31 904.57 799.86 900.08 C 798.68 892.37 796.83 884.76 796.16 876.99 C 795.76 875.63 795.42 874.27 795.09 872.91 C 794.25 868.95 793.90 864.90 793.17 860.92 C 791.69 856.44 792.20 851.58 790.87 847.09 C 789.38 841.83 789.32 836.29 787.82 831.05 C 787.39 827.02 787.14 822.93 785.85 819.06 C 785.16 813.33 783.84 807.71 782.91 802.02 C 782.41 799.40 782.80 796.62 781.85 794.10 C 781.49 792.74 781.19 791.39 780.84 790.06 C 780.09 786.06 779.98 781.93 778.84 778.02 C 778.52 776.00 778.32 773.96 778.10 771.94 C 777.75 770.26 777.47 768.59 777.17 766.92 C 775.74 758.94 773.85 750.99 773.19 742.89 C 772.76 741.24 772.45 739.58 772.17 737.92 C 771.09 733.99 770.97 729.87 769.85 725.95 C 769.05 720.26 768.36 714.53 766.80 708.99 C 766.57 706.97 766.37 704.94 766.17 702.93 C 764.66 697.33 764.45 691.52 763.19 685.88 C 760.89 676.04 760.28 665.87 757.91 656.03 C 757.28 652.34 756.81 648.62 756.13 644.94 C 754.96 640.97 755.25 636.72 754.23 632.71 C 751.71 622.96 751.08 612.85 748.88 603.05 C 748.11 596.65 746.34 590.43 745.79 584.01 C 745.61 582.32 745.55 580.61 744.86 579.05 C 743.62 573.44 743.19 567.67 741.78 562.10 C 741.41 559.68 741.23 557.25 741.29 554.81 C 742.91 554.33 744.50 553.77 746.10 553.20 C 748.33 552.41 750.61 551.72 752.81 550.82 C 766.21 546.23 779.53 541.45 792.96 536.94 C 797.87 535.54 802.45 533.09 807.47 532.08 C 808.27 539.09 810.16 545.95 810.54 553.02 C 810.74 556.05 811.53 559.00 812.17 561.96 C 812.37 563.99 812.56 566.02 812.84 568.04 C 813.40 570.32 813.49 572.69 814.20 574.95 C 814.45 577.28 814.61 579.64 815.10 581.95 C 815.47 584.26 815.14 586.79 816.27 588.94 C 816.54 591.30 816.65 593.68 816.85 596.06 C 818.06 602.38 819.83 608.60 819.82 615.09 C 820.29 617.05 820.56 619.07 820.81 621.08 C 822.20 627.66 822.89 634.38 824.09 641.00 C 824.34 643.30 824.51 645.62 824.84 647.93 C 826.13 652.53 826.05 657.38 827.09 662.04 C 828.80 667.75 828.49 673.76 829.71 679.57 C 830.44 682.65 830.46 685.84 831.13 688.93 C 831.34 690.64 831.54 692.37 831.78 694.09 C 833.16 698.12 833.32 702.40 833.72 706.61 C 835.02 713.05 835.69 719.60 836.81 726.08 C 838.16 730.09 837.75 734.48 838.57 738.63 C 839.97 745.71 840.35 752.98 842.25 759.95 C 842.47 762.32 842.57 764.69 842.80 767.07 C 843.34 769.33 843.56 771.67 844.12 773.94 C 844.39 775.97 844.58 778.02 844.84 780.08 C 847.41 793.27 848.29 806.80 851.27 819.89 C 851.51 824.13 852.52 828.30 852.49 832.57 C 852.73 832.57 853.19 832.59 853.43 832.60 C 853.36 835.10 853.47 837.60 853.81 840.10 C 854.58 844.05 855.01 848.09 856.20 851.97 C 856.36 854.67 856.48 857.39 856.77 860.09 C 858.96 870.66 860.37 881.38 861.77 892.09 C 862.83 894.21 862.42 896.71 863.15 898.96 C 863.43 901.65 863.56 904.36 863.76 907.07 C 864.29 908.63 864.80 910.21 865.27 911.82 C 865.41 914.41 865.53 917.02 865.63 919.64 C 866.10 919.69 867.04 919.79 867.51 919.84 C 868.22 916.11 868.65 912.31 868.45 908.51 L 869.41 908.54 C 869.45 906.32 869.58 904.11 869.79 901.92 C 871.57 894.33 872.42 886.56 874.17 878.97 C 874.77 873.23 875.43 867.49 876.89 861.89 C 877.71 855.20 879.26 848.62 879.78 841.89 C 881.49 836.09 881.40 829.95 882.99 824.12 C 884.21 819.52 883.78 814.61 885.22 810.09 C 885.48 808.40 885.74 806.71 886.15 805.07 C 886.59 801.03 887.19 797.01 888.16 793.07 C 889.66 780.34 892.58 767.78 894.12 755.07 C 895.56 749.48 895.69 743.64 897.23 738.08 C 897.51 736.03 897.68 733.96 897.90 731.92 C 898.23 730.25 898.49 728.56 898.83 726.90 C 900.97 716.37 902.07 705.62 904.17 695.08 C 905.73 685.36 907.30 675.64 908.83 665.92 C 909.31 663.94 909.60 661.94 909.84 659.93 C 910.85 655.64 911.56 651.29 911.85 646.89 C 912.32 644.63 912.56 642.33 913.19 640.11 C 914.45 632.38 915.97 624.69 916.80 616.90 C 917.31 614.64 917.64 612.35 918.19 610.10 C 918.64 606.38 919.30 602.70 919.87 599.00 C 921.19 594.48 920.68 589.60 922.16 585.10 C 924.36 573.11 926.20 561.05 927.86 548.98 C 928.28 547.00 928.61 544.99 929.26 543.07 C 930.13 538.78 929.88 534.30 931.15 530.10 C 932.03 526.43 932.60 522.69 932.78 518.93 C 935.29 508.75 935.99 498.24 937.93 487.95 C 939.02 485.36 942.04 485.20 944.35 484.29 C 953.51 481.23 962.69 478.20 971.71 474.72 C 977.25 473.19 982.55 470.94 987.98 469.05 C 989.33 468.41 990.84 468.36 992.33 468.29 C 992.44 469.89 992.56 471.48 992.74 473.08 C 994.28 476.54 994.54 480.34 994.83 484.07 C 996.72 490.96 997.67 498.05 998.89 505.08 C 999.29 507.35 999.60 509.65 1000.19 511.90 C 1000.88 516.66 1001.76 521.40 1002.82 526.10 C 1004.01 529.97 1003.74 534.17 1004.79 538.11 C 1005.28 540.04 1005.69 541.99 1006.22 543.93 C 1006.41 545.65 1006.58 547.37 1006.81 549.10 C 1007.92 552.98 1008.23 557.03 1008.86 561.01 C 1010.22 565.97 1010.46 571.15 1011.85 576.10 C 1013.26 580.24 1012.72 584.78 1014.19 588.92 C 1016.44 601.07 1018.44 613.26 1020.67 625.41 C 1022.09 629.80 1022.00 634.49 1023.14 638.93 C 1024.25 643.92 1024.50 649.10 1026.22 653.94 C 1026.55 657.41 1026.94 660.87 1027.73 664.27 C 1028.46 666.46 1028.55 668.78 1028.83 671.06 C 1029.22 672.70 1029.55 674.37 1029.84 676.05 C 1031.42 680.43 1031.16 685.17 1032.34 689.65 C 1033.29 694.11 1033.80 698.64 1034.86 703.08 C 1035.68 704.98 1035.61 707.08 1035.77 709.12 L 1036.24 709.83 C 1036.35 711.92 1036.53 714.04 1037.26 716.04 C 1037.74 719.38 1038.41 722.70 1038.79 726.07 C 1040.26 729.60 1040.44 733.41 1040.90 737.16 C 1043.39 749.37 1045.57 761.61 1047.58 773.91 C 1050.35 785.12 1051.14 796.74 1054.21 807.91 C 1054.39 809.96 1054.59 812.01 1054.82 814.08 C 1055.29 815.70 1055.71 817.33 1056.23 818.97 C 1056.42 820.99 1056.61 823.03 1056.75 825.08 C 1057.26 826.70 1057.79 828.32 1058.33 829.97 C 1058.55 832.21 1058.72 834.45 1058.92 836.71 C 1059.16 839.32 1059.44 841.93 1059.66 844.55 C 1060.05 844.47 1060.84 844.30 1061.23 844.21 C 1061.37 842.18 1061.52 840.12 1062.26 838.21 C 1063.04 830.80 1063.39 823.29 1065.20 816.04 C 1065.44 811.30 1066.07 806.61 1066.85 801.93 C 1068.44 796.11 1067.72 789.88 1069.21 784.06 C 1069.42 782.04 1069.55 780.00 1070.21 778.07 C 1070.74 773.05 1071.00 767.95 1072.16 763.03 C 1072.78 757.40 1072.91 751.58 1074.26 746.11 C 1074.70 741.70 1075.26 737.32 1075.87 732.94 C 1077.20 727.05 1077.11 720.96 1078.17 715.06 C 1078.39 713.35 1078.56 711.63 1078.80 709.94 C 1080.24 704.75 1079.81 699.23 1081.20 694.06 C 1081.82 683.95 1083.89 674.02 1084.84 663.95 C 1085.74 661.40 1085.31 658.62 1086.20 656.07 C 1086.66 645.93 1088.96 636.02 1089.83 625.92 C 1090.78 621.33 1091.20 616.64 1091.59 611.98 C 1092.25 606.28 1093.44 600.67 1093.87 594.95 C 1094.41 592.64 1094.44 590.24 1095.21 587.98 C 1095.41 582.16 1096.53 576.41 1096.61 570.58 L 1097.36 570.44 C 1097.55 565.91 1098.70 561.48 1098.80 556.94 C 1099.75 554.41 1099.24 551.61 1100.18 549.08 C 1100.40 546.63 1100.51 544.19 1100.77 541.75 C 1101.74 535.89 1102.54 529.99 1102.81 524.06 C 1103.36 522.72 1103.54 521.29 1103.81 519.88 C 1105.00 513.91 1105.25 507.69 1105.61 501.59 L 1106.35 501.42 C 1106.45 496.88 1107.55 492.46 1107.86 487.95 C 1109.46 480.05 1109.53 471.92 1111.16 464.04 C 1111.48 461.04 1111.34 457.98 1112.15 455.06 C 1112.37 453.04 1112.56 451.00 1113.22 449.07 C 1113.89 443.70 1114.45 438.33 1114.77 432.93 C 1115.56 430.18 1115.73 427.29 1116.62 424.57 C 1118.09 424.08 1119.57 423.60 1121.08 423.14 C 1125.62 421.15 1130.46 419.93 1135.10 418.18 C 1137.75 417.13 1140.52 416.39 1143.14 415.23 C 1146.37 414.04 1149.80 413.34 1152.87 411.70 C 1153.44 411.59 1154.56 411.38 1155.12 411.27 C 1157.05 410.32 1159.11 409.65 1161.21 409.17 Z" />
<path fill="#fefefe" opacity="1.00" d=" M 246.00 475.14 C 252.45 472.97 259.28 472.11 266.03 471.37 C 277.69 470.95 289.44 470.89 301.00 472.81 C 306.93 474.31 313.05 475.18 318.89 477.15 C 323.60 478.83 328.54 479.81 333.14 481.84 C 355.55 490.28 376.53 502.66 394.35 518.72 C 425.89 546.19 448.84 583.03 461.26 622.87 C 461.95 624.87 462.59 626.89 463.21 628.93 C 463.33 629.47 463.58 630.56 463.71 631.10 C 466.33 638.77 466.93 647.03 469.26 654.82 C 469.52 657.56 469.63 660.32 469.86 663.08 C 470.81 666.28 469.99 669.76 471.23 672.89 C 471.44 678.84 472.05 684.81 471.62 690.77 C 469.63 690.48 467.73 689.93 465.87 689.24 C 463.87 688.53 461.87 687.87 459.89 687.15 C 458.63 686.68 457.35 686.26 456.08 685.85 C 452.02 684.71 447.99 683.43 444.11 681.79 C 438.97 680.54 434.04 678.62 429.07 676.87 C 420.26 674.24 411.56 671.27 402.90 668.17 C 402.28 667.95 401.05 667.50 400.43 667.28 C 400.47 657.06 398.76 647.00 397.18 636.95 C 394.70 623.10 389.20 609.89 382.03 597.81 C 378.35 591.47 373.74 585.68 368.55 580.51 C 353.23 563.88 331.92 553.47 309.91 549.19 C 308.25 548.72 306.59 548.29 304.95 547.77 C 298.63 547.36 292.28 547.40 285.95 547.73 C 284.94 548.10 283.94 548.46 282.93 548.82 C 273.67 550.76 265.38 556.49 260.20 564.38 C 255.37 571.34 253.46 579.76 251.80 587.92 C 251.06 594.92 251.24 601.97 251.27 609.00 C 251.10 614.47 253.04 619.67 253.85 625.02 C 254.85 627.71 255.62 630.49 256.74 633.14 C 261.70 644.78 268.41 655.67 277.07 664.92 C 288.65 679.01 302.89 690.53 316.64 702.39 C 329.71 712.69 343.57 721.96 356.42 732.55 C 377.03 748.35 396.08 766.19 413.47 785.48 C 433.99 809.10 451.57 835.94 461.20 865.90 C 462.33 868.53 463.03 871.32 463.81 874.08 C 466.18 880.90 467.00 888.14 468.87 895.10 C 469.79 897.99 469.48 901.08 469.89 904.06 C 470.65 906.97 470.08 910.11 471.20 912.95 C 471.80 923.27 473.01 933.64 471.92 943.98 C 471.55 953.76 470.30 963.57 468.21 973.12 C 467.43 975.74 466.85 978.42 466.18 981.08 C 465.81 982.08 465.49 983.11 465.20 984.15 C 460.47 997.46 453.63 1010.40 443.13 1020.08 C 433.27 1030.34 419.67 1035.93 406.07 1039.23 C 404.40 1039.53 402.73 1039.82 401.08 1040.18 C 390.73 1040.80 380.35 1040.85 370.00 1040.30 C 367.00 1040.01 363.94 1039.79 361.06 1038.86 C 352.13 1037.47 343.47 1034.87 334.88 1032.17 C 290.34 1017.49 251.15 988.43 221.99 951.93 C 218.45 946.57 214.01 941.86 210.69 936.35 C 194.95 912.73 182.92 886.49 176.18 858.88 C 174.70 853.22 174.09 847.34 172.54 841.68 C 172.48 841.06 172.38 839.82 172.32 839.20 C 172.26 838.63 172.14 837.51 172.08 836.95 C 171.42 834.00 171.66 830.92 170.85 828.01 C 170.19 820.39 170.43 812.74 170.29 805.11 C 176.33 806.59 182.00 809.26 187.91 811.16 C 197.03 814.16 205.93 817.76 215.06 820.73 C 222.77 823.62 230.59 826.26 238.38 828.93 C 238.70 832.92 238.46 836.96 239.04 840.95 C 239.71 845.24 239.03 849.68 240.12 853.93 C 241.56 860.97 243.02 868.03 245.18 874.90 C 245.98 877.59 246.96 880.24 248.20 882.77 C 257.20 906.19 273.64 926.82 295.04 940.04 C 310.41 950.35 327.93 957.18 345.91 961.31 C 346.59 961.36 347.95 961.48 348.64 961.53 C 354.83 961.83 361.04 961.82 367.24 961.58 C 368.48 961.48 369.70 961.23 370.90 960.85 C 376.22 958.99 381.54 956.59 385.60 952.58 C 391.27 947.37 394.96 940.32 397.18 933.02 C 397.32 932.47 397.59 931.37 397.72 930.81 L 398.24 930.15 C 400.21 920.88 399.97 911.36 399.75 901.95 C 399.71 895.53 398.54 889.19 397.15 882.95 C 394.51 871.12 389.26 859.90 381.91 850.25 C 376.90 842.40 370.17 835.91 363.87 829.13 C 356.23 821.73 348.63 814.23 340.10 807.85 C 320.51 790.97 298.73 776.85 279.58 759.46 C 266.75 749.38 255.40 737.60 244.03 725.95 C 236.12 716.21 227.36 707.09 220.55 696.49 C 209.42 681.07 200.58 664.06 193.81 646.31 C 191.69 640.26 189.42 634.23 188.16 627.93 C 186.70 624.27 186.39 620.31 185.39 616.54 C 183.71 610.17 184.25 603.43 182.79 597.06 C 182.05 586.05 182.08 574.96 182.81 563.95 C 184.13 558.76 183.67 553.25 185.14 548.10 C 188.78 531.55 195.05 515.13 206.04 502.03 C 211.54 496.21 217.05 490.28 223.73 485.79 C 230.53 481.10 238.08 477.48 246.00 475.14 Z" />
<path fill="#fefefe" opacity="1.00" d=" M 814.23 1267.66 L 815.03 1267.64 C 815.37 1267.90 816.06 1268.43 816.41 1268.70 C 815.55 1269.57 814.49 1270.02 813.22 1270.05 C 813.48 1269.45 813.98 1268.26 814.23 1267.66 Z" />
</g>
<g id="#9f1100ff">
<path fill="#9f1100" opacity="1.00" d=" M 964.73 625.51 C 965.11 625.54 965.87 625.60 966.25 625.63 C 969.51 647.46 974.37 669.03 978.32 690.74 C 977.57 694.27 977.92 698.64 975.09 701.30 C 973.66 697.39 974.52 693.16 973.78 689.14 C 973.05 685.27 973.20 681.13 971.34 677.56 C 969.24 673.90 970.75 669.49 969.38 665.62 C 967.79 661.50 968.54 657.01 967.45 652.81 C 965.43 657.15 965.91 662.02 965.53 666.67 C 964.09 666.36 962.65 666.06 961.23 665.77 C 961.11 661.05 961.23 656.33 960.73 651.64 C 962.27 642.96 963.58 634.24 964.73 625.51 Z" />
</g>
<g id="#960000ff">
<path fill="#960000" opacity="1.00" d=" M 1059.44 822.91 C 1059.91 820.20 1059.47 816.95 1061.62 814.88 C 1062.45 822.88 1062.02 830.98 1060.66 838.90 C 1060.07 838.16 1059.49 837.43 1058.92 836.71 C 1058.72 834.45 1058.55 832.21 1058.33 829.97 C 1058.33 825.95 1058.26 821.94 1058.48 817.94 C 1058.80 819.58 1059.13 821.24 1059.44 822.91 Z" />
</g>
<g id="#d50000ff">
<path fill="#d50000" opacity="1.00" d=" M 170.29 848.05 C 169.13 844.53 168.99 840.69 170.25 837.19 C 170.77 837.69 171.80 838.70 172.32 839.20 C 172.38 839.82 172.48 841.06 172.54 841.68 C 172.00 843.86 171.17 845.98 170.29 848.05 Z" />
</g>
<g id="#d70d00ff">
<path fill="#d70d00" opacity="1.00" d=" M 350.35 959.38 C 355.76 959.01 361.23 959.15 366.65 959.30 C 366.80 959.87 367.09 961.01 367.24 961.58 C 361.04 961.82 354.83 961.83 348.64 961.53 C 349.06 960.99 349.92 959.92 350.35 959.38 Z" />
</g>
<g id="#30292835">
<path fill="#302928" opacity="0.21" d=" M 803.88 1275.15 C 804.11 1273.05 806.42 1272.64 808.12 1273.15 C 806.98 1274.30 805.55 1275.17 803.88 1275.15 Z" />
</g>
<g id="#3e2d2948">
<path fill="#3e2d29" opacity="0.28" d=" M 637.84 1344.00 C 638.70 1341.78 641.38 1342.41 643.26 1341.93 C 642.85 1342.45 642.02 1343.48 641.61 1344.00 L 637.84 1344.00 Z" />
</g>
</svg>
