<?xml version="1.0" encoding="UTF-8" ?>
<!DOCTYPE svg PUBLIC "-//W3C//DTD SVG 1.1//EN" "http://www.w3.org/Graphics/SVG/1.1/DTD/svg11.dtd">
<svg width="941pt" height="1179pt" viewBox="0 0 941 1179" version="1.1" xmlns="http://www.w3.org/2000/svg">
<g id="#000000ff">
<path fill="#000000" opacity="1.00" d=" M 715.88 0.00 L 721.77 0.00 C 723.45 5.16 725.39 10.26 725.29 15.77 C 727.70 21.37 727.66 27.54 729.64 33.26 C 730.15 36.71 730.14 40.26 731.48 43.54 C 733.11 47.62 732.51 52.30 734.88 56.11 C 733.96 56.68 733.04 57.25 732.14 57.81 C 724.47 56.71 716.71 57.46 709.01 57.11 C 675.32 56.95 641.64 57.08 607.95 57.00 C 565.26 56.88 522.59 58.23 479.90 57.99 C 477.75 57.98 475.78 57.06 473.83 56.31 C 479.70 54.17 485.70 52.08 491.99 51.71 C 496.16 50.28 500.46 49.37 504.81 48.66 C 509.12 46.63 514.05 47.23 518.42 45.39 C 522.06 43.80 526.17 44.40 529.84 42.96 C 534.72 40.92 540.17 41.29 545.07 39.30 C 551.17 38.71 556.79 35.91 562.96 35.73 C 567.22 34.41 571.43 32.84 575.96 32.71 C 581.10 30.91 586.57 30.45 591.74 28.74 C 595.29 27.84 599.05 27.84 602.44 26.29 C 606.07 24.67 610.22 25.44 613.87 23.89 C 617.78 22.39 622.08 22.49 625.98 20.95 C 629.14 19.61 632.74 20.33 635.91 18.98 C 638.17 18.11 640.46 17.19 642.92 17.07 C 648.16 16.99 652.76 13.97 658.00 13.87 C 664.28 12.16 670.69 10.96 676.95 9.16 C 682.26 9.40 686.79 6.07 692.04 5.95 C 695.57 5.79 698.58 3.51 702.13 3.30 C 706.91 3.08 711.23 0.88 715.88 0.00 Z" />
<path fill="#000000" opacity="1.00" d=" M 108.98 70.98 C 108.50 68.68 110.94 67.52 112.89 67.96 C 132.27 68.41 151.65 67.82 171.04 68.02 C 174.35 68.16 177.53 69.66 180.88 69.20 C 185.93 68.60 191.00 69.09 196.05 68.82 C 200.23 68.10 204.51 67.57 208.72 68.40 C 216.07 70.05 223.58 68.35 231.00 69.25 C 290.00 69.66 348.99 68.94 408.00 69.42 C 413.33 70.25 418.73 68.44 423.97 69.84 C 429.30 70.45 434.67 69.34 440.03 69.96 C 446.99 68.90 454.01 69.84 461.02 69.57 C 470.67 69.52 480.33 69.80 489.99 69.72 C 505.62 68.38 521.33 69.25 537.00 69.00 C 563.02 69.00 589.03 68.96 615.05 69.19 C 625.03 69.27 635.14 68.09 645.00 70.06 C 648.07 70.04 651.02 68.64 654.12 69.00 C 656.11 69.20 658.02 70.02 660.05 69.95 C 667.60 68.60 675.46 68.44 682.99 70.01 C 686.02 69.75 688.98 68.52 692.07 69.06 C 695.72 69.71 699.37 69.11 703.03 68.99 C 730.00 69.00 756.98 69.02 783.96 68.98 C 792.30 69.20 800.63 68.24 808.96 68.95 C 820.66 69.02 832.37 69.15 844.07 68.62 C 846.04 68.39 848.40 69.70 848.03 71.96 C 847.91 90.29 848.26 108.63 847.42 126.94 C 848.52 143.63 847.90 160.39 847.92 177.10 C 846.58 184.33 847.13 191.68 847.03 198.98 C 847.07 214.66 846.97 230.34 847.09 246.01 C 848.98 255.90 847.80 266.02 848.24 276.02 C 848.62 279.78 846.87 283.30 847.02 287.04 C 847.16 305.71 847.05 324.39 847.11 343.07 C 849.16 350.90 847.89 359.03 848.22 367.03 C 847.91 373.69 849.07 380.49 847.16 386.98 C 846.68 401.33 847.58 415.70 847.02 430.04 C 847.00 442.70 847.12 455.36 847.05 468.02 C 847.00 471.72 848.32 475.30 848.03 479.02 C 847.67 489.35 848.79 499.78 847.06 510.02 C 847.11 534.35 847.02 558.68 847.05 583.01 C 848.67 590.88 847.76 598.94 847.98 606.92 C 847.82 613.32 848.39 619.76 847.53 626.13 C 848.45 638.70 847.81 651.34 848.00 663.95 C 847.87 677.50 848.29 691.07 847.70 704.62 C 846.81 712.51 847.26 720.43 847.00 728.35 C 846.90 731.94 848.23 735.43 847.93 739.04 C 846.14 750.44 847.30 762.05 847.07 773.55 C 846.95 786.38 847.08 799.21 846.97 812.03 C 846.74 817.53 848.86 822.83 848.04 828.37 C 847.49 839.23 848.03 850.10 848.01 860.98 C 847.90 863.66 846.89 866.23 846.97 868.95 C 847.04 898.30 846.98 927.65 847.00 957.00 C 847.10 960.71 846.70 964.44 847.22 968.14 C 848.44 973.69 847.79 979.41 848.01 985.04 C 848.18 989.36 847.92 993.68 847.30 997.96 C 847.44 1018.30 848.14 1038.64 847.99 1058.99 C 847.51 1065.39 849.70 1071.60 849.01 1078.02 C 849.44 1080.82 846.79 1083.39 844.03 1083.15 C 837.69 1082.99 831.35 1082.98 825.02 1083.00 C 805.39 1081.21 785.64 1082.33 765.95 1081.97 C 761.27 1081.70 756.71 1083.18 752.03 1082.79 C 739.02 1082.38 725.96 1083.36 713.00 1081.97 C 686.66 1082.01 660.32 1082.02 633.99 1081.97 C 631.28 1081.86 628.70 1082.89 626.01 1082.88 C 613.01 1082.63 600.00 1083.06 587.01 1082.68 C 581.75 1081.59 576.38 1082.08 571.06 1082.00 C 557.04 1081.98 543.02 1082.03 529.01 1081.97 C 525.63 1081.86 522.36 1082.95 518.99 1082.81 C 515.96 1082.75 512.98 1081.62 509.94 1082.06 C 507.61 1082.36 505.28 1082.82 502.93 1082.61 C 498.27 1082.14 493.59 1083.20 488.95 1082.45 C 485.21 1081.83 481.43 1083.10 477.71 1082.32 C 476.25 1082.05 474.76 1081.96 473.31 1082.27 C 469.38 1083.13 465.40 1081.32 461.48 1082.37 C 458.30 1083.20 455.14 1082.06 451.96 1081.96 C 428.62 1081.95 405.29 1081.90 381.97 1082.34 C 351.64 1081.71 321.29 1081.95 290.96 1081.75 C 276.33 1082.38 261.68 1081.76 247.04 1081.98 C 222.03 1081.89 197.02 1081.89 172.01 1082.00 C 166.36 1082.08 160.66 1081.55 155.10 1082.84 C 142.74 1083.25 130.35 1082.75 117.97 1083.07 C 114.98 1083.24 111.99 1082.79 109.21 1081.68 C 108.57 1069.81 109.22 1057.91 109.00 1046.03 C 109.00 886.67 109.00 727.32 109.00 567.96 C 109.11 510.97 108.78 453.97 109.41 396.97 C 110.41 349.63 109.85 302.28 110.01 254.93 C 109.98 222.28 110.04 189.64 109.97 156.99 C 110.05 150.34 109.40 143.72 109.25 137.08 C 108.69 115.05 109.19 93.01 108.98 70.98 M 409.41 98.14 C 408.47 98.68 407.53 99.22 406.59 99.76 C 402.52 100.72 399.80 104.11 396.46 106.35 C 393.66 108.04 392.39 111.18 390.24 113.51 C 389.53 115.69 388.87 117.91 387.18 119.55 C 387.00 122.26 386.93 125.10 385.23 127.38 C 384.64 128.87 383.88 130.36 384.00 132.01 C 384.01 156.36 383.97 180.72 384.01 205.07 C 383.92 206.69 384.74 208.14 385.26 209.63 C 385.64 210.55 386.00 211.48 386.34 212.43 C 387.23 214.17 386.96 216.16 387.08 218.04 C 389.59 220.71 390.27 224.54 392.80 227.23 C 396.12 230.54 399.12 234.45 403.60 236.28 C 404.52 236.76 405.44 237.27 406.36 237.80 C 409.22 239.47 412.88 238.59 415.47 240.94 C 423.49 241.05 431.51 241.01 439.53 240.96 C 440.47 240.30 441.42 239.66 442.38 239.03 C 443.43 238.99 444.48 238.96 445.54 238.92 C 453.94 234.85 462.51 229.42 466.29 220.49 C 468.10 218.22 468.89 215.34 469.22 212.50 C 471.84 208.51 470.87 203.59 471.05 199.10 C 470.78 198.56 470.24 197.47 469.97 196.93 C 461.67 197.04 453.36 197.04 445.05 196.93 C 443.38 198.78 443.78 201.21 443.95 203.47 C 443.05 204.75 442.17 206.04 441.25 207.30 C 440.82 208.45 440.33 209.57 439.83 210.69 C 437.82 211.70 436.10 213.35 433.92 213.93 C 429.44 214.13 424.95 213.94 420.47 213.98 C 418.70 212.18 416.91 210.41 415.15 208.62 C 414.60 205.02 413.41 201.54 412.95 197.95 C 413.10 178.28 412.93 158.61 413.02 138.95 C 413.45 135.71 414.38 132.55 415.16 129.38 C 416.55 126.70 418.65 124.47 421.39 123.14 C 425.40 122.45 429.85 121.05 433.66 123.20 C 434.56 123.71 435.47 124.22 436.40 124.71 C 440.14 125.74 440.94 129.66 442.75 132.53 C 443.83 135.20 443.83 138.05 443.96 140.88 C 452.80 143.14 462.04 141.71 470.99 140.97 C 470.85 136.76 471.71 132.31 469.70 128.42 C 468.63 125.84 469.16 122.89 467.84 120.37 C 466.93 119.15 466.30 117.76 465.74 116.36 C 465.26 115.43 464.79 114.49 464.32 113.55 C 461.78 109.53 458.95 105.47 454.58 103.28 C 452.30 101.88 450.21 99.98 447.40 99.80 C 446.65 99.22 445.90 98.64 445.16 98.07 C 438.04 97.56 431.22 94.25 424.01 95.10 C 419.29 96.74 414.35 97.53 409.41 98.14 M 477.58 98.54 C 476.07 100.69 479.13 102.64 478.90 104.90 C 478.80 107.57 479.40 110.18 480.93 112.40 C 480.98 114.11 481.01 115.82 481.09 117.53 C 481.87 119.20 482.53 120.93 483.32 122.61 C 484.74 125.20 483.31 128.45 484.97 131.03 C 486.74 134.26 487.31 137.84 487.09 141.51 C 489.24 145.47 490.39 149.93 490.07 154.45 C 492.72 156.79 491.89 160.43 492.06 163.55 C 495.03 167.28 495.35 171.90 495.05 176.48 C 497.76 179.51 498.14 183.72 498.08 187.60 C 499.60 190.51 501.05 193.65 500.96 197.00 C 501.04 198.48 500.83 200.05 501.68 201.37 C 504.18 204.45 501.81 208.79 504.21 211.90 C 506.49 214.86 506.04 218.63 505.99 222.12 C 506.65 223.07 507.31 224.03 507.95 225.00 C 508.17 227.89 508.62 230.76 509.15 233.61 C 510.12 235.42 510.49 237.89 512.52 238.88 C 519.98 239.19 527.47 238.88 534.94 239.02 C 536.77 238.91 538.75 239.32 540.48 238.49 C 541.54 235.68 540.75 232.55 541.09 229.62 C 542.14 227.65 542.84 225.51 543.88 223.53 C 544.05 220.78 544.00 217.93 545.28 215.41 C 546.71 212.00 546.22 208.06 547.69 204.63 C 549.69 200.92 549.25 196.51 550.65 192.63 C 552.68 190.13 551.76 186.86 552.11 183.93 C 552.62 181.81 554.04 180.05 554.84 178.04 C 555.30 175.35 554.44 172.42 555.88 169.95 C 557.78 166.42 556.58 162.06 558.73 158.60 C 561.23 153.85 558.99 147.52 562.93 143.41 C 562.90 140.01 562.74 136.41 564.83 133.50 C 564.92 133.03 565.11 132.09 565.21 131.62 C 566.38 129.44 565.92 126.91 566.05 124.55 C 569.62 121.19 566.96 115.59 569.74 111.65 C 571.37 108.78 570.71 105.31 572.26 102.41 C 573.49 101.08 573.50 97.71 571.03 98.02 C 562.37 98.00 553.70 97.92 545.04 98.06 C 544.66 98.19 543.90 98.45 543.52 98.58 C 542.51 102.45 543.38 106.65 541.73 110.45 C 539.95 114.59 542.05 119.49 539.81 123.62 C 539.21 124.90 538.67 126.21 538.05 127.47 C 537.92 130.30 538.18 133.14 537.85 135.95 C 537.15 137.81 536.34 139.63 535.67 141.51 C 533.89 144.87 536.14 149.03 534.24 152.34 C 531.49 156.68 534.49 162.25 531.74 166.62 C 531.14 167.89 530.65 169.21 530.07 170.49 C 529.90 174.03 530.13 177.58 529.93 181.12 C 529.41 183.88 528.05 186.38 527.14 189.02 C 526.78 193.71 527.09 198.44 527.01 203.14 C 525.58 203.14 523.52 203.29 523.19 201.43 C 522.68 196.14 523.24 190.80 522.92 185.50 C 519.51 180.06 519.90 173.66 519.93 167.52 C 517.82 164.09 516.60 160.08 517.00 156.03 C 517.57 151.78 514.95 148.14 514.07 144.15 C 513.92 141.94 514.01 139.71 513.93 137.50 C 510.17 132.79 513.57 126.41 510.76 121.38 C 507.53 116.77 510.26 110.95 508.02 106.08 C 507.08 103.42 506.68 100.61 505.63 97.99 C 497.75 97.99 489.87 98.01 481.99 97.98 C 480.50 98.04 478.95 97.85 477.58 98.54 M 229.55 135.04 C 228.26 136.31 226.91 137.55 225.24 138.31 C 224.55 139.75 223.79 141.17 223.28 142.70 C 223.55 144.33 223.93 145.95 224.14 147.59 C 225.83 149.44 227.58 151.25 229.39 153.00 C 266.91 153.01 304.44 152.98 341.97 153.02 C 347.24 153.30 350.75 148.10 352.13 143.63 C 349.64 140.37 347.97 134.93 343.05 135.00 C 305.22 135.02 267.38 134.95 229.55 135.04 M 612.36 134.99 C 609.57 137.37 606.84 140.11 605.11 143.35 C 605.85 148.02 609.70 153.38 615.01 153.01 C 652.52 152.96 690.03 153.06 727.54 152.97 C 732.24 150.95 735.39 145.17 732.88 140.35 C 731.28 138.41 729.53 136.61 727.61 135.00 C 689.19 135.00 650.78 135.01 612.36 134.99 M 181.43 184.05 C 178.21 185.56 175.26 187.62 173.11 190.51 C 172.83 192.17 172.98 193.87 173.01 195.55 C 174.68 197.31 175.58 200.17 178.15 200.83 C 185.63 202.33 193.31 200.26 200.82 201.61 C 202.55 201.93 204.30 202.08 206.06 201.94 C 214.35 201.14 222.67 202.43 230.96 201.51 C 242.61 201.66 254.27 201.31 265.92 201.77 C 279.27 200.71 292.68 202.13 306.02 201.32 C 319.54 201.61 333.06 201.49 346.57 200.99 C 348.93 198.82 350.95 196.13 352.00 193.09 C 351.11 191.30 350.38 189.43 349.30 187.75 C 347.59 186.17 345.20 185.57 343.44 184.04 C 330.99 184.44 318.53 183.97 306.07 184.05 C 264.53 183.96 222.98 183.96 181.43 184.05 M 606.02 190.39 C 604.59 194.67 607.16 198.39 610.36 200.96 C 626.86 202.27 643.41 200.68 659.91 201.72 C 670.26 201.02 680.63 201.93 690.98 201.49 C 710.64 201.75 730.30 201.50 749.96 201.80 C 759.90 201.65 769.88 202.55 779.75 200.96 C 781.34 199.30 782.58 197.36 783.97 195.55 C 785.13 192.48 783.39 189.68 781.63 187.30 C 779.86 186.31 778.10 185.28 776.51 184.03 C 722.97 183.94 669.43 184.01 615.89 184.00 C 611.53 183.85 608.73 187.55 606.02 190.39 M 119.97 287.03 C 120.59 305.01 121.08 323.01 120.78 341.00 C 121.84 346.12 121.65 351.34 121.35 356.54 C 120.71 367.66 121.12 378.82 121.00 389.96 C 121.16 397.00 120.60 404.16 121.44 411.12 C 121.38 413.08 121.63 415.04 121.52 417.01 C 120.51 436.32 121.31 455.67 120.79 474.99 C 121.12 486.62 120.59 498.30 121.40 509.89 C 120.56 514.24 121.77 518.62 120.99 522.98 C 121.12 550.07 120.58 577.18 121.72 604.24 C 122.42 606.60 123.18 609.95 121.55 611.95 C 121.16 616.29 120.75 620.66 121.12 625.02 C 121.61 629.67 120.72 634.31 120.99 638.97 C 120.92 718.99 120.92 799.01 120.99 879.03 C 120.57 925.70 121.00 972.37 120.90 1019.04 C 120.79 1034.37 121.36 1049.71 120.58 1065.02 C 120.38 1067.20 121.03 1070.51 123.93 1069.99 C 203.62 1070.01 283.31 1069.99 363.00 1070.00 C 371.04 1070.26 379.18 1069.31 387.13 1070.81 C 389.46 1071.26 391.61 1069.74 393.95 1069.99 C 540.93 1070.04 687.91 1069.95 834.89 1070.03 C 835.37 1068.75 836.12 1067.49 836.00 1066.08 C 835.93 1055.09 836.19 1044.08 835.76 1033.10 C 836.36 1027.72 835.73 1022.35 835.52 1016.99 C 836.25 1010.01 835.97 1002.99 835.96 996.00 C 836.03 882.32 835.98 768.63 836.00 654.94 C 836.09 591.30 835.73 527.69 835.97 464.07 C 836.14 437.02 835.54 409.97 835.79 382.92 C 835.15 369.93 836.18 356.91 835.51 343.93 C 836.36 323.44 835.89 302.92 835.99 282.43 C 835.22 281.60 834.47 280.77 833.75 279.93 C 829.14 280.61 824.54 279.84 819.93 279.97 C 809.91 280.46 799.90 281.36 789.86 280.89 C 782.33 279.29 774.49 279.82 766.94 280.97 C 747.29 281.01 727.64 281.02 707.99 280.98 C 705.44 281.31 703.05 279.21 700.58 280.53 C 698.79 281.58 697.02 279.77 695.24 280.28 C 691.62 281.56 687.75 280.67 684.02 280.97 C 682.08 281.23 680.32 279.67 678.42 280.22 C 675.72 281.21 672.83 281.03 670.01 281.01 C 625.68 280.96 581.33 281.06 537.00 280.96 C 530.02 279.68 523.04 281.24 516.03 280.97 C 503.01 280.85 489.98 281.33 476.97 280.71 C 449.64 281.06 422.28 280.98 394.94 281.00 C 339.97 280.82 285.02 280.88 230.03 281.06 C 227.65 281.12 225.30 280.67 222.96 280.34 C 220.39 280.77 217.77 281.19 215.26 280.24 C 213.88 280.67 212.46 281.09 211.00 281.02 C 195.66 280.74 180.32 281.22 164.97 280.93 C 156.02 280.50 146.96 281.70 138.08 280.09 C 133.49 279.76 128.86 280.27 124.27 279.65 C 120.97 279.92 119.72 284.18 119.97 287.03 Z" />
<path fill="#000000" opacity="1.00" d=" M 80.93 144.05 C 86.39 144.18 91.42 141.42 96.92 141.87 C 97.44 143.18 98.05 144.51 97.99 145.96 C 98.28 168.96 96.93 191.94 97.02 214.95 C 97.02 240.31 96.94 265.68 97.10 291.05 C 97.75 312.04 97.63 333.04 97.37 354.03 C 97.11 355.09 96.59 356.04 95.83 356.89 C 93.93 357.09 92.08 357.71 90.52 358.84 C 87.91 359.62 85.20 359.92 82.49 360.14 C 78.72 362.83 73.85 362.09 69.56 363.21 C 66.91 365.81 62.96 364.53 59.84 366.06 C 60.61 371.50 60.40 377.22 62.73 382.29 C 63.15 385.98 63.10 389.83 64.94 393.21 C 66.86 396.74 65.13 401.07 67.25 404.55 C 69.29 407.94 68.59 412.00 69.50 415.65 C 71.77 419.79 71.07 424.71 72.79 429.03 C 73.54 430.92 74.03 432.90 74.01 434.96 C 73.81 439.56 77.28 443.34 77.01 447.97 C 76.87 451.17 78.83 453.91 79.11 457.04 C 79.69 460.04 79.63 463.22 80.96 466.03 C 82.77 469.43 81.24 473.56 83.17 476.94 C 85.04 480.56 84.77 484.67 85.36 488.55 C 88.11 493.70 87.31 499.79 89.79 505.03 C 89.33 511.83 93.82 517.68 93.12 524.51 C 95.32 527.91 95.37 532.09 96.00 535.97 C 96.26 538.78 98.33 541.15 98.01 544.06 C 98.00 557.36 97.99 570.66 98.05 583.97 C 98.03 586.56 98.15 589.22 97.34 591.72 C 96.17 591.52 96.34 589.92 95.92 589.13 C 95.39 585.93 92.84 583.34 93.04 580.00 C 93.42 573.90 89.08 568.71 89.86 562.52 C 87.61 558.54 87.56 553.85 86.82 549.46 C 84.97 546.97 85.02 543.85 84.80 540.92 C 84.54 537.08 81.76 533.87 82.02 529.96 C 82.41 526.48 79.97 523.70 79.48 520.39 C 78.84 517.84 79.39 515.07 78.27 512.65 C 76.24 508.64 77.02 503.89 75.24 499.79 C 73.23 495.89 74.71 491.20 72.33 487.42 C 70.13 483.69 71.98 479.06 69.74 475.37 C 67.82 471.49 68.72 466.90 66.88 463.03 C 65.61 460.45 66.05 457.50 65.44 454.77 C 64.89 451.43 62.56 448.53 63.00 445.02 C 63.45 440.39 59.64 436.71 60.04 432.04 C 60.37 428.37 57.66 425.43 57.72 421.80 C 57.36 416.42 54.57 411.56 54.75 406.11 C 53.26 401.85 51.48 397.66 51.85 393.02 C 49.06 388.15 50.18 382.24 47.80 377.24 C 46.31 373.81 47.76 369.72 45.47 366.53 C 43.00 362.83 45.12 358.05 42.73 354.38 C 40.94 350.93 41.54 346.91 40.70 343.24 C 39.75 340.90 38.71 338.56 38.96 335.97 C 39.29 332.90 37.49 330.35 36.39 327.67 C 35.68 325.15 36.09 322.49 35.96 319.92 C 32.64 315.62 34.13 309.82 31.93 305.11 C 30.29 302.10 31.50 298.58 30.65 295.41 C 29.66 293.00 27.90 290.78 28.06 288.04 C 28.08 285.07 27.97 281.99 26.15 279.48 C 25.40 275.64 25.59 271.54 23.78 267.98 C 22.64 265.79 23.15 263.26 22.89 260.91 C 22.72 258.08 20.65 255.84 20.16 253.10 C 19.89 250.93 19.98 248.74 19.92 246.56 C 16.03 242.19 18.53 235.62 15.09 231.11 C 14.96 227.54 14.99 223.81 13.22 220.59 C 11.04 216.54 12.84 211.61 10.50 207.55 C 8.34 203.73 9.85 199.13 7.85 195.32 C 5.89 191.46 6.70 186.89 4.93 182.99 C 3.18 179.18 3.97 174.69 2.02 170.93 C 0.69 168.32 0.49 165.32 1.06 162.48 C 4.56 160.08 8.73 159.93 12.80 159.73 C 17.03 158.11 21.30 156.64 25.90 156.78 C 31.02 154.14 37.39 155.89 42.02 152.04 C 45.57 151.95 49.53 152.65 52.47 150.15 C 56.16 148.77 60.33 149.66 63.88 147.84 C 67.09 146.10 71.00 147.85 74.25 146.22 C 76.41 145.31 78.49 143.91 80.93 144.05 Z" />
<path fill="#000000" opacity="1.00" d=" M 317.12 317.82 C 328.97 315.12 340.66 319.75 352.46 320.26 C 356.94 322.39 362.09 321.44 366.46 323.85 C 366.93 323.94 367.88 324.12 368.35 324.21 C 370.39 325.09 372.70 325.13 374.65 326.31 C 376.61 327.04 378.72 327.31 380.63 328.21 C 382.74 329.64 385.22 330.28 387.57 331.21 C 388.79 332.05 390.13 332.69 391.50 333.27 C 395.69 335.96 400.30 337.91 404.42 340.71 C 409.02 343.65 413.41 346.86 417.53 350.44 C 423.28 355.65 429.78 360.16 434.41 366.50 C 435.65 368.28 437.36 369.68 438.57 371.50 C 440.33 374.36 443.38 376.23 444.74 379.39 C 446.50 383.06 449.79 385.78 451.40 389.56 C 452.40 392.07 454.47 393.99 455.23 396.64 C 457.36 399.33 458.09 402.62 459.74 405.55 C 460.01 406.51 460.32 407.46 460.65 408.41 C 462.67 411.19 462.77 414.69 464.32 417.65 C 465.25 419.89 465.10 422.44 466.23 424.63 C 469.40 431.96 469.91 440.12 470.79 447.98 C 470.61 454.63 472.85 461.16 471.77 467.82 C 470.34 476.31 471.83 485.26 469.17 493.51 C 468.98 497.31 468.49 501.21 466.70 504.63 C 465.77 506.84 465.35 509.23 464.80 511.56 C 462.26 514.68 462.64 519.08 460.76 522.59 C 460.51 523.09 459.99 524.09 459.73 524.58 C 459.23 525.51 458.74 526.45 458.26 527.39 C 456.36 531.15 454.99 535.26 452.28 538.53 C 451.96 539.49 451.65 540.46 451.37 541.43 C 450.09 543.98 448.02 546.03 446.73 548.57 C 445.52 551.84 442.12 553.48 440.72 556.58 C 435.20 564.27 428.89 571.51 421.34 577.32 C 417.85 580.57 413.67 582.97 410.18 586.23 C 405.49 589.62 400.37 592.32 395.42 595.32 C 394.92 595.56 393.92 596.04 393.42 596.28 C 392.92 596.53 391.92 597.03 391.42 597.28 C 390.09 597.97 388.75 598.64 387.40 599.28 C 386.07 599.96 384.73 600.62 383.38 601.24 C 382.45 601.80 381.53 602.37 380.62 602.94 C 380.09 602.99 379.03 603.09 378.50 603.14 C 376.86 603.99 375.13 604.63 373.43 605.32 C 371.91 606.21 370.12 605.96 368.44 606.07 C 367.66 606.71 366.88 607.35 366.09 607.99 C 363.45 607.77 360.93 608.54 358.42 609.22 C 355.35 611.54 351.49 610.86 347.92 611.11 C 338.39 612.95 328.63 614.69 318.90 613.53 C 314.09 612.78 309.02 612.93 304.46 611.10 C 301.46 610.72 298.23 611.65 295.42 610.30 C 291.82 609.35 288.35 607.69 284.54 607.88 C 282.93 606.25 280.68 605.87 278.49 605.85 C 277.96 605.56 276.92 604.99 276.39 604.70 C 275.11 604.15 273.81 603.66 272.54 603.11 C 272.05 603.05 271.07 602.93 270.57 602.87 C 269.25 602.04 267.86 601.34 266.44 600.70 C 265.93 600.46 264.91 599.99 264.40 599.75 C 263.47 599.24 262.54 598.74 261.61 598.25 C 259.10 597.27 256.77 595.94 254.38 594.72 C 248.69 591.88 243.78 587.86 238.58 584.28 C 234.31 581.38 230.30 578.04 226.76 574.26 C 223.29 571.39 219.48 568.76 217.08 564.87 C 214.15 560.22 209.35 557.01 206.97 552.00 C 204.91 548.24 202.09 544.97 199.72 541.41 C 198.57 539.83 197.56 538.15 196.62 536.44 C 196.30 535.44 196.01 534.44 195.76 533.44 C 194.37 529.11 191.27 525.64 189.68 521.46 C 189.35 520.45 189.03 519.44 188.73 518.44 C 187.26 516.40 187.20 513.85 186.30 511.60 C 185.66 510.26 185.07 508.90 184.67 507.47 C 184.05 505.86 183.97 504.14 183.87 502.45 C 183.27 501.13 182.73 499.78 182.08 498.50 C 182.25 488.90 178.55 479.65 179.00 470.00 C 178.70 459.95 179.81 449.93 181.84 440.10 C 181.87 436.46 182.31 432.84 183.80 429.48 C 184.00 427.79 184.02 426.04 184.70 424.45 C 185.14 422.40 185.85 420.42 186.82 418.56 C 186.96 416.13 187.49 413.72 188.72 411.60 C 189.60 409.57 190.38 407.50 191.24 405.47 C 192.03 404.16 192.69 402.79 193.28 401.40 C 193.53 400.90 194.03 399.90 194.27 399.40 C 195.10 397.80 195.90 396.20 196.73 394.60 C 197.52 392.30 199.12 390.48 200.32 388.42 C 202.41 383.15 206.91 379.41 209.63 374.51 C 211.30 371.58 214.17 369.65 216.27 367.07 C 221.46 360.63 228.22 355.77 233.80 349.71 C 238.20 346.90 242.25 343.54 246.61 340.71 C 250.82 338.08 255.01 335.46 259.51 333.32 C 260.91 332.77 262.26 332.09 263.50 331.24 C 265.16 330.61 266.83 330.01 268.46 329.30 C 270.68 328.10 273.02 327.00 275.59 326.82 C 276.52 326.23 277.45 325.64 278.39 325.05 C 279.43 325.00 280.47 324.95 281.52 324.90 C 284.98 322.71 288.86 321.61 292.96 321.82 C 300.72 318.96 309.09 319.30 317.12 317.82 M 311.76 357.18 C 309.37 357.69 306.84 357.70 304.59 358.71 C 302.94 359.38 301.25 359.94 299.49 360.20 C 296.79 362.45 293.20 363.11 290.44 365.30 C 289.41 365.95 288.38 366.59 287.33 367.20 C 279.86 373.67 272.66 381.22 270.29 391.12 C 269.93 392.90 270.05 394.80 269.28 396.49 C 268.79 399.10 267.50 401.72 268.38 404.40 C 269.31 407.89 268.81 411.52 269.11 415.07 C 270.04 419.49 271.16 423.91 271.14 428.46 C 271.63 429.44 272.02 430.45 272.32 431.51 C 273.23 433.78 273.81 436.17 274.17 438.59 C 275.18 440.47 275.95 442.46 276.67 444.48 C 277.34 445.84 278.06 447.18 278.88 448.47 C 278.94 448.96 279.06 449.95 279.12 450.44 C 281.92 454.80 284.43 459.40 285.19 464.60 C 286.32 466.88 287.14 469.30 288.25 471.60 C 289.09 472.93 289.67 474.40 290.12 475.92 C 292.25 481.10 297.35 484.04 300.59 488.40 C 301.59 492.27 301.05 496.48 300.75 500.45 C 297.02 502.31 294.10 505.32 290.41 507.25 C 289.16 508.08 287.84 508.79 286.69 509.75 C 285.61 511.13 285.66 513.17 284.22 514.33 C 282.56 515.51 280.55 516.00 278.56 516.23 C 277.24 516.73 275.89 517.15 274.57 517.67 C 274.09 517.95 273.13 518.50 272.65 518.78 C 270.96 519.41 269.26 520.01 267.59 520.70 C 264.91 522.04 262.12 523.19 259.57 524.79 C 258.18 525.41 256.82 526.07 255.48 526.78 C 253.32 527.69 251.43 529.05 249.48 530.31 C 246.97 531.77 244.79 533.71 242.33 535.24 C 237.31 540.34 231.74 545.66 229.97 552.85 C 229.58 554.56 226.82 556.47 228.68 558.16 C 234.96 564.95 242.22 570.71 249.57 576.28 C 250.85 577.09 252.14 577.89 253.41 578.73 C 256.08 580.38 258.69 582.14 261.38 583.75 C 262.75 584.35 264.08 585.03 265.40 585.74 C 268.91 586.98 272.13 588.88 275.59 590.27 C 278.25 592.11 281.66 592.03 284.37 593.77 C 287.45 595.53 291.46 594.19 294.05 596.98 C 300.24 596.27 305.95 599.17 311.96 599.97 C 321.34 599.98 330.73 600.11 340.11 599.91 C 345.30 598.34 350.64 597.01 356.09 596.90 C 357.70 596.79 359.09 595.84 360.48 595.12 C 361.49 595.03 362.50 594.95 363.52 594.88 C 365.21 594.12 366.96 593.48 368.63 592.66 C 370.61 591.96 372.73 591.72 374.62 590.77 C 377.08 589.30 379.99 588.83 382.38 587.23 C 383.76 586.62 385.17 586.06 386.67 585.80 C 387.78 583.09 391.63 583.79 393.62 581.79 C 399.43 577.95 405.01 573.78 410.65 569.69 C 413.68 566.00 417.63 563.17 421.21 560.05 C 422.61 558.11 421.84 555.58 421.99 553.37 C 419.88 551.65 419.37 548.97 418.77 546.49 C 415.46 542.10 411.99 537.74 407.46 534.53 C 400.24 528.15 391.14 524.52 382.62 520.24 C 380.94 519.58 379.24 518.99 377.60 518.27 C 374.35 516.75 370.73 516.31 367.48 514.84 C 365.45 513.90 365.25 511.56 364.39 509.78 C 360.59 507.56 357.25 504.68 353.60 502.25 C 352.46 501.76 351.34 501.25 350.27 500.65 C 348.23 497.76 349.37 493.85 349.66 490.58 C 349.77 487.43 353.41 486.93 354.75 484.56 C 356.94 480.81 360.09 477.70 361.73 473.63 C 362.24 472.54 362.77 471.47 363.28 470.38 C 364.70 467.92 365.84 465.29 366.25 462.46 C 367.45 460.17 367.62 457.41 369.22 455.34 C 371.09 452.98 371.90 450.02 373.30 447.39 C 373.93 445.70 374.55 444.00 375.32 442.37 C 377.00 436.71 377.60 430.76 378.86 424.99 C 379.15 415.70 379.73 406.07 376.16 397.26 C 377.30 395.61 378.91 394.44 380.71 393.60 C 381.85 391.62 382.86 389.57 383.99 387.59 C 384.14 384.75 384.13 381.84 382.70 379.29 C 381.65 378.97 380.60 378.63 379.57 378.27 C 375.93 377.39 372.45 375.86 368.67 375.76 C 366.61 373.98 363.87 373.65 361.59 372.30 C 360.24 371.62 358.90 370.96 357.57 370.28 C 356.49 369.80 355.43 369.30 354.36 368.81 C 353.13 367.92 351.86 367.10 350.59 366.27 C 348.20 365.06 346.03 363.44 343.60 362.30 C 340.33 360.12 336.78 358.30 333.00 357.21 C 329.88 357.02 326.98 355.85 323.95 355.21 C 319.81 355.32 315.88 356.88 311.76 357.18 Z" />
<path fill="#000000" opacity="1.00" d=" M 534.47 349.19 C 538.82 347.14 543.47 349.28 548.01 348.86 C 625.01 349.14 701.99 348.91 779.00 349.00 C 782.80 349.14 786.79 348.26 790.47 349.56 C 793.62 351.49 795.92 354.45 797.97 357.47 C 798.01 360.49 798.02 363.51 797.97 366.54 C 796.15 369.52 793.82 372.23 790.65 373.82 C 789.14 374.33 787.66 375.07 786.03 374.99 C 703.68 375.01 621.32 374.98 538.96 375.02 C 536.69 375.16 534.59 374.26 532.42 373.80 C 530.12 371.67 527.48 369.61 526.68 366.43 C 524.64 363.47 525.57 359.76 526.72 356.66 C 528.21 353.21 531.58 351.31 534.47 349.19 Z" />
<path fill="#000000" opacity="1.00" d=" M 527.18 414.44 C 528.65 411.55 531.45 409.82 533.98 407.97 C 619.35 408.00 704.72 408.06 790.09 407.95 C 793.03 410.43 796.03 413.00 798.01 416.35 C 797.80 419.38 798.54 422.57 797.44 425.47 C 795.58 428.32 793.03 430.64 790.48 432.86 C 777.68 433.59 764.83 433.04 752.02 433.08 C 700.02 432.90 648.03 433.04 596.04 433.00 C 576.37 432.79 556.71 433.84 537.04 433.36 C 535.82 433.23 534.62 433.08 533.42 432.91 C 529.60 429.49 525.78 425.62 525.25 420.24 C 525.74 418.25 526.53 416.37 527.18 414.44 Z" />
<path fill="#000000" opacity="1.00" d=" M 527.26 473.37 C 529.48 467.50 536.11 465.26 541.93 465.95 C 623.60 466.07 705.28 465.96 786.95 466.01 C 788.62 465.89 789.96 467.06 791.44 467.66 C 793.98 468.96 795.89 471.18 797.44 473.54 C 798.48 478.28 799.03 484.57 794.57 487.83 C 791.94 489.54 789.39 492.23 786.02 492.01 C 702.47 491.96 618.92 492.04 535.37 491.98 C 532.20 490.10 528.58 488.33 527.22 484.63 C 526.52 482.46 525.38 480.39 525.05 478.13 C 525.75 476.53 526.69 475.03 527.26 473.37 Z" />
<path fill="#000000" opacity="1.00" d=" M 527.25 531.44 C 528.73 527.47 532.98 525.29 536.84 524.26 C 553.89 524.48 570.96 524.46 588.02 524.80 C 598.38 524.94 608.76 525.34 619.09 524.36 C 622.38 523.97 625.65 524.60 628.93 524.92 C 672.30 525.10 715.68 524.75 759.05 524.39 C 768.67 524.50 778.32 525.07 787.92 524.09 C 791.85 526.11 795.54 528.68 797.97 532.51 C 797.80 535.82 798.58 539.31 797.43 542.50 C 795.70 544.77 794.33 547.52 791.67 548.83 C 787.58 550.45 783.32 551.53 778.90 550.85 C 753.93 551.09 728.95 550.95 703.97 551.03 C 700.40 551.34 697.11 549.35 693.52 550.06 C 690.66 552.49 687.08 549.83 683.91 549.85 C 680.52 549.52 677.40 551.30 674.02 551.02 C 670.21 550.82 666.27 551.54 662.59 550.31 C 657.92 548.85 653.01 552.88 648.49 550.17 C 645.29 549.43 642.08 549.66 639.05 550.90 C 627.38 551.01 615.67 551.29 604.01 550.56 C 582.97 550.82 561.93 550.93 540.89 551.01 C 539.68 551.02 538.54 550.78 537.46 550.29 C 535.73 549.86 534.05 549.34 532.34 548.89 C 530.88 547.91 529.49 546.82 528.15 545.70 C 527.69 544.26 527.20 542.84 526.78 541.40 C 526.07 539.78 524.52 538.17 525.20 536.28 C 525.80 534.63 526.59 533.06 527.25 531.44 Z" />
<path fill="#000000" opacity="1.00" d=" M 532.46 584.08 C 536.97 584.06 541.41 582.75 545.93 583.62 C 590.29 584.40 634.68 583.81 679.06 584.00 C 716.27 584.00 753.48 584.03 790.69 583.97 C 794.52 586.32 798.35 590.19 798.02 595.02 C 798.03 596.65 798.00 598.27 797.99 599.91 C 796.33 603.27 793.88 606.17 790.55 607.97 C 706.01 608.04 621.48 607.96 536.94 608.02 C 535.75 608.08 534.62 607.88 533.54 607.44 C 528.68 604.54 524.12 598.16 526.84 592.48 C 526.91 591.97 527.03 590.94 527.09 590.42 C 528.30 587.86 530.45 586.00 532.46 584.08 Z" />
<path fill="#000000" opacity="1.00" d=" M 859.17 625.00 C 863.73 628.33 862.23 634.39 863.96 639.06 C 865.46 642.74 864.58 646.93 866.30 650.57 C 868.41 654.67 867.48 659.49 869.38 663.65 C 871.14 667.54 870.47 671.99 872.06 675.93 C 873.42 679.65 873.23 683.75 874.72 687.44 C 876.33 691.31 875.66 695.68 877.35 699.54 C 879.18 703.71 878.58 708.44 880.34 712.63 C 881.83 716.31 881.60 720.38 882.86 724.12 C 884.39 728.06 884.00 732.47 885.77 736.35 C 887.48 740.19 886.49 744.66 888.51 748.42 C 890.44 752.23 889.44 756.73 891.21 760.60 C 892.91 764.46 892.70 768.72 893.38 772.80 C 894.60 777.20 895.29 781.77 897.15 785.99 C 898.41 789.03 897.68 792.42 898.34 795.59 C 899.14 798.07 900.77 800.31 900.87 803.00 C 901.05 805.35 901.34 807.71 902.04 809.99 C 903.09 813.45 902.98 817.21 904.63 820.49 C 906.15 823.32 905.87 826.58 906.35 829.67 C 907.12 832.78 909.03 835.61 908.95 838.94 C 908.80 843.49 911.57 847.42 911.83 851.92 C 911.80 855.83 914.05 859.24 914.13 863.13 C 914.10 867.32 917.00 870.81 916.96 874.99 C 916.95 877.59 917.57 880.11 918.63 882.49 C 920.24 886.10 919.58 890.23 921.10 893.88 C 922.07 896.46 922.50 899.21 922.91 901.94 C 923.38 905.38 925.14 908.52 925.17 912.05 C 925.13 916.26 927.89 919.81 927.96 923.99 C 927.96 926.52 928.77 928.93 929.72 931.26 C 931.15 934.67 930.55 938.51 931.85 941.95 C 932.74 944.20 933.10 946.59 933.38 949.00 C 933.76 953.11 936.11 956.79 936.05 960.99 C 936.00 964.89 938.92 968.03 938.90 971.93 C 938.86 973.93 939.39 975.80 941.00 977.14 L 941.00 989.81 C 938.42 989.93 935.85 990.27 933.49 991.35 C 929.81 992.98 925.57 992.24 921.94 994.00 C 918.80 995.57 915.12 994.46 911.92 995.77 C 909.06 996.92 906.09 997.87 902.99 997.92 C 899.46 997.81 896.45 1000.09 892.94 1000.05 C 890.15 1000.12 887.47 1000.93 884.89 1001.91 C 881.90 1003.12 878.58 1002.69 875.53 1003.60 C 870.91 1005.39 865.82 1005.04 861.18 1006.81 C 860.44 1006.16 859.72 1005.54 859.00 1004.92 C 859.00 1002.07 858.99 999.23 858.99 996.40 C 859.76 995.67 860.54 994.96 861.34 994.26 C 867.40 991.95 873.90 991.31 880.03 989.26 C 884.18 988.98 888.04 987.53 891.95 986.26 C 897.58 986.27 902.47 982.91 908.09 982.88 C 911.24 982.67 913.76 980.20 916.97 980.18 C 919.61 979.65 923.41 980.74 924.96 977.86 C 924.22 972.82 924.30 967.54 922.18 962.82 C 920.80 959.35 921.57 955.44 920.07 952.03 C 918.46 948.37 919.15 944.18 917.43 940.56 C 915.50 936.70 916.62 932.19 914.85 928.31 C 912.89 924.14 913.49 919.38 911.87 915.13 C 910.60 911.39 911.09 907.26 909.31 903.66 C 907.59 900.06 908.45 895.90 906.87 892.28 C 905.84 889.65 905.31 886.87 905.07 884.08 C 904.93 880.90 903.24 878.09 902.93 874.95 C 902.60 871.95 901.82 869.03 900.78 866.21 C 899.47 862.70 900.60 858.73 898.84 855.34 C 896.71 851.24 897.60 846.43 895.79 842.26 C 894.98 840.25 894.97 838.06 894.70 835.95 C 894.34 832.19 891.87 828.93 892.04 825.08 C 892.24 821.18 889.86 817.82 889.80 813.99 C 889.67 811.12 889.36 808.27 888.43 805.55 C 887.04 801.59 887.22 797.29 885.67 793.39 C 884.25 789.42 884.60 785.01 882.67 781.21 C 880.82 777.70 881.37 773.61 880.04 769.97 C 878.52 765.98 879.05 761.54 877.37 757.60 C 875.34 753.48 876.70 748.63 874.53 744.56 C 872.79 740.92 873.44 736.76 872.08 733.03 C 870.57 729.05 871.10 724.62 869.29 720.73 C 867.45 716.83 868.55 712.31 866.71 708.41 C 864.99 704.44 865.29 699.98 863.78 695.95 C 862.88 693.26 863.07 690.36 862.34 687.65 C 859.04 679.22 858.86 669.96 859.00 661.01 C 859.05 653.66 858.92 646.32 858.94 638.97 C 859.10 634.29 857.05 629.50 859.17 625.00 Z" />
<path fill="#000000" opacity="1.00" d=" M 167.36 642.25 C 168.81 641.58 170.27 640.77 171.94 640.99 C 326.63 641.03 481.32 640.95 636.00 641.05 C 640.67 641.02 645.31 642.03 649.96 641.06 C 694.64 641.14 739.32 640.95 784.01 641.00 C 786.69 641.06 789.11 642.42 791.64 643.20 C 794.41 644.55 796.57 646.79 797.96 649.53 C 798.01 652.53 798.02 655.53 797.96 658.54 C 796.01 661.08 794.67 664.33 791.62 665.80 C 791.13 666.04 790.14 666.52 789.65 666.77 C 788.16 667.39 786.65 668.08 785.00 667.91 C 751.01 667.84 717.02 667.63 683.03 667.49 C 677.70 666.54 672.37 667.91 667.03 667.25 C 663.02 667.13 659.03 667.75 655.03 667.49 C 611.67 667.15 568.32 667.76 524.98 667.81 C 426.33 668.09 327.69 667.50 229.05 667.98 C 212.02 667.99 194.99 667.96 177.97 667.95 C 174.40 667.83 170.66 668.47 167.34 666.83 C 164.50 665.29 162.16 662.99 160.21 660.46 C 159.70 656.51 159.76 652.47 160.14 648.52 C 161.83 646.70 163.18 644.49 165.35 643.18 C 165.85 642.95 166.85 642.48 167.36 642.25 Z" />
<path fill="#000000" opacity="1.00" d=" M 167.56 700.59 C 168.63 700.10 169.75 699.89 170.94 699.98 C 376.80 700.07 582.66 699.91 788.52 700.06 C 789.03 700.36 790.06 700.95 790.57 701.25 C 793.92 702.64 796.06 705.63 797.94 708.58 C 797.97 711.22 798.17 713.90 797.86 716.54 C 796.47 719.64 794.54 722.76 791.47 724.42 C 789.78 724.89 788.02 725.11 786.44 725.89 C 744.98 726.13 703.51 725.95 662.04 725.99 C 648.01 725.81 633.95 726.37 619.93 725.68 C 593.96 725.71 567.97 725.71 541.98 725.73 C 464.30 726.28 386.63 725.84 308.95 725.99 C 263.63 725.98 218.32 725.99 173.00 726.01 C 170.75 726.14 168.66 725.23 166.50 724.81 C 163.53 723.67 161.87 720.94 160.03 718.53 C 159.98 714.85 159.98 711.18 160.03 707.51 C 161.80 704.42 164.53 702.34 167.56 700.59 Z" />
<path fill="#000000" opacity="1.00" d=" M 166.52 759.57 C 167.14 759.43 168.38 759.14 169.01 759.00 C 363.68 759.00 558.35 759.00 753.02 759.00 C 765.23 759.09 777.46 758.82 789.67 759.13 C 793.19 760.88 795.91 764.15 797.95 767.48 C 797.99 770.13 798.00 772.79 797.95 775.46 C 795.77 778.90 793.01 781.86 789.50 783.97 C 582.15 784.02 374.80 784.02 167.45 783.97 C 164.58 782.31 162.33 779.87 160.02 777.56 C 160.02 773.52 159.71 769.48 160.06 765.46 C 162.17 763.45 163.97 761.06 166.52 759.57 Z" />
<path fill="#000000" opacity="1.00" d=" M 169.50 817.63 C 170.59 817.11 171.75 816.90 172.96 816.98 C 252.97 817.04 332.98 816.96 412.99 817.02 C 419.33 816.79 425.64 818.34 431.96 817.13 C 546.00 816.95 659.94 817.05 773.96 817.00 C 779.78 817.31 786.05 815.68 791.44 818.63 C 794.46 820.01 796.00 823.03 797.80 825.64 C 798.25 828.24 797.93 830.94 797.97 833.59 C 797.39 834.51 796.83 835.45 796.29 836.41 C 795.30 838.58 793.48 840.15 791.44 841.31 C 790.06 842.15 788.74 843.32 787.10 843.51 C 776.75 842.58 766.35 843.16 755.97 843.00 C 578.97 843.00 401.97 843.00 224.97 843.00 C 206.14 842.90 187.27 843.18 168.46 842.89 C 164.97 841.25 161.94 838.97 160.07 835.52 C 160.01 834.51 159.95 833.51 159.89 832.52 C 157.94 830.09 160.70 827.13 160.08 824.35 C 162.58 821.32 165.86 819.09 169.50 817.63 Z" />
<path fill="#000000" opacity="1.00" d=" M 167.52 876.03 C 374.85 875.99 582.18 875.95 789.51 876.05 C 792.80 877.77 795.54 880.30 797.43 883.52 C 798.38 886.68 798.33 890.28 797.45 893.47 C 795.06 896.74 792.24 900.30 788.01 901.03 C 784.13 902.40 779.98 901.94 775.96 902.00 C 749.65 902.02 723.34 901.94 697.03 901.93 C 664.02 901.54 630.99 902.24 597.96 901.53 C 592.91 901.68 587.86 900.60 582.83 901.40 C 573.21 902.33 563.58 900.28 553.98 901.42 C 550.21 900.91 546.41 900.96 542.64 901.42 C 510.11 901.69 477.56 902.18 445.03 901.74 C 407.72 902.09 370.35 901.79 333.02 901.86 C 315.02 901.70 297.01 902.14 279.02 901.70 C 244.04 902.25 209.03 901.82 174.04 902.02 C 172.53 902.01 170.97 901.99 169.58 901.34 C 165.51 900.13 161.98 897.45 160.02 893.65 C 159.85 889.91 159.79 886.17 160.05 882.44 C 162.25 879.97 164.83 877.93 167.52 876.03 Z" />
<path fill="#000000" opacity="1.00" d=" M 160.11 941.50 C 162.89 939.20 164.89 934.55 169.01 934.98 C 376.18 935.06 583.36 934.93 790.53 935.03 C 793.52 936.81 795.87 939.36 797.97 942.12 C 797.96 944.95 798.17 947.81 797.86 950.64 C 795.73 955.29 791.68 960.53 785.96 960.02 C 580.13 959.91 374.30 959.97 168.46 959.97 C 165.18 958.11 162.63 955.24 160.11 952.50 C 159.89 948.84 159.89 945.15 160.11 941.50 Z" />
<path fill="#000000" opacity="1.00" d=" M 167.43 993.66 C 170.39 992.10 173.72 992.24 176.94 992.55 C 190.61 991.88 204.29 992.84 217.97 992.30 C 227.98 992.37 237.99 992.75 248.00 992.21 C 259.67 992.30 271.33 992.24 283.00 992.26 C 298.32 993.07 313.67 992.61 329.00 992.74 C 365.62 992.70 402.27 992.86 438.87 992.65 C 445.87 993.72 452.93 992.19 459.95 992.88 C 466.63 993.50 473.26 992.08 479.95 992.72 C 566.62 992.65 653.30 993.01 739.98 992.47 C 754.68 992.23 769.39 992.72 784.08 992.08 C 789.51 992.68 794.62 995.75 797.44 1000.51 C 798.51 1003.38 797.86 1006.51 797.96 1009.51 C 795.46 1012.51 793.49 1016.19 789.45 1017.34 C 789.06 1017.50 788.29 1017.81 787.91 1017.97 C 583.31 1018.01 378.68 1018.02 174.06 1017.98 C 170.68 1018.37 167.61 1016.81 164.51 1015.74 C 162.40 1014.63 161.55 1012.21 160.03 1010.52 C 159.97 1006.99 160.04 1003.47 159.95 999.95 C 162.04 997.48 164.07 994.43 167.43 993.66 Z" />
<path fill="#000000" opacity="1.00" d=" M 207.78 1094.13 C 211.11 1092.46 214.97 1092.82 218.55 1093.20 C 220.32 1094.43 220.75 1096.72 221.78 1098.52 C 222.88 1102.16 222.54 1106.16 224.26 1109.63 C 225.72 1113.03 225.29 1116.91 226.63 1120.36 C 228.38 1124.31 228.44 1128.70 229.06 1132.92 C 230.03 1133.57 230.86 1134.53 232.01 1134.90 C 236.06 1134.13 240.23 1133.94 244.04 1132.25 C 248.53 1131.73 253.08 1131.29 257.18 1129.24 C 263.73 1129.38 269.55 1125.70 276.12 1125.79 C 280.34 1123.81 285.04 1123.88 289.51 1122.82 C 292.85 1120.11 297.37 1121.80 301.04 1120.08 C 304.65 1118.45 308.63 1118.18 312.50 1117.72 C 317.34 1115.36 322.95 1116.11 327.86 1113.96 C 331.07 1112.32 334.85 1113.66 338.09 1112.19 C 340.91 1110.95 343.90 1110.03 347.02 1110.03 C 350.53 1110.09 353.53 1107.83 357.04 1107.84 C 362.22 1107.48 366.76 1104.37 372.06 1104.84 C 376.31 1102.98 380.81 1101.67 385.51 1101.90 C 389.32 1099.05 394.43 1100.42 398.62 1098.48 C 401.49 1096.98 404.71 1097.03 407.86 1096.80 C 423.25 1091.15 439.91 1093.48 455.95 1093.01 C 461.14 1093.48 466.57 1091.66 471.54 1093.75 C 469.72 1096.08 467.01 1097.44 464.02 1097.00 C 459.68 1096.34 456.15 1099.40 451.96 1099.75 C 449.61 1100.08 447.10 1099.79 444.96 1100.98 C 441.21 1103.01 436.72 1102.29 432.85 1103.94 C 428.94 1105.71 424.29 1104.34 420.56 1106.77 C 417.14 1108.95 412.76 1106.99 409.36 1109.20 C 405.61 1111.48 401.04 1110.39 397.10 1111.98 C 392.43 1113.67 387.31 1113.52 382.77 1115.62 C 379.38 1116.15 375.83 1116.07 372.73 1117.79 C 369.22 1119.76 364.95 1118.28 361.43 1120.25 C 357.06 1122.47 351.84 1121.05 347.62 1123.57 C 343.80 1124.52 339.67 1124.30 336.06 1126.10 C 333.67 1127.31 330.91 1126.74 328.39 1127.35 C 325.31 1128.40 322.38 1130.19 319.01 1129.97 C 316.64 1129.76 314.40 1130.44 312.50 1131.85 C 308.21 1133.07 303.48 1132.30 299.52 1134.62 C 296.21 1135.36 292.64 1135.07 289.51 1136.64 C 286.61 1138.18 283.32 1137.89 280.17 1138.20 C 277.95 1138.77 276.00 1140.10 273.76 1140.59 C 271.15 1141.12 268.34 1140.69 265.89 1141.92 C 261.83 1143.90 257.02 1142.94 252.99 1145.07 C 249.58 1146.78 245.46 1145.23 242.10 1147.21 C 238.70 1149.16 234.74 1149.20 230.94 1148.98 C 230.68 1149.49 230.16 1150.50 229.90 1151.01 C 226.30 1150.99 222.70 1150.99 219.10 1151.00 C 218.94 1149.17 219.18 1147.24 218.26 1145.60 C 215.95 1141.39 217.13 1136.24 214.98 1131.98 C 213.07 1128.53 214.91 1124.34 213.13 1120.87 C 210.97 1116.29 211.74 1110.98 209.72 1106.35 C 208.78 1102.33 208.76 1098.15 207.78 1094.13 Z" />
</g>
<g id="#ffffffff">
<path fill="#ffffff" opacity="1.00" d=" M 409.41 98.14 C 414.35 97.53 419.29 96.74 424.01 95.10 C 431.22 94.25 438.04 97.56 445.16 98.07 C 445.90 98.64 446.65 99.22 447.40 99.80 C 450.21 99.98 452.30 101.88 454.58 103.28 C 458.95 105.47 461.78 109.53 464.32 113.55 C 464.79 114.49 465.26 115.43 465.74 116.36 C 466.30 117.76 466.93 119.15 467.84 120.37 C 469.16 122.89 468.63 125.84 469.70 128.42 C 471.71 132.31 470.85 136.76 470.99 140.97 C 462.04 141.71 452.80 143.14 443.96 140.88 C 443.83 138.05 443.83 135.20 442.75 132.53 C 440.94 129.66 440.14 125.74 436.40 124.71 C 435.47 124.22 434.56 123.71 433.66 123.20 C 429.85 121.05 425.40 122.45 421.39 123.14 C 418.65 124.47 416.55 126.70 415.16 129.38 C 414.38 132.55 413.45 135.71 413.02 138.95 C 412.93 158.61 413.10 178.28 412.95 197.95 C 413.41 201.54 414.60 205.02 415.15 208.62 C 416.91 210.41 418.70 212.18 420.47 213.98 C 424.95 213.94 429.44 214.13 433.92 213.93 C 436.10 213.35 437.82 211.70 439.83 210.69 C 440.33 209.57 440.82 208.45 441.25 207.30 C 442.17 206.04 443.05 204.75 443.95 203.47 C 443.78 201.21 443.38 198.78 445.05 196.93 C 453.36 197.04 461.67 197.04 469.97 196.93 C 470.24 197.47 470.78 198.56 471.05 199.10 C 470.87 203.59 471.84 208.51 469.22 212.50 C 468.89 215.34 468.10 218.22 466.29 220.49 C 462.51 229.42 453.94 234.85 445.54 238.92 C 444.48 238.96 443.43 238.99 442.38 239.03 C 441.42 239.66 440.47 240.30 439.53 240.96 C 431.51 241.01 423.49 241.05 415.47 240.94 C 412.88 238.59 409.22 239.47 406.36 237.80 C 405.44 237.27 404.52 236.76 403.60 236.28 C 399.12 234.45 396.12 230.54 392.80 227.23 C 390.27 224.54 389.59 220.71 387.08 218.04 C 386.96 216.16 387.23 214.17 386.34 212.43 C 386.00 211.48 385.64 210.55 385.26 209.63 C 384.74 208.14 383.92 206.69 384.01 205.07 C 383.97 180.72 384.01 156.36 384.00 132.01 C 383.88 130.36 384.64 128.87 385.23 127.38 C 386.93 125.10 387.00 122.26 387.18 119.55 C 388.87 117.91 389.53 115.69 390.24 113.51 C 392.39 111.18 393.66 108.04 396.46 106.35 C 399.80 104.11 402.52 100.72 406.59 99.76 C 407.53 99.22 408.47 98.68 409.41 98.14 Z" />
<path fill="#ffffff" opacity="1.00" d=" M 477.58 98.54 C 478.95 97.85 480.50 98.04 481.99 97.98 C 489.87 98.01 497.75 97.99 505.63 97.99 C 506.68 100.61 507.08 103.42 508.02 106.08 C 510.26 110.95 507.53 116.77 510.76 121.38 C 513.57 126.41 510.17 132.79 513.93 137.50 C 514.01 139.71 513.92 141.94 514.07 144.15 C 514.95 148.14 517.57 151.78 517.00 156.03 C 516.60 160.08 517.82 164.09 519.93 167.52 C 519.90 173.66 519.51 180.06 522.92 185.50 C 523.24 190.80 522.68 196.14 523.19 201.43 C 523.52 203.29 525.58 203.14 527.01 203.14 C 527.09 198.44 526.78 193.71 527.14 189.02 C 528.05 186.38 529.41 183.88 529.93 181.12 C 530.13 177.58 529.90 174.03 530.07 170.49 C 530.65 169.21 531.14 167.89 531.74 166.62 C 534.49 162.25 531.49 156.68 534.24 152.34 C 536.14 149.03 533.89 144.87 535.67 141.51 C 536.34 139.63 537.15 137.81 537.85 135.95 C 538.18 133.14 537.92 130.30 538.05 127.47 C 538.67 126.21 539.21 124.90 539.81 123.62 C 542.05 119.49 539.95 114.59 541.73 110.45 C 543.38 106.65 542.51 102.45 543.52 98.58 C 543.90 98.45 544.66 98.19 545.04 98.06 C 553.70 97.92 562.37 98.00 571.03 98.02 C 573.50 97.71 573.49 101.08 572.26 102.41 C 570.71 105.31 571.37 108.78 569.74 111.65 C 566.96 115.59 569.62 121.19 566.05 124.55 C 565.92 126.91 566.38 129.44 565.21 131.62 C 565.11 132.09 564.92 133.03 564.83 133.50 C 562.74 136.41 562.90 140.01 562.93 143.41 C 558.99 147.52 561.23 153.85 558.73 158.60 C 556.58 162.06 557.78 166.42 555.88 169.95 C 554.44 172.42 555.30 175.35 554.84 178.04 C 554.04 180.05 552.62 181.81 552.11 183.93 C 551.76 186.86 552.68 190.13 550.65 192.63 C 549.25 196.51 549.69 200.92 547.69 204.63 C 546.22 208.06 546.71 212.00 545.28 215.41 C 544.00 217.93 544.05 220.78 543.88 223.53 C 542.84 225.51 542.14 227.65 541.09 229.62 C 540.75 232.55 541.54 235.68 540.48 238.49 C 538.75 239.32 536.77 238.91 534.94 239.02 C 527.47 238.88 519.98 239.19 512.52 238.88 C 510.49 237.89 510.12 235.42 509.15 233.61 C 508.62 230.76 508.17 227.89 507.95 225.00 C 507.31 224.03 506.65 223.07 505.99 222.12 C 506.04 218.63 506.49 214.86 504.21 211.90 C 501.81 208.79 504.18 204.45 501.68 201.37 C 500.83 200.05 501.04 198.48 500.96 197.00 C 501.05 193.65 499.60 190.51 498.08 187.60 C 498.14 183.72 497.76 179.51 495.05 176.48 C 495.35 171.90 495.03 167.28 492.06 163.55 C 491.89 160.43 492.72 156.79 490.07 154.45 C 490.39 149.93 489.24 145.47 487.09 141.51 C 487.31 137.84 486.74 134.26 484.97 131.03 C 483.31 128.45 484.74 125.20 483.32 122.61 C 482.53 120.93 481.87 119.20 481.09 117.53 C 481.01 115.82 480.98 114.11 480.93 112.40 C 479.40 110.18 478.80 107.57 478.90 104.90 C 479.13 102.64 476.07 100.69 477.58 98.54 Z" />
<path fill="#ffffff" opacity="1.00" d=" M 229.55 135.04 C 267.38 134.95 305.22 135.02 343.05 135.00 C 347.97 134.93 349.64 140.37 352.13 143.63 C 350.75 148.10 347.24 153.30 341.97 153.02 C 304.44 152.98 266.91 153.01 229.39 153.00 C 227.58 151.25 225.83 149.44 224.14 147.59 C 223.93 145.95 223.55 144.33 223.28 142.70 C 223.79 141.17 224.55 139.75 225.24 138.31 C 226.91 137.55 228.26 136.31 229.55 135.04 Z" />
<path fill="#ffffff" opacity="1.00" d=" M 612.36 134.99 C 650.78 135.01 689.19 135.00 727.61 135.00 C 729.53 136.61 731.28 138.41 732.88 140.35 C 735.39 145.17 732.24 150.95 727.54 152.97 C 690.03 153.06 652.52 152.96 615.01 153.01 C 609.70 153.38 605.85 148.02 605.11 143.35 C 606.84 140.11 609.57 137.37 612.36 134.99 Z" />
<path fill="#ffffff" opacity="1.00" d=" M 181.43 184.05 C 222.98 183.96 264.53 183.96 306.07 184.05 C 318.53 183.97 330.99 184.44 343.44 184.04 C 345.20 185.57 347.59 186.17 349.30 187.75 C 350.38 189.43 351.11 191.30 352.00 193.09 C 350.95 196.13 348.93 198.82 346.57 200.99 C 333.06 201.49 319.54 201.61 306.02 201.32 C 292.68 202.13 279.27 200.71 265.92 201.77 C 254.27 201.31 242.61 201.66 230.96 201.51 C 222.67 202.43 214.35 201.14 206.06 201.94 C 204.30 202.08 202.55 201.93 200.82 201.61 C 193.31 200.26 185.63 202.33 178.15 200.83 C 175.58 200.17 174.68 197.31 173.01 195.55 C 172.98 193.87 172.83 192.17 173.11 190.51 C 175.26 187.62 178.21 185.56 181.43 184.05 Z" />
<path fill="#ffffff" opacity="1.00" d=" M 606.02 190.39 C 608.73 187.55 611.53 183.85 615.89 184.00 C 669.43 184.01 722.97 183.94 776.51 184.03 C 778.10 185.28 779.86 186.31 781.63 187.30 C 783.39 189.68 785.13 192.48 783.97 195.55 C 782.58 197.36 781.34 199.30 779.75 200.96 C 769.88 202.55 759.90 201.65 749.96 201.80 C 730.30 201.50 710.64 201.75 690.98 201.49 C 680.63 201.93 670.26 201.02 659.91 201.72 C 643.41 200.68 626.86 202.27 610.36 200.96 C 607.16 198.39 604.59 194.67 606.02 190.39 Z" />
<path fill="#ffffff" opacity="1.00" d=" M 119.97 287.03 C 119.72 284.18 120.97 279.92 124.27 279.65 C 128.86 280.27 133.49 279.76 138.08 280.09 C 146.96 281.70 156.02 280.50 164.97 280.93 C 180.32 281.22 195.66 280.74 211.00 281.02 C 212.46 281.09 213.88 280.67 215.26 280.24 C 217.77 281.19 220.39 280.77 222.96 280.34 C 225.30 280.67 227.65 281.12 230.03 281.06 C 285.02 280.88 339.97 280.82 394.94 281.00 C 422.28 280.98 449.64 281.06 476.97 280.71 C 489.98 281.33 503.01 280.85 516.03 280.97 C 523.04 281.24 530.02 279.68 537.00 280.96 C 581.33 281.06 625.68 280.96 670.01 281.01 C 672.83 281.03 675.72 281.21 678.42 280.22 C 680.32 279.67 682.08 281.23 684.02 280.97 C 687.75 280.67 691.62 281.56 695.24 280.28 C 697.02 279.77 698.79 281.58 700.58 280.53 C 703.05 279.21 705.44 281.31 707.99 280.98 C 727.64 281.02 747.29 281.01 766.94 280.97 C 774.49 279.82 782.33 279.29 789.86 280.89 C 799.90 281.36 809.91 280.46 819.93 279.97 C 824.54 279.84 829.14 280.61 833.75 279.93 C 834.47 280.77 835.22 281.60 835.99 282.43 C 835.89 302.92 836.36 323.44 835.51 343.93 C 836.18 356.91 835.15 369.93 835.79 382.92 C 835.54 409.97 836.14 437.02 835.97 464.07 C 835.73 527.69 836.09 591.30 836.00 654.94 C 835.98 768.63 836.03 882.32 835.96 996.00 C 835.97 1002.99 836.25 1010.01 835.52 1016.99 C 835.73 1022.35 836.36 1027.72 835.76 1033.10 C 836.19 1044.08 835.93 1055.09 836.00 1066.08 C 836.12 1067.49 835.37 1068.75 834.89 1070.03 C 687.91 1069.95 540.93 1070.04 393.95 1069.99 C 391.61 1069.74 389.46 1071.26 387.13 1070.81 C 379.18 1069.31 371.04 1070.26 363.00 1070.00 C 283.31 1069.99 203.62 1070.01 123.93 1069.99 C 121.03 1070.51 120.38 1067.20 120.58 1065.02 C 121.36 1049.71 120.79 1034.37 120.90 1019.04 C 121.00 972.37 120.57 925.70 120.99 879.03 C 120.92 799.01 120.92 718.99 120.99 638.97 C 120.72 634.31 121.61 629.67 121.12 625.02 C 120.75 620.66 121.16 616.29 121.55 611.95 C 123.18 609.95 122.42 606.60 121.72 604.24 C 120.58 577.18 121.12 550.07 120.99 522.98 C 121.77 518.62 120.56 514.24 121.40 509.89 C 120.59 498.30 121.12 486.62 120.79 474.99 C 121.31 455.67 120.51 436.32 121.52 417.01 C 121.63 415.04 121.38 413.08 121.44 411.12 C 122.33 410.01 122.83 408.73 122.95 407.30 L 123.54 407.94 C 123.53 404.01 123.69 400.10 123.81 396.18 L 125.18 397.14 C 124.31 394.15 124.69 391.01 124.69 387.95 C 124.84 381.35 124.61 374.76 124.60 368.16 L 123.69 368.54 C 123.91 364.32 123.18 360.17 122.29 356.07 L 121.35 356.54 C 121.65 351.34 121.84 346.12 120.78 341.00 C 121.08 323.01 120.59 305.01 119.97 287.03 M 317.12 317.82 C 309.09 319.30 300.72 318.96 292.96 321.82 C 288.86 321.61 284.98 322.71 281.52 324.90 C 280.47 324.95 279.43 325.00 278.39 325.05 C 277.45 325.64 276.52 326.23 275.59 326.82 C 273.02 327.00 270.68 328.10 268.46 329.30 C 266.83 330.01 265.16 330.61 263.50 331.24 C 262.26 332.09 260.91 332.77 259.51 333.32 C 255.01 335.46 250.82 338.08 246.61 340.71 C 242.25 343.54 238.20 346.90 233.80 349.71 C 228.22 355.77 221.46 360.63 216.27 367.07 C 214.17 369.65 211.30 371.58 209.63 374.51 C 206.91 379.41 202.41 383.15 200.32 388.42 C 199.12 390.48 197.52 392.30 196.73 394.60 C 195.90 396.20 195.10 397.80 194.27 399.40 C 194.03 399.90 193.53 400.90 193.28 401.40 C 192.69 402.79 192.03 404.16 191.24 405.47 C 190.38 407.50 189.60 409.57 188.72 411.60 C 187.49 413.72 186.96 416.13 186.82 418.56 C 185.85 420.42 185.14 422.40 184.70 424.45 C 184.02 426.04 184.00 427.79 183.80 429.48 C 182.31 432.84 181.87 436.46 181.84 440.10 C 179.81 449.93 178.70 459.95 179.00 470.00 C 178.55 479.65 182.25 488.90 182.08 498.50 C 182.73 499.78 183.27 501.13 183.87 502.45 C 183.97 504.14 184.05 505.86 184.67 507.47 C 185.07 508.90 185.66 510.26 186.30 511.60 C 187.20 513.85 187.26 516.40 188.73 518.44 C 189.03 519.44 189.35 520.45 189.68 521.46 C 191.27 525.64 194.37 529.11 195.76 533.44 C 196.01 534.44 196.30 535.44 196.62 536.44 C 197.56 538.15 198.57 539.83 199.72 541.41 C 202.09 544.97 204.91 548.24 206.97 552.00 C 209.35 557.01 214.15 560.22 217.08 564.87 C 219.48 568.76 223.29 571.39 226.76 574.26 C 230.30 578.04 234.31 581.38 238.58 584.28 C 243.78 587.86 248.69 591.88 254.38 594.72 C 256.77 595.94 259.10 597.27 261.61 598.25 C 262.54 598.74 263.47 599.24 264.40 599.75 C 264.91 599.99 265.93 600.46 266.44 600.70 C 267.86 601.34 269.25 602.04 270.57 602.87 C 271.07 602.93 272.05 603.05 272.54 603.11 C 273.81 603.66 275.11 604.15 276.39 604.70 C 276.92 604.99 277.96 605.56 278.49 605.85 C 280.68 605.87 282.93 606.25 284.54 607.88 C 288.35 607.69 291.82 609.35 295.42 610.30 C 298.23 611.65 301.46 610.72 304.46 611.10 C 309.02 612.93 314.09 612.78 318.90 613.53 C 328.63 614.69 338.39 612.95 347.92 611.11 C 351.49 610.86 355.35 611.54 358.42 609.22 C 360.93 608.54 363.45 607.77 366.09 607.99 C 366.88 607.35 367.66 606.71 368.44 606.07 C 370.12 605.96 371.91 606.21 373.43 605.32 C 375.13 604.63 376.86 603.99 378.50 603.14 C 379.03 603.09 380.09 602.99 380.62 602.94 C 381.53 602.37 382.45 601.80 383.38 601.24 C 384.73 600.62 386.07 599.96 387.40 599.28 C 388.75 598.64 390.09 597.97 391.42 597.28 C 391.92 597.03 392.92 596.53 393.42 596.28 C 393.92 596.04 394.92 595.56 395.42 595.32 C 400.37 592.32 405.49 589.62 410.18 586.23 C 413.67 582.97 417.85 580.57 421.34 577.32 C 428.89 571.51 435.20 564.27 440.72 556.58 C 442.12 553.48 445.52 551.84 446.73 548.57 C 448.02 546.03 450.09 543.98 451.37 541.43 C 451.65 540.46 451.96 539.49 452.28 538.53 C 454.99 535.26 456.36 531.15 458.26 527.39 C 458.74 526.45 459.23 525.51 459.73 524.58 C 459.99 524.09 460.51 523.09 460.76 522.59 C 462.64 519.08 462.26 514.68 464.80 511.56 C 465.35 509.23 465.77 506.84 466.70 504.63 C 468.49 501.21 468.98 497.31 469.17 493.51 C 471.83 485.26 470.34 476.31 471.77 467.82 C 472.85 461.16 470.61 454.63 470.79 447.98 C 469.91 440.12 469.40 431.96 466.23 424.63 C 465.10 422.44 465.25 419.89 464.32 417.65 C 462.77 414.69 462.67 411.19 460.65 408.41 C 460.32 407.46 460.01 406.51 459.74 405.55 C 458.09 402.62 457.36 399.33 455.23 396.64 C 454.47 393.99 452.40 392.07 451.40 389.56 C 449.79 385.78 446.50 383.06 444.74 379.39 C 443.38 376.23 440.33 374.36 438.57 371.50 C 437.36 369.68 435.65 368.28 434.41 366.50 C 429.78 360.16 423.28 355.65 417.53 350.44 C 413.41 346.86 409.02 343.65 404.42 340.71 C 400.30 337.91 395.69 335.96 391.50 333.27 C 390.13 332.69 388.79 332.05 387.57 331.21 C 385.22 330.28 382.74 329.64 380.63 328.21 C 378.72 327.31 376.61 327.04 374.65 326.31 C 372.70 325.13 370.39 325.09 368.35 324.21 C 367.88 324.12 366.93 323.94 366.46 323.85 C 362.09 321.44 356.94 322.39 352.46 320.26 C 340.66 319.75 328.97 315.12 317.12 317.82 M 534.47 349.19 C 531.58 351.31 528.21 353.21 526.72 356.66 C 525.57 359.76 524.64 363.47 526.68 366.43 C 527.48 369.61 530.12 371.67 532.42 373.80 C 534.59 374.26 536.69 375.16 538.96 375.02 C 621.32 374.98 703.68 375.01 786.03 374.99 C 787.66 375.07 789.14 374.33 790.65 373.82 C 793.82 372.23 796.15 369.52 797.97 366.54 C 798.02 363.51 798.01 360.49 797.97 357.47 C 795.92 354.45 793.62 351.49 790.47 349.56 C 786.79 348.26 782.80 349.14 779.00 349.00 C 701.99 348.91 625.01 349.14 548.01 348.86 C 543.47 349.28 538.82 347.14 534.47 349.19 M 527.18 414.44 C 526.53 416.37 525.74 418.25 525.25 420.24 C 525.78 425.62 529.60 429.49 533.42 432.91 C 534.62 433.08 535.82 433.23 537.04 433.36 C 556.71 433.84 576.37 432.79 596.04 433.00 C 648.03 433.04 700.02 432.90 752.02 433.08 C 764.83 433.04 777.68 433.59 790.48 432.86 C 793.03 430.64 795.58 428.32 797.44 425.47 C 798.54 422.57 797.80 419.38 798.01 416.35 C 796.03 413.00 793.03 410.43 790.09 407.95 C 704.72 408.06 619.35 408.00 533.98 407.97 C 531.45 409.82 528.65 411.55 527.18 414.44 M 527.26 473.37 C 526.69 475.03 525.75 476.53 525.05 478.13 C 525.38 480.39 526.52 482.46 527.22 484.63 C 528.58 488.33 532.20 490.10 535.37 491.98 C 618.92 492.04 702.47 491.96 786.02 492.01 C 789.39 492.23 791.94 489.54 794.57 487.83 C 799.03 484.57 798.48 478.28 797.44 473.54 C 795.89 471.18 793.98 468.96 791.44 467.66 C 789.96 467.06 788.62 465.89 786.95 466.01 C 705.28 465.96 623.60 466.07 541.93 465.95 C 536.11 465.26 529.48 467.50 527.26 473.37 M 527.25 531.44 C 526.59 533.06 525.80 534.63 525.20 536.28 C 524.52 538.17 526.07 539.78 526.78 541.40 C 527.20 542.84 527.69 544.26 528.15 545.70 C 529.49 546.82 530.88 547.91 532.34 548.89 C 534.05 549.34 535.73 549.86 537.46 550.29 C 538.54 550.78 539.68 551.02 540.89 551.01 C 561.93 550.93 582.97 550.82 604.01 550.56 C 615.67 551.29 627.38 551.01 639.05 550.90 C 642.08 549.66 645.29 549.43 648.49 550.17 C 653.01 552.88 657.92 548.85 662.59 550.31 C 666.27 551.54 670.21 550.82 674.02 551.02 C 677.40 551.30 680.52 549.52 683.91 549.85 C 687.08 549.83 690.66 552.49 693.52 550.06 C 697.11 549.35 700.40 551.34 703.97 551.03 C 728.95 550.95 753.93 551.09 778.90 550.85 C 783.32 551.53 787.58 550.45 791.67 548.83 C 794.33 547.52 795.70 544.77 797.43 542.50 C 798.58 539.31 797.80 535.82 797.97 532.51 C 795.54 528.68 791.85 526.11 787.92 524.09 C 778.32 525.07 768.67 524.50 759.05 524.39 C 715.68 524.75 672.30 525.10 628.93 524.92 C 625.65 524.60 622.38 523.97 619.09 524.36 C 608.76 525.34 598.38 524.94 588.02 524.80 C 570.96 524.46 553.89 524.48 536.84 524.26 C 532.98 525.29 528.73 527.47 527.25 531.44 M 532.46 584.08 C 530.45 586.00 528.30 587.86 527.09 590.42 C 527.03 590.94 526.91 591.97 526.84 592.48 C 524.12 598.16 528.68 604.54 533.54 607.44 C 534.62 607.88 535.75 608.08 536.94 608.02 C 621.48 607.96 706.01 608.04 790.55 607.97 C 793.88 606.17 796.33 603.27 797.99 599.91 C 798.00 598.27 798.03 596.65 798.02 595.02 C 798.35 590.19 794.52 586.32 790.69 583.97 C 753.48 584.03 716.27 584.00 679.06 584.00 C 634.68 583.81 590.29 584.40 545.93 583.62 C 541.41 582.75 536.97 584.06 532.46 584.08 M 167.36 642.25 C 166.85 642.48 165.85 642.95 165.35 643.18 C 163.18 644.49 161.83 646.70 160.14 648.52 C 159.76 652.47 159.70 656.51 160.21 660.46 C 162.16 662.99 164.50 665.29 167.34 666.83 C 170.66 668.47 174.40 667.83 177.97 667.95 C 194.99 667.96 212.02 667.99 229.05 667.98 C 327.69 667.50 426.33 668.09 524.98 667.81 C 568.32 667.76 611.67 667.15 655.03 667.49 C 659.03 667.75 663.02 667.13 667.03 667.25 C 672.37 667.91 677.70 666.54 683.03 667.49 C 717.02 667.63 751.01 667.84 785.00 667.91 C 786.65 668.08 788.16 667.39 789.65 666.77 C 790.14 666.52 791.13 666.04 791.62 665.80 C 794.67 664.33 796.01 661.08 797.96 658.54 C 798.02 655.53 798.01 652.53 797.96 649.53 C 796.57 646.79 794.41 644.55 791.64 643.20 C 789.11 642.42 786.69 641.06 784.01 641.00 C 739.32 640.95 694.64 641.14 649.96 641.06 C 645.31 642.03 640.67 641.02 636.00 641.05 C 481.32 640.95 326.63 641.03 171.94 640.99 C 170.27 640.77 168.81 641.58 167.36 642.25 M 167.56 700.59 C 164.53 702.34 161.80 704.42 160.03 707.51 C 159.98 711.18 159.98 714.85 160.03 718.53 C 161.87 720.94 163.53 723.67 166.50 724.81 C 168.66 725.23 170.75 726.14 173.00 726.01 C 218.32 725.99 263.63 725.98 308.95 725.99 C 386.63 725.84 464.30 726.28 541.98 725.73 C 567.97 725.71 593.96 725.71 619.93 725.68 C 633.95 726.37 648.01 725.81 662.04 725.99 C 703.51 725.95 744.98 726.13 786.44 725.89 C 788.02 725.11 789.78 724.89 791.47 724.42 C 794.54 722.76 796.47 719.64 797.86 716.54 C 798.17 713.90 797.97 711.22 797.94 708.58 C 796.06 705.63 793.92 702.64 790.57 701.25 C 790.06 700.95 789.03 700.36 788.52 700.06 C 582.66 699.91 376.80 700.07 170.94 699.98 C 169.75 699.89 168.63 700.10 167.56 700.59 M 166.52 759.57 C 163.97 761.06 162.17 763.45 160.06 765.46 C 159.71 769.48 160.02 773.52 160.02 777.56 C 162.33 779.87 164.58 782.31 167.45 783.97 C 374.80 784.02 582.15 784.02 789.50 783.97 C 793.01 781.86 795.77 778.90 797.95 775.46 C 798.00 772.79 797.99 770.13 797.95 767.48 C 795.91 764.15 793.19 760.88 789.67 759.13 C 777.46 758.82 765.23 759.09 753.02 759.00 C 558.35 759.00 363.68 759.00 169.01 759.00 C 168.38 759.14 167.14 759.43 166.52 759.57 M 169.50 817.63 C 165.86 819.09 162.58 821.32 160.08 824.35 C 160.70 827.13 157.94 830.09 159.89 832.52 C 159.95 833.51 160.01 834.51 160.07 835.52 C 161.94 838.97 164.97 841.25 168.46 842.89 C 187.27 843.18 206.14 842.90 224.97 843.00 C 401.97 843.00 578.97 843.00 755.97 843.00 C 766.35 843.16 776.75 842.58 787.10 843.51 C 788.74 843.32 790.06 842.15 791.44 841.31 C 793.48 840.15 795.30 838.58 796.29 836.41 C 796.83 835.45 797.39 834.51 797.97 833.59 C 797.93 830.94 798.25 828.24 797.80 825.64 C 796.00 823.03 794.46 820.01 791.44 818.63 C 786.05 815.68 779.78 817.31 773.96 817.00 C 659.94 817.05 546.00 816.95 431.96 817.13 C 425.64 818.34 419.33 816.79 412.99 817.02 C 332.98 816.96 252.97 817.04 172.96 816.98 C 171.75 816.90 170.59 817.11 169.50 817.63 M 167.52 876.03 C 164.83 877.93 162.25 879.97 160.05 882.44 C 159.79 886.17 159.85 889.91 160.02 893.65 C 161.98 897.45 165.51 900.13 169.58 901.34 C 170.97 901.99 172.53 902.01 174.04 902.02 C 209.03 901.82 244.04 902.25 279.02 901.70 C 297.01 902.14 315.02 901.70 333.02 901.86 C 370.35 901.79 407.72 902.09 445.03 901.74 C 477.56 902.18 510.11 901.69 542.64 901.42 C 546.41 900.96 550.21 900.91 553.98 901.42 C 563.58 900.28 573.21 902.33 582.83 901.40 C 587.86 900.60 592.91 901.68 597.96 901.53 C 630.99 902.24 664.02 901.54 697.03 901.93 C 723.34 901.94 749.65 902.02 775.96 902.00 C 779.98 901.94 784.13 902.40 788.01 901.03 C 792.24 900.30 795.06 896.74 797.45 893.47 C 798.33 890.28 798.38 886.68 797.43 883.52 C 795.54 880.30 792.80 877.77 789.51 876.05 C 582.18 875.95 374.85 875.99 167.52 876.03 M 160.11 941.50 C 159.89 945.15 159.89 948.84 160.11 952.50 C 162.63 955.24 165.18 958.11 168.46 959.97 C 374.30 959.97 580.13 959.91 785.96 960.02 C 791.68 960.53 795.73 955.29 797.86 950.64 C 798.17 947.81 797.96 944.95 797.97 942.12 C 795.87 939.36 793.52 936.81 790.53 935.03 C 583.36 934.93 376.18 935.06 169.01 934.98 C 164.89 934.55 162.89 939.20 160.11 941.50 M 167.43 993.66 C 164.07 994.43 162.04 997.48 159.95 999.95 C 160.04 1003.47 159.97 1006.99 160.03 1010.52 C 161.55 1012.21 162.40 1014.63 164.51 1015.74 C 167.61 1016.81 170.68 1018.37 174.06 1017.98 C 378.68 1018.02 583.31 1018.01 787.91 1017.97 C 788.29 1017.81 789.06 1017.50 789.45 1017.34 C 793.49 1016.19 795.46 1012.51 797.96 1009.51 C 797.86 1006.51 798.51 1003.38 797.44 1000.51 C 794.62 995.75 789.51 992.68 784.08 992.08 C 769.39 992.72 754.68 992.23 739.98 992.47 C 653.30 993.01 566.62 992.65 479.95 992.72 C 473.26 992.08 466.63 993.50 459.95 992.88 C 452.93 992.19 445.87 993.72 438.87 992.65 C 402.27 992.86 365.62 992.70 329.00 992.74 C 313.67 992.61 298.32 993.07 283.00 992.26 C 271.33 992.24 259.67 992.30 248.00 992.21 C 237.99 992.75 227.98 992.37 217.97 992.30 C 204.29 992.84 190.61 991.88 176.94 992.55 C 173.72 992.24 170.39 992.10 167.43 993.66 Z" />
<path fill="#ffffff" opacity="1.00" d=" M 311.76 357.18 C 315.88 356.88 319.81 355.32 323.95 355.21 C 326.98 355.85 329.88 357.02 333.00 357.21 C 336.78 358.30 340.33 360.12 343.60 362.30 C 346.03 363.44 348.20 365.06 350.59 366.27 C 351.86 367.10 353.13 367.92 354.36 368.81 C 355.43 369.30 356.49 369.80 357.57 370.28 C 358.90 370.96 360.24 371.62 361.59 372.30 C 363.87 373.65 366.61 373.98 368.67 375.76 C 372.45 375.86 375.93 377.39 379.57 378.27 C 380.60 378.63 381.65 378.97 382.70 379.29 C 384.13 381.84 384.14 384.75 383.99 387.59 C 382.86 389.57 381.85 391.62 380.71 393.60 C 378.91 394.44 377.30 395.61 376.16 397.26 C 379.73 406.07 379.15 415.70 378.86 424.99 C 377.60 430.76 377.00 436.71 375.32 442.37 C 374.55 444.00 373.93 445.70 373.30 447.39 C 371.90 450.02 371.09 452.98 369.22 455.34 C 367.62 457.41 367.45 460.17 366.25 462.46 C 365.84 465.29 364.70 467.92 363.28 470.38 C 362.77 471.47 362.24 472.54 361.73 473.63 C 360.09 477.70 356.94 480.81 354.75 484.56 C 353.41 486.93 349.77 487.43 349.66 490.58 C 349.37 493.85 348.23 497.76 350.27 500.65 C 351.34 501.25 352.46 501.76 353.60 502.25 C 357.25 504.68 360.59 507.56 364.39 509.78 C 365.25 511.56 365.45 513.90 367.48 514.84 C 370.73 516.31 374.35 516.75 377.60 518.27 C 379.24 518.99 380.94 519.58 382.62 520.24 C 391.14 524.52 400.24 528.15 407.46 534.53 C 411.99 537.74 415.46 542.10 418.77 546.49 C 419.37 548.97 419.88 551.65 421.99 553.37 C 421.84 555.58 422.61 558.11 421.21 560.05 C 417.63 563.17 413.68 566.00 410.65 569.69 C 405.01 573.78 399.43 577.95 393.62 581.79 C 391.63 583.79 387.78 583.09 386.67 585.80 C 385.17 586.06 383.76 586.62 382.38 587.23 C 379.99 588.83 377.08 589.30 374.62 590.77 C 372.73 591.72 370.61 591.96 368.63 592.66 C 366.96 593.48 365.21 594.12 363.52 594.88 C 362.50 594.95 361.49 595.03 360.48 595.12 C 359.09 595.84 357.70 596.79 356.09 596.90 C 350.64 597.01 345.30 598.34 340.11 599.91 C 330.73 600.11 321.34 599.98 311.96 599.97 C 305.95 599.17 300.24 596.27 294.05 596.98 C 291.46 594.19 287.45 595.53 284.37 593.77 C 281.66 592.03 278.25 592.11 275.59 590.27 C 272.13 588.88 268.91 586.98 265.40 585.74 C 264.08 585.03 262.75 584.35 261.38 583.75 C 258.69 582.14 256.08 580.38 253.41 578.73 C 252.14 577.89 250.85 577.09 249.57 576.28 C 242.22 570.71 234.96 564.95 228.68 558.16 C 226.82 556.47 229.58 554.56 229.97 552.85 C 231.74 545.66 237.31 540.34 242.33 535.24 C 244.79 533.71 246.97 531.77 249.48 530.31 C 251.43 529.05 253.32 527.69 255.48 526.78 C 256.82 526.07 258.18 525.41 259.57 524.79 C 262.12 523.19 264.91 522.04 267.59 520.70 C 269.26 520.01 270.96 519.41 272.65 518.78 C 273.13 518.50 274.09 517.95 274.57 517.67 C 275.89 517.15 277.24 516.73 278.56 516.23 C 280.55 516.00 282.56 515.51 284.22 514.33 C 285.66 513.17 285.61 511.13 286.69 509.75 C 287.84 508.79 289.16 508.08 290.41 507.25 C 294.10 505.32 297.02 502.31 300.75 500.45 C 301.05 496.48 301.59 492.27 300.59 488.40 C 297.35 484.04 292.25 481.10 290.12 475.92 C 289.67 474.40 289.09 472.93 288.25 471.60 C 287.14 469.30 286.32 466.88 285.19 464.60 C 284.43 459.40 281.92 454.80 279.12 450.44 C 279.06 449.95 278.94 448.96 278.88 448.47 C 278.06 447.18 277.34 445.84 276.67 444.48 C 275.95 442.46 275.18 440.47 274.17 438.59 C 273.81 436.17 273.23 433.78 272.32 431.51 C 272.02 430.45 271.63 429.44 271.14 428.46 C 271.16 423.91 270.04 419.49 269.11 415.07 C 268.81 411.52 269.31 407.89 268.38 404.40 C 267.50 401.72 268.79 399.10 269.28 396.49 C 270.05 394.80 269.93 392.90 270.29 391.12 C 272.66 381.22 279.86 373.67 287.33 367.20 C 288.38 366.59 289.41 365.95 290.44 365.30 C 293.20 363.11 296.79 362.45 299.49 360.20 C 301.25 359.94 302.94 359.38 304.59 358.71 C 306.84 357.70 309.37 357.69 311.76 357.18 Z" />
<path fill="#ffffff" opacity="1.00" d=" M 847.00 728.35 C 847.26 720.43 846.81 712.51 847.70 704.62 C 849.12 712.44 848.95 720.62 847.00 728.35 Z" />
<path fill="#ffffff" opacity="1.00" d=" M 847.07 773.55 C 849.78 781.28 849.83 789.52 849.37 797.59 L 848.65 797.45 C 848.46 800.81 848.46 804.19 848.66 807.56 L 849.37 807.40 C 849.64 814.41 849.96 821.53 848.04 828.37 C 848.86 822.83 846.74 817.53 846.97 812.03 C 847.08 799.21 846.95 786.38 847.07 773.55 Z" />
</g>
</svg>
