<?xml version="1.0" encoding="UTF-8" ?>
<!DOCTYPE svg PUBLIC "-//W3C//DTD SVG 1.1//EN" "http://www.w3.org/Graphics/SVG/1.1/DTD/svg11.dtd">
<svg width="1280pt" height="1461pt" viewBox="0 0 1280 1461" version="1.1" xmlns="http://www.w3.org/2000/svg">
<g id="#3b444c53">
<path fill="#3b444c" opacity="0.33" d=" M 0.00 0.00 L 1280.00 0.00 L 1280.00 0.97 C 853.33 1.16 426.67 0.91 0.00 1.10 L 0.00 0.00 Z" />
</g>
<g id="#4963778d">
<path fill="#496377" opacity="0.55" d=" M 0.00 1.10 C 426.67 0.91 853.33 1.16 1280.00 0.97 L 1280.00 2.07 C 1102.68 2.25 925.35 2.08 748.03 2.16 C 740.02 1.67 732.01 2.29 724.00 2.16 C 676.34 2.14 628.68 2.21 581.03 2.09 C 560.67 2.06 540.30 2.44 519.95 1.92 C 496.64 2.42 473.31 2.05 449.99 2.15 C 299.99 2.20 150.00 2.01 0.00 2.25 L 0.00 1.10 Z" />
<path fill="#496377" opacity="0.55" d=" M 1269.92 124.35 C 1269.26 118.73 1269.78 113.06 1271.44 107.65 C 1271.64 113.27 1270.75 118.82 1269.92 124.35 Z" />
<path fill="#496377" opacity="0.55" d=" M 14.17 175.26 C 16.82 183.22 15.63 191.82 16.88 200.02 C 18.09 207.94 17.77 216.00 18.92 223.93 C 19.46 227.59 19.58 231.29 19.78 234.98 C 20.18 243.93 22.13 252.81 21.34 261.80 C 18.80 250.04 19.44 237.86 17.60 225.99 C 17.56 215.84 15.57 205.84 15.41 195.70 C 15.14 188.89 13.18 182.07 14.17 175.26 Z" />
<path fill="#496377" opacity="0.55" d=" M 1255.16 280.97 C 1255.68 277.03 1254.79 272.60 1257.26 269.17 C 1257.66 274.12 1256.58 278.98 1256.16 283.89 C 1255.52 289.94 1255.62 296.05 1254.58 302.06 C 1252.75 324.73 1250.72 347.37 1248.68 370.02 C 1248.55 377.74 1246.81 385.31 1246.70 393.04 C 1246.66 398.25 1245.40 403.35 1245.32 408.55 C 1245.04 417.07 1243.34 425.48 1243.27 434.01 C 1242.43 441.66 1241.57 449.30 1241.27 457.00 C 1239.41 467.92 1240.07 479.14 1237.68 489.99 C 1237.15 484.63 1237.56 479.25 1238.33 473.94 C 1239.35 466.83 1239.09 459.60 1240.24 452.52 C 1241.19 445.71 1240.96 438.80 1242.05 432.01 C 1242.79 427.37 1242.63 422.65 1243.11 417.99 C 1243.54 413.33 1244.37 408.71 1244.48 404.03 C 1244.64 396.63 1246.14 389.35 1246.33 381.95 C 1246.44 375.94 1247.90 370.05 1247.98 364.03 C 1248.08 356.99 1249.67 350.08 1249.75 343.04 C 1249.97 336.35 1251.30 329.75 1251.53 323.07 C 1251.69 316.35 1253.07 309.73 1253.28 303.02 C 1253.41 295.63 1255.07 288.37 1255.16 280.97 Z" />
<path fill="#496377" opacity="0.55" d=" M 26.50 325.59 C 29.03 333.51 27.95 341.94 29.23 350.06 C 30.34 357.67 29.99 365.39 31.16 372.98 C 32.10 379.96 31.76 387.04 32.86 394.00 C 33.70 399.28 33.57 404.65 34.06 409.97 C 34.52 416.95 36.03 423.90 35.27 430.92 C 32.65 420.83 33.64 410.25 31.93 400.02 C 30.76 382.99 29.21 366.01 27.78 349.00 C 27.88 341.16 25.59 333.45 26.50 325.59 Z" />
<path fill="#496377" opacity="0.55" d=" M 1235.77 503.00 C 1236.10 498.86 1235.83 494.47 1237.69 490.63 C 1238.27 498.14 1236.26 505.52 1236.33 513.03 C 1235.74 520.35 1234.56 527.63 1234.43 534.99 C 1233.73 541.34 1232.88 547.67 1232.66 554.07 C 1232.56 559.43 1231.32 564.69 1231.23 570.05 C 1230.82 576.16 1230.43 582.32 1229.19 588.34 C 1228.01 583.15 1229.27 577.90 1229.74 572.71 C 1230.69 566.50 1230.33 560.18 1231.33 553.98 C 1232.37 547.01 1232.06 539.92 1233.22 532.97 C 1233.81 528.99 1233.87 524.95 1234.15 520.94 C 1234.45 514.94 1235.72 509.03 1235.77 503.00 Z" />
<path fill="#496377" opacity="0.55" d=" M 43.75 538.37 C 45.97 543.64 45.50 549.46 46.02 555.04 C 46.10 562.05 47.62 568.93 47.75 575.94 C 47.94 583.35 49.41 590.66 49.51 598.08 C 49.70 604.74 51.11 611.30 51.27 617.97 C 51.26 625.33 52.83 632.57 53.00 639.93 C 53.10 647.33 54.68 654.62 54.78 662.03 C 54.98 669.05 56.42 675.97 56.51 683.01 C 56.76 692.39 59.03 701.69 58.16 711.11 C 56.22 702.25 56.04 693.10 55.43 684.08 C 53.98 674.46 54.38 664.68 52.77 655.08 C 52.44 647.05 51.76 639.04 50.79 631.06 C 50.57 620.34 48.74 609.72 48.47 599.00 C 47.04 589.40 47.30 579.65 45.84 570.06 C 45.29 565.70 45.50 561.29 44.98 556.93 C 44.54 550.74 43.22 544.59 43.75 538.37 Z" />
<path fill="#496377" opacity="0.55" d=" M 1226.92 605.02 C 1227.37 599.91 1226.99 594.58 1228.94 589.73 C 1230.03 595.51 1228.07 601.24 1227.94 607.03 C 1227.52 617.10 1225.76 627.07 1225.50 637.16 C 1223.96 647.98 1224.05 658.98 1222.13 669.76 C 1220.69 661.86 1223.07 653.93 1223.37 646.02 C 1223.49 638.28 1225.05 630.67 1225.28 622.95 C 1225.38 616.93 1226.85 611.04 1226.92 605.02 Z" />
<path fill="#496377" opacity="0.55" d=" M 1214.76 743.00 C 1215.13 738.07 1215.27 733.05 1216.84 728.32 C 1217.67 735.68 1215.66 742.99 1215.42 750.34 C 1215.36 755.56 1214.53 760.72 1214.02 765.92 C 1213.38 771.26 1213.66 776.67 1212.69 781.99 C 1210.08 812.01 1207.55 842.02 1204.78 872.03 C 1204.53 877.96 1204.09 883.92 1202.68 889.71 C 1202.05 884.44 1202.70 879.16 1203.43 873.95 C 1204.33 867.58 1204.04 861.10 1205.04 854.74 C 1206.12 848.21 1205.78 841.56 1206.78 835.02 C 1207.85 828.36 1207.47 821.58 1208.51 814.91 C 1209.24 809.97 1209.42 804.97 1209.70 799.99 C 1210.28 794.66 1211.06 789.35 1211.22 783.99 C 1211.35 777.30 1212.87 770.74 1212.98 764.06 C 1213.13 757.00 1214.75 750.06 1214.76 743.00 Z" />
<path fill="#496377" opacity="0.55" d=" M 69.76 857.02 C 72.06 861.64 71.33 867.01 72.13 872.00 C 72.19 881.06 73.94 889.99 74.15 899.05 C 74.31 905.38 75.71 911.60 75.77 917.94 C 75.89 925.32 77.47 932.58 77.55 939.97 C 77.96 948.46 79.45 956.87 79.49 965.38 C 80.75 975.95 81.44 986.60 81.87 997.23 C 81.61 997.24 81.10 997.27 80.85 997.29 C 80.54 986.15 78.65 975.12 78.40 963.99 C 77.35 956.03 76.88 948.02 76.41 940.01 C 75.21 932.93 75.41 925.72 74.61 918.59 C 73.28 908.43 73.32 898.16 71.83 888.01 C 71.81 877.63 69.61 867.40 69.76 857.02 Z" />
<path fill="#496377" opacity="0.55" d=" M 1193.71 983.98 C 1194.06 979.88 1193.86 975.57 1195.62 971.76 C 1196.28 978.33 1194.55 984.78 1194.40 991.32 C 1194.13 999.50 1192.48 1007.58 1192.42 1015.79 C 1190.40 1033.62 1189.46 1051.55 1187.46 1069.39 C 1187.40 1078.31 1185.49 1087.10 1185.40 1096.02 C 1184.59 1103.53 1183.62 1111.03 1183.45 1118.60 C 1181.21 1136.57 1180.75 1154.71 1178.28 1172.65 C 1176.67 1162.41 1180.02 1152.21 1179.80 1141.94 C 1181.17 1132.07 1181.32 1122.09 1182.68 1112.22 C 1183.23 1106.66 1183.15 1101.06 1183.99 1095.53 C 1185.07 1088.74 1184.77 1081.82 1185.82 1075.03 C 1186.79 1069.05 1186.47 1062.96 1187.32 1056.98 C 1188.58 1048.51 1188.32 1039.92 1189.73 1031.48 C 1189.99 1021.94 1191.73 1012.54 1192.04 1003.01 C 1192.29 996.63 1193.68 990.36 1193.71 983.98 Z" />
<path fill="#496377" opacity="0.55" d=" M 82.03 997.76 C 82.23 997.79 82.64 997.85 82.85 997.88 C 82.23 1007.65 84.49 1017.29 84.64 1027.03 C 84.82 1033.38 86.26 1039.62 86.32 1045.98 C 86.27 1053.03 87.81 1059.97 88.01 1067.02 C 88.10 1075.03 89.82 1082.90 89.92 1090.92 C 90.03 1097.64 91.53 1104.25 91.57 1110.98 C 91.78 1118.01 93.07 1124.96 93.32 1131.99 C 93.42 1139.70 95.04 1147.28 95.16 1155.00 C 95.23 1161.68 96.72 1168.26 96.83 1174.95 C 96.96 1182.35 98.50 1189.63 98.60 1197.03 C 99.10 1205.67 100.50 1214.24 100.58 1222.91 C 101.57 1230.57 102.11 1238.27 102.47 1245.99 C 103.99 1255.26 103.68 1264.71 105.00 1274.01 C 105.61 1278.59 105.86 1283.24 105.33 1287.85 C 102.98 1276.35 103.51 1264.54 101.75 1252.96 C 101.46 1241.94 99.64 1231.03 99.37 1220.02 C 97.86 1210.11 98.13 1200.05 96.62 1190.15 C 96.28 1183.43 95.96 1176.71 95.04 1170.05 C 94.26 1164.70 94.68 1159.27 93.89 1153.94 C 93.09 1147.66 92.64 1141.36 92.38 1135.04 C 90.87 1124.85 91.03 1114.51 89.60 1104.32 C 89.30 1096.52 88.60 1088.75 87.63 1081.02 C 87.59 1070.64 85.58 1060.40 85.41 1050.03 C 84.01 1039.02 83.85 1027.90 82.45 1016.89 C 82.68 1010.50 80.61 1004.08 82.03 997.76 Z" />
<path fill="#496377" opacity="0.55" d=" M 105.43 1288.65 C 107.49 1295.75 107.46 1303.26 107.41 1310.61 L 106.80 1309.37 C 106.07 1302.49 104.76 1295.58 105.43 1288.65 Z" />
</g>
<g id="#1b73baff">
<path fill="#1b73ba" opacity="1.00" d=" M 0.00 2.25 C 150.00 2.01 299.99 2.20 449.99 2.15 C 473.31 2.05 496.64 2.42 519.95 1.92 C 540.30 2.44 560.67 2.06 581.03 2.09 C 628.68 2.21 676.34 2.14 724.00 2.16 C 732.01 2.29 740.02 1.67 748.03 2.16 C 925.35 2.08 1102.68 2.25 1280.00 2.07 L 1280.00 8.52 C 1278.03 15.03 1276.96 22.03 1278.15 28.78 C 1276.62 41.65 1276.32 54.60 1274.50 67.44 C 1272.16 73.36 1272.75 79.81 1272.17 86.02 C 1270.87 96.97 1270.26 107.97 1269.16 118.93 C 1269.30 128.63 1265.96 138.20 1267.56 147.88 C 1267.55 148.07 1267.53 148.44 1267.52 148.63 C 1265.58 155.15 1265.35 162.07 1265.68 168.82 C 1265.78 173.22 1265.24 177.58 1264.58 181.92 C 1264.39 191.66 1262.50 201.27 1262.35 211.00 C 1261.28 219.28 1260.53 227.60 1260.20 235.94 C 1258.73 243.55 1259.17 251.43 1257.81 259.04 C 1257.44 262.40 1257.43 265.79 1257.26 269.17 C 1254.79 272.60 1255.68 277.03 1255.16 280.97 C 1255.07 288.37 1253.41 295.63 1253.28 303.02 C 1253.07 309.73 1251.69 316.35 1251.53 323.07 C 1251.30 329.75 1249.97 336.35 1249.75 343.04 C 1249.67 350.08 1248.08 356.99 1247.98 364.03 C 1247.90 370.05 1246.44 375.94 1246.33 381.95 C 1246.14 389.35 1244.64 396.63 1244.48 404.03 C 1244.37 408.71 1243.54 413.33 1243.11 417.99 C 1242.63 422.65 1242.79 427.37 1242.05 432.01 C 1240.96 438.80 1241.19 445.71 1240.24 452.52 C 1239.09 459.60 1239.35 466.83 1238.33 473.94 C 1237.56 479.25 1237.15 484.63 1237.68 489.99 C 1237.69 490.15 1237.69 490.47 1237.69 490.63 C 1235.83 494.47 1236.10 498.86 1235.77 503.00 C 1235.72 509.03 1234.45 514.94 1234.15 520.94 C 1233.87 524.95 1233.81 528.99 1233.22 532.97 C 1232.06 539.92 1232.37 547.01 1231.33 553.98 C 1230.33 560.18 1230.69 566.50 1229.74 572.71 C 1229.27 577.90 1228.01 583.15 1229.19 588.34 C 1229.13 588.69 1229.00 589.38 1228.94 589.73 C 1226.99 594.58 1227.37 599.91 1226.92 605.02 C 1226.85 611.04 1225.38 616.93 1225.28 622.95 C 1225.05 630.67 1223.49 638.28 1223.37 646.02 C 1223.07 653.93 1220.69 661.86 1222.13 669.76 C 1221.55 677.17 1220.43 684.54 1220.32 691.99 C 1218.65 704.07 1218.42 716.25 1216.84 728.32 C 1215.27 733.05 1215.13 738.07 1214.76 743.00 C 1214.75 750.06 1213.13 757.00 1212.98 764.06 C 1212.87 770.74 1211.35 777.30 1211.22 783.99 C 1211.06 789.35 1210.28 794.66 1209.70 799.99 C 1209.42 804.97 1209.24 809.97 1208.51 814.91 C 1207.47 821.58 1207.85 828.36 1206.78 835.02 C 1205.78 841.56 1206.12 848.21 1205.04 854.74 C 1204.04 861.10 1204.33 867.58 1203.43 873.95 C 1202.70 879.16 1202.05 884.44 1202.68 889.71 C 1202.66 893.93 1202.44 898.16 1201.62 902.32 C 1201.25 912.58 1199.59 922.75 1199.26 933.01 C 1198.56 936.99 1198.67 941.08 1197.85 945.04 C 1197.46 949.00 1197.57 952.99 1197.20 956.96 C 1196.21 961.82 1196.23 966.83 1195.62 971.76 C 1193.86 975.57 1194.06 979.88 1193.71 983.98 C 1193.68 990.36 1192.29 996.63 1192.04 1003.01 C 1191.73 1012.54 1189.99 1021.94 1189.73 1031.48 C 1188.32 1039.92 1188.58 1048.51 1187.32 1056.98 C 1186.47 1062.96 1186.79 1069.05 1185.82 1075.03 C 1184.77 1081.82 1185.07 1088.74 1183.99 1095.53 C 1183.15 1101.06 1183.23 1106.66 1182.68 1112.22 C 1181.32 1122.09 1181.17 1132.07 1179.80 1141.94 C 1180.02 1152.21 1176.67 1162.41 1178.28 1172.65 C 1176.75 1185.95 1176.00 1199.29 1174.55 1212.60 C 1172.56 1218.80 1172.41 1225.42 1172.73 1231.87 C 1172.85 1236.63 1172.20 1241.33 1171.56 1246.03 C 1171.50 1255.73 1169.40 1265.28 1169.38 1274.98 C 1168.51 1280.16 1168.49 1285.43 1167.75 1290.63 C 1167.32 1294.08 1167.85 1297.64 1166.77 1301.01 C 1166.43 1304.44 1166.72 1308.01 1165.43 1311.29 C 1157.51 1313.07 1149.80 1315.72 1141.95 1317.78 C 1138.33 1318.90 1134.72 1320.08 1131.02 1320.84 C 1129.72 1321.29 1128.43 1321.73 1127.17 1322.21 C 1119.07 1324.33 1111.00 1326.64 1103.01 1329.14 C 1091.47 1331.92 1080.27 1336.22 1068.64 1338.49 C 1068.54 1338.74 1068.34 1339.26 1068.24 1339.51 C 1063.38 1340.00 1058.78 1341.94 1054.07 1343.15 C 1020.67 1352.60 987.37 1362.43 953.97 1371.87 C 929.67 1378.94 905.34 1385.97 880.99 1392.86 C 879.66 1393.27 878.33 1393.69 877.03 1394.15 C 854.97 1400.34 832.93 1406.66 810.98 1413.23 C 809.94 1413.39 808.91 1413.57 807.90 1413.77 C 806.61 1414.23 805.34 1414.71 804.07 1415.20 C 797.27 1416.62 790.79 1419.42 783.95 1420.56 C 782.12 1419.97 779.66 1420.11 779.17 1422.39 C 757.39 1428.31 735.74 1434.85 714.00 1440.97 C 707.88 1442.48 701.97 1444.91 695.72 1445.81 C 696.27 1445.93 697.37 1446.19 697.92 1446.32 C 695.30 1446.42 692.72 1446.88 690.27 1447.81 C 682.17 1450.18 674.03 1452.44 665.93 1454.82 C 660.41 1456.30 654.99 1458.33 649.38 1459.31 C 647.83 1458.45 645.46 1459.04 645.25 1461.00 L 641.11 1461.00 C 639.72 1460.54 638.66 1459.55 637.65 1458.57 C 635.73 1458.19 633.80 1457.91 631.90 1457.57 C 631.65 1457.52 631.15 1457.43 630.90 1457.38 C 627.92 1456.62 624.91 1455.99 621.95 1455.19 C 619.37 1454.17 616.64 1453.68 614.02 1452.85 C 610.62 1452.05 607.39 1450.69 603.94 1450.17 C 601.65 1449.32 599.29 1448.68 596.91 1448.18 C 590.93 1446.45 584.98 1444.54 578.91 1443.18 C 576.68 1442.25 574.37 1441.58 572.00 1441.19 C 565.99 1439.48 560.03 1437.59 553.95 1436.15 C 545.63 1433.77 537.34 1431.24 528.95 1429.15 C 523.99 1427.61 518.98 1426.27 513.99 1424.86 C 509.37 1423.41 504.59 1422.52 500.06 1420.79 C 499.04 1420.58 498.02 1420.39 497.02 1420.22 C 491.30 1418.59 485.62 1416.72 479.83 1415.40 C 479.25 1413.22 476.90 1412.98 475.08 1413.58 C 468.92 1412.78 462.99 1410.49 457.03 1408.75 C 456.00 1408.55 454.99 1408.37 453.98 1408.21 C 445.71 1405.62 437.36 1403.28 428.97 1401.13 C 426.69 1400.29 424.36 1399.65 421.99 1399.17 C 419.71 1398.28 417.33 1397.70 414.95 1397.22 C 412.33 1396.25 409.59 1395.72 406.99 1394.76 C 405.96 1394.57 404.94 1394.39 403.93 1394.23 C 401.71 1393.23 399.38 1392.54 396.99 1392.16 C 392.02 1390.55 386.90 1389.49 381.97 1387.76 C 380.97 1387.56 379.97 1387.38 378.98 1387.22 C 377.66 1386.72 376.34 1386.28 375.01 1385.85 C 367.95 1384.13 361.04 1381.87 354.00 1380.11 C 346.91 1378.22 339.94 1375.69 332.71 1374.50 C 332.61 1374.23 332.42 1373.70 332.32 1373.43 C 331.21 1373.37 330.10 1373.34 329.00 1373.32 C 321.86 1370.54 314.21 1369.35 307.00 1366.76 C 305.98 1366.56 304.96 1366.38 303.95 1366.21 C 296.78 1363.61 289.22 1362.24 282.00 1359.81 C 279.64 1359.24 277.32 1358.58 275.01 1357.89 C 269.00 1356.18 262.92 1354.70 256.98 1352.80 C 254.64 1352.25 252.32 1351.62 250.05 1350.85 C 244.01 1349.31 238.01 1347.60 232.03 1345.84 C 223.67 1343.58 215.34 1341.22 207.02 1338.84 C 202.35 1337.52 197.62 1336.40 193.01 1334.85 C 180.98 1331.70 169.01 1328.25 157.06 1324.80 C 153.64 1324.11 150.39 1322.82 146.97 1322.14 C 142.06 1320.46 136.96 1319.41 132.02 1317.84 C 128.65 1317.00 125.36 1315.84 121.96 1315.14 C 119.68 1314.27 117.32 1313.66 114.94 1313.19 C 112.62 1312.26 110.19 1311.69 107.73 1311.30 C 107.65 1311.13 107.49 1310.78 107.41 1310.61 C 107.46 1303.26 107.49 1295.75 105.43 1288.65 C 105.41 1288.45 105.36 1288.05 105.33 1287.85 C 105.86 1283.24 105.61 1278.59 105.00 1274.01 C 103.68 1264.71 103.99 1255.26 102.47 1245.99 C 102.11 1238.27 101.57 1230.57 100.58 1222.91 C 100.50 1214.24 99.10 1205.67 98.60 1197.03 C 98.50 1189.63 96.96 1182.35 96.83 1174.95 C 96.72 1168.26 95.23 1161.68 95.16 1155.00 C 95.04 1147.28 93.42 1139.70 93.32 1131.99 C 93.07 1124.96 91.78 1118.01 91.57 1110.98 C 91.53 1104.25 90.03 1097.64 89.92 1090.92 C 89.82 1082.90 88.10 1075.03 88.01 1067.02 C 87.81 1059.97 86.27 1053.03 86.32 1045.98 C 86.26 1039.62 84.82 1033.38 84.64 1027.03 C 84.49 1017.29 82.23 1007.65 82.85 997.88 C 82.64 997.85 82.23 997.79 82.03 997.76 L 81.87 997.23 C 81.44 986.60 80.75 975.95 79.49 965.38 C 79.45 956.87 77.96 948.46 77.55 939.97 C 77.47 932.58 75.89 925.32 75.77 917.94 C 75.71 911.60 74.31 905.38 74.15 899.05 C 73.94 889.99 72.19 881.06 72.13 872.00 C 71.33 867.01 72.06 861.64 69.76 857.02 C 69.66 853.74 69.63 850.44 69.04 847.22 C 68.17 842.52 68.65 837.72 68.15 832.99 C 67.34 826.69 66.51 820.37 66.51 814.01 C 64.82 797.02 63.66 780.00 62.27 762.97 C 61.10 757.45 61.82 751.76 60.86 746.22 C 60.34 739.47 59.35 732.76 59.39 725.98 C 58.64 721.05 58.28 716.09 58.16 711.11 C 59.03 701.69 56.76 692.39 56.51 683.01 C 56.42 675.97 54.98 669.05 54.78 662.03 C 54.68 654.62 53.10 647.33 53.00 639.93 C 52.83 632.57 51.26 625.33 51.27 617.97 C 51.11 611.30 49.70 604.74 49.51 598.08 C 49.41 590.66 47.94 583.35 47.75 575.94 C 47.62 568.93 46.10 562.05 46.02 555.04 C 45.50 549.46 45.97 543.64 43.75 538.37 C 43.56 535.25 43.50 532.13 43.21 529.02 C 41.91 524.80 42.78 520.31 41.99 516.01 C 41.42 507.67 40.29 499.40 40.13 491.03 C 39.27 484.38 38.49 477.70 38.45 471.00 C 37.37 462.03 36.70 453.01 36.23 443.99 C 35.06 439.74 35.49 435.27 35.27 430.92 C 36.03 423.90 34.52 416.95 34.06 409.97 C 33.57 404.65 33.70 399.28 32.86 394.00 C 31.76 387.04 32.10 379.96 31.16 372.98 C 29.99 365.39 30.34 357.67 29.23 350.06 C 27.95 341.94 29.03 333.51 26.50 325.59 C 25.84 316.70 24.47 307.87 24.40 298.94 C 23.27 290.33 22.68 281.66 22.21 272.99 C 21.14 269.36 21.47 265.53 21.34 261.80 C 22.13 252.81 20.18 243.93 19.78 234.98 C 19.58 231.29 19.46 227.59 18.92 223.93 C 17.77 216.00 18.09 207.94 16.88 200.02 C 15.63 191.82 16.82 183.22 14.17 175.26 C 13.29 171.53 13.86 167.65 13.15 163.90 C 12.07 158.69 12.78 153.32 11.86 148.09 C 10.56 136.73 10.42 125.30 8.88 113.96 C 7.63 94.29 5.72 74.67 4.22 55.01 C 3.06 49.26 3.92 43.34 2.77 37.59 C 2.32 31.39 1.46 25.22 1.32 18.99 C 0.56 17.07 0.22 15.02 0.00 12.98 L 0.00 2.25 M 643.38 130.04 C 643.44 179.67 643.14 229.31 643.52 278.94 C 650.96 280.00 658.52 279.10 666.01 279.40 C 789.80 279.44 913.59 279.32 1037.37 279.46 L 1037.58 280.36 C 880.38 280.44 723.18 280.36 565.97 280.41 C 453.46 280.48 340.94 280.31 228.44 280.56 C 229.55 283.93 229.53 287.52 230.25 290.98 C 233.78 317.00 237.34 343.03 240.81 369.06 C 242.91 383.70 244.83 398.42 246.84 413.09 C 247.89 421.12 249.36 429.11 249.73 437.21 C 251.43 437.82 253.17 438.40 255.01 438.31 C 315.99 438.28 376.97 438.31 437.95 438.29 C 440.96 438.28 444.02 438.56 446.98 437.83 C 447.46 437.94 448.42 438.17 448.90 438.28 C 470.93 438.32 492.98 438.28 515.02 438.30 C 518.01 438.31 521.03 438.47 523.98 437.85 C 530.54 438.84 537.32 438.20 543.92 437.97 C 554.24 438.72 564.64 438.08 574.99 438.31 C 579.71 438.66 584.33 437.31 589.05 437.65 C 603.58 437.51 618.14 437.98 632.66 437.38 C 632.67 437.88 632.67 438.88 632.67 439.39 C 613.97 447.10 595.58 455.55 576.94 463.42 C 478.05 506.41 379.12 549.34 280.19 592.27 C 272.61 595.43 265.28 599.20 257.52 601.88 C 258.18 610.29 260.04 618.60 260.82 627.02 C 261.60 629.60 261.40 632.35 262.22 634.93 C 262.71 641.70 264.21 648.35 264.72 655.11 L 265.33 655.93 C 265.42 658.29 265.47 660.68 266.21 662.96 C 268.72 683.68 272.20 704.31 274.80 725.02 C 276.40 734.09 277.55 743.28 278.65 752.43 C 397.76 752.57 516.87 752.45 635.98 752.49 C 702.51 752.65 769.04 752.30 835.56 752.66 C 834.38 753.01 833.20 753.30 832.01 753.52 C 778.70 753.53 725.37 753.51 672.05 753.53 C 662.76 753.68 653.42 753.10 644.16 753.89 C 643.67 763.27 643.99 772.67 644.05 782.06 C 643.89 848.04 644.15 914.03 643.96 980.01 C 643.93 986.51 644.53 993.06 643.44 999.52 C 640.93 1000.01 638.41 1000.50 635.86 1000.71 L 635.09 1001.27 C 630.39 1001.67 625.59 1002.36 620.94 1001.17 C 611.62 998.86 602.34 996.36 593.01 994.16 C 591.36 993.70 589.73 993.26 588.09 992.84 C 584.10 991.78 580.08 990.85 576.10 989.82 C 552.67 984.00 529.32 977.86 505.84 972.23 L 505.06 971.77 C 489.51 968.33 474.20 963.72 458.59 960.46 C 457.46 958.62 457.51 956.48 457.33 954.43 C 455.98 947.13 455.80 939.67 454.59 932.35 C 453.56 922.16 451.90 912.06 451.32 901.84 L 450.73 901.06 C 448.94 881.34 446.01 861.73 444.20 842.00 C 443.92 840.82 443.65 839.64 443.40 838.48 C 391.02 838.52 338.65 838.54 286.27 838.47 C 286.39 842.67 286.42 846.89 287.22 851.03 C 288.21 869.25 290.67 887.35 291.55 905.59 C 293.38 922.05 294.53 938.55 295.88 955.06 C 297.89 971.66 298.24 988.41 300.42 1005.00 C 300.21 1010.05 301.67 1014.96 301.52 1020.01 C 301.50 1024.36 302.72 1028.62 302.53 1033.00 C 304.60 1049.93 305.14 1067.06 307.11 1083.98 C 307.30 1085.68 307.46 1087.40 307.63 1089.12 C 339.03 1097.73 370.46 1106.34 401.80 1115.19 C 442.57 1126.22 483.21 1137.77 523.95 1148.87 C 532.29 1151.26 540.66 1153.50 549.00 1155.86 C 550.65 1156.29 552.29 1156.73 553.93 1157.22 C 582.97 1165.31 612.10 1173.12 641.07 1181.45 C 642.03 1182.33 643.04 1183.18 644.07 1184.02 C 643.73 1232.66 644.17 1281.31 643.97 1329.95 C 643.90 1331.58 644.25 1334.69 646.66 1333.56 C 725.82 1310.76 805.02 1288.00 884.17 1265.19 C 924.45 1253.51 964.86 1242.21 1005.07 1230.26 C 1016.17 1227.61 1027.00 1223.98 1037.97 1220.88 C 1048.93 1217.98 1059.69 1214.43 1070.67 1211.62 C 1072.48 1211.04 1074.75 1210.60 1075.64 1208.69 C 1079.35 1165.80 1083.07 1122.89 1086.86 1080.00 C 1087.58 1066.41 1089.53 1052.91 1090.46 1039.34 C 1091.21 1026.88 1092.48 1014.45 1093.77 1002.03 C 1094.11 991.19 1095.69 980.44 1096.56 969.64 C 1099.61 933.39 1102.87 897.16 1106.01 860.92 C 1106.62 850.00 1108.43 839.21 1109.28 828.32 C 1113.30 782.65 1117.20 737.00 1121.29 691.34 C 1122.81 669.86 1125.34 648.49 1126.75 627.01 C 1129.16 605.38 1130.31 583.68 1132.66 562.04 C 1132.70 553.34 1134.38 544.75 1134.79 536.07 C 1136.49 518.74 1137.55 501.36 1139.62 484.06 C 1139.35 477.98 1140.75 472.03 1140.77 465.97 C 1143.11 444.69 1144.29 423.32 1146.74 402.04 C 1146.41 395.99 1147.69 390.05 1147.92 384.02 C 1150.23 363.71 1151.32 343.30 1153.69 323.00 C 1153.78 312.98 1155.42 303.05 1155.93 293.04 C 1157.46 281.10 1157.94 269.09 1159.17 257.12 C 1160.44 247.11 1160.78 237.05 1161.73 227.01 C 1163.92 205.37 1165.34 183.67 1167.70 162.04 C 1167.74 151.01 1170.42 140.11 1169.73 129.06 C 1169.92 127.51 1168.10 127.32 1167.03 127.35 C 994.68 127.31 822.34 127.38 649.99 127.31 C 647.69 127.33 643.52 126.69 643.38 130.04 Z" />
</g>
<g id="#416684a1">
<path fill="#416684" opacity="0.63" d=" M 1278.15 28.78 C 1276.96 22.03 1278.03 15.03 1280.00 8.52 L 1280.00 15.67 C 1279.82 20.09 1278.95 24.44 1278.15 28.78 Z" />
</g>
<g id="#3d6788aa">
<path fill="#3d6788" opacity="0.67" d=" M 1272.17 86.02 C 1272.75 79.81 1272.16 73.36 1274.50 67.44 C 1275.30 74.37 1273.42 81.17 1273.27 88.07 C 1272.92 94.62 1271.92 101.12 1271.44 107.65 C 1269.78 113.06 1269.26 118.73 1269.92 124.35 C 1269.55 132.23 1269.02 140.11 1267.56 147.88 C 1265.96 138.20 1269.30 128.63 1269.16 118.93 C 1270.26 107.97 1270.87 96.97 1272.17 86.02 Z" />
</g>
<g id="#1c88c7ff">
<path fill="#1c88c7" opacity="1.00" d=" M 643.38 130.04 C 643.52 126.69 647.69 127.33 649.99 127.31 C 822.34 127.38 994.68 127.31 1167.03 127.35 C 1168.10 127.32 1169.92 127.51 1169.73 129.06 C 1170.42 140.11 1167.74 151.01 1167.70 162.04 C 1165.34 183.67 1163.92 205.37 1161.73 227.01 C 1160.78 237.05 1160.44 247.11 1159.17 257.12 C 1157.94 269.09 1157.46 281.10 1155.93 293.04 C 1155.42 303.05 1153.78 312.98 1153.69 323.00 C 1151.32 343.30 1150.23 363.71 1147.92 384.02 C 1147.69 390.05 1146.41 395.99 1146.74 402.04 C 1144.29 423.32 1143.11 444.69 1140.77 465.97 C 1140.75 472.03 1139.35 477.98 1139.62 484.06 C 1137.55 501.36 1136.49 518.74 1134.79 536.07 C 1134.38 544.75 1132.70 553.34 1132.66 562.04 C 1130.31 583.68 1129.16 605.38 1126.75 627.01 C 1125.34 648.49 1122.81 669.86 1121.29 691.34 C 1117.20 737.00 1113.30 782.65 1109.28 828.32 C 1108.43 839.21 1106.62 850.00 1106.01 860.92 C 1102.87 897.16 1099.61 933.39 1096.56 969.64 C 1095.69 980.44 1094.11 991.19 1093.77 1002.03 C 1092.48 1014.45 1091.21 1026.88 1090.46 1039.34 C 1089.53 1052.91 1087.58 1066.41 1086.86 1080.00 C 1083.07 1122.89 1079.35 1165.80 1075.64 1208.69 C 1074.75 1210.60 1072.48 1211.04 1070.67 1211.62 C 1059.69 1214.43 1048.93 1217.98 1037.97 1220.88 C 1027.00 1223.98 1016.17 1227.61 1005.07 1230.26 C 964.86 1242.21 924.45 1253.51 884.17 1265.19 C 805.02 1288.00 725.82 1310.76 646.66 1333.56 C 644.25 1334.69 643.90 1331.58 643.97 1329.95 C 644.17 1281.31 643.73 1232.66 644.07 1184.02 C 643.04 1183.18 642.03 1182.33 641.07 1181.45 C 643.32 1181.86 645.62 1181.55 647.77 1180.79 C 752.67 1148.13 857.58 1115.51 962.47 1082.83 C 963.90 1082.24 965.90 1081.86 966.00 1079.95 C 967.68 1059.97 969.06 1039.93 971.22 1019.98 C 972.18 1002.27 974.68 984.70 975.57 966.99 C 977.67 948.48 978.70 929.89 980.55 911.36 C 981.88 900.65 982.06 889.84 983.38 879.13 C 985.55 853.39 988.05 827.69 989.96 801.94 C 992.20 782.33 993.08 762.62 995.39 743.02 C 996.34 724.97 998.77 707.05 999.84 689.01 C 1002.06 668.39 1003.21 647.68 1005.43 627.06 C 1006.34 616.01 1007.03 604.94 1008.35 593.92 C 1008.48 592.16 1008.44 590.39 1008.45 588.63 C 963.99 589.01 919.53 588.45 875.08 588.90 C 864.05 588.33 853.01 589.03 841.99 588.83 C 836.34 589.53 830.67 588.03 825.02 589.09 C 814.68 588.79 804.30 588.60 793.94 588.81 C 755.98 588.60 718.02 588.85 680.06 588.66 C 676.28 588.46 672.53 588.84 668.79 589.20 C 667.80 589.28 667.26 588.81 667.17 587.79 C 790.57 537.23 914.02 486.72 1037.47 436.24 C 1038.69 432.27 1038.19 428.09 1038.26 424.00 C 1038.26 400.35 1038.25 376.69 1038.27 353.04 C 1038.53 347.02 1037.41 341.03 1038.25 335.03 C 1038.10 326.00 1038.68 316.94 1037.81 307.95 C 1038.09 298.79 1039.04 289.45 1037.58 280.36 L 1037.37 279.46 C 913.59 279.32 789.80 279.44 666.01 279.40 C 658.52 279.10 650.96 280.00 643.52 278.94 C 643.14 229.31 643.44 179.67 643.38 130.04 Z" />
<path fill="#1c88c7" opacity="1.00" d=" M 832.01 753.52 C 833.20 753.30 834.38 753.01 835.56 752.66 L 836.57 752.57 C 834.70 775.72 831.98 798.82 829.86 821.95 C 824.93 870.38 820.20 918.83 815.25 967.26 C 757.94 977.81 700.70 988.73 643.44 999.52 C 644.53 993.06 643.93 986.51 643.96 980.01 C 644.15 914.03 643.89 848.04 644.05 782.06 C 643.99 772.67 643.67 763.27 644.16 753.89 C 653.42 753.10 662.76 753.68 672.05 753.53 C 725.37 753.51 778.70 753.53 832.01 753.52 Z" />
</g>
<g id="#415b7084">
<path fill="#415b70" opacity="0.52" d=" M 1265.68 168.82 C 1265.35 162.07 1265.58 155.15 1267.52 148.63 C 1268.05 155.38 1267.22 162.26 1265.68 168.82 Z" />
</g>
<g id="#ffffffff">
<path fill="#ffffff" opacity="1.00" d=" M 228.44 280.56 C 340.94 280.31 453.46 280.48 565.97 280.41 C 723.18 280.36 880.38 280.44 1037.58 280.36 C 1039.04 289.45 1038.09 298.79 1037.81 307.95 C 1038.68 316.94 1038.10 326.00 1038.25 335.03 C 1037.41 341.03 1038.53 347.02 1038.27 353.04 C 1038.25 376.69 1038.26 400.35 1038.26 424.00 C 1038.19 428.09 1038.69 432.27 1037.47 436.24 C 914.02 486.72 790.57 537.23 667.17 587.79 C 667.26 588.81 667.80 589.28 668.79 589.20 C 672.53 588.84 676.28 588.46 680.06 588.66 C 718.02 588.85 755.98 588.60 793.94 588.81 C 804.30 588.60 814.68 588.79 825.02 589.09 C 830.67 588.03 836.34 589.53 841.99 588.83 C 853.01 589.03 864.05 588.33 875.08 588.90 C 919.53 588.45 963.99 589.01 1008.45 588.63 C 1008.44 590.39 1008.48 592.16 1008.35 593.92 C 1007.03 604.94 1006.34 616.01 1005.43 627.06 C 1003.21 647.68 1002.06 668.39 999.84 689.01 C 998.77 707.05 996.34 724.97 995.39 743.02 C 993.08 762.62 992.20 782.33 989.96 801.94 C 988.05 827.69 985.55 853.39 983.38 879.13 C 982.06 889.84 981.88 900.65 980.55 911.36 C 978.70 929.89 977.67 948.48 975.57 966.99 C 974.68 984.70 972.18 1002.27 971.22 1019.98 C 969.06 1039.93 967.68 1059.97 966.00 1079.95 C 965.90 1081.86 963.90 1082.24 962.47 1082.83 C 857.58 1115.51 752.67 1148.13 647.77 1180.79 C 645.62 1181.55 643.32 1181.86 641.07 1181.45 C 612.10 1173.12 582.97 1165.31 553.93 1157.22 C 552.29 1156.73 550.65 1156.29 549.00 1155.86 C 540.66 1153.50 532.29 1151.26 523.95 1148.87 C 483.21 1137.77 442.57 1126.22 401.80 1115.19 C 370.46 1106.34 339.03 1097.73 307.63 1089.12 C 307.46 1087.40 307.30 1085.68 307.11 1083.98 C 305.14 1067.06 304.60 1049.93 302.53 1033.00 C 302.72 1028.62 301.50 1024.36 301.52 1020.01 C 301.67 1014.96 300.21 1010.05 300.42 1005.00 C 298.24 988.41 297.89 971.66 295.88 955.06 C 294.53 938.55 293.38 922.05 291.55 905.59 C 290.67 887.35 288.21 869.25 287.22 851.03 C 286.42 846.89 286.39 842.67 286.27 838.47 C 338.65 838.54 391.02 838.52 443.40 838.48 C 443.65 839.64 443.92 840.82 444.20 842.00 C 446.01 861.73 448.94 881.34 450.73 901.06 L 451.32 901.84 C 451.90 912.06 453.56 922.16 454.59 932.35 C 455.80 939.67 455.98 947.13 457.33 954.43 C 457.51 956.48 457.46 958.62 458.59 960.46 C 474.20 963.72 489.51 968.33 505.06 971.77 L 505.84 972.23 C 529.32 977.86 552.67 984.00 576.10 989.82 C 580.08 990.85 584.10 991.78 588.09 992.84 C 589.73 993.26 591.36 993.70 593.01 994.16 C 602.34 996.36 611.62 998.86 620.94 1001.17 C 625.59 1002.36 630.39 1001.67 635.09 1001.27 L 635.86 1000.71 C 638.41 1000.50 640.93 1000.01 643.44 999.52 C 700.70 988.73 757.94 977.81 815.25 967.26 C 820.20 918.83 824.93 870.38 829.86 821.95 C 831.98 798.82 834.70 775.72 836.57 752.57 L 835.56 752.66 C 769.04 752.30 702.51 752.65 635.98 752.49 C 516.87 752.45 397.76 752.57 278.65 752.43 C 277.55 743.28 276.40 734.09 274.80 725.02 C 272.20 704.31 268.72 683.68 266.21 662.96 C 265.47 660.68 265.42 658.29 265.33 655.93 L 264.72 655.11 C 264.21 648.35 262.71 641.70 262.22 634.93 C 261.40 632.35 261.60 629.60 260.82 627.02 C 260.04 618.60 258.18 610.29 257.52 601.88 C 265.28 599.20 272.61 595.43 280.19 592.27 C 379.12 549.34 478.05 506.41 576.94 463.42 C 595.58 455.55 613.97 447.10 632.67 439.39 C 632.67 438.88 632.67 437.88 632.66 437.38 C 618.14 437.98 603.58 437.51 589.05 437.65 C 584.33 437.31 579.71 438.66 574.99 438.31 C 564.64 438.08 554.24 438.72 543.92 437.97 C 537.32 438.20 530.54 438.84 523.98 437.85 C 521.03 438.47 518.01 438.31 515.02 438.30 C 492.98 438.28 470.93 438.32 448.90 438.28 C 448.42 438.17 447.46 437.94 446.98 437.83 C 444.02 438.56 440.96 438.28 437.95 438.29 C 376.97 438.31 315.99 438.28 255.01 438.31 C 253.17 438.40 251.43 437.82 249.73 437.21 C 249.36 429.11 247.89 421.12 246.84 413.09 C 244.83 398.42 242.91 383.70 240.81 369.06 C 237.34 343.03 233.78 317.00 230.25 290.98 C 229.53 287.52 229.55 283.93 228.44 280.56 Z" />
<path fill="#ffffff" opacity="1.00" d=" M 630.90 1457.38 C 631.15 1457.43 631.65 1457.52 631.90 1457.57 C 633.80 1457.91 635.73 1458.19 637.65 1458.57 C 638.66 1459.55 639.72 1460.54 641.11 1461.00 L 638.79 1461.00 C 637.48 1457.98 633.41 1458.83 630.90 1457.38 Z" />
</g>
<g id="#3f5c738a">
<path fill="#3f5c73" opacity="0.54" d=" M 1172.73 1231.87 C 1172.41 1225.42 1172.56 1218.80 1174.55 1212.60 C 1174.97 1219.04 1174.34 1225.62 1172.73 1231.87 Z" />
</g>
<g id="#416c8fb2">
<path fill="#416c8f" opacity="0.70" d=" M 475.08 1413.58 C 476.90 1412.98 479.25 1413.22 479.83 1415.40 C 478.02 1415.61 476.25 1414.95 475.08 1413.58 Z" />
</g>
<g id="#436a8aa9">
<path fill="#436a8a" opacity="0.66" d=" M 779.17 1422.39 C 779.66 1420.11 782.12 1419.97 783.95 1420.56 C 782.71 1421.88 780.95 1422.51 779.17 1422.39 Z" />
</g>
<g id="#6798c0e6">
<path fill="#6798c0" opacity="0.90" d=" M 645.25 1461.00 C 645.46 1459.04 647.83 1458.45 649.38 1459.31 C 649.32 1459.73 649.20 1460.58 649.14 1461.00 L 645.25 1461.00 Z" />
</g>
</svg>
