<?xml version="1.0" encoding="UTF-8" ?>
<!DOCTYPE svg PUBLIC "-//W3C//DTD SVG 1.1//EN" "http://www.w3.org/Graphics/SVG/1.1/DTD/svg11.dtd">
<svg width="1280pt" height="1460pt" viewBox="0 0 1280 1460" version="1.1" xmlns="http://www.w3.org/2000/svg">
<g id="#ff4e1dff">
<path fill="#ff4e1d" opacity="1.00" d=" M 0.53 0.00 L 97.80 0.00 C 99.81 0.57 101.86 1.11 103.97 1.05 C 135.44 0.86 166.91 1.18 198.37 0.89 C 231.14 1.06 263.92 1.11 296.70 0.86 C 362.57 1.15 428.46 0.84 494.33 1.08 C 518.90 1.44 543.47 1.13 568.04 1.24 C 672.35 1.65 776.67 1.61 880.99 1.62 C 905.98 2.10 930.98 1.75 955.97 1.86 C 967.31 1.98 978.67 1.52 990.00 2.26 C 1086.51 2.30 1183.02 2.49 1279.53 2.42 C 1241.95 437.94 1204.01 873.43 1166.36 1308.95 C 992.58 1359.39 818.72 1409.56 644.94 1460.00 L 644.64 1460.00 C 465.64 1409.52 286.52 1359.41 107.51 1308.94 C 78.79 957.79 50.06 606.64 21.32 255.50 C 14.43 170.33 7.24 85.18 0.53 0.00 M 645.09 124.32 C 644.44 131.52 644.95 138.75 644.77 145.96 C 645.00 186.25 644.41 226.56 645.05 266.84 C 507.08 266.84 369.12 266.85 231.15 266.83 C 246.10 430.16 261.07 593.48 275.91 756.82 C 398.90 756.93 521.89 756.84 644.88 756.87 C 644.68 839.91 644.84 922.95 644.80 1005.99 C 644.48 1007.87 645.94 1009.13 647.02 1010.45 C 642.35 1011.27 637.85 1013.72 633.10 1013.49 C 572.95 996.09 512.81 978.65 452.67 961.20 C 449.54 919.69 446.09 878.20 443.14 836.68 C 389.51 836.46 335.87 836.74 282.23 836.54 C 283.04 850.73 284.77 864.85 285.71 879.04 C 291.97 949.84 297.81 1020.68 304.17 1091.47 C 413.83 1121.95 523.42 1152.66 633.05 1183.24 C 637.08 1183.63 640.90 1181.42 644.82 1180.66 C 644.69 1207.11 644.86 1233.56 644.81 1260.01 C 644.90 1284.56 644.50 1309.13 645.00 1333.67 C 784.95 1293.05 924.93 1252.51 1064.88 1211.83 C 1068.97 1210.18 1073.89 1210.02 1077.56 1207.74 C 1079.26 1196.24 1079.70 1184.56 1080.86 1172.99 C 1109.12 846.99 1137.52 521.01 1165.76 195.01 C 1167.53 172.17 1170.16 149.38 1171.46 126.50 C 1166.98 126.09 1162.49 126.14 1158.02 126.22 C 1087.68 125.97 1017.35 125.88 947.01 125.70 C 930.00 125.52 912.97 126.17 895.98 125.19 C 819.97 125.23 743.97 124.79 667.97 124.84 C 660.33 125.20 652.73 123.80 645.09 124.32 Z" />
<path fill="#ff4e1d" opacity="1.00" d=" M 407.99 426.80 C 486.97 426.78 565.95 426.79 644.93 426.79 C 644.83 430.86 644.78 434.94 644.81 439.03 C 644.89 490.81 644.58 542.59 644.94 594.37 C 571.48 594.38 498.03 594.37 424.57 594.37 C 419.10 538.51 413.36 482.67 407.99 426.80 Z" />
</g>
<g id="#9d30119d">
<path fill="#9d3011" opacity="0.62" d=" M 97.80 0.00 L 196.89 0.00 L 198.37 0.89 C 166.91 1.18 135.44 0.86 103.97 1.05 C 101.86 1.11 99.81 0.57 97.80 0.00 Z" />
</g>
<g id="#611d0b61">
<path fill="#611d0b" opacity="0.38" d=" M 196.89 0.00 L 295.19 0.00 L 296.70 0.86 C 263.92 1.11 231.14 1.06 198.37 0.89 L 196.89 0.00 Z" />
</g>
<g id="#38110638">
<path fill="#381106" opacity="0.22" d=" M 295.19 0.00 L 492.94 0.00 L 494.33 1.08 C 428.46 0.84 362.57 1.15 296.70 0.86 L 295.19 0.00 Z" />
</g>
<g id="#ff6520ff">
<path fill="#ff6520" opacity="1.00" d=" M 645.09 124.32 C 652.73 123.80 660.33 125.20 667.97 124.84 C 743.97 124.79 819.97 125.23 895.98 125.19 C 912.97 126.17 930.00 125.52 947.01 125.70 C 1017.35 125.88 1087.68 125.97 1158.02 126.22 C 1162.49 126.14 1166.98 126.09 1171.46 126.50 C 1170.16 149.38 1167.53 172.17 1165.76 195.01 C 1137.52 521.01 1109.12 846.99 1080.86 1172.99 C 1079.70 1184.56 1079.26 1196.24 1077.56 1207.74 C 1073.89 1210.02 1068.97 1210.18 1064.88 1211.83 C 924.93 1252.51 784.95 1293.05 645.00 1333.67 C 644.50 1309.13 644.90 1284.56 644.81 1260.01 C 644.86 1233.56 644.69 1207.11 644.82 1180.66 C 752.30 1150.88 859.79 1121.16 967.25 1091.31 C 981.92 925.64 997.20 760.02 1011.84 594.35 C 889.54 594.41 767.24 594.36 644.94 594.37 C 644.58 542.59 644.89 490.81 644.81 439.03 C 644.78 434.94 644.83 430.86 644.93 426.79 C 772.23 426.81 899.53 426.74 1026.82 426.83 C 1031.86 373.50 1036.85 320.17 1041.75 266.84 C 909.52 266.84 777.28 266.84 645.05 266.84 C 644.41 226.56 645.00 186.25 644.77 145.96 C 644.95 138.75 644.44 131.52 645.09 124.32 Z" />
<path fill="#ff6520" opacity="1.00" d=" M 644.88 756.87 C 708.34 756.86 771.80 756.87 835.26 756.86 C 827.89 826.42 820.59 895.99 813.35 965.57 C 757.93 980.60 702.45 995.44 647.02 1010.45 C 645.94 1009.13 644.48 1007.87 644.80 1005.99 C 644.84 922.95 644.68 839.91 644.88 756.87 Z" />
</g>
<g id="#ffffffff">
<path fill="#ffffff" opacity="1.00" d=" M 231.15 266.83 C 369.12 266.85 507.08 266.84 645.05 266.84 C 777.28 266.84 909.52 266.84 1041.75 266.84 C 1036.85 320.17 1031.86 373.50 1026.82 426.83 C 899.53 426.74 772.23 426.81 644.93 426.79 C 565.95 426.79 486.97 426.78 407.99 426.80 C 413.36 482.67 419.10 538.51 424.57 594.37 C 498.03 594.37 571.48 594.38 644.94 594.37 C 767.24 594.36 889.54 594.41 1011.84 594.35 C 997.20 760.02 981.92 925.64 967.25 1091.31 C 859.79 1121.16 752.30 1150.88 644.82 1180.66 C 640.90 1181.42 637.08 1183.63 633.05 1183.24 C 523.42 1152.66 413.83 1121.95 304.17 1091.47 C 297.81 1020.68 291.97 949.84 285.71 879.04 C 284.77 864.85 283.04 850.73 282.23 836.54 C 335.87 836.74 389.51 836.46 443.14 836.68 C 446.09 878.20 449.54 919.69 452.67 961.20 C 512.81 978.65 572.95 996.09 633.10 1013.49 C 637.85 1013.72 642.35 1011.27 647.02 1010.45 C 702.45 995.44 757.93 980.60 813.35 965.57 C 820.59 895.99 827.89 826.42 835.26 756.86 C 771.80 756.87 708.34 756.86 644.88 756.87 C 521.89 756.84 398.90 756.93 275.91 756.82 C 261.07 593.48 246.10 430.16 231.15 266.83 Z" />
</g>
</svg>
