<?xml version="1.0" encoding="UTF-8" ?>
<!DOCTYPE svg PUBLIC "-//W3C//DTD SVG 1.1//EN" "http://www.w3.org/Graphics/SVG/1.1/DTD/svg11.dtd">
<svg width="1280pt" height="1280pt" viewBox="0 0 1280 1280" version="1.1" xmlns="http://www.w3.org/2000/svg">
<g id="#2d162239">
<path fill="#2d1622" opacity="0.22" d=" M 596.57 0.00 L 605.28 0.00 C 608.23 0.49 611.08 1.40 613.96 2.23 C 611.39 2.26 608.83 2.33 606.26 2.32 C 603.04 1.51 599.85 0.53 596.57 0.00 Z" />
</g>
<g id="#6a354f85">
<path fill="#6a354f" opacity="0.52" d=" M 605.28 0.00 L 620.71 0.00 C 621.13 0.54 621.96 1.61 622.38 2.15 C 619.57 2.23 616.76 2.30 613.96 2.23 C 611.08 1.40 608.23 0.49 605.28 0.00 Z" />
</g>
<g id="#814061a2">
<path fill="#814061" opacity="0.64" d=" M 620.71 0.00 L 629.00 0.00 C 629.05 0.52 629.14 1.57 629.19 2.09 C 626.91 2.10 624.64 2.10 622.38 2.15 C 621.96 1.61 621.13 0.54 620.71 0.00 Z" />
</g>
<g id="#a05078c9">
<path fill="#a05078" opacity="0.79" d=" M 629.00 0.00 L 637.65 0.00 C 635.63 2.69 632.09 1.92 629.19 2.09 C 629.14 1.57 629.05 0.52 629.00 0.00 Z" />
<path fill="#a05078" opacity="0.79" d=" M 647.31 1280.00 C 649.29 1278.97 651.34 1278.00 653.62 1277.94 C 654.02 1278.45 654.84 1279.48 655.24 1280.00 L 647.31 1280.00 Z" />
</g>
<g id="#cc6699ff">
<path fill="#cc6699" opacity="1.00" d=" M 637.65 0.00 L 643.74 0.00 C 644.35 0.48 645.56 1.43 646.17 1.91 C 648.99 1.99 651.81 2.02 654.63 2.02 C 657.68 2.04 660.73 2.02 663.78 2.10 C 671.91 2.64 680.05 2.91 688.20 2.68 C 695.14 2.72 702.17 2.67 708.95 4.44 C 715.80 6.41 723.11 4.56 729.90 6.83 C 733.84 8.03 737.92 8.55 742.04 8.53 C 746.55 8.49 750.54 11.17 755.04 11.31 C 758.12 11.46 761.34 11.26 764.18 12.69 C 768.61 14.85 773.81 13.58 778.25 15.69 C 782.38 17.48 787.12 16.74 791.23 18.61 C 794.59 20.04 798.44 19.63 801.74 21.30 C 804.96 23.00 808.83 22.42 812.09 24.04 C 815.38 25.77 819.28 25.42 822.57 27.18 C 825.30 28.54 828.54 28.31 831.25 29.76 C 834.52 31.51 838.39 31.44 841.70 33.14 C 918.89 58.71 991.07 99.31 1053.14 151.83 C 1061.15 159.20 1069.78 165.86 1077.53 173.52 C 1093.96 189.38 1110.21 205.50 1124.79 223.11 C 1130.67 229.04 1135.34 235.96 1140.78 242.26 C 1173.95 284.07 1201.83 330.07 1223.68 378.77 C 1226.66 386.42 1230.62 393.66 1233.25 401.45 C 1240.38 419.57 1247.30 437.88 1252.37 456.66 C 1253.30 458.71 1254.24 460.80 1254.45 463.09 C 1254.72 466.61 1257.22 469.47 1257.31 473.04 C 1257.33 476.60 1259.72 479.51 1260.04 483.00 C 1260.31 485.44 1260.69 487.89 1261.71 490.15 C 1263.38 493.85 1262.62 498.12 1264.28 501.84 C 1266.41 506.19 1265.06 511.31 1267.20 515.69 C 1269.48 520.48 1267.80 526.04 1270.08 530.85 C 1271.72 534.35 1271.51 538.24 1271.56 542.01 C 1271.43 547.53 1274.75 552.47 1274.38 558.02 C 1274.01 565.00 1275.58 571.79 1277.05 578.55 C 1277.56 585.88 1277.28 593.26 1277.47 600.62 C 1277.44 603.34 1277.44 606.07 1277.51 608.80 C 1277.40 613.99 1277.87 619.17 1278.12 624.35 C 1277.78 633.66 1278.27 642.96 1278.24 652.27 C 1277.83 657.98 1277.32 663.70 1277.61 669.44 C 1277.21 679.67 1277.30 689.90 1277.10 700.13 C 1276.39 705.76 1274.38 711.22 1274.47 716.96 C 1274.46 721.58 1274.38 726.27 1272.76 730.66 C 1271.30 734.59 1271.61 738.81 1271.46 742.92 C 1271.38 745.76 1269.91 748.28 1269.29 751.00 C 1268.13 754.78 1269.17 758.87 1267.80 762.60 C 1266.68 765.63 1265.64 768.72 1265.66 772.00 C 1265.80 775.51 1263.52 778.46 1263.26 781.90 C 1262.90 784.57 1262.96 787.40 1261.66 789.85 C 1259.67 793.51 1260.58 797.98 1258.50 801.62 C 1256.77 804.86 1258.01 808.88 1255.92 812.00 C 1254.07 814.75 1254.70 818.27 1253.20 821.16 C 1251.13 824.70 1251.83 829.06 1249.71 832.60 C 1244.26 850.20 1237.71 867.51 1230.89 884.65 C 1204.71 947.31 1168.88 1006.01 1124.43 1057.37 C 1118.53 1063.50 1113.49 1070.40 1107.51 1076.47 C 1101.54 1082.52 1095.69 1088.70 1089.61 1094.66 C 1080.98 1103.03 1072.67 1111.78 1063.15 1119.18 C 1055.16 1126.93 1046.24 1133.60 1037.75 1140.79 C 1033.64 1144.38 1028.81 1147.04 1024.85 1150.81 C 993.76 1173.91 960.86 1194.69 926.11 1211.86 C 894.63 1227.81 861.60 1240.64 828.06 1251.30 C 823.39 1252.00 819.28 1254.60 814.49 1254.81 C 811.05 1256.94 807.13 1257.35 803.23 1257.94 C 798.84 1260.45 793.52 1259.64 789.09 1262.00 C 786.82 1262.99 784.30 1262.89 781.92 1263.34 C 778.86 1263.74 776.19 1265.65 773.05 1265.60 C 769.70 1265.58 766.43 1266.27 763.36 1267.58 C 759.44 1269.22 755.05 1268.09 751.03 1269.30 C 748.02 1270.05 745.17 1271.63 742.00 1271.49 C 738.17 1271.51 734.27 1271.46 730.62 1272.79 C 723.32 1275.53 715.34 1273.50 707.92 1275.63 C 698.87 1278.08 689.44 1277.10 680.20 1277.48 C 678.26 1277.48 676.33 1277.49 674.40 1277.55 C 669.52 1277.48 664.64 1277.59 659.76 1277.84 C 657.71 1277.83 655.66 1277.84 653.62 1277.94 C 651.34 1278.00 649.29 1278.97 647.31 1280.00 L 645.25 1280.00 C 638.65 1276.09 630.66 1278.79 623.44 1278.01 C 618.55 1277.68 613.66 1277.42 608.76 1277.47 C 606.76 1277.40 604.77 1277.42 602.78 1277.51 C 596.18 1277.53 589.58 1277.24 582.98 1277.32 C 578.17 1277.51 573.62 1275.81 568.93 1275.07 C 564.67 1274.25 560.30 1274.47 555.99 1274.31 C 551.53 1274.11 547.50 1271.73 543.04 1271.61 C 539.20 1271.32 535.16 1271.98 531.54 1270.35 C 528.52 1269.05 525.27 1268.49 521.99 1268.57 C 518.11 1268.76 514.79 1266.36 511.02 1265.94 C 508.15 1265.64 505.22 1265.51 502.55 1264.33 C 498.39 1262.53 493.63 1263.45 489.53 1261.48 C 486.25 1260.01 482.44 1260.44 479.26 1258.71 C 475.80 1256.63 471.44 1257.96 467.96 1255.92 C 464.86 1254.19 461.07 1254.68 458.01 1252.87 C 455.21 1251.15 451.71 1251.73 448.84 1250.21 C 445.74 1248.65 442.15 1248.63 439.05 1247.10 C 430.76 1244.08 422.32 1241.51 414.20 1238.05 C 407.63 1236.11 401.61 1232.66 394.95 1230.98 C 386.37 1226.25 376.94 1223.31 368.25 1218.78 C 349.26 1209.88 330.71 1200.05 312.72 1189.26 C 288.13 1174.80 264.69 1158.39 242.26 1140.75 C 237.77 1136.50 232.38 1133.37 227.94 1129.08 C 218.48 1120.52 208.49 1112.54 199.44 1103.53 C 185.54 1089.76 171.32 1076.22 158.92 1061.05 C 154.84 1056.16 150.17 1051.77 146.46 1046.58 C 142.50 1040.93 137.38 1036.20 133.59 1030.42 C 86.70 969.72 50.89 900.42 28.48 827.11 C 27.58 822.85 25.43 818.96 25.04 814.57 C 22.57 810.15 23.08 804.90 20.78 800.44 C 19.45 797.24 20.09 793.58 18.60 790.43 C 16.65 786.63 17.35 782.15 15.70 778.27 C 14.51 775.64 14.26 772.75 14.12 769.92 C 14.01 765.77 11.12 762.25 11.42 758.04 C 11.48 754.67 10.90 751.34 9.73 748.19 C 7.74 743.33 9.04 737.95 7.60 732.98 C 6.36 728.41 5.24 723.77 5.55 719.00 C 5.86 711.87 3.00 705.13 2.85 698.04 C 2.74 693.08 2.70 688.13 2.61 683.17 C 2.75 676.80 2.43 670.43 2.11 664.07 C 2.02 660.85 2.02 657.63 2.01 654.42 C 2.07 650.64 1.74 646.88 1.45 643.13 C 1.12 638.59 1.93 634.09 2.01 629.57 C 2.08 626.87 2.08 624.18 2.13 621.49 C 2.34 616.27 2.39 611.04 2.50 605.83 C 2.81 597.16 3.02 588.48 2.92 579.81 C 3.26 573.43 5.95 567.38 5.57 560.94 C 5.25 556.55 6.14 552.26 7.34 548.07 C 9.04 542.27 7.61 535.96 10.17 530.37 C 12.28 525.72 10.56 520.41 12.53 515.73 C 14.68 511.05 13.59 505.64 15.89 501.02 C 17.53 497.36 16.76 493.12 18.48 489.48 C 20.14 486.15 19.29 482.22 20.84 478.86 C 22.99 474.63 22.67 469.65 25.08 465.51 C 25.31 460.18 28.37 455.65 28.84 450.37 C 31.95 443.36 33.42 435.76 36.46 428.70 C 38.85 419.59 43.14 411.15 46.30 402.31 C 49.77 392.78 54.16 383.62 58.25 374.35 C 61.43 366.70 65.32 359.37 69.02 351.97 C 73.52 343.59 77.40 334.86 82.47 326.80 C 88.84 315.52 95.30 304.29 102.57 293.56 C 110.34 280.88 119.36 269.04 127.84 256.83 C 136.77 246.07 144.74 234.49 154.28 224.23 C 160.80 217.37 166.19 209.52 173.09 203.02 C 185.13 190.44 197.53 178.20 210.18 166.24 C 216.72 161.15 222.84 155.57 228.97 150.00 C 232.76 146.47 237.18 143.73 241.08 140.32 C 245.75 136.21 251.12 132.98 255.67 128.73 C 261.34 124.71 266.93 120.56 272.73 116.72 C 283.02 108.75 294.39 102.35 305.15 95.06 C 319.97 86.50 334.58 77.54 350.02 70.09 C 357.72 66.49 364.95 61.77 373.11 59.23 C 373.51 58.87 374.33 58.16 374.73 57.80 C 376.99 57.10 379.24 56.34 381.33 55.20 C 389.43 51.30 397.73 47.84 406.26 45.03 C 407.51 44.35 408.74 43.62 410.11 43.18 C 416.08 41.20 421.66 38.11 427.84 36.76 C 429.97 36.23 431.80 34.85 433.99 34.48 C 438.16 33.97 441.61 31.31 445.82 30.83 C 449.67 28.26 454.48 28.72 458.50 26.56 C 461.30 25.26 464.65 25.97 467.36 24.37 C 470.67 22.42 474.77 22.98 478.14 21.14 C 481.69 19.23 485.97 20.29 489.57 18.55 C 493.37 16.64 497.90 17.63 501.69 15.66 C 505.85 13.62 510.72 14.64 514.97 12.84 C 518.14 11.36 521.65 11.40 525.07 11.34 C 529.55 11.28 533.41 8.23 537.95 8.50 C 542.63 8.52 547.25 7.65 551.76 6.44 C 557.44 4.79 563.47 6.29 569.17 4.82 C 581.25 1.45 593.92 3.31 606.26 2.32 C 608.83 2.33 611.39 2.26 613.96 2.23 C 616.76 2.30 619.57 2.23 622.38 2.15 C 624.64 2.10 626.91 2.10 629.19 2.09 C 632.09 1.92 635.63 2.69 637.65 0.00 M 773.98 154.73 C 768.07 155.86 762.20 157.76 756.11 157.34 C 748.25 156.78 740.88 160.22 733.11 160.51 C 729.35 160.81 725.94 162.86 722.12 162.70 C 717.48 162.67 713.23 164.75 708.72 165.51 C 703.36 166.24 698.40 168.59 693.01 169.16 C 683.07 172.00 673.05 174.57 663.13 177.49 C 649.86 182.38 636.28 186.32 623.04 191.28 C 617.31 193.11 612.12 196.36 606.13 197.41 C 596.44 201.24 587.12 206.04 577.20 209.34 C 547.17 222.61 517.51 236.82 489.01 253.15 C 478.40 258.67 468.54 265.47 458.01 271.13 C 449.22 277.01 440.18 282.50 431.41 288.42 C 424.02 292.47 417.75 298.18 410.61 302.63 C 406.51 305.13 403.04 308.50 399.02 311.11 C 383.97 321.14 370.58 333.35 356.17 344.22 C 348.31 351.69 339.36 357.95 332.02 365.95 C 325.24 372.18 319.00 378.94 312.59 385.53 C 304.60 395.23 295.47 404.00 288.44 414.46 C 280.01 424.57 273.24 435.88 265.83 446.73 C 260.88 455.59 255.52 464.24 251.35 473.52 C 247.70 481.52 243.39 489.30 241.06 497.83 C 239.67 502.15 237.81 506.32 236.93 510.79 C 234.04 520.96 231.34 531.32 231.23 541.96 C 229.85 549.98 231.34 558.03 231.46 566.08 C 231.95 569.19 233.35 572.07 233.96 575.17 C 240.46 601.42 254.23 625.24 270.25 646.80 C 273.17 650.19 276.37 653.36 278.84 657.13 C 282.76 663.08 288.02 667.94 293.00 672.99 C 300.50 680.48 307.92 688.06 315.68 695.28 C 319.96 699.38 325.28 702.18 329.58 706.25 C 333.40 709.44 336.77 713.20 340.98 715.91 C 345.14 718.66 348.36 722.58 352.57 725.28 C 359.20 729.54 365.16 734.72 371.51 739.38 C 380.04 744.72 387.69 751.32 396.25 756.63 C 402.38 760.38 407.65 765.36 413.76 769.15 C 423.06 775.14 431.92 781.72 441.03 787.98 C 446.88 792.96 453.89 796.32 459.68 801.39 C 466.03 805.72 471.72 810.92 477.98 815.39 C 477.57 816.73 477.43 818.31 476.15 819.15 C 472.88 821.79 469.05 823.60 465.37 825.56 C 455.64 830.76 446.07 836.22 436.51 841.71 C 430.19 845.34 423.63 848.59 417.69 852.85 C 412.17 856.77 405.95 859.57 400.49 863.59 C 394.18 868.39 387.08 872.03 380.79 876.84 C 376.20 880.68 370.64 883.14 366.33 887.34 C 355.49 895.40 344.62 903.45 334.92 912.89 C 327.21 919.13 320.36 926.32 313.67 933.62 C 308.55 940.46 301.77 946.06 297.76 953.70 C 295.17 958.33 291.69 962.41 289.44 967.24 C 285.79 976.21 281.46 984.91 278.50 994.16 C 277.59 996.54 274.83 1001.25 278.96 1001.97 C 278.58 1003.75 278.09 1005.52 277.72 1007.31 C 277.60 1006.27 277.37 1004.20 277.26 1003.16 C 276.80 1003.81 275.88 1005.10 275.42 1005.75 C 269.03 1030.25 271.18 1057.07 281.88 1080.10 C 285.41 1086.99 288.59 1094.30 294.11 1099.89 C 301.15 1107.87 309.35 1115.94 319.91 1118.76 C 322.89 1120.99 326.83 1120.43 330.22 1121.57 C 335.40 1123.14 340.90 1122.46 346.17 1123.49 C 353.67 1125.08 361.38 1124.45 368.97 1125.29 C 377.03 1124.64 385.19 1124.85 393.14 1123.11 C 400.23 1122.57 407.63 1122.34 414.22 1119.43 C 427.42 1116.48 440.43 1112.53 452.63 1106.60 C 462.54 1102.79 471.44 1096.93 480.47 1091.44 C 486.33 1088.13 491.30 1083.54 496.87 1079.79 C 506.84 1070.82 516.26 1061.22 525.40 1051.40 C 532.01 1044.42 536.49 1035.84 542.08 1028.09 C 548.16 1018.19 553.70 1007.92 558.24 997.22 C 561.36 991.05 562.98 984.30 565.60 977.93 C 568.25 971.25 568.86 964.05 571.07 957.25 C 572.00 951.46 574.54 945.93 574.34 939.99 C 574.25 932.25 576.73 924.73 576.45 916.99 C 576.36 906.97 577.31 896.80 575.08 886.95 C 574.11 882.42 574.65 877.76 574.08 873.21 C 571.14 861.86 568.69 850.39 565.60 839.09 C 564.50 835.96 567.72 833.77 570.28 832.87 C 577.06 831.18 584.13 831.11 590.89 829.33 C 596.05 828.03 601.40 828.76 606.65 828.42 C 611.82 828.28 616.82 826.59 622.00 826.53 C 629.09 826.39 636.01 828.37 643.09 828.46 C 647.73 828.52 652.47 828.22 656.99 829.54 C 664.93 831.69 673.37 830.89 681.21 833.53 C 703.39 838.55 725.53 846.24 743.82 860.16 C 752.41 865.69 759.33 873.32 766.16 880.83 C 770.21 886.26 773.85 892.02 777.05 898.00 C 781.16 905.61 782.73 914.20 785.46 922.32 C 785.93 928.17 785.84 934.10 785.40 939.96 C 782.91 948.87 779.60 957.73 774.21 965.32 C 768.40 972.69 761.82 979.49 754.33 985.17 C 750.05 988.20 745.03 990.36 741.62 994.48 C 739.91 996.52 740.30 999.41 740.57 1001.87 C 741.15 1005.33 744.92 1006.93 748.02 1007.43 C 755.73 1007.23 762.81 1003.82 769.66 1000.61 C 786.99 991.85 801.26 977.02 809.27 959.31 C 811.14 954.93 813.80 950.74 814.34 945.92 C 814.66 941.78 817.21 938.21 817.31 934.04 C 817.93 922.77 818.14 911.34 816.06 900.21 C 814.94 897.19 814.49 894.01 813.99 890.86 C 812.58 886.75 810.60 882.86 809.35 878.70 C 805.67 866.56 798.04 856.25 791.24 845.73 C 780.79 832.93 768.98 820.99 754.96 812.12 C 735.15 799.06 712.97 789.22 689.58 784.82 C 684.89 783.09 679.97 782.51 675.02 782.22 C 662.52 778.38 649.31 781.54 636.55 779.85 C 633.73 779.53 630.89 779.42 628.08 779.73 C 616.16 781.29 604.08 779.34 592.15 780.85 C 589.11 781.49 586.14 782.57 583.01 782.54 C 576.10 782.43 569.47 784.64 562.87 786.36 C 559.37 786.03 556.38 788.38 552.94 788.52 C 550.34 788.60 547.93 789.52 545.59 790.56 C 542.49 791.96 539.02 791.66 535.71 791.68 C 527.37 783.61 519.85 774.60 510.46 767.68 C 505.22 763.92 501.33 758.67 496.19 754.80 C 490.51 750.51 485.55 745.31 479.60 741.37 C 475.06 738.38 471.31 734.40 466.88 731.27 C 461.54 727.63 456.98 722.93 451.28 719.80 C 442.96 713.50 435.49 706.02 426.62 700.46 C 422.52 697.95 419.47 694.18 415.83 691.12 C 404.74 682.68 395.09 672.57 384.70 663.33 C 372.10 650.14 359.14 636.94 350.03 621.00 C 346.99 616.69 345.39 611.61 342.78 607.07 C 339.70 601.29 337.93 594.94 336.52 588.60 C 336.90 584.58 334.50 581.02 334.56 577.04 C 334.56 570.86 333.68 564.68 334.20 558.50 C 334.73 550.94 333.63 543.15 336.24 535.87 C 337.20 530.36 338.89 524.97 339.44 519.41 C 340.93 513.10 343.87 507.31 346.35 501.35 C 353.35 486.11 361.86 471.48 372.56 458.52 C 376.14 454.39 378.57 449.38 382.49 445.53 C 390.53 437.57 397.91 428.96 406.30 421.35 C 411.01 417.04 415.45 412.44 420.06 408.01 C 423.99 404.17 428.96 401.65 432.98 397.92 C 438.50 392.72 444.99 388.72 450.62 383.66 C 459.91 377.71 468.12 370.23 477.58 364.50 C 484.94 360.30 491.54 354.92 498.92 350.74 C 504.98 347.60 510.48 343.58 516.24 339.95 C 535.01 329.33 553.68 318.54 572.84 308.63 C 588.13 301.25 603.00 292.93 618.84 286.72 C 633.41 280.34 648.03 274.04 663.06 268.80 C 669.84 266.04 677.05 264.49 683.76 261.54 C 691.24 259.51 698.55 256.93 706.00 254.81 C 713.47 253.39 720.72 251.03 727.98 248.81 C 730.58 248.33 733.31 248.59 735.84 247.66 C 741.58 245.55 747.89 245.88 753.63 243.68 C 758.50 241.72 763.90 243.20 768.81 241.47 C 773.05 240.08 777.57 240.35 781.92 239.45 C 792.13 237.35 802.58 236.46 813.00 236.75 C 828.96 236.25 844.93 236.72 860.87 237.02 C 869.68 238.21 878.47 239.47 887.18 241.27 C 891.71 242.86 896.71 242.26 901.13 244.33 C 915.41 248.44 929.62 253.62 942.05 261.93 C 948.61 265.86 953.76 271.57 959.11 276.93 C 966.18 284.62 970.08 294.58 972.24 304.67 C 972.33 310.80 974.38 316.74 973.77 322.93 C 974.51 332.54 970.46 341.59 970.16 351.12 C 965.22 368.93 956.93 385.63 947.31 401.36 C 943.97 406.90 939.66 411.77 936.27 417.28 C 911.01 449.43 879.61 476.62 844.49 497.51 C 831.28 505.25 818.17 513.43 803.79 518.88 C 791.20 524.83 778.13 529.60 765.01 534.19 C 760.17 535.52 755.35 536.95 750.63 538.65 C 735.42 542.86 720.13 546.85 704.48 549.00 C 699.80 550.47 694.93 551.17 690.03 551.22 C 682.89 551.36 676.10 553.97 669.01 554.45 C 662.29 554.43 655.71 556.21 648.98 555.73 C 642.58 556.16 636.33 554.41 629.95 554.42 C 623.51 554.33 617.51 551.79 611.23 550.80 C 601.60 548.67 592.43 544.93 583.64 540.51 C 571.31 534.88 559.99 527.17 550.05 517.97 C 546.50 514.59 543.30 510.47 538.57 508.70 C 534.69 507.81 530.67 510.49 528.89 513.82 C 528.26 518.22 528.20 522.82 528.93 527.22 C 532.10 535.46 536.89 542.97 541.89 550.22 C 548.76 558.57 556.55 566.17 564.95 573.00 C 580.33 584.02 597.94 592.14 616.61 595.51 C 618.75 597.12 621.48 597.06 624.03 597.27 C 630.81 597.56 637.18 600.45 643.99 600.49 C 652.04 600.66 659.92 602.69 667.98 602.65 C 683.67 602.78 699.36 602.76 715.05 602.66 C 717.50 602.60 720.12 602.87 722.37 601.65 C 728.89 601.19 735.36 600.25 741.90 600.18 C 748.61 598.93 755.18 596.89 762.06 596.68 C 770.48 594.94 778.92 593.25 787.17 590.73 C 794.62 589.35 801.76 586.63 809.12 584.83 C 818.91 581.34 828.83 578.20 838.52 574.42 C 847.12 570.57 855.86 567.08 864.53 563.39 C 870.65 561.27 876.12 557.73 881.97 555.00 C 898.10 546.70 913.26 536.65 928.01 526.15 C 936.86 519.69 944.34 511.60 953.25 505.23 C 962.15 497.83 970.22 489.48 977.71 480.67 C 984.75 470.53 994.32 462.36 1000.57 451.64 C 1016.32 429.38 1029.64 405.13 1037.81 379.03 C 1039.72 372.78 1042.56 366.76 1043.02 360.16 C 1044.91 354.43 1046.54 348.58 1046.68 342.49 C 1046.17 342.42 1045.17 342.26 1044.66 342.19 C 1044.89 341.02 1045.09 339.85 1045.29 338.68 C 1045.42 339.12 1045.68 339.99 1045.81 340.42 L 1047.17 341.17 C 1047.87 337.80 1048.40 334.38 1048.42 330.94 C 1048.41 319.95 1048.43 308.97 1048.42 297.99 C 1048.46 294.48 1047.87 290.99 1046.81 287.66 C 1045.66 288.62 1045.17 289.86 1045.36 291.40 C 1044.92 289.17 1044.33 286.96 1043.97 284.73 C 1044.65 285.66 1045.38 286.57 1046.18 287.44 C 1047.22 281.00 1043.69 275.19 1042.64 269.02 C 1041.94 265.16 1040.04 261.70 1038.62 258.09 C 1035.15 248.14 1029.80 238.85 1023.39 230.51 C 1018.79 225.72 1015.64 219.70 1010.54 215.39 C 1004.26 209.63 997.79 204.07 991.13 198.76 C 984.49 194.47 977.69 190.40 970.95 186.27 C 958.55 179.73 945.54 174.36 932.29 169.80 C 922.51 167.42 913.19 162.97 903.10 162.17 C 897.99 160.01 892.41 159.81 887.06 158.67 C 879.20 156.47 870.78 157.88 863.03 155.09 C 854.65 153.44 845.97 155.45 837.57 153.70 C 830.72 153.17 823.82 153.54 816.99 152.65 C 810.71 153.51 804.38 153.24 798.08 153.63 C 790.12 155.25 781.99 153.82 773.98 154.73 Z" />
<path fill="#cc6699" opacity="1.00" d=" M 500.12 863.09 C 502.68 861.68 505.18 860.06 508.04 859.35 C 513.57 861.20 513.21 868.04 514.10 872.76 C 514.80 881.53 517.10 890.15 516.51 899.02 C 517.17 908.23 514.20 917.13 514.26 926.30 C 512.52 933.84 511.33 941.56 508.52 948.80 C 506.57 954.00 505.02 959.38 502.51 964.36 C 497.25 974.53 491.39 984.42 484.35 993.47 C 479.43 1001.34 472.69 1007.77 466.38 1014.50 C 460.81 1019.58 455.58 1025.13 449.20 1029.22 C 444.62 1032.29 440.40 1035.88 435.56 1038.55 C 430.56 1041.34 425.34 1043.71 420.25 1046.33 C 414.11 1049.46 407.38 1051.07 400.89 1053.27 C 397.38 1054.46 393.64 1054.49 389.99 1054.71 C 383.33 1055.17 376.57 1055.12 369.99 1053.92 C 364.01 1051.68 359.03 1047.00 355.98 1041.43 C 354.55 1036.42 353.30 1031.24 353.45 1026.01 C 353.95 1018.53 355.11 1011.10 356.96 1003.84 C 366.34 973.33 385.96 946.69 410.00 926.02 C 416.50 920.58 422.14 914.10 429.26 909.42 C 438.00 903.15 445.85 895.66 455.13 890.15 C 469.44 880.03 484.72 871.42 500.12 863.09 Z" />
</g>
<g id="#9c4e75c4">
<path fill="#9c4e75" opacity="0.77" d=" M 643.74 0.00 L 656.22 0.00 C 655.82 0.50 655.03 1.51 654.63 2.02 C 651.81 2.02 648.99 1.99 646.17 1.91 C 645.56 1.43 644.35 0.48 643.74 0.00 Z" />
</g>
<g id="#814060a2">
<path fill="#814060" opacity="0.64" d=" M 656.22 0.00 L 667.10 0.00 C 665.97 0.68 664.87 1.39 663.78 2.10 C 660.73 2.02 657.68 2.04 654.63 2.02 C 655.03 1.51 655.82 0.50 656.22 0.00 Z" />
</g>
<g id="#552a406b">
<path fill="#552a40" opacity="0.42" d=" M 667.10 0.00 L 674.49 0.00 C 673.09 0.54 671.71 1.15 670.35 1.75 C 672.39 1.86 674.44 1.96 676.49 1.99 C 680.40 2.15 684.29 2.51 688.20 2.68 C 680.05 2.91 671.91 2.64 663.78 2.10 C 664.87 1.39 665.97 0.68 667.10 0.00 Z" />
</g>
<g id="#23111a2c">
<path fill="#23111a" opacity="0.17" d=" M 674.49 0.00 L 683.65 0.00 C 681.25 0.61 678.89 1.38 676.49 1.99 C 674.44 1.96 672.39 1.86 670.35 1.75 C 671.71 1.15 673.09 0.54 674.49 0.00 Z" />
</g>
<g id="#ad0a5cff">
<path fill="#ad0a5c" opacity="1.00" d=" M 773.98 154.73 C 781.99 153.82 790.12 155.25 798.08 153.63 C 804.38 153.24 810.71 153.51 816.99 152.65 C 823.82 153.54 830.72 153.17 837.57 153.70 C 845.97 155.45 854.65 153.44 863.03 155.09 C 870.78 157.88 879.20 156.47 887.06 158.67 C 892.41 159.81 897.99 160.01 903.10 162.17 C 913.19 162.97 922.51 167.42 932.29 169.80 C 945.54 174.36 958.55 179.73 970.95 186.27 C 977.69 190.40 984.49 194.47 991.13 198.76 C 997.79 204.07 1004.26 209.63 1010.54 215.39 C 1015.64 219.70 1018.79 225.72 1023.39 230.51 C 1029.80 238.85 1035.15 248.14 1038.62 258.09 C 1040.04 261.70 1041.94 265.16 1042.64 269.02 C 1043.69 275.19 1047.22 281.00 1046.18 287.44 C 1045.38 286.57 1044.65 285.66 1043.97 284.73 C 1040.40 263.58 1031.48 243.03 1017.20 226.90 C 1010.19 217.60 1001.01 210.26 992.13 202.85 C 970.92 187.03 946.38 176.13 921.01 168.89 C 914.02 166.28 906.60 165.39 899.44 163.41 C 890.99 161.75 882.60 159.73 873.97 159.34 C 862.16 156.67 850.04 156.83 838.05 155.70 C 820.70 155.01 803.28 155.04 785.97 156.56 C 775.24 156.58 764.72 158.78 754.09 159.79 C 746.91 159.72 740.10 162.31 733.01 162.98 C 718.36 165.45 703.84 168.70 689.48 172.53 C 678.89 175.56 668.12 178.03 657.78 181.89 C 642.25 187.16 626.59 192.13 611.43 198.42 C 603.05 200.88 595.25 204.85 587.17 208.11 C 578.54 211.21 570.24 215.12 561.89 218.86 C 529.52 233.53 497.94 250.00 467.57 268.48 C 453.95 276.35 441.00 285.32 427.73 293.77 C 419.67 299.73 411.19 305.10 403.27 311.25 C 390.32 320.12 378.24 330.13 366.03 339.96 C 357.48 346.02 350.21 353.62 341.95 360.05 C 328.25 372.98 314.93 386.37 302.87 400.87 C 295.54 408.36 289.93 417.23 283.35 425.34 C 260.74 456.66 241.84 491.67 234.66 529.97 C 233.09 542.23 232.48 554.69 234.18 566.97 C 238.14 583.81 244.05 600.24 252.63 615.31 C 257.79 624.60 263.64 633.50 269.91 642.09 C 273.13 646.42 276.90 650.31 280.07 654.68 C 279.76 655.29 279.15 656.51 278.84 657.13 C 276.37 653.36 273.17 650.19 270.25 646.80 C 254.23 625.24 240.46 601.42 233.96 575.17 C 233.35 572.07 231.95 569.19 231.46 566.08 C 231.34 558.03 229.85 549.98 231.23 541.96 C 231.34 531.32 234.04 520.96 236.93 510.79 C 237.81 506.32 239.67 502.15 241.06 497.83 C 243.39 489.30 247.70 481.52 251.35 473.52 C 255.52 464.24 260.88 455.59 265.83 446.73 C 273.24 435.88 280.01 424.57 288.44 414.46 C 295.47 404.00 304.60 395.23 312.59 385.53 C 319.00 378.94 325.24 372.18 332.02 365.95 C 339.36 357.95 348.31 351.69 356.17 344.22 C 370.58 333.35 383.97 321.14 399.02 311.11 C 403.04 308.50 406.51 305.13 410.61 302.63 C 417.75 298.18 424.02 292.47 431.41 288.42 C 440.18 282.50 449.22 277.01 458.01 271.13 C 468.54 265.47 478.40 258.67 489.01 253.15 C 517.51 236.82 547.17 222.61 577.20 209.34 C 587.12 206.04 596.44 201.24 606.13 197.41 C 612.12 196.36 617.31 193.11 623.04 191.28 C 636.28 186.32 649.86 182.38 663.13 177.49 C 673.05 174.57 683.07 172.00 693.01 169.16 C 698.40 168.59 703.36 166.24 708.72 165.51 C 713.23 164.75 717.48 162.67 722.12 162.70 C 725.94 162.86 729.35 160.81 733.11 160.51 C 740.88 160.22 748.25 156.78 756.11 157.34 C 762.20 157.76 768.07 155.86 773.98 154.73 Z" />
<path fill="#ad0a5c" opacity="1.00" d=" M 1045.36 291.40 C 1045.17 289.86 1045.66 288.62 1046.81 287.66 C 1047.87 290.99 1048.46 294.48 1048.42 297.99 C 1048.43 308.97 1048.41 319.95 1048.42 330.94 C 1048.40 334.38 1047.87 337.80 1047.17 341.17 L 1045.81 340.42 C 1045.68 339.99 1045.42 339.12 1045.29 338.68 C 1046.82 322.97 1046.87 307.11 1045.36 291.40 Z" />
</g>
<g id="#ffffffff">
<path fill="#ffffff" opacity="1.00" d=" M 785.97 156.56 C 803.28 155.04 820.70 155.01 838.05 155.70 C 850.04 156.83 862.16 156.67 873.97 159.34 C 882.60 159.73 890.99 161.75 899.44 163.41 C 906.60 165.39 914.02 166.28 921.01 168.89 C 946.38 176.13 970.92 187.03 992.13 202.85 C 1001.01 210.26 1010.19 217.60 1017.20 226.90 C 1031.48 243.03 1040.40 263.58 1043.97 284.73 C 1044.33 286.96 1044.92 289.17 1045.36 291.40 C 1046.87 307.11 1046.82 322.97 1045.29 338.68 C 1045.09 339.85 1044.89 341.02 1044.66 342.19 C 1040.80 366.66 1032.55 390.34 1021.55 412.50 C 1010.38 433.83 997.24 454.27 981.11 472.20 C 972.72 483.02 963.13 492.88 952.91 501.98 C 941.53 511.26 930.95 521.57 918.61 529.62 C 905.97 538.69 892.64 546.80 878.83 553.94 C 868.91 559.37 858.33 563.41 847.94 567.82 C 826.10 577.35 803.33 584.73 780.12 590.12 C 772.35 591.44 764.83 594.03 756.93 594.56 C 751.73 595.06 746.74 596.76 741.54 597.22 C 731.02 598.12 720.56 599.84 709.99 599.79 C 693.76 599.89 677.52 600.26 661.32 599.27 C 658.74 598.97 656.16 598.69 653.58 598.63 C 651.09 598.31 648.64 597.79 646.16 597.52 C 640.54 597.13 635.01 596.05 629.48 595.04 C 606.74 592.94 584.62 584.41 566.39 570.65 C 555.23 561.14 544.35 550.82 537.02 537.98 C 532.85 531.67 529.59 524.14 530.67 516.43 C 531.72 513.37 534.65 510.50 538.09 510.80 C 543.04 514.14 546.60 519.07 551.12 522.92 C 567.92 536.93 587.90 546.97 608.89 552.99 C 617.23 554.66 625.49 557.03 634.05 557.38 C 641.69 558.19 649.39 558.92 657.08 558.13 C 663.86 557.27 670.78 557.34 677.45 555.66 C 682.58 554.35 687.86 553.95 693.13 553.61 C 704.09 552.24 714.84 549.61 725.71 547.66 C 743.91 543.46 761.91 538.28 779.40 531.72 C 791.59 527.62 803.13 521.91 814.96 516.93 C 844.46 502.09 872.73 484.41 897.53 462.51 C 916.29 445.50 933.92 426.99 947.70 405.65 C 960.35 385.69 971.06 363.87 974.76 340.34 C 977.43 328.35 977.45 315.73 974.45 303.80 C 972.63 294.70 969.22 285.82 963.76 278.27 C 953.83 265.34 939.83 256.06 924.82 250.02 C 904.36 240.96 882.09 237.37 860.02 234.83 C 842.03 233.88 823.99 234.08 805.99 234.57 C 796.92 234.85 787.99 236.63 778.96 237.40 C 773.22 237.77 767.74 239.83 761.99 239.99 C 756.49 240.02 751.37 242.27 745.99 243.01 C 731.32 245.47 717.06 249.70 702.67 253.38 C 673.86 261.75 645.63 272.07 618.25 284.31 C 600.98 291.35 584.56 300.25 567.88 308.54 C 557.99 313.69 548.11 318.87 538.56 324.61 C 529.14 329.76 519.72 334.93 510.59 340.56 C 503.42 345.52 495.66 349.53 488.42 354.38 C 479.74 360.45 470.54 365.74 462.13 372.20 C 455.62 377.41 448.44 381.73 442.11 387.18 C 434.79 392.42 428.26 398.65 421.01 403.97 C 407.99 415.26 395.86 427.52 384.03 440.04 C 378.41 445.85 373.94 452.61 368.85 458.86 C 357.92 473.26 348.79 489.01 341.86 505.71 C 337.73 515.28 335.03 525.42 333.24 535.68 C 331.31 540.98 331.62 546.71 331.43 552.26 C 331.24 561.27 331.22 570.30 331.84 579.30 C 332.22 581.70 332.87 584.06 333.54 586.40 C 336.41 599.22 341.69 611.35 348.30 622.67 C 358.21 639.77 371.91 654.25 385.92 668.04 C 394.09 675.19 401.55 683.16 410.18 689.78 C 415.42 693.83 420.01 698.67 425.48 702.44 C 435.46 709.38 444.18 717.98 454.33 724.69 C 471.97 738.64 490.19 751.94 506.54 767.44 C 517.09 775.89 526.49 785.61 535.61 795.56 C 546.48 792.23 557.45 789.04 568.71 787.35 C 575.66 785.52 582.86 785.24 589.90 783.87 C 604.50 781.94 619.27 782.59 633.95 781.93 C 647.95 782.74 662.12 781.82 675.95 784.60 C 697.77 788.01 719.20 794.62 738.58 805.35 C 751.81 812.57 764.43 821.17 774.97 832.02 C 781.74 838.96 788.71 845.92 793.65 854.35 C 799.49 862.64 804.44 871.64 807.67 881.28 C 812.29 892.63 814.70 904.82 815.47 917.02 C 816.70 936.80 810.09 956.64 798.47 972.54 C 786.61 987.96 770.15 1000.47 750.96 1004.86 C 747.99 1005.91 744.63 1004.42 742.94 1001.91 C 742.45 1000.25 742.51 998.49 742.81 996.83 C 747.17 992.00 753.39 989.46 758.48 985.51 C 766.15 979.56 772.97 972.42 778.25 964.26 C 782.80 956.47 786.29 947.95 788.00 939.07 C 788.35 932.33 788.86 925.39 786.98 918.82 C 785.09 912.00 783.42 905.05 780.28 898.67 C 772.69 882.72 761.00 868.65 746.47 858.59 C 724.88 842.58 698.73 833.99 672.53 829.25 C 662.63 828.46 652.97 825.79 643.00 825.65 C 634.01 825.56 625.02 824.08 616.04 825.02 C 609.76 825.55 603.47 825.71 597.19 826.14 C 591.71 826.52 586.36 827.89 580.91 828.52 C 573.84 829.24 567.03 831.33 560.05 832.59 C 560.62 833.97 561.22 835.35 561.83 836.74 C 564.47 843.39 565.88 850.43 567.73 857.32 C 569.21 864.78 571.78 872.05 571.87 879.73 C 573.44 892.10 574.48 904.59 573.70 917.06 C 573.75 926.07 571.82 934.93 571.37 943.92 C 569.82 953.03 567.19 961.94 565.13 970.95 C 558.48 992.87 548.81 1013.95 535.75 1032.80 C 525.15 1049.62 510.71 1063.59 496.00 1076.80 C 491.67 1080.18 487.22 1083.43 482.88 1086.80 C 472.67 1093.15 462.57 1099.88 451.34 1104.35 C 437.33 1111.15 422.24 1115.36 407.06 1118.57 C 401.67 1120.29 395.97 1119.89 390.44 1120.80 C 375.59 1122.77 360.49 1122.82 345.65 1120.63 C 340.98 1119.88 336.16 1120.31 331.59 1118.96 C 326.02 1117.33 319.99 1117.07 314.87 1114.09 C 307.80 1110.12 301.85 1104.44 296.60 1098.33 C 290.05 1091.36 285.86 1082.62 282.09 1073.94 C 275.82 1057.45 272.97 1039.50 275.03 1021.92 C 275.65 1017.00 276.89 1012.19 277.72 1007.31 C 278.09 1005.52 278.58 1003.75 278.96 1001.97 C 280.64 992.70 284.47 984.04 288.18 975.45 C 291.98 965.82 297.98 957.28 303.93 948.90 C 310.74 941.37 316.90 933.26 324.24 926.22 C 329.68 920.30 336.12 915.46 342.00 910.00 C 351.28 901.12 362.06 894.06 372.00 885.98 C 381.08 879.70 390.02 873.20 399.37 867.32 C 407.16 861.62 415.73 857.13 423.73 851.75 C 438.40 843.30 452.96 834.66 467.95 826.80 C 473.28 824.08 478.19 820.38 484.12 819.02 C 483.40 815.37 479.67 814.06 477.18 811.83 C 461.74 799.02 444.85 788.19 428.62 776.45 C 399.65 756.23 370.33 736.42 342.77 714.29 C 336.09 709.35 330.40 703.23 323.54 698.52 C 311.22 688.22 300.14 676.54 288.86 665.12 C 285.63 661.91 282.80 658.32 280.07 654.68 C 276.90 650.31 273.13 646.42 269.91 642.09 C 263.64 633.50 257.79 624.60 252.63 615.31 C 244.05 600.24 238.14 583.81 234.18 566.97 C 232.48 554.69 233.09 542.23 234.66 529.97 C 241.84 491.67 260.74 456.66 283.35 425.34 C 289.93 417.23 295.54 408.36 302.87 400.87 C 314.93 386.37 328.25 372.98 341.95 360.05 C 350.21 353.62 357.48 346.02 366.03 339.96 C 378.24 330.13 390.32 320.12 403.27 311.25 C 411.19 305.10 419.67 299.73 427.73 293.77 C 441.00 285.32 453.95 276.35 467.57 268.48 C 497.94 250.00 529.52 233.53 561.89 218.86 C 570.24 215.12 578.54 211.21 587.17 208.11 C 595.25 204.85 603.05 200.88 611.43 198.42 C 626.59 192.13 642.25 187.16 657.78 181.89 C 668.12 178.03 678.89 175.56 689.48 172.53 C 703.84 168.70 718.36 165.45 733.01 162.98 C 740.10 162.31 746.91 159.72 754.09 159.79 C 764.72 158.78 775.24 156.58 785.97 156.56 M 508.21 856.07 L 508.31 856.19 C 505.94 857.10 503.63 858.13 501.46 859.46 C 489.55 865.72 477.73 872.19 466.43 879.48 C 459.41 883.64 452.94 888.63 446.01 892.92 C 437.25 899.89 428.22 906.52 419.52 913.56 C 408.50 924.17 396.00 933.36 386.62 945.57 C 380.14 952.67 374.93 960.78 369.80 968.86 C 362.92 981.17 356.08 993.96 353.57 1007.96 C 353.07 1009.21 352.62 1010.47 352.35 1011.81 C 350.45 1022.42 349.61 1033.78 354.13 1043.89 L 354.25 1043.73 C 357.42 1050.25 363.69 1054.57 370.53 1056.56 C 389.90 1059.92 409.71 1054.74 426.89 1045.79 C 437.83 1040.98 447.47 1033.88 457.02 1026.82 C 465.36 1019.60 473.15 1011.75 480.44 1003.46 C 483.58 999.27 486.46 994.88 489.76 990.81 C 496.10 981.35 502.01 971.53 506.62 961.11 C 509.69 952.55 513.30 944.07 514.62 935.01 C 515.87 929.48 517.77 923.98 517.59 918.24 C 519.90 905.41 519.76 892.16 517.77 879.29 L 517.40 879.43 L 517.88 879.23 C 516.85 872.30 515.79 865.34 513.40 858.72 C 513.62 857.46 513.44 856.20 513.46 854.96 C 513.08 854.65 512.31 854.02 511.92 853.70 C 510.65 854.43 509.40 855.21 508.21 856.07 Z" />
</g>
<g id="#af0e5eff">
<path fill="#af0e5e" opacity="1.00" d=" M 805.99 234.57 C 823.99 234.08 842.03 233.88 860.02 234.83 C 882.09 237.37 904.36 240.96 924.82 250.02 C 939.83 256.06 953.83 265.34 963.76 278.27 C 969.22 285.82 972.63 294.70 974.45 303.80 C 974.21 305.17 973.96 306.55 973.70 307.92 C 973.20 306.84 972.69 305.75 972.24 304.67 C 970.08 294.58 966.18 284.62 959.11 276.93 C 953.76 271.57 948.61 265.86 942.05 261.93 C 929.62 253.62 915.41 248.44 901.13 244.33 C 896.71 242.26 891.71 242.86 887.18 241.27 C 878.47 239.47 869.68 238.21 860.87 237.02 C 844.93 236.72 828.96 236.25 813.00 236.75 C 802.58 236.46 792.13 237.35 781.92 239.45 C 777.57 240.35 773.05 240.08 768.81 241.47 C 763.90 243.20 758.50 241.72 753.63 243.68 C 747.89 245.88 741.58 245.55 735.84 247.66 C 733.31 248.59 730.58 248.33 727.98 248.81 C 720.72 251.03 713.47 253.39 706.00 254.81 C 698.55 256.93 691.24 259.51 683.76 261.54 C 677.05 264.49 669.84 266.04 663.06 268.80 C 648.03 274.04 633.41 280.34 618.84 286.72 C 603.00 292.93 588.13 301.25 572.84 308.63 C 553.68 318.54 535.01 329.33 516.24 339.95 C 510.48 343.58 504.98 347.60 498.92 350.74 C 491.54 354.92 484.94 360.30 477.58 364.50 C 468.12 370.23 459.91 377.71 450.62 383.66 C 444.99 388.72 438.50 392.72 432.98 397.92 C 428.96 401.65 423.99 404.17 420.06 408.01 C 415.45 412.44 411.01 417.04 406.30 421.35 C 397.91 428.96 390.53 437.57 382.49 445.53 C 378.57 449.38 376.14 454.39 372.56 458.52 C 361.86 471.48 353.35 486.11 346.35 501.35 C 343.87 507.31 340.93 513.10 339.44 519.41 C 338.38 521.85 337.22 524.28 336.87 526.95 C 336.25 530.04 336.24 533.81 333.24 535.68 C 335.03 525.42 337.73 515.28 341.86 505.71 C 348.79 489.01 357.92 473.26 368.85 458.86 C 373.94 452.61 378.41 445.85 384.03 440.04 C 395.86 427.52 407.99 415.26 421.01 403.97 C 428.26 398.65 434.79 392.42 442.11 387.18 C 448.44 381.73 455.62 377.41 462.13 372.20 C 470.54 365.74 479.74 360.45 488.42 354.38 C 495.66 349.53 503.42 345.52 510.59 340.56 C 519.72 334.93 529.14 329.76 538.56 324.61 C 548.11 318.87 557.99 313.69 567.88 308.54 C 584.56 300.25 600.98 291.35 618.25 284.31 C 645.63 272.07 673.86 261.75 702.67 253.38 C 717.06 249.70 731.32 245.47 745.99 243.01 C 751.37 242.27 756.49 240.02 761.99 239.99 C 767.74 239.83 773.22 237.77 778.96 237.40 C 787.99 236.63 796.92 234.85 805.99 234.57 Z" />
</g>
<g id="#bc3678ff">
<path fill="#bc3678" opacity="1.00" d=" M 974.45 303.80 C 977.45 315.73 977.43 328.35 974.76 340.34 C 974.48 339.75 973.92 338.57 973.64 337.97 C 972.38 342.33 971.70 346.84 970.16 351.12 C 970.46 341.59 974.51 332.54 973.77 322.93 C 974.38 316.74 972.33 310.80 972.24 304.67 C 972.69 305.75 973.20 306.84 973.70 307.92 C 973.96 306.55 974.21 305.17 974.45 303.80 Z" />
</g>
<g id="#b01563ff">
<path fill="#b01563" opacity="1.00" d=" M 970.16 351.12 C 971.70 346.84 972.38 342.33 973.64 337.97 C 973.92 338.57 974.48 339.75 974.76 340.34 C 971.06 363.87 960.35 385.69 947.70 405.65 C 933.92 426.99 916.29 445.50 897.53 462.51 C 872.73 484.41 844.46 502.09 814.96 516.93 C 803.13 521.91 791.59 527.62 779.40 531.72 C 761.91 538.28 743.91 543.46 725.71 547.66 C 714.84 549.61 704.09 552.24 693.13 553.61 C 687.86 553.95 682.58 554.35 677.45 555.66 C 670.78 557.34 663.86 557.27 657.08 558.13 C 649.39 558.92 641.69 558.19 634.05 557.38 C 625.49 557.03 617.23 554.66 608.89 552.99 C 587.90 546.97 567.92 536.93 551.12 522.92 C 546.60 519.07 543.04 514.14 538.09 510.80 C 534.65 510.50 531.72 513.37 530.67 516.43 C 529.59 524.14 532.85 531.67 537.02 537.98 C 544.35 550.82 555.23 561.14 566.39 570.65 C 584.62 584.41 606.74 592.94 629.48 595.04 C 625.36 596.73 620.87 596.35 616.61 595.51 C 597.94 592.14 580.33 584.02 564.95 573.00 C 556.55 566.17 548.76 558.57 541.89 550.22 C 536.89 542.97 532.10 535.46 528.93 527.22 C 528.20 522.82 528.26 518.22 528.89 513.82 C 530.67 510.49 534.69 507.81 538.57 508.70 C 543.30 510.47 546.50 514.59 550.05 517.97 C 559.99 527.17 571.31 534.88 583.64 540.51 C 592.43 544.93 601.60 548.67 611.23 550.80 C 617.51 551.79 623.51 554.33 629.95 554.42 C 636.33 554.41 642.58 556.16 648.98 555.73 C 655.71 556.21 662.29 554.43 669.01 554.45 C 676.10 553.97 682.89 551.36 690.03 551.22 C 694.93 551.17 699.80 550.47 704.48 549.00 C 720.13 546.85 735.42 542.86 750.63 538.65 C 755.35 536.95 760.17 535.52 765.01 534.19 C 778.13 529.60 791.20 524.83 803.79 518.88 C 818.17 513.43 831.28 505.25 844.49 497.51 C 879.61 476.62 911.01 449.43 936.27 417.28 C 939.66 411.77 943.97 406.90 947.31 401.36 C 956.93 385.63 965.22 368.93 970.16 351.12 Z" />
</g>
<g id="#ae0d5dff">
<path fill="#ae0d5d" opacity="1.00" d=" M 1044.66 342.19 C 1045.17 342.26 1046.17 342.42 1046.68 342.49 C 1046.54 348.58 1044.91 354.43 1043.02 360.16 C 1042.56 366.76 1039.72 372.78 1037.81 379.03 C 1029.64 405.13 1016.32 429.38 1000.57 451.64 C 994.32 462.36 984.75 470.53 977.71 480.67 C 970.22 489.48 962.15 497.83 953.25 505.23 C 944.34 511.60 936.86 519.69 928.01 526.15 C 913.26 536.65 898.10 546.70 881.97 555.00 C 876.12 557.73 870.65 561.27 864.53 563.39 C 855.86 567.08 847.12 570.57 838.52 574.42 C 828.83 578.20 818.91 581.34 809.12 584.83 C 801.76 586.63 794.62 589.35 787.17 590.73 C 784.80 590.60 782.47 590.30 780.12 590.12 C 803.33 584.73 826.10 577.35 847.94 567.82 C 858.33 563.41 868.91 559.37 878.83 553.94 C 892.64 546.80 905.97 538.69 918.61 529.62 C 930.95 521.57 941.53 511.26 952.91 501.98 C 963.13 492.88 972.72 483.02 981.11 472.20 C 997.24 454.27 1010.38 433.83 1021.55 412.50 C 1032.55 390.34 1040.80 366.66 1044.66 342.19 Z" />
</g>
<g id="#bc3477ff">
<path fill="#bc3477" opacity="1.00" d=" M 336.87 526.95 C 337.22 524.28 338.38 521.85 339.44 519.41 C 338.89 524.97 337.20 530.36 336.24 535.87 C 333.63 543.15 334.73 550.94 334.20 558.50 C 333.68 564.68 334.56 570.86 334.56 577.04 C 334.50 581.02 336.90 584.58 336.52 588.60 C 335.71 587.14 334.84 585.72 333.96 584.31 C 333.86 584.83 333.65 585.87 333.54 586.40 C 332.87 584.06 332.22 581.70 331.84 579.30 C 332.31 579.34 333.24 579.43 333.70 579.47 C 333.98 571.98 332.49 564.55 333.08 557.06 C 333.11 552.03 334.61 546.77 332.55 541.94 C 331.91 545.34 331.52 548.79 331.43 552.26 C 331.62 546.71 331.31 540.98 333.24 535.68 C 336.24 533.81 336.25 530.04 336.87 526.95 Z" />
</g>
<g id="#a90653ff">
<path fill="#a90653" opacity="1.00" d=" M 332.55 541.94 C 334.61 546.77 333.11 552.03 333.08 557.06 C 332.49 564.55 333.98 571.98 333.70 579.47 C 333.24 579.43 332.31 579.34 331.84 579.30 C 331.22 570.30 331.24 561.27 331.43 552.26 C 331.52 548.79 331.91 545.34 332.55 541.94 Z" />
</g>
<g id="#44223255">
<path fill="#442232" opacity="0.33" d=" M 1.26 604.38 C 3.43 596.35 1.71 587.97 2.92 579.81 C 3.02 588.48 2.81 597.16 2.50 605.83 C 2.28 608.62 1.90 611.41 1.54 614.20 C 0.99 611.94 0.43 609.69 0.00 607.41 L 0.00 597.41 C 0.26 599.76 0.76 602.06 1.26 604.38 Z" />
</g>
<g id="#a6004cff">
<path fill="#a6004c" opacity="1.00" d=" M 333.96 584.31 C 334.84 585.72 335.71 587.14 336.52 588.60 C 337.93 594.94 339.70 601.29 342.78 607.07 C 345.39 611.61 346.99 616.69 350.03 621.00 C 359.14 636.94 372.10 650.14 384.70 663.33 C 395.09 672.57 404.74 682.68 415.83 691.12 C 419.47 694.18 422.52 697.95 426.62 700.46 C 435.49 706.02 442.96 713.50 451.28 719.80 C 456.98 722.93 461.54 727.63 466.88 731.27 C 471.31 734.40 475.06 738.38 479.60 741.37 C 485.55 745.31 490.51 750.51 496.19 754.80 C 501.33 758.67 505.22 763.92 510.46 767.68 C 519.85 774.60 527.37 783.61 535.71 791.68 C 539.02 791.66 542.49 791.96 545.59 790.56 C 547.93 789.52 550.34 788.60 552.94 788.52 C 556.38 788.38 559.37 786.03 562.87 786.36 C 564.82 786.65 566.75 787.04 568.71 787.35 C 557.45 789.04 546.48 792.23 535.61 795.56 C 526.49 785.61 517.09 775.89 506.54 767.44 C 490.19 751.94 471.97 738.64 454.33 724.69 C 444.18 717.98 435.46 709.38 425.48 702.44 C 420.01 698.67 415.42 693.83 410.18 689.78 C 401.55 683.16 394.09 675.19 385.92 668.04 C 371.91 654.25 358.21 639.77 348.30 622.67 C 341.69 611.35 336.41 599.22 333.54 586.40 C 333.65 585.87 333.86 584.83 333.96 584.31 Z" />
</g>
<g id="#b5206bff">
<path fill="#b5206b" opacity="1.00" d=" M 756.93 594.56 C 764.83 594.03 772.35 591.44 780.12 590.12 C 782.47 590.30 784.80 590.60 787.17 590.73 C 778.92 593.25 770.48 594.94 762.06 596.68 C 755.18 596.89 748.61 598.93 741.90 600.18 C 735.36 600.25 728.89 601.19 722.37 601.65 C 709.92 602.08 697.46 602.42 685.00 602.23 C 675.99 602.02 666.88 602.48 658.00 600.71 C 659.09 600.21 660.20 599.73 661.32 599.27 C 677.52 600.26 693.76 599.89 709.99 599.79 C 720.56 599.84 731.02 598.12 741.54 597.22 C 746.74 596.76 751.73 595.06 756.93 594.56 Z" />
</g>
<g id="#bc3579ff">
<path fill="#bc3579" opacity="1.00" d=" M 616.61 595.51 C 620.87 596.35 625.36 596.73 629.48 595.04 C 635.01 596.05 640.54 597.13 646.16 597.52 C 643.34 597.54 640.55 597.88 637.77 598.30 C 642.86 600.08 648.45 600.65 653.58 598.63 C 656.16 598.69 658.74 598.97 661.32 599.27 C 660.20 599.73 659.09 600.21 658.00 600.71 C 666.88 602.48 675.99 602.02 685.00 602.23 C 697.46 602.42 709.92 602.08 722.37 601.65 C 720.12 602.87 717.50 602.60 715.05 602.66 C 699.36 602.76 683.67 602.78 667.98 602.65 C 659.92 602.69 652.04 600.66 643.99 600.49 C 637.18 600.45 630.81 597.56 624.03 597.27 C 621.48 597.06 618.75 597.12 616.61 595.51 Z" />
</g>
<g id="#b21a66ff">
<path fill="#b21a66" opacity="1.00" d=" M 637.77 598.30 C 640.55 597.88 643.34 597.54 646.16 597.52 C 648.64 597.79 651.09 598.31 653.58 598.63 C 648.45 600.65 642.86 600.08 637.77 598.30 Z" />
</g>
<g id="#42213254">
<path fill="#422132" opacity="0.33" d=" M 1277.47 600.62 C 1278.10 600.58 1279.37 600.51 1280.00 600.47 L 1280.00 609.71 C 1279.55 611.11 1279.03 612.48 1278.55 613.87 C 1278.16 612.18 1277.81 610.49 1277.51 608.80 C 1277.44 606.07 1277.44 603.34 1277.47 600.62 Z" />
<path fill="#422132" opacity="0.33" d=" M 0.00 666.59 C 0.69 665.73 1.40 664.89 2.11 664.07 C 2.43 670.43 2.75 676.80 2.61 683.17 C 2.41 680.58 1.92 678.01 1.46 675.46 C 0.81 678.11 0.16 680.78 0.00 683.51 L 0.00 666.59 Z" />
</g>
<g id="#62314a7c">
<path fill="#62314a" opacity="0.49" d=" M 1.54 614.20 C 1.90 611.41 2.28 608.62 2.50 605.83 C 2.39 611.04 2.34 616.27 2.13 621.49 C 1.40 620.23 0.67 618.98 0.00 617.71 L 0.00 607.41 C 0.43 609.69 0.99 611.94 1.54 614.20 Z" />
</g>
<g id="#7138558e">
<path fill="#713855" opacity="0.56" d=" M 1278.12 624.35 C 1277.87 619.17 1277.40 613.99 1277.51 608.80 C 1277.81 610.49 1278.16 612.18 1278.55 613.87 C 1279.03 612.48 1279.55 611.11 1280.00 609.71 L 1280.00 622.71 C 1279.53 623.12 1278.59 623.94 1278.12 624.35 Z" />
</g>
<g id="#80405fa0">
<path fill="#80405f" opacity="0.63" d=" M 0.00 617.71 C 0.67 618.98 1.40 620.23 2.13 621.49 C 2.08 624.18 2.08 626.87 2.01 629.57 C 1.51 629.13 0.50 628.25 0.00 627.82 L 0.00 617.71 Z" />
</g>
<g id="#a6537cd0">
<path fill="#a6537c" opacity="0.82" d=" M 1278.12 624.35 C 1278.59 623.94 1279.53 623.12 1280.00 622.71 L 1280.00 654.34 C 1279.56 653.82 1278.68 652.79 1278.24 652.27 C 1278.27 642.96 1277.78 633.66 1278.12 624.35 Z" />
</g>
<g id="#a25179cb">
<path fill="#a25179" opacity="0.80" d=" M 0.00 627.82 C 0.50 628.25 1.51 629.13 2.01 629.57 C 1.93 634.09 1.12 638.59 1.45 643.13 C 1.74 646.88 2.07 650.64 2.01 654.42 C 1.51 654.86 0.50 655.74 0.00 656.18 L 0.00 627.82 Z" />
</g>
<g id="#834061a4">
<path fill="#834061" opacity="0.64" d=" M 1278.24 652.27 C 1278.68 652.79 1279.56 653.82 1280.00 654.34 L 1280.00 667.16 C 1279.58 665.62 1279.20 664.11 1278.76 662.59 C 1278.33 664.86 1277.90 667.14 1277.61 669.44 C 1277.32 663.70 1277.83 657.98 1278.24 652.27 Z" />
</g>
<g id="#844263a6">
<path fill="#844263" opacity="0.65" d=" M 0.00 656.18 C 0.50 655.74 1.51 654.86 2.01 654.42 C 2.02 657.63 2.02 660.85 2.11 664.07 C 1.40 664.89 0.69 665.73 0.00 666.59 L 0.00 656.18 Z" />
</g>
<g id="#a7004fff">
<path fill="#a7004f" opacity="1.00" d=" M 278.84 657.13 C 279.15 656.51 279.76 655.29 280.07 654.68 C 282.80 658.32 285.63 661.91 288.86 665.12 C 300.14 676.54 311.22 688.22 323.54 698.52 C 330.40 703.23 336.09 709.35 342.77 714.29 C 370.33 736.42 399.65 756.23 428.62 776.45 C 444.85 788.19 461.74 799.02 477.18 811.83 C 479.67 814.06 483.40 815.37 484.12 819.02 C 478.19 820.38 473.28 824.08 467.95 826.80 C 452.96 834.66 438.40 843.30 423.73 851.75 C 415.73 857.13 407.16 861.62 399.37 867.32 C 390.02 873.20 381.08 879.70 372.00 885.98 C 362.06 894.06 351.28 901.12 342.00 910.00 C 336.12 915.46 329.68 920.30 324.24 926.22 C 316.90 933.26 310.74 941.37 303.93 948.90 C 297.98 957.28 291.98 965.82 288.18 975.45 C 284.47 984.04 280.64 992.70 278.96 1001.97 C 274.83 1001.25 277.59 996.54 278.50 994.16 C 281.46 984.91 285.79 976.21 289.44 967.24 C 291.69 962.41 295.17 958.33 297.76 953.70 C 301.77 946.06 308.55 940.46 313.67 933.62 C 320.36 926.32 327.21 919.13 334.92 912.89 C 344.62 903.45 355.49 895.40 366.33 887.34 C 370.64 883.14 376.20 880.68 380.79 876.84 C 387.08 872.03 394.18 868.39 400.49 863.59 C 405.95 859.57 412.17 856.77 417.69 852.85 C 423.63 848.59 430.19 845.34 436.51 841.71 C 446.07 836.22 455.64 830.76 465.37 825.56 C 469.05 823.60 472.88 821.79 476.15 819.15 C 477.43 818.31 477.57 816.73 477.98 815.39 C 471.72 810.92 466.03 805.72 459.68 801.39 C 453.89 796.32 446.88 792.96 441.03 787.98 C 431.92 781.72 423.06 775.14 413.76 769.15 C 407.65 765.36 402.38 760.38 396.25 756.63 C 387.69 751.32 380.04 744.72 371.51 739.38 C 365.16 734.72 359.20 729.54 352.57 725.28 C 348.36 722.58 345.14 718.66 340.98 715.91 C 336.77 713.20 333.40 709.44 329.58 706.25 C 325.28 702.18 319.96 699.38 315.68 695.28 C 307.92 688.06 300.50 680.48 293.00 672.99 C 288.02 667.94 282.76 663.08 278.84 657.13 M 480.22 816.35 C 479.74 817.73 480.21 818.23 481.63 817.84 C 482.09 816.44 481.62 815.94 480.22 816.35 Z" />
</g>
<g id="#43213254">
<path fill="#432132" opacity="0.33" d=" M 1278.76 662.59 C 1279.20 664.11 1279.58 665.62 1280.00 667.16 L 1280.00 683.58 C 1279.79 681.34 1279.33 679.12 1278.90 676.94 C 1276.37 684.43 1278.47 692.45 1277.10 700.13 C 1277.30 689.90 1277.21 679.67 1277.61 669.44 C 1277.90 667.14 1278.33 664.86 1278.76 662.59 Z" />
</g>
<g id="#b21966ff">
<path fill="#b21966" opacity="1.00" d=" M 592.15 780.85 C 604.08 779.34 616.16 781.29 628.08 779.73 C 630.89 779.42 633.73 779.53 636.55 779.85 C 649.31 781.54 662.52 778.38 675.02 782.22 C 679.97 782.51 684.89 783.09 689.58 784.82 C 712.97 789.22 735.15 799.06 754.96 812.12 C 768.98 820.99 780.79 832.93 791.24 845.73 C 798.04 856.25 805.67 866.56 809.35 878.70 C 810.60 882.86 812.58 886.75 813.99 890.86 C 814.49 894.01 814.94 897.19 816.06 900.21 C 818.14 911.34 817.93 922.77 817.31 934.04 C 817.21 938.21 814.66 941.78 814.34 945.92 C 813.80 950.74 811.14 954.93 809.27 959.31 C 801.26 977.02 786.99 991.85 769.66 1000.61 C 762.81 1003.82 755.73 1007.23 748.02 1007.43 C 744.92 1006.93 741.15 1005.33 740.57 1001.87 C 740.30 999.41 739.91 996.52 741.62 994.48 C 745.03 990.36 750.05 988.20 754.33 985.17 C 761.82 979.49 768.40 972.69 774.21 965.32 C 779.60 957.73 782.91 948.87 785.40 939.96 C 785.84 934.10 785.93 928.17 785.46 922.32 C 782.73 914.20 781.16 905.61 777.05 898.00 C 773.85 892.02 770.21 886.26 766.16 880.83 C 759.33 873.32 752.41 865.69 743.82 860.16 C 725.53 846.24 703.39 838.55 681.21 833.53 C 673.37 830.89 664.93 831.69 656.99 829.54 C 652.47 828.22 647.73 828.52 643.09 828.46 C 636.01 828.37 629.09 826.39 622.00 826.53 C 616.82 826.59 611.82 828.28 606.65 828.42 C 601.40 828.76 596.05 828.03 590.89 829.33 C 584.13 831.11 577.06 831.18 570.28 832.87 C 567.72 833.77 564.50 835.96 565.60 839.09 C 568.69 850.39 571.14 861.86 574.08 873.21 C 574.65 877.76 574.11 882.42 575.08 886.95 C 577.31 896.80 576.36 906.97 576.45 916.99 C 576.73 924.73 574.25 932.25 574.34 939.99 C 574.54 945.93 572.00 951.46 571.07 957.25 C 568.86 964.05 568.25 971.25 565.60 977.93 C 562.98 984.30 561.36 991.05 558.24 997.22 C 553.70 1007.92 548.16 1018.19 542.08 1028.09 C 536.49 1035.84 532.01 1044.42 525.40 1051.40 C 516.26 1061.22 506.84 1070.82 496.87 1079.79 C 491.30 1083.54 486.33 1088.13 480.47 1091.44 C 471.44 1096.93 462.54 1102.79 452.63 1106.60 C 440.43 1112.53 427.42 1116.48 414.22 1119.43 C 409.37 1119.74 404.70 1121.03 399.99 1122.12 C 396.74 1122.93 393.56 1121.55 390.44 1120.80 C 395.97 1119.89 401.67 1120.29 407.06 1118.57 C 422.24 1115.36 437.33 1111.15 451.34 1104.35 C 462.57 1099.88 472.67 1093.15 482.88 1086.80 C 487.22 1083.43 491.67 1080.18 496.00 1076.80 C 510.71 1063.59 525.15 1049.62 535.75 1032.80 C 548.81 1013.95 558.48 992.87 565.13 970.95 C 567.19 961.94 569.82 953.03 571.37 943.92 C 571.82 934.93 573.75 926.07 573.70 917.06 C 574.48 904.59 573.44 892.10 571.87 879.73 C 571.78 872.05 569.21 864.78 567.73 857.32 C 565.88 850.43 564.47 843.39 561.83 836.74 C 563.38 835.49 564.97 834.28 566.59 833.11 C 564.40 832.94 562.22 832.75 560.05 832.59 C 567.03 831.33 573.84 829.24 580.91 828.52 C 586.36 827.89 591.71 826.52 597.19 826.14 C 603.47 825.71 609.76 825.55 616.04 825.02 C 625.02 824.08 634.01 825.56 643.00 825.65 C 652.97 825.79 662.63 828.46 672.53 829.25 C 698.73 833.99 724.88 842.58 746.47 858.59 C 761.00 868.65 772.69 882.72 780.28 898.67 C 783.42 905.05 785.09 912.00 786.98 918.82 C 788.86 925.39 788.35 932.33 788.00 939.07 C 786.29 947.95 782.80 956.47 778.25 964.26 C 772.97 972.42 766.15 979.56 758.48 985.51 C 753.39 989.46 747.17 992.00 742.81 996.83 C 742.51 998.49 742.45 1000.25 742.94 1001.91 C 744.63 1004.42 747.99 1005.91 750.96 1004.86 C 770.15 1000.47 786.61 987.96 798.47 972.54 C 810.09 956.64 816.70 936.80 815.47 917.02 C 814.70 904.82 812.29 892.63 807.67 881.28 C 804.44 871.64 799.49 862.64 793.65 854.35 C 788.71 845.92 781.74 838.96 774.97 832.02 C 764.43 821.17 751.81 812.57 738.58 805.35 C 719.20 794.62 697.77 788.01 675.95 784.60 C 662.12 781.82 647.95 782.74 633.95 781.93 C 619.27 782.59 604.50 781.94 589.90 783.87 C 582.86 785.24 575.66 785.52 568.71 787.35 C 566.75 787.04 564.82 786.65 562.87 786.36 C 569.47 784.64 576.10 782.43 583.01 782.54 C 586.14 782.57 589.11 781.49 592.15 780.85 Z" />
</g>
<g id="#89000dff">
<path fill="#89000d" opacity="1.00" d=" M 480.22 816.35 C 481.62 815.94 482.09 816.44 481.63 817.84 C 480.21 818.23 479.74 817.73 480.22 816.35 Z" />
</g>
<g id="#9f0040ff">
<path fill="#9f0040" opacity="1.00" d=" M 560.05 832.59 C 562.22 832.75 564.40 832.94 566.59 833.11 C 564.97 834.28 563.38 835.49 561.83 836.74 C 561.22 835.35 560.62 833.97 560.05 832.59 Z" />
</g>
<g id="#980032ff">
<path fill="#980032" opacity="1.00" d=" M 508.21 856.07 C 509.40 855.21 510.65 854.43 511.92 853.70 C 512.31 854.02 513.08 854.65 513.46 854.96 C 513.44 856.20 513.62 857.46 513.40 858.72 C 513.22 859.30 512.85 860.46 512.67 861.04 C 511.21 859.42 509.76 857.80 508.31 856.19 L 508.21 856.07 Z" />
</g>
<g id="#b31c67ff">
<path fill="#b31c67" opacity="1.00" d=" M 508.31 856.19 C 509.76 857.80 511.21 859.42 512.67 861.04 C 512.85 860.46 513.22 859.30 513.40 858.72 C 515.79 865.34 516.85 872.30 517.88 879.23 L 517.40 879.43 C 517.15 879.55 516.63 879.77 516.37 879.88 C 515.55 877.52 514.74 875.16 514.10 872.76 C 513.21 868.04 513.57 861.20 508.04 859.35 C 505.18 860.06 502.68 861.68 500.12 863.09 C 484.72 871.42 469.44 880.03 455.13 890.15 C 445.85 895.66 438.00 903.15 429.26 909.42 C 422.14 914.10 416.50 920.58 410.00 926.02 C 385.96 946.69 366.34 973.33 356.96 1003.84 C 356.17 1005.92 355.26 1007.96 354.34 1009.99 C 354.14 1009.48 353.76 1008.47 353.57 1007.96 C 356.08 993.96 362.92 981.17 369.80 968.86 C 374.93 960.78 380.14 952.67 386.62 945.57 C 396.00 933.36 408.50 924.17 419.52 913.56 C 428.22 906.52 437.25 899.89 446.01 892.92 C 452.94 888.63 459.41 883.64 466.43 879.48 C 477.73 872.19 489.55 865.72 501.46 859.46 C 503.63 858.13 505.94 857.10 508.31 856.19 Z" />
</g>
<g id="#ba3075ff">
<path fill="#ba3075" opacity="1.00" d=" M 514.10 872.76 C 514.74 875.16 515.55 877.52 516.37 879.88 C 516.63 879.77 517.15 879.55 517.40 879.43 L 517.77 879.29 C 519.76 892.16 519.90 905.41 517.59 918.24 C 517.42 917.70 517.08 916.64 516.90 916.11 C 515.93 919.48 515.04 922.87 514.26 926.30 C 514.20 917.13 517.17 908.23 516.51 899.02 C 517.10 890.15 514.80 881.53 514.10 872.76 Z" />
</g>
<g id="#ae0d5eff">
<path fill="#ae0d5e" opacity="1.00" d=" M 514.26 926.30 C 515.04 922.87 515.93 919.48 516.90 916.11 C 517.08 916.64 517.42 917.70 517.59 918.24 C 517.77 923.98 515.87 929.48 514.62 935.01 C 513.30 944.07 509.69 952.55 506.62 961.11 C 502.01 971.53 496.10 981.35 489.76 990.81 C 486.46 994.88 483.58 999.27 480.44 1003.46 C 473.15 1011.75 465.36 1019.60 457.02 1026.82 C 447.47 1033.88 437.83 1040.98 426.89 1045.79 C 409.71 1054.74 389.90 1059.92 370.53 1056.56 C 363.69 1054.57 357.42 1050.25 354.25 1043.73 C 354.68 1043.15 355.55 1042.00 355.98 1041.43 C 359.03 1047.00 364.01 1051.68 369.99 1053.92 C 376.57 1055.12 383.33 1055.17 389.99 1054.71 C 393.64 1054.49 397.38 1054.46 400.89 1053.27 C 407.38 1051.07 414.11 1049.46 420.25 1046.33 C 425.34 1043.71 430.56 1041.34 435.56 1038.55 C 440.40 1035.88 444.62 1032.29 449.20 1029.22 C 455.58 1025.13 460.81 1019.58 466.38 1014.50 C 472.69 1007.77 479.43 1001.34 484.35 993.47 C 491.39 984.42 497.25 974.53 502.51 964.36 C 505.02 959.38 506.57 954.00 508.52 948.80 C 511.33 941.56 512.52 933.84 514.26 926.30 Z" />
</g>
<g id="#b4216cff">
<path fill="#b4216c" opacity="1.00" d=" M 275.42 1005.75 C 275.88 1005.10 276.80 1003.81 277.26 1003.16 C 277.37 1004.20 277.60 1006.27 277.72 1007.31 C 276.89 1012.19 275.65 1017.00 275.03 1021.92 C 272.97 1039.50 275.82 1057.45 282.09 1073.94 C 285.86 1082.62 290.05 1091.36 296.60 1098.33 C 301.85 1104.44 307.80 1110.12 314.87 1114.09 C 319.99 1117.07 326.02 1117.33 331.59 1118.96 C 336.16 1120.31 340.98 1119.88 345.65 1120.63 C 342.69 1122.21 339.29 1122.95 336.00 1121.99 C 330.69 1120.64 325.37 1119.33 319.91 1118.76 C 309.35 1115.94 301.15 1107.87 294.11 1099.89 C 288.59 1094.30 285.41 1086.99 281.88 1080.10 C 271.18 1057.07 269.03 1030.25 275.42 1005.75 Z" />
</g>
<g id="#b5226cff">
<path fill="#b5226c" opacity="1.00" d=" M 354.34 1009.99 C 355.26 1007.96 356.17 1005.92 356.96 1003.84 C 355.11 1011.10 353.95 1018.53 353.45 1026.01 C 353.30 1031.24 354.55 1036.42 355.98 1041.43 C 355.55 1042.00 354.68 1043.15 354.25 1043.73 L 354.13 1043.89 C 349.61 1033.78 350.45 1022.42 352.35 1011.81 C 352.62 1010.47 353.07 1009.21 353.57 1007.96 C 353.76 1008.47 354.14 1009.48 354.34 1009.99 Z" />
</g>
<g id="#b92e74ff">
<path fill="#b92e74" opacity="1.00" d=" M 319.91 1118.76 C 325.37 1119.33 330.69 1120.64 336.00 1121.99 C 339.29 1122.95 342.69 1122.21 345.65 1120.63 C 360.49 1122.82 375.59 1122.77 390.44 1120.80 C 393.56 1121.55 396.74 1122.93 399.99 1122.12 C 404.70 1121.03 409.37 1119.74 414.22 1119.43 C 407.63 1122.34 400.23 1122.57 393.14 1123.11 C 385.19 1124.85 377.03 1124.64 368.97 1125.29 C 361.38 1124.45 353.67 1125.08 346.17 1123.49 C 340.90 1122.46 335.40 1123.14 330.22 1121.57 C 326.83 1120.43 322.89 1120.99 319.91 1118.76 Z" />
</g>
<g id="#804061a2">
<path fill="#804061" opacity="0.64" d=" M 608.76 1277.47 C 613.66 1277.42 618.55 1277.68 623.44 1278.01 C 622.98 1278.51 622.06 1279.50 621.60 1280.00 L 616.44 1280.00 C 616.49 1279.55 616.58 1278.65 616.63 1278.20 C 614.01 1277.92 611.38 1277.63 608.76 1277.47 Z" />
</g>
<g id="#63324b7d">
<path fill="#63324b" opacity="0.49" d=" M 659.76 1277.84 C 664.64 1277.59 669.52 1277.48 674.40 1277.55 C 672.24 1277.78 670.10 1278.15 667.97 1278.52 C 669.87 1279.04 671.77 1279.55 673.70 1280.00 L 664.37 1280.00 C 662.81 1279.30 661.30 1278.53 659.76 1277.84 Z" />
</g>
<g id="#331a2641">
<path fill="#331a26" opacity="0.25" d=" M 674.40 1277.55 C 676.33 1277.49 678.26 1277.48 680.20 1277.48 C 679.32 1277.93 678.46 1278.42 677.62 1278.93 C 679.58 1279.30 681.55 1279.70 683.54 1280.00 L 673.70 1280.00 C 671.77 1279.55 669.87 1279.04 667.97 1278.52 C 670.10 1278.15 672.24 1277.78 674.40 1277.55 Z" />
</g>
<g id="#542a3f69">
<path fill="#542a3f" opacity="0.41" d=" M 602.78 1277.51 C 604.77 1277.42 606.76 1277.40 608.76 1277.47 C 611.38 1277.63 614.01 1277.92 616.63 1278.20 C 616.58 1278.65 616.49 1279.55 616.44 1280.00 L 602.07 1280.00 C 602.25 1279.38 602.61 1278.13 602.78 1277.51 Z" />
</g>
<g id="#994c73c0">
<path fill="#994c73" opacity="0.75" d=" M 623.44 1278.01 C 630.66 1278.79 638.65 1276.09 645.25 1280.00 L 621.60 1280.00 C 622.06 1279.50 622.98 1278.51 623.44 1278.01 Z" />
</g>
<g id="#814161a3">
<path fill="#814161" opacity="0.64" d=" M 653.62 1277.94 C 655.66 1277.84 657.71 1277.83 659.76 1277.84 C 661.30 1278.53 662.81 1279.30 664.37 1280.00 L 655.24 1280.00 C 654.84 1279.48 654.02 1278.45 653.62 1277.94 Z" />
</g>
</svg>
