<?xml version="1.0" encoding="UTF-8" ?>
<!DOCTYPE svg PUBLIC "-//W3C//DTD SVG 1.1//EN" "http://www.w3.org/Graphics/SVG/1.1/DTD/svg11.dtd">
<svg width="1280pt" height="769pt" viewBox="0 0 1280 769" version="1.1" xmlns="http://www.w3.org/2000/svg">
<g id="#0c111215">
<path fill="#0c1112" opacity="0.08" d=" M 622.25 0.00 L 656.85 0.00 C 654.94 0.57 653.01 1.16 651.01 1.07 C 643.66 0.92 636.30 0.90 628.95 1.06 C 626.65 1.17 624.42 0.63 622.25 0.00 Z" />
</g>
<g id="#009da9ff">
<path fill="#009da9" opacity="1.00" d=" M 601.66 3.58 C 604.74 3.06 607.82 2.41 610.97 2.59 C 631.31 2.40 651.65 2.36 671.99 2.67 C 674.15 2.78 676.26 3.30 678.42 3.56 C 676.64 5.10 674.63 6.74 672.10 6.26 C 665.05 5.67 657.97 5.67 650.90 5.63 C 639.27 5.59 627.64 5.52 616.01 5.74 C 611.15 5.72 605.23 8.26 601.66 3.58 Z" />
</g>
<g id="#1bacbaff">
<path fill="#1bacba" opacity="1.00" d=" M 584.98 5.32 C 590.64 5.56 595.98 2.93 601.66 3.58 C 605.23 8.26 611.15 5.72 616.01 5.74 C 627.64 5.52 639.27 5.59 650.90 5.63 C 650.77 6.21 650.50 7.36 650.37 7.94 C 657.59 8.04 664.81 7.76 672.03 8.16 C 671.71 8.55 671.07 9.33 670.75 9.71 C 666.18 10.20 661.56 10.79 656.97 10.14 C 652.67 9.76 648.33 8.50 644.01 9.26 C 642.90 9.47 642.66 10.80 642.03 11.57 C 640.50 11.00 638.78 9.64 637.16 10.72 C 633.66 12.88 629.36 11.48 625.59 12.63 C 623.88 14.34 623.47 17.02 621.72 18.74 C 620.10 20.71 617.49 22.19 617.20 24.96 C 616.55 27.46 616.69 30.18 615.64 32.57 C 614.48 33.47 613.04 33.87 611.74 34.45 C 611.87 34.85 612.02 35.25 612.18 35.65 C 607.01 42.23 603.35 49.84 599.17 57.07 C 597.73 59.49 597.14 62.32 595.73 64.75 C 592.98 68.16 590.12 71.82 585.75 73.16 C 586.90 73.37 588.07 73.60 589.23 73.83 C 588.20 75.93 586.99 77.95 585.62 79.84 C 584.88 79.35 584.15 78.85 583.43 78.36 C 584.27 82.86 580.19 85.95 579.37 90.10 C 578.94 92.92 577.14 95.05 575.52 97.26 C 574.62 103.38 571.29 109.28 566.04 112.67 C 563.36 114.69 564.25 118.63 563.67 121.54 C 561.63 123.37 559.94 125.54 558.86 128.07 C 556.77 132.70 552.56 136.10 551.01 140.99 C 550.14 144.18 547.20 146.25 546.48 149.53 C 545.36 148.42 544.24 147.32 543.12 146.23 C 542.31 146.86 541.49 147.49 540.67 148.10 C 543.11 152.25 548.50 151.35 552.55 152.09 C 552.17 152.66 551.80 153.24 551.43 153.82 C 556.93 153.07 561.59 156.12 566.03 158.87 C 558.78 160.83 552.47 154.60 545.34 154.75 C 544.28 155.18 543.24 155.66 542.24 156.19 C 539.47 155.12 534.88 153.69 533.40 157.29 C 529.66 156.50 525.85 156.23 522.08 155.72 C 524.13 155.37 526.17 154.92 528.22 154.47 C 523.82 151.24 518.66 153.90 513.92 154.57 C 505.40 152.87 496.66 153.76 488.03 153.53 C 478.60 153.16 469.47 156.08 460.10 156.59 C 455.73 155.71 450.83 154.11 446.73 156.76 C 446.72 157.77 446.77 158.77 446.91 159.77 C 444.94 158.77 442.69 157.73 440.49 158.69 C 434.39 160.78 428.10 162.37 422.33 165.30 C 413.80 168.73 405.30 172.46 397.82 177.88 C 392.75 181.49 386.87 183.97 382.32 188.29 C 379.61 190.85 376.13 192.39 373.53 195.08 C 374.18 195.30 375.49 195.74 376.14 195.96 C 372.65 199.22 369.41 202.80 365.16 205.10 C 355.66 213.71 346.90 223.10 337.80 232.13 C 337.69 232.71 337.47 233.89 337.36 234.47 C 336.26 235.50 335.18 236.54 334.12 237.61 C 330.57 235.97 329.87 231.96 331.70 228.70 C 335.38 222.25 335.96 214.69 338.65 207.85 C 342.75 197.62 346.54 187.25 351.22 177.26 C 356.07 167.98 361.01 158.71 365.08 149.05 C 366.82 145.63 369.83 143.02 371.34 139.46 C 373.05 135.35 376.34 132.25 378.52 128.43 C 381.20 123.93 384.26 119.65 387.95 115.93 C 391.48 112.57 392.21 107.13 396.32 104.28 C 400.40 101.39 402.97 97.00 406.53 93.57 C 412.74 87.13 419.09 80.81 425.69 74.77 C 427.23 73.71 427.46 71.93 427.36 70.19 C 428.19 69.46 429.00 68.72 429.85 68.01 C 432.81 67.86 435.85 67.26 438.19 65.30 C 450.93 54.35 465.92 46.57 480.52 38.45 C 496.99 30.74 513.77 23.38 531.54 19.26 C 536.07 17.37 540.96 16.65 545.52 14.86 C 549.17 14.17 552.93 13.99 556.45 12.64 C 556.54 11.95 556.74 10.55 556.84 9.86 L 557.41 9.76 C 561.91 13.39 567.90 10.93 572.89 9.83 C 571.41 9.10 569.94 8.36 568.48 7.63 C 571.76 7.19 575.01 6.51 578.29 6.06 C 578.36 6.57 578.51 7.59 578.58 8.10 C 583.43 9.20 588.75 9.06 593.16 6.54 C 588.55 6.10 583.93 6.07 579.32 5.88 C 581.18 5.50 583.07 5.31 584.98 5.32 M 479.68 152.55 C 487.12 153.21 494.61 152.85 502.07 152.89 C 504.16 152.81 506.39 153.04 508.34 152.10 C 503.23 149.63 497.43 150.79 491.98 150.57 C 487.86 150.79 483.15 149.72 479.68 152.55 Z" />
</g>
<g id="#18b5b9ff">
<path fill="#18b5b9" opacity="1.00" d=" M 678.42 3.56 C 682.22 3.26 685.90 4.28 689.62 4.86 C 688.05 5.54 686.53 6.30 685.01 7.05 C 692.55 8.77 700.62 9.87 708.08 7.13 C 709.53 7.31 710.99 7.48 712.47 7.66 C 710.95 8.27 709.48 8.96 708.02 9.65 C 711.51 11.14 715.31 11.18 719.04 11.24 C 722.75 11.22 725.69 14.10 729.35 14.31 C 731.49 14.51 733.78 14.20 735.73 15.33 C 739.05 17.18 743.09 16.70 746.43 18.52 C 749.42 20.30 753.13 19.28 756.20 20.83 C 759.90 22.76 764.16 23.08 767.91 24.90 C 772.79 27.25 778.06 28.65 782.91 31.08 C 785.56 32.20 788.24 33.88 791.23 33.61 C 791.59 33.04 792.29 31.90 792.65 31.33 C 793.13 31.57 794.10 32.06 794.59 32.30 C 794.20 33.04 793.42 34.50 793.04 35.23 C 796.01 36.97 799.10 38.63 802.54 39.23 C 802.61 38.51 802.75 37.08 802.82 36.37 C 806.04 38.03 809.28 39.67 812.54 41.27 C 811.86 41.46 810.52 41.85 809.85 42.05 C 808.80 41.00 807.90 39.83 806.89 38.77 C 805.64 39.13 804.43 39.55 803.24 40.03 C 804.83 41.09 806.46 42.12 808.21 42.92 C 818.59 47.30 827.76 53.97 837.54 59.45 C 841.15 62.64 845.71 64.42 849.33 67.59 C 852.30 69.99 855.48 72.12 858.35 74.66 C 861.91 77.86 866.43 79.81 869.79 83.26 C 874.30 87.67 878.80 92.36 884.69 94.92 C 884.71 94.19 884.75 92.74 884.78 92.02 C 886.92 93.61 888.70 95.63 890.62 97.48 C 890.35 99.69 889.69 101.91 889.93 104.15 C 893.07 106.40 895.66 109.29 897.14 112.91 C 889.48 108.10 882.85 101.89 876.02 96.02 C 870.59 92.20 865.88 87.51 860.69 83.40 C 859.74 85.25 858.41 86.83 856.64 87.92 C 856.04 86.46 855.45 85.00 854.84 83.56 C 852.73 86.27 853.89 89.67 853.76 92.77 C 852.99 93.54 852.14 94.22 851.33 94.92 C 852.50 95.03 853.69 95.15 854.89 95.28 C 852.87 98.61 850.04 101.52 845.96 101.86 C 846.39 102.67 846.82 103.48 847.29 104.29 C 845.09 106.38 843.67 109.06 842.50 111.82 C 843.00 111.89 843.99 112.03 844.49 112.10 C 842.51 114.07 841.62 116.77 840.03 119.01 C 838.55 120.07 836.65 120.29 835.00 121.02 C 835.76 122.57 837.46 123.29 838.77 124.30 C 836.96 125.90 835.29 127.66 833.92 129.65 C 832.72 129.57 831.54 129.48 830.36 129.39 C 829.95 130.10 829.55 130.81 829.16 131.52 C 831.11 131.45 833.06 131.51 835.01 131.76 C 834.05 132.88 833.09 133.99 832.14 135.10 C 831.75 134.41 831.37 133.73 831.00 133.04 C 829.61 134.01 828.23 134.99 826.84 135.94 C 828.11 136.45 829.97 136.22 830.73 137.58 C 829.01 140.32 826.55 142.52 824.03 144.51 C 824.38 148.09 821.91 150.92 819.80 153.52 C 819.91 154.15 820.04 154.79 820.17 155.42 C 819.17 156.67 818.21 157.93 817.23 159.19 C 816.34 159.30 815.45 159.42 814.58 159.55 C 814.07 166.71 809.09 172.33 806.24 178.67 C 805.15 178.62 804.07 178.59 803.00 178.57 C 803.42 179.22 803.85 179.87 804.29 180.53 C 802.23 182.47 800.25 184.49 798.36 186.59 C 799.17 188.23 799.74 189.98 799.73 191.83 C 797.76 190.88 795.82 189.87 793.85 188.93 C 793.97 191.22 795.52 192.87 797.08 194.38 C 794.54 197.80 791.57 200.99 790.02 205.02 C 788.23 208.39 787.87 212.96 784.01 214.75 C 782.68 216.83 781.18 218.81 780.05 221.01 C 779.60 222.90 779.68 224.85 779.61 226.78 C 776.62 230.35 776.07 235.84 771.61 238.15 C 770.94 239.11 770.44 240.23 769.52 240.99 C 768.84 240.37 768.22 239.69 767.61 239.03 C 766.97 239.72 766.34 240.41 765.72 241.10 C 766.77 241.75 767.82 242.40 768.87 243.05 C 767.77 246.58 767.47 251.74 762.82 252.20 C 762.63 249.90 763.71 248.09 765.77 247.09 C 764.37 247.12 762.97 247.14 761.59 247.15 C 760.41 253.04 757.73 258.43 754.74 263.59 C 755.47 264.25 756.22 264.91 756.98 265.57 C 754.06 268.79 748.80 270.89 749.28 276.05 C 747.25 278.14 745.99 280.78 744.95 283.45 C 744.01 283.43 743.08 283.42 742.17 283.40 C 742.78 284.90 743.47 286.38 743.89 287.96 C 742.24 290.15 740.34 292.19 739.23 294.74 C 738.47 294.69 737.72 294.75 737.00 294.91 C 736.33 293.44 735.62 291.98 734.95 290.52 C 734.76 293.75 732.05 298.12 735.37 300.50 C 739.91 304.10 744.76 307.30 749.47 310.69 C 750.75 311.41 750.47 313.05 750.77 314.27 C 748.34 313.65 746.09 312.48 744.41 310.60 C 741.42 307.40 737.67 305.10 733.85 303.04 C 733.10 303.64 732.36 304.25 731.63 304.86 C 727.87 300.15 723.50 295.37 717.47 293.72 C 718.52 295.16 719.60 296.60 720.83 297.90 C 716.97 295.16 712.90 292.67 709.95 288.86 C 709.77 286.81 709.23 284.76 707.51 283.48 C 701.10 277.91 695.31 271.70 689.35 265.67 C 674.70 250.98 660.07 236.27 645.35 221.66 C 641.25 217.72 637.67 213.13 632.76 210.14 C 631.69 209.42 630.36 209.46 629.15 209.31 L 627.79 209.15 C 625.17 207.34 623.20 204.80 620.91 202.64 C 621.52 197.05 616.09 194.15 611.76 192.28 C 608.22 191.04 606.63 187.33 603.65 185.32 C 596.30 180.22 588.98 174.98 580.87 171.13 C 577.80 169.63 574.89 167.85 571.82 166.35 C 568.30 164.58 564.34 163.94 560.82 162.17 C 558.22 160.90 555.50 159.86 552.69 159.18 C 549.17 158.26 545.29 158.42 542.24 156.19 C 543.24 155.66 544.28 155.18 545.34 154.75 C 552.47 154.60 558.78 160.83 566.03 158.87 C 561.59 156.12 556.93 153.07 551.43 153.82 C 551.80 153.24 552.17 152.66 552.55 152.09 C 548.50 151.35 543.11 152.25 540.67 148.10 C 541.49 147.49 542.31 146.86 543.12 146.23 C 544.24 147.32 545.36 148.42 546.48 149.53 C 547.20 146.25 550.14 144.18 551.01 140.99 C 552.56 136.10 556.77 132.70 558.86 128.07 C 559.94 125.54 561.63 123.37 563.67 121.54 C 564.25 118.63 563.36 114.69 566.04 112.67 C 571.29 109.28 574.62 103.38 575.52 97.26 C 577.14 95.05 578.94 92.92 579.37 90.10 C 580.19 85.95 584.27 82.86 583.43 78.36 C 584.15 78.85 584.88 79.35 585.62 79.84 C 586.99 77.95 588.20 75.93 589.23 73.83 C 588.07 73.60 586.90 73.37 585.75 73.16 C 590.12 71.82 592.98 68.16 595.73 64.75 C 597.14 62.32 597.73 59.49 599.17 57.07 C 603.35 49.84 607.01 42.23 612.18 35.65 C 612.02 35.25 611.87 34.85 611.74 34.45 C 613.04 33.87 614.48 33.47 615.64 32.57 C 616.69 30.18 616.55 27.46 617.20 24.96 C 617.49 22.19 620.10 20.71 621.72 18.74 C 623.47 17.02 623.88 14.34 625.59 12.63 C 629.36 11.48 633.66 12.88 637.16 10.72 C 638.78 9.64 640.50 11.00 642.03 11.57 C 642.66 10.80 642.90 9.47 644.01 9.26 C 648.33 8.50 652.67 9.76 656.97 10.14 C 661.56 10.79 666.18 10.20 670.75 9.71 C 671.07 9.33 671.71 8.55 672.03 8.16 C 664.81 7.76 657.59 8.04 650.37 7.94 C 650.50 7.36 650.77 6.21 650.90 5.63 C 657.97 5.67 665.05 5.67 672.10 6.26 C 674.63 6.74 676.64 5.10 678.42 3.56 Z" />
</g>
<g id="#0099a4ff">
<path fill="#0099a4" opacity="1.00" d=" M 689.62 4.86 C 695.82 5.19 702.00 5.82 708.08 7.13 C 700.62 9.87 692.55 8.77 685.01 7.05 C 686.53 6.30 688.05 5.54 689.62 4.86 Z" />
</g>
<g id="#0095a4ff">
<path fill="#0095a4" opacity="1.00" d=" M 578.29 6.06 L 579.32 5.88 C 583.93 6.07 588.55 6.10 593.16 6.54 C 588.75 9.06 583.43 9.20 578.58 8.10 C 578.51 7.59 578.36 6.57 578.29 6.06 Z" />
</g>
<g id="#0099a8ff">
<path fill="#0099a8" opacity="1.00" d=" M 557.41 9.76 C 561.10 9.07 564.73 8.01 568.48 7.63 C 569.94 8.36 571.41 9.10 572.89 9.83 C 567.90 10.93 561.91 13.39 557.41 9.76 Z" />
</g>
<g id="#00a0a5ff">
<path fill="#00a0a5" opacity="1.00" d=" M 712.47 7.66 C 724.15 9.91 735.91 12.01 747.31 15.52 C 748.46 16.95 749.87 17.31 751.56 16.61 C 758.59 18.65 765.60 20.77 772.40 23.47 C 773.28 25.20 775.34 25.54 777.07 25.04 C 780.24 26.35 783.26 28.12 786.65 28.88 C 786.72 29.30 786.87 30.13 786.95 30.54 L 787.97 30.86 C 788.37 30.63 789.17 30.17 789.57 29.93 C 790.59 30.39 791.62 30.85 792.65 31.33 C 792.29 31.90 791.59 33.04 791.23 33.61 C 788.24 33.88 785.56 32.20 782.91 31.08 C 778.06 28.65 772.79 27.25 767.91 24.90 C 764.16 23.08 759.90 22.76 756.20 20.83 C 753.13 19.28 749.42 20.30 746.43 18.52 C 743.09 16.70 739.05 17.18 735.73 15.33 C 733.78 14.20 731.49 14.51 729.35 14.31 C 725.69 14.10 722.75 11.22 719.04 11.24 C 715.31 11.18 711.51 11.14 708.02 9.65 C 709.48 8.96 710.95 8.27 712.47 7.66 Z" />
</g>
<g id="#0095a8ff">
<path fill="#0095a8" opacity="1.00" d=" M 533.04 15.46 C 540.88 13.25 548.78 11.14 556.84 9.86 C 556.74 10.55 556.54 11.95 556.45 12.64 C 552.93 13.99 549.17 14.17 545.52 14.86 C 540.96 16.65 536.07 17.37 531.54 19.26 C 513.77 23.38 496.99 30.74 480.52 38.45 C 465.92 46.57 450.93 54.35 438.19 65.30 C 435.85 67.26 432.81 67.86 429.85 68.01 C 435.42 65.87 438.30 60.02 443.93 58.08 C 448.03 53.85 453.25 51.15 457.95 47.72 C 458.63 47.63 460.00 47.45 460.68 47.36 C 463.45 43.55 468.32 42.73 471.73 39.71 C 472.38 39.63 473.68 39.47 474.33 39.39 C 475.18 38.50 476.04 37.61 476.90 36.71 C 477.94 36.58 478.99 36.45 480.04 36.33 C 480.71 35.50 481.38 34.67 482.05 33.84 C 483.36 33.70 484.67 33.56 486.00 33.41 C 486.39 33.00 487.17 32.20 487.56 31.79 C 493.41 30.21 498.41 26.50 504.36 25.11 C 508.60 22.71 513.61 22.53 517.87 20.17 C 522.67 17.77 528.19 17.70 533.04 15.46 Z" />
</g>
<g id="#4e8a8ba8">
<path fill="#4e8a8b" opacity="0.66" d=" M 747.31 15.52 C 748.81 15.23 750.44 15.46 751.56 16.61 C 749.87 17.31 748.46 16.95 747.31 15.52 Z" />
</g>
<g id="#4b77788d">
<path fill="#4b7778" opacity="0.55" d=" M 772.40 23.47 C 774.15 23.13 775.86 23.71 777.07 25.04 C 775.34 25.54 773.28 25.20 772.40 23.47 Z" />
</g>
<g id="#539395b1">
<path fill="#539395" opacity="0.69" d=" M 786.65 28.88 C 787.38 29.14 788.84 29.67 789.57 29.93 C 789.17 30.17 788.37 30.63 787.97 30.86 L 786.95 30.54 C 786.87 30.13 786.72 29.30 786.65 28.88 Z" />
</g>
<g id="#00a4a5ff">
<path fill="#00a4a5" opacity="1.00" d=" M 794.59 32.30 C 795.62 32.82 796.68 33.30 797.76 33.74 C 797.38 36.18 800.27 36.82 802.04 35.97 L 802.82 36.37 C 802.75 37.08 802.61 38.51 802.54 39.23 C 799.10 38.63 796.01 36.97 793.04 35.23 C 793.42 34.50 794.20 33.04 794.59 32.30 Z" />
</g>
<g id="#408385a3">
<path fill="#408385" opacity="0.64" d=" M 797.76 33.74 C 799.38 34.02 800.83 34.85 802.04 35.97 C 800.27 36.82 797.38 36.18 797.76 33.74 Z" />
</g>
<g id="#00a7a8ff">
<path fill="#00a7a8" opacity="1.00" d=" M 803.24 40.03 C 804.43 39.55 805.64 39.13 806.89 38.77 C 807.90 39.83 808.80 41.00 809.85 42.05 C 810.52 41.85 811.86 41.46 812.54 41.27 C 815.89 42.94 819.75 44.07 822.04 47.27 C 822.91 47.45 823.80 47.63 824.69 47.82 C 827.86 51.00 832.60 51.78 835.62 55.16 C 839.90 55.74 841.93 60.12 845.82 61.50 C 849.13 62.79 851.02 66.08 854.15 67.65 C 858.56 70.06 862.33 73.44 865.72 77.11 C 873.54 79.74 877.21 88.74 884.78 92.02 C 884.75 92.74 884.71 94.19 884.69 94.92 C 878.80 92.36 874.30 87.67 869.79 83.26 C 866.43 79.81 861.91 77.86 858.35 74.66 C 855.48 72.12 852.30 69.99 849.33 67.59 C 845.71 64.42 841.15 62.64 837.54 59.45 C 827.76 53.97 818.59 47.30 808.21 42.92 C 806.46 42.12 804.83 41.09 803.24 40.03 Z" />
</g>
<g id="#0089a1ff">
<path fill="#0089a1" opacity="1.00" d=" M 391.12 107.13 C 402.39 94.08 414.72 81.92 427.36 70.19 C 427.46 71.93 427.23 73.71 425.69 74.77 C 419.09 80.81 412.74 87.13 406.53 93.57 C 402.97 97.00 400.40 101.39 396.32 104.28 C 392.21 107.13 391.48 112.57 387.95 115.93 C 384.26 119.65 381.20 123.93 378.52 128.43 C 376.34 132.25 373.05 135.35 371.34 139.46 C 369.83 143.02 366.82 145.63 365.08 149.05 C 361.01 158.71 356.07 167.98 351.22 177.26 C 346.54 187.25 342.75 197.62 338.65 207.85 C 335.96 214.69 335.38 222.25 331.70 228.70 C 329.87 231.96 330.57 235.97 334.12 237.61 C 332.84 238.91 331.73 240.35 330.61 241.78 C 329.56 240.88 328.52 240.00 327.47 239.14 C 327.63 237.06 327.69 234.98 327.88 232.91 C 329.29 226.85 331.89 221.15 333.40 215.12 C 334.15 212.00 335.68 209.15 337.19 206.35 C 337.22 203.83 338.23 201.57 339.44 199.42 C 344.98 182.88 353.86 167.72 361.29 151.99 C 363.66 146.63 367.58 142.16 370.17 136.94 C 371.15 134.25 373.32 132.31 375.21 130.26 C 375.87 125.77 380.13 123.43 381.92 119.53 C 384.37 114.93 389.00 111.96 391.12 107.13 Z" />
</g>
<g id="#16bdb8ff">
<path fill="#16bdb8" opacity="1.00" d=" M 860.69 83.40 C 865.88 87.51 870.59 92.20 876.02 96.02 C 882.85 101.89 889.48 108.10 897.14 112.91 C 895.66 109.29 893.07 106.40 889.93 104.15 C 889.69 101.91 890.35 99.69 890.62 97.48 C 891.97 98.81 893.32 100.14 894.61 101.55 C 895.20 103.12 895.61 104.89 896.93 106.07 C 912.79 121.55 928.37 137.32 944.00 153.03 C 951.67 160.44 958.90 168.33 966.91 175.38 C 966.92 174.79 966.96 173.63 966.97 173.04 C 969.88 176.51 973.87 178.67 977.37 181.45 C 976.81 187.88 983.39 191.00 987.88 194.06 C 991.60 195.89 993.52 199.94 997.30 201.68 C 1002.40 204.17 1006.58 208.08 1011.32 211.15 C 1013.07 214.59 1017.09 215.85 1020.15 217.85 C 1023.54 220.05 1029.21 220.38 1029.73 225.33 C 1030.89 229.13 1025.43 230.44 1025.25 234.00 C 1024.86 236.67 1023.89 239.19 1022.23 241.33 C 1022.80 243.10 1023.40 244.86 1024.01 246.63 C 1023.06 246.56 1022.12 246.51 1021.19 246.47 C 1019.65 247.77 1017.98 248.91 1016.21 249.87 C 1016.90 249.98 1018.27 250.19 1018.95 250.30 C 1017.67 250.72 1016.41 251.14 1015.16 251.57 C 1015.84 251.81 1017.22 252.30 1017.91 252.54 C 1015.57 252.83 1013.25 253.15 1010.94 253.46 C 1012.35 253.76 1013.79 254.07 1015.24 254.37 C 1015.67 255.18 1016.12 255.99 1016.60 256.81 C 1015.64 256.94 1014.70 257.08 1013.77 257.23 C 1014.08 258.37 1014.38 259.51 1014.70 260.66 C 1011.74 262.47 1009.12 264.78 1007.14 267.64 C 1007.58 268.56 1008.07 269.49 1008.54 270.41 C 1007.11 270.54 1005.70 270.67 1004.30 270.80 C 1003.88 275.02 1000.60 278.05 999.56 282.03 C 998.73 285.84 995.17 288.07 993.15 291.20 C 995.17 290.67 997.16 290.02 999.14 289.33 C 997.19 292.17 993.54 292.85 991.34 295.39 C 988.77 298.08 987.82 301.78 986.08 304.98 C 984.87 307.19 982.68 308.72 981.56 310.98 C 981.48 312.64 981.72 314.29 981.88 315.95 C 980.47 315.40 979.05 314.87 977.66 314.33 C 977.37 317.20 975.30 320.92 978.36 322.98 C 976.26 326.62 974.25 330.33 971.65 333.65 C 969.84 335.78 969.18 338.52 968.52 341.16 C 964.55 342.62 963.36 346.92 960.22 349.33 C 958.05 350.75 958.15 353.58 957.57 355.83 C 958.29 356.52 959.03 357.22 959.78 357.93 C 956.53 360.29 953.50 362.93 950.29 365.34 C 947.92 366.86 947.67 369.92 946.20 372.12 C 940.98 373.98 935.35 372.80 929.96 373.09 C 930.30 373.49 930.97 374.29 931.30 374.68 C 940.87 375.96 950.61 375.64 960.11 377.50 C 953.46 378.74 946.69 377.49 940.01 378.21 C 936.13 378.68 932.07 378.12 928.39 379.64 C 924.53 379.10 920.43 379.52 917.55 382.42 C 911.52 381.56 905.49 380.83 899.46 380.07 C 904.04 379.87 908.64 379.78 913.22 379.39 C 906.64 377.73 899.00 375.58 892.70 379.20 C 890.96 378.84 889.20 378.51 887.46 378.26 C 888.93 377.52 890.40 376.79 891.89 376.07 C 886.99 374.46 880.93 372.75 876.48 376.35 C 874.59 375.87 872.71 375.44 870.81 375.09 C 873.01 374.85 875.22 374.43 877.37 373.82 C 873.75 370.80 868.83 372.24 864.65 371.23 C 861.74 369.37 858.53 368.44 855.10 368.37 C 849.26 366.11 842.95 365.31 837.22 362.71 C 833.48 360.99 829.55 359.76 825.59 358.68 C 819.60 357.03 814.38 353.43 808.39 351.81 C 808.34 352.50 808.25 353.88 808.20 354.57 C 812.81 355.17 817.06 357.33 820.81 360.01 C 819.25 359.30 817.72 358.59 816.21 357.82 C 811.98 357.28 808.31 355.08 804.60 353.18 C 805.28 352.34 806.01 351.51 806.73 350.69 C 799.48 348.99 793.64 344.07 786.84 341.25 C 781.73 339.33 777.87 335.22 772.79 333.28 C 768.23 331.50 765.21 327.33 760.83 325.22 C 754.53 322.16 749.24 317.47 743.72 313.25 C 740.51 309.32 735.58 307.80 731.63 304.86 C 732.36 304.25 733.10 303.64 733.85 303.04 C 737.67 305.10 741.42 307.40 744.41 310.60 C 746.09 312.48 748.34 313.65 750.77 314.27 C 750.47 313.05 750.75 311.41 749.47 310.69 C 744.76 307.30 739.91 304.10 735.37 300.50 C 732.05 298.12 734.76 293.75 734.95 290.52 C 735.62 291.98 736.33 293.44 737.00 294.91 C 737.72 294.75 738.47 294.69 739.23 294.74 C 740.34 292.19 742.24 290.15 743.89 287.96 C 743.47 286.38 742.78 284.90 742.17 283.40 C 743.08 283.42 744.01 283.43 744.95 283.45 C 745.99 280.78 747.25 278.14 749.28 276.05 C 748.80 270.89 754.06 268.79 756.98 265.57 C 756.22 264.91 755.47 264.25 754.74 263.59 C 757.73 258.43 760.41 253.04 761.59 247.15 C 762.97 247.14 764.37 247.12 765.77 247.09 C 763.71 248.09 762.63 249.90 762.82 252.20 C 767.47 251.74 767.77 246.58 768.87 243.05 C 767.82 242.40 766.77 241.75 765.72 241.10 C 766.34 240.41 766.97 239.72 767.61 239.03 C 768.22 239.69 768.84 240.37 769.52 240.99 C 770.44 240.23 770.94 239.11 771.61 238.15 C 776.07 235.84 776.62 230.35 779.61 226.78 C 779.68 224.85 779.60 222.90 780.05 221.01 C 781.18 218.81 782.68 216.83 784.01 214.75 C 787.87 212.96 788.23 208.39 790.02 205.02 C 791.57 200.99 794.54 197.80 797.08 194.38 C 795.52 192.87 793.97 191.22 793.85 188.93 C 795.82 189.87 797.76 190.88 799.73 191.83 C 799.74 189.98 799.17 188.23 798.36 186.59 C 800.25 184.49 802.23 182.47 804.29 180.53 C 803.85 179.87 803.42 179.22 803.00 178.57 C 804.07 178.59 805.15 178.62 806.24 178.67 C 809.09 172.33 814.07 166.71 814.58 159.55 C 815.45 159.42 816.34 159.30 817.23 159.19 C 818.21 157.93 819.17 156.67 820.17 155.42 C 820.04 154.79 819.91 154.15 819.80 153.52 C 821.91 150.92 824.38 148.09 824.03 144.51 C 826.55 142.52 829.01 140.32 830.73 137.58 C 829.97 136.22 828.11 136.45 826.84 135.94 C 828.23 134.99 829.61 134.01 831.00 133.04 C 831.37 133.73 831.75 134.41 832.14 135.10 C 833.09 133.99 834.05 132.88 835.01 131.76 C 833.06 131.51 831.11 131.45 829.16 131.52 C 829.55 130.81 829.95 130.10 830.36 129.39 C 831.54 129.48 832.72 129.57 833.92 129.65 C 835.29 127.66 836.96 125.90 838.77 124.30 C 837.46 123.29 835.76 122.57 835.00 121.02 C 836.65 120.29 838.55 120.07 840.03 119.01 C 841.62 116.77 842.51 114.07 844.49 112.10 C 843.99 112.03 843.00 111.89 842.50 111.82 C 843.67 109.06 845.09 106.38 847.29 104.29 C 846.82 103.48 846.39 102.67 845.96 101.86 C 850.04 101.52 852.87 98.61 854.89 95.28 C 853.69 95.15 852.50 95.03 851.33 94.92 C 852.14 94.22 852.99 93.54 853.76 92.77 C 853.89 89.67 852.73 86.27 854.84 83.56 C 855.45 85.00 856.04 86.46 856.64 87.92 C 858.41 86.83 859.74 85.25 860.69 83.40 Z" />
<path fill="#16bdb8" opacity="1.00" d=" M 1273.77 146.00 C 1272.94 144.22 1273.65 142.09 1275.80 141.92 C 1275.51 143.45 1274.95 144.94 1273.77 146.00 Z" />
</g>
<g id="#009d80ff">
<path fill="#009d80" opacity="1.00" d=" M 894.61 101.55 C 900.72 106.34 906.01 112.04 911.52 117.48 C 930.01 136.00 948.51 154.50 966.97 173.04 C 966.96 173.63 966.92 174.79 966.91 175.38 C 958.90 168.33 951.67 160.44 944.00 153.03 C 928.37 137.32 912.79 121.55 896.93 106.07 C 895.61 104.89 895.20 103.12 894.61 101.55 Z" />
<path fill="#009d80" opacity="1.00" d=" M 954.22 520.70 C 955.30 520.16 956.40 519.64 957.51 519.14 C 957.42 520.81 957.29 522.48 957.14 524.15 C 956.74 524.60 955.93 525.51 955.52 525.97 C 952.92 526.84 952.96 529.64 953.96 531.76 C 953.81 532.21 953.52 533.10 953.38 533.55 C 951.43 532.18 948.70 530.81 949.83 527.96 C 950.86 525.27 953.61 523.61 954.22 520.70 Z" />
</g>
<g id="#082f293e">
<path fill="#082f29" opacity="0.24" d=" M 1274.62 134.65 C 1276.41 133.42 1278.24 132.24 1280.00 130.94 L 1280.00 134.70 C 1279.49 134.70 1278.48 134.70 1277.97 134.69 L 1277.45 134.69 C 1276.74 134.68 1275.33 134.66 1274.62 134.65 Z" />
</g>
<g id="#00b89bff">
<path fill="#00b89b" opacity="1.00" d=" M 1274.23 137.71 C 1274.33 136.69 1274.46 135.66 1274.62 134.65 C 1275.33 134.66 1276.74 134.68 1277.45 134.69 C 1276.66 136.33 1276.89 138.18 1277.00 139.94 C 1276.70 140.43 1276.10 141.42 1275.80 141.92 C 1273.65 142.09 1272.94 144.22 1273.77 146.00 L 1273.70 146.90 C 1272.58 143.81 1274.31 140.83 1274.23 137.71 Z" />
</g>
<g id="#305a5667">
<path fill="#305a56" opacity="0.40" d=" M 1277.45 134.69 L 1277.97 134.69 C 1278.71 136.48 1278.12 138.46 1277.00 139.94 C 1276.89 138.18 1276.66 136.33 1277.45 134.69 Z" />
</g>
<g id="#019476ee">
<path fill="#019476" opacity="0.93" d=" M 1271.86 140.86 C 1272.64 139.81 1273.45 138.77 1274.23 137.71 C 1274.31 140.83 1272.58 143.81 1273.70 146.90 C 1273.68 147.27 1273.62 148.01 1273.59 148.38 C 1272.11 147.14 1270.71 145.85 1269.41 144.44 C 1270.20 143.24 1271.02 142.04 1271.86 140.86 Z" />
</g>
<g id="#00b398ff">
<path fill="#00b398" opacity="1.00" d=" M 1268.02 146.08 C 1269.29 144.34 1270.52 142.55 1271.86 140.86 C 1271.02 142.04 1270.20 143.24 1269.41 144.44 C 1270.71 145.85 1272.11 147.14 1273.59 148.38 C 1271.12 158.46 1267.44 168.19 1264.19 178.03 C 1263.33 182.32 1260.52 185.82 1259.39 190.01 C 1257.75 195.50 1255.03 200.56 1252.71 205.78 C 1249.12 212.94 1246.61 220.64 1242.23 227.39 C 1237.16 237.39 1231.56 247.17 1225.06 256.29 C 1223.81 259.09 1221.94 261.52 1219.84 263.73 C 1218.28 269.49 1212.11 272.16 1209.94 277.60 L 1209.26 278.65 C 1209.28 276.29 1208.93 273.55 1210.75 271.69 C 1217.21 265.30 1221.77 257.36 1226.84 249.88 C 1232.04 242.15 1236.13 233.77 1240.46 225.55 C 1244.33 218.82 1247.33 211.64 1250.78 204.69 C 1254.86 193.80 1259.71 183.19 1263.09 172.04 C 1266.01 164.60 1268.02 156.87 1269.69 149.08 C 1269.18 148.04 1268.62 147.04 1268.02 146.08 Z" />
</g>
<g id="#13c6b7ff">
<path fill="#13c6b7" opacity="1.00" d=" M 1260.76 154.96 C 1262.34 151.35 1265.25 148.75 1268.02 146.08 C 1268.62 147.04 1269.18 148.04 1269.69 149.08 C 1268.02 156.87 1266.01 164.60 1263.09 172.04 C 1259.71 183.19 1254.86 193.80 1250.78 204.69 C 1247.33 211.64 1244.33 218.82 1240.46 225.55 C 1236.13 233.77 1232.04 242.15 1226.84 249.88 C 1221.77 257.36 1217.21 265.30 1210.75 271.69 C 1208.93 273.55 1209.28 276.29 1209.26 278.65 C 1208.45 279.57 1207.59 280.44 1206.78 281.34 C 1204.56 281.59 1202.27 282.05 1200.77 283.83 C 1191.29 293.34 1182.00 303.05 1172.20 312.22 C 1168.80 314.82 1166.31 318.51 1162.53 320.61 C 1158.46 322.81 1155.39 326.44 1151.20 328.47 C 1143.13 333.71 1135.07 339.00 1126.65 343.66 C 1116.96 348.27 1107.34 353.02 1097.55 357.39 C 1090.67 359.40 1083.98 361.95 1077.30 364.55 C 1072.76 366.50 1067.75 366.77 1063.06 368.20 C 1059.86 368.86 1057.00 370.47 1053.93 371.50 C 1050.50 371.69 1047.03 371.70 1043.70 372.66 C 1043.54 373.13 1043.21 374.07 1043.05 374.54 C 1045.08 374.67 1047.11 374.89 1049.17 374.95 C 1047.46 375.32 1045.79 375.81 1044.13 376.28 C 1040.02 374.56 1035.24 373.21 1030.94 375.01 C 1029.16 375.50 1029.59 377.47 1029.55 378.85 C 1028.13 379.17 1026.71 379.43 1025.32 379.69 C 1024.87 379.08 1023.98 377.86 1023.54 377.25 C 1018.33 377.14 1013.13 377.67 1008.13 379.10 C 1009.27 379.80 1010.42 380.51 1011.59 381.21 C 1008.51 381.76 1005.43 382.30 1002.32 382.46 C 1000.34 381.28 998.42 379.57 996.00 379.59 C 977.68 380.35 959.33 380.29 940.99 380.22 C 936.78 380.32 932.56 380.19 928.39 379.64 C 932.07 378.12 936.13 378.68 940.01 378.21 C 946.69 377.49 953.46 378.74 960.11 377.50 C 950.61 375.64 940.87 375.96 931.30 374.68 C 930.97 374.29 930.30 373.49 929.96 373.09 C 935.35 372.80 940.98 373.98 946.20 372.12 C 947.67 369.92 947.92 366.86 950.29 365.34 C 953.50 362.93 956.53 360.29 959.78 357.93 C 959.03 357.22 958.29 356.52 957.57 355.83 C 958.15 353.58 958.05 350.75 960.22 349.33 C 963.36 346.92 964.55 342.62 968.52 341.16 C 969.18 338.52 969.84 335.78 971.65 333.65 C 974.25 330.33 976.26 326.62 978.36 322.98 C 975.30 320.92 977.37 317.20 977.66 314.33 C 979.05 314.87 980.47 315.40 981.88 315.95 C 981.72 314.29 981.48 312.64 981.56 310.98 C 982.68 308.72 984.87 307.19 986.08 304.98 C 987.82 301.78 988.77 298.08 991.34 295.39 C 993.54 292.85 997.19 292.17 999.14 289.33 C 997.16 290.02 995.17 290.67 993.15 291.20 C 995.17 288.07 998.73 285.84 999.56 282.03 C 1000.60 278.05 1003.88 275.02 1004.30 270.80 C 1005.70 270.67 1007.11 270.54 1008.54 270.41 C 1008.07 269.49 1007.58 268.56 1007.14 267.64 C 1009.12 264.78 1011.74 262.47 1014.70 260.66 C 1014.38 259.51 1014.08 258.37 1013.77 257.23 C 1014.70 257.08 1015.64 256.94 1016.60 256.81 C 1016.12 255.99 1015.67 255.18 1015.24 254.37 C 1013.79 254.07 1012.35 253.76 1010.94 253.46 C 1013.25 253.15 1015.57 252.83 1017.91 252.54 C 1017.22 252.30 1015.84 251.81 1015.16 251.57 C 1016.41 251.14 1017.67 250.72 1018.95 250.30 C 1018.27 250.19 1016.90 249.98 1016.21 249.87 C 1017.98 248.91 1019.65 247.77 1021.19 246.47 C 1022.12 246.51 1023.06 246.56 1024.01 246.63 C 1023.40 244.86 1022.80 243.10 1022.23 241.33 C 1023.89 239.19 1024.86 236.67 1025.25 234.00 C 1025.43 230.44 1030.89 229.13 1029.73 225.33 C 1029.21 220.38 1023.54 220.05 1020.15 217.85 C 1017.09 215.85 1013.07 214.59 1011.32 211.15 C 1013.82 212.13 1016.23 213.38 1018.46 214.91 C 1018.63 214.08 1018.96 212.42 1019.12 211.59 C 1022.18 213.10 1025.25 214.62 1028.30 216.18 C 1027.26 216.92 1026.27 217.66 1025.26 218.40 C 1030.38 220.72 1035.29 223.85 1040.97 224.61 C 1044.21 224.96 1046.80 227.29 1050.03 227.66 C 1054.83 228.24 1059.12 230.78 1063.98 231.10 C 1070.71 232.88 1078.09 234.15 1084.71 231.25 C 1090.78 232.13 1096.89 232.63 1103.03 232.45 C 1110.01 232.26 1117.08 232.88 1124.00 231.62 C 1127.70 231.68 1131.27 232.79 1134.96 233.05 C 1139.47 233.39 1143.63 231.17 1148.06 230.74 C 1151.51 230.35 1154.50 228.33 1157.96 227.93 C 1177.47 222.33 1195.69 212.84 1212.50 201.52 C 1216.01 199.02 1219.17 196.05 1222.90 193.85 C 1225.95 192.00 1229.25 189.35 1228.69 185.32 C 1232.25 182.33 1236.36 180.00 1239.50 176.51 C 1246.49 169.24 1253.95 162.39 1260.76 154.96 M 1091.72 233.32 C 1093.46 234.85 1095.75 235.28 1098.02 235.25 C 1105.79 235.31 1113.85 236.15 1121.34 233.52 C 1111.48 233.10 1101.57 232.75 1091.72 233.32 Z" />
</g>
<g id="#0095a5ff">
<path fill="#0095a5" opacity="1.00" d=" M 479.68 152.55 C 483.15 149.72 487.86 150.79 491.98 150.57 C 497.43 150.79 503.23 149.63 508.34 152.10 C 506.39 153.04 504.16 152.81 502.07 152.89 C 494.61 152.85 487.12 153.21 479.68 152.55 Z" />
</g>
<g id="#04808fef">
<path fill="#04808f" opacity="0.94" d=" M 513.92 154.57 C 518.66 153.90 523.82 151.24 528.22 154.47 C 526.17 154.92 524.13 155.37 522.08 155.72 C 519.34 155.49 516.61 155.14 513.92 154.57 Z" />
</g>
<g id="#0092a4ff">
<path fill="#0092a4" opacity="1.00" d=" M 446.73 156.76 C 450.83 154.11 455.73 155.71 460.10 156.59 C 455.68 157.60 451.21 158.33 446.91 159.77 C 446.77 158.77 446.72 157.77 446.73 156.76 Z" />
</g>
<g id="#0099a5ff">
<path fill="#0099a5" opacity="1.00" d=" M 533.40 157.29 C 534.88 153.69 539.47 155.12 542.24 156.19 C 545.29 158.42 549.17 158.26 552.69 159.18 C 555.50 159.86 558.22 160.90 560.82 162.17 C 564.34 163.94 568.30 164.58 571.82 166.35 C 574.89 167.85 577.80 169.63 580.87 171.13 C 588.98 174.98 596.30 180.22 603.65 185.32 C 606.63 187.33 608.22 191.04 611.76 192.28 C 616.09 194.15 621.52 197.05 620.91 202.64 C 616.72 199.32 613.29 194.92 608.33 192.69 C 606.27 191.48 604.85 189.48 602.92 188.12 C 596.74 184.43 591.21 179.67 584.70 176.57 C 574.24 170.20 562.95 165.02 551.03 162.07 C 550.51 161.76 549.47 161.13 548.95 160.82 C 543.62 160.30 538.65 158.16 533.40 157.29 Z" />
</g>
<g id="#0090a4ff">
<path fill="#0090a4" opacity="1.00" d=" M 440.49 158.69 C 442.69 157.73 444.94 158.77 446.91 159.77 C 445.21 160.27 443.45 160.52 441.72 160.80 C 438.43 163.17 434.18 163.07 430.67 164.92 C 427.60 166.35 424.52 167.79 421.25 168.68 L 419.91 169.06 C 414.08 171.45 408.65 174.66 402.91 177.22 C 401.70 177.97 400.83 179.14 399.83 180.12 C 396.40 181.85 393.69 184.91 389.89 185.82 C 386.20 188.59 383.11 192.32 378.63 193.86 C 377.80 194.56 376.97 195.26 376.14 195.96 C 375.49 195.74 374.18 195.30 373.53 195.08 C 376.13 192.39 379.61 190.85 382.32 188.29 C 386.87 183.97 392.75 181.49 397.82 177.88 C 405.30 172.46 413.80 168.73 422.33 165.30 C 428.10 162.37 434.39 160.78 440.49 158.69 Z" />
</g>
<g id="#436a6b7e">
<path fill="#436a6b" opacity="0.49" d=" M 548.95 160.82 C 549.47 161.13 550.51 161.76 551.03 162.07 C 550.51 161.76 549.47 161.13 548.95 160.82 Z" />
</g>
<g id="#1a586084">
<path fill="#1a5860" opacity="0.52" d=" M 402.91 177.22 C 408.65 174.66 414.08 171.45 419.91 169.06 L 421.25 168.68 C 420.19 169.44 419.15 170.23 418.05 170.92 C 411.79 173.62 405.83 176.93 399.83 180.12 C 400.83 179.14 401.70 177.97 402.91 177.22 Z" />
</g>
<g id="#00ab9eff">
<path fill="#00ab9e" opacity="1.00" d=" M 977.37 181.45 C 980.92 185.40 985.60 188.13 989.03 192.22 C 989.65 192.34 990.89 192.57 991.51 192.69 C 994.60 195.64 997.49 199.01 1001.46 200.83 C 1004.35 202.11 1006.42 204.65 1009.24 206.06 C 1012.61 207.76 1015.70 209.97 1019.12 211.59 C 1018.96 212.42 1018.63 214.08 1018.46 214.91 C 1016.23 213.38 1013.82 212.13 1011.32 211.15 C 1006.58 208.08 1002.40 204.17 997.30 201.68 C 993.52 199.94 991.60 195.89 987.88 194.06 C 983.39 191.00 976.81 187.88 977.37 181.45 Z" />
</g>
<g id="#00b8a2ff">
<path fill="#00b8a2" opacity="1.00" d=" M 1219.08 193.20 C 1222.77 191.23 1225.49 187.95 1228.69 185.32 C 1229.25 189.35 1225.95 192.00 1222.90 193.85 C 1219.17 196.05 1216.01 199.02 1212.50 201.52 C 1195.69 212.84 1177.47 222.33 1157.96 227.93 C 1154.50 228.33 1151.51 230.35 1148.06 230.74 C 1143.63 231.17 1139.47 233.39 1134.96 233.05 C 1131.27 232.79 1127.70 231.68 1124.00 231.62 C 1125.99 231.24 1127.96 230.78 1130.00 230.61 C 1139.81 229.97 1149.24 226.97 1158.75 224.72 C 1162.69 222.79 1167.30 222.48 1170.82 219.69 C 1172.03 219.58 1173.26 219.47 1174.50 219.37 C 1176.60 217.07 1179.80 216.80 1182.53 215.61 C 1192.16 211.29 1200.64 204.86 1210.03 200.10 C 1212.88 197.60 1215.65 194.91 1219.08 193.20 Z" />
</g>
<g id="#009ba2ff">
<path fill="#009ba2" opacity="1.00" d=" M 629.15 209.31 C 630.36 209.46 631.69 209.42 632.76 210.14 C 637.67 213.13 641.25 217.72 645.35 221.66 C 660.07 236.27 674.70 250.98 689.35 265.67 C 695.31 271.70 701.10 277.91 707.51 283.48 C 709.23 284.76 709.77 286.81 709.95 288.86 C 696.51 277.07 684.34 263.93 671.58 251.42 C 657.37 237.44 643.64 222.98 629.15 209.31 Z" />
<path fill="#009ba2" opacity="1.00" d=" M 497.04 431.92 C 497.85 431.02 498.65 430.11 499.46 429.21 C 501.56 430.05 503.37 431.42 504.89 433.09 C 509.88 434.75 514.19 438.05 518.44 441.08 C 521.94 441.95 524.44 444.60 526.96 447.00 C 532.29 448.70 535.12 454.38 540.53 455.80 C 544.67 459.26 547.94 463.94 552.89 466.31 C 552.80 466.99 552.63 468.36 552.55 469.05 C 545.07 466.48 541.34 458.81 534.27 455.63 C 529.33 451.98 524.40 448.31 519.53 444.58 C 511.59 441.17 504.60 436.04 497.04 431.92 Z" />
</g>
<g id="#00ae9fff">
<path fill="#00ae9f" opacity="1.00" d=" M 1025.26 218.40 C 1026.27 217.66 1027.26 216.92 1028.30 216.18 C 1031.34 217.71 1034.36 219.42 1037.78 219.95 C 1037.19 220.03 1036.61 220.11 1036.06 220.19 C 1036.72 220.30 1038.04 220.52 1038.70 220.63 C 1039.37 222.02 1040.48 222.43 1042.02 221.87 C 1048.91 224.22 1055.85 226.63 1063.11 227.53 C 1065.81 227.75 1068.24 229.18 1070.94 229.42 C 1075.56 229.74 1080.17 230.32 1084.71 231.25 C 1078.09 234.15 1070.71 232.88 1063.98 231.10 C 1059.12 230.78 1054.83 228.24 1050.03 227.66 C 1046.80 227.29 1044.21 224.96 1040.97 224.61 C 1035.29 223.85 1030.38 220.72 1025.26 218.40 Z" />
</g>
<g id="#6d8f8f9d">
<path fill="#6d8f8f" opacity="0.62" d=" M 1038.70 220.63 C 1039.99 220.46 1041.10 220.87 1042.02 221.87 C 1040.48 222.43 1039.37 222.02 1038.70 220.63 Z" />
</g>
<g id="#06586cbf">
<path fill="#06586c" opacity="0.75" d=" M 323.81 244.61 C 325.49 240.83 326.73 236.87 327.88 232.91 C 327.69 234.98 327.63 237.06 327.47 239.14 C 328.52 240.00 329.56 240.88 330.61 241.78 C 330.16 242.34 329.73 242.91 329.29 243.49 C 328.34 243.82 327.39 244.14 326.44 244.45 C 326.87 242.88 327.26 241.29 327.67 239.72 C 325.66 240.69 324.91 242.86 323.81 244.61 Z" />
</g>
<g id="#00b5a2ff">
<path fill="#00b5a2" opacity="1.00" d=" M 1091.72 233.32 C 1101.57 232.75 1111.48 233.10 1121.34 233.52 C 1113.85 236.15 1105.79 235.31 1098.02 235.25 C 1095.75 235.28 1093.46 234.85 1091.72 233.32 Z" />
</g>
<g id="#007e98ff">
<path fill="#007e98" opacity="1.00" d=" M 323.81 244.61 C 324.91 242.86 325.66 240.69 327.67 239.72 C 327.26 241.29 326.87 242.88 326.44 244.45 C 327.39 244.14 328.34 243.82 329.29 243.49 C 327.18 245.64 325.83 248.31 325.11 251.22 C 324.45 251.26 323.13 251.36 322.48 251.40 C 322.56 249.74 322.66 248.08 322.86 246.43 C 323.10 245.98 323.57 245.07 323.81 244.61 Z" />
<path fill="#007e98" opacity="1.00" d=" M 41.08 593.73 C 41.54 587.21 48.27 584.19 52.80 580.60 C 52.84 581.13 52.91 582.20 52.95 582.73 C 49.34 586.76 44.81 589.81 41.08 593.73 Z" />
<path fill="#007e98" opacity="1.00" d=" M 6.28 622.78 C 6.81 620.92 7.37 619.07 7.97 617.24 C 8.49 619.58 9.39 621.81 10.46 623.96 C 12.78 621.29 14.97 618.38 18.16 616.69 C 15.76 619.48 13.25 622.17 10.82 624.94 C 9.59 625.97 8.26 626.87 6.92 627.74 C 6.67 626.08 6.44 624.44 6.28 622.78 Z" />
</g>
<g id="#15323748">
<path fill="#153237" opacity="0.28" d=" M 320.27 254.96 C 321.06 252.09 321.70 249.17 322.86 246.43 C 322.66 248.08 322.56 249.74 322.48 251.40 C 323.13 251.36 324.45 251.26 325.11 251.22 C 323.53 252.52 321.91 253.74 320.27 254.96 Z" />
</g>
<g id="#00b69eff">
<path fill="#00b69e" opacity="1.00" d=" M 1200.77 283.83 C 1202.27 282.05 1204.56 281.59 1206.78 281.34 C 1200.42 289.08 1193.15 296.00 1186.18 303.17 C 1178.76 310.09 1171.82 317.69 1163.21 323.16 C 1161.13 324.74 1159.45 326.80 1157.29 328.26 C 1148.81 333.30 1141.00 339.39 1132.26 344.00 C 1129.28 345.91 1125.88 347.08 1123.05 349.22 C 1122.09 349.43 1121.14 349.66 1120.21 349.89 C 1118.66 351.39 1116.68 352.23 1114.66 352.84 C 1111.86 355.36 1107.90 355.46 1104.76 357.37 C 1101.51 359.37 1097.77 360.17 1094.22 361.40 C 1085.20 365.62 1075.57 368.37 1065.99 370.98 C 1060.29 371.95 1054.97 374.52 1049.17 374.95 C 1047.11 374.89 1045.08 374.67 1043.05 374.54 C 1043.21 374.07 1043.54 373.13 1043.70 372.66 C 1047.03 371.70 1050.50 371.69 1053.93 371.50 C 1057.00 370.47 1059.86 368.86 1063.06 368.20 C 1067.75 366.77 1072.76 366.50 1077.30 364.55 C 1083.98 361.95 1090.67 359.40 1097.55 357.39 C 1107.34 353.02 1116.96 348.27 1126.65 343.66 C 1135.07 339.00 1143.13 333.71 1151.20 328.47 C 1155.39 326.44 1158.46 322.81 1162.53 320.61 C 1166.31 318.51 1168.80 314.82 1172.20 312.22 C 1182.00 303.05 1191.29 293.34 1200.77 283.83 Z" />
</g>
<g id="#00a8a3ff">
<path fill="#00a8a3" opacity="1.00" d=" M 717.47 293.72 C 723.50 295.37 727.87 300.15 731.63 304.86 C 735.58 307.80 740.51 309.32 743.72 313.25 C 749.24 317.47 754.53 322.16 760.83 325.22 C 765.21 327.33 768.23 331.50 772.79 333.28 C 777.87 335.22 781.73 339.33 786.84 341.25 C 793.64 344.07 799.48 348.99 806.73 350.69 C 806.01 351.51 805.28 352.34 804.60 353.18 C 795.85 349.23 787.46 344.56 778.85 340.32 C 776.08 338.98 774.03 336.45 771.03 335.55 C 767.64 334.60 765.88 331.08 762.58 329.97 C 759.01 328.57 756.71 325.22 753.11 323.84 C 747.84 319.83 742.26 316.22 737.27 311.83 C 731.00 308.20 725.96 302.94 720.83 297.90 C 719.60 296.60 718.52 295.16 717.47 293.72 Z" />
</g>
<g id="#00aca3ff">
<path fill="#00aca3" opacity="1.00" d=" M 808.39 351.81 C 814.38 353.43 819.60 357.03 825.59 358.68 C 829.55 359.76 833.48 360.99 837.22 362.71 C 842.95 365.31 849.26 366.11 855.10 368.37 C 858.53 368.44 861.74 369.37 864.65 371.23 C 868.83 372.24 873.75 370.80 877.37 373.82 C 875.22 374.43 873.01 374.85 870.81 375.09 C 865.10 374.45 859.87 371.84 854.17 371.20 C 846.04 368.79 837.96 366.20 829.94 363.45 C 826.83 362.48 823.63 361.70 820.81 360.01 C 817.06 357.33 812.81 355.17 808.20 354.57 C 808.25 353.88 808.34 352.50 808.39 351.81 Z" />
</g>
<g id="#00aaa0ff">
<path fill="#00aaa0" opacity="1.00" d=" M 876.48 376.35 C 880.93 372.75 886.99 374.46 891.89 376.07 C 890.40 376.79 888.93 377.52 887.46 378.26 C 883.80 377.64 880.08 377.29 876.48 376.35 Z" />
</g>
<g id="#00b6a2ff">
<path fill="#00b6a2" opacity="1.00" d=" M 1030.94 375.01 C 1035.24 373.21 1040.02 374.56 1044.13 376.28 C 1039.36 377.63 1034.32 377.54 1029.55 378.85 C 1029.59 377.47 1029.16 375.50 1030.94 375.01 Z" />
</g>
<g id="#00ab9fff">
<path fill="#00ab9f" opacity="1.00" d=" M 892.70 379.20 C 899.00 375.58 906.64 377.73 913.22 379.39 C 908.64 379.78 904.04 379.87 899.46 380.07 C 897.20 379.75 894.94 379.56 892.70 379.20 Z" />
</g>
<g id="#00b29dff">
<path fill="#00b29d" opacity="1.00" d=" M 1008.13 379.10 C 1013.13 377.67 1018.33 377.14 1023.54 377.25 C 1023.98 377.86 1024.87 379.08 1025.32 379.69 C 1024.88 379.78 1024.00 379.97 1023.56 380.06 C 1020.30 380.02 1017.04 380.11 1013.86 380.80 C 1013.29 380.90 1012.15 381.11 1011.59 381.21 C 1010.42 380.51 1009.27 379.80 1008.13 379.10 Z" />
</g>
<g id="#00b8a9ff">
<path fill="#00b8a9" opacity="1.00" d=" M 917.55 382.42 C 920.43 379.52 924.53 379.10 928.39 379.64 C 932.56 380.19 936.78 380.32 940.99 380.22 C 959.33 380.29 977.68 380.35 996.00 379.59 C 998.42 379.57 1000.34 381.28 1002.32 382.46 C 999.18 382.62 996.10 383.38 992.97 383.39 C 976.64 383.53 960.31 384.04 943.99 383.61 C 935.16 383.37 926.29 383.81 917.55 382.42 Z" />
</g>
<g id="#256c6683">
<path fill="#256c66" opacity="0.51" d=" M 1013.86 380.80 C 1017.04 380.11 1020.30 380.02 1023.56 380.06 C 1020.46 381.35 1017.09 380.81 1013.86 380.80 Z" />
</g>
<g id="#1ca9bbff">
<path fill="#1ca9bb" opacity="1.00" d=" M 292.98 386.64 C 296.05 386.61 299.15 386.74 302.14 385.94 C 302.59 387.54 303.00 389.17 302.98 390.84 C 307.97 390.20 313.00 390.65 318.00 390.79 C 319.90 390.78 321.71 391.33 323.42 392.10 C 320.32 392.72 317.19 393.25 314.14 394.09 C 314.16 395.74 314.19 397.40 314.23 399.06 C 314.65 397.70 315.06 396.34 315.49 394.99 C 317.42 394.98 319.35 395.22 321.17 395.92 C 317.19 400.54 311.80 405.04 311.29 411.53 C 310.29 411.60 309.30 411.67 308.31 411.75 C 308.58 413.74 308.95 415.71 309.41 417.66 C 306.39 417.63 303.62 418.84 300.86 419.89 C 300.53 423.89 301.10 427.85 303.58 431.15 C 302.03 430.84 300.48 430.55 298.93 430.25 C 298.11 428.51 297.26 426.78 296.40 425.06 C 295.76 427.60 295.27 430.17 294.94 432.77 C 296.39 432.51 297.85 432.26 299.31 432.01 C 298.74 433.78 298.16 435.55 297.61 437.33 C 295.51 436.01 292.58 434.37 290.71 437.03 C 291.20 439.37 294.14 438.85 295.89 439.60 C 295.77 439.97 295.51 440.71 295.39 441.07 C 291.06 441.96 288.32 445.96 284.00 447.05 C 284.98 447.89 285.96 448.74 286.94 449.60 C 284.93 450.21 282.92 450.81 280.92 451.44 C 282.45 452.50 284.08 453.42 285.57 454.54 C 285.93 455.86 286.01 457.25 286.19 458.62 C 284.40 456.98 282.27 455.77 279.76 455.95 C 280.72 457.14 281.81 458.23 282.94 459.26 C 282.94 462.68 279.50 460.89 277.48 460.49 C 277.37 462.06 277.25 463.63 277.12 465.21 C 276.47 463.82 275.81 462.44 275.16 461.06 C 275.20 463.53 275.33 466.01 275.61 468.48 C 276.33 468.93 277.06 469.39 277.79 469.85 C 275.91 469.95 274.04 470.07 272.17 470.18 C 273.59 472.68 275.26 475.11 276.00 477.93 C 274.58 479.94 271.84 480.47 270.01 482.06 C 267.87 483.50 267.18 486.07 266.47 488.40 C 265.48 488.30 264.50 488.21 263.52 488.13 C 263.78 488.67 264.05 489.22 264.32 489.78 C 263.90 490.66 263.49 491.55 263.07 492.45 C 264.49 492.55 265.92 492.64 267.34 492.75 C 264.52 495.59 262.41 499.43 258.42 500.80 C 258.16 502.13 257.91 503.47 257.67 504.82 C 257.06 503.16 256.43 501.52 255.81 499.88 C 254.80 500.85 253.68 501.75 253.03 503.03 C 253.80 504.43 254.92 505.59 256.02 506.75 C 255.56 507.04 254.64 507.62 254.18 507.90 C 253.74 507.55 252.87 506.85 252.44 506.50 C 251.61 509.45 249.58 511.74 247.32 513.72 C 248.70 514.57 250.06 515.47 251.46 516.32 C 248.62 517.77 247.28 520.70 245.93 523.41 C 245.41 521.93 244.88 520.45 244.35 518.98 C 242.39 520.52 242.05 522.67 243.36 524.78 C 241.97 524.96 240.59 525.15 239.21 525.34 C 239.16 525.94 239.06 527.12 239.01 527.71 C 240.39 527.22 241.76 526.74 243.14 526.27 C 243.29 527.74 243.44 529.22 243.60 530.70 C 240.48 530.17 237.71 531.29 235.87 533.85 C 236.21 533.94 236.89 534.12 237.23 534.21 C 238.99 533.36 240.89 532.98 242.76 533.78 C 239.27 537.54 233.20 535.72 229.72 539.51 C 227.77 539.83 225.82 540.13 223.89 540.53 C 222.93 541.11 221.98 541.70 221.04 542.31 C 221.95 542.87 222.86 543.46 223.78 544.02 C 221.19 543.26 218.55 542.67 215.90 542.15 C 217.32 541.65 218.75 541.14 220.15 540.57 C 217.89 539.51 215.61 538.14 213.03 538.26 C 210.44 538.31 208.11 539.57 205.76 540.52 C 201.24 538.86 196.38 539.87 191.75 538.87 C 196.58 538.88 201.40 538.72 206.21 538.31 C 203.73 536.00 200.18 536.40 197.06 536.28 C 191.24 536.02 185.64 538.26 179.80 537.81 C 172.98 536.91 166.22 538.25 159.42 538.60 C 154.75 535.87 148.33 535.13 143.73 538.37 C 147.68 538.58 151.64 538.73 155.57 539.21 C 151.52 539.57 147.36 539.14 143.44 540.49 C 140.60 538.55 136.99 537.55 133.67 538.86 C 129.49 540.54 124.98 541.18 120.80 542.89 C 116.56 544.57 111.90 544.89 107.78 546.93 C 103.48 549.01 99.08 550.87 94.65 552.67 C 82.51 558.75 70.75 565.68 59.96 573.98 C 57.63 575.71 56.11 578.26 55.59 581.12 C 55.18 581.33 54.38 581.76 53.97 581.98 C 53.72 582.17 53.20 582.54 52.95 582.73 C 52.91 582.20 52.84 581.13 52.80 580.60 C 48.27 584.19 41.54 587.21 41.08 593.73 C 34.95 599.93 28.88 606.18 22.58 612.20 C 17.63 611.78 14.72 616.32 11.10 618.86 C 12.31 610.77 15.39 603.17 17.70 595.38 C 23.69 578.78 30.71 562.55 38.66 546.79 C 40.06 544.17 40.72 541.25 40.41 538.29 L 40.61 537.81 C 41.20 538.02 42.37 538.46 42.95 538.67 C 45.74 534.05 48.51 529.42 50.68 524.47 C 52.92 519.46 58.90 516.19 58.54 510.16 C 58.63 506.02 62.81 504.02 64.56 500.68 C 67.81 494.82 72.93 490.38 77.37 485.47 C 77.46 484.87 77.66 483.68 77.76 483.08 C 86.78 474.32 95.56 465.30 104.54 456.48 C 105.39 455.54 106.76 455.69 107.90 455.43 C 113.53 455.75 115.98 449.89 119.91 447.02 C 128.09 443.15 134.92 437.04 142.86 432.72 C 148.77 429.71 154.13 425.70 160.40 423.42 C 169.14 419.07 178.02 414.99 186.98 411.10 C 194.76 408.70 202.54 406.27 210.17 403.41 C 213.31 402.69 216.73 402.55 219.16 400.13 C 222.66 400.65 227.15 401.17 229.30 397.62 C 227.79 397.36 226.29 397.12 224.78 396.93 C 226.34 396.49 227.89 396.04 229.45 395.64 C 233.25 398.54 238.04 397.02 242.31 396.30 C 242.43 395.86 242.68 394.98 242.81 394.54 C 240.44 394.37 238.07 394.21 235.69 394.16 C 238.97 393.47 242.29 393.01 245.59 392.48 C 249.37 395.58 254.74 395.27 258.88 393.08 C 258.19 392.29 257.51 391.50 256.84 390.71 C 259.29 389.71 261.93 389.52 264.54 389.48 C 266.14 390.64 267.83 392.09 269.97 391.78 C 275.11 391.54 280.24 390.81 285.29 389.82 C 279.37 388.96 273.37 389.20 267.42 389.13 C 269.55 388.52 271.76 388.34 273.97 388.38 C 280.36 388.51 286.64 387.19 292.98 386.64 Z" />
<path fill="#1ca9bb" opacity="1.00" d=" M 4.36 628.29 C 4.43 626.67 4.96 625.13 5.96 623.88 C 6.84 625.57 6.51 627.85 4.36 628.29 Z" />
</g>
<g id="#1aafbaff">
<path fill="#1aafba" opacity="1.00" d=" M 302.14 385.94 L 302.73 385.89 C 303.66 386.73 304.57 387.61 305.47 388.49 C 314.66 388.77 323.86 388.52 333.05 388.75 C 335.57 389.08 337.69 387.70 339.64 386.32 C 349.44 386.48 359.13 388.41 368.96 388.51 C 373.85 389.42 378.86 389.58 383.73 390.72 C 382.20 391.47 380.67 392.21 379.14 392.94 C 384.12 394.48 389.32 395.17 394.53 394.72 C 394.97 394.23 395.83 393.26 396.27 392.77 C 396.75 392.86 397.72 393.05 398.20 393.15 C 397.98 393.90 397.54 395.41 397.32 396.16 C 402.28 397.66 407.70 397.14 412.43 399.44 C 414.77 400.66 417.42 400.49 419.96 400.27 C 423.59 402.96 428.28 402.86 432.31 404.66 C 439.71 407.58 447.66 408.88 454.95 412.08 C 460.32 415.05 466.24 416.76 471.79 419.33 C 472.48 420.84 473.25 422.46 474.90 423.13 C 479.62 425.63 484.47 427.90 489.18 430.43 C 488.08 430.75 486.96 431.81 485.79 431.15 C 482.59 429.90 479.70 428.01 476.68 426.42 C 472.64 424.15 468.15 422.91 463.83 421.32 C 465.08 424.08 468.28 426.72 467.09 430.01 C 465.86 434.06 462.49 437.13 461.71 441.37 C 460.93 445.08 458.37 448.00 456.57 451.24 C 456.22 451.03 455.88 450.83 455.54 450.64 C 454.08 453.62 451.12 456.08 451.41 459.68 C 451.19 460.70 451.75 462.00 451.21 462.89 C 447.70 463.80 445.46 466.78 442.48 468.61 C 443.20 468.92 443.93 469.23 444.66 469.56 C 443.06 474.00 440.82 478.33 437.78 481.97 C 434.31 487.87 432.68 494.80 428.10 500.05 C 426.48 501.45 424.23 502.01 422.76 503.57 C 422.67 505.29 423.46 507.10 422.85 508.77 C 419.95 514.55 415.25 519.08 411.02 523.87 C 411.39 525.46 412.60 527.11 411.95 528.79 C 410.48 532.96 406.27 535.94 406.42 540.69 C 402.87 539.93 398.69 538.89 395.72 541.68 C 397.78 541.70 399.84 541.69 401.91 541.62 C 401.96 543.24 402.01 544.87 402.07 546.50 C 401.54 546.22 401.02 545.94 400.51 545.67 C 398.26 553.01 391.29 557.94 390.04 565.65 C 387.09 575.29 379.63 582.71 372.27 589.24 C 372.68 591.33 373.05 593.44 373.46 595.55 C 372.93 595.77 371.87 596.21 371.35 596.43 C 372.21 596.86 373.07 597.30 373.94 597.75 C 372.80 597.78 371.65 597.82 370.52 597.88 C 370.15 596.56 369.77 595.25 369.41 593.95 C 369.23 596.24 369.16 598.57 368.66 600.84 C 367.85 602.00 366.57 602.72 365.50 603.63 C 364.41 607.20 364.41 611.30 361.96 614.33 C 359.07 617.99 356.54 621.94 353.17 625.19 C 357.49 631.93 364.44 636.52 368.39 643.50 C 364.75 642.08 360.71 641.06 358.21 637.79 C 353.58 633.65 349.95 626.91 342.98 626.84 C 337.24 621.28 331.53 615.69 326.09 609.84 C 320.81 606.79 317.18 601.72 312.78 597.62 C 312.55 595.92 312.90 593.87 311.43 592.63 C 308.98 590.06 306.29 587.73 303.76 585.25 C 301.34 582.76 297.98 581.66 295.18 579.75 C 292.89 577.75 291.85 574.49 288.98 573.14 C 281.97 569.80 277.35 562.83 269.84 560.34 C 265.58 559.11 262.85 555.23 258.65 553.88 C 258.43 554.67 257.99 556.25 257.77 557.04 C 254.77 555.55 251.82 553.96 248.75 552.62 C 249.47 551.80 250.20 550.99 250.93 550.19 C 246.03 547.88 241.03 545.75 235.77 544.44 C 231.68 543.51 228.01 541.35 223.89 540.53 C 225.82 540.13 227.77 539.83 229.72 539.51 C 233.20 535.72 239.27 537.54 242.76 533.78 C 240.89 532.98 238.99 533.36 237.23 534.21 C 236.89 534.12 236.21 533.94 235.87 533.85 C 237.71 531.29 240.48 530.17 243.60 530.70 C 243.44 529.22 243.29 527.74 243.14 526.27 C 241.76 526.74 240.39 527.22 239.01 527.71 C 239.06 527.12 239.16 525.94 239.21 525.34 C 240.59 525.15 241.97 524.96 243.36 524.78 C 242.05 522.67 242.39 520.52 244.35 518.98 C 244.88 520.45 245.41 521.93 245.93 523.41 C 247.28 520.70 248.62 517.77 251.46 516.32 C 250.06 515.47 248.70 514.57 247.32 513.72 C 249.58 511.74 251.61 509.45 252.44 506.50 C 252.87 506.85 253.74 507.55 254.18 507.90 C 254.64 507.62 255.56 507.04 256.02 506.75 C 254.92 505.59 253.80 504.43 253.03 503.03 C 253.68 501.75 254.80 500.85 255.81 499.88 C 256.43 501.52 257.06 503.16 257.67 504.82 C 257.91 503.47 258.16 502.13 258.42 500.80 C 262.41 499.43 264.52 495.59 267.34 492.75 C 265.92 492.64 264.49 492.55 263.07 492.45 C 263.49 491.55 263.90 490.66 264.32 489.78 C 264.05 489.22 263.78 488.67 263.52 488.13 C 264.50 488.21 265.48 488.30 266.47 488.40 C 267.18 486.07 267.87 483.50 270.01 482.06 C 271.84 480.47 274.58 479.94 276.00 477.93 C 275.26 475.11 273.59 472.68 272.17 470.18 C 274.04 470.07 275.91 469.95 277.79 469.85 C 277.06 469.39 276.33 468.93 275.61 468.48 C 275.33 466.01 275.20 463.53 275.16 461.06 C 275.81 462.44 276.47 463.82 277.12 465.21 C 277.25 463.63 277.37 462.06 277.48 460.49 C 279.50 460.89 282.94 462.68 282.94 459.26 C 281.81 458.23 280.72 457.14 279.76 455.95 C 282.27 455.77 284.40 456.98 286.19 458.62 C 286.01 457.25 285.93 455.86 285.57 454.54 C 284.08 453.42 282.45 452.50 280.92 451.44 C 282.92 450.81 284.93 450.21 286.94 449.60 C 285.96 448.74 284.98 447.89 284.00 447.05 C 288.32 445.96 291.06 441.96 295.39 441.07 C 295.51 440.71 295.77 439.97 295.89 439.60 C 294.14 438.85 291.20 439.37 290.71 437.03 C 292.58 434.37 295.51 436.01 297.61 437.33 C 298.16 435.55 298.74 433.78 299.31 432.01 C 297.85 432.26 296.39 432.51 294.94 432.77 C 295.27 430.17 295.76 427.60 296.40 425.06 C 297.26 426.78 298.11 428.51 298.93 430.25 C 300.48 430.55 302.03 430.84 303.58 431.15 C 301.10 427.85 300.53 423.89 300.86 419.89 C 303.62 418.84 306.39 417.63 309.41 417.66 C 308.95 415.71 308.58 413.74 308.31 411.75 C 309.30 411.67 310.29 411.60 311.29 411.53 C 311.80 405.04 317.19 400.54 321.17 395.92 C 319.35 395.22 317.42 394.98 315.49 394.99 C 315.06 396.34 314.65 397.70 314.23 399.06 C 314.19 397.40 314.16 395.74 314.14 394.09 C 317.19 393.25 320.32 392.72 323.42 392.10 C 321.71 391.33 319.90 390.78 318.00 390.79 C 313.00 390.65 307.97 390.20 302.98 390.84 C 303.00 389.17 302.59 387.54 302.14 385.94 Z" />
</g>
<g id="#00899dff">
<path fill="#00899d" opacity="1.00" d=" M 302.73 385.89 C 309.48 385.39 316.25 385.78 323.01 385.67 C 328.55 385.80 334.16 385.16 339.64 386.32 C 337.69 387.70 335.57 389.08 333.05 388.75 C 323.86 388.52 314.66 388.77 305.47 388.49 C 304.57 387.61 303.66 386.73 302.73 385.89 Z" />
</g>
<g id="#00879fff">
<path fill="#00879f" opacity="1.00" d=" M 264.54 389.48 C 265.50 389.37 266.46 389.26 267.42 389.13 C 273.37 389.20 279.37 388.96 285.29 389.82 C 280.24 390.81 275.11 391.54 269.97 391.78 C 267.83 392.09 266.14 390.64 264.54 389.48 Z" />
</g>
<g id="#448c94b7">
<path fill="#448c94" opacity="0.72" d=" M 249.62 391.43 C 251.63 390.60 253.82 390.81 255.93 391.03 C 254.12 392.49 251.59 392.77 249.62 391.43 Z" />
</g>
<g id="#0090a7ff">
<path fill="#0090a7" opacity="1.00" d=" M 255.93 391.03 L 256.84 390.71 C 257.51 391.50 258.19 392.29 258.88 393.08 C 254.74 395.27 249.37 395.58 245.59 392.48 C 246.95 392.19 248.28 391.81 249.62 391.43 C 251.59 392.77 254.12 392.49 255.93 391.03 Z" />
</g>
<g id="#0099a6ff">
<path fill="#0099a6" opacity="1.00" d=" M 383.73 390.72 C 384.31 390.82 385.49 391.02 386.07 391.12 C 387.58 392.08 389.42 392.72 391.16 391.92 C 392.87 392.14 394.56 392.45 396.27 392.77 C 395.83 393.26 394.97 394.23 394.53 394.72 C 389.32 395.17 384.12 394.48 379.14 392.94 C 380.67 392.21 382.20 391.47 383.73 390.72 Z" />
</g>
<g id="#2e8189b0">
<path fill="#2e8189" opacity="0.69" d=" M 386.07 391.12 C 387.77 390.85 389.52 390.71 391.20 391.22 L 391.16 391.92 C 389.42 392.72 387.58 392.08 386.07 391.12 Z" />
</g>
<g id="#18363642">
<path fill="#183636" opacity="0.26" d=" M 391.20 391.22 C 396.57 391.83 401.78 393.30 407.11 394.11 C 409.04 394.36 410.79 395.22 412.55 396.02 C 407.70 395.36 403.02 393.93 398.20 393.15 C 397.72 393.05 396.75 392.86 396.27 392.77 C 394.56 392.45 392.87 392.14 391.16 391.92 L 391.20 391.22 Z" />
<path fill="#183636" opacity="0.26" d=" M 604.67 766.52 C 608.82 766.49 612.97 766.60 617.12 766.83 C 616.67 767.37 615.77 768.46 615.32 769.00 L 603.11 769.00 C 603.50 768.38 604.28 767.14 604.67 766.52 Z" />
</g>
<g id="#008ba1ff">
<path fill="#008ba1" opacity="1.00" d=" M 229.45 395.64 C 231.52 395.10 233.60 394.61 235.69 394.16 C 238.07 394.21 240.44 394.37 242.81 394.54 C 242.68 394.98 242.43 395.86 242.31 396.30 C 238.04 397.02 233.25 398.54 229.45 395.64 Z" />
</g>
<g id="#009ba5ff">
<path fill="#009ba5" opacity="1.00" d=" M 398.20 393.15 C 403.02 393.93 407.70 395.36 412.55 396.02 C 419.55 396.83 425.96 400.04 432.93 401.07 C 433.23 403.17 435.68 403.97 437.20 402.46 C 438.43 402.90 439.69 403.31 440.98 403.65 C 440.70 406.13 443.92 406.65 445.39 405.15 C 446.87 405.67 448.36 406.20 449.86 406.71 C 450.63 408.34 452.52 408.58 454.06 407.94 C 455.82 408.70 457.56 409.52 459.26 410.42 C 459.38 410.47 459.61 410.56 459.73 410.60 C 460.87 411.32 462.20 411.59 463.50 411.90 C 463.06 414.17 466.03 414.38 467.42 413.44 C 477.39 418.07 487.60 422.18 496.97 427.98 C 496.23 428.67 495.50 429.37 494.77 430.07 C 491.99 429.01 489.25 427.81 486.69 426.31 C 481.98 423.46 476.77 421.62 471.79 419.33 C 466.24 416.76 460.32 415.05 454.95 412.08 C 447.66 408.88 439.71 407.58 432.31 404.66 C 428.28 402.86 423.59 402.96 419.96 400.27 C 417.42 400.49 414.77 400.66 412.43 399.44 C 407.70 397.14 402.28 397.66 397.32 396.16 C 397.54 395.41 397.98 393.90 398.20 393.15 Z" />
</g>
<g id="#008da5ff">
<path fill="#008da5" opacity="1.00" d=" M 215.96 398.77 C 218.85 397.91 221.83 397.46 224.78 396.93 C 226.29 397.12 227.79 397.36 229.30 397.62 C 227.15 401.17 222.66 400.65 219.16 400.13 C 216.73 402.55 213.31 402.69 210.17 403.41 C 202.54 406.27 194.76 408.70 186.98 411.10 C 178.02 414.99 169.14 419.07 160.40 423.42 C 154.13 425.70 148.77 429.71 142.86 432.72 C 134.92 437.04 128.09 443.15 119.91 447.02 C 115.98 449.89 113.53 455.75 107.90 455.43 C 111.68 451.22 115.57 446.75 120.82 444.37 C 123.26 443.16 124.75 440.63 127.26 439.52 C 130.22 438.21 132.43 435.81 134.70 433.60 C 135.81 433.49 136.92 433.39 138.03 433.28 C 139.86 430.61 142.78 429.24 145.62 427.93 C 155.88 422.81 166.09 417.59 176.42 412.63 C 180.07 410.60 183.98 409.10 188.08 408.28 C 188.54 407.88 189.47 407.08 189.93 406.68 C 195.00 406.03 199.44 403.13 204.57 402.86 C 205.09 402.50 206.11 401.78 206.62 401.42 C 208.66 400.89 210.72 400.47 212.79 400.15 C 214.24 400.55 215.29 400.09 215.96 398.77 Z" />
</g>
<g id="#387a83a2">
<path fill="#387a83" opacity="0.64" d=" M 212.79 400.15 C 213.52 398.98 214.57 398.52 215.96 398.77 C 215.29 400.09 214.24 400.55 212.79 400.15 Z" />
</g>
<g id="#719a9baf">
<path fill="#719a9b" opacity="0.69" d=" M 432.93 401.07 C 434.41 401.28 435.85 401.76 437.20 402.46 C 435.68 403.97 433.23 403.17 432.93 401.07 Z" />
</g>
<g id="#47a8b5e5">
<path fill="#47a8b5" opacity="0.90" d=" M 204.57 402.86 C 205.09 402.50 206.11 401.78 206.62 401.42 C 206.11 401.78 205.09 402.50 204.57 402.86 Z" />
</g>
<g id="#5fa9add0">
<path fill="#5fa9ad" opacity="0.82" d=" M 440.98 403.65 C 442.53 403.84 443.99 404.45 445.39 405.15 C 443.92 406.65 440.70 406.13 440.98 403.65 Z" />
</g>
<g id="#3d606577">
<path fill="#3d6065" opacity="0.47" d=" M 188.08 408.28 C 188.54 407.88 189.47 407.08 189.93 406.68 C 189.47 407.08 188.54 407.88 188.08 408.28 Z" />
</g>
<g id="#5f7a7b87">
<path fill="#5f7a7b" opacity="0.53" d=" M 449.86 406.71 C 451.37 406.48 452.91 406.89 454.06 407.94 C 452.52 408.58 450.63 408.34 449.86 406.71 Z" />
</g>
<g id="#52656771">
<path fill="#526567" opacity="0.44" d=" M 459.26 410.42 L 459.47 410.52 L 459.73 410.60 C 459.61 410.56 459.38 410.47 459.26 410.42 Z" />
</g>
<g id="#4b9598bb">
<path fill="#4b9598" opacity="0.73" d=" M 463.50 411.90 C 464.96 411.87 466.27 412.60 467.42 413.44 C 466.03 414.38 463.06 414.17 463.50 411.90 Z" />
</g>
<g id="#1550597a">
<path fill="#155059" opacity="0.48" d=" M 169.59 414.72 C 171.70 413.56 174.13 413.26 176.42 412.63 C 166.09 417.59 155.88 422.81 145.62 427.93 C 146.72 426.96 147.70 425.81 149.03 425.15 C 155.85 421.61 162.88 418.49 169.59 414.72 Z" />
</g>
<g id="#18b7b9ff">
<path fill="#18b7b9" opacity="1.00" d=" M 471.79 419.33 C 476.77 421.62 481.98 423.46 486.69 426.31 C 489.25 427.81 491.99 429.01 494.77 430.07 C 495.50 429.37 496.23 428.67 496.97 427.98 C 497.79 428.40 498.62 428.81 499.46 429.21 C 498.65 430.11 497.85 431.02 497.04 431.92 C 504.60 436.04 511.59 441.17 519.53 444.58 C 524.40 448.31 529.33 451.98 534.27 455.63 C 541.34 458.81 545.07 466.48 552.55 469.05 C 552.63 468.36 552.80 466.99 552.89 466.31 C 555.51 467.40 556.93 470.03 559.11 471.73 C 564.90 476.28 569.47 482.17 575.53 486.42 C 580.13 489.44 583.59 493.75 587.53 497.53 C 603.93 513.92 620.31 530.32 636.71 546.71 C 641.32 551.29 645.73 556.10 650.79 560.20 C 654.66 563.35 657.62 567.63 662.09 570.03 C 664.20 571.11 665.78 572.91 667.49 574.51 C 667.73 575.89 668.02 577.28 668.29 578.67 C 667.82 578.84 666.90 579.19 666.43 579.36 C 667.31 580.17 668.20 580.98 669.10 581.81 C 669.40 582.89 669.67 583.99 670.12 585.04 C 671.75 585.86 673.68 585.62 675.46 585.80 C 675.89 587.25 676.32 588.71 676.75 590.17 C 668.89 589.67 664.84 582.19 658.57 578.58 C 655.89 578.54 655.10 581.87 653.76 583.64 C 655.00 583.24 656.25 582.83 657.51 582.42 C 657.97 583.15 658.41 583.89 658.85 584.66 C 657.57 584.82 656.30 584.98 655.03 585.14 C 654.76 586.89 654.36 588.61 653.99 590.34 C 652.47 589.80 650.96 589.26 649.46 588.73 C 649.54 590.67 649.88 592.65 649.54 594.60 C 647.74 597.87 645.28 600.73 643.59 604.07 C 643.93 604.79 644.30 605.52 644.67 606.25 C 644.03 606.47 643.40 606.69 642.77 606.92 C 641.79 609.64 641.23 612.88 638.62 614.59 C 635.28 616.84 631.96 619.74 627.72 619.87 C 628.38 621.44 629.33 622.84 630.56 624.04 C 631.10 623.64 632.19 622.82 632.73 622.42 C 633.09 623.23 633.42 624.07 633.72 624.92 C 631.63 626.95 630.58 629.71 629.62 632.40 C 629.24 632.14 628.86 631.88 628.50 631.63 C 626.85 635.96 622.94 638.86 621.19 643.13 C 619.78 646.58 616.40 649.08 616.19 653.01 C 615.80 656.27 614.34 659.24 613.05 662.23 C 612.46 663.99 610.22 663.65 608.81 664.08 C 609.74 662.25 610.74 660.45 611.74 658.66 C 610.48 659.29 608.09 659.14 608.13 661.08 C 607.76 664.97 608.02 668.90 607.90 672.81 C 606.78 672.86 605.67 672.95 604.57 673.07 C 604.71 671.12 604.77 669.17 604.91 667.23 C 604.27 667.18 602.98 667.08 602.33 667.02 C 602.20 669.59 602.24 672.23 603.29 674.63 C 601.47 675.86 599.94 677.48 599.73 679.79 C 599.24 683.79 595.08 686.14 594.84 690.17 C 592.68 693.66 589.08 696.24 587.58 700.10 C 586.71 705.28 583.38 709.46 581.05 714.04 C 580.45 715.33 579.29 716.18 578.22 717.07 C 578.19 716.51 578.12 715.40 578.08 714.84 C 578.63 714.62 579.72 714.18 580.26 713.96 C 579.39 713.50 578.53 712.80 577.52 713.27 C 576.66 716.41 576.46 719.84 574.50 722.59 C 569.70 730.00 568.09 738.91 563.26 746.32 C 561.22 747.40 559.19 748.47 557.16 749.55 C 557.74 749.73 558.91 750.08 559.49 750.26 C 558.96 750.99 558.44 751.73 557.93 752.48 C 560.80 752.70 563.67 753.06 566.50 753.63 C 566.90 752.23 567.28 750.83 567.68 749.45 C 568.27 749.58 568.87 749.63 569.49 749.58 C 568.85 751.26 568.27 752.96 567.76 754.70 C 573.46 754.72 578.95 756.40 584.13 758.67 C 579.75 758.91 575.35 758.82 570.97 758.66 C 568.07 758.68 565.74 756.69 563.02 756.03 C 559.00 755.15 554.91 756.04 550.86 756.00 C 546.48 754.31 541.54 755.17 537.40 752.82 C 519.05 748.54 501.43 741.54 484.21 733.94 C 479.43 731.82 475.39 728.04 470.20 726.91 C 469.61 727.42 468.42 728.44 467.83 728.95 C 469.87 729.86 472.51 729.91 473.80 732.04 C 471.71 731.15 469.48 730.72 467.26 730.33 L 468.17 729.38 C 467.56 729.09 466.36 728.51 465.76 728.21 C 466.04 727.60 466.62 726.38 466.91 725.76 C 464.50 724.27 462.17 722.65 459.76 721.18 C 456.58 719.24 452.79 718.49 449.88 716.08 C 445.78 712.79 441.11 710.27 437.13 706.82 C 433.69 703.70 428.54 703.12 425.76 699.17 C 423.20 695.45 417.83 695.55 415.46 691.65 C 412.60 687.62 408.20 685.15 403.82 683.11 C 405.20 685.22 406.88 687.12 408.73 688.84 C 397.13 681.59 388.71 670.45 378.06 661.98 C 368.86 654.56 361.01 645.67 352.54 637.44 C 349.99 634.65 346.61 632.47 345.09 628.89 C 344.39 628.19 343.69 627.51 342.98 626.84 C 349.95 626.91 353.58 633.65 358.21 637.79 C 360.71 641.06 364.75 642.08 368.39 643.50 C 364.44 636.52 357.49 631.93 353.17 625.19 C 356.54 621.94 359.07 617.99 361.96 614.33 C 364.41 611.30 364.41 607.20 365.50 603.63 C 366.57 602.72 367.85 602.00 368.66 600.84 C 369.16 598.57 369.23 596.24 369.41 593.95 C 369.77 595.25 370.15 596.56 370.52 597.88 C 371.65 597.82 372.80 597.78 373.94 597.75 C 373.07 597.30 372.21 596.86 371.35 596.43 C 371.87 596.21 372.93 595.77 373.46 595.55 C 373.05 593.44 372.68 591.33 372.27 589.24 C 379.63 582.71 387.09 575.29 390.04 565.65 C 391.29 557.94 398.26 553.01 400.51 545.67 C 401.02 545.94 401.54 546.22 402.07 546.50 C 402.01 544.87 401.96 543.24 401.91 541.62 C 399.84 541.69 397.78 541.70 395.72 541.68 C 398.69 538.89 402.87 539.93 406.42 540.69 C 406.27 535.94 410.48 532.96 411.95 528.79 C 412.60 527.11 411.39 525.46 411.02 523.87 C 415.25 519.08 419.95 514.55 422.85 508.77 C 423.46 507.10 422.67 505.29 422.76 503.57 C 424.23 502.01 426.48 501.45 428.10 500.05 C 432.68 494.80 434.31 487.87 437.78 481.97 C 440.82 478.33 443.06 474.00 444.66 469.56 C 443.93 469.23 443.20 468.92 442.48 468.61 C 445.46 466.78 447.70 463.80 451.21 462.89 C 451.75 462.00 451.19 460.70 451.41 459.68 C 451.12 456.08 454.08 453.62 455.54 450.64 C 455.88 450.83 456.22 451.03 456.57 451.24 C 458.37 448.00 460.93 445.08 461.71 441.37 C 462.49 437.13 465.86 434.06 467.09 430.01 C 468.28 426.72 465.08 424.08 463.83 421.32 C 468.15 422.91 472.64 424.15 476.68 426.42 C 479.70 428.01 482.59 429.90 485.79 431.15 C 486.96 431.81 488.08 430.75 489.18 430.43 C 484.47 427.90 479.62 425.63 474.90 423.13 C 473.25 422.46 472.48 420.84 471.79 419.33 Z" />
<path fill="#18b7b9" opacity="1.00" d=" M 953.96 531.76 C 952.96 529.64 952.92 526.84 955.52 525.97 C 955.46 527.99 954.87 529.96 953.96 531.76 Z" />
</g>
<g id="#0088a4ff">
<path fill="#0088a4" opacity="1.00" d=" M 53.57 516.13 C 54.38 513.55 56.61 511.88 58.54 510.16 C 58.90 516.19 52.92 519.46 50.68 524.47 C 48.51 529.42 45.74 534.05 42.95 538.67 C 42.37 538.46 41.20 538.02 40.61 537.81 C 42.12 533.87 44.35 530.26 47.16 527.12 C 47.36 522.41 52.56 520.48 53.57 516.13 Z" />
</g>
<g id="#153d3949">
<path fill="#153d39" opacity="0.29" d=" M 954.75 519.33 C 956.27 518.09 957.94 517.06 959.61 516.02 C 958.89 518.76 958.16 521.50 957.14 524.15 C 957.29 522.48 957.42 520.81 957.51 519.14 C 956.40 519.64 955.30 520.16 954.22 520.70 C 954.36 520.35 954.62 519.67 954.75 519.33 Z" />
</g>
<g id="#00b29eff">
<path fill="#00b29e" opacity="1.00" d=" M 949.27 529.32 C 949.41 528.98 949.69 528.30 949.83 527.96 C 948.70 530.81 951.43 532.18 953.38 533.55 C 949.25 547.10 944.86 560.59 939.83 573.81 C 938.00 576.87 937.49 580.50 935.48 583.46 C 933.83 586.12 933.70 589.40 932.23 592.15 C 929.10 598.07 926.21 604.11 923.17 610.08 C 921.00 614.28 919.32 618.84 915.99 622.32 C 915.43 623.87 914.90 625.47 913.91 626.82 C 909.89 632.84 907.08 639.78 901.70 644.79 C 901.63 645.45 901.47 646.77 901.40 647.43 C 898.79 650.11 896.32 652.91 893.73 655.60 C 893.65 656.24 893.48 657.51 893.40 658.15 C 888.36 663.61 883.03 668.80 878.93 675.04 C 880.14 668.92 883.79 663.42 888.64 659.55 C 891.77 657.17 892.74 653.14 895.30 650.29 C 903.74 640.64 908.98 628.79 916.15 618.26 C 918.72 612.30 922.13 606.78 924.95 600.94 C 927.51 594.66 931.08 588.83 933.28 582.40 C 937.02 573.60 940.38 564.64 943.63 555.65 C 945.24 549.46 948.73 543.53 947.72 536.94 C 942.31 537.76 941.15 545.52 935.12 544.78 C 939.74 539.54 944.82 534.70 949.27 529.32 Z" />
</g>
<g id="#00809bff">
<path fill="#00809b" opacity="1.00" d=" M 143.73 538.37 C 148.33 535.13 154.75 535.87 159.42 538.60 C 158.14 538.80 156.87 539.09 155.57 539.21 C 151.64 538.73 147.68 538.58 143.73 538.37 Z" />
</g>
<g id="#00859dff">
<path fill="#00859d" opacity="1.00" d=" M 179.80 537.81 C 185.64 538.26 191.24 536.02 197.06 536.28 C 200.18 536.40 203.73 536.00 206.21 538.31 C 201.40 538.72 196.58 538.88 191.75 538.87 C 187.81 538.02 183.70 538.93 179.80 537.81 Z" />
</g>
<g id="#15c1b8ff">
<path fill="#15c1b8" opacity="1.00" d=" M 935.12 544.78 C 941.15 545.52 942.31 537.76 947.72 536.94 C 948.73 543.53 945.24 549.46 943.63 555.65 C 940.38 564.64 937.02 573.60 933.28 582.40 C 931.08 588.83 927.51 594.66 924.95 600.94 C 922.13 606.78 918.72 612.30 916.15 618.26 C 908.98 628.79 903.74 640.64 895.30 650.29 C 892.74 653.14 891.77 657.17 888.64 659.55 C 883.79 663.42 880.14 668.92 878.93 675.04 C 875.55 678.60 871.97 681.97 868.53 685.48 C 863.58 690.16 859.35 695.77 853.13 698.89 C 853.91 697.78 854.61 696.63 855.35 695.50 C 847.78 697.86 844.43 706.19 837.31 709.26 C 832.47 711.16 829.51 715.77 824.79 717.89 C 820.56 721.42 815.28 723.03 810.46 725.53 C 799.81 731.69 788.76 737.19 777.19 741.41 C 768.00 745.63 757.99 747.58 748.75 751.66 C 742.44 752.67 736.13 754.03 730.13 756.26 C 725.71 758.90 720.36 756.64 715.69 758.60 C 715.51 759.78 715.36 760.98 715.22 762.18 C 710.02 759.12 703.07 759.39 697.93 762.43 C 698.49 762.89 699.60 763.81 700.16 764.27 C 696.63 765.09 693.04 765.50 689.45 765.90 C 685.43 766.06 681.40 766.14 677.39 766.42 C 669.87 765.84 662.37 767.19 654.84 766.82 C 652.86 766.39 651.27 767.05 650.54 769.00 L 630.03 769.00 C 629.50 768.47 628.42 767.42 627.89 766.89 C 624.31 766.53 620.71 767.01 617.12 766.83 C 612.97 766.60 608.82 766.49 604.67 766.52 C 595.94 766.63 587.21 765.87 578.65 764.16 C 579.77 763.28 580.93 762.45 582.08 761.60 C 576.72 760.60 570.49 758.76 565.62 762.21 C 563.43 761.72 561.21 761.40 559.03 760.92 C 561.27 760.96 563.41 760.24 565.37 759.21 C 560.78 756.72 555.50 757.28 550.65 758.56 C 550.71 757.92 550.81 756.64 550.86 756.00 C 554.91 756.04 559.00 755.15 563.02 756.03 C 565.74 756.69 568.07 758.68 570.97 758.66 C 575.35 758.82 579.75 758.91 584.13 758.67 C 578.95 756.40 573.46 754.72 567.76 754.70 C 568.27 752.96 568.85 751.26 569.49 749.58 C 568.87 749.63 568.27 749.58 567.68 749.45 C 567.28 750.83 566.90 752.23 566.50 753.63 C 563.67 753.06 560.80 752.70 557.93 752.48 C 558.44 751.73 558.96 750.99 559.49 750.26 C 558.91 750.08 557.74 749.73 557.16 749.55 C 559.19 748.47 561.22 747.40 563.26 746.32 C 568.09 738.91 569.70 730.00 574.50 722.59 C 576.46 719.84 576.66 716.41 577.52 713.27 C 578.53 712.80 579.39 713.50 580.26 713.96 C 579.72 714.18 578.63 714.62 578.08 714.84 C 578.12 715.40 578.19 716.51 578.22 717.07 C 579.29 716.18 580.45 715.33 581.05 714.04 C 583.38 709.46 586.71 705.28 587.58 700.10 C 589.08 696.24 592.68 693.66 594.84 690.17 C 595.08 686.14 599.24 683.79 599.73 679.79 C 599.94 677.48 601.47 675.86 603.29 674.63 C 602.24 672.23 602.20 669.59 602.33 667.02 C 602.98 667.08 604.27 667.18 604.91 667.23 C 604.77 669.17 604.71 671.12 604.57 673.07 C 605.67 672.95 606.78 672.86 607.90 672.81 C 608.02 668.90 607.76 664.97 608.13 661.08 C 608.09 659.14 610.48 659.29 611.74 658.66 C 610.74 660.45 609.74 662.25 608.81 664.08 C 610.22 663.65 612.46 663.99 613.05 662.23 C 614.34 659.24 615.80 656.27 616.19 653.01 C 616.40 649.08 619.78 646.58 621.19 643.13 C 622.94 638.86 626.85 635.96 628.50 631.63 C 628.86 631.88 629.24 632.14 629.62 632.40 C 630.58 629.71 631.63 626.95 633.72 624.92 C 633.42 624.07 633.09 623.23 632.73 622.42 C 632.19 622.82 631.10 623.64 630.56 624.04 C 629.33 622.84 628.38 621.44 627.72 619.87 C 631.96 619.74 635.28 616.84 638.62 614.59 C 641.23 612.88 641.79 609.64 642.77 606.92 C 643.40 606.69 644.03 606.47 644.67 606.25 C 644.30 605.52 643.93 604.79 643.59 604.07 C 645.28 600.73 647.74 597.87 649.54 594.60 C 649.88 592.65 649.54 590.67 649.46 588.73 C 650.96 589.26 652.47 589.80 653.99 590.34 C 654.36 588.61 654.76 586.89 655.03 585.14 C 656.30 584.98 657.57 584.82 658.85 584.66 C 658.41 583.89 657.97 583.15 657.51 582.42 C 656.25 582.83 655.00 583.24 653.76 583.64 C 655.10 581.87 655.89 578.54 658.57 578.58 C 664.84 582.19 668.89 589.67 676.75 590.17 C 676.32 588.71 675.89 587.25 675.46 585.80 C 673.68 585.62 671.75 585.86 670.12 585.04 C 669.67 583.99 669.40 582.89 669.10 581.81 C 668.20 580.98 667.31 580.17 666.43 579.36 C 666.90 579.19 667.82 578.84 668.29 578.67 C 668.02 577.28 667.73 575.89 667.49 574.51 C 670.46 577.09 673.05 580.33 676.86 581.72 C 675.70 584.70 678.06 587.18 680.67 588.24 C 684.94 590.09 687.96 593.90 692.27 595.69 C 696.57 597.58 700.35 600.43 704.65 602.34 C 711.62 605.43 718.34 609.46 725.96 610.77 C 729.81 611.26 733.07 613.81 737.04 613.85 C 740.93 613.96 743.99 617.10 747.95 616.87 C 750.96 617.26 753.86 616.35 756.15 614.37 C 757.56 614.67 758.98 615.02 760.41 615.31 C 758.53 615.74 756.68 616.26 754.84 616.83 C 757.22 619.29 760.85 618.73 763.96 618.91 C 768.67 618.81 774.02 619.78 777.83 616.27 C 783.36 616.66 788.93 616.37 794.48 616.41 C 799.37 619.61 805.37 619.06 810.90 618.54 C 812.49 618.36 813.78 617.30 815.12 616.51 C 809.60 616.11 804.06 616.28 798.56 615.69 C 803.72 615.31 809.00 616.06 814.04 614.53 C 817.02 614.99 819.81 616.26 822.80 616.72 C 825.95 616.03 828.73 614.08 832.04 613.90 C 835.55 613.59 838.63 611.78 841.97 610.81 C 862.22 604.82 880.62 593.95 897.82 581.89 C 900.49 580.25 902.28 577.66 904.49 575.52 C 906.95 574.04 909.74 573.16 912.08 571.45 C 911.46 570.57 910.86 569.69 910.29 568.80 C 918.97 561.23 927.01 552.97 935.12 544.78 Z" />
</g>
<g id="#008ca5ff">
<path fill="#008ca5" opacity="1.00" d=" M 133.67 538.86 C 136.99 537.55 140.60 538.55 143.44 540.49 C 141.84 540.95 140.18 541.21 138.51 541.34 C 135.68 541.18 132.80 541.45 130.36 543.03 C 128.00 543.63 125.65 544.29 123.33 545.07 C 118.17 545.24 113.57 548.29 108.39 547.95 L 110.64 548.86 C 107.15 550.94 102.84 550.98 99.59 553.51 C 93.39 556.52 87.41 560.00 81.20 562.93 C 79.14 564.53 77.13 566.23 74.75 567.36 C 70.88 568.99 68.39 572.83 64.24 573.95 C 61.48 576.47 58.98 579.40 55.59 581.12 C 56.11 578.26 57.63 575.71 59.96 573.98 C 70.75 565.68 82.51 558.75 94.65 552.67 C 99.08 550.87 103.48 549.01 107.78 546.93 C 111.90 544.89 116.56 544.57 120.80 542.89 C 124.98 541.18 129.49 540.54 133.67 538.86 Z" />
</g>
<g id="#0092a5ff">
<path fill="#0092a5" opacity="1.00" d=" M 205.76 540.52 C 208.11 539.57 210.44 538.31 213.03 538.26 C 215.61 538.14 217.89 539.51 220.15 540.57 C 218.75 541.14 217.32 541.65 215.90 542.15 C 212.54 541.46 209.08 541.34 205.76 540.52 Z" />
</g>
<g id="#008faaff">
<path fill="#008faa" opacity="1.00" d=" M 26.57 565.59 C 31.29 556.54 35.33 547.14 40.41 538.29 C 40.72 541.25 40.06 544.17 38.66 546.79 C 30.71 562.55 23.69 578.78 17.70 595.38 C 15.39 603.17 12.31 610.77 11.10 618.86 C 14.72 616.32 17.63 611.78 22.58 612.20 C 21.11 613.70 19.67 615.22 18.16 616.69 C 14.97 618.38 12.78 621.29 10.46 623.96 C 9.39 621.81 8.49 619.58 7.97 617.24 C 9.29 614.30 9.59 611.03 10.90 608.10 C 12.47 605.97 12.72 603.33 13.07 600.81 C 16.56 593.65 17.58 585.49 21.49 578.50 C 23.73 574.41 24.27 569.65 26.57 565.59 Z" />
</g>
<g id="#2e838eb8">
<path fill="#2e838e" opacity="0.72" d=" M 130.36 543.03 C 132.80 541.45 135.68 541.18 138.51 541.34 C 135.78 541.83 133.07 542.43 130.36 543.03 Z" />
</g>
<g id="#0096a7ff">
<path fill="#0096a7" opacity="1.00" d=" M 221.04 542.31 C 221.98 541.70 222.93 541.11 223.89 540.53 C 228.01 541.35 231.68 543.51 235.77 544.44 C 241.03 545.75 246.03 547.88 250.93 550.19 C 250.20 550.99 249.47 551.80 248.75 552.62 C 247.62 552.13 246.49 551.65 245.38 551.15 C 240.85 547.54 234.82 546.98 229.49 545.13 C 228.07 544.13 226.18 543.54 224.56 544.45 L 223.78 544.02 C 222.86 543.46 221.95 542.87 221.04 542.31 Z" />
</g>
<g id="#4f7a7e92">
<path fill="#4f7a7e" opacity="0.57" d=" M 224.56 544.45 C 226.18 543.54 228.07 544.13 229.49 545.13 L 229.12 545.65 C 227.52 545.68 225.85 545.45 224.56 544.45 Z" />
</g>
<g id="#0d4e5a88">
<path fill="#0d4e5a" opacity="0.53" d=" M 108.39 547.95 C 113.57 548.29 118.17 545.24 123.33 545.07 C 119.51 546.79 115.28 547.33 111.54 549.25 C 107.72 551.09 103.67 552.36 99.59 553.51 C 102.84 550.98 107.15 550.94 110.64 548.86 L 108.39 547.95 Z" />
</g>
<g id="#10606996">
<path fill="#106069" opacity="0.59" d=" M 229.49 545.13 C 234.82 546.98 240.85 547.54 245.38 551.15 C 240.02 549.14 234.60 547.29 229.12 545.65 L 229.49 545.13 Z" />
</g>
<g id="#009baaff">
<path fill="#009baa" opacity="1.00" d=" M 258.65 553.88 C 262.85 555.23 265.58 559.11 269.84 560.34 C 277.35 562.83 281.97 569.80 288.98 573.14 C 291.85 574.49 292.89 577.75 295.18 579.75 C 297.98 581.66 301.34 582.76 303.76 585.25 C 306.29 587.73 308.98 590.06 311.43 592.63 C 312.90 593.87 312.55 595.92 312.78 597.62 C 306.41 591.88 300.89 584.97 293.30 580.77 C 290.64 578.70 288.32 576.23 285.82 573.97 C 282.84 573.43 280.90 571.06 278.63 569.30 C 271.95 564.75 264.88 560.86 257.77 557.04 C 257.99 556.25 258.43 554.67 258.65 553.88 Z" />
<path fill="#009baa" opacity="1.00" d=" M 6.28 622.78 C 6.44 624.44 6.67 626.08 6.92 627.74 C 8.26 626.87 9.59 625.97 10.82 624.94 C 9.68 627.08 8.58 629.25 7.13 631.21 C 5.94 630.56 4.75 629.92 3.56 629.29 C 3.76 629.04 4.16 628.54 4.36 628.29 C 6.51 627.85 6.84 625.57 5.96 623.88 L 6.28 622.78 Z" />
</g>
<g id="#00b2a2ff">
<path fill="#00b2a2" opacity="1.00" d=" M 900.27 576.23 C 903.29 573.33 907.38 571.86 910.29 568.80 C 910.86 569.69 911.46 570.57 912.08 571.45 C 909.74 573.16 906.95 574.04 904.49 575.52 C 902.28 577.66 900.49 580.25 897.82 581.89 C 880.62 593.95 862.22 604.82 841.97 610.81 C 838.63 611.78 835.55 613.59 832.04 613.90 C 828.73 614.08 825.95 616.03 822.80 616.72 C 819.81 616.26 817.02 614.99 814.04 614.53 C 820.62 613.12 827.28 612.04 833.82 610.48 C 839.29 608.06 845.21 606.87 850.72 604.56 C 852.80 603.36 855.05 602.57 857.45 602.34 C 859.04 600.69 861.16 599.84 863.34 599.26 C 863.73 598.86 864.50 598.06 864.89 597.67 C 865.93 597.51 866.99 597.36 868.05 597.21 C 869.71 595.65 871.83 594.85 873.88 593.93 C 878.20 591.01 882.60 588.08 887.47 586.14 C 889.53 584.22 891.52 582.12 894.20 581.07 C 896.66 580.07 898.28 577.88 900.27 576.23 Z" />
<path fill="#00b2a2" opacity="1.00" d=" M 837.31 709.26 C 844.43 706.19 847.78 697.86 855.35 695.50 C 854.61 696.63 853.91 697.78 853.13 698.89 C 849.86 702.04 846.89 705.66 842.87 707.89 C 839.18 709.92 836.41 713.24 832.71 715.25 C 828.94 717.09 826.32 720.74 822.20 721.95 C 819.95 723.90 817.49 725.59 814.79 726.85 C 808.73 729.70 803.19 733.60 796.84 735.83 C 796.41 736.18 795.56 736.87 795.14 737.21 C 789.33 738.93 784.41 742.86 778.40 743.95 C 774.98 745.89 771.22 747.09 767.57 748.47 C 755.86 752.24 744.22 756.38 732.11 758.65 C 726.62 760.48 720.74 760.47 715.22 762.18 C 715.36 760.98 715.51 759.78 715.69 758.60 C 720.36 756.64 725.71 758.90 730.13 756.26 C 736.13 754.03 742.44 752.67 748.75 751.66 C 757.99 747.58 768.00 745.63 777.19 741.41 C 788.76 737.19 799.81 731.69 810.46 725.53 C 815.28 723.03 820.56 721.42 824.79 717.89 C 829.51 715.77 832.47 711.16 837.31 709.26 Z" />
</g>
<g id="#00b0a6ff">
<path fill="#00b0a6" opacity="1.00" d=" M 676.86 581.72 C 678.97 582.77 680.64 584.47 682.36 586.06 C 686.50 587.05 689.09 590.67 692.81 592.47 C 700.34 596.49 707.67 601.00 715.77 603.82 C 716.35 604.05 717.50 604.50 718.08 604.72 C 720.06 605.30 722.02 605.99 723.92 606.84 C 724.67 608.21 725.78 608.50 727.23 607.71 C 736.55 611.15 746.41 612.69 756.15 614.37 C 753.86 616.35 750.96 617.26 747.95 616.87 C 743.99 617.10 740.93 613.96 737.04 613.85 C 733.07 613.81 729.81 611.26 725.96 610.77 C 718.34 609.46 711.62 605.43 704.65 602.34 C 700.35 600.43 696.57 597.58 692.27 595.69 C 687.96 593.90 684.94 590.09 680.67 588.24 C 678.06 587.18 675.70 584.70 676.86 581.72 Z" />
</g>
<g id="#003d4e80">
<path fill="#003d4e" opacity="0.50" d=" M 10.90 608.10 C 11.37 605.59 11.77 603.04 13.07 600.81 C 12.72 603.33 12.47 605.97 10.90 608.10 Z" />
</g>
<g id="#699391a5">
<path fill="#699391" opacity="0.65" d=" M 715.77 603.82 C 716.35 604.05 717.50 604.50 718.08 604.72 C 717.50 604.50 716.35 604.05 715.77 603.82 Z" />
</g>
<g id="#5b908ea5">
<path fill="#5b908e" opacity="0.65" d=" M 723.92 606.84 C 725.16 606.54 726.26 606.83 727.23 607.71 C 725.78 608.50 724.67 608.21 723.92 606.84 Z" />
</g>
<g id="#00afa5ff">
<path fill="#00afa5" opacity="1.00" d=" M 754.84 616.83 C 756.68 616.26 758.53 615.74 760.41 615.31 C 766.21 615.83 772.10 615.01 777.83 616.27 C 774.02 619.78 768.67 618.81 763.96 618.91 C 760.85 618.73 757.22 619.29 754.84 616.83 Z" />
</g>
<g id="#00afa1ff">
<path fill="#00afa1" opacity="1.00" d=" M 794.48 616.41 C 795.82 616.13 797.17 615.80 798.56 615.69 C 804.06 616.28 809.60 616.11 815.12 616.51 C 813.78 617.30 812.49 618.36 810.90 618.54 C 805.37 619.06 799.37 619.61 794.48 616.41 Z" />
</g>
<g id="#2b505567">
<path fill="#2b5055" opacity="0.40" d=" M 2.23 631.13 C 2.42 630.87 2.80 630.33 2.98 630.07 C 2.84 631.68 2.78 633.31 2.71 634.94 C 3.28 634.87 4.42 634.74 4.99 634.67 C 4.68 635.08 4.07 635.91 3.76 636.32 C 3.26 636.05 2.25 635.49 1.75 635.21 C 1.88 633.84 2.04 632.48 2.23 631.13 Z" />
</g>
<g id="#005b7de9">
<path fill="#005b7d" opacity="0.91" d=" M 2.98 630.07 L 3.56 629.29 C 4.75 629.92 5.94 630.56 7.13 631.21 C 6.39 632.34 5.74 633.53 4.99 634.67 C 4.42 634.74 3.28 634.87 2.71 634.94 C 2.78 633.31 2.84 631.68 2.98 630.07 Z" />
</g>
<g id="#101b1e24">
<path fill="#101b1e" opacity="0.14" d=" M 0.00 633.97 C 0.44 634.28 1.31 634.90 1.75 635.21 C 2.25 635.49 3.26 636.05 3.76 636.32 C 2.53 637.11 1.25 637.81 0.00 638.59 L 0.00 633.97 Z" />
</g>
<g id="#00a4a6ff">
<path fill="#00a4a6" opacity="1.00" d=" M 403.82 683.11 C 408.20 685.15 412.60 687.62 415.46 691.65 C 417.83 695.55 423.20 695.45 425.76 699.17 C 428.54 703.12 433.69 703.70 437.13 706.82 C 441.11 710.27 445.78 712.79 449.88 716.08 C 452.79 718.49 456.58 719.24 459.76 721.18 C 462.17 722.65 464.50 724.27 466.91 725.76 C 466.62 726.38 466.04 727.60 465.76 728.21 C 462.19 726.43 458.63 724.54 455.68 721.81 C 454.62 721.66 453.57 721.52 452.52 721.38 C 451.32 720.24 450.12 719.12 449.00 717.92 C 448.43 717.77 447.27 717.47 446.69 717.32 C 441.85 712.92 435.35 710.82 430.99 705.84 C 425.68 704.75 423.35 699.17 418.60 697.14 C 414.59 695.35 411.94 691.68 408.73 688.84 C 406.88 687.12 405.20 685.22 403.82 683.11 Z" />
</g>
<g id="#388181a3">
<path fill="#388181" opacity="0.64" d=" M 446.69 717.32 C 447.27 717.47 448.43 717.77 449.00 717.92 C 448.43 717.77 447.27 717.47 446.69 717.32 Z" />
</g>
<g id="#00aaa7ff">
<path fill="#00aaa7" opacity="1.00" d=" M 467.83 728.95 C 468.42 728.44 469.61 727.42 470.20 726.91 C 475.39 728.04 479.43 731.82 484.21 733.94 C 501.43 741.54 519.05 748.54 537.40 752.82 C 541.54 755.17 546.48 754.31 550.86 756.00 C 550.81 756.64 550.71 757.92 550.65 758.56 C 550.17 758.65 549.21 758.81 548.72 758.90 C 536.95 756.44 525.51 752.72 514.02 749.24 C 510.55 748.38 507.60 746.13 504.07 745.48 C 499.40 744.48 495.50 741.53 490.95 740.20 C 486.89 739.07 483.14 737.12 479.51 735.04 C 479.10 733.43 478.10 732.94 476.51 733.56 C 475.59 733.06 474.68 732.56 473.80 732.04 C 472.51 729.91 469.87 729.86 467.83 728.95 Z" />
</g>
<g id="#429e9ec6">
<path fill="#429e9e" opacity="0.78" d=" M 476.51 733.56 C 478.10 732.94 479.10 733.43 479.51 735.04 C 478.28 734.99 477.29 734.49 476.51 733.56 Z" />
</g>
<g id="#00afaaff">
<path fill="#00afaa" opacity="1.00" d=" M 550.65 758.56 C 555.50 757.28 560.78 756.72 565.37 759.21 C 563.41 760.24 561.27 760.96 559.03 760.92 C 555.64 760.02 552.15 759.61 548.72 758.90 C 549.21 758.81 550.17 758.65 550.65 758.56 Z" />
</g>
<g id="#00a49eff">
<path fill="#00a49e" opacity="1.00" d=" M 565.62 762.21 C 570.49 758.76 576.72 760.60 582.08 761.60 C 580.93 762.45 579.77 763.28 578.65 764.16 C 574.28 763.63 569.90 763.27 565.62 762.21 Z" />
</g>
<g id="#00afa2ff">
<path fill="#00afa2" opacity="1.00" d=" M 697.93 762.43 C 703.07 759.39 710.02 759.12 715.22 762.18 C 710.29 763.49 705.16 763.44 700.16 764.27 C 699.60 763.81 698.49 762.89 697.93 762.43 Z" />
</g>
<g id="#0c736e9a">
<path fill="#0c736e" opacity="0.60" d=" M 654.84 766.82 C 662.37 767.19 669.87 765.84 677.39 766.42 L 678.37 766.52 C 675.80 766.68 673.23 766.86 670.67 766.93 C 667.88 767.37 663.32 765.45 662.19 769.00 L 655.84 769.00 C 655.59 768.46 655.09 767.37 654.84 766.82 Z" />
</g>
<g id="#254c495a">
<path fill="#254c49" opacity="0.35" d=" M 677.39 766.42 C 681.40 766.14 685.43 766.06 689.45 765.90 C 685.97 767.58 682.05 766.82 678.37 766.52 L 677.39 766.42 Z" />
</g>
<g id="#0c6c6891">
<path fill="#0c6c68" opacity="0.57" d=" M 617.12 766.83 C 620.71 767.01 624.31 766.53 627.89 766.89 C 628.42 767.42 629.50 768.47 630.03 769.00 L 615.32 769.00 C 615.77 768.46 616.67 767.37 617.12 766.83 Z" />
</g>
<g id="#095a5578">
<path fill="#095a55" opacity="0.47" d=" M 650.54 769.00 C 651.27 767.05 652.86 766.39 654.84 766.82 C 655.09 767.37 655.59 768.46 655.84 769.00 L 650.54 769.00 Z" />
</g>
<g id="#144c4860">
<path fill="#144c48" opacity="0.38" d=" M 662.19 769.00 C 663.32 765.45 667.88 767.37 670.67 766.93 C 672.72 768.99 675.76 768.80 678.44 769.00 L 662.19 769.00 Z" />
</g>
</svg>
