<?xml version="1.0" encoding="UTF-8" ?>
<!DOCTYPE svg PUBLIC "-//W3C//DTD SVG 1.1//EN" "http://www.w3.org/Graphics/SVG/1.1/DTD/svg11.dtd">
<svg width="1280pt" height="1280pt" viewBox="0 0 1280 1280" version="1.1" xmlns="http://www.w3.org/2000/svg">
<g id="#f89d22ff">
<path fill="#f89d22" opacity="1.00" d=" M 988.54 16.75 C 992.20 16.01 996.01 15.48 999.75 15.95 C 1000.69 16.42 1001.63 16.90 1002.58 17.40 C 1004.27 23.51 1003.27 29.95 1004.83 36.08 C 1006.47 40.79 1002.31 45.07 1003.08 49.84 C 1004.42 51.76 1006.31 53.23 1007.65 55.16 C 1008.14 58.34 1007.50 61.56 1007.69 64.76 C 1007.93 68.85 1011.50 71.84 1011.77 75.93 C 1012.44 79.63 1011.48 84.47 1015.01 86.97 C 1016.05 87.92 1017.18 88.80 1018.13 89.88 C 1019.10 92.28 1018.64 95.04 1019.62 97.45 C 1021.03 100.28 1023.70 102.61 1023.76 105.98 C 1023.76 110.60 1027.14 113.98 1029.62 117.52 C 1033.05 121.19 1039.41 122.59 1040.69 128.00 C 1041.38 134.55 1048.14 137.47 1051.10 142.84 C 1055.41 144.66 1058.61 148.49 1063.46 149.09 C 1062.58 153.70 1062.65 158.50 1061.03 162.95 C 1059.67 166.74 1059.06 170.72 1058.16 174.63 C 1055.69 172.13 1053.66 169.22 1050.98 166.93 C 1046.78 163.44 1044.11 158.52 1039.91 155.04 C 1037.57 152.83 1033.79 152.93 1031.85 150.22 C 1027.87 144.87 1022.32 140.98 1018.50 135.51 C 1017.27 133.60 1015.01 132.97 1013.07 132.08 C 1009.11 126.88 1004.43 122.14 1001.60 116.17 C 1000.10 112.62 996.31 110.91 994.48 107.59 C 993.12 105.03 990.99 102.73 988.05 102.14 C 986.30 102.89 984.73 104.00 982.95 104.66 C 980.63 104.11 978.48 102.60 976.02 102.95 C 973.22 103.11 970.91 104.83 968.66 106.31 C 971.07 106.22 973.48 106.08 975.90 105.94 C 975.89 106.60 975.85 107.92 975.84 108.58 C 975.40 108.80 974.53 109.24 974.10 109.46 C 970.46 107.14 967.24 110.49 964.91 113.00 C 963.69 113.89 962.46 114.76 961.23 115.61 C 958.84 115.16 956.40 114.67 953.97 114.88 C 951.44 115.45 949.63 117.48 947.66 119.00 C 938.80 117.17 933.96 108.85 927.92 102.98 C 923.45 98.90 924.14 92.09 920.38 87.54 C 917.97 84.90 918.88 81.22 918.18 78.03 C 917.33 73.80 915.62 69.81 914.37 65.69 C 915.03 63.67 917.66 62.74 919.12 61.21 C 926.79 54.43 935.30 48.73 943.23 42.29 C 957.53 32.47 971.98 22.35 988.54 16.75 Z" />
</g>
<g id="#ef8825ff">
<path fill="#ef8825" opacity="1.00" d=" M 999.75 15.95 C 1011.99 15.10 1021.64 23.62 1031.49 29.45 C 1032.88 30.50 1034.11 31.74 1035.42 32.91 C 1033.84 35.60 1032.72 38.55 1032.74 41.70 C 1034.23 43.27 1036.70 44.51 1036.76 46.95 C 1037.34 52.63 1037.16 58.34 1036.88 64.02 C 1036.51 67.80 1040.44 69.96 1041.39 73.31 C 1041.53 75.11 1041.21 76.91 1041.07 78.70 C 1041.64 78.25 1042.22 77.80 1042.81 77.35 C 1042.80 80.98 1042.83 84.79 1044.60 88.07 C 1045.89 91.00 1048.27 93.29 1049.57 96.21 C 1050.20 99.65 1049.49 103.23 1050.42 106.62 C 1051.33 109.44 1054.67 109.62 1056.84 111.00 C 1058.62 116.61 1061.75 121.96 1066.48 125.59 C 1066.22 133.50 1065.65 141.44 1063.46 149.09 C 1058.61 148.49 1055.41 144.66 1051.10 142.84 C 1048.14 137.47 1041.38 134.55 1040.69 128.00 C 1039.41 122.59 1033.05 121.19 1029.62 117.52 C 1027.14 113.98 1023.76 110.60 1023.76 105.98 C 1023.70 102.61 1021.03 100.28 1019.62 97.45 C 1018.64 95.04 1019.10 92.28 1018.13 89.88 C 1017.18 88.80 1016.05 87.92 1015.01 86.97 C 1011.48 84.47 1012.44 79.63 1011.77 75.93 C 1011.50 71.84 1007.93 68.85 1007.69 64.76 C 1007.50 61.56 1008.14 58.34 1007.65 55.16 C 1006.31 53.23 1004.42 51.76 1003.08 49.84 C 1002.31 45.07 1006.47 40.79 1004.83 36.08 C 1003.27 29.95 1004.27 23.51 1002.58 17.40 C 1001.63 16.90 1000.69 16.42 999.75 15.95 Z" />
</g>
<g id="#e97925ff">
<path fill="#e97925" opacity="1.00" d=" M 1035.42 32.91 C 1038.44 35.84 1041.05 39.14 1042.93 42.93 C 1049.21 51.23 1054.48 60.33 1058.43 69.97 C 1059.61 75.07 1063.06 79.54 1062.94 84.94 C 1062.76 89.48 1065.49 93.39 1065.86 97.84 C 1066.71 107.06 1066.75 116.34 1066.48 125.59 C 1061.75 121.96 1058.62 116.61 1056.84 111.00 C 1054.67 109.62 1051.33 109.44 1050.42 106.62 C 1049.49 103.23 1050.20 99.65 1049.57 96.21 C 1048.27 93.29 1045.89 91.00 1044.60 88.07 C 1042.83 84.79 1042.80 80.98 1042.81 77.35 C 1042.22 77.80 1041.64 78.25 1041.07 78.70 C 1041.21 76.91 1041.53 75.11 1041.39 73.31 C 1040.44 69.96 1036.51 67.80 1036.88 64.02 C 1037.16 58.34 1037.34 52.63 1036.76 46.95 C 1036.70 44.51 1034.23 43.27 1032.74 41.70 C 1032.72 38.55 1033.84 35.60 1035.42 32.91 Z" />
</g>
<g id="#ffb121ff">
<path fill="#ffb121" opacity="1.00" d=" M 914.21 65.18 L 914.37 65.69 C 915.62 69.81 917.33 73.80 918.18 78.03 C 918.88 81.22 917.97 84.90 920.38 87.54 C 924.14 92.09 923.45 98.90 927.92 102.98 C 933.96 108.85 938.80 117.17 947.66 119.00 C 949.63 117.48 951.44 115.45 953.97 114.88 C 956.40 114.67 958.84 115.16 961.23 115.61 C 961.71 115.71 962.67 115.93 963.15 116.04 C 962.57 116.15 961.41 116.38 960.82 116.49 C 958.99 118.11 957.19 119.76 955.31 121.32 C 949.76 126.07 944.44 131.09 939.07 136.06 C 934.50 132.62 929.54 129.61 925.71 125.30 C 921.41 120.51 917.32 115.49 913.90 110.03 C 912.42 107.62 910.21 105.83 908.45 103.66 C 907.32 98.85 907.50 93.78 905.96 89.04 C 904.47 84.52 902.85 80.05 901.76 75.42 C 905.80 71.88 909.97 68.48 914.21 65.18 Z" />
</g>
<g id="#ffc11fff">
<path fill="#ffc11f" opacity="1.00" d=" M 888.62 86.33 C 892.75 82.39 897.32 78.99 901.76 75.42 C 902.85 80.05 904.47 84.52 905.96 89.04 C 907.50 93.78 907.32 98.85 908.45 103.66 C 910.21 105.83 912.42 107.62 913.90 110.03 C 917.32 115.49 921.41 120.51 925.71 125.30 C 929.54 129.61 934.50 132.62 939.07 136.06 C 934.54 140.24 930.11 144.53 925.63 148.77 C 926.02 147.57 926.39 146.35 926.77 145.13 C 916.21 137.38 907.56 127.03 901.71 115.32 C 900.70 113.38 899.28 111.72 897.85 110.09 C 895.46 107.70 896.09 103.97 895.06 100.97 C 894.41 97.76 891.52 95.71 890.60 92.63 C 889.86 90.55 889.27 88.43 888.62 86.33 Z" />
</g>
<g id="#ffd21dff">
<path fill="#ffd21d" opacity="1.00" d=" M 878.94 95.12 C 882.41 92.47 885.50 89.38 888.62 86.33 C 889.27 88.43 889.86 90.55 890.60 92.63 C 891.52 95.71 894.41 97.76 895.06 100.97 C 896.09 103.97 895.46 107.70 897.85 110.09 C 899.28 111.72 900.70 113.38 901.71 115.32 C 907.56 127.03 916.21 137.38 926.77 145.13 C 926.39 146.35 926.02 147.57 925.63 148.77 C 923.48 151.81 920.27 153.97 917.91 156.87 L 917.71 156.71 C 914.69 154.67 912.51 151.65 909.45 149.68 C 908.29 148.80 906.92 148.12 906.19 146.83 C 902.33 139.61 897.14 133.23 892.24 126.71 C 888.63 123.16 888.40 117.87 886.70 113.37 C 884.77 107.07 880.34 101.84 879.00 95.32 L 878.94 95.12 Z" />
</g>
<g id="#ffe51bff">
<path fill="#ffe51b" opacity="1.00" d=" M 868.89 103.61 C 872.41 101.04 875.69 98.17 879.00 95.32 C 880.34 101.84 884.77 107.07 886.70 113.37 C 888.40 117.87 888.63 123.16 892.24 126.71 C 897.14 133.23 902.33 139.61 906.19 146.83 C 906.92 148.12 908.29 148.80 909.45 149.68 C 912.51 151.65 914.69 154.67 917.71 156.71 C 914.57 160.10 910.91 162.96 907.96 166.52 L 907.84 166.40 C 901.65 160.55 896.81 153.46 890.82 147.41 C 888.36 150.98 888.88 155.40 889.50 159.44 C 884.37 148.72 882.14 136.96 878.12 125.83 C 875.28 118.33 873.39 110.36 868.89 103.61 Z" />
</g>
<g id="#ffb221ff">
<path fill="#ffb221" opacity="1.00" d=" M 982.95 104.66 C 984.73 104.00 986.30 102.89 988.05 102.14 C 990.99 102.73 993.12 105.03 994.48 107.59 C 996.31 110.91 1000.10 112.62 1001.60 116.17 C 1004.43 122.14 1009.11 126.88 1013.07 132.08 C 1015.01 132.97 1017.27 133.60 1018.50 135.51 C 1022.32 140.98 1027.87 144.87 1031.85 150.22 C 1033.79 152.93 1037.57 152.83 1039.91 155.04 C 1044.11 158.52 1046.78 163.44 1050.98 166.93 C 1053.66 169.22 1055.69 172.13 1058.16 174.63 C 1056.99 178.71 1055.46 182.67 1054.37 186.78 C 1047.91 186.42 1041.47 187.27 1035.03 187.32 C 1027.47 187.64 1019.92 189.08 1012.37 187.77 C 1016.28 185.64 1020.88 186.28 1025.12 185.38 C 1028.85 184.54 1032.79 183.94 1036.13 181.95 C 1036.33 180.74 1035.97 179.76 1035.03 179.02 C 1032.56 176.69 1029.28 175.51 1026.69 173.35 C 1024.04 170.99 1022.12 167.92 1019.47 165.57 C 1017.44 163.77 1014.88 162.78 1012.65 161.29 C 1007.92 158.13 1005.07 152.83 1000.33 149.72 C 994.02 148.06 987.61 145.94 981.00 146.75 C 975.55 146.37 970.32 147.82 965.24 149.61 C 958.64 152.47 951.48 151.06 944.64 150.19 C 942.96 149.89 942.27 148.08 941.42 146.85 L 941.09 146.31 C 947.55 139.94 953.45 132.94 960.02 126.70 C 965.88 122.00 970.17 115.77 974.10 109.46 C 974.53 109.24 975.40 108.80 975.84 108.58 C 975.85 107.92 975.89 106.60 975.90 105.94 C 973.48 106.08 971.07 106.22 968.66 106.31 C 970.91 104.83 973.22 103.11 976.02 102.95 C 978.48 102.60 980.63 104.11 982.95 104.66 Z" />
</g>
<g id="#f39720ff">
<path fill="#f39720" opacity="1.00" d=" M 868.13 104.76 C 868.32 104.48 868.70 103.90 868.89 103.61 C 873.39 110.36 875.28 118.33 878.12 125.83 C 882.14 136.96 884.37 148.72 889.50 159.44 C 892.40 165.54 893.69 172.25 896.75 178.29 C 895.88 179.12 895.00 179.94 894.16 180.78 C 889.77 169.19 888.03 156.64 882.16 145.59 C 876.98 132.16 872.38 118.51 868.13 104.76 Z" />
</g>
<g id="#d54529ff">
<path fill="#d54529" opacity="1.00" d=" M 857.91 113.98 C 861.33 110.93 864.66 107.77 868.13 104.76 C 872.38 118.51 876.98 132.16 882.16 145.59 C 882.33 150.81 885.06 155.49 885.42 160.66 C 885.63 162.78 883.30 163.85 882.14 165.28 C 877.66 160.58 875.68 154.26 871.98 149.03 C 869.38 145.43 868.63 140.98 867.00 136.94 C 864.06 129.25 860.94 121.63 857.91 113.98 Z" />
</g>
<g id="#be7d19c0">
<path fill="#be7d19" opacity="0.75" d=" M 964.91 113.00 C 967.24 110.49 970.46 107.14 974.10 109.46 C 970.17 115.77 965.88 122.00 960.02 126.70 L 959.05 127.25 C 960.93 124.30 963.29 121.71 965.53 119.03 C 967.31 117.12 968.56 114.81 969.03 112.23 C 967.64 112.47 966.26 112.71 964.91 113.00 Z" />
</g>
<g id="#4c32094d">
<path fill="#4c3209" opacity="0.30" d=" M 964.91 113.00 C 966.26 112.71 967.64 112.47 969.03 112.23 C 968.56 114.81 967.31 117.12 965.53 119.03 C 965.27 117.55 965.01 115.95 963.15 116.04 C 962.67 115.93 961.71 115.71 961.23 115.61 C 962.46 114.76 963.69 113.89 964.91 113.00 Z" />
</g>
<g id="#dd5a2aff">
<path fill="#dd5a2a" opacity="1.00" d=" M 850.06 121.08 C 852.63 118.67 855.31 116.38 857.91 113.98 C 860.94 121.63 864.06 129.25 867.00 136.94 C 868.63 140.98 869.38 145.43 871.98 149.03 C 875.68 154.26 877.66 160.58 882.14 165.28 C 883.30 163.85 885.63 162.78 885.42 160.66 C 885.06 155.49 882.33 150.81 882.16 145.59 C 888.03 156.64 889.77 169.19 894.16 180.78 C 891.58 183.34 889.01 185.91 886.72 188.73 C 880.75 196.29 873.18 202.40 867.38 210.10 C 861.90 218.23 854.33 224.60 848.25 232.25 C 843.12 238.75 836.87 244.33 832.25 251.24 C 829.13 255.90 825.28 260.00 821.39 264.01 C 818.82 263.37 816.21 262.25 813.52 262.79 C 811.59 262.94 809.24 263.96 807.64 262.37 C 805.60 260.48 803.37 258.78 800.57 258.29 C 800.33 258.82 799.85 259.88 799.61 260.42 C 795.88 259.01 792.04 257.94 788.20 256.88 C 787.95 257.01 787.44 257.25 787.19 257.38 C 785.86 256.31 784.82 254.49 782.93 254.49 C 780.91 254.15 779.32 255.58 777.77 256.61 C 772.60 254.43 767.25 251.85 763.85 247.20 C 762.66 245.94 761.89 243.96 760.00 243.67 C 758.24 243.04 755.69 243.12 755.16 240.88 C 754.03 237.42 752.09 234.33 749.05 232.23 C 750.43 231.57 751.79 230.91 753.18 230.25 C 751.85 228.00 749.76 226.42 747.63 225.00 C 752.46 219.45 757.71 214.28 762.63 208.80 C 767.85 210.84 769.87 216.90 775.10 218.85 C 778.75 220.30 782.79 219.69 786.57 220.58 C 789.09 221.42 791.03 223.36 793.09 224.97 C 797.25 223.82 801.23 222.00 805.53 221.36 C 806.86 223.04 808.45 224.50 810.46 225.34 C 810.79 223.83 811.13 222.32 811.48 220.82 C 813.01 221.33 814.55 221.84 816.10 222.36 C 818.76 221.48 821.35 220.14 824.17 219.87 C 825.66 220.91 826.79 222.39 828.22 223.53 C 829.84 223.63 831.38 222.97 832.94 222.57 C 834.18 223.06 835.42 223.55 836.68 224.05 C 836.56 223.01 836.45 221.98 836.35 220.95 C 837.13 220.29 837.92 219.64 838.73 218.99 C 838.55 218.08 838.39 217.18 838.23 216.27 C 839.14 216.33 840.06 216.40 840.98 216.46 C 840.43 215.10 839.89 213.74 839.35 212.39 C 840.44 212.12 841.53 211.86 842.64 211.61 C 842.52 210.40 842.41 209.19 842.32 207.99 C 843.37 208.66 844.42 209.33 845.50 210.01 C 845.46 208.64 845.42 207.27 845.41 205.91 C 847.48 207.27 849.22 209.05 850.58 211.13 C 850.16 212.37 849.75 213.62 849.36 214.88 C 850.05 215.63 850.75 216.38 851.46 217.13 C 851.96 215.00 853.20 212.73 852.41 210.52 C 850.56 207.46 848.03 204.88 845.95 201.98 C 848.08 201.61 850.26 201.37 852.29 200.57 C 853.38 197.99 853.22 195.05 854.49 192.54 C 855.68 191.38 857.36 190.95 858.83 190.21 C 857.88 188.50 856.95 186.79 856.04 185.07 C 857.55 183.50 859.32 182.08 860.44 180.17 C 861.11 177.90 860.66 175.47 860.67 173.14 C 861.65 173.23 862.65 173.32 863.66 173.42 C 863.77 168.18 861.91 163.15 862.00 157.92 C 862.05 154.20 860.59 150.71 859.81 147.13 C 859.16 144.52 858.76 141.83 857.78 139.32 C 856.70 136.55 854.03 134.93 852.32 132.61 C 851.39 128.79 851.93 124.68 850.06 121.08 Z" />
</g>
<g id="#e26527ff">
<path fill="#e26527" opacity="1.00" d=" M 839.09 131.40 C 842.84 128.07 846.25 124.36 850.06 121.08 C 851.93 124.68 851.39 128.79 852.32 132.61 C 854.03 134.93 856.70 136.55 857.78 139.32 C 858.76 141.83 859.16 144.52 859.81 147.13 C 860.59 150.71 862.05 154.20 862.00 157.92 C 861.91 163.15 863.77 168.18 863.66 173.42 C 862.65 173.32 861.65 173.23 860.67 173.14 C 860.66 175.47 861.11 177.90 860.44 180.17 C 859.32 182.08 857.55 183.50 856.04 185.07 C 856.95 186.79 857.88 188.50 858.83 190.21 C 857.36 190.95 855.68 191.38 854.49 192.54 C 853.22 195.05 853.38 197.99 852.29 200.57 C 850.26 201.37 848.08 201.61 845.95 201.98 C 848.03 204.88 850.56 207.46 852.41 210.52 C 853.20 212.73 851.96 215.00 851.46 217.13 C 850.75 216.38 850.05 215.63 849.36 214.88 C 849.75 213.62 850.16 212.37 850.58 211.13 C 849.22 209.05 847.48 207.27 845.41 205.91 C 845.42 207.27 845.46 208.64 845.50 210.01 C 844.42 209.33 843.37 208.66 842.32 207.99 C 842.41 209.19 842.52 210.40 842.64 211.61 C 841.53 211.86 840.44 212.12 839.35 212.39 C 839.89 213.74 840.43 215.10 840.98 216.46 C 840.06 216.40 839.14 216.33 838.23 216.27 C 838.39 217.18 838.55 218.08 838.73 218.99 C 837.92 219.64 837.13 220.29 836.35 220.95 C 836.45 221.98 836.56 223.01 836.68 224.05 C 835.42 223.55 834.18 223.06 832.94 222.57 C 831.38 222.97 829.84 223.63 828.22 223.53 C 826.79 222.39 825.66 220.91 824.17 219.87 C 821.35 220.14 818.76 221.48 816.10 222.36 C 814.55 221.84 813.01 221.33 811.48 220.82 C 811.13 222.32 810.79 223.83 810.46 225.34 C 808.45 224.50 806.86 223.04 805.53 221.36 C 801.23 222.00 797.25 223.82 793.09 224.97 C 791.03 223.36 789.09 221.42 786.57 220.58 C 782.79 219.69 778.75 220.30 775.10 218.85 C 769.87 216.90 767.85 210.84 762.63 208.80 C 772.27 198.05 782.52 187.85 792.57 177.47 C 793.25 178.23 793.94 178.98 794.64 179.74 C 794.82 179.27 795.16 178.32 795.34 177.85 C 800.80 178.75 806.48 178.90 811.94 177.92 C 815.91 177.31 817.17 172.91 819.78 170.41 C 820.73 170.76 821.71 171.10 822.68 171.45 C 822.64 169.29 822.65 167.12 822.73 164.96 C 823.70 166.32 824.67 167.69 825.64 169.07 C 825.82 167.73 826.02 166.40 826.24 165.07 C 830.97 163.21 833.92 158.80 837.92 155.86 C 838.02 154.33 838.13 152.81 838.25 151.29 C 838.87 151.90 839.50 152.50 840.15 153.11 C 840.81 148.77 841.68 144.47 842.53 140.17 C 841.90 137.13 840.26 134.42 839.16 131.55 L 839.09 131.40 Z" />
</g>
<g id="#e57324ff">
<path fill="#e57324" opacity="1.00" d=" M 792.57 177.47 C 807.97 162.04 823.22 146.44 839.16 131.55 C 840.26 134.42 841.90 137.13 842.53 140.17 C 841.68 144.47 840.81 148.77 840.15 153.11 C 839.50 152.50 838.87 151.90 838.25 151.29 C 838.13 152.81 838.02 154.33 837.92 155.86 C 833.92 158.80 830.97 163.21 826.24 165.07 C 826.02 166.40 825.82 167.73 825.64 169.07 C 824.67 167.69 823.70 166.32 822.73 164.96 C 822.65 167.12 822.64 169.29 822.68 171.45 C 821.71 171.10 820.73 170.76 819.78 170.41 C 817.17 172.91 815.91 177.31 811.94 177.92 C 806.48 178.90 800.80 178.75 795.34 177.85 C 795.16 178.32 794.82 179.27 794.64 179.74 C 793.94 178.98 793.25 178.23 792.57 177.47 Z" />
</g>
<g id="#ffcc1eff">
<path fill="#ffcc1e" opacity="1.00" d=" M 981.00 146.75 C 987.61 145.94 994.02 148.06 1000.33 149.72 C 1005.07 152.83 1007.92 158.13 1012.65 161.29 C 1014.88 162.78 1017.44 163.77 1019.47 165.57 C 1022.12 167.92 1024.04 170.99 1026.69 173.35 C 1029.28 175.51 1032.56 176.69 1035.03 179.02 C 1035.97 179.76 1036.33 180.74 1036.13 181.95 C 1032.79 183.94 1028.85 184.54 1025.12 185.38 C 1020.88 186.28 1016.28 185.64 1012.37 187.77 C 1004.91 187.91 997.46 188.62 990.00 188.22 C 977.52 187.32 965.01 187.60 952.52 187.56 C 952.14 187.57 951.40 187.58 951.02 187.59 C 952.43 187.15 953.87 186.71 955.29 186.22 C 956.73 185.71 958.13 185.08 959.55 184.45 C 973.41 184.01 987.21 185.80 1001.08 185.11 C 1004.73 184.91 1007.94 182.99 1010.88 180.97 C 1007.63 179.14 1004.31 177.33 1000.69 176.36 C 996.04 175.13 991.16 176.47 986.51 175.28 C 982.09 174.18 977.69 172.28 973.04 172.88 C 969.73 173.34 966.51 174.24 963.21 174.65 C 963.53 173.42 963.82 172.18 964.08 170.94 C 964.73 167.49 965.04 163.99 965.34 160.49 C 966.57 160.16 967.81 159.83 969.06 159.50 C 968.81 155.88 967.60 152.40 965.24 149.61 C 970.32 147.82 975.55 146.37 981.00 146.75 Z" />
</g>
<g id="#f7c81df7">
<path fill="#f7c81d" opacity="0.97" d=" M 929.98 157.83 C 933.98 154.37 937.32 150.20 941.42 146.85 C 942.27 148.08 942.96 149.89 944.64 150.19 C 951.48 151.06 958.64 152.47 965.24 149.61 C 967.60 152.40 968.81 155.88 969.06 159.50 C 967.81 159.83 966.57 160.16 965.34 160.49 C 965.04 163.99 964.73 167.49 964.08 170.94 C 960.99 170.54 957.83 170.49 954.98 171.91 C 951.04 173.91 947.02 171.24 943.51 169.58 C 940.35 167.85 936.56 166.89 934.23 163.97 C 932.66 162.04 931.38 159.89 929.98 157.83 Z" />
</g>
<g id="#fffa19ff">
<path fill="#fffa19" opacity="1.00" d=" M 889.50 159.44 C 888.88 155.40 888.36 150.98 890.82 147.41 C 896.81 153.46 901.65 160.55 907.84 166.40 C 904.51 170.69 900.63 174.50 896.75 178.29 C 893.69 172.25 892.40 165.54 889.50 159.44 Z" />
</g>
<g id="#f5db1af5">
<path fill="#f5db1a" opacity="0.96" d=" M 920.41 168.52 C 922.98 164.44 926.62 161.24 929.98 157.83 C 931.38 159.89 932.66 162.04 934.23 163.97 C 936.56 166.89 940.35 167.85 943.51 169.58 C 947.02 171.24 951.04 173.91 954.98 171.91 C 957.83 170.49 960.99 170.54 964.08 170.94 C 963.82 172.18 963.53 173.42 963.21 174.65 C 960.71 176.79 958.31 179.15 957.37 182.40 C 957.92 182.91 959.00 183.94 959.55 184.45 C 958.13 185.08 956.73 185.71 955.29 186.22 C 945.22 185.18 935.09 185.46 924.99 185.40 C 919.18 185.44 913.32 185.71 907.62 184.39 C 911.91 183.33 916.32 183.28 920.71 183.43 C 924.59 183.52 928.13 181.67 930.83 178.98 C 928.49 175.50 925.96 172.12 924.09 168.35 C 922.86 168.41 921.61 168.46 920.41 168.52 Z" />
</g>
<g id="#fdf119fd">
<path fill="#fdf119" opacity="1.00" d=" M 920.41 168.52 C 921.61 168.46 922.86 168.41 924.09 168.35 C 925.96 172.12 928.49 175.50 930.83 178.98 C 928.13 181.67 924.59 183.52 920.71 183.43 C 916.32 183.28 911.91 183.33 907.62 184.39 C 907.21 184.40 906.39 184.40 905.98 184.40 C 910.31 178.80 915.83 174.22 920.08 168.54 L 920.41 168.52 Z" />
</g>
<g id="#ffe41cff">
<path fill="#ffe41c" opacity="1.00" d=" M 963.21 174.65 C 966.51 174.24 969.73 173.34 973.04 172.88 C 977.69 172.28 982.09 174.18 986.51 175.28 C 991.16 176.47 996.04 175.13 1000.69 176.36 C 1004.31 177.33 1007.63 179.14 1010.88 180.97 C 1007.94 182.99 1004.73 184.91 1001.08 185.11 C 987.21 185.80 973.41 184.01 959.55 184.45 C 959.00 183.94 957.92 182.91 957.37 182.40 C 958.31 179.15 960.71 176.79 963.21 174.65 Z" />
</g>
<g id="#e88f1def">
<path fill="#e88f1d" opacity="0.94" d=" M 905.98 184.40 C 906.39 184.40 907.21 184.40 907.62 184.39 C 913.32 185.71 919.18 185.44 924.99 185.40 C 935.09 185.46 945.22 185.18 955.29 186.22 C 953.87 186.71 952.43 187.15 951.02 187.59 C 951.40 187.58 952.14 187.57 952.52 187.56 L 953.35 188.59 C 945.54 188.30 937.68 188.95 929.91 187.94 C 927.74 187.67 925.56 187.67 923.40 187.83 C 917.27 187.39 911.13 186.88 905.00 186.41 L 903.92 186.30 C 904.43 185.82 905.46 184.88 905.98 184.40 Z" />
</g>
<g id="#ee8723ff">
<path fill="#ee8723" opacity="1.00" d=" M 1035.03 187.32 C 1041.47 187.27 1047.91 186.42 1054.37 186.78 C 1054.03 188.02 1053.70 189.26 1053.38 190.51 C 1042.92 189.37 1032.46 190.62 1021.99 190.43 C 1010.97 190.33 999.96 190.38 988.94 190.30 C 979.44 189.79 969.90 189.23 960.41 190.14 C 958.04 189.68 955.69 189.13 953.35 188.59 L 952.52 187.56 C 965.01 187.60 977.52 187.32 990.00 188.22 C 997.46 188.62 1004.91 187.91 1012.37 187.77 C 1019.92 189.08 1027.47 187.64 1035.03 187.32 Z" />
</g>
<g id="#e05f29ff">
<path fill="#e05f29" opacity="1.00" d=" M 890.34 201.38 C 895.33 196.76 900.22 191.96 904.09 186.34 L 905.00 186.41 C 911.13 186.88 917.27 187.39 923.40 187.83 C 918.51 189.66 912.12 187.13 908.40 191.55 C 909.38 192.45 910.40 193.35 911.40 194.26 C 910.60 197.09 910.26 200.07 911.26 202.90 C 910.87 203.92 910.49 204.94 910.13 205.97 C 910.89 206.97 911.76 207.92 912.35 209.07 C 911.69 214.02 909.48 219.32 912.41 224.01 C 913.26 223.50 914.11 223.01 914.98 222.51 C 916.84 222.84 918.91 223.91 920.71 222.77 C 924.18 221.00 926.91 218.15 930.13 216.02 C 932.05 214.64 934.54 214.70 936.61 213.67 C 938.47 212.35 939.90 210.54 941.55 208.97 C 946.19 210.89 951.59 210.29 955.90 213.05 C 959.19 215.25 963.34 213.84 966.97 214.98 C 974.91 217.13 983.11 217.85 991.28 218.48 C 995.74 218.75 999.74 220.87 1004.03 221.88 C 1007.01 221.20 1009.85 219.77 1012.99 219.92 C 1018.24 219.65 1023.55 221.21 1028.75 219.93 C 1033.22 218.90 1037.79 218.40 1042.36 217.87 C 1040.46 221.98 1038.55 226.09 1036.53 230.14 C 1031.28 229.89 1026.17 231.93 1020.94 231.17 C 1015.96 230.59 1010.92 231.28 1005.99 230.31 C 1002.61 229.55 999.19 230.19 996.18 231.80 C 991.10 226.08 982.66 228.64 975.98 228.16 C 971.71 228.70 968.96 224.55 964.98 224.09 C 962.61 224.49 960.44 225.60 958.09 226.07 C 955.48 226.16 952.92 225.51 950.38 225.06 C 950.79 226.00 951.21 226.93 951.65 227.87 C 949.79 227.63 947.93 227.39 946.09 227.15 C 945.38 231.08 943.28 234.48 940.96 237.65 C 942.44 237.82 943.94 238.00 945.45 238.17 C 944.51 241.37 945.11 244.64 945.13 247.89 C 944.12 247.14 943.17 246.34 942.23 245.54 C 942.08 245.95 941.78 246.77 941.63 247.18 C 941.23 247.31 940.43 247.57 940.03 247.70 C 940.52 248.65 941.03 249.61 941.55 250.57 C 939.38 251.17 937.22 251.79 935.07 252.43 C 932.44 251.03 929.72 249.77 926.79 249.18 C 929.92 252.73 933.25 256.18 937.42 258.53 C 940.79 260.28 941.32 264.47 941.84 267.84 C 942.55 268.63 943.27 269.42 944.02 270.21 C 943.71 270.60 943.11 271.37 942.81 271.76 C 940.59 270.97 938.38 270.18 936.18 269.40 C 935.82 269.80 935.11 270.59 934.75 270.99 C 937.28 272.29 940.40 273.08 942.00 275.65 C 942.90 276.91 943.71 278.23 944.57 279.53 C 944.26 280.20 943.97 280.87 943.69 281.54 C 942.56 281.59 941.45 281.65 940.35 281.71 C 940.69 285.22 941.94 288.79 940.75 292.27 C 941.67 292.40 942.60 292.54 943.54 292.68 C 945.04 296.47 946.97 300.06 949.28 303.41 C 947.48 303.30 945.69 303.19 943.91 303.08 C 944.48 304.40 945.06 305.73 945.65 307.06 C 943.88 306.77 942.13 306.49 940.38 306.21 C 940.84 307.88 941.30 309.54 941.77 311.21 C 941.11 311.51 940.45 311.82 939.81 312.13 C 941.05 312.59 942.30 313.06 943.57 313.53 C 944.84 317.91 946.51 323.29 943.24 327.27 C 939.82 328.20 936.08 327.32 932.79 328.70 C 930.44 330.94 934.87 330.13 936.08 329.55 C 934.63 331.59 932.80 333.93 934.03 336.54 C 931.81 339.47 929.88 342.93 926.39 344.54 C 922.24 346.71 918.82 350.10 914.35 351.68 C 915.52 352.67 916.71 353.68 917.89 354.69 C 916.03 354.83 914.19 354.98 912.35 355.12 C 912.79 355.73 913.25 356.35 913.71 356.97 C 911.98 357.40 910.26 357.83 908.54 358.27 C 908.93 358.84 909.32 359.42 909.73 360.01 C 908.01 361.16 906.31 362.31 904.61 363.47 C 904.92 363.86 905.24 364.26 905.58 364.67 C 903.76 365.08 901.76 365.06 900.14 366.03 C 898.41 367.97 897.58 370.52 895.96 372.52 C 894.30 373.01 892.58 373.12 890.90 373.38 C 890.71 373.67 890.33 374.27 890.14 374.57 C 888.33 374.93 886.48 375.14 884.78 375.81 C 883.44 376.65 882.86 378.25 882.00 379.51 C 878.29 380.17 875.29 382.48 872.00 384.11 C 868.96 385.61 867.40 388.98 864.32 390.45 C 860.27 392.96 854.73 394.37 853.12 399.42 C 848.08 401.93 844.01 406.31 838.38 407.54 C 834.29 408.47 830.18 410.76 828.31 414.66 C 831.43 417.48 835.89 416.90 839.75 417.67 C 845.57 418.91 851.55 419.06 857.39 420.19 L 857.22 421.61 L 855.27 421.40 C 836.42 419.76 817.35 420.16 798.77 416.13 C 794.17 414.98 789.34 415.03 784.86 413.38 C 781.46 412.13 777.81 413.23 774.34 412.62 C 772.71 411.57 771.63 409.90 770.44 408.44 C 772.54 408.73 774.60 409.30 776.62 409.98 C 776.84 408.80 777.06 407.63 777.29 406.46 C 779.77 407.08 782.26 407.67 784.77 408.22 C 783.86 407.14 782.95 406.07 782.05 405.00 C 784.67 405.47 787.31 405.93 789.95 406.38 C 788.86 405.32 787.78 404.26 786.70 403.21 C 789.02 403.47 791.34 403.74 793.67 404.02 C 793.21 403.08 792.77 402.16 792.33 401.23 C 793.73 401.10 795.14 400.98 796.56 400.87 C 795.98 400.04 795.41 399.22 794.84 398.41 C 797.44 398.55 800.02 398.77 802.61 399.05 C 802.23 398.44 801.85 397.82 801.49 397.21 C 803.63 397.03 805.79 396.85 807.95 396.67 C 806.91 396.18 805.89 395.70 804.87 395.22 C 807.90 395.07 810.93 394.90 813.96 394.71 C 813.34 394.44 812.09 393.89 811.47 393.62 C 811.91 392.36 812.35 391.11 812.80 389.85 C 813.70 389.55 814.62 389.25 815.54 388.95 C 815.46 388.17 815.39 387.41 815.33 386.65 C 816.01 386.55 816.71 386.46 817.41 386.37 C 819.62 383.84 822.77 385.41 825.57 385.45 C 826.12 384.81 826.59 384.10 827.10 383.42 C 827.77 383.14 828.46 382.87 829.16 382.61 C 830.07 379.77 830.93 376.93 831.78 374.08 C 834.53 374.56 837.33 374.79 840.14 374.83 C 837.47 373.96 834.78 373.00 832.72 371.04 C 836.10 371.40 839.41 372.25 842.67 373.23 C 842.28 372.56 841.90 371.90 841.53 371.24 C 843.72 370.77 845.91 370.25 848.08 369.66 C 847.41 369.46 846.07 369.04 845.39 368.84 C 848.87 367.05 850.76 363.13 854.92 362.48 C 855.86 359.97 858.41 360.37 860.61 360.49 C 860.59 359.67 860.58 358.85 860.58 358.04 C 861.44 357.53 862.32 357.03 863.21 356.54 C 863.15 355.05 863.07 353.56 863.17 352.07 C 864.38 351.17 865.79 350.57 867.15 349.90 C 866.14 349.40 865.15 348.90 864.16 348.40 C 864.39 348.19 864.85 347.77 865.07 347.56 C 866.42 347.65 867.77 347.74 869.14 347.83 C 869.83 346.38 870.54 344.93 871.29 343.50 C 870.85 342.89 870.42 342.28 870.01 341.67 C 871.09 341.53 872.18 341.39 873.29 341.26 C 873.34 340.30 873.39 339.34 873.47 338.39 C 875.51 338.53 877.65 338.61 879.47 337.46 C 878.08 336.81 876.70 336.20 875.31 335.59 C 876.02 335.24 876.73 334.88 877.46 334.53 C 877.81 333.52 878.16 332.51 878.53 331.51 C 878.99 331.34 879.91 331.01 880.36 330.85 C 877.96 327.97 877.34 324.26 877.34 320.62 C 875.03 317.16 869.84 316.53 868.63 312.36 C 870.36 312.51 872.10 312.69 873.85 312.88 C 872.29 309.37 870.61 305.93 868.80 302.55 C 867.78 303.70 866.78 304.86 865.78 306.02 C 860.73 303.03 856.78 298.22 851.03 296.52 C 848.87 295.73 847.03 294.25 844.81 293.66 C 842.14 293.11 839.39 293.33 836.69 293.31 C 836.61 294.62 836.52 295.93 836.46 297.25 C 834.61 295.71 832.84 294.09 831.15 292.40 C 832.50 292.48 833.85 292.58 835.22 292.68 C 834.76 291.34 834.33 290.02 833.88 288.69 C 831.08 288.64 828.29 288.38 825.50 288.33 C 824.43 289.48 823.46 290.76 822.15 291.65 C 820.75 291.34 819.40 290.82 818.07 290.36 C 821.84 284.24 827.17 279.31 831.22 273.39 C 834.74 269.16 837.43 264.25 841.38 260.38 C 848.56 253.07 853.66 244.02 860.80 236.68 C 865.57 231.78 869.09 225.84 873.99 221.06 C 880.07 215.04 884.35 207.47 890.34 201.38 Z" />
</g>
<g id="#d35725f7">
<path fill="#d35725" opacity="0.97" d=" M 923.40 187.83 C 925.56 187.67 927.74 187.67 929.91 187.94 C 937.68 188.95 945.54 188.30 953.35 188.59 C 955.69 189.13 958.04 189.68 960.41 190.14 C 958.70 190.42 956.99 190.74 955.30 191.03 C 945.95 189.24 936.39 189.83 926.94 189.86 C 924.28 189.58 922.37 191.49 920.55 193.09 C 924.52 195.52 928.76 197.68 933.38 198.59 C 937.12 199.23 940.97 199.05 944.71 199.85 C 945.64 200.63 946.57 201.42 947.50 202.23 C 946.16 205.00 943.70 206.88 941.55 208.97 C 939.90 210.54 938.47 212.35 936.61 213.67 C 934.54 214.70 932.05 214.64 930.13 216.02 C 926.91 218.15 924.18 221.00 920.71 222.77 C 918.91 223.91 916.84 222.84 914.98 222.51 C 914.11 223.01 913.26 223.50 912.41 224.01 C 909.48 219.32 911.69 214.02 912.35 209.07 C 911.76 207.92 910.89 206.97 910.13 205.97 C 910.49 204.94 910.87 203.92 911.26 202.90 C 910.26 200.07 910.60 197.09 911.40 194.26 C 910.40 193.35 909.38 192.45 908.40 191.55 C 912.12 187.13 918.51 189.66 923.40 187.83 Z" />
</g>
<g id="#c74026f3">
<path fill="#c74026" opacity="0.95" d=" M 920.55 193.09 C 922.37 191.49 924.28 189.58 926.94 189.86 C 936.39 189.83 945.95 189.24 955.30 191.03 C 953.72 191.81 952.08 192.53 950.78 193.73 C 950.52 194.85 950.43 196.01 950.31 197.15 C 948.37 197.88 946.50 198.82 944.71 199.85 C 940.97 199.05 937.12 199.23 933.38 198.59 C 928.76 197.68 924.52 195.52 920.55 193.09 Z" />
</g>
<g id="#d2402aff">
<path fill="#d2402a" opacity="1.00" d=" M 960.41 190.14 C 969.90 189.23 979.44 189.79 988.94 190.30 C 999.96 190.38 1010.97 190.33 1021.99 190.43 C 1032.46 190.62 1042.92 189.37 1053.38 190.51 C 1051.74 195.28 1049.89 199.97 1048.11 204.68 L 1047.70 204.61 C 1045.85 204.39 1043.98 203.81 1042.14 204.22 C 1039.89 205.09 1038.01 206.76 1035.70 207.47 C 1032.79 206.93 1030.01 205.47 1026.99 205.89 C 1021.63 206.33 1016.33 207.24 1010.99 207.80 C 1005.96 208.39 1001.02 206.82 996.00 206.91 C 989.54 206.72 982.99 207.33 976.59 206.30 C 967.18 203.51 957.34 201.81 947.50 202.23 C 946.57 201.42 945.64 200.63 944.71 199.85 C 946.50 198.82 948.37 197.88 950.31 197.15 C 950.43 196.01 950.52 194.85 950.78 193.73 C 952.08 192.53 953.72 191.81 955.30 191.03 C 956.99 190.74 958.70 190.42 960.41 190.14 Z" />
</g>
<g id="#d85129ff">
<path fill="#d85129" opacity="1.00" d=" M 947.50 202.23 C 957.34 201.81 967.18 203.51 976.59 206.30 C 982.99 207.33 989.54 206.72 996.00 206.91 C 1001.02 206.82 1005.96 208.39 1010.99 207.80 C 1016.33 207.24 1021.63 206.33 1026.99 205.89 C 1030.01 205.47 1032.79 206.93 1035.70 207.47 C 1038.01 206.76 1039.89 205.09 1042.14 204.22 C 1043.98 203.81 1045.85 204.39 1047.70 204.61 C 1046.05 209.03 1044.65 213.55 1042.66 217.83 L 1042.36 217.87 C 1037.79 218.40 1033.22 218.90 1028.75 219.93 C 1023.55 221.21 1018.24 219.65 1012.99 219.92 C 1009.85 219.77 1007.01 221.20 1004.03 221.88 C 999.74 220.87 995.74 218.75 991.28 218.48 C 983.11 217.85 974.91 217.13 966.97 214.98 C 963.34 213.84 959.19 215.25 955.90 213.05 C 951.59 210.29 946.19 210.89 941.55 208.97 C 943.70 206.88 946.16 205.00 947.50 202.23 Z" />
</g>
<g id="#e46c27ff">
<path fill="#e46c27" opacity="1.00" d=" M 958.09 226.07 C 960.44 225.60 962.61 224.49 964.98 224.09 C 968.96 224.55 971.71 228.70 975.98 228.16 C 982.66 228.64 991.10 226.08 996.18 231.80 C 999.19 230.19 1002.61 229.55 1005.99 230.31 C 1010.92 231.28 1015.96 230.59 1020.94 231.17 C 1026.17 231.93 1031.28 229.89 1036.53 230.14 C 1033.08 237.27 1028.88 244.00 1024.89 250.82 C 1020.42 248.01 1015.05 247.82 1010.01 246.89 C 1006.05 246.22 1002.04 245.71 998.03 245.79 C 993.54 245.66 989.78 248.56 985.43 249.18 C 985.79 250.00 986.17 250.82 986.55 251.65 C 985.46 251.91 984.39 252.18 983.32 252.45 C 983.49 258.95 985.37 265.33 988.33 271.09 C 988.23 273.05 988.03 275.01 988.44 276.96 C 988.01 277.67 987.59 278.40 987.19 279.12 C 987.88 281.01 988.77 282.92 988.67 284.99 C 988.66 287.36 987.04 289.26 986.18 291.36 C 986.93 291.98 987.76 292.49 988.58 293.04 C 989.79 297.72 987.22 302.23 988.06 306.89 C 983.19 313.67 978.32 320.47 973.16 327.03 C 966.44 334.74 960.69 343.23 954.05 351.00 C 942.91 362.86 932.86 375.77 920.82 386.78 C 915.30 391.64 909.27 395.86 903.41 400.29 C 893.19 406.19 882.64 411.71 871.42 415.45 C 866.75 416.47 862.44 418.59 858.01 420.29 L 857.39 420.19 C 851.55 419.06 845.57 418.91 839.75 417.67 C 835.89 416.90 831.43 417.48 828.31 414.66 C 830.18 410.76 834.29 408.47 838.38 407.54 C 844.01 406.31 848.08 401.93 853.12 399.42 C 854.73 394.37 860.27 392.96 864.32 390.45 C 867.40 388.98 868.96 385.61 872.00 384.11 C 875.29 382.48 878.29 380.17 882.00 379.51 C 882.86 378.25 883.44 376.65 884.78 375.81 C 886.48 375.14 888.33 374.93 890.14 374.57 C 890.33 374.27 890.71 373.67 890.90 373.38 C 892.58 373.12 894.30 373.01 895.96 372.52 C 897.58 370.52 898.41 367.97 900.14 366.03 C 901.76 365.06 903.76 365.08 905.58 364.67 C 905.24 364.26 904.92 363.86 904.61 363.47 C 906.31 362.31 908.01 361.16 909.73 360.01 C 909.32 359.42 908.93 358.84 908.54 358.27 C 910.26 357.83 911.98 357.40 913.71 356.97 C 913.25 356.35 912.79 355.73 912.35 355.12 C 914.19 354.98 916.03 354.83 917.89 354.69 C 916.71 353.68 915.52 352.67 914.35 351.68 C 918.82 350.10 922.24 346.71 926.39 344.54 C 929.88 342.93 931.81 339.47 934.03 336.54 C 932.80 333.93 934.63 331.59 936.08 329.55 C 934.87 330.13 930.44 330.94 932.79 328.70 C 936.08 327.32 939.82 328.20 943.24 327.27 C 946.51 323.29 944.84 317.91 943.57 313.53 C 942.30 313.06 941.05 312.59 939.81 312.13 C 940.45 311.82 941.11 311.51 941.77 311.21 C 941.30 309.54 940.84 307.88 940.38 306.21 C 942.13 306.49 943.88 306.77 945.65 307.06 C 945.06 305.73 944.48 304.40 943.91 303.08 C 945.69 303.19 947.48 303.30 949.28 303.41 C 946.97 300.06 945.04 296.47 943.54 292.68 C 942.60 292.54 941.67 292.40 940.75 292.27 C 941.94 288.79 940.69 285.22 940.35 281.71 C 941.45 281.65 942.56 281.59 943.69 281.54 C 943.97 280.87 944.26 280.20 944.57 279.53 C 943.71 278.23 942.90 276.91 942.00 275.65 C 940.40 273.08 937.28 272.29 934.75 270.99 C 935.11 270.59 935.82 269.80 936.18 269.40 C 938.38 270.18 940.59 270.97 942.81 271.76 C 943.11 271.37 943.71 270.60 944.02 270.21 C 943.27 269.42 942.55 268.63 941.84 267.84 C 941.32 264.47 940.79 260.28 937.42 258.53 C 933.25 256.18 929.92 252.73 926.79 249.18 C 929.72 249.77 932.44 251.03 935.07 252.43 C 937.22 251.79 939.38 251.17 941.55 250.57 C 941.03 249.61 940.52 248.65 940.03 247.70 C 940.43 247.57 941.23 247.31 941.63 247.18 C 941.78 246.77 942.08 245.95 942.23 245.54 C 943.17 246.34 944.12 247.14 945.13 247.89 C 945.11 244.64 944.51 241.37 945.45 238.17 C 943.94 238.00 942.44 237.82 940.96 237.65 C 943.28 234.48 945.38 231.08 946.09 227.15 C 947.93 227.39 949.79 227.63 951.65 227.87 C 951.21 226.93 950.79 226.00 950.38 225.06 C 952.92 225.51 955.48 226.16 958.09 226.07 Z" />
</g>
<g id="#db4e2cff">
<path fill="#db4e2c" opacity="1.00" d=" M 704.94 272.99 C 718.07 256.05 733.71 241.27 747.63 225.00 C 749.76 226.42 751.85 228.00 753.18 230.25 C 751.79 230.91 750.43 231.57 749.05 232.23 C 752.09 234.33 754.03 237.42 755.16 240.88 C 755.69 243.12 758.24 243.04 760.00 243.67 C 761.89 243.96 762.66 245.94 763.85 247.20 C 767.25 251.85 772.60 254.43 777.77 256.61 C 779.32 255.58 780.91 254.15 782.93 254.49 C 784.82 254.49 785.86 256.31 787.19 257.38 C 787.44 257.25 787.95 257.01 788.20 256.88 C 792.04 257.94 795.88 259.01 799.61 260.42 C 799.85 259.88 800.33 258.82 800.57 258.29 C 803.37 258.78 805.60 260.48 807.64 262.37 C 809.24 263.96 811.59 262.94 813.52 262.79 C 816.21 262.25 818.82 263.37 821.39 264.01 C 815.23 270.73 810.38 278.49 804.53 285.46 C 799.01 291.67 793.69 298.08 788.99 304.95 C 784.20 311.75 778.11 317.54 773.61 324.55 C 768.05 332.57 761.62 339.94 756.05 347.95 C 749.56 355.60 744.65 364.41 738.08 371.99 C 735.35 375.34 733.02 378.98 730.63 382.58 C 725.61 390.21 719.65 397.18 714.83 404.95 C 710.65 397.49 708.47 389.19 705.55 381.22 C 703.28 374.94 701.82 368.42 699.52 362.16 C 692.56 345.87 686.76 329.10 681.73 312.12 C 680.84 309.18 679.55 306.40 678.22 303.65 C 686.91 293.25 695.86 283.07 704.94 272.99 Z" />
</g>
<g id="#e97a24ff">
<path fill="#e97a24" opacity="1.00" d=" M 985.43 249.18 C 989.78 248.56 993.54 245.66 998.03 245.79 C 1002.04 245.71 1006.05 246.22 1010.01 246.89 C 1015.05 247.82 1020.42 248.01 1024.89 250.82 C 1022.82 254.98 1020.52 259.03 1017.80 262.80 C 1014.31 267.47 1012.33 273.11 1008.47 277.53 C 1004.64 282.20 1002.25 287.84 998.39 292.49 C 994.64 297.07 991.80 302.31 988.06 306.89 C 987.22 302.23 989.79 297.72 988.58 293.04 C 987.76 292.49 986.93 291.98 986.18 291.36 C 987.04 289.26 988.66 287.36 988.67 284.99 C 988.77 282.92 987.88 281.01 987.19 279.12 C 987.59 278.40 988.01 277.67 988.44 276.96 C 988.03 275.01 988.23 273.05 988.33 271.09 C 985.37 265.33 983.49 258.95 983.32 252.45 C 984.39 252.18 985.46 251.91 986.55 251.65 C 986.17 250.82 985.79 250.00 985.43 249.18 Z" />
</g>
<g id="#dd532bff">
<path fill="#dd532b" opacity="1.00" d=" M 825.50 288.33 C 828.29 288.38 831.08 288.64 833.88 288.69 C 834.33 290.02 834.76 291.34 835.22 292.68 C 833.85 292.58 832.50 292.48 831.15 292.40 C 832.84 294.09 834.61 295.71 836.46 297.25 C 836.52 295.93 836.61 294.62 836.69 293.31 C 839.39 293.33 842.14 293.11 844.81 293.66 C 847.03 294.25 848.87 295.73 851.03 296.52 C 856.78 298.22 860.73 303.03 865.78 306.02 C 866.78 304.86 867.78 303.70 868.80 302.55 C 870.61 305.93 872.29 309.37 873.85 312.88 C 872.10 312.69 870.36 312.51 868.63 312.36 C 869.84 316.53 875.03 317.16 877.34 320.62 C 877.34 324.26 877.96 327.97 880.36 330.85 C 879.91 331.01 878.99 331.34 878.53 331.51 C 878.16 332.51 877.81 333.52 877.46 334.53 C 876.73 334.88 876.02 335.24 875.31 335.59 C 876.70 336.20 878.08 336.81 879.47 337.46 C 877.65 338.61 875.51 338.53 873.47 338.39 C 873.39 339.34 873.34 340.30 873.29 341.26 C 872.18 341.39 871.09 341.53 870.01 341.67 C 870.42 342.28 870.85 342.89 871.29 343.50 C 870.54 344.93 869.83 346.38 869.14 347.83 C 867.77 347.74 866.42 347.65 865.07 347.56 C 864.85 347.77 864.39 348.19 864.16 348.40 C 865.15 348.90 866.14 349.40 867.15 349.90 C 865.79 350.57 864.38 351.17 863.17 352.07 C 863.07 353.56 863.15 355.05 863.21 356.54 C 862.32 357.03 861.44 357.53 860.58 358.04 C 860.58 358.85 860.59 359.67 860.61 360.49 C 858.41 360.37 855.86 359.97 854.92 362.48 C 850.76 363.13 848.87 367.05 845.39 368.84 C 846.07 369.04 847.41 369.46 848.08 369.66 C 845.91 370.25 843.72 370.77 841.53 371.24 C 841.90 371.90 842.28 372.56 842.67 373.23 C 839.41 372.25 836.10 371.40 832.72 371.04 C 834.78 373.00 837.47 373.96 840.14 374.83 C 837.33 374.79 834.53 374.56 831.78 374.08 C 830.93 376.93 830.07 379.77 829.16 382.61 C 828.46 382.87 827.77 383.14 827.10 383.42 C 826.59 384.10 826.12 384.81 825.57 385.45 C 822.77 385.41 819.62 383.84 817.41 386.37 C 816.71 386.46 816.01 386.55 815.33 386.65 C 815.39 387.41 815.46 388.17 815.54 388.95 C 814.62 389.25 813.70 389.55 812.80 389.85 C 812.35 391.11 811.91 392.36 811.47 393.62 C 812.09 393.89 813.34 394.44 813.96 394.71 C 810.93 394.90 807.90 395.07 804.87 395.22 C 805.89 395.70 806.91 396.18 807.95 396.67 C 805.79 396.85 803.63 397.03 801.49 397.21 C 801.85 397.82 802.23 398.44 802.61 399.05 C 800.02 398.77 797.44 398.55 794.84 398.41 C 795.41 399.22 795.98 400.04 796.56 400.87 C 795.14 400.98 793.73 401.10 792.33 401.23 C 792.77 402.16 793.21 403.08 793.67 404.02 C 791.34 403.74 789.02 403.47 786.70 403.21 C 787.78 404.26 788.86 405.32 789.95 406.38 C 787.31 405.93 784.67 405.47 782.05 405.00 C 782.95 406.07 783.86 407.14 784.77 408.22 C 782.26 407.67 779.77 407.08 777.29 406.46 C 777.06 407.63 776.84 408.80 776.62 409.98 C 774.60 409.30 772.54 408.73 770.44 408.44 C 771.63 409.90 772.71 411.57 774.34 412.62 C 777.81 413.23 781.46 412.13 784.86 413.38 C 789.34 415.03 794.17 414.98 798.77 416.13 C 817.35 420.16 836.42 419.76 855.27 421.40 L 856.38 422.30 L 855.14 422.64 C 848.89 424.64 842.38 422.51 836.01 422.68 C 822.28 422.91 808.69 420.31 794.97 420.57 C 790.23 420.49 785.56 419.62 780.84 419.40 C 769.86 419.24 758.96 417.78 747.99 417.68 C 740.68 416.84 733.34 416.97 726.00 417.21 C 728.55 411.64 732.73 407.07 735.87 401.85 C 738.88 396.38 744.10 392.52 746.78 386.82 C 749.96 379.38 756.89 374.53 760.57 367.40 C 763.31 362.07 767.91 358.05 770.88 352.87 C 775.80 344.98 782.78 338.62 787.38 330.51 C 791.19 323.62 797.56 318.66 801.55 311.89 C 806.13 304.05 813.03 297.94 817.86 290.28 L 818.07 290.36 C 819.40 290.82 820.75 291.34 822.15 291.65 C 823.46 290.76 824.43 289.48 825.50 288.33 Z" />
</g>
<g id="#c0003aff">
<path fill="#c0003a" opacity="1.00" d=" M 678.22 303.65 C 679.55 306.40 680.84 309.18 681.73 312.12 C 686.76 329.10 692.56 345.87 699.52 362.16 C 701.82 368.42 703.28 374.94 705.55 381.22 C 708.47 389.19 710.65 397.49 714.83 404.95 C 711.53 409.32 708.71 414.03 706.02 418.80 C 703.60 416.57 700.86 414.73 697.97 413.20 C 696.84 413.29 695.73 413.40 694.62 413.50 C 692.53 410.19 689.30 407.96 686.21 405.69 C 687.12 404.96 688.04 404.24 688.97 403.53 C 685.61 398.09 676.27 399.27 675.31 391.98 C 674.55 385.24 668.85 380.99 664.40 376.55 C 661.10 373.09 656.40 371.34 653.44 367.52 C 651.07 364.18 646.67 364.33 643.31 362.68 C 640.75 360.62 638.74 357.97 636.36 355.72 C 640.93 349.20 646.75 343.67 651.11 337.00 C 656.29 329.94 661.54 322.88 667.73 316.66 C 671.30 312.38 674.67 307.95 678.22 303.65 Z" />
</g>
<g id="#c71438ff">
<path fill="#c71438" opacity="1.00" d=" M 625.01 370.20 C 629.19 365.68 632.24 360.29 636.36 355.72 C 638.74 357.97 640.75 360.62 643.31 362.68 C 646.67 364.33 651.07 364.18 653.44 367.52 C 656.40 371.34 661.10 373.09 664.40 376.55 C 668.85 380.99 674.55 385.24 675.31 391.98 C 676.27 399.27 685.61 398.09 688.97 403.53 C 688.04 404.24 687.12 404.96 686.21 405.69 C 689.30 407.96 692.53 410.19 694.62 413.50 C 695.73 413.40 696.84 413.29 697.97 413.20 C 700.86 414.73 703.60 416.57 706.02 418.80 C 702.80 422.31 699.81 426.06 697.36 430.16 C 694.72 434.61 691.23 438.46 688.43 442.80 C 686.79 440.18 685.90 437.19 684.47 434.48 C 680.91 433.47 676.19 434.65 673.75 431.22 C 672.40 429.63 673.76 427.69 674.23 426.04 C 673.44 423.20 673.20 420.00 671.48 417.56 C 668.70 415.70 665.87 413.84 663.91 411.06 C 662.43 408.76 659.82 407.99 657.30 407.47 C 657.99 405.53 658.98 403.66 659.23 401.61 C 658.47 398.19 654.96 396.65 652.24 395.04 C 651.46 395.62 650.69 396.20 649.93 396.78 C 647.57 395.87 645.12 395.22 642.66 394.69 C 645.13 390.83 641.03 387.76 637.53 387.01 C 636.63 384.57 635.04 382.53 632.93 381.03 C 629.14 378.37 627.49 373.91 625.01 370.20 Z" />
</g>
<g id="#cb2134ff">
<path fill="#cb2134" opacity="1.00" d=" M 603.70 397.58 C 611.11 388.69 617.47 378.98 625.01 370.20 C 627.49 373.91 629.14 378.37 632.93 381.03 C 635.04 382.53 636.63 384.57 637.53 387.01 C 641.03 387.76 645.13 390.83 642.66 394.69 C 645.12 395.22 647.57 395.87 649.93 396.78 C 650.69 396.20 651.46 395.62 652.24 395.04 C 654.96 396.65 658.47 398.19 659.23 401.61 C 658.98 403.66 657.99 405.53 657.30 407.47 C 659.82 407.99 662.43 408.76 663.91 411.06 C 665.87 413.84 668.70 415.70 671.48 417.56 C 673.20 420.00 673.44 423.20 674.23 426.04 C 673.76 427.69 672.40 429.63 673.75 431.22 C 676.19 434.65 680.91 433.47 684.47 434.48 C 685.90 437.19 686.79 440.18 688.43 442.80 C 684.77 450.64 678.20 456.52 674.13 464.10 C 669.61 470.63 665.83 477.67 660.78 483.82 C 657.25 488.13 655.37 493.50 651.77 497.76 C 647.67 502.80 645.40 509.06 641.06 513.92 C 637.78 517.31 636.10 521.79 633.41 525.60 C 629.89 530.69 627.44 536.49 623.41 541.24 C 621.25 539.63 619.20 537.76 616.65 536.81 C 613.62 535.85 610.30 535.97 607.46 534.46 C 604.65 533.01 601.87 531.49 598.97 530.23 C 598.32 528.81 597.79 527.34 596.95 526.03 C 594.57 524.30 591.64 523.53 589.32 521.72 C 587.29 520.14 585.64 518.11 583.50 516.68 C 577.58 513.27 573.11 507.58 566.34 505.64 C 567.80 504.74 569.27 503.84 570.73 502.94 C 567.19 501.00 564.99 497.54 562.04 494.94 C 559.05 493.18 555.14 492.59 553.92 488.83 C 552.89 488.27 551.87 487.73 550.85 487.19 C 550.79 483.22 549.05 479.63 547.42 476.12 C 555.73 462.76 565.50 450.37 574.29 437.33 C 577.84 431.95 582.33 427.28 585.80 421.85 C 591.48 413.55 598.09 405.93 603.70 397.58 Z" />
</g>
<g id="#c40c38ff">
<path fill="#c40c38" opacity="1.00" d=" M 907.11 416.27 C 910.95 414.98 916.00 410.53 919.50 414.80 C 918.58 417.19 917.77 419.64 916.68 421.97 L 915.99 422.34 C 914.19 422.58 912.09 422.43 910.80 423.92 C 908.21 426.37 905.05 428.17 902.75 430.93 C 901.41 432.61 899.48 433.58 897.63 434.57 C 897.36 439.49 893.20 442.71 889.45 445.25 C 890.25 445.84 891.04 446.48 891.82 447.14 C 890.59 448.92 888.97 450.40 887.83 452.25 C 886.91 454.44 887.77 456.85 888.15 459.08 C 887.62 462.87 886.83 466.67 885.13 470.14 C 883.86 472.22 885.28 474.53 885.81 476.62 L 885.85 476.75 C 883.72 479.91 881.44 482.97 879.08 485.96 C 868.14 484.52 857.28 481.88 846.18 482.17 C 843.90 483.99 841.07 485.27 838.09 484.65 C 832.88 483.79 827.57 483.90 822.46 485.26 C 822.13 486.48 821.82 487.71 821.51 488.94 C 819.51 488.51 817.51 488.09 815.52 487.67 C 815.45 486.62 815.40 485.59 815.35 484.56 C 814.23 484.27 813.13 483.99 812.04 483.72 C 811.50 484.66 810.96 485.60 810.44 486.55 C 808.86 486.03 807.29 485.52 805.73 485.01 C 804.47 482.13 803.04 478.44 799.66 477.60 C 796.75 476.84 793.87 476.01 790.94 475.37 C 788.63 474.87 786.37 476.22 784.07 475.86 C 781.57 474.36 780.16 471.34 777.27 470.45 C 772.44 468.76 766.91 471.82 762.47 468.70 C 759.45 467.42 757.70 464.68 757.02 461.58 C 755.74 460.96 754.51 460.13 753.11 459.86 C 751.75 460.34 750.51 461.09 749.17 461.59 C 747.36 460.64 746.44 458.53 744.65 457.53 C 742.63 456.42 740.38 455.79 738.45 454.56 C 736.06 452.95 734.18 450.69 731.66 449.30 C 729.84 448.32 727.72 448.99 725.79 449.05 C 722.04 445.49 719.48 440.96 716.10 437.09 C 714.52 437.55 712.96 437.99 711.42 438.54 C 714.84 432.84 718.83 427.54 722.82 422.23 L 722.99 422.25 C 729.00 423.23 734.96 421.43 740.98 421.57 C 752.97 421.67 764.97 421.68 776.97 421.56 C 779.54 421.52 782.07 422.02 784.59 422.52 C 772.47 423.78 760.26 422.24 748.14 423.31 C 743.83 424.07 739.45 424.29 735.17 425.11 C 733.37 425.41 733.55 427.66 733.08 428.99 C 737.80 429.34 740.69 433.57 744.96 435.03 C 748.20 436.20 751.44 437.44 754.25 439.49 C 754.66 441.00 754.53 442.94 756.06 443.86 C 762.05 448.68 769.78 450.02 776.93 452.24 C 779.68 451.39 782.52 450.95 785.38 450.69 C 785.37 449.78 785.36 448.87 785.36 447.97 C 787.08 448.09 788.87 447.95 790.54 448.51 C 792.63 449.56 794.22 451.41 796.36 452.38 C 800.13 452.76 803.98 452.28 807.70 453.28 C 813.81 454.19 819.09 457.76 825.19 458.70 C 834.82 460.43 844.60 463.10 854.44 461.50 C 854.95 460.01 855.49 458.52 855.78 456.97 C 855.11 455.49 853.77 454.48 852.71 453.31 C 852.92 452.96 853.33 452.25 853.54 451.89 C 853.63 450.17 853.20 448.03 854.99 447.00 C 858.84 444.21 862.78 441.49 865.99 437.93 C 866.04 436.57 866.04 435.07 867.15 434.08 C 871.98 428.85 878.83 426.04 885.65 424.48 C 886.21 423.45 886.78 422.42 887.36 421.40 C 894.13 420.48 900.45 417.69 907.11 416.27 Z" />
</g>
<g id="#cd2132ff">
<path fill="#cd2132" opacity="1.00" d=" M 726.00 417.21 C 733.34 416.97 740.68 416.84 747.99 417.68 C 758.96 417.78 769.86 419.24 780.84 419.40 C 785.56 419.62 790.23 420.49 794.97 420.57 C 808.69 420.31 822.28 422.91 836.01 422.68 C 842.38 422.51 848.89 424.64 855.14 422.64 C 855.67 423.47 856.21 424.30 856.76 425.13 C 854.58 425.87 852.38 426.94 850.02 426.59 C 837.25 425.44 824.44 425.00 811.66 424.20 C 802.75 422.30 793.63 422.72 784.59 422.52 C 782.07 422.02 779.54 421.52 776.97 421.56 C 764.97 421.68 752.97 421.67 740.98 421.57 C 734.96 421.43 729.00 423.23 722.99 422.25 C 723.90 420.52 724.78 418.75 726.00 417.21 Z" />
</g>
<g id="#be003bff">
<path fill="#be003b" opacity="1.00" d=" M 864.09 425.61 C 871.92 424.69 879.63 422.95 887.36 421.40 C 886.78 422.42 886.21 423.45 885.65 424.48 C 878.83 426.04 871.98 428.85 867.15 434.08 C 866.04 435.07 866.04 436.57 865.99 437.93 C 862.78 441.49 858.84 444.21 854.99 447.00 C 853.20 448.03 853.63 450.17 853.54 451.89 C 853.33 452.25 852.92 452.96 852.71 453.31 C 853.77 454.48 855.11 455.49 855.78 456.97 C 855.49 458.52 854.95 460.01 854.44 461.50 C 844.60 463.10 834.82 460.43 825.19 458.70 C 819.09 457.76 813.81 454.19 807.70 453.28 C 803.98 452.28 800.13 452.76 796.36 452.38 C 794.22 451.41 792.63 449.56 790.54 448.51 C 788.87 447.95 787.08 448.09 785.36 447.97 C 785.36 448.87 785.37 449.78 785.38 450.69 C 782.52 450.95 779.68 451.39 776.93 452.24 C 769.78 450.02 762.05 448.68 756.06 443.86 C 754.53 442.94 754.66 441.00 754.25 439.49 C 751.44 437.44 748.20 436.20 744.96 435.03 C 740.69 433.57 737.80 429.34 733.08 428.99 C 733.55 427.66 733.37 425.41 735.17 425.11 C 739.45 424.29 743.83 424.07 748.14 423.31 C 760.26 422.24 772.47 423.78 784.59 422.52 C 793.63 422.72 802.75 422.30 811.66 424.20 C 824.44 425.00 837.25 425.44 850.02 426.59 C 852.38 426.94 854.58 425.87 856.76 425.13 C 859.19 425.18 861.61 426.06 864.09 425.61 Z" />
</g>
<g id="#c91736ff">
<path fill="#c91736" opacity="1.00" d=" M 910.80 423.92 C 912.09 422.43 914.19 422.58 915.99 422.34 L 916.28 422.69 C 912.96 432.28 907.03 440.60 902.82 449.78 C 901.10 453.56 898.02 456.48 896.20 460.20 C 893.33 466.04 889.15 471.07 885.81 476.62 C 885.28 474.53 883.86 472.22 885.13 470.14 C 886.83 466.67 887.62 462.87 888.15 459.08 C 887.77 456.85 886.91 454.44 887.83 452.25 C 888.97 450.40 890.59 448.92 891.82 447.14 C 891.04 446.48 890.25 445.84 889.45 445.25 C 893.20 442.71 897.36 439.49 897.63 434.57 C 899.48 433.58 901.41 432.61 902.75 430.93 C 905.05 428.17 908.21 426.37 910.80 423.92 Z" />
</g>
<g id="#ca2035ff">
<path fill="#ca2035" opacity="1.00" d=" M 711.42 438.54 C 712.96 437.99 714.52 437.55 716.10 437.09 C 719.48 440.96 722.04 445.49 725.79 449.05 C 727.72 448.99 729.84 448.32 731.66 449.30 C 734.18 450.69 736.06 452.95 738.45 454.56 C 740.38 455.79 742.63 456.42 744.65 457.53 C 746.44 458.53 747.36 460.64 749.17 461.59 C 750.51 461.09 751.75 460.34 753.11 459.86 C 754.51 460.13 755.74 460.96 757.02 461.58 C 757.70 464.68 759.45 467.42 762.47 468.70 C 766.91 471.82 772.44 468.76 777.27 470.45 C 780.16 471.34 781.57 474.36 784.07 475.86 C 786.37 476.22 788.63 474.87 790.94 475.37 C 793.87 476.01 796.75 476.84 799.66 477.60 C 803.04 478.44 804.47 482.13 805.73 485.01 C 806.22 487.36 805.14 490.87 807.90 492.08 C 812.10 493.62 816.68 493.64 821.04 494.55 C 821.32 495.38 821.60 496.22 821.90 497.06 C 823.63 498.25 825.37 499.45 827.11 500.66 C 828.03 500.49 828.97 500.34 829.91 500.19 C 832.42 502.78 835.25 506.35 839.35 505.58 C 840.98 505.13 843.71 505.39 844.14 503.30 C 843.09 502.36 841.98 501.53 840.89 500.69 C 842.58 499.10 844.15 497.29 846.25 496.22 C 850.27 496.23 854.27 497.64 858.29 496.61 C 857.21 495.03 856.02 493.50 855.35 491.71 C 861.65 489.66 868.67 490.04 874.86 492.33 C 867.52 501.14 860.04 510.02 850.61 516.70 C 846.58 520.04 842.01 522.65 838.07 526.10 C 834.08 529.74 828.80 531.33 824.34 534.26 C 814.36 538.87 803.68 541.72 793.47 545.76 C 793.45 546.43 793.40 547.76 793.37 548.43 C 797.44 549.69 801.80 549.83 805.99 549.01 C 819.40 546.50 832.63 542.70 845.03 536.97 C 847.20 536.11 849.39 535.30 851.57 534.46 C 851.58 535.96 852.03 537.67 851.04 538.99 C 843.31 550.39 833.74 560.37 823.95 570.02 C 817.50 576.03 810.04 580.78 803.13 586.21 C 798.53 589.87 792.91 591.83 788.07 595.12 C 779.05 599.72 769.36 602.77 759.72 605.75 C 758.14 606.53 755.57 607.19 756.55 609.48 C 758.11 612.06 761.56 611.87 764.15 611.30 C 771.60 610.17 779.20 609.79 786.48 607.66 C 790.87 606.66 795.17 603.81 799.80 605.38 C 799.85 607.22 799.91 609.17 798.82 610.77 C 795.31 617.07 791.93 623.45 788.86 629.98 C 783.73 638.02 780.24 647.00 774.82 654.86 C 772.81 658.26 771.34 662.00 768.75 665.04 C 767.53 662.22 765.64 657.95 769.53 656.30 C 768.49 654.86 767.46 653.43 766.43 652.01 C 766.50 651.09 766.57 650.19 766.66 649.29 C 765.63 648.66 764.60 648.03 763.60 647.41 C 762.99 645.69 762.51 643.92 761.61 642.34 C 759.59 639.71 756.06 639.38 753.03 638.96 C 748.80 638.75 745.86 635.25 741.94 634.10 C 738.58 633.15 736.51 630.23 734.06 627.98 C 732.04 626.06 729.14 625.64 726.86 624.15 C 725.76 622.20 725.70 619.61 723.92 618.10 C 720.68 616.52 716.78 617.19 713.57 615.52 C 709.58 613.29 707.23 609.11 703.52 606.55 C 700.21 604.88 696.16 605.18 693.09 602.98 C 691.36 601.83 690.92 599.65 690.06 597.91 C 684.52 594.18 678.05 592.19 672.60 588.34 C 670.81 587.19 668.67 586.83 666.67 586.27 C 665.98 583.97 665.31 581.67 664.63 579.37 C 658.54 578.83 654.03 574.27 648.18 573.00 C 646.82 570.57 644.70 568.83 642.19 567.73 C 641.59 566.69 641.01 565.65 640.43 564.62 C 638.41 564.23 636.40 563.84 634.40 563.44 C 634.37 562.71 634.35 561.98 634.34 561.26 C 633.59 561.12 632.10 560.84 631.36 560.71 C 633.08 555.79 637.32 552.46 639.60 547.87 C 646.24 537.69 652.35 527.19 658.96 517.01 C 664.03 511.73 666.59 504.75 670.85 498.90 C 674.97 491.86 680.57 485.80 684.28 478.51 C 685.89 475.46 688.21 472.87 690.10 470.00 C 692.24 466.84 693.86 463.36 696.17 460.32 C 698.11 457.61 700.57 455.30 702.34 452.46 C 705.25 447.77 707.69 442.61 711.42 438.54 Z" />
</g>
<g id="#c31f3aff">
<path fill="#c31f3a" opacity="1.00" d=" M 536.80 491.76 C 540.13 486.40 543.14 480.81 547.42 476.12 C 549.05 479.63 550.79 483.22 550.85 487.19 C 551.87 487.73 552.89 488.27 553.92 488.83 C 555.14 492.59 559.05 493.18 562.04 494.94 C 564.99 497.54 567.19 501.00 570.73 502.94 C 569.27 503.84 567.80 504.74 566.34 505.64 C 573.11 507.58 577.58 513.27 583.50 516.68 C 585.64 518.11 587.29 520.14 589.32 521.72 C 591.64 523.53 594.57 524.30 596.95 526.03 C 597.79 527.34 598.32 528.81 598.97 530.23 C 601.87 531.49 604.65 533.01 607.46 534.46 C 610.30 535.97 613.62 535.85 616.65 536.81 C 619.20 537.76 621.25 539.63 623.41 541.24 C 620.14 545.19 618.32 550.10 615.04 554.04 C 611.05 558.96 609.33 565.28 605.18 570.10 C 600.67 576.73 595.98 583.29 592.49 590.55 C 591.96 590.52 590.90 590.47 590.37 590.44 C 590.08 588.74 589.89 587.02 589.38 585.38 C 587.98 583.34 585.89 581.92 584.05 580.33 C 583.36 580.76 582.67 581.20 582.00 581.66 C 580.40 579.34 578.86 576.99 577.35 574.62 C 571.64 573.69 568.09 568.97 563.71 565.72 C 565.10 565.19 566.50 564.65 567.89 564.12 C 567.85 563.19 567.82 562.27 567.80 561.36 C 565.47 561.06 563.05 561.05 560.86 560.14 C 557.99 558.88 556.30 556.08 553.91 554.19 C 550.55 552.90 546.77 553.88 543.42 552.56 C 541.14 550.86 541.12 547.67 542.49 545.40 C 545.17 544.02 548.38 543.81 550.86 541.95 C 548.52 538.99 545.15 537.41 541.89 535.77 C 539.57 533.02 536.76 530.82 533.30 529.73 C 534.02 526.58 534.92 523.47 536.05 520.44 C 534.48 520.16 532.92 519.89 531.37 519.62 C 531.84 519.13 532.77 518.15 533.24 517.66 C 531.68 513.86 528.14 511.67 525.07 509.23 C 529.19 503.54 532.18 497.10 536.80 491.76 Z" />
</g>
<g id="#c61636ff">
<path fill="#c61636" opacity="1.00" d=" M 838.09 484.65 C 841.07 485.27 843.90 483.99 846.18 482.17 C 857.28 481.88 868.14 484.52 879.08 485.96 C 877.70 488.11 876.28 490.22 874.86 492.33 C 868.67 490.04 861.65 489.66 855.35 491.71 C 856.02 493.50 857.21 495.03 858.29 496.61 C 854.27 497.64 850.27 496.23 846.25 496.22 C 844.15 497.29 842.58 499.10 840.89 500.69 C 841.98 501.53 843.09 502.36 844.14 503.30 C 843.71 505.39 840.98 505.13 839.35 505.58 C 835.25 506.35 832.42 502.78 829.91 500.19 C 828.97 500.34 828.03 500.49 827.11 500.66 C 825.37 499.45 823.63 498.25 821.90 497.06 C 821.60 496.22 821.32 495.38 821.04 494.55 C 816.68 493.64 812.10 493.62 807.90 492.08 C 805.14 490.87 806.22 487.36 805.73 485.01 C 807.29 485.52 808.86 486.03 810.44 486.55 C 810.96 485.60 811.50 484.66 812.04 483.72 C 813.13 483.99 814.23 484.27 815.35 484.56 C 815.40 485.59 815.45 486.62 815.52 487.67 C 817.51 488.09 819.51 488.51 821.51 488.94 C 821.82 487.71 822.13 486.48 822.46 485.26 C 827.57 483.90 832.88 483.79 838.09 484.65 Z" />
</g>
<g id="#bb1f44ff">
<path fill="#bb1f44" opacity="1.00" d=" M 511.30 531.37 C 515.24 523.60 520.50 516.62 525.07 509.23 C 528.14 511.67 531.68 513.86 533.24 517.66 C 532.77 518.15 531.84 519.13 531.37 519.62 C 532.92 519.89 534.48 520.16 536.05 520.44 C 534.92 523.47 534.02 526.58 533.30 529.73 C 536.76 530.82 539.57 533.02 541.89 535.77 C 545.15 537.41 548.52 538.99 550.86 541.95 C 548.38 543.81 545.17 544.02 542.49 545.40 C 541.12 547.67 541.14 550.86 543.42 552.56 C 546.77 553.88 550.55 552.90 553.91 554.19 C 556.30 556.08 557.99 558.88 560.86 560.14 C 563.05 561.05 565.47 561.06 567.80 561.36 C 567.82 562.27 567.85 563.19 567.89 564.12 C 566.50 564.65 565.10 565.19 563.71 565.72 C 568.09 568.97 571.64 573.69 577.35 574.62 C 578.86 576.99 580.40 579.34 582.00 581.66 C 582.67 581.20 583.36 580.76 584.05 580.33 C 585.89 581.92 587.98 583.34 589.38 585.38 C 589.89 587.02 590.08 588.74 590.37 590.44 C 590.90 590.47 591.96 590.52 592.49 590.55 C 588.00 596.84 584.57 603.80 579.91 609.98 C 576.36 616.14 572.15 621.90 569.25 628.42 C 560.28 641.02 552.90 654.65 545.16 668.01 C 542.17 672.04 539.57 676.31 537.17 680.71 C 536.08 680.24 534.99 679.78 533.92 679.33 C 532.23 675.03 530.35 670.16 525.94 667.98 C 521.93 665.61 517.21 665.20 512.66 665.51 C 512.22 663.90 511.79 662.28 511.35 660.68 C 508.65 659.95 505.40 659.90 503.53 657.53 C 501.15 654.71 498.37 652.31 495.20 650.46 C 493.36 649.45 492.99 647.21 492.18 645.48 C 489.40 643.96 486.40 644.58 483.65 645.77 C 482.77 642.44 485.93 639.97 485.85 636.66 C 486.73 637.54 487.61 638.42 488.51 639.30 C 488.91 639.10 489.31 638.90 489.72 638.71 C 490.13 639.05 490.95 639.72 491.37 640.06 C 491.74 639.26 492.14 638.47 492.53 637.69 C 489.89 635.63 487.47 633.32 485.21 630.86 C 482.73 630.45 480.30 629.83 477.92 629.05 C 477.74 624.97 479.57 621.40 482.05 618.30 C 479.40 617.46 476.48 616.86 474.62 614.62 C 476.45 614.23 478.29 613.89 480.14 613.57 C 477.44 612.82 473.79 613.34 472.00 610.85 C 471.57 608.56 473.86 607.15 474.09 605.04 C 474.21 602.49 473.16 600.09 472.41 597.72 C 477.78 588.05 482.71 578.09 488.80 568.83 C 493.37 560.25 498.50 551.98 503.51 543.65 C 505.62 539.25 508.65 535.43 511.30 531.37 Z" />
</g>
<g id="#c21f3cff">
<path fill="#c21f3c" opacity="1.00" d=" M 619.24 580.41 C 623.00 573.71 627.90 567.68 631.06 560.65 L 631.36 560.71 C 632.10 560.84 633.59 561.12 634.34 561.26 C 634.35 561.98 634.37 562.71 634.40 563.44 C 636.40 563.84 638.41 564.23 640.43 564.62 C 641.01 565.65 641.59 566.69 642.19 567.73 C 644.70 568.83 646.82 570.57 648.18 573.00 C 654.03 574.27 658.54 578.83 664.63 579.37 C 665.31 581.67 665.98 583.97 666.67 586.27 C 668.67 586.83 670.81 587.19 672.60 588.34 C 678.05 592.19 684.52 594.18 690.06 597.91 C 690.92 599.65 691.36 601.83 693.09 602.98 C 696.16 605.18 700.21 604.88 703.52 606.55 C 707.23 609.11 709.58 613.29 713.57 615.52 C 716.78 617.19 720.68 616.52 723.92 618.10 C 725.70 619.61 725.76 622.20 726.86 624.15 C 729.14 625.64 732.04 626.06 734.06 627.98 C 736.51 630.23 738.58 633.15 741.94 634.10 C 745.86 635.25 748.80 638.75 753.03 638.96 C 756.06 639.38 759.59 639.71 761.61 642.34 C 762.51 643.92 762.99 645.69 763.60 647.41 C 764.60 648.03 765.63 648.66 766.66 649.29 C 766.57 650.19 766.50 651.09 766.43 652.01 C 767.46 653.43 768.49 654.86 769.53 656.30 C 765.64 657.95 767.53 662.22 768.75 665.04 C 766.77 671.08 762.14 675.69 759.33 681.30 C 758.02 683.83 756.50 686.23 754.93 688.61 C 754.02 687.06 753.47 685.11 751.90 684.10 C 749.89 683.43 747.72 683.62 745.68 683.16 C 743.49 682.03 741.72 680.28 739.78 678.81 C 743.60 678.21 746.90 676.15 750.17 674.22 C 747.02 673.43 743.77 673.14 740.63 672.34 C 738.95 671.36 738.42 669.22 737.41 667.67 C 735.64 667.78 733.86 667.89 732.10 668.00 C 731.73 664.99 728.65 664.32 726.29 663.41 C 726.84 661.28 727.48 659.17 727.84 657.00 C 725.48 655.38 722.47 654.73 720.55 652.51 C 719.21 651.37 718.27 649.30 716.29 649.33 C 712.85 649.31 710.33 652.64 706.84 652.43 C 703.89 652.36 700.81 652.19 698.10 650.92 C 694.41 648.68 692.11 644.73 688.42 642.48 C 686.35 641.28 683.60 641.02 682.36 638.73 C 680.09 635.18 675.96 633.71 672.69 631.30 C 669.57 628.98 665.04 632.65 662.21 629.69 C 660.44 628.04 661.06 625.19 659.66 623.39 C 655.77 620.21 650.69 622.19 646.28 622.71 C 646.41 623.83 646.55 624.96 646.70 626.10 C 643.62 622.68 640.88 617.94 635.86 617.38 C 632.85 616.68 629.01 617.75 626.83 615.03 C 624.66 612.99 622.88 610.45 620.27 608.92 C 617.22 607.95 613.93 608.21 610.78 607.98 C 612.71 604.27 609.58 600.71 608.39 597.30 L 608.31 597.11 C 612.44 591.86 614.91 585.54 619.24 580.41 Z" />
</g>
<g id="#ae2050ff">
<path fill="#ae2050" opacity="1.00" d=" M 472.35 597.57 L 472.41 597.72 C 473.16 600.09 474.21 602.49 474.09 605.04 C 473.86 607.15 471.57 608.56 472.00 610.85 C 473.79 613.34 477.44 612.82 480.14 613.57 C 478.29 613.89 476.45 614.23 474.62 614.62 C 476.48 616.86 479.40 617.46 482.05 618.30 C 479.57 621.40 477.74 624.97 477.92 629.05 C 480.30 629.83 482.73 630.45 485.21 630.86 C 487.47 633.32 489.89 635.63 492.53 637.69 C 492.14 638.47 491.74 639.26 491.37 640.06 C 490.95 639.72 490.13 639.05 489.72 638.71 C 489.31 638.90 488.91 639.10 488.51 639.30 C 487.61 638.42 486.73 637.54 485.85 636.66 C 485.93 639.97 482.77 642.44 483.65 645.77 C 486.40 644.58 489.40 643.96 492.18 645.48 C 492.99 647.21 493.36 649.45 495.20 650.46 C 498.37 652.31 501.15 654.71 503.53 657.53 C 505.40 659.90 508.65 659.95 511.35 660.68 C 511.79 662.28 512.22 663.90 512.66 665.51 C 517.21 665.20 521.93 665.61 525.94 667.98 C 530.35 670.16 532.23 675.03 533.92 679.33 C 534.99 679.78 536.08 680.24 537.17 680.71 C 533.60 685.26 532.49 691.20 528.57 695.50 C 522.29 706.26 515.27 716.63 510.07 727.99 C 504.75 735.28 500.51 743.29 496.26 751.24 C 493.14 755.69 490.98 760.69 488.23 765.36 C 484.65 771.29 480.85 777.10 477.86 783.37 C 473.89 781.47 469.72 779.63 466.65 776.39 C 462.58 771.85 459.92 766.32 457.12 760.97 C 455.86 757.99 455.80 754.61 454.18 751.77 C 452.80 748.98 450.05 747.34 447.64 745.56 C 446.80 742.85 445.88 740.17 444.83 737.54 C 444.08 737.96 443.33 738.39 442.59 738.83 C 440.73 735.50 440.49 731.73 440.80 728.01 C 440.76 724.98 437.40 723.99 435.00 723.35 C 431.76 722.61 429.66 719.87 427.41 717.68 C 427.47 716.74 427.53 715.81 427.61 714.89 C 425.37 712.23 422.88 709.77 420.10 707.69 C 424.12 697.07 429.12 686.87 433.30 676.32 C 437.73 667.56 441.10 658.32 445.84 649.71 C 453.83 631.91 463.32 614.85 472.35 597.57 Z" />
<path fill="#ae2050" opacity="1.00" d=" M 541.46 709.59 C 545.93 703.09 548.64 695.64 553.30 689.26 C 554.09 690.23 554.85 691.25 555.76 692.14 C 558.14 692.37 560.55 691.89 562.94 692.18 C 565.16 692.71 566.33 694.90 567.76 696.49 C 568.29 696.65 569.37 696.98 569.91 697.14 C 568.57 694.67 567.28 692.18 566.15 689.61 C 568.58 691.70 570.53 694.48 573.62 695.68 C 574.71 695.09 575.80 694.49 576.98 694.06 C 579.20 695.21 581.26 696.67 583.44 697.92 C 583.72 697.21 584.27 695.80 584.54 695.10 C 590.58 697.45 593.45 704.12 599.49 706.44 C 602.80 707.85 606.20 705.74 609.52 705.31 C 609.56 704.41 609.62 703.52 609.69 702.64 C 612.07 703.25 613.59 705.06 614.34 707.35 C 613.41 707.34 612.49 707.33 611.57 707.34 C 611.69 708.65 611.81 709.97 611.94 711.30 C 610.88 711.38 609.82 711.48 608.77 711.58 C 610.13 716.17 615.34 716.24 619.27 715.67 C 619.34 714.40 619.41 713.13 619.50 711.87 C 622.16 712.07 624.80 712.50 627.37 713.22 C 627.83 714.07 628.30 714.92 628.78 715.78 C 630.04 716.57 631.25 717.43 632.41 718.38 C 630.68 720.23 628.65 721.93 627.54 724.26 C 628.13 726.92 629.51 729.32 630.65 731.78 C 628.54 732.22 626.44 732.69 624.34 733.18 C 626.11 734.66 627.89 736.15 629.68 737.64 C 628.71 739.30 627.76 740.97 626.81 742.64 C 625.36 742.12 623.92 741.60 622.49 741.09 C 622.49 742.21 622.49 743.35 622.51 744.48 C 619.12 745.83 615.63 746.88 612.06 747.63 C 613.43 749.78 614.72 752.02 615.26 754.55 C 613.65 754.87 612.05 755.20 610.45 755.54 C 609.21 757.56 608.12 759.71 606.50 761.46 C 604.31 762.21 601.95 762.21 599.68 762.51 C 600.66 763.94 601.64 765.39 602.63 766.83 C 598.48 766.84 594.23 767.30 590.75 769.75 C 591.26 770.94 591.78 772.16 592.30 773.38 C 590.28 775.09 588.94 777.38 587.33 779.44 C 585.52 780.83 583.11 781.04 580.99 781.73 C 581.75 782.71 582.51 783.70 583.27 784.70 C 579.10 785.55 574.62 783.39 570.72 785.56 C 567.92 786.55 567.72 790.47 564.84 791.23 C 561.31 792.17 557.77 793.06 554.36 794.38 C 551.05 795.78 547.47 794.81 544.09 794.27 C 541.51 795.52 539.07 797.04 536.84 798.84 C 533.25 801.82 528.44 802.48 523.96 802.97 C 524.94 802.31 525.91 801.65 526.89 801.01 C 524.93 800.87 522.97 800.79 521.02 800.93 C 516.53 801.32 512.24 799.64 507.95 798.60 C 505.15 797.92 503.26 795.47 500.62 794.48 C 497.90 794.03 495.15 794.49 492.43 794.70 C 499.41 781.18 508.36 768.75 514.64 754.87 C 524.62 740.39 531.89 724.30 541.46 709.59 Z" />
</g>
<g id="#b92046ff">
<path fill="#b92046" opacity="1.00" d=" M 594.72 619.74 C 599.43 612.35 604.36 605.10 608.39 597.30 C 609.58 600.71 612.71 604.27 610.78 607.98 C 613.93 608.21 617.22 607.95 620.27 608.92 C 622.88 610.45 624.66 612.99 626.83 615.03 C 629.01 617.75 632.85 616.68 635.86 617.38 C 640.88 617.94 643.62 622.68 646.70 626.10 C 646.55 624.96 646.41 623.83 646.28 622.71 C 650.69 622.19 655.77 620.21 659.66 623.39 C 661.06 625.19 660.44 628.04 662.21 629.69 C 665.04 632.65 669.57 628.98 672.69 631.30 C 675.96 633.71 680.09 635.18 682.36 638.73 C 683.60 641.02 686.35 641.28 688.42 642.48 C 692.11 644.73 694.41 648.68 698.10 650.92 C 700.81 652.19 703.89 652.36 706.84 652.43 C 710.33 652.64 712.85 649.31 716.29 649.33 C 718.27 649.30 719.21 651.37 720.55 652.51 C 722.47 654.73 725.48 655.38 727.84 657.00 C 727.48 659.17 726.84 661.28 726.29 663.41 C 728.65 664.32 731.73 664.99 732.10 668.00 C 733.86 667.89 735.64 667.78 737.41 667.67 C 738.42 669.22 738.95 671.36 740.63 672.34 C 743.77 673.14 747.02 673.43 750.17 674.22 C 746.90 676.15 743.60 678.21 739.78 678.81 C 741.72 680.28 743.49 682.03 745.68 683.16 C 747.72 683.62 749.89 683.43 751.90 684.10 C 753.47 685.11 754.02 687.06 754.93 688.61 L 754.98 688.70 C 751.43 692.76 749.24 697.74 746.15 702.13 C 741.97 707.67 738.63 713.81 734.20 719.18 C 730.70 723.43 728.19 728.37 724.69 732.62 C 721.14 737.01 717.34 741.20 714.04 745.80 L 713.89 745.77 C 713.38 745.67 712.36 745.47 711.85 745.37 C 710.14 746.17 708.88 747.58 708.17 749.30 C 707.22 749.60 706.26 749.89 705.33 750.21 C 702.96 753.07 699.71 754.93 695.94 755.02 C 693.09 754.79 692.10 757.67 690.14 759.06 C 686.61 760.43 682.54 760.11 679.28 762.19 C 675.95 764.63 671.64 763.90 667.79 764.43 C 668.27 765.02 669.22 766.20 669.69 766.79 C 666.16 768.32 662.37 769.07 658.56 769.43 C 658.27 769.94 657.68 770.97 657.38 771.48 C 655.86 771.87 654.34 772.27 652.84 772.67 C 652.38 773.64 651.93 774.62 651.49 775.61 C 648.98 776.29 646.44 776.82 643.96 777.56 C 641.40 778.27 639.31 780.18 636.66 780.61 C 632.53 781.21 628.17 780.77 624.26 782.44 C 621.61 783.57 619.11 785.00 616.55 786.28 C 616.88 787.15 617.21 788.03 617.56 788.92 C 611.53 789.63 607.01 793.90 602.27 797.26 C 600.13 799.50 596.93 799.64 594.12 800.37 C 590.45 801.18 587.72 804.19 583.99 804.82 C 580.68 805.47 577.03 805.96 574.79 808.77 C 572.52 808.98 570.24 809.24 567.97 809.07 C 565.40 808.99 563.63 806.02 560.94 806.77 C 559.05 806.77 557.81 808.16 556.93 809.64 C 553.39 811.29 549.76 812.73 546.09 814.07 C 541.82 815.65 537.44 812.92 533.10 813.44 C 530.42 814.06 527.88 815.30 525.11 815.48 C 521.68 815.80 518.38 814.50 514.98 814.43 C 512.21 814.85 509.43 816.80 506.63 815.42 C 499.82 812.60 493.34 809.02 486.68 805.85 C 488.39 802.03 490.29 798.29 492.43 794.70 C 495.15 794.49 497.90 794.03 500.62 794.48 C 503.26 795.47 505.15 797.92 507.95 798.60 C 512.24 799.64 516.53 801.32 521.02 800.93 C 522.97 800.79 524.93 800.87 526.89 801.01 C 525.91 801.65 524.94 802.31 523.96 802.97 C 528.44 802.48 533.25 801.82 536.84 798.84 C 539.07 797.04 541.51 795.52 544.09 794.27 C 547.47 794.81 551.05 795.78 554.36 794.38 C 557.77 793.06 561.31 792.17 564.84 791.23 C 567.72 790.47 567.92 786.55 570.72 785.56 C 574.62 783.39 579.10 785.55 583.27 784.70 C 582.51 783.70 581.75 782.71 580.99 781.73 C 583.11 781.04 585.52 780.83 587.33 779.44 C 588.94 777.38 590.28 775.09 592.30 773.38 C 591.78 772.16 591.26 770.94 590.75 769.75 C 594.23 767.30 598.48 766.84 602.63 766.83 C 601.64 765.39 600.66 763.94 599.68 762.51 C 601.95 762.21 604.31 762.21 606.50 761.46 C 608.12 759.71 609.21 757.56 610.45 755.54 C 612.05 755.20 613.65 754.87 615.26 754.55 C 614.72 752.02 613.43 749.78 612.06 747.63 C 615.63 746.88 619.12 745.83 622.51 744.48 C 622.49 743.35 622.49 742.21 622.49 741.09 C 623.92 741.60 625.36 742.12 626.81 742.64 C 627.76 740.97 628.71 739.30 629.68 737.64 C 627.89 736.15 626.11 734.66 624.34 733.18 C 626.44 732.69 628.54 732.22 630.65 731.78 C 629.51 729.32 628.13 726.92 627.54 724.26 C 628.65 721.93 630.68 720.23 632.41 718.38 C 631.25 717.43 630.04 716.57 628.78 715.78 C 628.30 714.92 627.83 714.07 627.37 713.22 C 624.80 712.50 622.16 712.07 619.50 711.87 C 619.41 713.13 619.34 714.40 619.27 715.67 C 615.34 716.24 610.13 716.17 608.77 711.58 C 609.82 711.48 610.88 711.38 611.94 711.30 C 611.81 709.97 611.69 708.65 611.57 707.34 C 612.49 707.33 613.41 707.34 614.34 707.35 C 613.59 705.06 612.07 703.25 609.69 702.64 C 609.62 703.52 609.56 704.41 609.52 705.31 C 606.20 705.74 602.80 707.85 599.49 706.44 C 593.45 704.12 590.58 697.45 584.54 695.10 C 584.27 695.80 583.72 697.21 583.44 697.92 C 581.26 696.67 579.20 695.21 576.98 694.06 C 575.80 694.49 574.71 695.09 573.62 695.68 C 570.53 694.48 568.58 691.70 566.15 689.61 C 567.28 692.18 568.57 694.67 569.91 697.14 C 569.37 696.98 568.29 696.65 567.76 696.49 C 566.33 694.90 565.16 692.71 562.94 692.18 C 560.55 691.89 558.14 692.37 555.76 692.14 C 554.85 691.25 554.09 690.23 553.30 689.26 C 556.36 683.15 560.39 677.62 563.67 671.63 C 567.56 666.85 569.26 660.80 572.93 655.87 C 576.75 649.14 581.38 642.92 584.91 636.04 C 588.81 630.98 591.10 624.97 594.72 619.74 Z" />
</g>
<g id="#7a121c9b">
<path fill="#7a121c" opacity="0.61" d=" M 756.55 609.48 C 755.57 607.19 758.14 606.53 759.72 605.75 C 759.24 607.08 757.56 608.58 758.76 610.01 C 760.25 611.27 762.32 611.06 764.15 611.30 C 761.56 611.87 758.11 612.06 756.55 609.48 Z" />
</g>
<g id="#bd1c46ff">
<path fill="#bd1c46" opacity="1.00" d=" M 420.10 707.69 C 422.88 709.77 425.37 712.23 427.61 714.89 C 427.53 715.81 427.47 716.74 427.41 717.68 C 429.66 719.87 431.76 722.61 435.00 723.35 C 437.40 723.99 440.76 724.98 440.80 728.01 C 440.49 731.73 440.73 735.50 442.59 738.83 C 443.33 738.39 444.08 737.96 444.83 737.54 C 445.88 740.17 446.80 742.85 447.64 745.56 C 450.05 747.34 452.80 748.98 454.18 751.77 C 455.80 754.61 455.86 757.99 457.12 760.97 C 459.92 766.32 462.58 771.85 466.65 776.39 C 469.72 779.63 473.89 781.47 477.86 783.37 C 472.90 791.81 468.43 800.51 463.50 808.97 C 461.80 805.95 460.31 802.66 457.47 800.51 C 449.25 793.73 445.00 783.69 438.58 775.43 C 434.80 771.76 432.55 766.88 428.78 763.20 C 427.18 761.75 426.66 759.65 426.20 757.65 C 425.68 757.14 425.18 756.65 424.68 756.17 C 424.34 751.85 421.33 748.53 418.70 745.36 C 415.32 741.56 413.00 736.99 409.86 733.02 C 413.02 727.58 413.93 721.25 416.83 715.71 C 418.08 713.10 418.93 710.33 420.10 707.69 Z" />
</g>
<g id="#ce1839ff">
<path fill="#ce1839" opacity="1.00" d=" M 405.54 745.39 C 406.97 741.26 408.42 737.14 409.86 733.02 C 413.00 736.99 415.32 741.56 418.70 745.36 C 421.33 748.53 424.34 751.85 424.68 756.17 C 425.18 756.65 425.68 757.14 426.20 757.65 C 426.66 759.65 427.18 761.75 428.78 763.20 C 432.55 766.88 434.80 771.76 438.58 775.43 C 445.00 783.69 449.25 793.73 457.47 800.51 C 460.31 802.66 461.80 805.95 463.50 808.97 C 458.02 817.10 454.13 826.15 449.69 834.86 C 446.89 829.99 443.05 825.80 440.36 820.86 C 439.09 818.87 438.19 816.44 436.11 815.15 C 433.40 817.91 433.18 822.17 434.48 825.66 C 436.88 832.58 439.14 839.55 441.25 846.57 C 441.64 846.53 442.41 846.44 442.79 846.39 C 441.93 848.18 441.00 849.93 440.05 851.69 C 436.26 843.74 434.86 834.95 431.18 826.97 C 431.12 820.84 428.18 815.34 426.51 809.58 C 423.80 802.27 422.70 794.49 419.90 787.21 C 416.05 776.29 413.04 765.10 409.82 753.99 C 408.92 750.89 407.28 748.08 405.54 745.39 Z" />
</g>
<g id="#c21d3fff">
<path fill="#c21d3f" opacity="1.00" d=" M 708.17 749.30 C 708.88 747.58 710.14 746.17 711.85 745.37 C 712.36 745.47 713.38 745.67 713.89 745.77 C 703.98 758.87 692.68 770.92 680.74 782.14 C 676.02 783.14 671.78 785.44 667.49 787.53 C 663.82 789.52 659.20 788.18 655.77 790.74 C 650.13 794.25 643.07 794.06 637.43 797.53 C 633.00 800.08 628.02 801.41 623.36 803.45 C 619.84 805.04 615.47 804.73 612.53 807.49 C 609.41 810.45 605.10 811.38 601.28 813.08 C 594.79 815.54 588.83 819.42 581.94 820.74 C 577.80 821.54 573.76 822.80 569.93 824.54 C 567.98 826.99 564.71 828.00 561.70 827.17 C 558.39 826.34 554.96 825.82 551.58 826.60 C 546.43 827.57 541.20 826.96 536.02 827.10 C 533.02 826.97 530.81 829.42 527.99 829.93 C 524.72 830.00 521.49 829.29 518.22 829.46 C 513.87 829.52 509.30 830.67 505.15 828.87 C 501.10 827.20 496.80 826.19 492.90 824.19 C 491.06 823.16 488.99 824.60 487.08 823.97 C 484.04 822.96 481.33 821.20 478.55 819.67 C 481.17 815.01 483.65 810.26 486.68 805.85 C 493.34 809.02 499.82 812.60 506.63 815.42 C 509.43 816.80 512.21 814.85 514.98 814.43 C 518.38 814.50 521.68 815.80 525.11 815.48 C 527.88 815.30 530.42 814.06 533.10 813.44 C 537.44 812.92 541.82 815.65 546.09 814.07 C 549.76 812.73 553.39 811.29 556.93 809.64 C 557.81 808.16 559.05 806.77 560.94 806.77 C 563.63 806.02 565.40 808.99 567.97 809.07 C 570.24 809.24 572.52 808.98 574.79 808.77 C 577.03 805.96 580.68 805.47 583.99 804.82 C 587.72 804.19 590.45 801.18 594.12 800.37 C 596.93 799.64 600.13 799.50 602.27 797.26 C 607.01 793.90 611.53 789.63 617.56 788.92 C 617.21 788.03 616.88 787.15 616.55 786.28 C 619.11 785.00 621.61 783.57 624.26 782.44 C 628.17 780.77 632.53 781.21 636.66 780.61 C 639.31 780.18 641.40 778.27 643.96 777.56 C 646.44 776.82 648.98 776.29 651.49 775.61 C 651.93 774.62 652.38 773.64 652.84 772.67 C 654.34 772.27 655.86 771.87 657.38 771.48 C 657.68 770.97 658.27 769.94 658.56 769.43 C 662.37 769.07 666.16 768.32 669.69 766.79 C 669.22 766.20 668.27 765.02 667.79 764.43 C 671.64 763.90 675.95 764.63 679.28 762.19 C 682.54 760.11 686.61 760.43 690.14 759.06 C 692.10 757.67 693.09 754.79 695.94 755.02 C 699.71 754.93 702.96 753.07 705.33 750.21 C 706.26 749.89 707.22 749.60 708.17 749.30 Z" />
</g>
<g id="#8c2072ff">
<path fill="#8c2072" opacity="1.00" d=" M 404.29 749.36 C 404.69 748.03 405.10 746.70 405.54 745.39 C 407.28 748.08 408.92 750.89 409.82 753.99 C 413.04 765.10 416.05 776.29 419.90 787.21 C 422.70 794.49 423.80 802.27 426.51 809.58 C 428.18 815.34 431.12 820.84 431.18 826.97 C 427.72 823.37 426.57 818.50 425.16 813.89 C 420.27 802.29 418.81 789.59 413.80 778.02 C 413.30 774.83 412.60 771.66 411.41 768.66 C 408.81 762.30 407.59 755.44 404.29 749.36 Z" />
</g>
<g id="#552aa2ff">
<path fill="#552aa2" opacity="1.00" d=" M 404.29 749.36 C 407.59 755.44 408.81 762.30 411.41 768.66 C 412.60 771.66 413.30 774.83 413.80 778.02 C 412.08 786.07 416.31 793.50 417.15 801.30 C 415.66 800.98 414.10 800.91 412.70 800.28 C 410.37 797.96 409.49 794.67 408.30 791.70 C 406.62 786.78 403.87 782.32 401.00 778.01 C 399.84 776.17 397.91 775.08 396.19 773.87 C 398.23 765.51 401.46 757.48 404.29 749.36 Z" />
</g>
<g id="#612995ff">
<path fill="#612995" opacity="1.00" d=" M 396.19 773.87 C 397.91 775.08 399.84 776.17 401.00 778.01 C 403.87 782.32 406.62 786.78 408.30 791.70 C 409.49 794.67 410.37 797.96 412.70 800.28 C 414.10 800.91 415.66 800.98 417.15 801.30 C 416.31 793.50 412.08 786.07 413.80 778.02 C 418.81 789.59 420.27 802.29 425.16 813.89 C 426.57 818.50 427.72 823.37 431.18 826.97 C 434.86 834.95 436.26 843.74 440.05 851.69 C 438.76 853.91 437.48 856.14 436.22 858.39 C 434.21 856.19 432.10 854.09 430.19 851.82 C 427.91 849.12 426.77 845.67 424.52 842.95 C 420.16 837.71 416.04 832.11 413.38 825.79 C 412.70 824.18 411.58 822.82 410.43 821.54 C 404.74 814.98 398.74 808.35 395.83 800.01 C 394.96 796.97 392.49 794.91 390.25 792.88 C 391.35 790.50 392.01 787.98 392.55 785.44 C 393.38 781.46 395.34 777.83 396.19 773.87 Z" />
</g>
<g id="#cd1937ff">
<path fill="#cd1937" opacity="1.00" d=" M 667.49 787.53 C 671.78 785.44 676.02 783.14 680.74 782.14 C 672.68 790.27 664.17 798.04 654.71 804.53 L 654.52 804.52 C 648.18 803.64 642.26 806.57 636.41 808.54 C 630.45 810.48 625.87 815.15 619.89 817.04 C 604.15 821.88 589.49 829.57 573.76 834.42 C 573.65 835.13 573.54 835.86 573.45 836.60 C 570.36 837.57 567.21 838.32 564.02 838.87 C 557.02 840.07 550.88 844.15 544.00 845.61 C 537.93 844.96 531.98 846.98 525.94 846.23 C 522.84 845.82 519.96 847.46 516.88 847.26 C 511.98 846.93 507.00 847.73 502.17 846.57 C 497.01 845.34 491.74 844.67 486.63 843.30 C 485.04 842.83 483.39 842.83 481.78 843.08 C 477.44 841.34 473.08 839.65 468.57 838.44 C 471.01 831.75 475.37 826.01 478.55 819.67 C 481.33 821.20 484.04 822.96 487.08 823.97 C 488.99 824.60 491.06 823.16 492.90 824.19 C 496.80 826.19 501.10 827.20 505.15 828.87 C 509.30 830.67 513.87 829.52 518.22 829.46 C 521.49 829.29 524.72 830.00 527.99 829.93 C 530.81 829.42 533.02 826.97 536.02 827.10 C 541.20 826.96 546.43 827.57 551.58 826.60 C 554.96 825.82 558.39 826.34 561.70 827.17 C 564.71 828.00 567.98 826.99 569.93 824.54 C 573.76 822.80 577.80 821.54 581.94 820.74 C 588.83 819.42 594.79 815.54 601.28 813.08 C 605.10 811.38 609.41 810.45 612.53 807.49 C 615.47 804.73 619.84 805.04 623.36 803.45 C 628.02 801.41 633.00 800.08 637.43 797.53 C 643.07 794.06 650.13 794.25 655.77 790.74 C 659.20 788.18 663.82 789.52 667.49 787.53 Z" />
</g>
<g id="#802679ff">
<path fill="#802679" opacity="1.00" d=" M 327.09 793.77 C 326.18 792.07 325.33 790.32 325.41 788.35 C 329.40 788.41 332.75 790.86 335.49 793.54 C 344.41 802.28 352.97 811.40 360.87 821.08 C 365.84 826.67 369.08 833.50 373.46 839.52 C 374.52 840.87 376.49 842.58 378.20 841.22 C 378.69 839.89 378.90 838.48 379.16 837.12 C 381.00 838.77 382.87 840.38 384.78 841.95 C 385.46 841.41 386.15 840.88 386.84 840.36 C 388.62 843.51 390.74 846.47 392.39 849.70 C 393.84 852.49 392.30 856.03 394.18 858.65 C 398.46 860.71 402.89 862.56 406.68 865.50 C 406.33 865.79 405.64 866.36 405.29 866.64 C 407.43 866.83 409.60 866.91 411.71 867.44 C 413.24 869.02 413.84 871.25 414.93 873.15 C 416.71 877.02 420.69 879.01 424.04 881.31 C 421.97 886.02 418.75 890.13 416.82 894.93 C 413.16 903.06 408.50 910.66 404.52 918.64 C 391.22 944.75 378.12 970.96 365.14 997.24 C 363.81 995.40 362.46 993.59 361.16 991.75 C 361.25 987.28 356.53 985.02 354.79 981.31 C 356.13 977.84 359.64 974.98 359.11 971.00 C 357.78 967.85 353.88 968.10 351.10 967.48 C 345.15 966.22 339.09 965.84 333.02 965.76 C 332.85 964.61 332.68 963.49 332.52 962.37 C 333.73 962.04 334.95 961.71 336.17 961.39 C 334.09 959.94 331.51 959.10 329.74 957.30 C 329.64 954.05 329.71 950.72 327.86 947.88 L 328.05 947.29 C 332.22 945.50 336.99 946.69 341.16 945.18 C 343.41 943.27 340.29 941.35 338.64 940.51 C 331.67 937.12 326.00 931.79 319.91 927.11 C 314.57 922.10 309.24 917.02 304.50 911.43 C 303.08 910.10 303.44 908.06 303.30 906.34 C 309.17 905.83 313.40 910.51 318.40 912.72 C 331.99 918.64 345.84 925.78 361.07 925.35 C 362.51 924.87 363.69 923.57 363.91 922.06 C 365.05 909.29 362.44 896.65 361.19 883.99 C 360.59 879.54 358.11 875.54 357.97 871.00 C 358.06 865.91 353.92 862.01 353.95 856.94 C 353.94 853.97 352.06 851.58 350.84 849.03 C 346.75 835.86 340.76 823.37 335.44 810.65 C 332.79 804.96 329.27 799.68 327.09 793.77 Z" />
</g>
<g id="#712986ff">
<path fill="#712986" opacity="1.00" d=" M 382.79 821.15 C 384.84 811.61 387.78 802.30 390.25 792.88 C 392.49 794.91 394.96 796.97 395.83 800.01 C 398.74 808.35 404.74 814.98 410.43 821.54 C 411.58 822.82 412.70 824.18 413.38 825.79 C 416.04 832.11 420.16 837.71 424.52 842.95 C 426.77 845.67 427.91 849.12 430.19 851.82 C 432.10 854.09 434.21 856.19 436.22 858.39 C 433.03 866.47 427.66 873.43 424.04 881.31 C 420.69 879.01 416.71 877.02 414.93 873.15 C 413.84 871.25 413.24 869.02 411.71 867.44 C 409.60 866.91 407.43 866.83 405.29 866.64 C 405.64 866.36 406.33 865.79 406.68 865.50 C 402.89 862.56 398.46 860.71 394.18 858.65 C 392.30 856.03 393.84 852.49 392.39 849.70 C 390.74 846.47 388.62 843.51 386.84 840.36 C 386.15 840.88 385.46 841.41 384.78 841.95 C 382.87 840.38 381.00 838.77 379.16 837.12 C 379.62 831.64 381.75 826.52 382.79 821.15 Z" />
</g>
<g id="#da152eff">
<path fill="#da152e" opacity="1.00" d=" M 636.41 808.54 C 642.26 806.57 648.18 803.64 654.52 804.52 C 648.96 809.50 642.88 813.86 636.37 817.52 C 628.61 823.06 620.26 827.73 611.67 831.84 C 605.16 836.07 597.65 838.36 590.75 841.85 C 584.06 845.27 576.73 847.09 569.88 850.12 C 555.86 854.59 541.60 858.40 527.09 861.01 C 518.83 862.67 510.43 863.76 501.99 863.68 C 498.91 863.66 495.93 864.52 493.06 865.56 C 492.38 866.21 491.71 866.88 491.05 867.55 C 486.01 867.56 481.05 866.50 476.01 866.52 C 468.46 866.52 460.92 866.56 453.37 866.48 C 453.62 865.81 454.10 864.47 454.35 863.80 C 461.56 863.37 468.78 862.96 476.00 863.23 C 480.86 863.09 486.00 863.84 490.61 861.91 C 489.01 858.66 484.91 858.70 481.82 858.18 C 474.26 857.97 467.14 855.18 459.63 854.66 C 463.26 849.63 465.78 843.94 468.57 838.44 C 473.08 839.65 477.44 841.34 481.78 843.08 C 483.39 842.83 485.04 842.83 486.63 843.30 C 491.74 844.67 497.01 845.34 502.17 846.57 C 507.00 847.73 511.98 846.93 516.88 847.26 C 519.96 847.46 522.84 845.82 525.94 846.23 C 531.98 846.98 537.93 844.96 544.00 845.61 C 550.88 844.15 557.02 840.07 564.02 838.87 C 567.21 838.32 570.36 837.57 573.45 836.60 C 573.54 835.86 573.65 835.13 573.76 834.42 C 589.49 829.57 604.15 821.88 619.89 817.04 C 625.87 815.15 630.45 810.48 636.41 808.54 Z" />
</g>
<g id="#e3122aff">
<path fill="#e3122a" opacity="1.00" d=" M 436.11 815.15 C 438.19 816.44 439.09 818.87 440.36 820.86 C 443.05 825.80 446.89 829.99 449.69 834.86 C 447.28 838.63 445.14 842.57 442.79 846.39 C 442.41 846.44 441.64 846.53 441.25 846.57 C 439.14 839.55 436.88 832.58 434.48 825.66 C 433.18 822.17 433.40 817.91 436.11 815.15 Z" />
</g>
<g id="#5f2c96ff">
<path fill="#5f2c96" opacity="1.00" d=" M 640.31 846.24 C 641.64 845.40 643.24 845.39 644.75 845.18 C 644.65 847.21 644.51 849.37 643.09 850.98 C 639.39 855.78 635.70 860.60 631.76 865.20 C 628.77 866.22 625.69 867.17 623.13 869.10 C 620.38 871.36 616.65 871.28 613.50 872.61 C 610.94 873.91 608.81 875.99 606.07 876.95 C 599.11 878.92 592.90 882.71 586.10 885.12 C 579.41 888.86 570.99 888.03 564.76 892.62 C 558.25 890.86 552.47 895.39 545.99 895.15 C 540.40 895.20 535.69 899.14 530.08 899.01 C 525.72 899.04 521.34 898.98 517.06 899.85 C 516.73 899.34 516.42 898.84 516.11 898.35 C 511.33 899.10 506.60 898.05 501.92 897.25 C 498.78 896.57 495.78 897.98 492.70 898.24 C 484.62 897.99 476.70 896.38 468.78 894.95 C 468.63 895.49 468.33 896.57 468.18 897.12 C 464.29 895.09 460.46 892.62 456.00 892.15 C 451.23 891.31 444.95 890.31 443.38 884.92 C 446.55 878.74 450.08 872.74 453.08 866.48 L 453.37 866.48 C 460.92 866.56 468.46 866.52 476.01 866.52 C 481.05 866.50 486.01 867.56 491.05 867.55 C 491.71 866.88 492.38 866.21 493.06 865.56 C 493.21 866.44 493.36 867.33 493.52 868.23 C 494.93 868.91 496.31 869.67 497.66 870.50 C 488.31 871.48 478.60 869.06 469.54 872.16 C 473.17 875.73 478.47 876.02 483.24 876.63 C 487.15 877.12 491.07 876.37 494.99 876.53 C 505.15 877.60 515.62 879.81 525.75 877.44 C 539.82 878.69 554.08 878.57 568.10 876.64 C 576.71 874.52 585.60 873.34 593.85 869.94 C 604.67 867.00 614.48 861.40 624.42 856.36 C 629.71 852.98 634.86 849.36 640.31 846.24 Z" />
</g>
<g id="#ee0f24ff">
<path fill="#ee0f24" opacity="1.00" d=" M 454.35 863.80 C 456.27 860.85 457.97 857.76 459.63 854.66 C 467.14 855.18 474.26 857.97 481.82 858.18 C 484.91 858.70 489.01 858.66 490.61 861.91 C 486.00 863.84 480.86 863.09 476.00 863.23 C 468.78 862.96 461.56 863.37 454.35 863.80 Z" />
</g>
<g id="#6e2a89ff">
<path fill="#6e2a89" opacity="1.00" d=" M 623.13 869.10 C 625.69 867.17 628.77 866.22 631.76 865.20 C 625.46 873.30 617.98 880.42 610.57 887.50 C 603.94 894.09 595.74 898.70 588.32 904.28 C 585.47 906.31 582.24 907.68 579.13 909.25 L 579.00 909.21 C 575.77 907.65 572.26 908.51 569.44 910.50 C 564.98 913.18 560.24 915.31 555.57 917.59 C 553.12 918.91 550.22 917.90 547.66 918.79 C 543.08 920.44 538.18 919.87 533.43 920.08 C 533.12 921.36 532.82 922.64 532.52 923.94 C 526.23 924.60 520.44 921.56 514.27 920.97 C 513.39 922.17 512.63 923.49 511.54 924.53 C 509.86 924.94 508.12 925.02 506.40 925.22 C 506.74 925.65 507.40 926.52 507.73 926.96 C 505.93 926.70 504.14 926.44 502.35 926.19 C 502.76 925.49 503.17 924.79 503.59 924.11 C 498.74 921.76 493.50 923.28 488.41 923.31 C 488.39 924.43 488.38 925.57 488.37 926.72 C 480.31 927.02 472.56 924.49 465.07 921.83 C 464.51 922.78 463.96 923.73 463.42 924.70 C 460.89 924.72 458.29 924.92 455.84 924.20 C 453.89 923.08 452.63 921.09 450.90 919.69 C 450.72 920.31 450.38 921.55 450.20 922.16 C 444.98 920.59 439.98 915.91 434.27 918.22 C 433.17 917.76 432.07 917.31 430.98 916.87 C 429.99 917.41 429.00 917.98 428.02 918.54 C 427.12 918.02 426.23 917.50 425.35 917.00 C 431.43 906.34 436.81 895.29 443.38 884.92 C 444.95 890.31 451.23 891.31 456.00 892.15 C 460.46 892.62 464.29 895.09 468.18 897.12 C 468.33 896.57 468.63 895.49 468.78 894.95 C 476.70 896.38 484.62 897.99 492.70 898.24 C 495.78 897.98 498.78 896.57 501.92 897.25 C 506.60 898.05 511.33 899.10 516.11 898.35 C 516.42 898.84 516.73 899.34 517.06 899.85 C 521.34 898.98 525.72 899.04 530.08 899.01 C 535.69 899.14 540.40 895.20 545.99 895.15 C 552.47 895.39 558.25 890.86 564.76 892.62 C 570.99 888.03 579.41 888.86 586.10 885.12 C 592.90 882.71 599.11 878.92 606.07 876.95 C 608.81 875.99 610.94 873.91 613.50 872.61 C 616.65 871.28 620.38 871.36 623.13 869.10 Z" />
</g>
<g id="#4a2ea6ff">
<path fill="#4a2ea6" opacity="1.00" d=" M 469.54 872.16 C 478.60 869.06 488.31 871.48 497.66 870.50 L 497.98 870.49 C 506.34 875.71 516.63 874.53 525.75 877.44 C 515.62 879.81 505.15 877.60 494.99 876.53 C 491.07 876.37 487.15 877.12 483.24 876.63 C 478.47 876.02 473.17 875.73 469.54 872.16 Z" />
</g>
<g id="#79297eff">
<path fill="#79297e" opacity="1.00" d=" M 569.44 910.50 C 572.26 908.51 575.77 907.65 579.00 909.21 C 570.57 914.26 561.42 918.01 552.19 921.30 C 545.07 925.61 536.83 927.35 528.92 929.59 C 526.65 930.09 524.46 931.79 525.52 934.36 C 527.25 935.98 529.77 936.03 532.01 936.15 C 538.68 936.09 545.38 936.74 552.02 935.84 C 556.92 935.57 561.31 933.23 565.96 931.91 C 572.53 929.93 577.84 924.22 584.96 924.13 C 584.79 925.23 584.56 926.33 584.26 927.43 C 580.50 933.47 574.61 937.67 570.12 943.11 C 565.57 948.62 559.93 953.12 553.86 956.86 C 541.24 965.84 526.64 971.60 511.83 975.86 C 486.20 982.79 459.29 982.60 433.04 980.41 C 426.09 978.96 418.85 979.49 412.02 977.40 C 409.70 976.57 407.22 976.51 405.20 978.09 C 401.93 975.57 398.88 972.47 394.51 972.16 C 396.52 967.78 399.47 963.93 401.60 959.61 C 404.20 955.41 405.84 950.68 408.66 946.62 C 413.02 940.09 415.63 932.59 420.13 926.15 C 422.12 923.24 423.57 920.03 425.35 917.00 C 426.23 917.50 427.12 918.02 428.02 918.54 C 429.00 917.98 429.99 917.41 430.98 916.87 C 432.07 917.31 433.17 917.76 434.27 918.22 C 439.98 915.91 444.98 920.59 450.20 922.16 C 450.38 921.55 450.72 920.31 450.90 919.69 C 452.63 921.09 453.89 923.08 455.84 924.20 C 458.29 924.92 460.89 924.72 463.42 924.70 C 463.96 923.73 464.51 922.78 465.07 921.83 C 472.56 924.49 480.31 927.02 488.37 926.72 C 488.38 925.57 488.39 924.43 488.41 923.31 C 493.50 923.28 498.74 921.76 503.59 924.11 C 503.17 924.79 502.76 925.49 502.35 926.19 C 504.14 926.44 505.93 926.70 507.73 926.96 C 507.40 926.52 506.74 925.65 506.40 925.22 C 508.12 925.02 509.86 924.94 511.54 924.53 C 512.63 923.49 513.39 922.17 514.27 920.97 C 520.44 921.56 526.23 924.60 532.52 923.94 C 532.82 922.64 533.12 921.36 533.43 920.08 C 538.18 919.87 543.08 920.44 547.66 918.79 C 550.22 917.90 553.12 918.91 555.57 917.59 C 560.24 915.31 564.98 913.18 569.44 910.50 Z" />
</g>
<g id="#732a7fff">
<path fill="#732a7f" opacity="1.00" d=" M 300.24 955.22 C 309.08 952.16 317.97 948.88 327.26 947.57 L 327.86 947.88 C 329.71 950.72 329.64 954.05 329.74 957.30 C 331.51 959.10 334.09 959.94 336.17 961.39 C 334.95 961.71 333.73 962.04 332.52 962.37 C 332.68 963.49 332.85 964.61 333.02 965.76 C 322.25 965.27 311.61 967.55 300.91 968.38 C 292.36 969.09 284.49 973.56 275.86 973.41 C 275.07 971.71 274.39 969.94 274.48 968.05 C 282.17 962.16 291.67 959.50 300.24 955.22 Z" />
</g>
<g id="#2a103567">
<path fill="#2a1035" opacity="0.40" d=" M 271.48 969.47 C 272.47 968.98 273.47 968.51 274.48 968.05 C 274.39 969.94 275.07 971.71 275.86 973.41 C 274.51 972.94 273.16 972.52 271.81 972.12 C 271.69 971.22 271.58 970.34 271.48 969.47 Z" />
</g>
<g id="#712b7fff">
<path fill="#712b7f" opacity="1.00" d=" M 394.32 972.11 L 394.51 972.16 C 398.88 972.47 401.93 975.57 405.20 978.09 C 405.68 982.68 409.70 985.54 411.24 989.73 C 414.07 993.89 415.15 998.87 417.63 1003.23 C 418.82 1010.24 421.66 1016.89 422.16 1024.03 C 422.58 1026.93 422.77 1029.95 421.42 1032.67 C 420.51 1032.62 419.60 1032.60 418.69 1032.58 C 417.29 1029.91 415.40 1027.55 413.83 1024.99 C 410.37 1013.62 404.09 1003.31 397.35 993.58 C 395.70 990.93 393.15 989.12 390.90 987.05 C 389.10 985.52 388.34 982.67 389.73 980.64 C 391.44 977.89 393.11 975.12 394.32 972.11 Z" />
</g>
<g id="#71287cff">
<path fill="#71287c" opacity="1.00" d=" M 349.84 989.88 C 351.71 987.15 353.53 984.38 354.79 981.31 C 356.53 985.02 361.25 987.28 361.16 991.75 C 362.46 993.59 363.81 995.40 365.14 997.24 C 362.05 1005.24 356.67 1012.16 353.92 1020.30 C 353.49 1019.00 353.06 1017.71 352.64 1016.44 C 350.21 1016.64 347.73 1017.08 345.32 1016.62 C 342.72 1014.87 340.87 1012.26 338.69 1010.06 C 342.71 1003.50 345.97 996.52 349.84 989.88 Z" />
</g>
<g id="#6a2a80ff">
<path fill="#6a2a80" opacity="1.00" d=" M 320.21 1045.25 C 325.79 1033.21 333.22 1022.17 338.69 1010.06 C 340.87 1012.26 342.72 1014.87 345.32 1016.62 C 347.73 1017.08 350.21 1016.64 352.64 1016.44 C 353.06 1017.71 353.49 1019.00 353.92 1020.30 C 349.80 1027.91 346.19 1035.78 342.41 1043.56 C 338.04 1050.75 334.64 1058.44 331.14 1066.07 L 330.87 1066.00 C 327.08 1064.91 323.18 1063.99 319.22 1064.31 C 316.52 1064.54 313.86 1064.00 311.31 1063.16 C 314.29 1057.19 316.71 1050.95 320.21 1045.25 Z" />
</g>
<g id="#732c8eff">
<path fill="#732c8e" opacity="1.00" d=" M 311.31 1063.16 C 313.86 1064.00 316.52 1064.54 319.22 1064.31 C 323.18 1063.99 327.08 1064.91 330.87 1066.00 C 327.23 1073.80 323.54 1081.64 318.99 1088.96 C 312.41 1088.79 305.79 1088.22 299.64 1085.68 C 302.81 1077.81 307.01 1070.45 311.31 1063.16 Z" />
</g>
<g id="#81319eff">
<path fill="#81319e" opacity="1.00" d=" M 299.64 1085.68 C 305.79 1088.22 312.41 1088.79 318.99 1088.96 C 317.23 1093.38 314.90 1097.52 312.98 1101.87 C 309.01 1101.24 305.06 1100.26 301.01 1100.46 C 298.20 1100.58 295.40 1100.37 292.62 1099.94 C 294.86 1095.14 296.86 1090.20 299.64 1085.68 Z" />
</g>
<g id="#8e32acff">
<path fill="#8e32ac" opacity="1.00" d=" M 292.62 1099.94 C 295.40 1100.37 298.20 1100.58 301.01 1100.46 C 305.06 1100.26 309.01 1101.24 312.98 1101.87 C 311.08 1105.43 309.13 1108.98 307.71 1112.79 C 300.96 1111.54 294.21 1109.83 287.29 1110.11 C 289.05 1106.71 290.97 1103.39 292.62 1099.94 Z" />
</g>
<g id="#9e38bcff">
<path fill="#9e38bc" opacity="1.00" d=" M 287.29 1110.11 C 294.21 1109.83 300.96 1111.54 307.71 1112.79 C 305.35 1117.04 303.52 1121.61 300.66 1125.59 C 298.32 1129.34 296.76 1133.51 295.05 1137.58 C 289.94 1133.30 285.63 1128.17 280.48 1123.93 C 282.41 1119.19 285.04 1114.78 287.11 1110.11 L 287.29 1110.11 Z" />
</g>
<g id="#8933acff">
<path fill="#8933ac" opacity="1.00" d=" M 278.27 1128.03 C 279.01 1126.65 279.75 1125.30 280.48 1123.93 C 285.63 1128.17 289.94 1133.30 295.05 1137.58 C 294.19 1139.57 293.25 1141.53 292.24 1143.47 C 286.94 1138.93 282.40 1133.62 278.27 1128.03 Z" />
</g>
<g id="#77319fff">
<path fill="#77319f" opacity="1.00" d=" M 276.14 1132.95 C 276.81 1131.28 277.52 1129.65 278.27 1128.03 C 282.40 1133.62 286.94 1138.93 292.24 1143.47 C 291.46 1144.88 290.68 1146.29 289.90 1147.72 C 284.54 1143.60 279.36 1138.99 276.14 1132.95 Z" />
</g>
<g id="#612c8dff">
<path fill="#612c8d" opacity="1.00" d=" M 272.19 1141.87 C 273.13 1138.74 274.98 1135.99 276.14 1132.95 C 279.36 1138.99 284.54 1143.60 289.90 1147.72 C 288.09 1151.55 286.27 1155.38 284.39 1159.18 C 281.10 1152.84 275.00 1148.48 272.19 1141.87 Z" />
</g>
<g id="#442878ff">
<path fill="#442878" opacity="1.00" d=" M 267.15 1151.20 C 268.24 1147.78 270.65 1145.06 272.19 1141.87 C 275.00 1148.48 281.10 1152.84 284.39 1159.18 C 283.00 1162.43 281.11 1165.42 279.16 1168.37 C 276.15 1162.00 271.86 1156.40 267.15 1151.20 Z" />
</g>
<g id="#2a2463ff">
<path fill="#2a2463" opacity="1.00" d=" M 266.98 1151.00 L 267.15 1151.20 C 271.86 1156.40 276.15 1162.00 279.16 1168.37 L 279.43 1168.88 C 278.31 1171.03 277.17 1173.18 275.98 1175.31 C 272.59 1169.51 267.55 1165.05 262.61 1160.62 C 263.74 1157.26 265.39 1154.14 266.98 1151.00 Z" />
</g>
<g id="#0e2150ff">
<path fill="#0e2150" opacity="1.00" d=" M 262.61 1160.62 C 267.55 1165.05 272.59 1169.51 275.98 1175.31 C 274.99 1177.60 274.05 1179.91 273.05 1182.20 C 267.09 1178.50 263.36 1172.51 259.29 1167.01 C 260.42 1164.88 261.55 1162.76 262.61 1160.62 Z" />
</g>
<g id="#001d36ff">
<path fill="#001d36" opacity="1.00" d=" M 253.07 1181.14 C 255.08 1176.40 257.04 1171.63 259.29 1167.01 C 263.36 1172.51 267.09 1178.50 273.05 1182.20 C 270.35 1186.89 268.77 1192.10 266.06 1196.79 L 265.99 1196.78 C 259.26 1196.05 252.53 1195.27 245.78 1194.74 C 248.08 1190.13 250.27 1185.46 253.07 1181.14 Z" />
</g>
<g id="#002042ff">
<path fill="#002042" opacity="1.00" d=" M 245.78 1194.74 C 252.53 1195.27 259.26 1196.05 265.99 1196.78 C 264.55 1200.47 262.08 1203.62 260.52 1207.26 C 253.78 1206.98 247.12 1205.65 240.36 1205.92 C 242.27 1202.24 244.22 1198.58 245.78 1194.74 Z" />
</g>
<g id="#09214bff">
<path fill="#09214b" opacity="1.00" d=" M 240.36 1205.92 C 247.12 1205.65 253.78 1206.98 260.52 1207.26 C 259.08 1209.95 257.66 1212.67 256.77 1215.60 L 256.65 1215.59 C 252.57 1215.09 248.46 1215.00 244.37 1215.21 C 244.74 1215.74 245.49 1216.80 245.87 1217.33 C 242.57 1216.88 239.48 1215.60 236.75 1213.72 C 237.92 1211.09 239.10 1208.49 240.36 1205.92 Z" />
</g>
<g id="#182355ff">
<path fill="#182355" opacity="1.00" d=" M 236.75 1213.72 C 239.48 1215.60 242.57 1216.88 245.87 1217.33 C 245.49 1216.80 244.74 1215.74 244.37 1215.21 C 248.46 1215.00 252.57 1215.09 256.65 1215.59 C 254.12 1222.12 250.62 1228.22 248.18 1234.79 L 247.96 1234.74 C 241.36 1233.34 234.75 1231.59 227.94 1231.79 C 231.04 1225.84 234.27 1219.96 236.75 1213.72 Z" />
</g>
<g id="#25255fff">
<path fill="#25255f" opacity="1.00" d=" M 227.94 1231.79 C 234.75 1231.59 241.36 1233.34 247.96 1234.74 C 245.37 1240.52 242.04 1245.96 239.67 1251.85 L 239.56 1251.80 C 235.57 1250.64 233.05 1246.38 228.68 1246.41 C 225.94 1246.21 223.21 1246.49 220.49 1246.73 C 223.02 1241.77 225.48 1236.78 227.94 1231.79 Z" />
</g>
<g id="#2c2665ff">
<path fill="#2c2665" opacity="1.00" d=" M 220.49 1246.73 C 223.21 1246.49 225.94 1246.21 228.68 1246.41 C 233.05 1246.38 235.57 1250.64 239.56 1251.80 C 237.08 1259.95 231.02 1266.27 224.40 1271.32 C 221.48 1273.01 218.43 1274.96 215.00 1275.24 C 213.11 1274.70 211.34 1273.84 209.52 1273.16 C 209.40 1271.42 209.35 1269.69 209.40 1267.98 C 215.11 1262.21 216.86 1253.81 220.49 1246.73 Z" />
</g>
</svg>
