<?xml version="1.0" encoding="UTF-8" ?>
<!DOCTYPE svg PUBLIC "-//W3C//DTD SVG 1.1//EN" "http://www.w3.org/Graphics/SVG/1.1/DTD/svg11.dtd">
<svg width="1280pt" height="1056pt" viewBox="0 0 1280 1056" version="1.1" xmlns="http://www.w3.org/2000/svg">
<g id="#00618aff">
<path fill="#00618a" opacity="1.00" d=" M 539.00 3.69 C 540.65 3.53 542.31 3.38 543.97 3.19 C 549.50 2.01 555.39 2.17 560.94 3.20 C 563.95 3.58 567.00 3.71 570.04 3.53 C 569.01 3.75 567.98 3.97 566.96 4.21 C 569.82 4.61 572.68 5.17 575.54 5.64 L 575.50 6.32 C 578.07 6.54 580.62 7.06 582.96 8.18 C 585.04 8.67 587.09 9.34 589.01 10.30 C 589.63 10.36 590.86 10.49 591.47 10.56 L 591.50 11.32 C 595.75 12.63 599.87 14.34 603.85 16.34 C 604.93 16.79 606.03 17.24 607.13 17.69 C 610.43 19.43 613.82 21.00 617.14 22.71 C 624.24 26.54 631.19 30.63 638.06 34.86 C 646.12 40.04 652.28 47.92 661.00 52.09 C 670.14 54.08 679.66 52.72 688.88 54.27 C 693.52 54.88 698.32 53.92 702.88 55.22 C 703.89 55.56 704.91 55.90 705.94 56.24 C 707.61 56.41 709.33 56.60 710.91 57.25 C 713.65 58.03 716.47 58.51 719.32 58.73 C 718.69 58.86 717.44 59.11 716.81 59.24 C 722.07 59.11 726.81 61.95 732.07 61.72 C 731.39 61.85 730.02 62.10 729.34 62.23 C 732.27 62.61 735.29 63.00 737.96 64.38 C 738.49 64.44 739.53 64.57 740.05 64.63 C 741.36 65.19 742.68 65.74 743.99 66.34 C 744.50 66.41 745.53 66.56 746.04 66.63 C 747.31 67.18 748.60 67.71 749.89 68.23 C 752.27 69.11 754.59 70.15 756.89 71.22 C 758.65 72.01 760.38 72.85 762.12 73.70 C 780.25 83.97 797.87 95.15 815.09 106.88 C 816.72 108.01 818.29 109.22 819.84 110.47 C 820.12 110.57 820.69 110.78 820.97 110.89 C 837.12 122.65 852.94 134.89 867.87 148.18 C 877.60 157.37 887.81 166.11 896.57 176.28 C 918.59 199.31 937.85 224.86 955.24 251.53 C 960.88 260.75 967.34 269.56 971.72 279.48 L 972.22 279.56 C 973.52 283.29 975.66 286.67 976.71 290.50 L 977.24 290.54 C 979.03 295.74 981.24 300.79 983.21 305.93 C 983.72 307.32 984.27 308.70 984.80 310.10 C 985.02 310.61 985.48 311.63 985.70 312.14 C 986.05 313.12 986.41 314.10 986.78 315.09 C 987.63 317.02 988.44 318.96 989.28 320.91 C 991.15 326.20 993.90 331.13 995.70 336.46 L 996.24 336.52 C 997.05 338.84 997.95 341.13 998.77 343.45 L 999.30 343.53 C 1000.45 347.20 1002.35 350.55 1003.77 354.11 C 1004.24 355.05 1004.72 355.99 1005.22 356.94 C 1006.89 361.19 1009.32 365.12 1010.74 369.48 L 1011.26 369.59 C 1013.93 376.65 1017.79 383.17 1020.83 390.07 C 1021.51 391.37 1022.12 392.71 1022.71 394.08 C 1023.54 395.70 1024.40 397.31 1025.30 398.91 C 1026.09 400.63 1026.89 402.36 1027.74 404.07 C 1028.65 405.40 1029.22 406.91 1029.76 408.44 L 1030.31 408.51 C 1030.84 410.00 1031.45 411.49 1032.28 412.87 C 1033.25 414.65 1034.09 416.52 1034.78 418.44 L 1035.40 418.47 C 1035.80 419.80 1036.23 421.13 1036.66 422.47 L 1037.29 422.56 C 1037.80 424.06 1038.41 425.54 1039.15 426.97 C 1041.01 431.00 1042.96 435.00 1044.79 439.06 C 1049.64 447.20 1053.05 457.91 1062.81 461.41 C 1064.21 461.85 1065.61 462.32 1067.04 462.79 C 1068.31 463.31 1069.60 463.76 1070.92 464.21 C 1072.30 464.69 1073.66 465.25 1075.02 465.83 C 1076.36 466.49 1077.72 467.12 1079.11 467.73 C 1082.76 469.44 1086.36 471.27 1090.10 472.81 C 1093.19 474.14 1096.23 475.63 1099.44 476.70 L 1099.57 477.21 C 1101.86 478.02 1104.13 478.93 1106.42 479.79 L 1106.51 480.40 C 1107.83 480.79 1109.15 481.20 1110.49 481.60 L 1110.57 482.23 C 1117.73 484.77 1124.26 488.81 1130.75 492.73 C 1155.59 508.51 1179.04 526.38 1201.74 545.07 C 1208.84 551.28 1216.81 556.66 1222.55 564.25 C 1228.31 571.10 1233.09 578.78 1239.43 585.13 C 1239.56 586.87 1239.67 588.62 1239.80 590.37 C 1237.22 591.69 1234.34 592.23 1231.52 592.69 L 1231.52 593.46 C 1230.32 593.53 1229.15 593.60 1227.99 593.68 C 1226.66 594.24 1225.35 594.79 1224.05 595.37 C 1222.86 595.44 1221.68 595.52 1220.52 595.61 L 1220.50 596.35 C 1219.32 596.57 1218.15 596.82 1217.00 597.08 C 1214.41 597.89 1211.76 598.53 1209.08 598.94 C 1207.71 599.23 1206.34 599.50 1205.00 599.81 C 1199.02 600.82 1192.92 600.99 1186.96 602.15 C 1178.83 602.31 1170.92 604.22 1163.00 605.84 C 1161.67 606.29 1160.34 606.73 1159.02 607.17 C 1157.63 607.43 1156.29 607.70 1154.98 608.15 C 1148.16 609.62 1141.59 612.62 1134.54 612.65 L 1134.46 613.41 C 1132.68 613.47 1130.93 613.57 1129.18 613.67 C 1130.11 619.11 1134.12 623.30 1137.77 627.18 C 1154.12 643.02 1175.88 651.31 1193.72 665.15 C 1207.69 675.41 1220.23 687.46 1232.00 700.15 C 1237.12 705.97 1241.53 712.41 1247.30 717.65 C 1251.59 722.35 1257.10 726.15 1259.87 732.06 C 1260.59 733.82 1261.26 735.63 1261.76 737.49 L 1262.29 737.51 C 1262.74 738.73 1263.23 739.97 1263.77 741.19 C 1264.08 742.21 1264.71 744.24 1265.02 745.26 C 1257.95 742.38 1253.69 735.70 1247.62 731.41 C 1231.99 719.85 1216.71 707.47 1199.04 699.09 C 1197.58 698.40 1196.09 697.78 1194.61 697.22 L 1194.51 696.60 C 1193.16 696.18 1191.84 695.76 1190.53 695.36 L 1190.46 694.74 C 1186.10 693.31 1182.16 690.91 1177.92 689.21 C 1176.96 688.73 1176.02 688.25 1175.09 687.78 C 1169.84 685.61 1164.86 682.89 1159.84 680.28 C 1150.12 674.94 1140.97 668.65 1132.17 661.93 C 1126.12 657.27 1119.75 653.01 1114.20 647.74 C 1108.44 641.84 1102.96 635.65 1098.22 628.89 C 1094.93 624.24 1091.60 619.50 1089.72 614.07 C 1089.00 609.68 1084.35 606.44 1085.50 601.80 C 1087.09 598.89 1090.03 597.17 1092.88 595.69 C 1094.99 595.32 1097.04 594.63 1099.01 593.76 C 1100.00 593.60 1101.01 593.46 1102.04 593.32 C 1103.28 592.73 1104.57 592.20 1105.88 591.71 C 1107.30 591.24 1108.70 590.71 1110.12 590.20 C 1114.22 588.57 1118.34 586.76 1122.78 586.28 L 1122.17 585.68 C 1126.20 585.23 1129.93 583.37 1134.02 583.18 C 1137.35 581.83 1140.93 581.41 1144.52 581.39 L 1144.49 580.65 C 1149.66 580.05 1154.94 579.86 1160.02 578.73 C 1175.14 578.03 1190.31 578.08 1205.45 578.32 C 1205.91 572.98 1200.87 569.89 1197.64 566.48 C 1188.62 558.73 1177.84 553.39 1168.16 546.55 C 1153.53 536.23 1139.04 525.69 1123.87 516.18 C 1118.65 512.72 1113.12 509.66 1107.16 507.68 C 1106.64 507.46 1105.61 507.02 1105.09 506.80 C 1102.61 505.82 1100.09 504.94 1097.52 504.28 L 1097.50 503.54 C 1096.86 503.49 1095.58 503.39 1094.94 503.34 C 1092.04 502.00 1089.01 501.02 1086.06 499.82 C 1083.35 498.84 1080.61 497.92 1078.02 496.66 C 1077.51 496.57 1076.48 496.38 1075.96 496.29 C 1070.73 494.29 1065.32 492.78 1059.95 491.22 C 1058.62 490.72 1057.31 490.23 1056.02 489.72 C 1055.48 489.62 1054.39 489.44 1053.84 489.34 C 1051.24 488.17 1048.57 487.21 1045.89 486.27 C 1045.39 486.03 1044.38 485.57 1043.88 485.33 C 1038.59 483.03 1033.10 480.32 1029.79 475.37 C 1021.43 463.50 1013.84 450.93 1008.23 437.53 L 1007.60 437.51 C 1007.19 436.16 1006.77 434.83 1006.40 433.49 L 1005.79 433.43 C 1004.70 429.61 1002.22 426.37 1001.28 422.51 L 1000.71 422.51 C 1000.25 421.24 999.79 420.00 999.35 418.76 C 998.75 417.55 998.18 416.32 997.64 415.11 C 997.44 414.60 997.03 413.57 996.83 413.05 C 995.65 410.33 994.35 407.66 993.21 404.92 C 992.73 404.00 992.25 403.08 991.79 402.16 C 990.81 399.81 989.73 397.50 988.66 395.19 C 988.07 393.80 987.48 392.43 986.78 391.12 C 984.45 385.64 981.50 380.45 979.19 374.96 C 978.31 373.37 977.49 371.75 976.69 370.13 C 975.87 368.38 975.04 366.65 974.25 364.91 C 973.74 363.96 973.25 363.01 972.77 362.07 C 971.13 357.79 968.57 353.92 967.18 349.55 L 966.58 349.53 C 966.18 348.17 965.78 346.83 965.41 345.48 L 964.78 345.48 C 963.98 342.94 962.88 340.51 961.67 338.15 C 961.20 337.05 960.75 335.96 960.32 334.87 C 958.50 331.41 957.24 327.72 955.82 324.10 C 955.25 322.69 954.66 321.30 954.12 319.89 C 953.77 318.55 953.85 316.96 952.60 316.09 C 952.26 314.63 951.81 313.22 951.35 311.82 C 950.96 310.85 950.58 309.88 950.24 308.92 C 949.39 307.19 948.72 305.39 948.25 303.54 L 947.64 303.50 C 947.23 302.27 946.80 301.06 946.41 299.84 C 945.32 297.86 944.29 295.85 943.30 293.83 C 934.34 277.23 924.61 261.03 913.81 245.55 C 881.04 198.33 839.45 157.18 791.42 125.54 C 774.63 114.59 757.29 104.35 738.91 96.28 C 734.98 94.43 730.91 92.93 726.94 91.21 C 725.93 90.85 724.92 90.50 723.92 90.16 C 720.29 88.73 716.57 87.53 712.86 86.35 C 701.67 82.21 689.63 82.51 677.93 81.61 C 671.52 81.86 665.28 80.20 658.95 79.58 C 654.98 79.21 650.90 80.10 647.02 78.97 C 636.55 74.42 629.78 64.57 619.79 59.26 L 619.32 58.88 C 617.49 57.32 615.55 55.88 613.46 54.70 C 604.56 49.71 595.51 44.97 586.16 40.88 C 576.65 36.77 567.17 32.36 557.02 30.04 C 552.77 29.03 548.27 28.08 543.94 29.19 C 539.65 30.55 534.96 32.67 533.18 37.14 C 529.88 43.12 531.25 50.26 533.78 56.25 C 535.74 60.99 537.93 65.72 541.22 69.71 C 549.89 82.51 560.44 93.89 569.19 106.63 C 576.02 116.06 582.68 125.66 588.20 135.93 C 589.27 138.22 590.34 140.51 591.34 142.84 C 592.49 145.71 593.80 148.52 594.71 151.49 L 595.30 151.51 C 595.55 152.64 595.81 153.78 596.10 154.91 C 597.04 157.29 597.94 159.70 598.91 162.07 C 599.16 163.21 599.41 164.36 599.66 165.51 L 600.27 165.52 C 600.65 167.40 601.16 169.24 601.71 171.08 C 602.24 172.67 602.74 174.29 603.39 175.85 C 603.94 177.69 604.42 179.55 604.75 181.44 L 605.55 181.46 C 605.59 182.09 605.66 183.36 605.70 183.99 C 607.22 187.18 607.90 190.66 609.10 193.97 C 610.26 198.03 611.76 201.97 612.89 206.04 C 613.97 209.05 614.98 212.10 616.31 215.02 C 616.35 215.64 616.44 216.87 616.48 217.48 C 616.71 217.49 617.16 217.50 617.39 217.51 C 617.74 219.38 618.39 221.18 619.16 222.93 C 620.06 225.09 621.00 227.24 621.72 229.47 L 622.27 229.52 C 622.74 231.06 623.28 232.60 624.18 233.96 C 625.63 237.39 627.42 240.66 629.25 243.90 C 632.91 250.68 637.12 257.18 641.78 263.32 C 647.40 270.29 655.66 275.36 658.87 284.08 C 661.20 288.36 660.59 293.33 660.29 298.00 C 659.02 301.22 659.14 304.84 657.61 307.96 C 657.54 308.47 657.40 309.49 657.33 309.99 C 656.81 311.31 656.32 312.63 655.79 313.95 C 655.29 316.01 654.60 318.03 653.65 319.93 C 653.60 320.56 653.49 321.84 653.44 322.47 L 652.61 322.47 C 652.19 324.15 651.75 325.82 651.35 327.50 L 650.72 327.51 C 650.33 329.08 649.85 330.63 649.33 332.16 C 648.41 334.38 647.62 336.65 646.77 338.89 C 645.72 341.70 644.92 344.60 644.37 347.55 L 643.64 347.53 C 643.53 349.02 643.41 350.51 643.28 352.01 C 642.70 353.62 642.22 355.27 641.75 356.92 C 641.17 362.34 639.72 367.62 639.32 373.06 C 637.88 378.22 638.70 383.66 638.16 388.94 C 636.25 403.22 638.90 417.59 638.67 431.92 C 638.88 431.73 639.30 431.35 639.51 431.16 C 639.84 435.54 640.77 439.88 640.65 444.30 C 640.89 442.71 641.15 441.12 641.42 439.54 C 640.71 445.78 643.50 451.59 643.77 457.75 C 643.95 457.65 644.31 457.44 644.49 457.34 C 644.82 459.26 645.24 461.17 645.68 463.08 C 646.52 465.02 647.12 467.06 647.67 469.12 C 649.21 473.50 650.99 477.79 652.74 482.09 C 653.83 484.40 654.78 486.77 655.74 489.15 C 656.48 490.44 657.10 491.80 657.67 493.18 C 658.69 494.97 659.74 496.74 660.72 498.56 C 664.18 503.86 668.69 508.56 674.34 511.53 C 675.78 512.23 677.17 513.38 678.85 513.48 C 680.12 513.00 681.27 512.25 682.46 511.60 C 683.35 495.50 686.46 479.60 687.67 463.54 C 687.68 462.92 687.71 461.68 687.73 461.06 C 688.22 459.38 688.69 457.70 689.21 456.03 C 689.42 453.59 689.85 451.18 690.87 448.94 C 691.18 447.46 691.44 445.98 691.68 444.50 L 692.48 444.50 C 692.52 443.87 692.60 442.61 692.65 441.97 C 694.15 438.68 695.27 435.22 696.65 431.88 C 702.71 419.80 712.80 410.52 720.04 399.24 C 723.94 400.79 725.35 405.61 725.72 409.44 L 726.31 409.51 C 726.89 414.30 729.00 418.69 730.76 423.12 C 732.17 426.07 733.44 429.09 734.73 432.10 C 735.11 433.05 735.49 434.00 735.87 434.96 C 736.32 435.93 736.78 436.91 737.25 437.90 C 738.70 441.66 740.45 445.30 742.15 448.96 C 743.88 453.07 745.95 457.02 747.82 461.08 C 748.70 462.41 749.25 463.92 749.70 465.47 L 750.24 465.53 C 752.27 470.13 754.85 474.47 757.26 478.89 C 761.71 487.76 766.81 496.27 771.75 504.87 C 772.57 506.23 773.38 507.60 774.21 508.98 C 782.77 523.76 792.14 538.07 801.93 552.07 C 814.83 570.51 829.65 587.89 847.58 601.63 C 845.82 601.53 843.87 601.98 842.39 600.81 C 830.12 593.72 822.08 581.61 810.98 573.07 C 787.81 555.16 766.04 535.00 748.92 511.13 C 743.15 503.44 739.34 494.58 735.13 486.01 C 731.06 477.81 726.43 469.82 723.15 461.27 C 722.84 461.40 722.23 461.65 721.92 461.77 C 721.60 462.26 720.96 463.23 720.64 463.72 C 720.54 469.23 718.82 474.50 718.17 479.94 C 717.65 481.61 717.20 483.30 716.73 484.99 C 716.62 487.17 716.52 489.36 716.46 491.55 L 715.65 491.52 C 715.69 498.75 713.88 505.79 713.21 512.95 C 712.86 513.95 712.53 514.95 712.22 515.97 C 711.76 517.63 711.34 519.31 710.81 520.95 C 708.11 528.72 702.41 535.69 694.62 538.72 C 688.50 541.66 681.51 540.81 674.96 540.41 C 666.32 537.54 658.77 532.02 652.85 525.17 C 646.27 517.87 640.85 509.58 636.20 500.94 C 635.33 499.34 634.50 497.73 633.70 496.11 C 633.12 494.72 632.51 493.36 631.75 492.08 C 630.29 488.35 628.73 484.66 627.31 480.91 C 626.54 478.93 625.88 476.91 625.26 474.89 C 624.86 473.59 624.49 472.30 624.11 471.03 C 623.18 468.40 622.79 465.62 621.74 463.05 C 621.19 460.55 620.67 458.05 620.33 455.53 L 619.65 455.47 C 619.54 453.96 619.42 452.46 619.29 450.97 C 618.55 448.70 618.30 446.33 617.88 444.00 C 614.88 426.85 615.05 409.38 615.38 392.02 C 615.20 385.48 616.59 379.04 616.60 372.51 L 617.39 372.51 C 617.45 370.34 617.59 368.18 617.79 366.02 C 619.47 357.41 621.33 348.84 623.53 340.35 C 623.72 340.43 624.10 340.58 624.29 340.65 C 624.41 339.09 624.54 337.53 624.68 335.98 C 625.25 334.67 625.80 333.37 626.38 332.07 C 626.43 330.86 626.48 329.66 626.54 328.46 L 627.29 328.44 C 627.74 325.14 628.40 321.88 628.72 318.56 L 629.40 318.56 C 629.51 315.63 630.16 312.78 631.12 310.02 C 631.44 308.68 631.78 307.35 632.25 306.06 C 633.39 303.24 634.42 300.29 636.47 297.97 C 636.48 296.61 636.49 295.26 636.50 293.91 C 634.28 289.21 630.59 285.59 626.63 282.35 C 619.87 274.45 614.86 265.23 609.72 256.23 C 607.41 251.84 605.20 247.41 602.84 243.06 C 601.83 240.72 600.79 238.40 599.66 236.12 C 599.21 235.03 598.77 233.94 598.33 232.85 C 597.49 231.26 596.83 229.58 596.21 227.90 C 595.88 226.77 595.56 225.65 595.26 224.53 L 594.61 224.49 C 594.18 222.82 593.74 221.17 593.34 219.50 L 592.64 219.50 C 592.40 218.21 592.14 216.93 591.87 215.67 C 589.77 215.11 590.55 212.55 589.84 211.00 C 588.34 207.38 587.37 203.55 585.66 200.01 C 585.57 199.50 585.39 198.47 585.31 197.96 C 583.69 194.24 582.30 190.42 581.31 186.49 L 580.73 186.50 C 580.39 184.88 579.91 183.30 579.32 181.77 C 578.80 180.56 578.46 179.28 578.15 178.00 C 577.64 176.68 577.13 175.36 576.60 174.05 C 576.57 173.42 576.51 172.16 576.48 171.52 L 575.67 171.50 C 574.53 163.94 572.00 156.67 569.32 149.54 L 568.77 149.45 C 567.44 145.91 565.49 142.65 563.38 139.52 C 553.53 124.65 542.73 110.42 531.51 96.56 C 524.54 87.63 517.77 78.36 513.23 67.92 C 512.36 66.34 511.76 64.64 511.23 62.92 C 510.24 60.33 509.67 57.60 508.72 54.99 C 508.16 48.65 508.21 42.28 508.67 35.94 C 509.15 34.61 509.62 33.28 510.07 31.94 C 513.47 20.83 521.41 11.02 532.09 6.20 C 533.40 5.69 534.72 5.24 536.06 4.79 C 537.04 4.44 538.02 4.07 539.00 3.69 Z" />
<path fill="#00618a" opacity="1.00" d=" M 671.64 130.22 C 674.44 130.49 677.26 130.64 680.07 130.45 L 681.14 130.40 C 685.23 134.41 690.56 136.92 694.31 141.32 C 695.15 142.91 695.96 144.51 696.69 146.16 C 697.53 147.84 698.46 149.48 699.57 151.01 C 699.90 155.33 699.80 159.67 699.31 163.98 C 698.44 165.62 697.87 167.39 697.38 169.18 C 695.50 172.88 692.49 175.77 689.49 178.56 C 689.09 178.55 688.29 178.54 687.89 178.54 C 686.96 175.55 685.44 172.81 684.13 169.98 C 683.50 168.62 682.87 167.26 682.24 165.90 C 681.40 164.53 680.81 163.03 680.33 161.50 L 679.80 161.40 C 676.83 151.23 667.21 145.31 662.12 136.42 C 661.71 135.44 660.89 133.48 660.48 132.50 C 664.54 131.77 668.74 130.79 672.82 132.09 C 672.44 131.46 672.03 130.83 671.64 130.22 Z" />
<path fill="#00618a" opacity="1.00" d=" M 30.12 649.26 C 38.19 645.74 47.39 645.54 55.93 647.16 C 67.97 651.28 75.82 662.47 80.23 673.90 C 81.27 676.68 82.30 679.48 82.76 682.43 L 83.28 682.52 C 83.66 684.71 84.23 686.87 84.79 689.03 C 85.51 691.67 86.21 694.32 86.84 697.00 C 87.29 698.64 87.73 700.28 88.23 701.91 C 88.72 704.34 89.36 706.74 90.13 709.10 C 90.59 711.44 91.18 713.75 91.90 716.03 C 92.23 717.50 92.48 718.98 92.71 720.48 L 93.27 720.51 C 93.51 721.99 93.78 723.50 94.14 724.97 C 94.85 727.27 95.45 729.60 95.83 731.99 C 96.17 732.98 96.51 733.98 96.84 734.99 C 97.17 736.33 97.46 737.69 97.75 739.06 C 98.28 740.71 98.75 742.38 99.25 744.05 C 99.35 744.55 99.55 745.55 99.64 746.05 C 100.41 747.94 100.72 749.97 101.17 751.97 C 102.02 755.33 103.01 758.66 103.74 762.06 C 104.20 763.71 104.65 765.38 105.30 766.99 C 105.44 767.97 105.57 768.98 105.70 769.99 C 106.23 771.64 106.72 773.32 107.28 774.97 C 107.39 775.49 107.60 776.51 107.71 777.03 C 108.57 779.66 109.14 782.37 109.75 785.08 C 110.20 786.36 110.57 787.65 110.96 788.96 C 111.22 790.45 111.46 791.97 111.70 793.49 L 112.27 793.51 C 112.51 795.00 112.79 796.49 113.16 797.97 C 114.78 803.97 116.28 810.01 117.82 816.04 C 118.31 817.69 118.78 819.33 119.30 820.98 C 119.45 821.97 119.59 822.97 119.74 823.99 C 120.15 824.99 120.56 826.00 120.96 827.02 C 121.27 828.81 121.51 830.62 121.73 832.45 L 122.51 832.44 C 122.56 833.08 122.66 834.35 122.71 834.99 C 123.13 836.31 123.51 837.64 123.89 839.00 C 124.22 840.32 124.52 841.67 124.83 843.02 C 125.79 845.97 126.37 849.03 127.26 852.01 C 127.85 854.14 128.38 856.29 128.69 858.49 L 129.39 858.52 C 129.47 859.69 129.57 860.86 129.67 862.04 C 130.75 864.73 131.52 867.55 131.70 870.47 L 132.28 870.55 C 133.24 875.76 134.69 880.88 136.17 885.97 C 136.66 888.67 137.36 891.34 138.18 893.97 C 139.04 897.47 140.15 900.91 140.69 904.49 L 141.42 904.49 C 141.49 906.49 141.59 908.49 141.67 910.51 C 142.54 910.51 143.41 910.53 144.28 910.56 C 144.61 906.22 146.27 902.17 147.27 897.99 C 147.38 897.49 147.58 896.49 147.69 895.99 C 148.08 894.64 148.44 893.30 148.79 891.97 C 149.27 890.31 149.69 888.66 150.16 887.02 C 151.09 883.54 152.20 880.10 152.71 876.53 L 153.26 876.46 C 153.48 874.95 153.75 873.47 154.17 872.03 C 155.16 868.34 156.10 864.64 157.18 860.98 C 158.01 857.62 158.99 854.31 159.87 850.98 C 160.22 849.65 160.53 848.31 160.87 847.00 C 161.97 844.08 162.15 840.90 163.37 838.04 C 163.46 837.54 163.65 836.53 163.74 836.02 C 164.97 832.40 165.86 828.67 166.83 824.98 C 167.29 823.02 167.69 821.07 168.33 819.18 C 168.85 817.43 169.36 815.70 169.83 813.96 C 170.19 812.63 170.51 811.31 170.83 809.99 C 171.93 806.34 172.85 802.64 173.80 798.95 C 174.27 797.31 174.72 795.67 175.23 794.06 C 175.52 792.69 175.80 791.33 176.12 789.99 C 176.49 788.98 176.88 787.99 177.27 787.01 C 177.41 785.98 177.55 784.97 177.70 783.97 C 178.54 781.66 179.21 779.29 179.78 776.91 C 180.14 775.60 180.47 774.30 180.80 773.00 C 181.61 770.37 182.35 767.72 182.82 765.01 C 183.65 762.56 184.37 760.07 184.71 757.51 L 185.30 757.46 C 185.68 755.09 186.20 752.75 186.59 750.40 C 186.78 750.46 187.17 750.59 187.36 750.66 C 187.45 749.42 187.54 748.17 187.65 746.96 C 188.18 745.32 188.67 743.68 189.18 742.05 C 190.04 738.53 191.22 735.08 191.69 731.48 L 192.30 731.47 C 192.51 729.96 192.74 728.47 193.05 726.99 C 193.70 724.99 194.31 722.97 194.83 720.94 C 195.31 719.30 195.72 717.63 196.16 715.99 C 196.48 714.66 196.81 713.35 197.23 712.06 C 197.74 710.02 198.27 707.99 198.78 705.96 C 199.19 704.65 199.54 703.32 199.89 702.01 C 200.77 699.26 201.50 696.45 201.75 693.57 L 202.55 693.55 C 202.58 692.93 202.65 691.68 202.68 691.06 C 203.19 689.38 203.65 687.71 204.17 686.05 C 205.17 682.27 206.42 678.58 207.72 674.91 C 208.80 672.50 209.82 670.07 210.73 667.60 L 211.22 667.44 C 215.09 659.19 221.54 651.80 230.03 648.15 C 231.33 647.66 232.62 647.15 233.91 646.62 C 239.58 646.13 245.29 646.22 250.96 646.67 C 252.29 647.23 253.64 647.78 254.97 648.35 C 255.60 648.39 256.85 648.48 257.47 648.53 L 257.53 649.26 C 261.14 650.12 264.32 652.07 267.59 653.75 C 272.40 656.83 276.72 661.02 278.78 666.45 L 279.29 666.54 C 279.75 668.07 280.26 669.59 280.80 671.11 C 281.34 672.71 281.81 674.33 282.30 675.96 C 284.06 683.49 283.60 691.26 283.74 698.94 C 283.70 786.75 283.83 874.56 283.68 962.37 C 271.08 962.32 258.48 962.38 245.89 962.36 C 243.88 962.79 243.36 960.54 243.62 959.07 C 243.71 874.05 243.59 789.03 243.69 704.02 C 243.65 702.12 243.40 700.25 242.97 698.41 C 242.73 700.09 242.53 701.79 242.37 703.49 L 241.54 703.52 C 241.49 704.13 241.38 705.35 241.33 705.96 C 240.90 707.29 240.51 708.64 240.14 710.01 C 239.68 711.66 239.28 713.32 238.84 715.00 C 237.81 718.64 236.97 722.34 235.86 725.97 C 234.93 729.31 234.06 732.67 233.22 736.05 C 232.79 737.33 232.45 738.62 232.13 739.94 C 231.70 741.59 231.31 743.27 230.81 744.92 C 230.20 747.30 229.51 749.67 228.68 751.99 C 228.57 753.15 228.48 754.31 228.40 755.49 L 227.67 755.47 C 226.31 762.77 223.90 769.83 222.03 777.01 C 221.72 778.47 221.49 779.93 221.26 781.43 L 220.50 781.50 C 220.47 782.14 220.41 783.40 220.38 784.03 C 219.81 785.67 219.27 787.32 218.69 788.97 C 218.54 789.97 218.40 790.98 218.26 792.00 C 217.87 792.98 217.48 793.97 217.11 794.98 C 216.80 796.33 216.52 797.69 216.25 799.07 C 215.71 800.70 215.22 802.36 214.71 804.01 C 214.61 804.52 214.40 805.53 214.30 806.04 C 213.36 808.98 212.75 812.02 211.82 814.97 C 211.48 816.31 211.13 817.65 210.76 819.00 C 210.62 819.50 210.34 820.49 210.19 820.99 C 209.84 822.46 209.53 823.96 209.26 825.47 L 208.72 825.50 C 208.47 827.01 208.19 828.53 207.85 830.05 C 207.70 830.53 207.40 831.50 207.25 831.98 C 206.86 833.31 206.51 834.66 206.17 836.02 C 205.14 839.67 204.14 843.33 203.21 847.02 C 202.74 848.62 202.31 850.26 201.80 851.87 C 201.46 853.24 201.12 854.62 200.75 856.01 C 200.62 856.50 200.36 857.47 200.23 857.96 C 199.84 859.43 199.53 860.94 199.27 862.45 L 198.72 862.52 C 198.42 864.01 198.10 865.51 197.73 867.02 C 197.66 867.65 197.54 868.91 197.47 869.54 L 196.61 869.51 C 196.52 870.66 196.43 871.83 196.34 873.00 C 195.80 874.62 195.32 876.28 194.79 877.93 C 194.27 879.96 193.68 881.98 193.07 884.00 C 192.77 885.48 192.52 886.99 192.30 888.50 L 191.68 888.46 C 191.18 892.05 190.07 895.52 189.13 899.02 C 188.03 902.67 187.24 906.40 186.09 910.04 C 185.76 911.49 185.50 912.93 185.25 914.42 L 184.68 914.49 C 184.36 917.07 183.67 919.59 182.66 922.00 C 182.57 923.15 182.49 924.31 182.43 925.48 L 181.72 925.54 C 181.33 927.73 180.80 929.89 180.28 932.07 C 179.49 934.03 178.84 936.05 178.29 938.10 C 177.78 939.37 177.28 940.64 176.78 941.93 C 173.39 951.10 167.53 960.30 157.98 963.90 C 156.64 964.32 155.32 964.80 154.02 965.35 C 145.51 965.77 136.64 966.63 128.57 963.30 L 128.41 962.81 C 122.13 960.23 118.10 954.47 114.48 949.02 C 114.49 948.75 114.51 948.21 114.52 947.93 C 113.82 946.97 113.12 946.02 112.43 945.07 C 112.44 944.81 112.48 944.29 112.49 944.04 C 111.82 942.75 111.23 941.43 110.66 940.11 C 109.71 937.08 108.69 934.08 107.76 931.06 C 107.29 929.01 106.69 927.00 106.04 925.02 C 105.75 923.51 105.51 922.01 105.29 920.52 L 104.67 920.53 C 104.24 918.19 103.70 915.88 103.29 913.55 L 102.60 913.45 C 102.50 912.29 102.40 911.15 102.28 910.02 C 100.77 906.12 100.12 901.96 98.80 898.01 C 97.84 894.33 96.98 890.61 95.70 887.03 C 95.56 886.00 95.41 884.99 95.27 883.98 C 94.25 881.60 93.61 879.08 93.32 876.52 L 92.72 876.46 C 92.48 874.96 92.23 873.48 91.91 872.02 C 89.67 864.75 88.01 857.31 85.81 850.04 C 85.50 848.69 85.19 847.36 84.84 846.04 C 84.27 844.00 83.69 841.97 83.23 839.92 C 82.71 838.27 82.22 836.63 81.67 835.00 C 81.63 834.36 81.56 833.08 81.52 832.44 L 80.72 832.48 C 80.47 829.57 79.83 826.71 78.72 824.01 C 78.62 823.50 78.43 822.47 78.34 821.96 C 77.89 820.65 77.48 819.32 77.06 818.03 C 76.77 816.53 76.53 815.04 76.31 813.54 L 75.67 813.49 C 75.44 811.99 75.20 810.50 74.90 809.03 C 74.30 807.01 73.69 804.99 73.17 802.96 C 72.68 801.32 72.25 799.67 71.79 798.04 C 71.29 796.01 70.69 794.01 70.19 791.99 C 69.74 790.32 69.33 788.66 68.80 787.03 C 68.44 785.67 68.09 784.33 67.72 783.00 C 67.59 782.50 67.34 781.51 67.21 781.02 C 66.82 779.67 66.48 778.30 66.14 776.96 C 65.19 774.23 64.53 771.42 64.26 768.55 L 63.45 768.56 C 63.42 767.93 63.35 766.67 63.31 766.03 C 62.22 763.09 61.56 760.02 60.68 757.02 C 60.57 756.52 60.36 755.53 60.26 755.03 C 59.34 751.18 57.90 747.45 57.28 743.53 L 56.61 743.44 C 56.52 742.29 56.41 741.14 56.30 740.00 C 54.94 736.42 54.19 732.66 53.19 728.97 C 52.72 727.34 52.26 725.70 51.75 724.09 C 51.26 721.68 50.63 719.30 49.73 717.02 C 49.57 716.00 49.42 714.99 49.27 713.98 C 47.97 710.13 46.86 706.19 46.28 702.17 C 46.13 700.82 45.98 699.10 44.26 699.03 C 43.97 700.31 43.79 701.61 43.72 702.93 C 43.86 789.20 43.69 875.47 43.81 961.74 C 30.92 961.75 18.03 961.72 5.14 961.85 C 4.34 959.99 4.30 957.92 4.27 955.94 C 4.37 868.28 4.21 780.62 4.36 692.96 C 4.19 686.20 5.09 679.47 6.72 672.92 C 7.21 671.62 7.69 670.32 8.17 669.03 C 10.78 661.35 16.82 655.32 24.09 651.91 C 24.99 651.51 25.89 651.12 26.79 650.72 C 27.90 650.23 29.01 649.73 30.12 649.26 Z" />
<path fill="#00618a" opacity="1.00" d=" M 318.26 746.35 C 331.66 746.45 345.07 746.23 358.47 746.47 C 358.24 795.98 358.46 845.49 358.37 895.00 C 358.16 901.30 360.04 907.87 364.40 912.55 C 368.78 917.46 375.57 919.66 382.03 919.56 C 411.22 919.55 440.41 919.58 469.60 919.56 C 469.60 861.56 469.62 803.57 469.58 745.58 C 483.00 745.43 496.43 745.56 509.85 745.50 C 509.87 823.01 509.87 900.53 509.83 978.04 C 509.75 987.86 510.27 997.88 507.52 1007.44 C 503.85 1022.85 494.27 1036.79 480.84 1045.30 C 476.23 1047.18 471.89 1049.67 467.20 1051.35 C 461.73 1053.37 455.94 1054.25 450.39 1056.00 L 318.62 1056.00 C 318.58 1041.56 318.65 1027.13 318.58 1012.70 C 318.88 1012.18 319.50 1011.16 319.81 1010.65 C 361.21 1010.75 402.61 1010.63 444.02 1010.71 C 451.71 1010.92 459.55 1007.46 464.39 1001.44 C 467.10 998.15 468.13 993.93 469.36 989.95 C 469.60 979.88 469.49 969.81 469.38 959.74 C 440.92 959.73 412.46 959.74 384.00 959.74 C 378.90 959.67 373.73 959.58 368.75 958.38 C 368.55 957.97 368.17 957.16 367.97 956.75 L 365.02 959.84 C 368.21 957.52 365.07 957.71 363.96 957.12 C 352.78 954.07 342.49 947.86 334.52 939.46 C 324.33 928.26 317.80 913.31 318.25 898.02 C 318.23 847.46 318.57 796.91 318.26 746.35 Z" />
</g>
<g id="#002f437d">
<path fill="#002f43" opacity="0.49" d=" M 543.94 29.19 C 548.27 28.08 552.77 29.03 557.02 30.04 C 567.17 32.36 576.65 36.77 586.16 40.88 C 595.51 44.97 604.56 49.71 613.46 54.70 C 615.55 55.88 617.49 57.32 619.32 58.88 C 618.05 58.47 616.78 58.05 615.64 57.38 C 600.51 48.27 584.38 40.93 567.94 34.54 C 559.56 31.67 550.25 28.49 541.46 31.33 C 534.60 33.40 531.50 41.36 532.63 47.98 C 533.62 55.89 538.64 62.37 541.22 69.71 C 537.93 65.72 535.74 60.99 533.78 56.25 C 531.25 50.26 529.88 43.12 533.18 37.14 C 534.96 32.67 539.65 30.55 543.94 29.19 Z" />
</g>
<g id="#002d4179">
<path fill="#002d41" opacity="0.47" d=" M 658.92 131.58 C 666.32 130.44 673.72 128.63 681.27 129.53 L 680.07 130.45 C 677.26 130.64 674.44 130.49 671.64 130.22 C 672.03 130.83 672.44 131.46 672.82 132.09 C 668.74 130.79 664.54 131.77 660.48 132.50 C 660.89 133.48 661.71 135.44 662.12 136.42 C 660.15 135.49 659.39 133.55 658.92 131.58 Z" />
</g>
<g id="#00304480">
<path fill="#003044" opacity="0.50" d=" M 685.16 475.98 C 685.84 471.80 685.55 467.36 687.67 463.54 C 686.46 479.60 683.35 495.50 682.46 511.60 C 681.27 512.25 680.12 513.00 678.85 513.48 C 677.17 513.38 675.78 512.23 674.34 511.53 C 676.45 511.57 678.55 511.67 680.67 511.76 C 682.64 499.90 683.35 487.86 685.16 475.98 Z" />
</g>
<g id="#e48e00ff">
<path fill="#e48e00" opacity="1.00" d=" M 973.43 651.67 C 985.98 651.73 998.54 651.70 1011.10 651.69 C 1011.71 651.91 1012.92 652.35 1013.53 652.56 C 1013.49 730.39 1013.51 808.22 1013.52 886.05 C 1013.26 891.34 1014.74 896.45 1015.73 901.60 L 1016.67 901.52 C 1016.59 901.98 1016.43 902.90 1016.36 903.36 L 1017.64 903.70 C 1017.53 904.14 1017.32 905.01 1017.21 905.44 L 1018.26 905.42 C 1018.73 906.46 1019.20 907.50 1019.70 908.55 L 1020.23 908.46 C 1020.55 908.81 1021.20 909.49 1021.52 909.83 L 1021.37 910.23 C 1022.61 911.06 1023.87 911.93 1025.10 912.84 C 1026.37 913.58 1027.70 914.25 1029.09 914.79 C 1030.38 915.28 1031.66 915.77 1032.96 916.32 C 1034.83 916.42 1036.70 916.52 1038.60 916.60 L 1038.37 917.43 C 1076.15 917.64 1113.92 917.53 1151.70 917.50 C 1152.02 930.30 1151.35 943.14 1152.11 955.93 C 1151.79 958.06 1151.70 960.23 1151.63 962.39 C 1115.68 962.19 1079.71 962.60 1043.78 962.19 C 1035.81 960.29 1027.52 960.15 1019.71 957.56 C 1012.23 955.46 1005.46 951.60 998.80 947.71 C 998.42 947.50 997.65 947.07 997.26 946.85 C 994.31 944.33 991.41 941.72 989.12 938.58 L 988.71 938.49 C 987.86 937.17 987.00 935.89 986.18 934.59 L 985.40 934.57 L 985.63 933.39 L 984.42 933.39 C 984.47 932.93 984.57 932.00 984.62 931.53 L 983.29 931.42 C 983.34 931.08 983.46 930.39 983.52 930.05 C 982.25 928.81 981.50 927.28 981.17 925.58 L 980.31 925.41 C 980.38 924.96 980.54 924.08 980.62 923.64 L 979.74 923.49 C 979.27 921.92 978.71 920.40 978.14 918.89 C 977.82 917.70 977.55 916.53 977.32 915.35 L 976.72 915.65 C 976.45 913.19 975.97 910.78 975.48 908.37 L 974.72 908.36 C 974.60 905.41 974.42 902.47 974.35 899.53 L 973.61 899.47 C 972.95 874.00 973.43 848.52 973.28 823.04 C 973.38 765.92 973.10 708.79 973.43 651.67 Z" />
<path fill="#e48e00" opacity="1.00" d=" M 585.61 654.39 C 585.58 654.20 585.52 653.81 585.49 653.62 C 588.18 653.50 590.87 653.36 593.57 653.34 L 593.40 652.58 C 617.90 651.91 642.42 652.41 666.94 652.26 C 685.45 652.29 703.97 652.19 722.49 652.30 C 722.45 667.06 722.49 681.81 722.47 696.57 C 682.83 696.69 643.19 696.49 603.56 696.67 C 603.57 696.91 603.59 697.38 603.60 697.62 C 601.59 697.60 599.59 697.63 597.60 697.65 C 597.57 697.94 597.49 698.51 597.46 698.79 C 597.13 698.74 596.46 698.63 596.13 698.58 C 594.94 699.04 593.73 699.43 592.49 699.74 L 592.44 700.19 C 589.39 701.16 587.39 703.66 585.37 705.97 C 585.40 706.20 585.46 706.66 585.50 706.89 C 584.80 707.99 584.36 709.19 584.18 710.50 L 583.73 710.49 C 583.34 713.99 582.23 717.40 582.35 720.97 C 582.42 734.48 582.14 748.01 582.55 761.52 L 583.40 761.51 C 583.44 763.50 583.53 765.51 583.60 767.52 L 584.22 767.49 C 584.47 768.64 584.74 769.80 585.04 770.96 C 585.58 772.05 586.13 773.15 586.68 774.26 C 586.95 774.82 587.50 775.93 587.77 776.48 L 588.14 776.56 C 589.61 778.91 591.73 780.72 593.98 782.31 C 594.46 782.53 595.43 782.99 595.91 783.21 C 597.87 784.01 599.90 784.58 602.00 784.97 C 604.94 785.62 607.97 785.49 610.97 785.51 C 626.66 785.50 642.34 785.51 658.02 785.51 C 662.87 785.43 667.60 786.83 672.47 786.71 C 672.44 786.92 672.37 787.32 672.34 787.53 C 674.41 787.90 676.48 788.33 678.58 788.62 C 678.54 788.80 678.46 789.15 678.42 789.33 C 679.65 789.63 680.89 789.98 682.12 790.37 C 682.44 790.37 683.09 790.36 683.42 790.36 L 683.51 791.29 C 685.08 791.63 686.60 792.24 688.01 793.06 C 689.71 794.04 691.42 795.04 693.09 796.11 C 699.08 799.98 704.52 804.78 708.87 810.44 L 709.20 810.60 C 712.17 814.95 715.23 819.34 716.85 824.41 L 717.30 824.54 C 717.86 826.54 718.45 828.54 718.79 830.61 L 719.48 830.43 C 719.50 831.78 719.52 833.14 719.55 834.51 L 720.38 834.55 C 720.86 848.38 720.55 862.22 720.64 876.06 C 720.55 886.05 720.89 896.05 720.28 906.04 C 719.50 908.09 719.48 910.32 719.39 912.51 L 718.52 912.41 C 718.49 913.78 718.46 915.16 718.44 916.54 L 717.69 916.43 C 717.46 917.62 717.23 918.82 716.99 920.03 C 716.47 921.02 715.95 922.01 715.42 923.01 C 715.46 923.34 715.54 924.02 715.58 924.36 L 714.38 924.66 C 714.45 925.10 714.60 925.98 714.68 926.42 L 713.29 926.59 C 713.36 926.94 713.49 927.62 713.55 927.96 C 712.17 929.86 710.95 931.88 709.76 933.91 C 708.95 934.96 708.14 936.02 707.37 937.11 C 704.16 941.22 700.33 944.79 696.44 948.24 C 693.95 949.97 691.48 951.73 689.05 953.56 C 688.70 953.54 688.01 953.50 687.66 953.48 L 687.54 954.58 L 686.41 954.42 L 686.32 955.10 C 684.07 956.05 681.85 957.08 679.52 957.82 L 679.57 958.29 C 678.30 958.62 677.05 958.99 675.83 959.41 C 675.50 959.35 674.84 959.21 674.52 959.15 L 674.54 960.36 C 672.82 960.41 671.09 960.47 669.39 960.54 L 669.54 961.33 C 664.03 961.73 658.57 962.69 653.03 962.36 C 615.84 962.34 578.66 962.36 541.48 962.34 C 541.40 947.41 541.44 932.48 541.46 917.55 C 576.31 917.52 611.16 917.54 646.01 917.54 C 652.28 917.94 658.48 917.02 664.55 915.50 L 664.59 914.86 C 667.65 914.28 669.92 912.07 672.21 910.15 C 673.11 908.97 674.00 907.79 674.86 906.59 L 675.30 906.53 C 675.73 905.59 676.17 904.66 676.62 903.74 C 677.29 902.50 677.93 901.24 678.62 900.03 C 678.55 899.67 678.40 898.95 678.32 898.59 L 679.40 898.54 C 679.98 889.68 679.63 880.81 679.72 871.95 C 679.63 862.78 679.98 853.60 679.38 844.45 L 678.27 844.39 C 678.40 843.95 678.65 843.06 678.78 842.62 L 677.37 842.41 C 677.46 841.94 677.65 841.01 677.75 840.55 L 676.43 840.39 C 676.46 840.03 676.53 839.30 676.56 838.94 C 675.39 837.48 674.26 836.01 673.20 834.50 L 672.43 834.60 L 672.60 833.43 L 671.45 833.56 L 671.53 832.69 C 669.91 831.74 668.24 830.87 666.52 830.15 L 666.58 829.57 C 664.84 829.19 663.12 828.76 661.39 828.42 C 661.42 828.24 661.49 827.88 661.52 827.70 C 657.96 827.73 654.55 826.62 651.02 826.49 C 634.52 826.42 618.02 826.60 601.52 826.38 L 601.48 825.67 C 597.19 825.97 593.02 825.00 588.99 823.68 C 588.35 823.62 587.05 823.50 586.41 823.44 L 586.62 822.54 C 585.95 822.50 584.60 822.42 583.93 822.39 C 582.22 821.42 580.43 820.63 578.51 820.28 L 578.39 819.76 C 577.78 819.45 576.57 818.84 575.96 818.53 C 575.62 818.58 574.93 818.67 574.59 818.71 L 574.48 817.37 C 574.02 817.41 573.11 817.49 572.65 817.53 L 572.53 816.46 L 571.40 816.60 L 571.37 815.42 C 571.01 815.46 570.29 815.55 569.93 815.59 C 566.80 813.13 563.65 810.69 560.62 808.12 L 560.57 807.81 C 560.23 807.45 559.55 806.75 559.22 806.40 L 558.87 806.42 C 557.27 804.48 555.60 802.61 554.10 800.62 L 553.79 800.39 C 552.39 798.58 551.09 796.69 550.17 794.59 L 549.26 794.40 C 549.36 793.95 549.58 793.06 549.68 792.61 L 548.74 792.50 C 548.43 791.88 547.80 790.64 547.49 790.02 C 547.52 789.64 547.58 788.90 547.60 788.52 L 546.29 788.48 C 546.32 788.14 546.39 787.45 546.42 787.11 C 545.91 785.93 545.49 784.72 545.18 783.49 L 544.73 783.57 C 544.09 779.34 542.33 775.30 542.41 770.97 C 542.12 758.99 542.33 747.01 542.27 735.04 C 542.38 723.50 541.76 711.88 543.69 700.46 L 544.42 700.57 C 544.47 698.88 544.52 697.20 544.59 695.53 C 544.76 695.53 545.11 695.54 545.29 695.54 C 545.57 694.34 545.90 693.16 546.27 692.00 C 546.36 691.38 546.53 690.14 546.62 689.52 L 547.27 689.52 C 548.49 684.78 551.24 680.63 553.74 676.49 L 554.17 676.37 C 555.02 675.09 555.91 673.85 556.78 672.59 L 557.17 672.45 C 558.78 670.22 560.77 668.31 562.80 666.47 L 563.56 666.57 L 563.62 665.79 C 564.88 664.92 566.12 664.04 567.40 663.19 L 567.44 662.67 C 568.47 662.21 569.51 661.76 570.56 661.32 L 570.49 660.79 C 571.71 660.24 572.86 659.54 573.98 658.81 C 577.72 657.00 581.44 654.96 585.61 654.39 Z" />
<path fill="#e48e00" opacity="1.00" d=" M 796.45 653.67 C 800.67 653.67 804.77 652.39 809.00 652.53 C 836.48 652.62 863.96 652.42 891.43 652.64 L 891.49 653.37 C 893.81 653.44 896.13 653.57 898.46 653.69 L 898.46 654.88 C 898.83 654.79 899.55 654.62 899.92 654.53 C 901.56 655.09 903.25 655.63 904.87 656.32 C 906.38 656.76 907.89 657.22 909.42 657.66 L 909.52 658.21 C 911.50 658.76 913.34 659.68 915.19 660.59 C 918.16 662.34 921.07 664.21 923.84 666.28 C 927.14 669.01 930.28 671.98 932.87 675.40 L 933.19 675.61 C 934.56 677.69 935.95 679.76 937.32 681.85 C 938.66 684.31 940.11 686.76 940.80 689.51 L 941.66 689.54 C 941.64 689.88 941.59 690.57 941.56 690.91 C 942.01 692.09 942.42 693.29 942.80 694.51 L 943.31 694.39 C 943.51 695.99 943.74 697.62 944.46 699.12 C 944.39 699.47 944.25 700.18 944.18 700.53 L 945.28 700.45 C 945.37 702.30 945.51 704.15 945.72 706.01 C 946.69 708.38 946.54 710.99 946.65 713.51 L 947.34 713.51 C 947.82 769.01 947.42 824.51 947.55 880.00 C 947.61 887.49 947.41 894.98 947.37 902.48 L 946.64 902.49 C 946.57 905.13 946.43 907.77 946.35 910.42 C 946.14 910.45 945.73 910.49 945.53 910.52 C 945.47 912.51 945.39 914.51 945.35 916.52 C 945.16 916.49 944.77 916.42 944.58 916.38 C 944.17 918.44 943.68 920.49 943.34 922.58 L 942.81 922.56 C 942.44 923.76 942.03 924.95 941.59 926.14 C 941.62 926.46 941.69 927.11 941.72 927.44 L 940.79 927.50 C 940.36 928.86 939.89 930.21 939.44 931.58 L 938.37 931.65 C 938.47 932.10 938.68 932.99 938.79 933.44 L 937.87 933.52 C 936.62 936.04 934.86 938.24 933.13 940.45 L 932.35 940.44 L 932.60 941.62 L 931.82 941.46 C 931.48 941.80 930.79 942.48 930.45 942.82 L 930.61 943.62 L 929.40 943.37 L 929.50 944.19 C 927.74 945.47 926.01 946.78 924.21 948.00 C 924.63 951.46 927.32 953.93 929.06 956.78 C 934.23 964.73 939.73 972.47 944.72 980.53 L 945.16 980.56 C 948.35 986.30 952.35 991.56 955.91 997.08 C 957.34 999.09 958.82 1001.09 959.84 1003.37 L 960.30 1003.52 C 961.29 1005.09 962.32 1006.63 962.99 1008.40 C 947.50 1008.52 932.01 1008.36 916.53 1008.48 L 916.51 1007.44 L 915.63 1007.63 C 915.18 1006.57 914.74 1005.52 914.31 1004.48 L 913.63 1004.61 C 913.18 1003.55 912.74 1002.51 912.31 1001.47 L 911.75 1001.51 C 909.62 997.27 906.19 993.85 904.19 989.55 L 903.66 989.57 C 903.19 988.52 902.74 987.48 902.30 986.45 L 901.79 986.54 C 901.14 985.38 900.44 984.27 899.73 983.20 C 898.81 981.81 897.92 980.39 897.08 978.98 C 896.21 978.01 895.35 977.02 894.50 976.08 C 894.49 975.80 894.47 975.25 894.46 974.98 C 893.56 973.89 892.73 972.79 892.18 971.52 L 891.67 971.57 C 891.20 970.52 890.75 969.47 890.30 968.44 L 889.65 968.59 C 889.19 967.54 888.74 966.50 888.29 965.47 L 887.34 965.46 C 887.35 965.12 887.38 964.43 887.39 964.08 C 886.02 963.33 885.47 961.91 885.01 960.54 C 878.94 960.00 872.95 961.39 866.97 962.16 C 851.65 963.22 836.29 962.75 820.95 962.85 C 812.98 962.77 804.97 963.17 797.04 962.19 C 795.88 961.83 794.73 961.50 793.57 961.21 L 793.55 960.71 C 790.67 960.56 788.19 958.98 785.45 958.31 L 785.49 957.73 C 784.12 957.31 782.77 956.87 781.43 956.46 L 781.38 955.88 C 777.23 954.18 773.65 951.44 770.13 948.74 C 767.16 946.32 764.40 943.64 762.13 940.56 L 761.78 940.43 C 760.28 938.22 758.73 936.05 757.37 933.77 C 756.74 932.83 756.12 931.91 755.50 931.00 C 755.54 930.64 755.64 929.92 755.68 929.56 L 754.32 929.41 C 754.38 929.06 754.50 928.37 754.56 928.02 C 753.39 926.34 752.61 924.44 752.35 922.42 L 751.76 922.50 C 751.25 920.13 750.63 917.80 750.29 915.41 L 749.52 915.64 C 749.49 914.24 749.47 912.84 749.45 911.46 L 748.64 911.49 C 748.55 909.46 748.44 907.43 748.38 905.42 L 747.61 905.62 C 746.85 878.08 747.40 850.53 747.23 822.99 C 747.30 787.66 747.09 752.33 747.35 717.01 C 747.13 712.45 748.36 708.04 748.70 703.53 L 749.44 703.54 C 749.46 702.14 749.48 700.74 749.52 699.35 L 750.27 699.61 C 750.58 696.96 751.12 694.27 752.55 691.97 C 752.53 691.74 752.49 691.26 752.47 691.02 C 754.23 687.62 755.76 684.11 757.74 680.83 C 758.45 679.73 759.15 678.63 759.80 677.50 L 760.14 677.40 C 761.27 675.80 762.51 674.28 763.75 672.76 C 764.01 672.44 764.52 671.78 764.78 671.45 L 765.18 671.55 C 765.51 671.20 766.18 670.51 766.52 670.16 L 766.36 669.37 L 767.52 669.57 L 767.55 668.85 C 771.08 666.12 774.38 662.96 778.58 661.26 L 778.58 660.69 C 779.87 660.24 781.15 659.77 782.45 659.34 L 782.52 658.78 C 785.16 657.86 787.72 656.65 790.52 656.24 L 790.40 655.52 C 791.04 655.44 792.33 655.30 792.98 655.22 C 794.19 654.89 795.41 654.60 796.66 654.33 L 796.45 653.67 M 810.48 698.72 L 810.48 699.45 C 809.72 699.45 808.21 699.45 807.45 699.44 L 807.42 700.27 C 806.23 700.70 805.06 701.15 803.89 701.61 C 801.01 703.91 798.16 706.36 796.15 709.50 L 795.33 709.61 C 795.41 710.05 795.56 710.93 795.64 711.37 L 794.80 711.56 C 794.47 712.15 793.79 713.34 793.45 713.93 C 793.50 714.32 793.58 715.09 793.63 715.47 L 792.77 715.51 C 792.43 716.66 792.07 717.81 791.69 718.96 C 791.56 720.49 791.44 722.01 791.37 723.56 L 790.54 723.37 C 790.26 753.58 790.49 783.79 790.42 814.01 C 790.51 838.89 790.23 863.78 790.57 888.66 L 791.44 888.36 C 791.46 890.39 791.54 892.44 791.59 894.48 L 792.37 894.52 C 792.43 895.83 792.49 897.15 792.56 898.49 L 793.29 898.48 C 793.53 899.63 793.80 900.78 794.11 901.95 C 794.47 902.44 795.21 903.42 795.58 903.91 C 795.55 904.29 795.48 905.04 795.44 905.42 L 796.28 905.47 C 797.08 906.80 797.93 908.13 798.77 909.47 L 799.18 909.48 C 799.51 909.82 800.18 910.50 800.51 910.84 L 800.40 911.63 L 801.60 911.43 L 801.51 912.26 C 802.81 913.09 804.10 913.96 805.43 914.79 L 805.63 915.26 C 808.66 916.53 811.74 917.66 814.98 918.28 C 828.65 918.80 842.34 918.44 856.02 918.51 C 855.13 915.98 853.35 913.96 852.18 911.59 L 851.82 911.46 C 851.13 910.34 850.42 909.25 849.70 908.18 C 849.19 907.29 848.70 906.41 848.23 905.54 L 847.67 905.51 C 847.21 904.48 846.76 903.46 846.32 902.45 L 845.69 902.54 C 845.22 901.48 844.77 900.42 844.32 899.38 L 843.64 899.63 C 843.18 898.57 842.73 897.51 842.30 896.47 L 841.76 896.48 C 840.55 894.29 839.17 892.21 837.73 890.19 C 837.23 889.39 836.74 888.61 836.25 887.84 C 835.50 886.73 834.80 885.64 834.16 884.50 L 833.66 884.57 C 833.20 883.51 832.76 882.46 832.32 881.42 L 831.67 881.57 C 831.21 880.52 830.76 879.47 830.32 878.43 L 829.68 878.56 C 829.22 877.53 828.76 876.50 828.31 875.49 L 827.73 875.49 C 827.27 874.57 826.82 873.65 826.38 872.75 C 825.68 871.89 824.98 871.05 824.29 870.22 C 824.31 869.35 824.34 868.48 824.39 867.63 C 827.11 867.70 829.85 867.71 832.59 867.62 L 832.43 868.39 L 834.66 868.33 L 834.59 867.13 C 835.28 867.55 836.65 868.38 837.33 868.80 L 837.41 867.62 C 841.78 867.73 846.16 867.74 850.53 867.62 L 850.60 868.72 C 851.12 868.47 852.15 867.98 852.67 867.74 C 857.95 867.55 863.25 867.84 868.55 867.62 L 868.64 868.58 C 869.09 868.47 870.01 868.25 870.46 868.14 L 870.46 869.05 C 871.35 870.12 872.17 871.27 872.79 872.55 L 873.30 872.44 C 873.73 873.47 874.17 874.51 874.63 875.56 L 875.13 875.58 C 875.72 876.73 876.45 877.79 877.21 878.89 C 879.55 882.87 882.49 886.47 884.74 890.52 L 885.28 890.50 C 885.72 891.52 886.17 892.54 886.63 893.57 L 887.18 893.56 C 888.52 896.22 890.23 898.67 891.99 901.09 C 893.59 903.55 895.26 905.97 896.76 908.52 L 897.65 908.57 C 897.59 909.02 897.48 909.92 897.42 910.38 L 898.58 910.40 L 898.48 911.46 L 900.55 911.45 L 900.46 910.42 L 901.14 910.39 C 902.20 908.86 903.37 907.41 904.64 906.04 C 904.57 905.69 904.44 904.99 904.37 904.64 L 905.43 904.59 C 905.84 903.19 906.28 901.81 906.70 900.43 L 907.24 900.60 C 907.55 899.39 907.90 898.19 908.29 897.00 C 908.40 895.81 908.51 894.63 908.62 893.46 L 909.41 893.61 C 909.97 863.08 909.52 832.53 909.66 801.99 C 909.52 775.12 909.97 748.23 909.41 721.36 L 908.55 721.61 C 908.48 720.39 908.42 719.17 908.36 717.96 C 907.73 716.62 907.13 715.28 906.46 713.98 C 906.46 713.75 906.47 713.28 906.47 713.05 C 906.14 712.45 905.49 711.26 905.16 710.66 L 904.80 710.40 C 904.02 709.19 903.21 708.02 902.44 706.83 C 901.39 705.68 900.28 704.60 899.11 703.61 C 898.40 703.02 897.71 702.43 897.04 701.84 C 895.86 701.30 894.71 700.76 893.55 700.25 L 893.53 699.46 C 892.77 699.46 891.25 699.46 890.49 699.47 L 890.45 698.80 C 889.27 698.49 888.11 698.15 886.97 697.79 C 875.66 697.27 864.33 697.67 853.01 697.54 C 840.00 697.67 826.99 697.28 814.00 697.76 C 812.82 698.10 811.65 698.42 810.48 698.72 Z" />
<path fill="#e48e00" opacity="1.00" d=" M 1216.48 867.59 C 1218.15 867.51 1219.80 867.42 1221.50 867.38 L 1221.46 866.61 C 1225.79 866.60 1230.12 866.61 1234.47 866.62 L 1234.52 867.27 C 1237.57 867.52 1240.54 868.29 1243.57 868.75 L 1243.40 869.39 C 1245.11 869.77 1246.81 870.24 1248.55 870.66 L 1248.51 871.78 C 1248.91 871.68 1249.69 871.49 1250.08 871.39 C 1251.00 872.10 1251.93 872.82 1252.87 873.55 C 1253.15 873.55 1253.70 873.56 1253.98 873.56 C 1260.47 878.28 1266.98 883.63 1270.57 890.98 C 1273.18 896.71 1275.75 902.61 1276.37 908.96 C 1277.00 917.18 1276.95 925.72 1273.90 933.52 C 1272.11 938.99 1268.76 943.69 1265.63 948.45 C 1265.52 948.62 1265.30 948.96 1265.19 949.12 C 1261.71 952.39 1258.43 955.97 1254.18 958.28 C 1253.11 958.87 1252.04 959.48 1251.01 960.13 C 1250.05 960.52 1249.10 960.94 1248.18 961.38 C 1245.80 962.32 1243.41 963.24 1240.99 964.06 C 1239.47 964.29 1237.93 964.47 1236.43 964.66 L 1236.55 965.40 C 1230.83 965.59 1225.10 965.58 1219.38 965.43 L 1219.60 964.67 C 1218.38 964.54 1217.17 964.41 1215.98 964.29 C 1214.46 963.88 1212.94 963.55 1211.43 963.27 L 1211.63 962.68 C 1209.57 962.40 1207.50 961.91 1206.01 960.40 C 1205.75 960.45 1205.25 960.55 1204.99 960.60 C 1204.08 959.94 1203.16 959.29 1202.26 958.67 C 1199.67 957.35 1197.41 955.53 1195.17 953.73 C 1193.26 952.24 1191.56 950.53 1190.14 948.60 L 1189.84 948.44 C 1188.82 947.10 1187.79 945.79 1186.79 944.47 C 1186.09 943.23 1185.23 942.09 1184.37 941.00 C 1184.44 940.66 1184.57 939.98 1184.64 939.64 L 1183.75 939.46 C 1183.43 938.84 1182.78 937.60 1182.46 936.98 C 1182.53 936.61 1182.67 935.89 1182.74 935.52 L 1181.72 935.60 C 1181.42 934.42 1181.12 933.25 1180.81 932.10 C 1179.65 929.72 1179.17 927.12 1179.29 924.48 L 1178.63 924.45 C 1178.05 917.05 1178.54 909.68 1179.59 902.37 L 1180.51 902.60 C 1180.53 901.93 1180.56 900.58 1180.57 899.91 C 1181.18 898.56 1181.83 897.23 1182.59 895.96 C 1182.55 895.71 1182.46 895.19 1182.42 894.94 C 1183.13 893.97 1183.86 893.01 1184.61 892.06 C 1184.53 891.69 1184.38 890.97 1184.30 890.60 L 1185.35 890.65 C 1185.78 889.58 1186.23 888.51 1186.69 887.45 L 1187.16 887.45 C 1190.25 883.09 1194.08 879.26 1198.40 876.12 L 1198.46 875.80 C 1199.69 875.08 1200.84 874.26 1202.01 873.43 C 1202.24 873.45 1202.70 873.48 1202.93 873.50 C 1204.16 872.18 1205.75 871.46 1207.55 871.26 L 1207.44 870.52 C 1209.13 870.11 1210.84 869.66 1212.57 869.30 L 1212.38 868.48 C 1213.75 868.44 1215.13 868.42 1216.53 868.40 L 1216.48 867.59 M 1214.47 878.61 L 1214.47 879.79 C 1214.03 879.69 1213.14 879.49 1212.70 879.39 L 1212.36 880.65 C 1211.90 880.55 1210.99 880.34 1210.53 880.24 L 1210.43 881.22 C 1206.60 882.40 1203.75 885.26 1200.84 887.85 C 1197.15 891.79 1193.52 896.17 1192.25 901.55 L 1191.55 901.40 C 1191.47 902.04 1191.31 903.34 1191.24 903.98 C 1190.70 905.45 1190.42 906.98 1190.23 908.54 L 1189.58 908.43 C 1189.70 914.96 1188.54 921.81 1191.23 928.01 C 1191.31 928.53 1191.48 929.58 1191.57 930.11 C 1192.55 931.75 1193.19 933.56 1193.74 935.41 L 1194.23 935.46 C 1195.37 938.02 1197.14 940.22 1198.82 942.46 L 1199.14 942.52 C 1200.02 943.84 1201.13 944.98 1202.46 945.90 L 1202.53 946.19 C 1204.80 947.80 1206.95 949.63 1209.53 950.78 L 1209.56 951.29 C 1211.18 951.76 1212.81 952.28 1214.46 952.76 L 1214.43 953.52 C 1215.08 953.56 1216.37 953.66 1217.02 953.71 C 1222.26 955.86 1227.99 955.40 1233.53 955.39 L 1233.53 954.60 C 1234.84 954.55 1236.17 954.51 1237.51 954.49 L 1237.55 953.63 C 1238.88 953.55 1240.22 953.49 1241.58 953.44 L 1241.53 952.25 C 1241.88 952.30 1242.58 952.40 1242.93 952.45 C 1243.56 952.17 1244.82 951.60 1245.45 951.31 L 1245.57 950.87 C 1247.23 950.09 1248.85 949.23 1250.45 948.32 C 1252.36 946.56 1254.26 944.79 1256.19 943.05 C 1256.32 942.84 1256.57 942.41 1256.70 942.19 C 1259.59 940.48 1261.01 937.30 1262.57 934.49 C 1267.32 924.84 1268.18 913.27 1264.73 903.08 C 1263.02 898.76 1261.44 893.82 1257.48 891.04 C 1255.19 887.75 1252.04 885.10 1248.58 883.14 L 1248.58 882.60 C 1247.51 882.20 1246.44 881.81 1245.40 881.43 L 1245.39 880.82 C 1244.21 880.40 1243.06 879.97 1241.93 879.53 C 1241.60 879.54 1240.94 879.57 1240.61 879.58 L 1240.58 878.56 C 1239.18 878.50 1237.79 878.46 1236.42 878.44 L 1236.60 877.56 C 1230.59 877.10 1224.55 877.10 1218.55 877.61 L 1218.55 878.48 C 1217.18 878.51 1215.82 878.56 1214.47 878.61 Z" />
<path fill="#e48e00" opacity="1.00" d=" M 1208.72 888.57 C 1220.87 889.23 1233.61 886.73 1245.22 891.40 C 1245.43 891.47 1245.84 891.62 1246.05 891.70 C 1247.08 892.85 1248.16 893.97 1249.30 895.06 C 1249.38 895.65 1249.55 896.84 1249.63 897.43 L 1250.59 897.44 C 1250.87 901.81 1250.87 906.20 1250.58 910.57 L 1249.91 910.60 C 1249.08 913.72 1246.47 915.71 1244.07 917.63 C 1243.84 917.63 1243.37 917.64 1243.13 917.64 C 1241.93 918.08 1240.72 918.48 1239.50 918.84 L 1239.55 919.41 C 1238.69 919.45 1236.98 919.54 1236.12 919.59 C 1237.24 921.60 1238.51 923.56 1239.76 925.52 L 1240.62 925.57 C 1240.58 926.01 1240.49 926.89 1240.44 927.33 L 1241.56 927.46 L 1241.44 928.60 L 1242.64 928.61 C 1242.57 929.05 1242.43 929.94 1242.36 930.39 L 1243.25 930.51 C 1244.54 932.63 1245.90 934.70 1247.29 936.77 C 1248.61 939.06 1250.07 941.29 1251.98 943.17 C 1251.56 943.52 1250.71 944.22 1250.28 944.58 C 1247.44 944.49 1244.62 944.51 1241.81 944.43 C 1236.80 936.02 1231.74 927.65 1226.58 919.34 C 1223.28 919.31 1220.00 919.37 1216.72 919.56 C 1216.62 927.59 1216.73 935.63 1216.64 943.66 C 1213.97 943.65 1211.32 943.65 1208.67 943.65 C 1208.61 925.29 1208.51 906.93 1208.72 888.57 M 1218.50 896.57 L 1217.40 896.31 C 1217.54 901.46 1217.46 906.61 1217.46 911.77 L 1218.71 911.12 L 1218.33 912.39 C 1221.78 912.31 1225.23 912.29 1228.70 912.45 L 1228.31 911.67 C 1231.58 911.62 1235.06 911.94 1238.03 910.25 C 1238.77 909.44 1239.55 908.66 1240.37 907.93 C 1240.72 905.29 1240.75 902.62 1240.47 899.99 C 1239.48 899.32 1238.65 898.50 1238.00 897.53 C 1237.77 897.49 1237.30 897.41 1237.07 897.37 C 1235.62 896.69 1234.06 896.39 1232.51 896.22 L 1232.52 895.61 C 1227.84 895.67 1223.16 895.67 1218.48 895.58 L 1218.50 896.57 Z" />
</g>
<g id="#002d4078">
<path fill="#002d40" opacity="0.47" d=" M 44.26 699.03 C 45.98 699.10 46.13 700.82 46.28 702.17 C 44.22 706.86 45.36 712.00 45.21 716.93 C 45.21 798.74 45.22 880.55 45.21 962.36 C 35.16 963.22 25.06 962.55 14.99 962.74 C 10.73 962.50 6.32 963.66 2.23 962.06 C 2.96 962.01 4.41 961.90 5.14 961.85 C 18.03 961.72 30.92 961.75 43.81 961.74 C 43.69 875.47 43.86 789.20 43.72 702.93 C 43.79 701.61 43.97 700.31 44.26 699.03 Z" />
<path fill="#002d40" opacity="0.47" d=" M 467.20 1051.35 C 471.89 1049.67 476.23 1047.18 480.84 1045.30 C 474.17 1051.09 465.31 1052.88 457.29 1056.00 L 450.39 1056.00 C 455.94 1054.25 461.73 1053.37 467.20 1051.35 Z" />
</g>
<g id="#74480082">
<path fill="#744800" opacity="0.51" d=" M 1207.63 887.49 C 1213.41 887.11 1219.21 887.34 1225.01 887.28 C 1230.75 887.24 1236.67 887.12 1242.17 889.10 C 1243.43 889.45 1244.41 890.36 1245.22 891.40 C 1233.61 886.73 1220.87 889.23 1208.72 888.57 C 1208.51 906.93 1208.61 925.29 1208.67 943.65 C 1211.32 943.65 1213.97 943.65 1216.64 943.66 C 1216.73 935.63 1216.62 927.59 1216.72 919.56 C 1220.00 919.37 1223.28 919.31 1226.58 919.34 C 1231.74 927.65 1236.80 936.02 1241.81 944.43 L 1241.06 945.16 C 1235.89 937.04 1231.15 928.67 1225.99 920.56 C 1223.46 920.50 1220.94 920.46 1218.44 920.44 C 1218.15 928.00 1218.35 935.56 1218.32 943.13 C 1218.00 943.66 1217.36 944.71 1217.04 945.23 C 1214.40 945.26 1211.77 945.27 1209.15 945.30 C 1208.76 945.04 1207.99 944.52 1207.60 944.26 C 1207.48 925.33 1207.42 906.41 1207.63 887.49 Z" />
</g>
<g id="#6d440079">
<path fill="#6d4400" opacity="0.47" d=" M 1257.48 891.04 C 1261.44 893.82 1263.02 898.76 1264.73 903.08 C 1268.18 913.27 1267.32 924.84 1262.57 934.49 C 1261.01 937.30 1259.59 940.48 1256.70 942.19 C 1260.00 936.81 1263.49 931.36 1264.59 925.02 C 1267.82 913.28 1263.91 900.95 1257.48 891.04 Z" />
</g>
<g id="#57360062">
<path fill="#573600" opacity="0.38" d=" M 1270.57 890.98 L 1271.59 890.54 C 1274.17 895.84 1276.36 901.35 1277.52 907.16 C 1279.21 910.14 1279.06 913.65 1279.07 916.97 C 1279.01 919.67 1279.05 922.56 1277.53 924.92 C 1276.04 932.36 1273.24 939.58 1268.80 945.77 C 1268.04 946.97 1266.81 947.73 1265.63 948.45 C 1268.76 943.69 1272.11 938.99 1273.90 933.52 C 1276.95 925.72 1277.00 917.18 1276.37 908.96 C 1275.75 902.61 1273.18 896.71 1270.57 890.98 Z" />
</g>
<g id="#72470080">
<path fill="#724700" opacity="0.50" d=" M 998.80 947.71 C 1005.46 951.60 1012.23 955.46 1019.71 957.56 C 1027.52 960.15 1035.81 960.29 1043.78 962.19 C 1038.46 963.17 1033.21 961.59 1028.00 960.77 C 1020.77 959.41 1013.69 957.13 1007.18 953.69 C 1004.18 952.04 1000.69 950.75 998.80 947.71 Z" />
</g>
</svg>
