<?xml version="1.0" encoding="UTF-8" ?>
<!DOCTYPE svg PUBLIC "-//W3C//DTD SVG 1.1//EN" "http://www.w3.org/Graphics/SVG/1.1/DTD/svg11.dtd">
<svg width="1280pt" height="886pt" viewBox="0 0 1280 886" version="1.1" xmlns="http://www.w3.org/2000/svg">
<g id="#44633d83">
<path fill="#44633d" opacity="0.51" d=" M 611.36 14.97 C 612.18 13.86 612.29 11.73 614.17 11.87 C 613.62 13.29 614.03 15.41 612.44 16.20 C 609.17 18.28 605.29 19.06 601.88 20.85 C 590.81 27.59 580.22 35.47 567.93 39.93 C 563.52 42.29 559.96 45.93 555.64 48.43 C 551.00 51.53 545.27 52.51 540.81 55.90 C 535.25 59.99 529.31 63.54 523.10 66.57 C 520.69 66.67 518.28 66.76 515.88 66.84 C 515.09 68.55 514.30 70.27 513.44 71.94 C 509.80 76.24 504.18 77.57 499.56 80.44 C 496.00 82.65 491.94 83.95 488.56 86.47 C 485.07 89.16 480.90 90.72 477.30 93.23 C 467.95 99.47 457.89 104.47 448.29 110.29 C 438.41 116.45 428.21 122.07 417.96 127.58 C 412.83 129.56 409.08 133.81 404.10 136.07 C 399.00 139.13 393.69 141.79 388.40 144.49 C 382.48 148.70 376.19 152.44 369.51 155.34 C 364.89 157.53 360.84 160.69 356.78 163.74 C 353.05 166.55 348.36 167.40 344.22 169.37 C 341.71 170.52 339.71 173.26 336.66 172.64 C 339.52 170.39 342.17 167.65 345.77 166.62 C 356.28 164.03 363.35 154.49 373.87 151.90 C 376.44 149.24 379.43 147.22 383.05 146.25 C 386.94 143.24 391.26 140.64 396.01 139.15 C 398.73 136.84 401.76 134.86 405.12 133.59 C 408.96 132.35 410.94 128.18 414.93 127.14 C 418.77 126.01 421.22 122.44 425.10 121.39 C 429.58 119.98 432.81 116.27 437.17 114.61 C 442.36 112.68 446.22 108.42 451.43 106.49 C 454.73 103.75 458.65 102.11 462.59 100.54 C 465.93 97.99 469.32 95.48 473.37 94.15 C 476.48 91.01 480.40 89.11 484.36 87.31 C 487.33 84.27 491.10 82.50 495.05 81.11 C 498.54 78.27 502.72 76.69 506.75 74.83 C 509.96 72.32 513.69 69.80 514.69 65.57 C 521.49 66.33 527.72 62.65 532.96 58.74 C 534.73 57.39 536.85 56.67 538.95 55.99 C 539.55 54.94 540.17 53.89 540.80 52.85 C 544.43 52.34 547.56 50.23 551.06 49.23 C 555.50 46.00 560.52 43.60 564.52 39.78 C 567.49 37.13 571.88 37.61 574.95 35.12 C 581.05 31.76 586.58 27.41 592.94 24.52 C 596.29 23.02 598.57 19.78 602.14 18.70 C 605.33 17.78 608.31 16.28 611.36 14.97 Z" />
</g>
<g id="#4da139ff">
<path fill="#4da139" opacity="1.00" d=" M 614.17 11.87 C 631.84 12.18 649.52 11.92 667.20 12.00 C 667.27 12.69 667.42 14.07 667.50 14.76 C 673.15 15.37 677.50 19.13 682.31 21.75 C 687.26 24.67 691.86 28.14 696.80 31.08 C 703.30 34.67 710.55 36.98 716.48 41.57 C 720.11 44.36 724.07 46.65 727.94 49.10 C 732.40 51.92 737.97 52.49 742.16 55.83 C 747.70 60.12 753.58 64.10 760.18 66.56 C 766.23 68.21 769.64 74.12 775.38 76.42 C 788.00 82.00 799.24 90.10 811.29 96.73 C 817.32 99.38 822.23 104.99 829.04 105.59 L 830.63 105.62 C 830.60 106.04 830.54 106.88 830.51 107.29 C 832.32 107.82 834.14 108.35 835.99 108.81 C 839.21 111.54 842.58 114.21 846.64 115.57 L 846.57 116.55 C 847.28 116.52 848.71 116.46 849.43 116.43 L 849.51 117.60 C 849.90 117.60 850.67 117.59 851.05 117.59 C 852.02 121.40 857.01 120.35 858.97 123.14 C 860.98 124.09 862.99 125.07 864.82 126.39 C 866.27 126.84 867.73 127.30 869.21 127.74 C 869.75 128.57 870.30 129.40 870.87 130.24 C 872.61 131.05 874.94 131.28 875.86 133.22 C 876.86 133.60 877.90 133.86 878.98 134.01 C 881.78 135.51 884.40 137.30 886.82 139.36 C 888.34 139.80 889.87 140.28 891.42 140.71 L 891.49 141.36 C 892.39 141.79 893.30 142.24 894.22 142.69 C 897.65 145.35 901.32 147.89 905.21 149.80 C 907.05 151.06 908.90 152.34 910.84 153.47 C 911.50 153.47 912.82 153.46 913.48 153.45 L 913.52 154.72 C 914.01 154.62 914.98 154.42 915.47 154.33 L 915.46 155.73 C 915.96 155.66 916.96 155.51 917.47 155.44 C 917.46 155.90 917.46 156.81 917.45 157.27 C 919.47 158.39 921.49 159.52 923.53 160.63 L 923.57 161.55 C 924.84 161.52 926.12 161.49 927.41 161.47 L 927.55 162.28 C 928.06 162.64 929.09 163.35 929.60 163.71 C 929.60 164.09 929.58 164.85 929.57 165.23 C 931.87 165.54 934.15 166.03 936.42 166.60 L 936.45 167.44 C 939.79 168.07 942.53 170.02 944.86 172.42 C 945.41 172.46 946.51 172.55 947.05 172.59 C 949.04 174.86 951.97 175.99 953.95 178.26 C 955.12 178.73 956.30 179.20 957.50 179.65 L 957.49 180.52 C 960.67 181.02 963.86 181.37 967.08 181.58 L 966.31 181.54 C 963.73 181.34 961.18 181.79 958.65 182.15 C 960.64 182.46 962.71 182.57 964.65 183.21 C 967.27 185.93 969.68 189.39 973.81 189.68 L 974.22 189.78 C 974.70 190.28 975.20 190.80 975.74 191.29 C 979.12 194.54 984.10 195.14 987.62 198.21 C 992.51 202.27 998.01 205.43 1003.49 208.59 C 1006.65 212.79 1010.01 216.93 1012.81 221.41 C 1016.25 228.15 1020.96 234.49 1021.87 242.22 C 1022.41 242.39 1023.50 242.73 1024.04 242.90 C 1023.93 374.59 1024.03 506.27 1023.99 637.96 C 1020.79 639.90 1021.07 643.82 1020.41 647.04 C 1018.33 652.68 1014.92 657.71 1011.75 662.79 C 1009.47 666.41 1005.98 668.99 1003.16 672.14 C 997.82 678.44 989.82 681.44 984.01 687.23 C 976.14 687.93 971.43 695.15 964.17 697.36 C 956.20 701.89 948.18 706.44 940.78 711.91 C 936.78 714.93 931.78 715.80 927.14 717.35 C 922.24 719.12 920.12 724.85 915.03 726.25 C 909.66 728.03 904.90 731.08 900.24 734.20 C 895.52 736.36 891.59 739.83 886.96 742.15 C 883.28 744.14 880.24 747.23 876.13 748.41 C 871.85 749.65 868.94 753.27 864.94 755.03 C 860.13 757.36 855.26 759.70 851.05 763.04 C 847.02 766.33 841.78 767.55 837.62 770.65 C 835.00 772.31 832.90 774.61 830.60 776.65 C 828.17 777.74 825.41 777.87 823.02 779.08 C 819.75 780.73 817.13 783.41 813.82 784.99 C 801.14 790.37 790.43 799.42 777.77 804.86 C 772.37 807.14 767.63 810.74 763.76 815.12 C 753.41 817.92 744.55 824.13 735.46 829.56 C 729.64 832.58 724.30 836.39 718.58 839.59 C 714.58 842.87 709.77 844.78 705.30 847.28 C 693.35 853.57 682.34 861.64 669.83 866.87 C 667.92 867.68 666.17 868.80 664.43 869.91 C 658.58 870.93 652.61 870.18 646.72 870.58 C 643.93 870.63 641.16 870.64 638.38 870.60 C 632.77 870.34 627.13 870.61 621.53 870.18 C 617.13 868.19 613.51 864.80 608.92 863.22 C 605.83 862.19 603.26 860.17 600.58 858.41 C 596.65 855.81 591.81 854.90 588.13 851.89 C 581.69 846.72 574.00 843.54 567.16 839.00 C 563.50 836.50 559.25 835.02 555.68 832.39 C 550.21 828.37 544.11 825.30 538.66 821.26 C 536.09 819.29 532.82 818.67 530.12 816.96 C 523.01 811.93 515.80 806.76 507.54 803.78 C 502.06 802.19 497.86 797.83 494.67 793.31 C 493.03 789.29 498.28 787.61 500.53 785.40 C 501.42 784.59 502.12 783.58 502.90 782.67 C 504.61 782.52 506.34 782.39 507.97 781.75 C 508.50 781.66 509.56 781.49 510.09 781.40 C 511.29 780.69 512.57 780.17 513.88 779.70 C 518.53 780.99 520.93 775.93 525.37 776.33 C 527.86 774.41 530.58 772.53 531.70 769.44 C 533.17 769.40 534.66 769.38 536.15 769.36 C 536.32 766.73 539.27 767.68 541.07 767.27 C 543.34 767.37 545.07 765.73 546.75 764.45 C 549.21 764.35 551.67 764.35 554.14 764.48 C 555.49 765.83 557.17 766.71 559.08 766.95 C 560.25 767.16 561.42 767.38 562.61 767.62 C 564.64 769.75 567.13 771.34 569.42 773.19 C 570.77 773.52 572.12 773.92 573.33 774.67 C 574.49 775.58 575.82 776.26 577.18 776.86 C 577.74 777.64 578.29 778.44 578.84 779.25 C 579.88 779.51 580.92 779.78 581.97 780.06 C 583.58 780.81 585.19 781.54 586.86 782.18 C 590.09 782.91 591.28 786.91 594.80 787.26 C 598.00 789.51 600.77 792.45 604.55 793.76 C 608.41 795.20 611.11 798.64 615.14 799.72 C 615.51 799.95 616.25 800.42 616.61 800.65 L 616.65 801.27 C 618.26 801.56 619.86 801.97 621.43 802.50 C 622.24 803.48 623.08 804.47 623.93 805.47 C 624.31 805.45 625.07 805.40 625.45 805.38 L 625.65 806.70 C 626.12 806.58 627.07 806.34 627.54 806.22 C 627.53 806.59 627.51 807.33 627.50 807.70 C 627.99 807.58 628.95 807.35 629.43 807.24 L 629.57 808.52 C 629.94 808.52 630.68 808.53 631.05 808.54 C 632.03 810.02 633.32 811.30 635.01 811.96 C 638.98 813.09 643.29 813.10 647.22 811.77 C 655.10 808.80 663.18 805.25 669.03 798.97 C 671.02 796.43 674.59 797.07 677.31 795.94 C 679.75 794.82 682.03 793.35 684.51 792.28 C 684.62 791.73 684.85 790.62 684.96 790.07 C 690.06 789.38 694.00 785.56 698.42 783.21 C 705.71 779.48 713.22 775.90 719.55 770.61 C 722.72 767.96 727.32 768.16 730.42 765.36 C 734.46 762.10 738.89 759.30 743.73 757.36 C 749.79 754.94 755.06 751.02 760.64 747.71 C 760.01 747.68 758.77 747.61 758.15 747.58 C 759.12 747.16 760.10 746.74 761.10 746.32 C 762.84 744.06 766.00 743.76 767.93 741.66 C 768.58 741.60 769.90 741.47 770.55 741.40 C 771.50 740.50 772.47 739.62 773.47 738.77 C 775.00 737.93 776.40 736.86 777.67 735.66 C 778.78 735.43 779.90 735.22 781.03 735.03 C 783.02 733.75 784.84 732.23 786.80 730.91 C 788.09 730.09 789.40 729.29 790.74 728.53 C 791.31 728.49 792.45 728.41 793.02 728.37 C 794.56 725.79 797.51 724.61 799.72 722.71 C 802.59 722.97 804.50 720.85 806.02 718.74 C 806.49 718.61 807.43 718.34 807.91 718.20 C 809.29 716.90 811.03 716.17 812.85 715.70 C 813.88 715.38 814.94 715.16 816.03 715.04 C 818.01 714.09 819.46 712.42 820.90 710.82 C 821.40 710.51 822.40 709.87 822.90 709.55 C 823.23 709.54 823.88 709.50 824.21 709.48 C 824.74 708.20 825.29 706.94 825.84 705.67 C 827.87 705.40 830.34 706.09 831.97 704.56 C 832.35 704.56 833.09 704.57 833.46 704.57 L 833.54 703.65 C 834.77 703.21 836.01 702.78 837.28 702.39 C 837.69 701.36 838.11 700.34 838.55 699.33 C 840.15 699.31 841.78 699.31 843.41 699.31 C 843.42 698.92 843.44 698.15 843.45 697.76 C 846.14 697.05 848.60 695.74 850.56 693.74 C 851.90 692.94 853.26 692.15 854.63 691.38 L 854.59 690.55 C 855.24 690.54 856.54 690.54 857.19 690.53 C 860.21 688.89 863.06 686.95 865.68 684.72 C 867.17 684.26 868.67 683.79 870.19 683.36 C 870.69 682.49 871.19 681.63 871.72 680.78 C 872.21 680.49 873.20 679.93 873.69 679.65 C 876.37 678.29 879.22 677.29 881.85 675.82 C 883.93 674.47 885.99 673.11 887.85 671.46 C 888.19 671.49 888.88 671.54 889.22 671.57 C 890.51 670.34 891.76 669.07 892.98 667.77 C 894.27 667.49 895.56 667.16 896.85 666.75 C 897.90 666.18 898.96 665.62 900.05 665.12 C 901.09 664.86 902.14 664.58 903.20 664.29 C 904.85 662.83 906.60 661.47 908.44 660.23 L 908.57 659.38 C 909.02 659.43 909.93 659.54 910.39 659.60 L 910.59 658.71 C 912.97 658.43 914.46 656.50 915.85 654.76 C 918.76 654.36 921.35 652.93 923.90 651.54 C 924.21 651.54 924.83 651.54 925.14 651.54 C 927.39 648.78 930.95 647.88 933.66 645.72 C 935.84 645.65 937.46 644.24 938.79 642.63 C 939.98 642.14 941.18 641.65 942.40 641.17 C 942.46 640.82 942.57 640.11 942.63 639.75 C 942.90 639.75 943.46 639.73 943.74 639.73 C 947.09 640.15 949.58 637.71 952.24 636.13 C 955.65 634.00 959.20 631.88 961.79 628.75 C 963.74 624.75 966.03 620.58 965.62 615.96 C 965.79 498.30 965.60 380.64 965.71 262.97 C 965.47 260.04 966.74 255.74 963.18 254.42 L 962.71 254.11 C 961.88 252.97 961.10 251.80 960.35 250.62 C 959.17 250.19 958.00 249.75 956.86 249.33 C 955.47 248.24 954.06 247.20 952.60 246.24 C 951.56 245.38 950.55 244.50 949.55 243.62 C 948.89 243.55 947.57 243.42 946.91 243.35 C 944.49 241.61 941.75 240.19 939.99 237.70 C 939.41 237.65 938.26 237.54 937.69 237.49 C 935.23 236.22 933.35 233.97 930.60 233.29 L 930.55 232.71 C 930.21 232.43 929.53 231.86 929.19 231.58 C 927.16 231.11 925.20 230.47 923.21 229.90 C 922.53 229.19 921.87 228.47 921.23 227.73 C 919.57 226.56 917.97 225.20 916.05 224.48 C 915.68 224.53 914.92 224.62 914.54 224.67 L 914.48 223.30 C 913.99 223.41 913.02 223.62 912.53 223.73 L 912.46 222.29 C 911.98 222.40 911.03 222.61 910.56 222.71 L 910.43 221.78 C 908.63 220.51 906.78 219.32 904.96 218.10 C 903.66 217.72 902.42 217.12 901.16 216.71 C 896.13 214.33 891.73 210.88 886.90 208.16 C 883.56 205.53 879.42 204.31 875.71 202.31 C 874.81 201.51 873.95 200.69 873.11 199.85 C 872.53 199.44 871.99 199.02 871.48 198.58 C 866.99 192.77 859.46 191.32 853.68 187.25 C 848.90 183.98 843.30 182.10 838.76 178.46 C 832.15 173.58 824.08 171.37 817.44 166.59 C 813.95 164.13 809.42 163.63 806.18 160.80 C 800.75 155.83 793.70 153.26 787.56 149.36 C 782.52 145.93 776.63 143.95 771.82 140.17 C 767.59 136.85 763.07 133.82 757.92 132.12 C 753.10 130.71 749.57 126.98 745.14 124.81 C 740.17 122.24 735.43 119.26 730.77 116.17 C 726.92 113.53 722.05 112.64 718.65 109.33 C 714.01 105.15 708.30 101.39 701.82 101.51 C 701.28 101.49 700.19 101.47 699.64 101.45 L 699.44 100.76 C 697.41 99.82 695.79 98.28 694.15 96.82 C 692.30 95.95 690.28 95.21 688.91 93.63 C 687.47 91.61 685.62 89.94 683.29 89.02 C 672.78 82.27 661.79 76.23 650.54 70.86 C 646.74 69.61 643.09 66.79 638.92 67.61 C 634.53 68.86 630.37 70.90 626.70 73.59 C 622.00 77.00 615.57 78.18 612.26 83.33 C 611.23 84.41 610.68 86.42 608.91 86.37 C 601.04 86.95 593.95 91.39 588.24 96.58 C 587.06 97.75 586.02 99.05 585.00 100.35 C 583.86 100.42 582.73 100.49 581.61 100.55 L 581.49 101.43 C 580.29 101.91 579.10 102.39 577.90 102.84 C 576.19 103.41 573.84 103.17 573.02 105.13 C 571.97 105.43 570.99 105.85 570.07 106.39 C 569.77 106.44 569.18 106.54 568.88 106.59 C 567.93 107.45 566.99 108.30 566.03 109.14 C 564.22 109.49 563.15 110.93 562.20 112.37 C 559.80 113.69 557.37 114.99 554.72 115.70 C 549.73 118.73 544.88 121.98 539.98 125.14 C 539.06 125.54 538.13 125.91 537.19 126.25 C 535.50 127.26 533.71 128.11 531.82 128.69 C 530.78 129.37 529.77 130.13 529.05 131.16 C 527.37 132.29 525.49 133.10 523.60 133.80 L 523.50 134.44 C 521.85 134.85 520.22 135.29 518.58 135.68 L 518.46 136.37 C 517.90 136.59 516.79 137.02 516.23 137.23 C 513.89 138.58 511.76 140.24 509.71 141.99 C 509.60 142.59 509.38 143.78 509.26 144.38 C 506.31 144.58 502.62 144.34 501.03 147.41 C 500.45 147.43 499.31 147.48 498.73 147.50 C 496.74 149.81 494.52 152.02 491.36 152.48 L 491.34 153.27 C 490.25 153.60 489.17 153.93 488.10 154.27 C 487.56 154.36 486.49 154.55 485.96 154.64 C 484.68 156.21 483.17 157.55 481.49 158.66 L 481.30 159.26 C 480.21 159.55 479.13 159.81 478.03 160.04 C 475.86 160.72 474.51 162.58 473.07 164.19 C 471.47 164.33 470.07 164.96 469.01 166.16 C 467.63 166.63 466.27 167.12 464.94 167.69 C 464.77 167.79 464.41 167.99 464.23 168.10 C 463.92 168.22 463.29 168.46 462.97 168.59 C 458.75 168.88 455.21 171.39 452.65 174.63 C 449.82 175.22 446.90 175.71 444.36 177.19 C 434.84 182.68 425.69 188.81 416.12 194.22 C 411.85 196.16 407.81 198.56 404.15 201.50 C 404.60 201.65 405.51 201.95 405.96 202.10 C 405.41 203.58 403.73 203.37 402.46 203.50 L 402.41 204.38 C 400.60 204.84 398.80 205.32 396.99 205.76 C 395.13 207.76 392.90 209.36 390.57 210.76 L 390.40 211.68 C 389.94 211.60 389.02 211.44 388.56 211.36 L 388.42 212.66 C 387.95 212.57 387.01 212.39 386.55 212.30 L 386.58 213.55 L 385.39 213.42 L 385.51 214.45 C 385.20 214.46 384.57 214.49 384.26 214.51 C 376.62 214.44 371.66 221.47 364.66 223.48 C 360.22 224.29 358.04 228.70 353.97 230.19 C 350.34 231.60 347.37 234.18 343.91 235.92 C 338.39 238.58 333.45 242.26 328.00 245.06 C 322.38 248.73 315.40 253.48 315.72 261.04 C 315.69 374.35 315.73 487.65 315.70 600.96 C 315.26 608.35 316.81 615.65 316.68 623.04 C 316.32 629.50 323.37 632.01 327.61 635.36 C 329.75 637.19 332.58 637.38 335.28 637.44 C 337.86 642.01 342.73 644.31 347.16 646.69 C 350.75 648.54 353.89 651.12 357.48 652.98 C 362.63 655.89 367.87 658.70 372.57 662.33 C 376.75 665.61 382.23 666.44 386.59 669.45 C 392.95 673.55 399.42 677.49 406.29 680.68 C 410.87 684.64 416.78 686.22 422.45 687.96 C 428.12 689.78 434.13 689.19 439.99 689.25 C 445.08 689.20 450.30 689.71 455.26 688.21 C 460.82 686.88 464.30 681.99 469.00 679.14 C 472.74 677.09 474.18 672.91 476.58 669.64 C 478.00 667.51 479.98 665.59 480.39 662.96 C 481.56 656.97 484.27 650.59 481.41 644.66 C 483.44 639.66 482.52 634.20 482.62 628.97 C 482.98 578.96 482.71 528.95 482.79 478.95 C 482.78 422.31 482.82 365.67 482.78 309.04 C 482.39 301.49 483.30 293.91 482.35 286.40 L 482.43 285.99 C 486.74 280.21 494.53 280.44 501.00 280.61 C 513.04 281.24 525.12 279.82 537.09 281.45 C 541.30 283.75 542.11 288.64 541.68 293.02 C 541.17 300.05 542.92 306.98 542.62 314.01 C 542.33 334.29 543.03 354.59 542.26 374.85 C 542.03 376.89 541.74 378.92 541.68 380.98 C 541.69 474.00 541.67 567.02 541.69 660.04 C 541.15 665.03 540.45 670.00 540.24 675.02 C 539.28 679.67 537.82 684.22 536.93 688.90 C 533.83 697.32 529.64 705.28 525.39 713.16 C 522.33 718.46 516.39 721.71 514.39 727.66 L 514.18 728.20 C 511.81 729.93 509.79 732.07 508.12 734.47 C 507.73 734.47 506.96 734.46 506.57 734.46 L 506.43 735.74 C 506.07 735.69 505.34 735.59 504.98 735.54 C 503.99 736.00 503.00 736.45 502.01 736.89 C 501.28 737.56 500.56 738.24 499.86 738.94 C 498.79 739.21 497.73 739.48 496.68 739.76 C 495.64 740.42 494.61 741.09 493.59 741.78 L 493.39 742.51 C 491.67 742.51 489.96 742.55 488.26 742.57 C 487.59 743.54 486.94 744.51 486.29 745.50 L 485.37 745.46 C 479.39 744.98 473.87 747.91 467.97 748.26 C 453.60 749.03 439.21 748.28 424.83 748.47 C 420.97 747.05 417.04 745.83 412.93 745.40 C 410.27 745.21 408.79 742.31 406.09 742.22 C 399.16 741.68 393.69 737.07 387.38 734.74 C 382.65 732.90 378.47 729.89 373.65 728.27 C 370.01 726.76 365.77 726.14 363.01 723.10 C 360.38 720.84 358.42 717.45 354.86 716.58 C 345.43 713.93 337.94 707.22 329.27 702.93 C 320.05 696.99 310.38 691.80 300.88 686.34 C 292.76 682.62 284.86 677.85 279.10 670.90 C 275.96 666.99 271.52 664.17 269.37 659.51 C 266.38 653.59 263.12 647.64 261.89 641.06 C 257.82 638.33 259.56 633.09 259.28 628.99 C 259.28 503.32 259.28 377.64 259.28 251.97 C 259.08 248.77 260.29 245.80 261.40 242.88 C 264.26 231.76 269.31 220.73 277.83 212.80 C 280.46 210.06 282.53 206.68 285.89 204.75 C 289.58 202.54 293.42 200.51 296.55 197.51 C 299.74 194.14 304.94 194.44 308.39 191.41 C 312.92 187.44 319.03 186.24 323.81 182.68 C 328.02 179.61 332.96 177.58 336.77 173.97 L 336.04 173.18 L 335.48 172.58 C 335.78 172.59 336.37 172.62 336.66 172.64 C 339.71 173.26 341.71 170.52 344.22 169.37 C 348.36 167.40 353.05 166.55 356.78 163.74 C 360.84 160.69 364.89 157.53 369.51 155.34 C 376.19 152.44 382.48 148.70 388.40 144.49 C 393.69 141.79 399.00 139.13 404.10 136.07 C 409.08 133.81 412.83 129.56 417.96 127.58 C 428.21 122.07 438.41 116.45 448.29 110.29 C 457.89 104.47 467.95 99.47 477.30 93.23 C 480.90 90.72 485.07 89.16 488.56 86.47 C 491.94 83.95 496.00 82.65 499.56 80.44 C 504.18 77.57 509.80 76.24 513.44 71.94 C 516.05 69.17 519.75 68.11 523.10 66.57 C 529.31 63.54 535.25 59.99 540.81 55.90 C 545.27 52.51 551.00 51.53 555.64 48.43 C 559.96 45.93 563.52 42.29 567.93 39.93 C 580.22 35.47 590.81 27.59 601.88 20.85 C 605.29 19.06 609.17 18.28 612.44 16.20 C 614.03 15.41 613.62 13.29 614.17 11.87 Z" />
<path fill="#4da139" opacity="1.00" d=" M 701.75 268.58 C 717.80 267.85 733.93 268.42 750.01 268.28 C 758.02 268.50 766.19 267.74 773.99 270.04 C 779.34 271.49 786.49 268.59 790.04 274.21 C 793.15 274.70 796.33 274.48 799.49 274.66 C 799.48 275.05 799.46 275.83 799.45 276.22 C 800.64 276.47 801.81 276.80 802.97 277.22 C 804.89 277.46 806.89 277.52 808.77 278.13 C 811.34 280.78 815.03 280.80 818.47 280.65 C 819.62 281.82 820.78 282.98 821.95 284.14 C 823.98 285.04 826.01 285.99 828.00 287.02 C 829.29 287.26 830.61 287.51 831.92 287.81 C 834.87 289.96 837.92 292.11 841.21 293.72 C 845.46 297.12 849.32 300.96 853.16 304.82 C 854.18 305.98 855.64 306.46 857.13 306.78 C 859.04 309.23 860.86 311.75 862.78 314.20 C 864.58 317.74 868.31 320.22 868.82 324.35 C 869.21 324.43 869.98 324.58 870.37 324.65 L 870.42 325.87 C 869.78 330.48 873.70 333.49 875.38 337.35 C 875.41 337.43 875.49 337.59 875.52 337.67 C 876.50 340.21 877.35 342.80 878.42 345.32 C 878.46 345.41 878.53 345.59 878.57 345.68 C 880.49 348.88 880.65 352.62 880.48 356.25 C 881.46 357.33 882.46 358.42 883.47 359.50 C 883.47 364.44 883.29 369.38 883.78 374.30 C 883.76 378.33 883.76 382.36 883.58 386.39 C 882.07 389.54 878.52 390.87 875.19 390.66 C 862.46 390.30 849.71 390.38 836.97 390.51 C 834.31 390.38 831.33 390.51 829.05 388.93 C 827.18 386.74 825.77 384.21 824.07 381.90 C 821.60 379.06 822.66 375.01 821.53 371.68 C 821.50 371.60 821.45 371.43 821.42 371.35 C 818.63 366.99 820.64 361.04 816.76 357.31 C 814.14 353.44 811.01 349.92 807.13 347.29 C 803.87 345.62 801.04 343.34 798.51 340.71 C 797.40 340.07 796.31 339.43 795.22 338.79 C 794.11 338.10 792.99 337.41 791.96 336.64 C 789.83 335.14 787.91 332.85 785.11 332.76 C 780.90 332.64 777.10 330.74 773.03 329.96 C 767.87 329.21 763.19 326.40 757.88 326.43 C 741.25 326.18 724.62 326.53 707.99 326.32 C 704.89 326.27 701.79 326.35 698.73 326.85 L 698.47 328.55 C 698.41 328.98 698.29 329.86 698.24 330.29 C 692.65 330.73 686.93 329.84 681.50 331.58 L 681.50 332.33 C 680.32 332.55 679.16 332.85 678.03 333.24 C 676.21 333.42 674.40 333.53 672.59 333.65 C 671.00 335.17 668.99 336.07 666.96 336.82 C 665.29 338.23 663.58 339.58 661.76 340.76 C 661.40 341.14 660.68 341.89 660.32 342.26 C 658.12 343.78 656.11 345.53 654.20 347.38 L 653.82 347.37 C 653.41 347.37 652.58 347.37 652.17 347.37 C 649.28 351.02 646.70 355.22 646.35 359.98 C 645.92 364.62 645.72 369.30 646.08 373.95 C 646.31 378.21 648.48 381.99 650.32 385.73 C 652.58 390.51 658.03 392.06 662.14 394.81 C 666.28 397.68 671.60 396.90 676.19 398.58 C 681.72 400.49 687.77 400.02 693.12 402.52 C 696.14 403.23 699.26 403.14 702.32 403.54 C 702.41 403.56 702.58 403.59 702.66 403.60 C 704.41 404.02 706.21 404.53 707.98 405.00 C 708.69 406.12 709.70 406.54 711.01 406.26 C 713.37 406.13 715.72 406.54 718.02 407.13 C 718.96 408.35 720.50 408.78 722.00 408.41 C 726.67 408.65 731.29 409.77 736.01 409.52 C 741.35 409.33 746.78 409.44 751.90 411.17 C 758.92 412.60 766.25 411.16 773.39 411.54 C 774.43 412.56 775.45 413.62 776.54 414.61 L 777.50 415.43 C 779.18 415.55 780.87 415.56 782.57 415.62 C 787.52 417.48 792.55 419.60 797.94 419.66 C 801.17 419.70 804.48 419.94 807.31 421.67 C 810.60 423.63 814.81 421.88 818.10 423.82 C 822.81 427.10 828.98 425.45 834.08 427.88 C 842.29 429.23 849.21 434.03 856.91 436.88 C 857.48 437.08 858.64 437.48 859.22 437.67 C 860.43 437.70 861.64 437.74 862.87 437.79 C 865.36 441.74 869.92 443.56 872.69 447.27 C 877.50 452.03 882.18 456.94 886.41 462.22 C 891.10 470.64 893.78 480.01 896.52 489.19 C 895.80 492.08 895.53 495.06 895.98 498.01 C 897.05 506.30 895.99 514.67 896.75 522.98 C 896.54 524.86 896.38 526.75 896.27 528.65 C 894.08 541.84 888.53 554.25 881.74 565.70 C 879.30 570.08 875.58 573.52 872.54 577.46 C 867.42 583.84 860.27 588.01 854.11 593.24 C 848.35 597.06 842.44 600.67 835.91 603.01 C 830.32 606.30 823.82 607.35 818.14 610.40 C 813.68 612.35 808.90 613.68 804.02 613.86 C 798.17 614.14 792.72 616.54 786.94 617.15 C 780.51 617.85 774.22 619.43 767.76 619.87 C 773.31 622.05 779.30 620.17 785.01 619.79 C 784.70 620.00 784.07 620.43 783.76 620.64 C 780.16 620.60 776.58 620.66 773.02 621.21 C 762.89 621.52 752.75 621.55 742.62 621.58 L 742.41 622.45 C 735.88 622.93 729.51 621.18 723.01 621.46 C 715.37 621.35 707.63 622.17 700.10 620.68 C 697.28 620.34 694.44 620.43 691.62 620.38 L 691.62 619.28 C 691.22 619.31 690.42 619.37 690.01 619.39 C 687.18 617.72 683.63 618.66 680.50 618.38 C 680.54 618.09 680.63 617.50 680.67 617.20 C 680.15 617.33 679.11 617.59 678.58 617.73 L 678.47 616.56 C 676.38 616.41 674.12 616.78 672.23 615.71 C 671.17 615.33 670.11 615.00 669.05 614.74 C 666.10 614.42 662.92 615.11 660.21 613.72 C 657.46 611.72 653.94 612.70 650.82 612.29 C 649.26 611.69 648.57 610.21 648.12 608.74 C 645.93 608.38 643.75 607.92 641.59 607.46 L 641.72 607.27 C 641.94 606.96 642.36 606.35 642.58 606.04 C 635.06 602.44 627.71 597.30 619.07 597.32 C 617.44 594.31 615.83 591.12 613.02 589.04 C 610.26 587.07 607.10 585.70 604.54 583.45 C 597.56 577.64 592.96 569.68 587.37 562.66 C 584.16 558.76 582.64 553.88 580.81 549.26 C 579.09 544.83 577.21 540.45 575.88 535.89 C 575.89 538.03 575.87 540.17 575.90 542.33 L 575.90 543.08 C 574.41 538.82 575.50 533.91 572.87 530.06 C 572.11 527.47 572.26 524.66 572.54 522.01 C 574.26 514.50 571.87 506.65 574.01 499.18 C 576.46 495.67 580.65 493.16 585.02 493.38 C 596.35 493.55 607.69 493.41 619.01 493.47 C 626.64 493.25 633.58 500.47 633.22 508.04 C 633.35 513.03 635.37 517.68 637.05 522.31 C 639.52 527.83 642.23 533.34 645.51 538.42 C 651.36 543.94 657.11 550.24 664.97 552.83 C 667.59 553.75 670.42 553.42 673.16 553.51 C 675.74 555.72 678.38 558.14 681.78 558.98 C 689.22 560.55 696.45 563.53 704.21 562.78 C 714.13 562.90 724.06 562.53 733.97 562.89 C 740.65 563.52 747.33 562.47 754.02 562.74 C 762.73 562.63 771.51 563.13 780.18 562.10 C 786.71 560.14 793.43 558.87 799.96 556.87 C 803.48 555.55 806.64 553.33 810.46 552.82 C 807.98 552.18 805.47 552.86 802.99 553.05 C 805.14 551.46 808.00 551.87 810.51 551.40 C 812.35 549.46 814.97 548.86 817.50 548.38 C 817.48 548.11 817.44 547.57 817.41 547.30 L 818.46 547.44 C 818.78 547.48 819.43 547.56 819.76 547.60 C 821.46 545.00 822.92 542.16 825.44 540.23 C 828.81 537.70 830.13 533.52 831.67 529.78 C 834.11 521.88 836.10 513.27 833.63 505.12 C 832.31 501.10 830.76 496.85 827.45 494.03 C 823.97 491.82 821.04 488.93 818.01 486.21 C 812.95 485.35 808.05 483.77 803.02 482.80 C 800.74 482.27 799.06 480.43 796.85 479.78 C 787.72 477.45 778.58 475.11 769.37 473.16 C 766.27 472.64 763.12 472.59 760.02 472.12 C 744.32 468.11 727.96 469.98 711.96 469.33 C 710.06 469.21 708.43 468.19 706.76 467.43 C 706.68 467.61 706.53 467.97 706.45 468.15 L 706.05 468.99 C 705.73 468.21 705.39 467.45 705.03 466.71 C 701.93 463.71 697.08 463.81 693.03 463.41 C 688.65 463.33 684.51 461.91 680.30 460.95 C 676.23 460.03 672.04 460.63 667.94 460.15 C 664.97 459.27 662.34 457.10 659.07 457.47 C 655.24 457.65 651.35 457.24 648.32 454.67 C 647.92 454.63 647.11 454.55 646.71 454.51 C 645.53 454.46 644.37 454.44 643.21 454.46 L 643.47 453.55 C 643.57 453.21 643.77 452.52 643.88 452.18 C 635.24 450.41 628.11 443.73 618.97 444.17 C 616.02 441.05 614.08 436.92 610.30 434.67 C 604.68 431.02 599.92 425.95 596.92 419.95 C 593.75 414.77 591.55 408.57 586.15 405.23 L 585.13 406.12 C 584.99 406.24 584.72 406.48 584.58 406.60 C 585.15 399.51 583.03 392.63 583.39 385.56 L 582.30 385.56 C 583.53 376.76 581.80 367.72 583.21 359.00 C 585.56 354.05 584.80 348.38 586.47 343.25 C 587.59 339.70 588.66 336.13 590.02 332.67 C 591.30 329.33 593.66 326.51 594.61 323.04 L 594.79 322.51 C 595.39 320.88 596.33 319.42 597.45 318.10 C 597.48 317.80 597.54 317.21 597.57 316.91 C 599.47 314.28 601.78 311.83 602.78 308.67 L 603.26 308.47 C 603.56 308.16 604.16 307.53 604.46 307.22 L 604.58 306.61 C 609.07 307.19 611.75 303.29 614.44 300.42 L 614.54 299.50 C 616.02 297.90 617.46 296.17 619.48 295.22 L 619.59 294.37 C 619.97 294.40 620.72 294.47 621.10 294.50 C 624.75 292.71 627.79 289.97 631.09 287.66 C 631.51 287.63 632.36 287.56 632.79 287.52 C 633.38 287.49 634.56 287.43 635.14 287.40 C 639.90 284.83 644.55 281.92 649.97 280.92 C 655.33 278.76 661.05 277.63 666.38 275.42 C 668.00 274.58 669.52 273.55 671.03 272.51 C 681.39 272.61 691.88 272.02 701.75 268.58 Z" />
</g>
<g id="#517b48a3">
<path fill="#517b48" opacity="0.64" d=" M 667.20 12.00 C 668.88 12.00 670.56 12.02 672.26 12.02 C 672.33 12.56 672.46 13.62 672.53 14.16 C 677.86 17.84 683.63 20.83 689.20 24.13 C 692.62 25.90 695.83 28.03 698.83 30.44 C 706.33 32.98 713.41 36.79 719.81 41.45 C 723.62 43.84 727.69 45.91 731.06 48.93 C 732.74 50.49 735.19 50.31 737.30 50.78 C 738.89 51.93 740.68 52.70 742.48 53.46 C 742.52 53.49 742.61 53.54 742.66 53.57 C 743.40 54.41 744.12 55.28 744.82 56.17 C 748.12 57.87 751.31 59.80 754.15 62.20 C 756.43 62.93 758.81 63.65 760.52 65.44 C 762.05 65.49 763.59 65.52 765.15 65.56 C 766.00 67.44 767.10 69.29 769.15 70.06 C 772.66 71.66 775.25 74.73 778.90 76.07 C 783.98 78.09 788.44 81.32 793.42 83.57 C 798.17 88.12 804.91 89.52 809.52 94.26 C 814.01 95.26 817.84 97.82 820.77 101.37 C 821.95 101.48 823.15 101.60 824.36 101.73 C 826.11 103.09 828.07 104.12 830.07 105.10 L 829.04 105.59 C 822.23 104.99 817.32 99.38 811.29 96.73 C 799.24 90.10 788.00 82.00 775.38 76.42 C 769.64 74.12 766.23 68.21 760.18 66.56 C 753.58 64.10 747.70 60.12 742.16 55.83 C 737.97 52.49 732.40 51.92 727.94 49.10 C 724.07 46.65 720.11 44.36 716.48 41.57 C 710.55 36.98 703.30 34.67 696.80 31.08 C 691.86 28.14 687.26 24.67 682.31 21.75 C 677.50 19.13 673.15 15.37 667.50 14.76 C 667.42 14.07 667.27 12.69 667.20 12.00 Z" />
</g>
<g id="#28352543">
<path fill="#283525" opacity="0.26" d=" M 672.26 12.02 C 673.57 12.13 674.89 12.24 676.22 12.36 C 676.54 13.92 676.43 16.11 678.27 16.77 C 682.17 18.75 686.89 20.07 689.20 24.13 C 683.63 20.83 677.86 17.84 672.53 14.16 C 672.46 13.62 672.33 12.56 672.26 12.02 Z" />
</g>
<g id="#1a261831">
<path fill="#1a2618" opacity="0.19" d=" M 588.47 18.45 C 589.88 18.61 591.66 17.98 592.70 19.27 C 592.72 21.51 590.55 22.98 588.45 22.70 C 588.45 21.28 588.46 19.87 588.47 18.45 Z" />
</g>
<g id="#35453057">
<path fill="#354530" opacity="0.34" d=" M 742.48 53.46 C 742.52 53.49 742.61 53.54 742.66 53.57 C 742.61 53.54 742.52 53.49 742.48 53.46 Z" />
</g>
<g id="#619f52e0">
<path fill="#619f52" opacity="0.88" d=" M 515.88 66.84 C 518.28 66.76 520.69 66.67 523.10 66.57 C 519.75 68.11 516.05 69.17 513.44 71.94 C 514.30 70.27 515.09 68.55 515.88 66.84 Z" />
</g>
<g id="#48644180">
<path fill="#486441" opacity="0.50" d=" M 626.70 73.59 C 630.37 70.90 634.53 68.86 638.92 67.61 C 643.09 66.79 646.74 69.61 650.54 70.86 C 655.08 75.54 661.52 77.48 667.01 80.77 C 672.59 83.26 677.09 87.98 683.29 89.02 C 685.62 89.94 687.47 91.61 688.91 93.63 C 686.35 94.02 685.26 91.23 683.06 90.71 C 679.31 89.53 675.49 87.93 672.91 84.86 C 669.36 84.18 666.71 81.22 663.00 81.20 C 661.54 78.46 658.20 77.78 655.74 76.22 C 652.63 74.91 650.52 71.91 647.11 71.24 C 644.42 70.43 641.80 68.43 638.88 69.47 C 636.32 70.47 633.72 71.38 631.11 72.22 C 628.63 73.81 626.82 76.44 623.89 77.31 C 619.98 78.49 616.90 81.28 613.83 83.83 C 612.40 84.87 612.52 86.75 612.18 88.30 C 605.93 87.57 599.69 89.90 594.86 93.79 C 592.90 95.18 590.76 96.66 588.24 96.58 C 593.95 91.39 601.04 86.95 608.91 86.37 C 610.68 86.42 611.23 84.41 612.26 83.33 C 615.57 78.18 622.00 77.00 626.70 73.59 Z" />
<path fill="#486441" opacity="0.50" d=" M 897.42 493.89 L 898.05 492.93 C 900.33 500.78 899.33 509.02 899.55 517.07 C 899.85 522.51 897.15 527.54 897.30 532.98 C 897.51 537.05 894.68 540.34 893.78 544.17 C 894.39 538.95 896.72 534.01 896.27 528.65 C 896.38 526.75 896.54 524.86 896.75 522.98 C 899.69 513.52 897.29 503.56 897.42 493.89 Z" />
</g>
<g id="#5d9051c3">
<path fill="#5d9051" opacity="0.76" d=" M 650.54 70.86 C 661.79 76.23 672.78 82.27 683.29 89.02 C 677.09 87.98 672.59 83.26 667.01 80.77 C 661.52 77.48 655.08 75.54 650.54 70.86 Z" />
</g>
<g id="#598550af">
<path fill="#598550" opacity="0.69" d=" M 701.82 101.51 C 708.30 101.39 714.01 105.15 718.65 109.33 C 722.05 112.64 726.92 113.53 730.77 116.17 C 735.43 119.26 740.17 122.24 745.14 124.81 C 749.57 126.98 753.10 130.71 757.92 132.12 C 763.07 133.82 767.59 136.85 771.82 140.17 C 776.63 143.95 782.52 145.93 787.56 149.36 C 793.70 153.26 800.75 155.83 806.18 160.80 C 809.42 163.63 813.95 164.13 817.44 166.59 C 824.08 171.37 832.15 173.58 838.76 178.46 C 843.30 182.10 848.90 183.98 853.68 187.25 C 859.46 191.32 866.99 192.77 871.48 198.58 C 868.43 198.93 866.34 196.51 863.95 195.11 C 860.50 192.69 856.31 191.65 852.89 189.19 C 849.70 187.20 846.66 184.32 842.67 184.33 C 838.81 179.46 832.41 178.22 828.27 173.73 C 824.66 173.30 820.85 172.45 818.44 169.49 C 814.68 165.28 807.72 166.26 804.43 161.61 C 802.37 159.43 799.58 158.17 796.78 157.27 C 796.24 156.44 795.70 155.61 795.18 154.79 C 791.66 154.18 788.34 152.64 785.63 150.34 C 781.49 146.81 775.34 146.21 771.91 141.78 C 771.37 141.64 770.28 141.36 769.74 141.22 C 765.19 136.39 758.44 134.65 752.49 132.19 C 751.41 131.34 750.56 130.27 749.54 129.38 C 742.18 125.22 734.32 121.70 727.87 116.13 C 724.46 114.65 720.00 114.61 717.79 111.19 C 716.28 108.70 713.52 107.82 710.84 107.23 C 709.60 106.06 708.38 104.88 707.17 103.69 C 705.03 103.26 702.90 102.78 700.79 102.23 L 701.82 101.51 Z" />
<path fill="#598550" opacity="0.69" d=" M 958.65 182.15 C 961.18 181.79 963.73 181.34 966.31 181.54 C 967.39 185.60 972.42 186.06 973.81 189.68 C 969.68 189.39 967.27 185.93 964.65 183.21 C 962.71 182.57 960.64 182.46 958.65 182.15 Z" />
<path fill="#598550" opacity="0.69" d=" M 684.05 269.95 C 689.98 269.63 695.75 267.36 701.75 268.58 C 691.88 272.02 681.39 272.61 671.03 272.51 C 669.52 273.55 668.00 274.58 666.38 275.42 C 666.58 275.07 666.99 274.37 667.20 274.02 C 668.10 272.92 668.33 270.71 670.07 270.71 C 674.72 270.34 679.42 270.72 684.05 269.95 Z" />
<path fill="#598550" opacity="0.69" d=" M 481.44 308.96 C 481.46 301.44 480.75 293.80 482.35 286.40 C 483.30 293.91 482.39 301.49 482.78 309.04 C 482.82 365.67 482.78 422.31 482.79 478.95 C 482.71 528.95 482.98 578.96 482.62 628.97 C 482.52 634.20 483.44 639.66 481.41 644.66 C 484.27 650.59 481.56 656.97 480.39 662.96 C 479.98 665.59 478.00 667.51 476.58 669.64 C 474.18 672.91 472.74 677.09 469.00 679.14 C 464.30 681.99 460.82 686.88 455.26 688.21 C 444.33 687.57 433.38 687.86 422.45 687.96 C 416.78 686.22 410.87 684.64 406.29 680.68 C 399.42 677.49 392.95 673.55 386.59 669.45 C 382.23 666.44 376.75 665.61 372.57 662.33 C 367.87 658.70 362.63 655.89 357.48 652.98 L 359.63 652.76 C 362.42 652.77 365.06 654.23 367.01 656.17 C 368.58 657.68 370.82 658.17 372.50 659.54 C 377.88 664.72 386.02 665.35 391.49 670.50 C 394.82 671.98 397.95 673.79 400.78 676.11 C 405.07 677.53 409.38 679.37 412.07 683.23 C 416.97 682.98 421.23 685.73 426.01 686.25 C 433.67 686.91 441.36 686.04 449.03 686.53 C 452.85 686.84 456.56 685.49 460.01 683.99 C 462.27 682.27 464.00 679.90 466.55 678.55 C 468.81 677.31 470.84 675.65 472.16 673.39 C 474.69 668.97 479.42 665.46 479.56 660.00 C 480.03 656.32 480.77 652.68 481.45 649.04 C 480.48 647.15 478.42 645.03 479.90 642.85 C 482.22 638.93 481.05 634.30 481.22 630.01 C 481.64 579.68 481.35 529.34 481.44 479.00 C 481.44 422.32 481.44 365.64 481.44 308.96 Z" />
<path fill="#598550" opacity="0.69" d=" M 586.15 405.23 C 591.55 408.57 593.75 414.77 596.92 419.95 C 599.92 425.95 604.68 431.02 610.30 434.67 C 614.08 436.92 616.02 441.05 618.97 444.17 C 628.11 443.73 635.24 450.41 643.88 452.18 C 643.77 452.52 643.57 453.21 643.47 453.55 C 639.55 453.89 635.94 452.04 632.76 449.97 C 628.40 447.89 623.78 445.82 618.82 446.24 C 618.34 445.98 617.37 445.46 616.88 445.20 C 615.64 442.09 613.00 439.80 610.91 437.26 C 605.83 434.51 602.02 430.08 598.19 425.88 C 595.99 421.31 592.72 417.36 590.66 412.72 C 589.57 409.98 587.12 408.16 585.13 406.12 L 586.15 405.23 Z" />
<path fill="#598550" opacity="0.69" d=" M 646.71 454.51 C 647.11 454.55 647.92 454.63 648.32 454.67 C 651.35 457.24 655.24 457.65 659.07 457.47 C 662.34 457.10 664.97 459.27 667.94 460.15 C 672.04 460.63 676.23 460.03 680.30 460.95 C 679.11 461.14 677.93 461.33 676.76 461.53 C 671.93 461.43 666.75 462.39 662.33 459.94 C 658.09 459.27 653.72 459.44 649.50 458.46 C 648.58 457.12 647.66 455.81 646.71 454.51 Z" />
<path fill="#598550" opacity="0.69" d=" M 827.45 494.03 C 830.76 496.85 832.31 501.10 833.63 505.12 C 836.10 513.27 834.11 521.88 831.67 529.78 C 830.13 533.52 828.81 537.70 825.44 540.23 C 822.92 542.16 821.46 545.00 819.76 547.60 C 819.43 547.56 818.78 547.48 818.46 547.44 C 819.14 542.32 823.80 538.99 827.36 535.61 C 827.40 533.70 827.88 531.84 829.24 530.43 C 831.99 527.29 831.64 522.86 832.64 519.05 C 834.46 511.20 831.86 503.07 828.04 496.23 C 827.89 495.68 827.59 494.58 827.45 494.03 Z" />
<path fill="#598550" opacity="0.69" d=" M 575.90 542.33 C 575.87 540.17 575.89 538.03 575.88 535.89 C 577.21 540.45 579.09 544.83 580.81 549.26 C 582.64 553.88 584.16 558.76 587.37 562.66 C 592.96 569.68 597.56 577.64 604.54 583.45 C 607.10 585.70 610.26 587.07 613.02 589.04 C 615.83 591.12 617.44 594.31 619.07 597.32 C 627.71 597.30 635.06 602.44 642.58 606.04 C 642.36 606.35 641.94 606.96 641.72 607.27 C 639.61 606.05 637.28 605.38 634.89 605.07 C 634.75 604.49 634.47 603.32 634.33 602.74 C 632.89 602.47 631.34 602.52 630.01 601.89 C 629.56 601.63 628.64 601.10 628.18 600.83 C 625.20 599.71 622.06 599.42 618.90 599.51 C 617.05 600.07 616.71 598.05 616.23 596.89 C 615.57 594.98 614.53 593.25 613.34 591.66 C 613.30 591.61 613.23 591.52 613.19 591.47 C 612.03 589.83 610.00 589.24 608.32 588.36 C 608.23 588.31 608.05 588.22 607.96 588.18 C 607.87 588.13 607.70 588.03 607.62 587.98 C 604.26 586.13 602.11 582.82 598.86 580.82 C 595.33 576.71 592.33 572.17 588.86 568.02 C 588.24 566.60 587.65 565.18 587.09 563.76 C 586.56 563.62 585.51 563.36 584.99 563.23 C 581.08 556.64 579.50 549.08 575.90 542.33 Z" />
<path fill="#598550" opacity="0.69" d=" M 802.99 553.05 C 805.47 552.86 807.98 552.18 810.46 552.82 C 806.64 553.33 803.48 555.55 799.96 556.87 C 800.97 556.01 801.88 555.02 802.57 553.88 L 802.99 553.05 Z" />
<path fill="#598550" opacity="0.69" d=" M 739.07 757.04 C 745.68 755.22 751.22 751.17 756.92 747.51 L 758.15 747.58 C 758.77 747.61 760.01 747.68 760.64 747.71 C 755.06 751.02 749.79 754.94 743.73 757.36 C 738.89 759.30 734.46 762.10 730.42 765.36 C 727.32 768.16 722.72 767.96 719.55 770.61 C 713.22 775.90 705.71 779.48 698.42 783.21 C 694.00 785.56 690.06 789.38 684.96 790.07 L 684.43 789.17 C 686.94 786.31 692.53 787.05 693.90 782.75 C 696.25 782.06 698.60 781.27 700.61 779.84 C 704.94 779.33 707.60 775.35 711.59 773.84 C 713.31 773.31 715.31 772.99 716.23 771.21 C 717.66 768.69 720.50 767.78 723.01 766.72 C 724.16 766.62 725.31 766.52 726.47 766.44 C 729.85 762.26 734.79 760.09 739.07 757.04 Z" />
<path fill="#598550" opacity="0.69" d=" M 684.32 789.76 L 684.96 790.07 C 684.85 790.62 684.62 791.73 684.51 792.28 C 682.03 793.35 679.75 794.82 677.31 795.94 C 674.59 797.07 671.02 796.43 669.03 798.97 C 663.18 805.25 655.10 808.80 647.22 811.77 C 648.06 810.43 648.97 809.13 649.91 807.87 C 656.32 806.41 661.36 802.03 667.10 799.11 C 667.62 797.89 668.16 796.69 668.71 795.51 C 672.32 795.77 675.91 795.07 678.81 792.80 C 681.09 792.65 682.75 791.27 684.32 789.76 Z" />
</g>
<g id="#5b8e4ec3">
<path fill="#5b8e4e" opacity="0.76" d=" M 452.65 174.63 C 455.21 171.39 458.75 168.88 462.97 168.59 C 459.95 171.18 456.21 172.93 453.82 176.21 C 448.87 177.14 443.75 178.50 439.85 181.86 C 436.70 184.58 432.60 185.80 429.43 188.48 C 426.74 190.66 423.16 191.29 420.54 193.57 C 418.87 194.96 416.99 196.08 414.98 196.91 L 413.34 197.61 C 413.27 197.63 413.13 197.67 413.06 197.69 C 412.56 197.94 411.56 198.42 411.05 198.67 C 410.33 199.22 408.87 200.33 408.14 200.89 C 408.01 200.99 407.74 201.18 407.61 201.28 C 407.43 201.50 407.09 201.96 406.91 202.18 L 405.96 202.10 C 405.51 201.95 404.60 201.65 404.15 201.50 C 407.81 198.56 411.85 196.16 416.12 194.22 C 425.69 188.81 434.84 182.68 444.36 177.19 C 446.90 175.71 449.82 175.22 452.65 174.63 Z" />
</g>
<g id="#212c1e37">
<path fill="#212c1e" opacity="0.22" d=" M 462.97 168.59 C 463.29 168.46 463.92 168.22 464.23 168.10 C 463.20 171.65 459.40 173.05 456.50 174.72 C 455.79 175.59 455.14 176.50 454.34 177.28 C 449.27 178.77 443.46 179.61 439.72 183.70 C 437.40 185.99 434.46 187.46 431.59 188.92 C 431.59 189.59 431.59 190.92 431.58 191.59 C 427.91 191.66 424.16 192.22 420.97 194.13 C 419.53 195.83 420.96 197.10 422.54 197.84 C 422.38 197.98 422.08 198.26 421.92 198.40 C 419.86 197.02 417.42 196.63 414.98 196.91 C 416.99 196.08 418.87 194.96 420.54 193.57 C 423.16 191.29 426.74 190.66 429.43 188.48 C 432.60 185.80 436.70 184.58 439.85 181.86 C 443.75 178.50 448.87 177.14 453.82 176.21 C 456.21 172.93 459.95 171.18 462.97 168.59 Z" />
</g>
<g id="#4968418a">
<path fill="#496841" opacity="0.54" d=" M 330.59 174.73 C 332.39 174.16 334.18 173.55 336.04 173.18 L 336.77 173.97 C 332.96 177.58 328.02 179.61 323.81 182.68 C 319.03 186.24 312.92 187.44 308.39 191.41 C 304.94 194.44 299.74 194.14 296.55 197.51 C 293.42 200.51 289.58 202.54 285.89 204.75 C 282.53 206.68 280.46 210.06 277.83 212.80 C 269.31 220.73 264.26 231.76 261.40 242.88 C 260.29 245.80 259.08 248.77 259.28 251.97 C 259.28 377.64 259.28 503.32 259.28 628.99 C 259.56 633.09 257.82 638.33 261.89 641.06 C 263.12 647.64 266.38 653.59 269.37 659.51 C 271.52 664.17 275.96 666.99 279.10 670.90 C 284.86 677.85 292.76 682.62 300.88 686.34 C 310.38 691.80 320.05 696.99 329.27 702.93 C 337.94 707.22 345.43 713.93 354.86 716.58 C 358.42 717.45 360.38 720.84 363.01 723.10 C 365.77 726.14 370.01 726.76 373.65 728.27 C 378.47 729.89 382.65 732.90 387.38 734.74 C 393.69 737.07 399.16 741.68 406.09 742.22 C 408.79 742.31 410.27 745.21 412.93 745.40 C 417.04 745.83 420.97 747.05 424.83 748.47 L 423.32 749.25 C 419.49 749.88 415.90 747.16 411.99 747.43 C 409.53 747.98 408.38 745.74 407.92 743.76 C 401.39 743.70 394.87 741.21 389.95 736.95 C 385.89 736.95 382.69 734.27 378.93 733.19 C 377.98 732.38 377.34 731.01 376.01 730.84 C 372.29 730.13 369.11 727.96 365.48 727.01 C 362.72 724.62 359.58 722.64 357.15 719.89 C 355.43 717.62 352.30 717.91 349.92 716.86 C 342.17 713.59 335.60 708.16 328.09 704.43 C 324.84 702.72 322.18 700.07 318.84 698.52 C 313.84 696.67 310.06 692.68 305.05 690.87 C 298.88 686.98 291.92 684.47 286.09 680.04 C 279.88 674.65 273.63 669.14 269.11 662.26 C 266.35 656.24 263.12 650.41 261.27 644.03 C 260.46 641.22 257.77 639.11 258.00 636.02 C 257.93 511.01 257.99 385.99 257.97 260.97 C 257.95 259.08 257.85 257.18 257.73 255.30 C 257.45 249.99 258.58 244.76 260.19 239.73 C 262.80 231.26 266.78 223.17 272.04 216.02 C 275.25 212.88 278.26 209.56 281.11 206.08 C 286.44 201.63 293.08 198.97 298.13 194.15 C 300.89 192.32 304.45 192.04 307.14 190.14 C 309.51 187.46 312.99 186.39 316.11 184.86 C 321.55 183.63 324.55 177.91 330.16 177.02 C 330.27 176.45 330.48 175.30 330.59 174.73 Z" />
</g>
<g id="#4b6f4290">
<path fill="#4b6f42" opacity="0.56" d=" M 975.74 191.29 C 978.78 190.79 981.16 193.03 983.99 193.64 C 986.59 194.11 987.73 196.84 990.01 197.93 C 994.48 200.41 998.15 204.14 1002.93 206.11 C 1005.96 207.04 1006.41 210.60 1008.57 212.54 C 1013.31 217.37 1016.03 223.68 1019.30 229.49 C 1020.97 231.35 1021.65 233.70 1021.90 236.14 C 1022.34 236.41 1023.24 236.95 1023.68 237.22 C 1023.81 239.11 1023.94 241.00 1024.04 242.90 C 1023.50 242.73 1022.41 242.39 1021.87 242.22 C 1020.96 234.49 1016.25 228.15 1012.81 221.41 C 1010.01 216.93 1006.65 212.79 1003.49 208.59 C 998.01 205.43 992.51 202.27 987.62 198.21 C 984.10 195.14 979.12 194.54 975.74 191.29 Z" />
</g>
<g id="#3b53356a">
<path fill="#3b5335" opacity="0.42" d=" M 413.06 197.69 C 413.13 197.67 413.27 197.63 413.34 197.61 C 413.27 197.63 413.13 197.67 413.06 197.69 Z" />
</g>
<g id="#304a2a68">
<path fill="#304a2a" opacity="0.41" d=" M 411.05 198.67 C 411.56 198.42 412.56 197.94 413.06 197.69 L 412.88 198.62 L 411.86 199.11 L 411.05 198.67 Z" />
</g>
<g id="#3a51346a">
<path fill="#3a5134" opacity="0.42" d=" M 407.61 201.28 C 407.74 201.18 408.01 200.99 408.14 200.89 C 408.01 200.99 407.74 201.18 407.61 201.28 Z" />
<path fill="#3a5134" opacity="0.42" d=" M 748.07 824.36 C 748.16 824.30 748.33 824.19 748.42 824.14 C 748.33 824.19 748.16 824.30 748.07 824.36 Z" />
</g>
<g id="#3c503765">
<path fill="#3c5037" opacity="0.40" d=" M 406.91 202.18 C 407.09 201.96 407.43 201.50 407.61 201.28 C 407.43 201.50 407.09 201.96 406.91 202.18 Z" />
</g>
<g id="#4f70479c">
<path fill="#4f7047" opacity="0.61" d=" M 364.66 223.48 C 371.66 221.47 376.62 214.44 384.26 214.51 C 383.27 216.22 381.28 216.62 379.62 217.37 C 376.18 218.74 373.31 221.15 370.14 223.01 C 367.23 224.94 363.39 225.00 360.79 227.46 C 357.14 231.57 351.48 232.59 347.43 236.22 C 343.41 237.53 340.07 239.92 336.76 242.45 C 331.34 244.35 327.01 248.10 322.21 251.08 C 320.45 252.79 318.90 254.75 317.70 256.89 C 317.32 268.54 317.77 280.23 317.49 291.89 C 317.66 397.93 317.51 503.99 317.57 610.04 C 318.22 615.37 318.31 620.74 318.45 626.11 C 323.46 630.67 329.00 635.20 336.08 635.63 C 337.57 640.07 342.45 641.28 345.60 644.23 C 350.76 646.20 355.24 649.48 359.63 652.76 L 357.48 652.98 C 353.89 651.12 350.75 648.54 347.16 646.69 C 342.73 644.31 337.86 642.01 335.28 637.44 C 333.25 635.47 330.17 635.96 327.61 635.36 C 323.37 632.01 316.32 629.50 316.68 623.04 C 316.81 615.65 315.26 608.35 315.70 600.96 C 315.73 487.65 315.69 374.35 315.72 261.04 C 315.40 253.48 322.38 248.73 328.00 245.06 C 333.45 242.26 338.39 238.58 343.91 235.92 C 347.37 234.18 350.34 231.60 353.97 230.19 C 358.04 228.70 360.22 224.29 364.66 223.48 Z" />
<path fill="#4f7047" opacity="0.61" d=" M 637.42 517.75 C 639.25 522.49 640.70 527.67 644.20 531.50 C 644.57 532.85 644.65 534.37 645.55 535.54 C 649.35 540.39 654.63 543.71 658.92 548.07 C 660.02 549.50 661.92 549.37 663.53 549.74 C 664.28 550.34 665.04 550.96 665.80 551.59 C 668.90 551.76 672.08 551.56 675.09 552.52 C 676.01 554.62 677.73 555.87 680.07 555.92 C 683.37 558.21 687.54 558.23 691.39 558.60 C 691.43 558.82 691.50 559.26 691.54 559.48 C 692.69 559.55 693.85 559.62 695.03 559.71 C 696.90 560.26 698.78 560.80 700.62 561.48 C 701.80 561.91 702.99 562.37 704.21 562.78 C 696.45 563.53 689.22 560.55 681.78 558.98 C 678.38 558.14 675.74 555.72 673.16 553.51 C 670.42 553.42 667.59 553.75 664.97 552.83 C 657.11 550.24 651.36 543.94 645.51 538.42 C 642.23 533.34 639.52 527.83 637.05 522.31 C 637.17 520.78 637.29 519.26 637.42 517.75 Z" />
</g>
<g id="#0f140e19">
<path fill="#0f140e" opacity="0.10" d=" M 256.12 254.09 C 254.71 249.09 256.68 243.48 260.19 239.73 C 258.58 244.76 257.45 249.99 257.73 255.30 C 257.33 254.99 256.52 254.39 256.12 254.09 Z" />
</g>
<g id="#303f2c50">
<path fill="#303f2c" opacity="0.31" d=" M 256.12 254.09 C 256.52 254.39 257.33 254.99 257.73 255.30 C 257.85 257.18 257.95 259.08 257.97 260.97 C 257.99 385.99 257.93 511.01 258.00 636.02 C 257.77 639.11 260.46 641.22 261.27 644.03 C 263.12 650.41 266.35 656.24 269.11 662.26 C 265.58 659.65 264.81 655.14 262.69 651.55 C 260.27 647.60 261.20 641.64 256.32 639.49 C 255.68 588.35 256.14 537.20 256.00 486.05 C 256.08 408.73 255.84 331.40 256.12 254.09 Z" />
</g>
<g id="#405a3973">
<path fill="#405a39" opacity="0.45" d=" M 963.18 254.42 C 966.74 255.74 965.47 260.04 965.71 262.97 C 965.60 380.64 965.79 498.30 965.62 615.96 C 966.03 620.58 963.74 624.75 961.79 628.75 C 959.20 631.88 955.65 634.00 952.24 636.13 C 949.58 637.71 947.09 640.15 943.74 639.73 C 946.95 638.31 949.09 635.31 952.38 634.04 C 955.91 632.53 958.40 629.49 961.35 627.14 C 961.51 623.27 964.02 619.96 963.63 616.02 C 964.69 609.06 964.23 602.03 964.31 595.03 C 964.29 483.68 964.35 372.34 964.28 260.99 C 964.21 258.76 963.61 256.59 963.18 254.42 Z" />
<path fill="#405a39" opacity="0.45" d=" M 586.53 337.62 C 588.73 332.59 589.33 325.94 594.61 323.04 C 593.66 326.51 591.30 329.33 590.02 332.67 C 588.66 336.13 587.59 339.70 586.47 343.25 C 584.80 348.38 585.56 354.05 583.21 359.00 C 582.69 360.28 582.02 361.55 582.12 362.99 C 582.10 369.73 582.31 376.48 582.02 383.23 C 579.80 380.34 581.07 376.39 580.74 373.01 C 581.16 367.69 579.57 362.02 581.90 357.01 C 584.12 350.70 583.60 343.69 586.53 337.62 Z" />
<path fill="#405a39" opacity="0.45" d=" M 794.56 555.69 C 797.31 555.55 800.31 555.76 802.57 553.88 C 801.88 555.02 800.97 556.01 799.96 556.87 C 793.43 558.87 786.71 560.14 780.18 562.10 C 771.51 563.13 762.73 562.63 754.02 562.74 C 747.33 562.47 740.65 563.52 733.97 562.89 C 724.06 562.53 714.13 562.90 704.21 562.78 C 702.99 562.37 701.80 561.91 700.62 561.48 C 720.40 561.83 740.20 561.53 759.99 561.64 C 766.31 561.58 772.75 561.86 778.93 560.28 C 783.47 559.14 788.04 558.12 792.67 557.37 C 793.29 556.80 793.92 556.24 794.56 555.69 Z" />
</g>
<g id="#42663988">
<path fill="#426639" opacity="0.53" d=" M 656.86 276.84 C 660.13 275.30 663.49 273.96 667.20 274.02 C 666.99 274.37 666.58 275.07 666.38 275.42 C 661.05 277.63 655.33 278.76 649.97 280.92 C 644.55 281.92 639.90 284.83 635.14 287.40 C 634.56 287.43 633.38 287.49 632.79 287.52 C 636.30 284.39 640.54 282.04 645.04 280.67 C 649.41 280.65 652.51 277.07 656.86 276.84 Z" />
</g>
<g id="#2c3d294d">
<path fill="#2c3d29" opacity="0.30" d=" M 492.99 277.07 C 497.29 275.55 501.67 277.89 506.05 277.54 C 512.41 277.19 518.86 278.14 525.14 276.77 C 530.01 275.71 534.53 278.41 538.92 280.10 C 544.38 282.54 545.57 289.40 544.41 294.72 C 544.10 295.50 543.78 296.28 543.46 297.06 C 543.36 291.79 544.39 284.34 538.79 281.49 C 534.17 279.50 529.13 277.94 524.05 278.65 C 518.74 279.40 513.37 279.28 508.02 279.26 C 502.57 279.32 497.03 277.55 491.67 279.22 C 487.93 280.29 482.63 281.10 482.43 285.99 L 482.35 286.40 C 480.75 293.80 481.46 301.44 481.44 308.96 C 481.44 365.64 481.44 422.32 481.44 479.00 C 481.35 529.34 481.64 579.68 481.22 630.01 C 481.05 634.30 482.22 638.93 479.90 642.85 C 478.42 645.03 480.48 647.15 481.45 649.04 C 480.77 652.68 480.03 656.32 479.56 660.00 C 479.42 665.46 474.69 668.97 472.16 673.39 C 472.19 668.99 476.24 666.47 478.19 662.95 C 478.67 659.31 478.79 655.64 479.38 652.01 C 479.99 649.23 478.33 646.68 478.26 643.94 C 478.62 641.61 479.64 639.39 479.54 637.01 C 479.84 538.35 479.62 439.68 479.69 341.02 C 479.61 327.69 479.87 314.35 479.50 301.02 C 479.53 294.29 479.38 287.03 483.15 281.18 C 486.16 279.28 489.64 278.24 492.99 277.07 Z" />
</g>
<g id="#53834abb">
<path fill="#53834a" opacity="0.73" d=" M 491.67 279.22 C 497.03 277.55 502.57 279.32 508.02 279.26 C 513.37 279.28 518.74 279.40 524.05 278.65 C 529.13 277.94 534.17 279.50 538.79 281.49 L 537.09 281.45 C 525.12 279.82 513.04 281.24 501.00 280.61 C 494.53 280.44 486.74 280.21 482.43 285.99 C 482.63 281.10 487.93 280.29 491.67 279.22 Z" />
</g>
<g id="#426f379f">
<path fill="#426f37" opacity="0.62" d=" M 537.09 281.45 L 538.79 281.49 C 544.39 284.34 543.36 291.79 543.46 297.06 C 543.78 296.28 544.10 295.50 544.41 294.72 C 544.80 345.14 544.28 395.56 544.40 445.98 C 544.51 506.98 544.34 567.98 544.41 628.99 C 544.34 641.00 544.54 653.02 544.30 665.04 L 543.47 664.20 C 542.82 648.49 543.42 632.75 543.16 617.03 C 543.20 540.67 543.16 464.31 543.20 387.95 C 543.18 383.57 542.40 379.23 542.26 374.85 C 543.03 354.59 542.33 334.29 542.62 314.01 C 542.92 306.98 541.17 300.05 541.68 293.02 C 542.11 288.64 541.30 283.75 537.09 281.45 Z" />
</g>
<g id="#41563b7a">
<path fill="#41563b" opacity="0.48" d=" M 698.73 326.85 C 701.79 326.35 704.89 326.27 707.99 326.32 C 724.62 326.53 741.25 326.18 757.88 326.43 C 763.19 326.40 767.87 329.21 773.03 329.96 C 777.10 330.74 780.90 332.64 785.11 332.76 C 787.91 332.85 789.83 335.14 791.96 336.64 C 789.42 337.19 787.74 335.37 785.85 334.14 C 782.92 333.35 779.71 334.07 776.88 332.85 C 774.68 331.85 772.30 331.45 769.92 331.24 C 765.21 330.22 760.69 328.28 755.95 327.47 C 743.28 327.50 730.62 327.47 717.96 327.54 C 711.46 327.81 704.83 326.69 698.47 328.55 L 698.73 326.85 Z" />
</g>
<g id="#45623e7d">
<path fill="#45623e" opacity="0.49" d=" M 870.42 325.87 C 872.79 326.13 872.18 328.47 872.44 330.13 C 875.19 332.74 876.69 336.28 878.10 339.73 C 878.89 342.19 879.45 344.80 881.33 346.72 C 881.87 349.88 882.22 353.07 882.53 356.27 C 883.19 357.17 884.48 357.79 884.64 359.02 C 885.04 363.50 884.23 368.08 885.47 372.49 C 886.71 377.50 887.87 383.39 884.46 387.83 C 882.86 391.52 878.44 391.86 875.10 393.00 C 872.35 394.04 869.80 391.65 867.04 391.75 C 857.35 391.56 847.65 391.68 837.96 391.81 C 833.91 391.85 829.85 391.38 826.02 390.05 C 825.53 387.02 824.61 383.81 821.75 382.22 C 820.72 378.44 821.32 374.21 819.20 370.77 C 817.62 367.34 818.62 363.31 817.33 359.78 C 815.96 358.90 814.39 358.45 812.90 357.89 C 812.82 356.51 812.73 355.14 812.67 353.77 C 810.21 352.16 806.74 350.88 807.13 347.29 C 811.01 349.92 814.14 353.44 816.76 357.31 C 820.64 361.04 818.63 366.99 821.42 371.35 C 821.45 371.43 821.50 371.60 821.53 371.68 C 822.66 375.01 821.60 379.06 824.07 381.90 C 825.77 384.21 827.18 386.74 829.05 388.93 C 831.33 390.51 834.31 390.38 836.97 390.51 C 849.71 390.38 862.46 390.30 875.19 390.66 C 878.52 390.87 882.07 389.54 883.58 386.39 C 886.33 382.78 885.41 378.16 883.78 374.30 C 883.29 369.38 883.47 364.44 883.47 359.50 C 882.46 358.42 881.46 357.33 880.48 356.25 C 880.65 352.62 880.49 348.88 878.57 345.68 C 878.53 345.59 878.46 345.41 878.42 345.32 C 877.35 342.80 876.50 340.21 875.52 337.67 C 875.49 337.59 875.41 337.43 875.38 337.35 C 873.70 333.49 869.78 330.48 870.42 325.87 Z" />
</g>
<g id="#4f714798">
<path fill="#4f7147" opacity="0.60" d=" M 875.38 337.35 C 875.41 337.43 875.49 337.59 875.52 337.67 C 875.49 337.59 875.41 337.43 875.38 337.35 Z" />
</g>
<g id="#4f744696">
<path fill="#4f7446" opacity="0.59" d=" M 878.42 345.32 C 878.46 345.41 878.53 345.59 878.57 345.68 C 878.53 345.59 878.46 345.41 878.42 345.32 Z" />
</g>
<g id="#59894fbd">
<path fill="#59894f" opacity="0.74" d=" M 652.17 347.37 C 652.58 347.37 653.41 347.37 653.82 347.37 C 652.81 351.31 649.72 354.30 648.84 358.30 C 646.66 365.65 646.87 373.93 650.22 380.92 C 651.72 385.67 655.20 389.94 660.34 390.81 L 660.77 391.63 C 661.21 392.69 662.00 393.09 663.14 392.85 C 663.53 393.18 664.32 393.82 664.72 394.14 C 664.76 394.17 664.86 394.23 664.90 394.26 C 666.85 395.65 669.29 395.31 671.52 395.73 C 677.72 398.03 684.24 399.23 690.85 399.39 C 691.21 399.41 691.92 399.46 692.27 399.48 C 692.39 399.93 692.63 400.83 692.75 401.28 C 692.84 401.59 693.03 402.21 693.12 402.52 C 687.77 400.02 681.72 400.49 676.19 398.58 C 671.60 396.90 666.28 397.68 662.14 394.81 C 658.03 392.06 652.58 390.51 650.32 385.73 C 648.48 381.99 646.31 378.21 646.08 373.95 C 645.72 369.30 645.92 364.62 646.35 359.98 C 646.70 355.22 649.28 351.02 652.17 347.37 Z" />
<path fill="#59894f" opacity="0.74" d=" M 676.76 461.53 C 677.93 461.33 679.11 461.14 680.30 460.95 C 684.51 461.91 688.65 463.33 693.03 463.41 C 697.08 463.81 701.93 463.71 705.03 466.71 L 704.58 467.78 C 697.64 466.93 691.00 464.24 683.96 464.29 C 681.50 463.51 679.08 462.64 676.76 461.53 Z" />
</g>
<g id="#54854bb0">
<path fill="#54854b" opacity="0.69" d=" M 821.42 371.35 C 821.45 371.43 821.50 371.60 821.53 371.68 C 821.50 371.60 821.45 371.43 821.42 371.35 Z" />
</g>
<g id="#4a6c429c">
<path fill="#4a6c42" opacity="0.61" d=" M 541.68 380.98 C 541.74 378.92 542.03 376.89 542.26 374.85 C 542.40 379.23 543.18 383.57 543.20 387.95 C 543.16 464.31 543.20 540.67 543.16 617.03 C 543.42 632.75 542.82 648.49 543.47 664.20 L 543.55 665.13 C 539.72 669.53 542.96 676.00 541.07 681.16 C 539.70 684.36 538.71 687.70 538.33 691.17 C 535.85 693.98 535.69 697.90 533.89 701.07 C 532.27 705.03 529.08 708.20 528.19 712.47 C 523.77 717.63 520.43 724.26 514.39 727.66 C 516.39 721.71 522.33 718.46 525.39 713.16 C 529.64 705.28 533.83 697.32 536.93 688.90 C 537.82 684.22 539.28 679.67 540.24 675.02 C 540.45 670.00 541.15 665.03 541.69 660.04 C 541.67 567.02 541.69 474.00 541.68 380.98 Z" />
</g>
<g id="#57844cb4">
<path fill="#57844c" opacity="0.71" d=" M 883.78 374.30 C 885.41 378.16 886.33 382.78 883.58 386.39 C 883.76 382.36 883.76 378.33 883.78 374.30 Z" />
</g>
<g id="#3f5a3973">
<path fill="#3f5a39" opacity="0.45" d=" M 660.77 391.63 C 662.29 390.86 663.07 391.27 663.14 392.85 C 662.00 393.09 661.21 392.69 660.77 391.63 Z" />
</g>
<g id="#45623e7f">
<path fill="#45623e" opacity="0.50" d=" M 664.72 394.14 C 664.76 394.17 664.86 394.23 664.90 394.26 C 664.86 394.23 664.76 394.17 664.72 394.14 Z" />
</g>
<g id="#3f5f387c">
<path fill="#3f5f38" opacity="0.49" d=" M 671.52 395.73 C 678.16 394.80 684.18 398.82 690.81 398.45 L 690.85 399.39 C 684.24 399.23 677.72 398.03 671.52 395.73 Z" />
</g>
<g id="#4a694288">
<path fill="#4a6942" opacity="0.53" d=" M 692.75 401.28 C 697.92 401.55 703.22 401.48 708.20 403.12 C 712.36 404.42 716.66 405.30 721.01 405.66 C 725.12 405.94 728.85 408.06 732.97 408.29 C 738.65 408.57 744.36 408.10 750.04 408.62 C 753.42 408.92 756.60 410.37 760.02 410.51 C 762.68 410.61 765.35 410.53 768.02 410.74 C 762.77 412.47 757.27 410.83 751.90 411.17 C 746.78 409.44 741.35 409.33 736.01 409.52 C 731.29 409.77 726.67 408.65 722.00 408.41 C 721.47 406.70 719.39 406.83 718.02 407.13 C 715.72 406.54 713.37 406.13 711.01 406.26 C 710.47 404.91 709.46 404.49 707.98 405.00 C 706.21 404.53 704.41 404.02 702.66 403.60 C 702.58 403.59 702.41 403.56 702.32 403.54 C 699.26 403.14 696.14 403.23 693.12 402.52 C 693.03 402.21 692.84 401.59 692.75 401.28 Z" />
<path fill="#4a6942" opacity="0.53" d=" M 1020.41 647.04 C 1021.07 643.82 1020.79 639.90 1023.99 637.96 C 1023.98 639.10 1023.95 640.25 1023.92 641.40 C 1022.99 642.79 1022.43 644.37 1021.99 645.97 C 1020.34 651.91 1016.45 656.83 1013.85 662.34 C 1013.22 663.67 1012.40 664.90 1011.54 666.09 C 1011.48 666.16 1011.36 666.31 1011.31 666.38 C 1011.25 666.45 1011.13 666.58 1011.06 666.65 C 1010.43 667.28 1009.16 668.55 1008.53 669.18 C 1008.43 669.28 1008.22 669.48 1008.11 669.58 C 1007.96 669.73 1007.66 670.04 1007.50 670.20 C 1007.41 670.30 1007.22 670.51 1007.12 670.61 C 1001.89 677.02 994.89 681.65 987.85 685.84 C 986.60 686.61 985.89 687.96 984.99 689.08 C 983.62 689.19 982.24 689.29 980.90 689.43 C 978.57 692.02 974.04 691.33 972.93 695.07 C 970.19 696.84 967.12 697.94 964.13 699.18 C 961.60 700.69 959.38 702.73 956.62 703.85 C 951.79 705.69 948.32 709.73 943.59 711.77 C 939.77 715.12 935.06 717.63 929.91 717.87 C 925.39 719.91 921.10 722.90 918.64 727.32 C 911.94 728.01 906.02 732.06 900.84 736.25 C 899.71 736.43 898.58 736.61 897.47 736.81 C 894.66 739.39 891.77 742.14 888.01 743.23 C 885.03 743.79 884.35 747.47 881.46 748.25 C 876.81 749.96 872.18 751.83 868.41 755.13 C 863.19 757.63 858.37 760.94 852.90 762.89 C 852.28 763.95 851.68 765.03 851.09 766.12 C 846.82 767.50 842.35 768.95 839.01 772.08 C 836.70 774.23 832.99 774.80 832.07 778.22 C 828.15 778.74 824.72 780.75 820.97 781.82 C 819.67 783.15 818.47 784.63 816.88 785.64 C 814.09 787.52 810.47 787.64 807.84 789.83 C 804.57 792.32 800.54 793.65 797.47 796.41 C 794.60 799.52 790.05 799.82 786.68 802.20 C 786.53 802.31 786.23 802.54 786.08 802.66 C 785.91 802.81 785.58 803.13 785.41 803.29 C 785.29 803.39 785.04 803.59 784.92 803.69 C 781.54 805.48 777.69 806.32 774.56 808.57 C 771.13 811.47 766.43 813.00 764.42 817.33 C 763.26 817.39 762.10 817.47 760.95 817.56 C 758.30 819.83 754.48 819.58 751.81 821.80 C 750.67 822.57 749.54 823.35 748.42 824.14 C 748.33 824.19 748.16 824.30 748.07 824.36 C 747.98 824.41 747.81 824.51 747.72 824.56 L 745.71 825.63 C 745.66 825.66 745.56 825.70 745.51 825.73 C 742.64 825.80 741.44 829.49 738.91 829.37 C 738.43 829.56 737.46 829.93 736.98 830.12 C 736.64 830.43 735.98 831.07 735.64 831.38 C 735.57 831.43 735.43 831.52 735.36 831.57 C 730.54 833.49 726.96 837.56 722.02 839.23 C 719.54 840.09 717.93 842.29 715.88 843.81 C 714.29 845.09 712.20 845.40 710.40 846.24 C 708.75 847.19 707.44 848.61 705.85 849.64 C 703.29 851.27 700.06 851.57 697.70 853.54 C 693.71 857.20 688.14 858.23 684.11 861.87 C 679.15 864.31 674.35 867.29 669.09 868.97 C 667.54 869.31 665.97 869.60 664.43 869.91 C 666.17 868.80 667.92 867.68 669.83 866.87 C 682.34 861.64 693.35 853.57 705.30 847.28 C 709.77 844.78 714.58 842.87 718.58 839.59 C 724.30 836.39 729.64 832.58 735.46 829.56 C 744.55 824.13 753.41 817.92 763.76 815.12 C 767.63 810.74 772.37 807.14 777.77 804.86 C 790.43 799.42 801.14 790.37 813.82 784.99 C 817.13 783.41 819.75 780.73 823.02 779.08 C 825.41 777.87 828.17 777.74 830.60 776.65 C 832.90 774.61 835.00 772.31 837.62 770.65 C 841.78 767.55 847.02 766.33 851.05 763.04 C 855.26 759.70 860.13 757.36 864.94 755.03 C 868.94 753.27 871.85 749.65 876.13 748.41 C 880.24 747.23 883.28 744.14 886.96 742.15 C 891.59 739.83 895.52 736.36 900.24 734.20 C 904.90 731.08 909.66 728.03 915.03 726.25 C 920.12 724.85 922.24 719.12 927.14 717.35 C 931.78 715.80 936.78 714.93 940.78 711.91 C 948.18 706.44 956.20 701.89 964.17 697.36 C 971.43 695.15 976.14 687.93 984.01 687.23 C 989.82 681.44 997.82 678.44 1003.16 672.14 C 1005.98 668.99 1009.47 666.41 1011.75 662.79 C 1014.92 657.71 1018.33 652.68 1020.41 647.04 Z" />
</g>
<g id="#4e7f40b4">
<path fill="#4e7f40" opacity="0.71" d=" M 702.32 403.54 C 702.41 403.56 702.58 403.59 702.66 403.60 C 702.58 403.59 702.41 403.56 702.32 403.54 Z" />
</g>
<g id="#57874bbd">
<path fill="#57874b" opacity="0.74" d=" M 707.98 405.00 C 709.46 404.49 710.47 404.91 711.01 406.26 C 709.70 406.54 708.69 406.12 707.98 405.00 Z" />
</g>
<g id="#52774abb">
<path fill="#52774a" opacity="0.73" d=" M 718.02 407.13 C 719.39 406.83 721.47 406.70 722.00 408.41 C 720.50 408.78 718.96 408.35 718.02 407.13 Z" />
</g>
<g id="#33432e55">
<path fill="#33432e" opacity="0.33" d=" M 776.54 414.61 C 781.00 414.36 785.48 414.32 789.94 414.70 C 792.78 414.97 795.11 417.12 798.01 417.17 C 801.38 417.61 805.30 416.50 808.12 418.91 C 811.35 421.65 815.91 419.79 819.57 421.38 C 824.52 423.92 831.60 421.58 834.99 427.03 C 839.58 427.38 844.39 428.09 848.29 430.71 C 852.95 434.01 858.50 435.73 863.97 437.14 C 865.27 438.45 866.33 440.07 868.06 440.92 C 872.57 442.96 873.99 448.59 878.85 450.15 C 881.63 456.08 888.04 459.39 890.08 465.72 C 891.54 469.96 893.87 473.87 894.64 478.35 C 897.04 482.63 898.31 487.63 897.37 492.53 C 897.09 491.41 896.80 490.30 896.52 489.19 C 893.78 480.01 891.10 470.64 886.41 462.22 C 882.18 456.94 877.50 452.03 872.69 447.27 C 869.92 443.56 865.36 441.74 862.87 437.79 C 861.64 437.74 860.43 437.70 859.22 437.67 C 858.64 437.48 857.48 437.08 856.91 436.88 C 849.21 434.03 842.29 429.23 834.08 427.88 C 833.02 426.90 832.06 425.86 830.94 424.98 C 827.33 423.95 823.24 425.20 819.94 423.10 C 816.78 421.08 812.93 421.96 809.47 421.16 C 807.88 420.45 806.48 419.42 804.93 418.68 C 801.14 417.97 797.13 418.96 793.48 417.46 C 790.01 416.06 786.30 415.41 782.57 415.62 C 780.87 415.56 779.18 415.55 777.50 415.43 L 776.54 414.61 Z" />
</g>
<g id="#59924bd4">
<path fill="#59924b" opacity="0.83" d=" M 782.57 415.62 C 786.30 415.41 790.01 416.06 793.48 417.46 C 797.13 418.96 801.14 417.97 804.93 418.68 C 806.48 419.42 807.88 420.45 809.47 421.16 C 812.93 421.96 816.78 421.08 819.94 423.10 C 823.24 425.20 827.33 423.95 830.94 424.98 C 832.06 425.86 833.02 426.90 834.08 427.88 C 828.98 425.45 822.81 427.10 818.10 423.82 C 814.81 421.88 810.60 423.63 807.31 421.67 C 804.48 419.94 801.17 419.70 797.94 419.66 C 792.55 419.60 787.52 417.48 782.57 415.62 Z" />
</g>
<g id="#5a844fae">
<path fill="#5a844f" opacity="0.68" d=" M 856.91 436.88 C 857.48 437.08 858.64 437.48 859.22 437.67 C 858.64 437.48 857.48 437.08 856.91 436.88 Z" />
</g>
<g id="#59924cc9">
<path fill="#59924c" opacity="0.79" d=" M 706.76 467.43 C 708.43 468.19 710.06 469.21 711.96 469.33 C 727.96 469.98 744.32 468.11 760.02 472.12 C 763.12 472.59 766.27 472.64 769.37 473.16 C 764.48 473.31 759.58 473.12 754.70 473.47 C 753.11 473.58 751.53 473.41 750.08 472.82 C 748.14 472.11 746.11 471.60 744.05 471.62 C 732.30 471.41 720.56 471.50 708.82 471.38 C 708.19 471.06 706.94 470.44 706.32 470.12 L 706.45 468.15 C 706.53 467.97 706.68 467.61 706.76 467.43 Z" />
</g>
<g id="#496e4197">
<path fill="#496e41" opacity="0.59" d=" M 754.70 473.47 C 759.58 473.12 764.48 473.31 769.37 473.16 C 778.58 475.11 787.72 477.45 796.85 479.78 C 799.06 480.43 800.74 482.27 803.02 482.80 C 808.05 483.77 812.95 485.35 818.01 486.21 C 821.04 488.93 823.97 491.82 827.45 494.03 C 827.59 494.58 827.89 495.68 828.04 496.23 C 827.52 495.87 826.49 495.17 825.97 494.82 C 824.11 493.61 822.01 492.85 819.97 492.05 C 819.40 490.64 819.01 489.11 818.10 487.89 C 815.84 487.06 813.29 487.51 810.99 486.77 C 807.49 485.76 804.04 484.44 800.36 484.28 C 798.78 482.86 797.40 480.67 795.02 480.73 C 792.23 480.36 789.23 480.83 786.68 479.44 C 782.00 476.78 776.30 477.91 771.48 475.59 C 766.16 473.09 759.97 475.86 754.70 473.47 Z" />
</g>
<g id="#578b4bc3">
<path fill="#578b4b" opacity="0.76" d=" M 896.52 489.19 C 896.80 490.30 897.09 491.41 897.37 492.53 L 897.42 493.89 C 897.29 503.56 899.69 513.52 896.75 522.98 C 895.99 514.67 897.05 506.30 895.98 498.01 C 895.53 495.06 895.80 492.08 896.52 489.19 Z" />
</g>
<g id="#548747c4">
<path fill="#548747" opacity="0.77" d=" M 570.76 501.94 C 571.43 495.50 577.59 490.64 584.01 491.49 C 596.01 491.72 608.01 491.57 620.02 491.58 C 622.82 491.55 625.57 492.19 628.31 492.73 C 628.32 493.79 628.88 494.51 629.99 494.87 C 631.46 497.13 632.54 499.65 634.38 501.67 C 634.04 505.00 633.64 508.49 635.15 511.62 L 635.27 511.96 C 635.64 513.31 636.26 514.58 636.98 515.81 C 637.09 516.29 637.31 517.26 637.42 517.75 C 637.29 519.26 637.17 520.78 637.05 522.31 C 635.37 517.68 633.35 513.03 633.22 508.04 C 633.58 500.47 626.64 493.25 619.01 493.47 C 607.69 493.41 596.35 493.55 585.02 493.38 C 580.65 493.16 576.46 495.67 574.01 499.18 C 571.87 506.65 574.26 514.50 572.54 522.01 C 571.10 519.07 571.66 515.72 571.41 512.57 C 569.59 511.16 568.75 509.00 570.33 507.00 C 570.55 505.32 570.67 503.62 570.76 501.94 Z" />
</g>
<g id="#364c3163">
<path fill="#364c31" opacity="0.39" d=" M 628.31 492.73 C 629.96 492.54 630.52 493.26 629.99 494.87 C 628.88 494.51 628.32 493.79 628.31 492.73 Z" />
</g>
<g id="#2f3f2a50">
<path fill="#2f3f2a" opacity="0.31" d=" M 825.97 494.82 C 826.49 495.17 827.52 495.87 828.04 496.23 C 831.86 503.07 834.46 511.20 832.64 519.05 C 831.64 522.86 831.99 527.29 829.24 530.43 C 830.63 522.39 832.68 514.09 830.71 505.97 C 830.03 501.90 827.30 498.65 825.97 494.82 Z" />
</g>
<g id="#40583a70">
<path fill="#40583a" opacity="0.44" d=" M 634.38 501.67 C 635.25 504.91 635.40 508.28 635.15 511.62 C 633.64 508.49 634.04 505.00 634.38 501.67 Z" />
</g>
<g id="#3c563470">
<path fill="#3c5634" opacity="0.44" d=" M 635.27 511.96 C 637.24 511.12 638.41 514.65 636.98 515.81 C 636.26 514.58 635.64 513.31 635.27 511.96 Z" />
</g>
<g id="#4e704696">
<path fill="#4e7046" opacity="0.59" d=" M 881.74 565.70 C 888.53 554.25 894.08 541.84 896.27 528.65 C 896.72 534.01 894.39 538.95 893.78 544.17 C 893.91 547.88 890.95 550.46 889.93 553.83 C 888.21 558.41 885.24 562.36 883.29 566.83 C 880.35 572.19 875.52 576.10 872.01 581.02 C 870.58 582.63 868.34 583.33 867.18 585.20 C 866.14 586.74 864.95 588.23 863.13 588.85 C 859.66 590.09 857.73 593.49 854.52 595.11 C 849.33 597.38 845.42 602.19 839.56 602.90 C 836.51 605.24 832.76 606.20 829.46 608.08 C 826.33 608.92 822.91 609.12 820.37 611.38 C 815.14 615.50 808.23 615.03 802.03 615.75 C 796.70 618.50 790.47 617.59 785.01 619.79 C 779.30 620.17 773.31 622.05 767.76 619.87 C 774.22 619.43 780.51 617.85 786.94 617.15 C 792.72 616.54 798.17 614.14 804.02 613.86 C 808.90 613.68 813.68 612.35 818.14 610.40 C 823.82 607.35 830.32 606.30 835.91 603.01 C 842.44 600.67 848.35 597.06 854.11 593.24 C 860.27 588.01 867.42 583.84 872.54 577.46 C 875.58 573.52 879.30 570.08 881.74 565.70 Z" />
<path fill="#4e7046" opacity="0.59" d=" M 491.19 790.88 C 493.79 788.25 496.24 784.48 500.53 785.40 C 498.28 787.61 493.03 789.29 494.67 793.31 C 497.86 797.83 502.06 802.19 507.54 803.78 C 515.80 806.76 523.01 811.93 530.12 816.96 C 532.82 818.67 536.09 819.29 538.66 821.26 C 544.11 825.30 550.21 828.37 555.68 832.39 C 559.25 835.02 563.50 836.50 567.16 839.00 C 574.00 843.54 581.69 846.72 588.13 851.89 C 591.81 854.90 596.65 855.81 600.58 858.41 C 603.26 860.17 605.83 862.19 608.92 863.22 C 613.51 864.80 617.13 868.19 621.53 870.18 C 616.29 870.79 613.60 865.38 608.81 864.76 C 604.64 864.76 601.77 861.75 598.87 859.22 C 594.51 856.88 589.02 856.17 585.93 851.89 C 581.46 850.77 578.32 847.15 574.20 845.32 C 569.19 843.03 564.95 839.43 560.19 836.70 C 557.55 837.07 556.18 835.02 554.66 833.31 C 551.30 831.11 547.20 829.90 544.68 826.61 C 544.04 826.49 542.77 826.26 542.14 826.14 C 539.07 823.56 535.94 820.70 531.90 819.84 C 527.74 818.91 525.15 815.17 521.53 813.24 C 518.79 811.78 516.07 810.29 513.53 808.51 C 510.15 806.22 506.01 805.52 502.46 803.60 C 498.19 799.91 492.91 796.58 491.19 790.88 Z" />
</g>
<g id="#3c56356e">
<path fill="#3c5635" opacity="0.43" d=" M 607.62 587.98 C 607.70 588.03 607.87 588.13 607.96 588.18 C 607.87 588.13 607.70 588.03 607.62 587.98 Z" />
</g>
<g id="#364c3161">
<path fill="#364c31" opacity="0.38" d=" M 607.96 588.18 C 608.05 588.22 608.23 588.31 608.32 588.36 C 608.23 588.31 608.05 588.22 607.96 588.18 Z" />
</g>
<g id="#42583c70">
<path fill="#42583c" opacity="0.44" d=" M 613.19 591.47 C 613.23 591.52 613.30 591.61 613.34 591.66 C 613.30 591.61 613.23 591.52 613.19 591.47 Z" />
</g>
<g id="#334f2c67">
<path fill="#334f2c" opacity="0.40" d=" M 628.18 600.83 C 628.64 601.10 629.56 601.63 630.01 601.89 L 629.21 602.32 L 628.26 601.78 L 628.18 600.83 Z" />
</g>
<g id="#649256c5">
<path fill="#649256" opacity="0.77" d=" M 327.61 635.36 C 330.17 635.96 333.25 635.47 335.28 637.44 C 332.58 637.38 329.75 637.19 327.61 635.36 Z" />
</g>
<g id="#2c3c274c">
<path fill="#2c3c27" opacity="0.30" d=" M 1021.99 645.97 C 1022.43 644.37 1022.99 642.79 1023.92 641.40 C 1023.92 643.94 1024.33 646.77 1023.13 649.11 C 1019.35 653.06 1017.94 658.61 1013.85 662.34 C 1016.45 656.83 1020.34 651.91 1021.99 645.97 Z" />
</g>
<g id="#3d53366a">
<path fill="#3d5336" opacity="0.42" d=" M 1011.31 666.38 C 1011.36 666.31 1011.48 666.16 1011.54 666.09 C 1011.48 666.16 1011.36 666.31 1011.31 666.38 Z" />
</g>
<g id="#3e563870">
<path fill="#3e5638" opacity="0.44" d=" M 1011.06 666.65 C 1011.13 666.58 1011.25 666.45 1011.31 666.38 C 1011.25 666.45 1011.13 666.58 1011.06 666.65 Z" />
</g>
<g id="#3e563873">
<path fill="#3e5638" opacity="0.45" d=" M 1008.11 669.58 C 1008.22 669.48 1008.43 669.28 1008.53 669.18 C 1008.43 669.28 1008.22 669.48 1008.11 669.58 Z" />
</g>
<g id="#3f593876">
<path fill="#3f5938" opacity="0.46" d=" M 1007.50 670.20 C 1007.66 670.04 1007.96 669.73 1008.11 669.58 C 1007.96 669.73 1007.66 670.04 1007.50 670.20 Z" />
</g>
<g id="#3d573670">
<path fill="#3d5736" opacity="0.44" d=" M 1007.12 670.61 C 1007.22 670.51 1007.41 670.30 1007.50 670.20 C 1007.41 670.30 1007.22 670.51 1007.12 670.61 Z" />
</g>
<g id="#63a652f1">
<path fill="#63a652" opacity="0.95" d=" M 422.45 687.96 C 433.38 687.86 444.33 687.57 455.26 688.21 C 450.30 689.71 445.08 689.20 439.99 689.25 C 434.13 689.19 428.12 689.78 422.45 687.96 Z" />
</g>
<g id="#41603987">
<path fill="#416039" opacity="0.53" d=" M 467.97 748.26 C 473.87 747.91 479.39 744.98 485.37 745.46 L 486.25 746.31 C 480.61 746.46 475.66 749.84 469.99 749.53 C 459.99 749.29 449.99 751.56 440.03 749.99 C 434.49 749.06 428.85 750.13 423.32 749.25 L 424.83 748.47 C 439.21 748.28 453.60 749.03 467.97 748.26 Z" />
</g>
<g id="#3d583773">
<path fill="#3d5837" opacity="0.45" d=" M 786.08 802.66 C 786.23 802.54 786.53 802.31 786.68 802.20 C 786.53 802.31 786.23 802.54 786.08 802.66 Z" />
</g>
<g id="#415a3a74">
<path fill="#415a3a" opacity="0.45" d=" M 785.41 803.29 C 785.58 803.13 785.91 802.81 786.08 802.66 C 785.91 802.81 785.58 803.13 785.41 803.29 Z" />
</g>
<g id="#39513467">
<path fill="#395134" opacity="0.40" d=" M 784.92 803.69 C 785.04 803.59 785.29 803.39 785.41 803.29 C 785.29 803.39 785.04 803.59 784.92 803.69 Z" />
</g>
<g id="#31462c59">
<path fill="#31462c" opacity="0.35" d=" M 747.72 824.56 C 747.81 824.51 747.98 824.41 748.07 824.36 C 747.98 824.41 747.81 824.51 747.72 824.56 Z" />
</g>
<g id="#32462e59">
<path fill="#32462e" opacity="0.35" d=" M 745.51 825.73 C 745.56 825.70 745.66 825.66 745.71 825.63 C 745.66 825.66 745.56 825.70 745.51 825.73 Z" />
</g>
<g id="#3f593872">
<path fill="#3f5938" opacity="0.45" d=" M 736.98 830.12 C 737.46 829.93 738.43 829.56 738.91 829.37 L 738.72 830.25 L 737.73 830.63 L 736.98 830.12 Z" />
</g>
<g id="#2e3d294d">
<path fill="#2e3d29" opacity="0.30" d=" M 735.36 831.57 C 735.43 831.52 735.57 831.43 735.64 831.38 C 735.57 831.43 735.43 831.52 735.36 831.57 Z" />
</g>
<g id="#3746335c">
<path fill="#374633" opacity="0.36" d=" M 608.81 864.76 C 613.60 865.38 616.29 870.79 621.53 870.18 C 627.13 870.61 632.77 870.34 638.38 870.60 C 638.22 871.46 637.90 873.16 637.74 874.02 C 635.64 873.96 633.54 873.88 631.45 873.82 C 631.38 873.10 631.24 871.66 631.16 870.94 C 626.75 870.72 622.33 870.95 617.92 870.74 C 614.14 870.27 612.02 866.45 608.81 864.76 Z" />
</g>
<g id="#3a4a3661">
<path fill="#3a4a36" opacity="0.38" d=" M 664.43 869.91 C 665.97 869.60 667.54 869.31 669.09 868.97 C 668.29 869.82 667.46 870.81 666.18 870.82 C 661.66 870.97 657.15 870.67 652.63 870.71 C 652.58 871.47 652.49 872.99 652.44 873.75 C 650.65 873.84 648.87 873.93 647.10 874.03 C 647.01 873.17 646.81 871.44 646.72 870.58 C 652.61 870.18 658.58 870.93 664.43 869.91 Z" />
</g>
<g id="#0b150921">
<path fill="#0b1509" opacity="0.13" d=" M 617.92 870.74 C 622.33 870.95 626.75 870.72 631.16 870.94 C 631.24 871.66 631.38 873.10 631.45 873.82 C 627.39 874.12 623.33 874.04 619.29 873.66 C 618.83 872.68 618.37 871.70 617.92 870.74 Z" />
</g>
<g id="#4e6c46a1">
<path fill="#4e6c46" opacity="0.63" d=" M 638.38 870.60 C 641.16 870.64 643.93 870.63 646.72 870.58 C 646.81 871.44 647.01 873.17 647.10 874.03 C 643.98 873.98 640.86 873.98 637.74 874.02 C 637.90 873.16 638.22 871.46 638.38 870.60 Z" />
</g>
<g id="#0c150921">
<path fill="#0c1509" opacity="0.13" d=" M 652.63 870.71 C 657.15 870.67 661.66 870.97 666.18 870.82 C 666.08 871.54 665.88 872.99 665.78 873.71 C 661.34 874.13 656.88 874.05 652.44 873.75 C 652.49 872.99 652.58 871.47 652.63 870.71 Z" />
</g>
</svg>
