<?xml version="1.0" encoding="UTF-8" ?>
<!DOCTYPE svg PUBLIC "-//W3C//DTD SVG 1.1//EN" "http://www.w3.org/Graphics/SVG/1.1/DTD/svg11.dtd">
<svg width="1280pt" height="1280pt" viewBox="0 0 1280 1280" version="1.1" xmlns="http://www.w3.org/2000/svg">
<g id="#7784a9ff">
<path fill="#7784a9" opacity="1.00" d=" M 603.82 340.55 C 626.95 340.13 650.10 340.35 673.23 340.48 C 661.48 341.64 649.65 340.50 637.91 341.59 C 642.22 341.89 646.55 342.06 650.88 342.25 C 651.43 348.76 651.16 355.28 651.05 361.80 C 641.22 361.69 631.38 362.48 621.58 361.64 C 624.92 361.02 628.31 360.69 631.72 360.78 C 630.80 360.10 629.89 359.43 628.99 358.77 C 628.89 353.23 629.99 347.76 629.96 342.22 C 621.23 341.78 612.39 342.69 603.82 340.55 Z" />
</g>
<g id="#919bbaff">
<path fill="#919bba" opacity="1.00" d=" M 565.36 341.94 C 570.57 341.49 575.79 341.35 581.02 341.10 C 580.95 347.69 580.86 354.28 581.03 360.87 C 582.03 361.62 583.03 362.37 584.05 363.13 C 578.24 363.39 572.44 363.77 566.65 364.19 C 565.31 356.83 566.69 349.31 565.36 341.94 Z" />
</g>
<g id="#8a94b5ff">
<path fill="#8a94b5" opacity="1.00" d=" M 581.02 341.10 C 587.71 340.56 594.44 340.73 601.14 340.34 C 602.22 341.76 603.93 343.00 603.95 344.97 C 604.26 350.71 603.54 356.50 604.64 362.20 C 597.77 362.32 590.91 362.83 584.05 363.13 C 583.03 362.37 582.03 361.62 581.03 360.87 C 580.86 354.28 580.95 347.69 581.02 341.10 Z" />
</g>
<g id="#808baeff">
<path fill="#808bae" opacity="1.00" d=" M 601.14 340.34 C 601.81 340.39 603.15 340.50 603.82 340.55 C 612.39 342.69 621.23 341.78 629.96 342.22 C 629.99 347.76 628.89 353.23 628.99 358.77 C 629.89 359.43 630.80 360.10 631.72 360.78 C 628.31 360.69 624.92 361.02 621.58 361.64 C 615.94 362.11 610.29 362.13 604.64 362.20 C 603.54 356.50 604.26 350.71 603.95 344.97 C 603.93 343.00 602.22 341.76 601.14 340.34 Z" />
<path fill="#808bae" opacity="1.00" d=" M 135.15 498.99 C 143.30 491.01 151.82 483.40 160.70 476.23 C 165.91 480.12 167.58 486.75 172.26 491.12 C 172.11 492.23 171.97 493.35 171.82 494.47 C 163.98 501.13 156.11 507.78 149.07 515.31 C 144.29 509.98 137.85 505.93 135.15 498.99 Z" />
</g>
<g id="#6c7ba2ff">
<path fill="#6c7ba2" opacity="1.00" d=" M 637.91 341.59 C 649.65 340.50 661.48 341.64 673.23 340.48 C 677.92 340.33 682.62 340.55 687.32 340.60 C 688.07 346.37 688.52 352.23 687.93 358.04 C 688.02 359.67 686.65 360.62 685.68 361.68 C 687.94 362.02 690.19 362.42 692.46 362.77 C 678.66 362.75 664.87 361.48 651.05 361.80 C 651.16 355.28 651.43 348.76 650.88 342.25 C 646.55 342.06 642.22 341.89 637.91 341.59 Z" />
</g>
<g id="#5f729cff">
<path fill="#5f729c" opacity="1.00" d=" M 687.32 340.60 C 699.53 340.94 711.72 341.70 723.91 342.59 C 723.32 350.05 723.61 357.53 723.64 365.00 C 713.25 364.17 702.85 363.50 692.46 362.77 C 690.19 362.42 687.94 362.02 685.68 361.68 C 686.65 360.62 688.02 359.67 687.93 358.04 C 688.52 352.23 688.07 346.37 687.32 340.60 Z" />
</g>
<g id="#98a0beff">
<path fill="#98a0be" opacity="1.00" d=" M 546.90 343.40 C 553.04 342.72 559.21 342.47 565.36 341.94 C 566.69 349.31 565.31 356.83 566.65 364.19 C 562.23 364.50 557.81 364.80 553.38 365.00 C 551.27 364.54 549.18 363.96 547.10 363.42 C 546.64 356.75 546.93 350.07 546.90 343.40 Z" />
</g>
<g id="#405170bf">
<path fill="#405170" opacity="0.75" d=" M 723.91 342.59 C 725.20 342.67 726.50 342.76 727.81 342.85 C 728.63 350.32 728.16 357.83 728.30 365.32 C 726.74 365.21 725.18 365.10 723.64 365.00 C 723.61 357.53 723.32 350.05 723.91 342.59 Z" />
</g>
<g id="#5b6c94ff">
<path fill="#5b6c94" opacity="1.00" d=" M 727.81 342.85 C 739.63 343.98 751.47 344.89 763.25 346.42 C 764.43 348.93 765.97 351.30 766.88 353.94 C 767.54 358.23 766.97 362.59 766.77 366.90 C 764.49 366.85 762.21 366.80 759.94 366.76 C 759.55 367.09 758.78 367.75 758.40 368.09 C 748.36 367.24 738.35 366.01 728.30 365.32 C 728.16 357.83 728.63 350.32 727.81 342.85 Z" />
<path fill="#5b6c94" opacity="1.00" d=" M 79.96 579.72 C 85.40 586.05 91.98 591.30 97.07 597.93 C 92.05 613.91 90.62 630.72 90.67 647.39 C 89.66 642.33 89.58 637.17 89.74 632.03 C 89.19 633.89 88.63 635.76 88.06 637.63 C 84.96 634.55 81.72 631.47 79.58 627.62 C 78.49 621.50 79.39 615.20 79.09 609.01 C 78.70 601.82 80.21 594.38 77.75 587.44 L 77.71 586.62 C 78.28 584.26 79.19 582.01 79.96 579.72 Z" />
</g>
<g id="#a2a9c4ff">
<path fill="#a2a9c4" opacity="1.00" d=" M 519.02 346.28 C 528.23 344.82 537.60 344.27 546.90 343.40 C 546.93 350.07 546.64 356.75 547.10 363.42 C 549.18 363.96 551.27 364.54 553.38 365.00 C 545.46 365.61 537.59 366.78 529.65 367.13 C 526.24 366.06 522.68 365.95 519.16 366.34 C 519.03 359.86 519.37 353.37 518.74 346.91 L 519.02 346.28 Z" />
</g>
<g id="#acb2cbff">
<path fill="#acb2cb" opacity="1.00" d=" M 506.29 347.67 C 510.30 347.26 514.29 346.30 518.33 346.52 L 518.74 346.91 C 519.37 353.37 519.03 359.86 519.16 366.34 C 522.68 365.95 526.24 366.06 529.65 367.13 C 523.96 367.84 518.28 368.66 512.56 369.05 C 509.41 368.42 506.25 367.91 503.06 367.62 C 501.94 360.70 506.11 354.50 506.29 347.67 Z" />
</g>
<g id="#606c8bff">
<path fill="#606c8b" opacity="1.00" d=" M 763.25 346.42 C 785.29 348.92 807.25 352.18 829.06 356.23 C 827.92 362.62 826.07 368.89 825.62 375.40 C 823.95 375.96 822.29 376.53 820.62 377.02 C 799.94 373.65 779.23 370.40 758.40 368.09 C 758.78 367.75 759.55 367.09 759.94 366.76 C 762.21 366.80 764.49 366.85 766.77 366.90 C 766.97 362.59 767.54 358.23 766.88 353.94 C 765.97 351.30 764.43 348.93 763.25 346.42 Z" />
</g>
<g id="#b3b8cfff">
<path fill="#b3b8cf" opacity="1.00" d=" M 489.23 350.00 C 494.90 349.10 500.61 348.46 506.29 347.67 C 506.11 354.50 501.94 360.70 503.06 367.62 C 506.25 367.91 509.41 368.42 512.56 369.05 C 505.05 370.10 497.54 371.14 490.05 372.25 C 488.54 371.18 485.36 370.55 486.13 368.06 C 487.61 362.12 488.27 356.04 489.23 350.00 Z" />
</g>
<g id="#bbbfd4ff">
<path fill="#bbbfd4" opacity="1.00" d=" M 472.60 352.46 C 478.15 351.71 483.67 350.68 489.23 350.00 C 488.27 356.04 487.61 362.12 486.13 368.06 C 485.36 370.55 488.54 371.18 490.05 372.25 C 485.90 372.77 481.78 373.53 477.62 373.92 C 474.60 373.15 471.48 373.10 468.42 373.64 C 470.52 366.71 469.84 359.19 472.60 352.46 Z" />
</g>
<g id="#c2c6d9ff">
<path fill="#c2c6d9" opacity="1.00" d=" M 457.86 355.19 C 462.63 353.85 467.70 353.43 472.60 352.46 C 469.84 359.19 470.52 366.71 468.42 373.64 C 471.48 373.10 474.60 373.15 477.62 373.92 C 471.54 375.03 465.46 376.11 459.36 377.06 C 457.24 376.58 455.15 375.97 453.06 375.39 C 453.11 368.57 456.22 362.39 457.64 355.84 L 457.86 355.19 Z" />
</g>
<g id="#cccfe0ff">
<path fill="#cccfe0" opacity="1.00" d=" M 429.86 360.34 C 438.96 358.78 447.95 356.24 457.15 355.55 L 457.64 355.84 C 456.22 362.39 453.11 368.57 453.06 375.39 C 455.15 375.97 457.24 376.58 459.36 377.06 C 449.09 378.72 438.96 381.19 428.69 382.92 C 425.23 382.26 421.70 382.42 418.24 383.02 C 421.74 375.27 426.27 368.05 429.86 360.34 Z" />
</g>
<g id="#60687fff">
<path fill="#60687f" opacity="1.00" d=" M 829.06 356.23 C 847.20 359.52 865.22 363.45 883.13 367.85 C 883.07 374.39 883.29 380.93 882.83 387.46 C 881.08 387.98 879.35 388.52 877.60 388.97 C 858.70 384.56 839.74 380.36 820.62 377.02 C 822.29 376.53 823.95 375.96 825.62 375.40 C 826.07 368.89 827.92 362.62 829.06 356.23 Z" />
</g>
<g id="#dee0ebff">
<path fill="#dee0eb" opacity="1.00" d=" M 319.76 390.98 C 355.68 378.17 392.55 368.17 429.86 360.34 C 426.27 368.05 421.74 375.27 418.24 383.02 C 421.70 382.42 425.23 382.26 428.69 382.92 C 401.20 388.96 373.90 395.93 347.10 404.56 C 346.60 404.28 345.59 403.74 345.09 403.46 C 347.11 402.72 349.13 401.97 351.14 401.22 C 346.43 400.83 341.32 401.56 337.05 399.10 C 331.42 396.11 325.74 393.18 319.76 390.98 Z" />
</g>
<g id="#6e81b6ff">
<path fill="#6e81b6" opacity="1.00" d=" M 584.05 363.13 C 590.91 362.83 597.77 362.32 604.64 362.20 C 610.29 362.13 615.94 362.11 621.58 361.64 C 631.38 362.48 641.22 361.69 651.05 361.80 C 664.87 361.48 678.66 362.75 692.46 362.77 C 702.85 363.50 713.25 364.17 723.64 365.00 C 725.18 365.10 726.74 365.21 728.30 365.32 C 738.35 366.01 748.36 367.24 758.40 368.09 C 779.23 370.40 799.94 373.65 820.62 377.02 C 839.74 380.36 858.70 384.56 877.60 388.97 C 893.34 392.65 908.79 397.41 924.37 401.68 C 936.38 405.53 948.29 409.72 960.25 413.74 C 969.26 417.20 978.26 420.69 987.19 424.36 C 994.58 427.26 1001.70 430.79 1009.06 433.77 C 1018.50 438.18 1027.72 443.01 1037.07 447.59 C 1040.24 449.37 1043.41 451.17 1046.61 452.93 C 1049.75 454.70 1052.89 456.48 1056.01 458.31 C 1058.38 459.72 1060.77 461.12 1063.16 462.53 C 1067.12 464.97 1071.03 467.52 1074.92 470.10 C 1104.63 489.55 1132.26 512.87 1153.66 541.39 C 1173.03 567.12 1186.74 597.86 1188.82 630.26 C 1191.55 666.09 1179.31 701.78 1159.07 731.04 C 1140.57 758.07 1116.19 780.60 1089.76 799.72 C 1058.35 822.36 1023.81 840.37 988.13 855.25 C 928.62 879.93 865.78 895.86 802.25 906.04 C 793.29 907.16 784.40 908.83 775.42 909.86 C 766.77 910.76 758.17 912.05 749.51 912.81 C 737.48 913.87 725.47 915.13 713.43 915.92 C 681.13 917.89 648.76 918.88 616.41 918.25 C 603.27 917.39 590.09 917.40 576.96 916.46 C 553.97 915.12 531.02 913.13 508.18 910.24 C 450.50 902.81 393.23 891.04 338.06 872.46 C 302.58 860.48 267.84 846.08 235.04 827.95 C 203.59 810.53 173.69 789.79 148.35 764.16 C 125.68 740.91 106.44 713.42 97.03 682.06 C 93.57 670.78 91.90 659.09 90.67 647.39 C 90.62 630.72 92.05 613.91 97.07 597.93 C 97.48 596.58 97.92 595.24 98.37 593.93 C 102.67 581.09 108.42 568.73 115.51 557.21 C 119.26 551.54 122.90 545.79 127.09 540.43 C 133.91 531.62 141.02 523.03 149.07 515.31 C 156.11 507.78 163.98 501.13 171.82 494.47 C 177.63 489.51 183.89 485.12 189.95 480.49 C 197.46 474.80 205.60 470.01 213.31 464.61 C 226.30 456.66 239.69 449.41 253.23 442.45 C 266.23 435.69 279.76 430.03 293.18 424.17 C 306.06 418.88 319.13 414.09 332.26 409.48 C 337.19 407.79 342.15 406.18 347.10 404.56 C 373.90 395.93 401.20 388.96 428.69 382.92 C 438.96 381.19 449.09 378.72 459.36 377.06 C 465.46 376.11 471.54 375.03 477.62 373.92 C 481.78 373.53 485.90 372.77 490.05 372.25 C 497.54 371.14 505.05 370.10 512.56 369.05 C 518.28 368.66 523.96 367.84 529.65 367.13 C 537.59 366.78 545.46 365.61 553.38 365.00 C 557.81 364.80 562.23 364.50 566.65 364.19 C 572.44 363.77 578.24 363.39 584.05 363.13 M 565.31 425.90 C 555.73 475.16 546.11 524.42 536.61 573.69 C 534.70 564.27 532.07 554.91 527.51 546.40 C 519.16 530.42 505.17 517.70 488.89 510.12 C 469.95 501.19 448.75 498.24 427.98 498.19 C 385.99 498.17 343.99 498.20 302.00 498.17 C 299.37 498.04 296.63 498.77 294.80 500.76 C 292.14 503.17 292.00 506.97 291.28 510.24 C 272.12 609.21 252.78 708.15 233.64 807.12 C 232.51 812.96 238.33 818.06 243.97 817.31 C 265.30 817.23 286.64 817.36 307.97 817.26 C 312.59 817.39 316.57 813.56 317.06 809.05 C 321.64 785.09 326.43 761.17 330.96 737.21 C 348.32 737.15 365.69 737.24 383.05 737.16 C 405.31 736.75 427.96 734.94 448.98 727.10 C 478.38 715.98 502.51 693.33 518.50 666.58 C 514.62 686.74 510.64 706.89 506.79 727.05 C 505.79 732.33 510.69 737.45 515.96 737.17 C 537.31 737.22 558.68 737.19 580.03 737.18 C 584.40 737.42 588.73 734.28 589.50 729.91 C 600.26 674.80 610.87 619.66 621.68 564.56 C 634.47 564.62 647.26 564.57 660.06 564.59 C 669.05 564.58 678.26 564.32 686.96 566.98 C 690.18 567.94 693.57 569.92 694.20 573.54 C 696.22 583.08 693.47 592.73 691.75 602.11 C 683.73 643.41 675.70 684.71 667.67 726.01 C 666.02 731.71 671.19 737.63 677.00 737.18 C 698.65 737.19 720.31 737.22 741.96 737.17 C 746.46 737.39 750.72 734.00 751.34 729.51 C 760.40 682.70 769.56 635.92 778.59 589.10 C 781.99 570.86 782.73 550.93 774.19 533.92 C 767.77 520.95 755.41 511.96 742.11 506.94 C 724.22 500.25 704.92 498.47 685.95 498.21 C 668.80 498.16 651.65 498.18 634.50 498.20 C 639.10 475.15 643.48 452.06 647.99 429.00 C 649.49 423.57 644.67 417.70 639.05 418.11 C 617.37 418.13 595.68 418.06 573.99 418.14 C 569.63 417.99 565.90 421.71 565.31 425.90 M 800.62 506.08 C 781.44 604.74 762.29 703.41 743.09 802.06 C 742.46 805.57 741.23 809.53 743.25 812.82 C 744.94 815.95 748.58 817.47 752.04 817.30 C 773.34 817.27 794.64 817.31 815.94 817.28 C 820.48 817.55 824.81 814.15 825.43 809.61 C 830.16 785.48 834.83 761.33 839.51 737.18 C 870.37 736.68 901.50 738.95 932.09 733.83 C 950.20 730.83 967.83 724.31 982.98 713.85 C 1010.24 695.08 1031.43 667.05 1040.18 634.96 C 1046.45 611.69 1049.15 586.63 1042.64 563.11 C 1038.13 546.39 1028.09 531.27 1014.46 520.62 C 993.48 504.17 966.12 498.69 940.01 498.23 C 896.67 498.12 853.33 498.21 809.99 498.18 C 805.39 497.87 801.13 501.52 800.62 506.08 Z" />
<path fill="#6e81b6" opacity="1.00" d=" M 364.77 563.54 C 378.83 563.59 392.89 563.47 406.96 563.61 C 416.91 563.92 427.06 564.85 436.44 568.45 C 441.89 570.49 446.94 574.42 448.98 580.04 C 452.70 589.90 451.54 600.76 449.94 610.94 C 447.22 626.51 442.30 642.53 431.31 654.34 C 422.39 663.75 409.50 667.95 397.02 670.01 C 379.38 672.83 361.46 671.38 343.69 671.78 C 350.78 635.72 357.70 599.62 364.77 563.54 Z" />
<path fill="#6e81b6" opacity="1.00" d=" M 876.97 563.57 C 890.64 563.54 904.31 563.52 917.98 563.59 C 928.32 563.83 938.88 564.71 948.63 568.43 C 953.99 570.46 959.02 574.24 961.11 579.75 C 964.86 589.46 963.82 600.18 962.29 610.24 C 959.63 625.88 954.80 641.97 943.91 653.95 C 935.54 663.08 923.37 667.40 911.49 669.63 C 893.16 672.95 874.46 671.40 855.95 671.75 C 862.98 635.70 869.97 599.63 876.97 563.57 Z" />
</g>
<g id="#5c6273ff">
<path fill="#5c6273" opacity="1.00" d=" M 883.13 367.85 C 900.93 372.25 918.58 377.25 936.05 382.80 C 936.04 386.89 936.44 391.00 935.84 395.06 C 935.12 397.64 933.58 399.88 932.33 402.22 C 929.71 401.67 927.03 401.53 924.37 401.68 C 908.79 397.41 893.34 392.65 877.60 388.97 C 879.35 388.52 881.08 387.98 882.83 387.46 C 883.29 380.93 883.07 374.39 883.13 367.85 Z" />
</g>
<g id="#575a67ff">
<path fill="#575a67" opacity="1.00" d=" M 936.05 382.80 C 948.09 386.63 960.02 390.78 971.84 395.24 C 970.38 402.03 971.14 409.00 970.80 415.88 C 967.45 414.50 963.94 413.12 960.25 413.74 C 948.29 409.72 936.38 405.53 924.37 401.68 C 927.03 401.53 929.71 401.67 932.33 402.22 C 933.58 399.88 935.12 397.64 935.84 395.06 C 936.44 391.00 936.04 386.89 936.05 382.80 Z" />
</g>
<g id="#d6d8e6ff">
<path fill="#d6d8e6" opacity="1.00" d=" M 309.51 394.71 C 312.92 393.46 316.35 392.24 319.76 390.98 C 325.74 393.18 331.42 396.11 337.05 399.10 C 341.32 401.56 346.43 400.83 351.14 401.22 C 349.13 401.97 347.11 402.72 345.09 403.46 C 345.59 403.74 346.60 404.28 347.10 404.56 C 342.15 406.18 337.19 407.79 332.26 409.48 C 329.29 406.52 325.36 404.99 321.55 403.46 C 316.86 401.59 313.15 398.08 309.51 394.71 Z" />
</g>
<g id="#cbcedfff">
<path fill="#cbcedf" opacity="1.00" d=" M 279.52 406.75 C 289.41 402.47 299.44 398.54 309.51 394.71 C 313.15 398.08 316.86 401.59 321.55 403.46 C 325.36 404.99 329.29 406.52 332.26 409.48 C 319.13 414.09 306.06 418.88 293.18 424.17 C 292.61 424.13 291.46 424.07 290.89 424.04 C 292.04 423.16 293.20 422.29 294.37 421.43 C 289.25 416.70 284.22 411.89 279.52 406.75 Z" />
</g>
<g id="#52545dff">
<path fill="#52545d" opacity="1.00" d=" M 971.84 395.24 C 979.20 398.00 986.52 400.88 993.80 403.88 C 992.73 406.87 990.89 409.46 989.47 412.26 C 988.76 416.31 989.67 420.76 987.19 424.36 C 978.26 420.69 969.26 417.20 960.25 413.74 C 963.94 413.12 967.45 414.50 970.80 415.88 C 971.14 409.00 970.38 402.03 971.84 395.24 Z" />
</g>
<g id="#4c4d55ff">
<path fill="#4c4d55" opacity="1.00" d=" M 993.80 403.88 C 1001.97 407.32 1010.11 410.85 1018.15 414.59 C 1015.69 420.85 1014.52 427.48 1015.08 434.21 C 1013.07 434.07 1011.06 433.96 1009.06 433.77 C 1001.70 430.79 994.58 427.26 987.19 424.36 C 989.67 420.76 988.76 416.31 989.47 412.26 C 990.89 409.46 992.73 406.87 993.80 403.88 Z" />
</g>
<g id="#b9bdd3ff">
<path fill="#b9bdd3" opacity="1.00" d=" M 239.49 425.57 C 252.63 418.88 265.93 412.47 279.52 406.75 C 284.22 411.89 289.25 416.70 294.37 421.43 C 293.20 422.29 292.04 423.16 290.89 424.04 C 291.46 424.07 292.61 424.13 293.18 424.17 C 279.76 430.03 266.23 435.69 253.23 442.45 C 252.41 440.23 251.56 437.90 249.67 436.36 C 245.91 433.12 242.67 429.36 239.49 425.57 Z" />
</g>
<g id="#434348ff">
<path fill="#434348" opacity="1.00" d=" M 1015.08 434.21 C 1014.52 427.48 1015.69 420.85 1018.15 414.59 C 1027.95 419.15 1037.63 423.98 1047.17 429.07 C 1044.80 435.25 1044.57 441.90 1043.42 448.35 C 1041.30 448.01 1039.19 447.76 1037.07 447.59 C 1027.72 443.01 1018.50 438.18 1009.06 433.77 C 1011.06 433.96 1013.07 434.07 1015.08 434.21 Z" />
</g>
<g id="#ffffffff">
<path fill="#ffffff" opacity="1.00" d=" M 565.31 425.90 C 565.90 421.71 569.63 417.99 573.99 418.14 C 595.68 418.06 617.37 418.13 639.05 418.11 C 644.67 417.70 649.49 423.57 647.99 429.00 C 643.48 452.06 639.10 475.15 634.50 498.20 C 651.65 498.18 668.80 498.16 685.95 498.21 C 704.92 498.47 724.22 500.25 742.11 506.94 C 755.41 511.96 767.77 520.95 774.19 533.92 C 782.73 550.93 781.99 570.86 778.59 589.10 C 769.56 635.92 760.40 682.70 751.34 729.51 C 750.72 734.00 746.46 737.39 741.96 737.17 C 720.31 737.22 698.65 737.19 677.00 737.18 C 671.19 737.63 666.02 731.71 667.67 726.01 C 675.70 684.71 683.73 643.41 691.75 602.11 C 693.47 592.73 696.22 583.08 694.20 573.54 C 693.57 569.92 690.18 567.94 686.96 566.98 C 678.26 564.32 669.05 564.58 660.06 564.59 C 647.26 564.57 634.47 564.62 621.68 564.56 C 610.87 619.66 600.26 674.80 589.50 729.91 C 588.73 734.28 584.40 737.42 580.03 737.18 C 558.68 737.19 537.31 737.22 515.96 737.17 C 510.69 737.45 505.79 732.33 506.79 727.05 C 510.64 706.89 514.62 686.74 518.50 666.58 C 502.51 693.33 478.38 715.98 448.98 727.10 C 427.96 734.94 405.31 736.75 383.05 737.16 C 365.69 737.24 348.32 737.15 330.96 737.21 C 326.43 761.17 321.64 785.09 317.06 809.05 C 316.57 813.56 312.59 817.39 307.97 817.26 C 286.64 817.36 265.30 817.23 243.97 817.31 C 238.33 818.06 232.51 812.96 233.64 807.12 C 252.78 708.15 272.12 609.21 291.28 510.24 C 292.00 506.97 292.14 503.17 294.80 500.76 C 296.63 498.77 299.37 498.04 302.00 498.17 C 343.99 498.20 385.99 498.17 427.98 498.19 C 448.75 498.24 469.95 501.19 488.89 510.12 C 505.17 517.70 519.16 530.42 527.51 546.40 C 532.07 554.91 534.70 564.27 536.61 573.69 C 546.11 524.42 555.73 475.16 565.31 425.90 M 574.31 427.06 C 572.12 436.67 570.45 446.40 568.52 456.07 C 550.86 546.81 533.32 637.57 515.56 728.29 C 537.28 728.26 559.01 728.27 580.73 728.28 C 591.90 670.74 603.09 613.21 614.27 555.67 C 630.17 555.63 646.08 555.66 661.99 555.65 C 671.53 555.63 681.34 555.69 690.48 558.80 C 695.83 560.48 700.75 564.31 702.40 569.86 C 704.89 578.02 703.71 586.75 702.23 594.98 C 693.56 639.42 685.01 683.87 676.29 728.29 C 698.35 728.27 720.40 728.26 742.46 728.30 C 751.55 681.57 760.66 634.84 769.69 588.09 C 772.85 571.55 773.95 553.43 766.20 537.93 C 760.43 526.37 749.09 518.77 737.16 514.63 C 716.27 507.38 693.85 506.91 671.97 507.14 C 655.87 507.15 639.77 507.12 623.67 507.16 C 628.97 480.41 634.04 453.62 639.35 426.88 C 617.67 427.02 595.98 426.66 574.31 427.06 M 300.98 507.16 C 281.46 607.57 262.04 708.00 242.38 808.39 C 264.28 808.34 286.19 808.38 308.09 808.37 C 313.22 781.67 318.50 755.00 323.61 728.29 C 340.40 728.25 357.19 728.28 373.98 728.28 C 394.58 728.34 415.45 727.48 435.45 722.09 C 452.19 717.66 467.75 709.12 480.80 697.77 C 493.78 686.53 505.08 673.16 513.01 657.88 C 521.96 640.92 526.75 621.99 528.44 602.95 C 529.60 587.54 528.72 571.57 522.68 557.15 C 515.89 540.06 502.10 526.16 485.54 518.36 C 467.68 509.85 447.62 507.16 428.00 507.14 C 385.66 507.15 343.32 507.12 300.98 507.16 Z" />
<path fill="#ffffff" opacity="1.00" d=" M 800.62 506.08 C 801.13 501.52 805.39 497.87 809.99 498.18 C 853.33 498.21 896.67 498.12 940.01 498.23 C 966.12 498.69 993.48 504.17 1014.46 520.62 C 1028.09 531.27 1038.13 546.39 1042.64 563.11 C 1049.15 586.63 1046.45 611.69 1040.18 634.96 C 1031.43 667.05 1010.24 695.08 982.98 713.85 C 967.83 724.31 950.20 730.83 932.09 733.83 C 901.50 738.95 870.37 736.68 839.51 737.18 C 834.83 761.33 830.16 785.48 825.43 809.61 C 824.81 814.15 820.48 817.55 815.94 817.28 C 794.64 817.31 773.34 817.27 752.04 817.30 C 748.58 817.47 744.94 815.95 743.25 812.82 C 741.23 809.53 742.46 805.57 743.09 802.06 C 762.29 703.41 781.44 604.74 800.62 506.08 M 813.23 507.18 C 793.65 607.58 774.30 708.02 754.59 808.39 C 776.49 808.35 798.39 808.35 820.30 808.39 C 825.49 781.69 830.69 754.98 835.86 728.27 C 843.93 728.28 852.00 728.27 860.07 728.27 C 887.87 728.05 916.09 729.67 943.37 723.18 C 960.01 719.42 975.70 711.76 989.02 701.11 C 1000.80 691.56 1011.37 680.39 1019.57 667.59 C 1030.55 650.68 1037.07 631.12 1039.73 611.20 C 1041.70 597.19 1041.86 582.78 1038.69 568.93 C 1035.62 555.69 1029.00 543.22 1019.37 533.59 C 1008.56 522.61 994.31 515.56 979.51 511.73 C 966.31 508.33 952.63 507.02 939.01 507.14 C 897.09 507.17 855.16 507.09 813.23 507.18 Z" />
<path fill="#ffffff" opacity="1.00" d=" M 357.36 554.64 C 372.24 554.58 387.12 554.63 402.01 554.61 C 414.48 554.62 427.22 555.53 439.01 559.90 C 447.06 562.77 454.37 568.64 457.34 576.85 C 462.34 590.08 460.34 604.63 457.65 618.14 C 453.98 635.73 446.87 653.83 432.42 665.34 C 418.15 676.43 399.52 679.55 381.92 680.49 C 365.56 680.85 349.18 680.69 332.81 680.60 C 341.16 638.65 349.19 596.63 357.36 554.64 M 364.77 563.54 C 357.70 599.62 350.78 635.72 343.69 671.78 C 361.46 671.38 379.38 672.83 397.02 670.01 C 409.50 667.95 422.39 663.75 431.31 654.34 C 442.30 642.53 447.22 626.51 449.94 610.94 C 451.54 600.76 452.70 589.90 448.98 580.04 C 446.94 574.42 441.89 570.49 436.44 568.45 C 427.06 564.85 416.91 563.92 406.96 563.61 C 392.89 563.47 378.83 563.59 364.77 563.54 Z" />
<path fill="#ffffff" opacity="1.00" d=" M 845.08 680.64 C 853.39 638.66 861.42 596.62 869.63 554.62 C 887.42 554.69 905.21 554.44 923.00 554.77 C 935.59 555.62 948.95 557.09 959.69 564.29 C 967.27 569.27 971.06 578.19 972.13 586.92 C 973.63 599.77 971.34 612.73 968.22 625.18 C 964.22 640.37 957.11 655.58 944.47 665.47 C 930.74 676.10 912.91 679.30 895.99 680.40 C 879.03 680.95 862.05 680.60 845.08 680.64 M 876.97 563.57 C 869.97 599.63 862.98 635.70 855.95 671.75 C 874.46 671.40 893.16 672.95 911.49 669.63 C 923.37 667.40 935.54 663.08 943.91 653.95 C 954.80 641.97 959.63 625.88 962.29 610.24 C 963.82 600.18 964.86 589.46 961.11 579.75 C 959.02 574.24 953.99 570.46 948.63 568.43 C 938.88 564.71 928.32 563.83 917.98 563.59 C 904.31 563.52 890.64 563.54 876.97 563.57 Z" />
</g>
<g id="#a4acc6ff">
<path fill="#a4acc6" opacity="1.00" d=" M 205.13 444.92 C 216.39 438.13 227.78 431.56 239.49 425.57 C 242.67 429.36 245.91 433.12 249.67 436.36 C 251.56 437.90 252.41 440.23 253.23 442.45 C 239.69 449.41 226.30 456.66 213.31 464.61 C 214.37 463.22 215.34 461.77 216.34 460.34 C 211.73 455.92 207.99 450.76 205.18 445.01 L 205.13 444.92 Z" />
</g>
<g id="#000000ff">
<path fill="#000000" opacity="1.00" d=" M 574.31 427.06 C 595.98 426.66 617.67 427.02 639.35 426.88 C 634.04 453.62 628.97 480.41 623.67 507.16 C 639.77 507.12 655.87 507.15 671.97 507.14 C 693.85 506.91 716.27 507.38 737.16 514.63 C 749.09 518.77 760.43 526.37 766.20 537.93 C 773.95 553.43 772.85 571.55 769.69 588.09 C 760.66 634.84 751.55 681.57 742.46 728.30 C 720.40 728.26 698.35 728.27 676.29 728.29 C 685.01 683.87 693.56 639.42 702.23 594.98 C 703.71 586.75 704.89 578.02 702.40 569.86 C 700.75 564.31 695.83 560.48 690.48 558.80 C 681.34 555.69 671.53 555.63 661.99 555.65 C 646.08 555.66 630.17 555.63 614.27 555.67 C 603.09 613.21 591.90 670.74 580.73 728.28 C 559.01 728.27 537.28 728.26 515.56 728.29 C 533.32 637.57 550.86 546.81 568.52 456.07 C 570.45 446.40 572.12 436.67 574.31 427.06 Z" />
<path fill="#000000" opacity="1.00" d=" M 1081.03 448.80 C 1113.21 469.39 1143.31 493.90 1167.25 523.85 C 1183.65 544.68 1197.59 568.09 1204.52 593.83 C 1204.40 600.56 1204.03 607.29 1203.93 614.03 C 1204.53 627.99 1204.12 641.96 1204.23 655.94 C 1204.50 666.02 1203.45 676.11 1204.56 686.18 C 1200.00 703.37 1191.95 719.48 1182.61 734.55 C 1163.31 765.09 1137.07 790.69 1108.32 812.30 C 1076.75 835.96 1041.95 855.04 1005.90 870.93 C 934.06 902.25 857.27 921.24 779.71 931.54 C 785.64 926.07 792.60 921.91 798.76 916.71 C 802.75 913.57 807.10 910.90 810.86 907.46 C 807.96 907.13 805.09 906.63 802.25 906.04 C 865.78 895.86 928.62 879.93 988.13 855.25 C 1023.81 840.37 1058.35 822.36 1089.76 799.72 C 1116.19 780.60 1140.57 758.07 1159.07 731.04 C 1179.31 701.78 1191.55 666.09 1188.82 630.26 C 1186.74 597.86 1173.03 567.12 1153.66 541.39 C 1132.26 512.87 1104.63 489.55 1074.92 470.10 C 1076.22 469.42 1077.96 468.96 1078.25 467.26 C 1080.27 461.33 1080.39 454.98 1081.03 448.80 Z" />
<path fill="#000000" opacity="1.00" d=" M 300.98 507.16 C 343.32 507.12 385.66 507.15 428.00 507.14 C 447.62 507.16 467.68 509.85 485.54 518.36 C 502.10 526.16 515.89 540.06 522.68 557.15 C 528.72 571.57 529.60 587.54 528.44 602.95 C 526.75 621.99 521.96 640.92 513.01 657.88 C 505.08 673.16 493.78 686.53 480.80 697.77 C 467.75 709.12 452.19 717.66 435.45 722.09 C 415.45 727.48 394.58 728.34 373.98 728.28 C 357.19 728.28 340.40 728.25 323.61 728.29 C 318.50 755.00 313.22 781.67 308.09 808.37 C 286.19 808.38 264.28 808.34 242.38 808.39 C 262.04 708.00 281.46 607.57 300.98 507.16 M 357.36 554.64 C 349.19 596.63 341.16 638.65 332.81 680.60 C 349.18 680.69 365.56 680.85 381.92 680.49 C 399.52 679.55 418.15 676.43 432.42 665.34 C 446.87 653.83 453.98 635.73 457.65 618.14 C 460.34 604.63 462.34 590.08 457.34 576.85 C 454.37 568.64 447.06 562.77 439.01 559.90 C 427.22 555.53 414.48 554.62 402.01 554.61 C 387.12 554.63 372.24 554.58 357.36 554.64 Z" />
<path fill="#000000" opacity="1.00" d=" M 813.23 507.18 C 855.16 507.09 897.09 507.17 939.01 507.14 C 952.63 507.02 966.31 508.33 979.51 511.73 C 994.31 515.56 1008.56 522.61 1019.37 533.59 C 1029.00 543.22 1035.62 555.69 1038.69 568.93 C 1041.86 582.78 1041.70 597.19 1039.73 611.20 C 1037.07 631.12 1030.55 650.68 1019.57 667.59 C 1011.37 680.39 1000.80 691.56 989.02 701.11 C 975.70 711.76 960.01 719.42 943.37 723.18 C 916.09 729.67 887.87 728.05 860.07 728.27 C 852.00 728.27 843.93 728.28 835.86 728.27 C 830.69 754.98 825.49 781.69 820.30 808.39 C 798.39 808.35 776.49 808.35 754.59 808.39 C 774.30 708.02 793.65 607.58 813.23 507.18 M 845.08 680.64 C 862.05 680.60 879.03 680.95 895.99 680.40 C 912.91 679.30 930.74 676.10 944.47 665.47 C 957.11 655.58 964.22 640.37 968.22 625.18 C 971.34 612.73 973.63 599.77 972.13 586.92 C 971.06 578.19 967.27 569.27 959.69 564.29 C 948.95 557.09 935.59 555.62 923.00 554.77 C 905.21 554.44 887.42 554.69 869.63 554.62 C 861.42 596.62 853.39 638.66 845.08 680.64 Z" />
</g>
<g id="#333437ff">
<path fill="#333437" opacity="1.00" d=" M 1047.17 429.07 C 1049.33 430.22 1051.50 431.38 1053.67 432.55 C 1052.51 439.06 1051.06 445.54 1050.51 452.15 C 1049.20 452.41 1047.90 452.66 1046.61 452.93 C 1043.41 451.17 1040.24 449.37 1037.07 447.59 C 1039.19 447.76 1041.30 448.01 1043.42 448.35 C 1044.57 441.90 1044.80 435.25 1047.17 429.07 Z" />
</g>
<g id="#2a2b2cff">
<path fill="#2a2b2c" opacity="1.00" d=" M 1053.67 432.55 C 1055.75 433.79 1057.96 434.82 1059.90 436.30 L 1060.15 437.00 C 1058.73 444.10 1059.45 451.69 1056.01 458.31 C 1052.89 456.48 1049.75 454.70 1046.61 452.93 C 1047.90 452.66 1049.20 452.41 1050.51 452.15 C 1051.06 445.54 1052.51 439.06 1053.67 432.55 Z" />
</g>
<g id="#1b1b1cff">
<path fill="#1b1b1c" opacity="1.00" d=" M 1060.15 437.00 L 1060.82 436.82 C 1065.04 438.69 1068.91 441.48 1072.96 443.78 C 1071.09 450.16 1069.39 456.62 1068.81 463.26 C 1066.92 463.00 1065.03 462.76 1063.16 462.53 C 1060.77 461.12 1058.38 459.72 1056.01 458.31 C 1059.45 451.69 1058.73 444.10 1060.15 437.00 Z" />
</g>
<g id="#0c0c0cff">
<path fill="#0c0c0c" opacity="1.00" d=" M 1072.96 443.78 C 1075.65 445.45 1078.34 447.12 1081.03 448.80 C 1080.39 454.98 1080.27 461.33 1078.25 467.26 C 1077.96 468.96 1076.22 469.42 1074.92 470.10 C 1071.03 467.52 1067.12 464.97 1063.16 462.53 C 1065.03 462.76 1066.92 463.00 1068.81 463.26 C 1069.39 456.62 1071.09 450.16 1072.96 443.78 Z" />
</g>
<g id="#959ebcff">
<path fill="#959ebc" opacity="1.00" d=" M 176.91 463.83 C 186.10 457.22 195.45 450.80 205.18 445.01 C 207.99 450.76 211.73 455.92 216.34 460.34 C 215.34 461.77 214.37 463.22 213.31 464.61 C 205.60 470.01 197.46 474.80 189.95 480.49 C 185.02 475.40 181.75 469.01 176.91 463.83 Z" />
</g>
<g id="#8b94b5ff">
<path fill="#8b94b5" opacity="1.00" d=" M 160.70 476.23 C 166.01 471.98 171.39 467.80 176.91 463.83 C 181.75 469.01 185.02 475.40 189.95 480.49 C 183.89 485.12 177.63 489.51 171.82 494.47 C 171.97 493.35 172.11 492.23 172.26 491.12 C 167.58 486.75 165.91 480.12 160.70 476.23 Z" />
</g>
<g id="#7381a7ff">
<path fill="#7381a7" opacity="1.00" d=" M 113.60 522.73 C 120.43 514.51 127.51 506.48 135.15 498.99 C 137.85 505.93 144.29 509.98 149.07 515.31 C 141.02 523.03 133.91 531.62 127.09 540.43 C 122.06 534.93 118.71 528.16 113.60 522.73 Z" />
</g>
<g id="#6a79a1ff">
<path fill="#6a79a1" opacity="1.00" d=" M 100.25 540.99 C 104.40 534.68 108.96 528.67 113.60 522.73 C 118.71 528.16 122.06 534.93 127.09 540.43 C 122.90 545.79 119.26 551.54 115.51 557.21 C 109.29 552.97 105.18 546.54 100.25 540.99 Z" />
</g>
<g id="#5f729bff">
<path fill="#5f729b" opacity="1.00" d=" M 81.30 576.43 C 86.42 564.03 92.81 552.16 100.25 540.99 C 105.18 546.54 109.29 552.97 115.51 557.21 C 108.42 568.73 102.67 581.09 98.37 593.93 C 93.08 587.72 86.94 582.31 81.30 576.43 Z" />
</g>
<g id="#404f6ebb">
<path fill="#404f6e" opacity="0.73" d=" M 79.96 579.72 C 80.40 578.62 80.85 577.52 81.30 576.43 C 86.94 582.31 93.08 587.72 98.37 593.93 C 97.92 595.24 97.48 596.58 97.07 597.93 C 91.98 591.30 85.40 586.05 79.96 579.72 Z" />
</g>
<g id="#3a43599f">
<path fill="#3a4359" opacity="0.62" d=" M 75.67 592.84 C 76.14 590.70 76.91 588.64 77.71 586.62 L 77.75 587.44 C 78.60 597.59 78.25 607.77 78.31 617.95 C 78.34 639.64 78.27 661.34 78.37 683.03 C 78.38 686.10 77.88 689.13 77.49 692.18 C 76.76 690.56 76.03 688.93 75.67 687.19 C 75.72 679.79 76.80 672.41 75.92 665.01 C 76.65 654.02 75.02 643.02 76.07 632.03 C 76.88 624.35 75.18 616.67 75.90 608.99 C 76.44 603.60 75.49 598.23 75.67 592.84 Z" />
</g>
<g id="#606b89ff">
<path fill="#606b89" opacity="1.00" d=" M 77.75 587.44 C 80.21 594.38 78.70 601.82 79.09 609.01 C 79.39 615.20 78.49 621.50 79.58 627.62 C 81.72 631.47 84.96 634.55 88.06 637.63 C 88.63 635.76 89.19 633.89 89.74 632.03 C 89.58 637.17 89.66 642.33 90.67 647.39 C 91.90 659.09 93.57 670.78 97.03 682.06 C 106.44 713.42 125.68 740.91 148.35 764.16 C 146.95 764.43 145.54 764.71 144.14 764.99 C 138.86 761.29 132.48 759.57 127.37 755.61 C 121.65 751.71 115.03 749.40 109.04 746.00 C 106.29 743.74 104.45 740.21 100.67 739.46 C 92.43 727.41 85.58 714.41 80.23 700.83 C 79.19 697.99 78.01 695.16 77.49 692.18 C 77.88 689.13 78.38 686.10 78.37 683.03 C 78.27 661.34 78.34 639.64 78.31 617.95 C 78.25 607.77 78.60 597.59 77.75 587.44 Z" />
</g>
<g id="#1d212c4f">
<path fill="#1d212c" opacity="0.31" d=" M 74.23 601.05 C 74.17 598.24 74.73 595.47 75.67 592.84 C 75.49 598.23 76.44 603.60 75.90 608.99 C 75.18 616.67 76.88 624.35 76.07 632.03 C 75.02 643.02 76.65 654.02 75.92 665.01 C 76.80 672.41 75.72 679.79 75.67 687.19 C 73.64 682.04 74.34 676.43 74.26 671.04 C 74.25 647.71 74.28 624.38 74.23 601.05 Z" />
</g>
<g id="#000000af">
<path fill="#000000" opacity="0.69" d=" M 1204.52 593.83 C 1205.23 595.78 1205.94 597.76 1206.24 599.84 C 1206.66 611.88 1205.24 623.90 1205.77 635.95 C 1206.72 647.60 1205.36 659.30 1206.10 670.97 C 1206.32 674.01 1206.44 677.06 1206.27 680.12 C 1205.91 682.19 1205.24 684.19 1204.56 686.18 C 1203.45 676.11 1204.50 666.02 1204.23 655.94 C 1204.12 641.96 1204.53 627.99 1203.93 614.03 C 1204.03 607.29 1204.40 600.56 1204.52 593.83 Z" />
</g>
<g id="#0000005d">
<path fill="#000000" opacity="0.36" d=" M 1206.24 599.84 C 1208.91 608.31 1208.22 617.27 1208.29 626.02 C 1208.30 639.01 1208.27 651.99 1208.31 664.97 C 1208.30 670.08 1207.70 675.20 1206.27 680.12 C 1206.44 677.06 1206.32 674.01 1206.10 670.97 C 1205.36 659.30 1206.72 647.60 1205.77 635.95 C 1205.24 623.90 1206.66 611.88 1206.24 599.84 Z" />
</g>
<g id="#60677dff">
<path fill="#60677d" opacity="1.00" d=" M 100.67 739.46 C 104.45 740.21 106.29 743.74 109.04 746.00 C 115.03 749.40 121.65 751.71 127.37 755.61 C 132.48 759.57 138.86 761.29 144.14 764.99 C 145.54 764.71 146.95 764.43 148.35 764.16 C 173.69 789.79 203.59 810.53 235.04 827.95 C 267.84 846.08 302.58 860.48 338.06 872.46 C 337.59 872.78 336.64 873.42 336.16 873.73 C 340.15 874.98 344.13 876.27 348.05 877.73 C 341.39 878.10 334.70 878.14 328.03 877.74 C 322.58 877.38 317.48 874.93 311.99 874.87 C 303.99 874.66 295.60 876.28 287.99 873.00 C 285.10 871.59 281.93 872.01 278.98 872.93 C 245.27 858.58 212.74 841.25 182.67 820.26 C 151.21 798.09 122.02 771.73 100.67 739.46 Z" />
</g>
<g id="#5b606fff">
<path fill="#5b606f" opacity="1.00" d=" M 278.98 872.93 C 281.93 872.01 285.10 871.59 287.99 873.00 C 295.60 876.28 303.99 874.66 311.99 874.87 C 317.48 874.93 322.58 877.38 328.03 877.74 C 334.70 878.14 341.39 878.10 348.05 877.73 C 344.13 876.27 340.15 874.98 336.16 873.73 C 336.64 873.42 337.59 872.78 338.06 872.46 C 393.23 891.04 450.50 902.81 508.18 910.24 C 507.65 910.62 506.59 911.39 506.06 911.77 C 509.32 912.19 512.57 912.69 515.81 913.32 C 515.83 913.93 515.89 915.14 515.91 915.75 C 511.48 916.04 506.56 914.99 502.66 917.65 C 499.83 919.52 496.27 918.50 493.14 919.30 C 491.39 920.00 489.95 921.40 488.07 921.76 C 484.71 922.13 481.31 921.55 477.97 922.05 C 474.53 923.24 471.49 925.31 468.16 926.76 C 403.39 915.88 339.37 898.97 278.98 872.93 Z" />
</g>
<g id="#161616ff">
<path fill="#161616" opacity="1.00" d=" M 775.42 909.86 C 784.40 908.83 793.29 907.16 802.25 906.04 C 805.09 906.63 807.96 907.13 810.86 907.46 C 807.10 910.90 802.75 913.57 798.76 916.71 C 792.60 921.91 785.64 926.07 779.71 931.54 C 769.38 932.94 759.03 934.16 748.66 935.17 C 753.36 931.25 759.07 928.80 763.70 924.76 C 769.87 920.50 776.12 916.34 782.14 911.85 C 779.90 911.15 777.67 910.45 775.42 909.86 Z" />
</g>
<g id="#292a2bff">
<path fill="#292a2b" opacity="1.00" d=" M 749.51 912.81 C 758.17 912.05 766.77 910.76 775.42 909.86 C 777.67 910.45 779.90 911.15 782.14 911.85 C 776.12 916.34 769.87 920.50 763.70 924.76 C 759.07 928.80 753.36 931.25 748.66 935.17 C 745.65 935.37 742.59 935.89 739.59 935.50 C 739.11 935.35 738.14 935.05 737.66 934.90 C 733.02 936.59 728.07 935.72 723.28 935.67 C 733.49 928.17 744.56 921.99 755.02 914.84 C 753.18 914.13 751.36 913.42 749.51 912.81 Z" />
</g>
<g id="#545661ff">
<path fill="#545661" opacity="1.00" d=" M 506.06 911.77 C 506.59 911.39 507.65 910.62 508.18 910.24 C 531.02 913.13 553.97 915.12 576.96 916.46 C 590.09 917.40 603.27 917.39 616.41 918.25 C 619.60 919.79 623.11 920.57 626.67 920.36 C 621.35 921.99 616.59 925.46 610.81 925.38 C 610.24 926.24 609.68 927.12 609.12 928.00 C 604.65 930.55 599.83 932.53 594.58 932.25 C 594.32 932.91 593.80 934.23 593.54 934.90 C 574.93 935.21 556.31 934.65 537.72 935.56 C 514.40 933.88 491.24 930.40 468.16 926.76 C 471.49 925.31 474.53 923.24 477.97 922.05 C 481.31 921.55 484.71 922.13 488.07 921.76 C 489.95 921.40 491.39 920.00 493.14 919.30 C 496.27 918.50 499.83 919.52 502.66 917.65 C 506.56 914.99 511.48 916.04 515.91 915.75 C 515.89 915.14 515.83 913.93 515.81 913.32 C 512.57 912.69 509.32 912.19 506.06 911.77 Z" />
</g>
<g id="#38393dff">
<path fill="#38393d" opacity="1.00" d=" M 713.43 915.92 C 725.47 915.13 737.48 913.87 749.51 912.81 C 751.36 913.42 753.18 914.13 755.02 914.84 C 744.56 921.99 733.49 928.17 723.28 935.67 C 715.80 935.70 708.35 935.07 700.89 934.66 C 707.39 932.38 712.01 926.91 718.41 924.46 C 723.12 922.57 727.07 919.33 731.06 916.28 C 725.19 916.84 719.13 918.11 713.43 915.92 Z" />
</g>
<g id="#45474cff">
<path fill="#45474c" opacity="1.00" d=" M 616.41 918.25 C 648.76 918.88 681.13 917.89 713.43 915.92 C 719.13 918.11 725.19 916.84 731.06 916.28 C 727.07 919.33 723.12 922.57 718.41 924.46 C 712.01 926.91 707.39 932.38 700.89 934.66 C 708.35 935.07 715.80 935.70 723.28 935.67 C 728.07 935.72 733.02 936.59 737.66 934.90 C 738.14 935.05 739.11 935.35 739.59 935.50 L 739.78 935.57 C 731.65 937.01 723.28 936.20 715.05 936.46 C 667.05 936.48 619.05 936.48 571.05 936.49 C 559.93 936.42 548.78 936.83 537.72 935.56 C 556.31 934.65 574.93 935.21 593.54 934.90 C 602.70 935.13 611.86 934.89 621.02 935.02 C 624.51 935.04 628.16 935.05 631.36 933.43 C 640.25 929.09 648.93 924.31 657.99 920.33 C 647.56 920.08 637.07 919.42 626.67 920.36 C 623.11 920.57 619.60 919.79 616.41 918.25 Z" />
</g>
<g id="#4c4e57ff">
<path fill="#4c4e57" opacity="1.00" d=" M 626.67 920.36 C 637.07 919.42 647.56 920.08 657.99 920.33 C 648.93 924.31 640.25 929.09 631.36 933.43 C 628.16 935.05 624.51 935.04 621.02 935.02 C 611.86 934.89 602.70 935.13 593.54 934.90 C 593.80 934.23 594.32 932.91 594.58 932.25 C 599.83 932.53 604.65 930.55 609.12 928.00 C 609.68 927.12 610.24 926.24 610.81 925.38 C 616.59 925.46 621.35 921.99 626.67 920.36 Z" />
</g>
</svg>
