<?xml version="1.0" encoding="UTF-8" ?>
<!DOCTYPE svg PUBLIC "-//W3C//DTD SVG 1.1//EN" "http://www.w3.org/Graphics/SVG/1.1/DTD/svg11.dtd">
<svg width="1280pt" height="1142pt" viewBox="0 0 1280 1142" version="1.1" xmlns="http://www.w3.org/2000/svg">
<g id="#79351d80">
<path fill="#79351d" opacity="0.50" d=" M 617.24 152.64 C 626.78 151.60 636.39 152.16 645.97 152.00 C 651.98 151.88 657.99 152.19 663.99 152.59 C 663.82 153.17 663.46 154.32 663.28 154.89 C 658.02 155.25 652.46 155.05 647.58 152.84 C 642.55 152.44 637.48 152.45 632.45 152.83 C 631.01 153.41 629.63 154.15 628.08 154.38 C 620.10 155.47 612.00 155.37 604.02 156.52 C 597.77 157.13 591.64 158.58 585.39 159.13 C 584.89 158.90 583.90 158.45 583.40 158.23 C 593.24 156.69 603.07 154.81 613.05 154.37 C 614.66 154.45 616.18 153.89 617.24 152.64 Z" />
</g>
<g id="#f26b3aff">
<path fill="#f26b3a" opacity="1.00" d=" M 628.08 154.38 C 629.63 154.15 631.01 153.41 632.45 152.83 C 637.48 152.45 642.55 152.44 647.58 152.84 C 652.46 155.05 658.02 155.25 663.28 154.89 C 664.73 154.73 666.18 154.59 667.65 154.45 L 667.35 155.33 C 671.13 155.34 674.91 155.57 678.69 155.68 L 678.28 156.48 C 680.76 156.49 683.24 156.57 685.73 156.61 L 685.30 157.41 C 687.42 157.46 689.55 157.55 691.67 157.61 L 691.29 158.41 C 692.76 158.41 694.24 158.41 695.72 158.42 L 695.47 159.30 C 697.86 159.37 700.24 159.50 702.64 159.59 L 702.31 160.23 C 704.18 160.44 706.07 160.71 707.91 161.25 C 709.13 161.39 710.37 161.53 711.61 161.67 L 711.43 162.24 C 714.22 162.51 716.93 163.27 719.68 163.80 L 719.43 164.19 C 721.67 164.57 723.87 165.19 726.07 165.79 C 727.51 166.25 728.98 166.54 730.49 166.83 L 730.42 167.51 C 731.19 167.52 732.74 167.53 733.52 167.53 L 733.36 168.50 C 734.17 168.49 735.79 168.48 736.60 168.48 L 736.38 169.52 C 737.19 169.53 738.79 169.56 739.59 169.57 L 739.48 170.24 C 741.53 170.77 743.56 171.37 745.64 171.84 L 745.52 172.82 C 745.85 172.75 746.50 172.60 746.82 172.52 C 748.05 172.95 749.30 173.36 750.55 173.76 L 750.36 174.47 C 751.17 174.50 752.80 174.57 753.61 174.61 L 753.58 175.78 C 753.92 175.69 754.59 175.52 754.93 175.43 C 756.26 176.14 757.63 176.83 758.97 177.57 C 759.33 177.54 760.07 177.48 760.43 177.44 L 760.64 178.57 C 760.97 178.55 761.62 178.50 761.94 178.47 C 763.22 179.10 764.52 179.71 765.83 180.33 C 767.25 180.98 768.65 181.68 770.06 182.37 C 770.28 182.41 770.72 182.48 770.94 182.52 C 772.44 183.29 773.97 184.03 775.51 184.76 L 775.63 185.12 C 777.61 185.96 779.57 186.84 781.55 187.70 L 781.61 188.08 C 783.16 188.79 784.67 189.60 786.11 190.53 C 786.43 190.46 787.07 190.34 787.39 190.28 L 787.47 191.64 C 787.94 191.61 788.89 191.53 789.36 191.49 L 789.44 192.58 L 790.64 192.38 L 790.64 193.54 C 790.98 193.51 791.67 193.44 792.01 193.40 C 793.55 194.41 795.12 195.38 796.69 196.36 C 797.50 196.81 798.31 197.27 799.13 197.73 C 800.86 198.83 802.63 199.88 804.44 200.88 L 804.49 201.30 C 805.52 201.77 806.55 202.24 807.59 202.71 L 807.52 203.15 C 809.53 204.34 811.50 205.60 813.52 206.82 L 813.45 207.28 C 814.48 207.75 815.51 208.22 816.56 208.69 L 816.61 209.18 C 817.77 209.98 818.94 210.80 820.11 211.61 C 822.52 213.37 824.91 215.16 827.38 216.87 L 827.55 217.15 C 829.69 218.80 831.75 220.56 833.91 222.20 C 835.27 223.33 836.61 224.50 837.95 225.67 L 837.96 225.23 C 840.32 227.58 842.78 229.84 845.40 231.90 L 845.54 232.15 C 853.59 239.16 861.05 246.87 868.28 254.73 C 870.53 257.49 872.96 260.10 875.26 262.83 C 879.09 267.42 882.83 272.09 886.40 276.89 C 887.23 278.05 888.06 279.21 888.89 280.39 L 889.16 280.62 C 890.00 281.79 890.87 282.95 891.74 284.12 C 892.46 285.24 893.16 286.36 893.89 287.51 L 894.16 287.52 C 894.84 288.66 895.55 289.79 896.27 290.93 C 896.54 291.34 897.08 292.15 897.35 292.55 C 897.59 292.86 898.09 293.48 898.33 293.79 C 898.78 294.72 899.24 295.66 899.71 296.60 L 900.20 296.57 C 901.02 298.21 901.90 299.84 902.75 301.49 L 903.22 301.54 C 903.47 302.04 903.96 303.06 904.21 303.57 C 904.68 304.42 905.18 305.28 905.70 306.13 C 906.21 307.02 906.74 307.92 907.28 308.82 C 908.28 310.63 909.32 312.43 910.51 314.14 C 910.45 314.45 910.32 315.07 910.26 315.38 L 911.16 315.59 C 912.04 317.40 912.92 319.22 913.93 320.98 C 915.02 323.05 916.07 325.16 916.96 327.34 L 917.69 327.63 C 917.61 328.06 917.47 328.92 917.40 329.35 L 918.71 329.65 C 918.60 330.08 918.37 330.94 918.26 331.36 L 919.37 331.54 C 919.75 332.86 920.18 334.17 920.59 335.50 L 921.04 335.59 C 921.53 336.76 922.02 337.95 922.51 339.14 C 922.50 339.44 922.49 340.05 922.48 340.36 L 923.69 340.71 C 923.55 341.15 923.26 342.03 923.12 342.46 L 924.41 342.40 C 924.46 343.22 924.56 344.85 924.62 345.66 L 925.81 345.59 C 925.73 345.90 925.57 346.52 925.49 346.83 C 925.95 348.03 926.40 349.25 926.85 350.48 L 927.57 350.41 C 927.57 351.18 927.58 352.73 927.58 353.50 L 928.82 353.57 C 928.69 354.03 928.44 354.96 928.31 355.42 L 929.46 355.44 C 929.46 356.23 929.46 357.82 929.46 358.61 L 930.48 358.33 C 930.50 359.17 930.55 360.83 930.58 361.67 L 931.33 361.44 C 931.83 363.52 932.39 365.59 932.81 367.70 L 933.46 367.30 C 933.50 367.98 933.59 369.34 933.63 370.02 C 934.05 371.19 934.45 372.38 934.83 373.57 L 935.43 373.41 C 935.46 374.79 935.50 376.16 935.55 377.55 L 936.50 377.38 C 936.50 378.77 936.52 380.16 936.56 381.56 L 937.52 381.40 C 937.52 382.19 937.51 383.79 937.51 384.58 L 938.34 384.46 C 938.42 385.65 938.53 386.84 938.66 388.04 C 939.47 389.80 939.54 391.73 939.69 393.64 L 940.43 393.32 C 940.49 395.05 940.56 396.78 940.64 398.53 L 941.49 398.44 C 941.46 399.25 941.39 400.86 941.36 401.67 L 942.24 401.55 C 942.17 405.94 943.51 410.17 943.74 414.53 L 944.38 414.52 C 944.37 416.24 944.39 417.98 944.40 419.72 L 945.26 419.58 C 945.38 423.54 945.59 427.51 945.60 431.49 L 946.36 431.53 C 947.03 450.56 946.97 469.60 946.40 488.63 L 945.60 488.33 C 945.59 491.74 945.45 495.15 945.39 498.57 L 944.59 498.43 C 944.50 501.13 944.36 503.83 944.32 506.55 L 943.59 506.39 C 943.52 508.15 943.47 509.93 943.42 511.70 L 942.57 511.35 C 942.53 513.41 942.47 515.48 942.44 517.55 L 941.64 517.41 C 941.71 522.28 939.60 526.81 939.29 531.64 L 938.77 531.39 C 938.44 534.16 937.75 536.86 937.25 539.60 L 936.57 539.31 C 936.53 540.74 936.50 542.19 936.48 543.64 L 935.83 543.27 C 935.49 544.82 935.18 546.40 934.73 547.93 C 934.59 548.43 934.30 549.42 934.16 549.92 C 933.81 551.15 933.49 552.39 933.20 553.65 L 932.49 553.38 C 932.49 554.19 932.49 555.82 932.49 556.64 L 931.53 556.46 C 931.53 557.24 931.53 558.80 931.53 559.58 L 930.56 559.38 C 930.54 560.18 930.51 561.78 930.49 562.58 L 929.46 562.41 C 929.45 563.21 929.43 564.81 929.43 565.61 L 928.69 565.48 C 928.24 567.19 927.69 568.88 927.28 570.61 L 926.85 570.47 C 926.43 571.71 926.00 572.95 925.56 574.19 C 925.62 574.49 925.74 575.11 925.80 575.42 L 924.61 575.42 C 924.56 576.22 924.48 577.82 924.43 578.62 L 923.18 578.56 C 923.25 578.89 923.39 579.53 923.46 579.86 C 922.53 581.66 921.73 583.53 921.13 585.47 L 920.81 585.53 C 920.49 586.16 919.85 587.41 919.53 588.03 C 919.57 588.39 919.67 589.11 919.71 589.47 L 918.86 589.45 C 918.32 591.10 917.60 592.68 916.60 594.11 C 916.64 594.45 916.72 595.14 916.76 595.49 L 915.90 595.51 C 915.29 597.12 914.53 598.68 913.57 600.11 C 913.61 600.45 913.70 601.11 913.74 601.45 L 912.89 601.58 C 912.22 603.15 911.48 604.71 910.49 606.12 C 910.49 606.31 910.48 606.70 910.48 606.90 C 908.78 609.60 907.22 612.38 905.47 615.04 C 905.51 615.37 905.58 616.03 905.62 616.36 L 904.64 616.36 C 904.19 617.42 903.74 618.49 903.30 619.56 L 902.29 619.57 C 902.38 620.02 902.55 620.92 902.63 621.37 L 901.64 621.37 C 901.18 622.42 900.72 623.49 900.27 624.56 L 899.81 624.47 C 898.76 626.44 897.56 628.33 896.28 630.16 C 895.56 631.27 894.86 632.39 894.19 633.53 L 893.76 633.43 C 893.28 634.35 892.80 635.28 892.33 636.22 C 891.25 637.62 890.18 639.02 889.15 640.46 L 888.38 640.53 C 888.41 640.96 888.48 641.83 888.51 642.27 L 887.64 642.38 C 887.42 642.73 886.98 643.44 886.75 643.80 C 882.95 648.73 879.05 653.58 875.13 658.41 L 874.86 658.59 C 872.62 661.45 870.02 664.01 867.74 666.83 C 861.44 673.79 854.79 680.46 847.84 686.79 C 845.09 689.00 842.53 691.43 839.93 693.82 C 839.56 694.05 838.80 694.49 838.42 694.72 L 838.46 695.14 C 836.89 696.28 835.37 697.49 833.84 698.68 C 832.11 700.12 830.39 701.56 828.59 702.91 L 828.37 703.17 C 826.92 704.20 825.49 705.28 824.08 706.38 C 823.02 707.12 821.97 707.88 820.91 708.63 C 819.22 709.85 817.60 711.16 816.03 712.53 C 815.79 712.53 815.30 712.54 815.05 712.55 C 813.59 713.70 812.13 714.83 810.64 715.92 L 810.45 716.15 C 807.64 717.73 804.93 719.49 802.23 721.24 C 801.12 721.98 800.02 722.73 798.95 723.52 C 798.62 723.49 797.96 723.42 797.62 723.38 L 797.51 724.11 C 796.29 724.92 795.05 725.70 793.83 726.51 C 793.65 726.49 793.28 726.46 793.09 726.44 C 791.20 727.72 789.29 729.01 787.17 729.85 C 781.16 732.02 775.74 735.49 769.89 738.02 C 726.11 758.22 677.56 768.25 629.35 766.18 C 623.26 765.70 617.14 765.73 611.04 765.42 C 597.31 763.52 583.52 761.73 570.03 758.42 C 550.43 753.87 531.32 747.25 512.97 739.03 C 506.43 736.16 500.32 732.43 493.68 729.80 C 491.64 728.93 489.79 727.70 487.95 726.50 C 487.75 726.49 487.35 726.46 487.15 726.44 C 485.92 725.64 484.68 724.89 483.47 724.09 L 483.37 723.28 C 483.06 723.34 482.45 723.44 482.14 723.50 C 480.92 722.69 479.70 721.93 478.50 721.12 L 478.52 720.80 C 476.86 719.93 475.22 719.03 473.57 718.18 L 473.53 717.77 C 472.37 717.11 471.22 716.42 470.08 715.75 C 468.01 714.28 465.94 712.83 463.91 711.32 C 462.79 710.56 461.68 709.83 460.55 709.11 L 460.40 708.83 C 457.83 706.93 455.29 704.98 452.64 703.19 L 452.47 702.86 C 448.39 699.75 444.45 696.47 440.54 693.15 L 440.37 692.89 C 438.06 691.01 435.90 688.98 433.61 687.10 L 433.53 686.43 L 432.82 686.54 C 432.48 686.20 431.79 685.53 431.45 685.20 L 431.52 684.87 C 426.15 680.48 421.37 675.40 416.73 670.25 C 416.41 670.00 415.76 669.49 415.43 669.23 L 415.49 668.84 C 410.82 664.08 406.65 658.88 402.28 653.85 C 401.24 652.41 400.17 651.00 399.14 649.57 L 398.83 649.50 C 397.85 648.15 396.84 646.83 395.83 645.52 C 393.98 642.99 392.12 640.47 390.29 637.93 C 386.82 632.85 383.14 627.89 380.17 622.50 L 379.70 622.57 C 379.25 621.48 378.80 620.39 378.36 619.31 L 377.93 619.47 L 377.64 618.65 C 377.11 617.13 376.54 615.64 375.81 614.23 C 355.24 579.29 342.23 540.02 337.00 499.86 C 330.93 452.60 336.05 403.98 351.69 358.99 C 353.10 354.38 355.46 350.07 356.34 345.31 L 356.61 343.84 C 357.24 342.52 357.87 341.21 358.55 339.92 C 358.53 339.71 358.48 339.28 358.46 339.07 C 359.53 337.04 360.50 334.96 361.57 332.94 C 361.55 332.70 361.51 332.22 361.49 331.98 C 362.19 331.01 362.89 330.04 363.59 329.08 C 363.50 328.70 363.32 327.93 363.23 327.54 L 364.16 327.50 C 364.78 325.89 365.51 324.31 366.47 322.88 C 366.41 322.57 366.30 321.94 366.24 321.63 L 367.30 321.45 C 367.73 320.14 368.21 318.83 368.66 317.53 L 369.69 317.42 C 369.60 316.97 369.43 316.06 369.35 315.61 L 370.22 315.58 C 370.99 313.96 371.81 312.37 372.64 310.78 C 373.18 309.88 373.73 308.97 374.27 308.07 C 374.55 307.62 375.11 306.71 375.39 306.26 C 375.84 305.32 376.30 304.37 376.75 303.43 L 377.74 303.37 C 377.61 302.93 377.35 302.05 377.22 301.61 L 378.30 301.63 C 378.77 300.56 379.25 299.48 379.72 298.41 L 380.75 298.42 C 380.67 298.07 380.51 297.37 380.43 297.02 C 381.80 295.35 383.14 293.66 384.49 291.99 C 384.47 291.63 384.42 290.93 384.40 290.57 L 385.16 290.43 C 386.64 288.11 388.22 285.85 389.76 283.57 L 390.21 283.51 C 390.68 282.60 391.16 281.69 391.65 280.79 C 392.73 279.41 393.81 278.04 394.85 276.63 L 395.08 276.41 C 397.26 273.39 399.65 270.52 401.85 267.52 L 402.11 267.41 C 403.77 265.28 405.57 263.26 407.29 261.18 C 409.48 258.42 411.97 255.92 414.32 253.30 C 414.54 253.03 414.98 252.49 415.20 252.22 C 419.69 247.41 424.14 242.56 429.08 238.19 C 429.44 237.94 430.17 237.46 430.53 237.22 L 430.38 236.43 L 431.50 236.51 L 431.44 235.41 L 432.55 235.51 L 432.47 234.79 C 432.81 234.45 433.50 233.79 433.85 233.46 L 434.18 233.59 C 436.64 231.18 439.19 228.87 441.90 226.73 C 443.64 225.26 445.33 223.74 447.09 222.29 C 450.25 219.98 453.19 217.39 456.41 215.16 L 456.61 214.89 C 458.05 213.84 459.48 212.75 460.92 211.68 C 463.00 210.26 465.07 208.81 467.12 207.33 C 468.13 206.63 469.15 205.94 470.18 205.25 C 471.28 204.55 472.40 203.86 473.53 203.19 L 473.61 202.38 C 474.06 202.44 474.96 202.57 475.41 202.64 L 475.39 201.38 L 476.60 201.64 L 476.64 200.41 C 477.09 200.47 478.00 200.60 478.45 200.66 L 478.46 199.72 C 479.52 199.25 480.57 198.78 481.63 198.31 L 481.63 197.36 C 482.07 197.45 482.95 197.62 483.39 197.71 L 483.51 196.89 C 484.72 196.16 485.91 195.40 487.11 194.65 C 487.45 194.62 488.14 194.57 488.48 194.54 L 488.61 193.22 C 489.05 193.34 489.92 193.58 490.36 193.70 L 490.41 192.76 C 492.03 191.96 493.65 191.18 495.27 190.37 C 496.19 189.75 497.12 189.12 498.05 188.49 C 498.38 188.55 499.04 188.68 499.37 188.74 L 499.61 187.85 C 501.10 187.08 502.59 186.31 504.06 185.48 C 504.39 185.52 505.05 185.59 505.38 185.62 L 505.51 184.65 C 506.84 184.25 508.15 183.80 509.49 183.40 L 509.62 182.37 C 509.97 182.42 510.67 182.52 511.02 182.57 C 511.99 181.97 512.96 181.37 513.93 180.78 C 515.45 180.25 516.94 179.67 518.48 179.17 L 518.66 178.38 C 519.08 178.43 519.92 178.53 520.35 178.58 L 520.58 177.90 C 522.10 177.36 523.61 176.74 525.13 176.17 C 525.73 175.96 526.93 175.54 527.54 175.34 L 527.47 174.58 C 528.25 174.56 529.82 174.54 530.61 174.53 L 530.51 173.83 C 531.73 173.41 532.96 172.98 534.19 172.53 C 534.51 172.61 535.15 172.78 535.47 172.86 L 535.36 171.62 C 536.06 171.58 537.45 171.51 538.14 171.47 C 539.11 170.96 540.08 170.45 541.06 169.95 C 542.25 169.75 543.45 169.56 544.66 169.39 L 544.28 168.83 C 546.38 168.42 548.44 167.82 550.51 167.28 L 550.54 166.87 C 552.77 166.45 554.94 165.77 557.11 165.11 C 558.60 164.72 560.11 164.44 561.65 164.19 L 561.32 163.51 C 562.16 163.54 563.83 163.59 564.67 163.61 L 564.36 162.62 C 566.13 162.54 567.88 162.45 569.66 162.39 L 569.44 161.55 C 570.83 161.51 572.23 161.48 573.63 161.45 L 573.41 160.76 C 577.40 160.24 581.34 159.27 585.39 159.13 C 591.64 158.58 597.77 157.13 604.02 156.52 C 612.00 155.37 620.10 155.47 628.08 154.38 M 765.32 257.82 L 765.49 258.98 C 765.13 258.82 764.42 258.50 764.06 258.34 C 762.67 259.09 761.29 259.84 759.93 260.62 C 759.60 260.52 758.94 260.34 758.61 260.25 L 758.56 261.60 C 758.18 261.60 757.42 261.61 757.05 261.62 C 755.84 262.37 754.65 263.12 753.45 263.87 L 753.44 264.12 C 749.02 266.75 745.30 270.38 742.08 274.36 L 741.85 274.66 C 740.74 276.12 739.61 277.56 738.48 278.99 C 738.52 279.34 738.60 280.04 738.64 280.38 L 737.66 280.40 C 736.76 282.40 735.89 284.42 735.16 286.50 L 734.45 286.40 C 734.44 287.19 734.42 288.76 734.41 289.54 L 733.62 289.47 C 733.02 291.84 732.50 294.23 732.29 296.67 L 731.62 296.31 C 731.26 302.12 731.26 307.94 731.62 313.76 L 732.35 313.33 C 732.47 315.30 732.65 317.29 733.44 319.14 C 733.43 319.45 733.40 320.09 733.38 320.41 L 734.41 320.42 C 734.42 321.21 734.43 322.79 734.44 323.58 L 735.26 323.51 C 735.68 324.87 736.20 326.21 736.65 327.59 L 737.10 327.56 C 738.33 330.61 740.26 333.30 742.28 335.88 C 744.66 338.85 747.36 341.57 750.40 343.87 L 750.65 344.10 C 751.82 344.96 752.99 345.84 754.17 346.72 C 754.75 346.98 755.91 347.49 756.49 347.75 L 756.62 348.64 C 757.05 348.56 757.92 348.39 758.35 348.31 L 758.64 349.69 C 759.10 349.57 760.02 349.32 760.48 349.20 L 760.42 350.27 C 762.13 350.71 763.83 351.26 765.56 351.71 L 765.35 352.41 C 766.79 352.45 768.23 352.50 769.68 352.55 L 769.40 353.43 C 776.77 353.88 784.17 353.93 791.55 353.44 L 791.33 352.79 C 792.87 352.50 794.45 352.21 795.96 351.70 C 796.61 351.59 797.90 351.35 798.55 351.23 C 798.49 350.52 798.44 349.82 798.40 349.12 C 794.99 346.24 792.15 342.77 789.07 339.57 L 788.87 339.41 C 784.26 333.83 778.68 329.15 774.06 323.59 L 773.80 323.55 C 773.46 323.21 772.78 322.52 772.44 322.18 L 772.53 321.84 C 772.19 321.50 771.51 320.81 771.17 320.46 L 770.40 320.60 L 770.54 319.82 C 770.20 319.48 769.53 318.79 769.19 318.45 L 768.95 318.37 C 767.22 316.22 765.17 314.36 763.43 312.24 C 762.71 308.67 766.69 306.89 768.78 304.70 C 773.89 300.39 778.34 295.35 783.51 291.10 C 787.31 287.95 790.55 284.19 794.42 281.12 L 794.47 280.83 C 794.81 280.49 795.48 279.80 795.82 279.46 L 796.54 279.55 L 796.60 278.89 C 800.57 275.74 803.90 271.87 807.90 268.75 C 809.49 268.13 809.54 266.38 809.84 264.95 C 808.78 264.44 807.73 263.93 806.70 263.41 C 805.79 262.74 804.90 262.06 804.02 261.39 C 803.67 261.46 802.97 261.61 802.62 261.68 L 802.39 260.21 C 801.95 260.34 801.07 260.61 800.63 260.74 L 800.35 259.30 C 799.91 259.41 799.03 259.64 798.58 259.75 L 798.53 258.56 C 797.74 258.56 796.16 258.56 795.37 258.56 L 795.68 257.54 C 794.24 257.49 792.82 257.46 791.41 257.43 L 791.49 256.61 C 784.36 256.16 777.18 255.86 770.08 256.76 C 768.50 257.21 766.91 257.53 765.32 257.82 M 815.20 277.26 C 814.50 277.85 813.81 278.44 813.13 279.04 C 812.44 279.74 811.76 280.44 811.10 281.14 C 808.41 283.54 805.88 286.09 803.27 288.57 L 802.50 288.51 L 802.59 289.63 L 801.87 289.56 C 801.51 289.88 800.79 290.52 800.44 290.84 L 800.40 291.10 C 796.56 294.11 793.40 297.86 789.61 300.92 L 789.54 301.20 C 789.20 301.54 788.53 302.22 788.19 302.55 L 787.47 302.41 L 787.55 303.55 L 786.44 303.40 L 786.37 304.05 C 783.97 306.12 781.78 308.43 779.12 310.18 C 780.44 313.55 783.84 315.40 785.77 318.39 C 791.02 324.07 796.52 329.50 801.87 335.08 C 803.03 336.32 804.17 337.57 805.31 338.84 C 806.09 339.82 806.87 340.80 807.69 341.78 C 808.63 341.70 810.52 341.55 811.47 341.47 L 811.42 340.83 C 813.03 339.68 814.59 338.45 816.15 337.22 C 818.07 335.14 820.00 333.07 821.84 330.92 C 822.50 329.78 823.17 328.64 823.83 327.49 L 824.29 327.49 C 825.20 325.51 826.13 323.55 826.84 321.49 L 827.27 321.62 C 827.58 320.45 827.91 319.29 828.27 318.13 C 830.77 310.84 829.43 302.95 829.41 295.39 L 828.63 295.48 C 828.55 294.86 828.39 293.62 828.31 293.00 C 827.92 291.80 827.57 290.60 827.24 289.40 L 826.81 289.59 C 826.37 287.87 825.66 286.24 824.54 284.86 C 824.59 284.55 824.69 283.92 824.74 283.60 L 823.85 283.55 C 823.19 282.39 822.51 281.25 821.84 280.11 C 820.50 278.57 819.17 277.02 817.91 275.44 C 817.00 276.04 816.09 276.64 815.20 277.26 M 679.45 347.37 L 680.26 348.21 C 679.32 348.73 678.39 349.25 677.46 349.77 L 677.42 350.20 C 676.12 351.04 674.84 351.90 673.55 352.75 L 673.42 353.18 C 672.13 354.03 670.86 354.92 669.58 355.79 L 669.42 356.13 C 665.77 358.82 662.33 361.79 658.86 364.70 C 656.67 366.44 654.61 368.32 652.51 370.16 C 649.33 372.50 646.66 375.42 643.62 377.93 L 643.53 378.22 C 643.19 378.55 642.51 379.23 642.17 379.56 L 641.40 379.45 L 641.38 380.07 C 637.94 382.81 634.99 386.10 631.61 388.91 L 631.41 389.16 C 630.63 389.77 629.86 390.40 629.11 391.03 C 624.37 395.67 619.67 400.35 614.85 404.89 C 614.18 405.55 613.51 406.20 612.85 406.86 C 611.87 407.87 610.88 408.86 609.91 409.88 C 609.54 410.10 608.80 410.53 608.43 410.75 L 608.36 411.08 C 598.03 420.31 588.96 430.91 578.49 439.99 C 578.49 440.51 578.49 441.55 578.49 442.07 C 583.94 446.73 588.71 452.14 593.90 457.10 C 598.11 460.98 602.18 465.03 606.06 469.24 C 606.39 469.31 607.04 469.45 607.37 469.51 C 612.60 463.98 618.35 458.93 623.32 453.16 C 623.89 452.48 624.47 451.80 625.05 451.14 C 631.47 444.86 637.73 438.42 644.11 432.11 C 656.82 419.48 669.29 406.62 681.99 393.98 C 691.71 384.00 701.89 374.46 711.36 364.24 C 711.66 363.98 712.26 363.46 712.56 363.20 L 712.44 362.82 C 712.79 362.48 713.48 361.80 713.83 361.46 L 714.19 361.56 C 714.52 361.22 715.20 360.53 715.54 360.18 L 715.40 359.39 L 716.19 359.57 C 716.53 359.23 717.21 358.54 717.55 358.20 L 717.39 357.42 L 718.58 357.60 L 718.42 356.42 L 719.20 356.56 C 719.54 356.22 720.22 355.53 720.56 355.19 L 720.39 354.40 L 721.61 354.62 L 721.40 353.41 L 722.19 353.56 C 722.53 353.22 723.21 352.53 723.55 352.19 L 723.41 351.42 L 724.62 351.61 L 724.40 350.41 L 725.19 350.56 C 725.53 350.22 726.21 349.52 726.55 349.18 L 726.45 348.83 C 726.80 348.49 727.49 347.80 727.83 347.46 L 728.60 347.60 L 728.41 346.41 L 729.60 346.59 L 729.46 345.83 C 729.80 345.48 730.48 344.80 730.82 344.45 L 731.56 344.59 L 731.43 343.43 L 732.58 343.58 L 732.46 342.82 C 732.80 342.48 733.47 341.81 733.81 341.47 L 734.56 341.57 L 734.41 340.75 C 734.96 340.39 736.06 339.66 736.62 339.29 C 736.49 338.38 736.37 337.48 736.26 336.58 C 735.96 336.58 735.34 336.58 735.04 336.57 C 734.53 336.25 733.51 335.59 733.01 335.26 L 733.60 334.14 C 728.54 331.36 722.88 329.13 717.00 329.89 C 702.91 331.44 690.99 339.81 679.45 347.37 M 736.77 357.17 C 719.06 374.70 701.74 392.61 684.01 410.10 C 676.97 418.63 668.57 425.92 660.94 433.90 C 648.93 446.35 636.45 458.32 624.45 470.78 L 624.48 471.15 C 624.15 471.48 623.49 472.14 623.15 472.47 L 622.44 472.40 L 622.49 473.49 L 621.40 473.45 L 621.47 474.14 C 621.14 474.49 620.48 475.18 620.15 475.53 L 619.80 475.40 C 618.58 476.61 617.37 477.83 616.16 479.05 C 620.68 483.80 625.43 488.31 630.00 493.02 C 631.43 494.47 632.83 496.05 634.75 496.87 C 638.16 492.32 642.57 488.67 646.47 484.56 C 655.08 476.13 663.32 467.33 671.91 458.89 C 681.01 450.31 689.12 440.80 698.12 432.14 C 699.11 431.12 700.12 430.11 701.13 429.10 C 701.79 428.44 702.45 427.79 703.12 427.14 C 705.10 425.09 707.11 423.07 709.18 421.11 C 717.68 411.85 727.06 403.42 735.58 394.18 C 738.47 392.64 740.33 389.89 742.38 387.44 C 747.77 380.69 752.31 372.82 753.24 364.09 C 753.72 357.66 750.56 351.65 746.48 346.90 C 742.66 349.67 739.05 352.99 736.77 357.17 M 750.13 393.94 C 747.46 397.65 744.22 400.89 741.04 404.15 C 734.05 412.50 725.85 419.73 718.71 427.93 C 712.86 434.42 706.49 440.43 700.51 446.80 L 700.59 447.21 C 700.26 447.48 699.60 448.02 699.28 448.29 C 697.61 449.98 695.95 451.66 694.25 453.32 C 689.49 458.84 683.96 463.63 679.15 469.11 C 676.09 472.17 672.89 475.12 670.11 478.45 L 669.92 478.67 C 661.37 487.78 652.43 496.54 643.62 505.40 C 643.58 505.92 643.49 506.96 643.44 507.48 L 644.18 507.40 C 648.01 511.04 651.83 514.70 655.50 518.52 C 655.98 518.52 656.94 518.54 657.43 518.55 C 657.78 518.13 658.49 517.30 658.85 516.89 C 660.70 515.28 662.56 513.66 664.50 512.15 L 664.65 511.91 C 667.22 509.77 669.61 507.42 672.11 505.20 C 672.48 504.97 673.20 504.50 673.57 504.27 L 673.58 503.88 C 683.08 495.54 691.74 486.27 700.59 477.24 L 700.45 476.40 L 701.64 476.61 L 701.40 475.83 C 701.75 475.49 702.44 474.82 702.78 474.49 L 703.08 474.37 C 704.65 472.41 706.33 470.53 707.92 468.58 L 708.65 468.64 L 708.45 467.88 C 710.03 466.21 711.54 464.49 712.93 462.66 L 713.16 462.48 C 714.78 460.29 716.59 458.24 718.36 456.16 C 719.16 454.97 719.99 453.78 720.80 452.59 L 721.26 452.46 C 722.08 451.16 722.94 449.87 723.76 448.58 L 724.13 448.42 C 729.55 440.80 734.59 432.93 739.43 424.94 C 739.42 424.60 739.40 423.91 739.39 423.57 L 740.20 423.46 C 740.52 422.84 741.16 421.61 741.48 420.99 C 741.55 420.78 741.69 420.35 741.76 420.14 C 742.58 418.69 743.31 417.18 743.98 415.65 L 744.43 415.63 C 744.90 414.24 745.37 412.85 745.81 411.46 L 746.79 411.50 C 746.67 411.02 746.43 410.06 746.32 409.57 L 747.28 409.47 C 747.76 407.79 748.33 406.13 748.79 404.45 L 749.49 404.59 C 749.50 403.80 749.53 402.21 749.55 401.42 L 750.14 401.49 C 750.52 400.32 750.94 399.16 751.39 398.02 C 751.45 397.38 751.56 396.11 751.62 395.47 L 752.54 395.60 C 752.53 394.34 752.53 393.08 752.54 391.83 C 751.72 392.53 750.92 393.23 750.13 393.94 M 570.14 449.30 C 568.92 451.02 567.59 452.66 566.29 454.32 C 564.59 456.25 562.90 458.18 561.28 460.18 C 559.31 462.55 557.19 464.79 555.26 467.19 C 550.54 472.82 545.69 478.33 541.03 484.00 C 539.91 485.20 540.51 486.98 540.36 488.45 C 542.11 488.46 543.86 488.48 545.61 488.49 L 545.32 487.53 C 547.08 487.47 548.83 487.40 550.60 487.35 L 550.37 486.52 C 551.78 486.48 553.20 486.45 554.63 486.42 L 554.32 485.62 C 556.10 485.54 557.89 485.47 559.68 485.40 L 559.31 484.68 C 562.44 484.38 565.50 483.63 568.63 483.27 L 568.25 482.60 C 570.02 482.54 571.81 482.47 573.60 482.42 L 573.33 481.72 C 576.42 481.39 579.45 480.65 582.54 480.26 L 582.38 479.57 C 584.08 479.51 585.80 479.47 587.53 479.43 L 587.42 478.53 C 589.12 478.49 590.83 478.45 592.55 478.43 L 592.39 477.53 C 594.21 477.45 596.03 477.35 597.87 477.28 C 597.61 475.94 597.83 474.32 596.50 473.49 C 588.79 465.86 581.13 458.19 573.49 450.50 C 572.75 449.29 571.33 449.44 570.14 449.30 M 607.05 488.97 C 604.62 491.61 601.99 494.05 599.75 496.84 C 596.95 499.83 594.17 502.88 590.89 505.35 C 590.53 506.74 590.31 508.17 590.20 509.62 C 594.78 510.00 599.25 508.88 603.77 508.36 L 603.34 507.69 C 605.79 507.59 608.24 507.45 610.71 507.37 L 610.33 506.74 C 612.21 506.54 614.10 506.33 615.97 505.96 C 619.30 505.53 622.58 504.81 625.89 504.24 C 625.68 503.53 625.48 502.83 625.29 502.13 C 620.12 497.50 615.47 492.32 610.46 487.55 C 609.06 486.86 607.89 488.03 607.05 488.97 M 623.45 514.74 L 623.66 515.38 C 621.88 515.38 620.12 515.41 618.35 515.43 C 618.39 515.64 618.48 516.06 618.53 516.26 C 615.08 516.35 611.66 516.76 608.30 517.49 L 608.40 518.26 C 605.69 518.34 602.99 518.49 600.29 518.61 L 600.63 519.43 C 598.55 519.49 596.46 519.58 594.38 519.63 L 594.53 520.42 C 592.82 520.46 591.10 520.52 589.40 520.57 L 589.71 521.39 C 587.94 521.43 586.20 521.52 584.46 521.59 L 584.73 522.70 L 583.45 522.37 L 583.63 523.67 L 582.91 523.50 C 580.58 526.58 577.74 529.23 575.11 532.05 C 574.10 533.18 573.10 534.32 572.11 535.48 L 571.89 535.57 C 568.51 539.72 564.43 543.23 561.07 547.39 L 560.79 547.48 C 560.45 547.82 559.77 548.49 559.44 548.83 L 559.63 549.63 L 558.39 549.38 L 558.61 550.63 L 557.90 550.46 C 554.47 555.11 549.85 558.71 546.28 563.25 C 546.04 563.51 545.55 564.04 545.30 564.31 C 542.38 567.49 539.44 570.66 536.42 573.76 L 536.53 574.57 L 535.77 574.43 C 535.43 574.77 534.76 575.46 534.42 575.80 L 534.55 576.18 C 534.25 576.45 533.65 576.97 533.35 577.23 C 529.35 581.90 524.66 585.94 520.91 590.83 C 520.63 591.09 520.06 591.62 519.78 591.88 C 516.12 596.13 511.94 599.89 508.26 604.13 C 507.49 605.05 506.69 605.96 505.90 606.88 C 503.07 609.85 500.24 612.83 497.44 615.83 L 497.62 616.58 L 496.45 616.41 L 496.50 617.17 C 496.17 617.51 495.52 618.19 495.20 618.54 L 494.45 618.43 L 494.58 619.55 L 493.88 619.58 C 492.50 621.21 491.03 622.80 490.09 624.75 C 500.43 633.34 509.02 643.87 519.13 652.75 C 519.39 653.04 519.91 653.63 520.17 653.92 C 520.94 654.57 521.72 655.21 522.50 655.86 L 522.41 656.21 C 522.76 656.56 523.45 657.24 523.80 657.58 L 524.59 657.41 L 524.37 658.62 L 525.59 658.42 L 525.37 659.63 L 526.63 659.46 L 526.40 660.28 C 526.78 660.55 527.53 661.09 527.91 661.36 L 529.56 661.38 L 529.41 660.15 L 530.59 660.64 C 530.53 658.56 530.45 656.49 530.39 654.44 L 529.76 654.62 C 529.23 651.87 528.55 649.15 528.27 646.37 L 527.74 646.62 C 527.37 643.54 526.56 640.54 526.23 637.47 L 525.79 637.62 C 525.50 636.12 525.24 634.66 524.84 633.20 C 523.75 629.03 522.96 624.77 523.23 620.44 L 524.58 620.51 L 524.59 619.22 C 525.03 619.34 525.92 619.57 526.36 619.68 L 526.62 618.23 C 527.07 618.36 527.97 618.61 528.41 618.74 L 528.38 617.77 C 530.13 616.94 531.86 616.08 533.61 615.25 L 533.66 614.96 C 535.23 614.16 536.77 613.31 538.31 612.46 C 540.68 610.97 543.08 609.52 545.56 608.21 L 545.56 607.37 C 545.90 607.38 546.56 607.40 546.89 607.41 C 548.06 606.62 549.28 605.89 550.45 605.09 L 550.51 604.85 C 551.64 604.17 552.76 603.48 553.90 602.80 C 556.76 600.96 559.57 599.03 562.46 597.21 L 562.54 596.86 C 565.86 594.87 568.95 592.52 572.12 590.31 C 573.70 589.07 575.32 587.90 576.93 586.69 C 578.25 585.70 579.58 584.70 580.92 583.72 C 583.84 581.60 586.62 579.31 589.50 577.16 L 589.60 576.86 C 591.24 575.64 592.85 574.38 594.50 573.19 L 594.60 572.88 C 596.22 571.64 597.80 570.36 599.44 569.13 L 599.62 568.87 C 601.73 567.20 603.75 565.42 605.84 563.73 C 607.68 562.18 609.50 560.60 611.41 559.13 L 611.38 558.46 L 612.17 558.56 C 614.16 556.64 616.23 554.80 618.42 553.10 L 618.53 552.84 C 621.22 550.80 623.61 548.42 626.12 546.17 C 626.49 545.95 627.24 545.51 627.62 545.29 L 627.63 544.91 C 630.81 542.32 633.83 539.54 636.93 536.86 C 640.92 533.49 644.77 529.97 648.94 526.82 C 645.58 521.60 640.33 517.89 636.24 513.25 C 631.92 513.19 627.70 514.11 623.45 514.74 M 480.06 633.01 C 470.47 642.46 461.07 652.11 451.44 661.51 C 451.38 662.55 451.33 663.59 451.29 664.64 L 452.55 664.28 L 452.38 665.42 C 465.81 665.38 479.25 665.36 492.68 665.43 L 492.28 664.64 C 498.52 665.01 504.86 664.02 511.03 665.24 C 511.90 665.01 513.65 664.56 514.52 664.33 C 514.14 663.99 513.38 663.30 513.00 662.96 C 506.46 656.74 500.50 649.91 493.61 644.08 L 493.59 643.80 C 493.25 643.45 492.56 642.75 492.21 642.40 L 491.40 642.60 L 491.59 641.79 C 491.24 641.44 490.55 640.74 490.20 640.39 L 489.39 640.61 L 489.66 639.36 L 488.41 639.59 L 488.62 638.35 L 487.38 638.59 L 487.64 637.34 L 486.85 637.54 C 486.50 637.19 485.81 636.49 485.46 636.14 L 485.62 635.36 L 484.39 635.60 L 484.62 634.38 L 484.03 634.34 C 483.17 633.15 481.45 631.55 480.06 633.01 Z" />
<path fill="#f26b3a" opacity="1.00" d=" M 812.33 296.90 C 813.73 294.40 818.51 294.58 819.52 297.45 C 822.13 303.05 822.42 309.76 820.66 315.65 C 819.28 318.76 817.01 323.29 812.93 322.57 C 811.91 321.82 810.93 321.04 809.99 320.22 C 812.14 316.80 814.98 313.33 814.47 309.00 C 815.02 304.77 812.99 300.94 812.33 296.90 Z" />
<path fill="#f26b3a" opacity="1.00" d=" M 476.42 844.92 C 484.04 843.56 491.77 844.48 499.43 844.56 C 500.24 844.55 501.86 844.54 502.67 844.53 L 502.30 845.19 C 505.10 845.46 507.83 846.17 510.59 846.74 L 510.34 847.45 C 511.15 847.47 512.78 847.51 513.60 847.53 L 513.54 848.76 C 513.99 848.66 514.91 848.44 515.36 848.33 L 515.52 849.19 C 516.10 849.51 517.27 850.15 517.86 850.47 L 518.05 850.58 C 518.43 850.92 519.18 851.59 519.56 851.92 L 519.46 852.12 C 519.79 852.51 520.44 853.29 520.77 853.68 L 521.47 853.48 C 521.50 855.86 521.49 858.24 521.47 860.63 L 520.26 860.52 C 520.32 860.87 520.44 861.57 520.50 861.92 C 520.12 862.53 519.34 863.75 518.95 864.36 C 518.59 864.36 517.87 864.35 517.51 864.35 L 517.53 865.62 C 515.47 865.67 513.41 865.65 511.37 865.59 L 511.58 864.55 C 510.80 864.53 509.23 864.48 508.44 864.45 L 508.47 863.61 C 507.14 863.19 505.82 862.76 504.50 862.37 L 504.58 861.50 C 503.78 861.48 502.19 861.45 501.39 861.43 L 501.47 860.51 C 500.72 860.49 499.22 860.45 498.46 860.43 L 498.53 859.70 C 491.17 859.05 483.77 859.01 476.42 859.66 L 476.45 860.20 C 474.77 860.64 473.11 861.18 471.44 861.65 L 471.50 862.17 C 470.09 862.84 468.67 863.50 467.25 864.15 C 466.99 864.41 466.48 864.94 466.22 865.20 C 464.27 867.44 462.60 869.96 461.68 872.81 C 461.00 877.04 461.44 881.34 461.59 885.60 L 462.80 885.59 C 462.71 885.92 462.53 886.59 462.45 886.93 C 462.79 887.53 463.48 888.74 463.82 889.35 L 464.14 889.54 C 465.24 891.28 466.68 892.76 468.35 893.97 L 468.54 894.28 C 469.84 895.12 471.12 896.00 472.44 896.84 L 472.65 897.70 C 473.08 897.60 473.94 897.40 474.37 897.30 L 474.41 898.39 C 475.75 898.90 477.11 899.37 478.48 899.86 L 478.53 900.69 C 478.85 900.68 479.51 900.66 479.84 900.64 C 481.02 901.05 482.22 901.45 483.42 901.84 L 483.42 902.35 C 485.00 902.74 486.57 903.22 488.16 903.64 C 489.44 904.30 490.79 904.87 492.07 905.57 C 492.29 905.58 492.72 905.58 492.93 905.59 C 494.75 906.42 496.61 907.19 498.54 907.77 L 498.49 908.18 C 506.26 910.71 513.03 915.84 517.88 922.39 L 518.24 922.46 C 518.72 923.50 519.21 924.55 519.71 925.61 L 520.62 925.61 C 520.55 926.07 520.40 927.00 520.32 927.46 L 521.77 927.62 C 521.71 927.92 521.59 928.51 521.54 928.81 C 521.98 930.01 522.46 931.21 522.97 932.40 L 523.55 932.46 C 523.55 933.20 523.54 934.70 523.53 935.44 L 524.43 935.43 C 524.57 938.81 524.81 942.19 524.88 945.59 L 525.65 945.17 C 525.49 947.66 525.47 950.17 525.53 952.69 L 524.79 952.69 C 524.68 955.63 524.50 958.57 524.38 961.53 L 523.47 961.42 C 523.47 962.21 523.47 963.80 523.47 964.60 L 522.88 964.46 C 522.35 966.30 521.57 968.07 520.73 969.80 C 520.27 970.59 519.81 971.40 519.35 972.21 C 518.29 973.62 517.20 975.02 516.15 976.46 L 515.40 976.38 L 515.57 977.55 L 514.40 977.39 L 514.46 978.14 C 512.28 979.94 509.98 981.58 507.50 982.93 L 507.39 983.80 C 506.95 983.67 506.08 983.40 505.65 983.26 L 505.48 984.65 C 504.99 984.59 504.03 984.48 503.54 984.43 L 503.47 985.72 C 503.13 985.67 502.46 985.59 502.13 985.55 C 500.93 986.01 499.73 986.47 498.52 986.93 L 498.62 987.40 C 497.25 987.45 495.89 987.51 494.53 987.58 L 494.52 988.43 C 486.11 988.80 477.69 988.75 469.29 988.39 L 469.63 987.53 C 468.21 987.49 466.79 987.46 465.38 987.45 L 465.56 986.49 C 464.75 986.53 463.14 986.60 462.34 986.63 L 462.77 985.58 C 461.92 985.55 460.24 985.50 459.39 985.48 L 459.50 984.35 C 459.01 984.45 458.04 984.63 457.55 984.73 L 457.44 983.85 C 456.06 983.40 454.73 982.86 453.37 982.39 L 453.41 981.33 C 452.96 981.42 452.05 981.59 451.59 981.68 L 451.47 980.84 C 447.82 978.70 444.44 976.04 442.05 972.52 L 441.64 972.52 C 440.14 968.93 440.14 965.05 441.72 961.49 L 442.18 961.45 C 443.03 960.39 443.89 959.34 444.77 958.32 C 446.62 958.28 448.47 958.30 450.32 958.40 C 453.34 961.22 456.10 964.34 459.34 966.94 L 459.46 967.24 C 461.67 968.67 463.97 970.00 466.45 970.93 L 466.46 971.54 C 467.21 971.56 468.71 971.59 469.46 971.60 L 469.48 972.45 C 470.28 972.47 471.88 972.51 472.68 972.53 L 472.37 973.43 C 478.43 973.61 484.50 973.70 490.56 973.42 L 490.36 972.47 C 491.17 972.45 492.77 972.41 493.58 972.39 L 493.61 971.22 C 494.05 971.39 494.93 971.71 495.37 971.88 L 495.55 970.41 C 495.92 970.46 496.66 970.55 497.03 970.60 C 501.34 967.97 505.04 964.32 506.82 959.51 L 507.43 959.61 C 507.53 957.88 507.63 956.16 507.73 954.46 L 508.58 954.70 C 508.81 949.85 508.46 945.02 507.24 940.32 L 506.29 940.43 C 506.37 940.07 506.54 939.35 506.63 938.99 C 505.27 936.83 503.85 934.72 502.30 932.72 C 502.03 932.40 501.49 931.75 501.23 931.43 L 500.43 931.58 L 500.57 930.38 L 499.38 930.62 L 499.47 929.80 C 498.15 928.93 496.86 928.06 495.55 927.21 L 495.49 926.87 C 494.28 926.12 493.08 925.37 491.91 924.62 C 491.55 924.62 490.85 924.62 490.49 924.63 L 490.43 923.80 C 488.65 923.14 486.89 922.47 485.14 921.76 C 483.73 921.28 482.33 920.76 480.94 920.29 C 479.65 919.76 478.39 919.23 477.14 918.69 C 475.04 917.88 472.96 917.06 470.85 916.33 C 468.85 915.42 466.84 914.52 464.92 913.48 C 464.60 913.53 463.96 913.63 463.64 913.69 L 463.49 912.85 C 458.18 910.41 453.96 906.27 450.17 901.91 C 449.48 900.74 448.80 899.58 448.13 898.41 L 447.26 898.42 C 447.33 898.10 447.46 897.44 447.53 897.12 C 442.43 888.81 444.62 878.69 444.58 869.49 L 445.21 869.58 C 445.63 868.30 446.05 867.03 446.46 865.76 C 446.38 865.47 446.21 864.88 446.13 864.58 L 447.38 864.61 C 447.43 863.83 447.52 862.26 447.56 861.48 L 448.25 861.72 C 448.89 860.47 449.55 859.25 450.20 858.03 C 451.47 856.64 452.72 855.21 454.29 854.16 C 460.82 849.41 468.41 846.12 476.42 844.92 Z" />
<path fill="#f26b3a" opacity="1.00" d=" M 577.12 844.42 C 577.45 844.52 578.12 844.70 578.45 844.80 L 578.39 843.61 C 606.10 843.65 633.82 843.66 661.53 843.60 L 661.56 844.70 C 661.89 844.65 662.55 844.54 662.88 844.49 C 663.67 845.38 664.49 846.26 665.32 847.14 C 665.98 851.12 666.02 855.48 663.10 858.62 C 662.70 858.52 661.90 858.32 661.51 858.23 L 661.62 859.41 C 650.61 859.43 639.60 859.27 628.60 859.49 C 628.51 901.08 628.82 942.68 628.44 984.26 C 626.90 985.29 625.32 986.26 623.62 987.02 L 623.54 987.51 C 620.46 987.64 617.41 987.28 614.49 986.32 L 614.47 985.85 C 612.82 985.44 612.45 983.87 612.07 982.47 L 611.62 982.57 C 611.99 976.22 611.07 969.78 612.49 963.52 L 611.65 963.52 C 611.93 960.20 610.97 956.55 612.72 953.53 L 611.66 953.60 C 611.67 951.88 611.67 950.16 611.65 948.46 L 612.62 948.44 C 611.07 945.28 611.88 941.67 611.65 938.30 L 612.35 938.67 C 612.26 935.56 612.26 932.45 612.35 929.35 L 611.66 929.70 C 611.70 927.21 611.70 924.73 611.66 922.26 L 612.34 922.71 C 612.33 921.64 612.33 919.49 612.33 918.42 L 611.49 918.54 C 611.77 916.35 612.12 914.18 612.30 911.99 C 611.29 906.75 611.46 901.26 612.17 896.00 C 611.13 889.48 612.01 882.85 611.64 876.28 L 612.57 876.65 C 612.31 875.09 612.04 873.55 611.78 872.02 C 612.47 868.87 612.29 865.64 612.35 862.45 L 611.60 862.58 C 611.63 861.78 611.69 860.18 611.71 859.38 C 604.14 859.39 596.57 859.38 589.00 859.39 C 584.90 859.35 580.69 859.83 576.77 858.34 C 573.68 855.39 574.18 851.00 574.60 847.15 C 575.44 846.24 576.28 845.33 577.12 844.42 Z" />
<path fill="#f26b3a" opacity="1.00" d=" M 155.50 846.82 C 157.39 845.35 159.37 843.84 161.94 844.26 C 178.52 844.43 195.12 843.88 211.69 844.61 L 211.35 845.45 C 212.17 845.46 213.79 845.47 214.61 845.48 L 214.43 846.47 C 215.21 846.46 216.78 846.46 217.57 846.45 L 217.54 847.08 C 219.58 847.86 221.55 848.78 223.54 849.68 L 223.63 850.59 C 224.07 850.55 224.95 850.46 225.39 850.41 L 225.55 851.14 C 227.14 852.30 228.66 853.54 230.19 854.79 C 231.04 855.77 231.95 856.71 232.72 857.78 C 240.16 869.98 241.64 884.96 239.31 898.85 C 238.21 906.70 234.97 914.55 229.02 919.96 C 221.29 926.59 211.11 930.14 200.97 930.26 C 191.13 930.39 181.28 930.05 171.45 930.44 C 171.21 947.30 171.48 964.17 171.33 981.04 C 171.85 985.13 167.30 986.88 163.94 986.73 C 159.73 987.07 156.53 983.93 153.10 982.03 C 153.62 937.09 153.09 892.12 153.36 847.17 C 153.87 847.34 154.89 847.69 155.40 847.87 L 155.50 846.82 M 172.33 859.39 C 172.27 878.46 172.34 897.53 172.29 916.61 C 183.73 916.54 195.18 916.85 206.62 916.41 L 206.37 915.79 C 207.95 915.34 209.52 914.86 211.09 914.38 C 214.20 912.47 217.16 910.26 219.35 907.30 C 220.12 905.84 220.90 904.40 221.69 902.96 C 222.06 901.93 222.44 900.92 222.82 899.92 C 223.60 897.86 223.63 895.63 223.73 893.48 L 224.38 893.40 C 224.31 889.77 224.31 886.14 224.37 882.52 L 223.65 882.56 C 223.60 880.51 223.52 878.47 223.45 876.44 L 222.75 876.61 C 222.23 874.72 221.59 872.88 220.84 871.09 C 218.57 866.94 214.98 863.84 211.00 861.39 C 210.78 861.40 210.35 861.42 210.13 861.43 C 208.97 860.94 207.81 860.49 206.64 860.06 L 206.54 859.63 C 195.15 859.13 183.73 859.50 172.33 859.39 Z" />
<path fill="#f26b3a" opacity="1.00" d=" M 311.51 853.45 C 325.56 843.73 344.57 842.02 360.23 848.71 C 364.40 850.50 368.14 853.12 372.14 855.24 L 372.53 855.46 L 372.77 855.86 C 377.79 863.31 381.52 871.83 381.57 880.96 C 381.67 903.99 381.57 927.01 381.62 950.04 C 381.44 960.71 378.07 972.48 369.00 978.97 C 355.42 988.53 337.02 990.51 321.60 984.47 C 314.92 981.78 308.13 977.99 304.49 971.51 C 297.98 960.57 298.39 947.35 298.49 935.07 C 298.51 918.72 298.46 902.36 298.50 886.02 C 298.83 874.24 301.30 860.76 311.51 853.45 M 334.88 859.00 C 330.12 859.77 324.89 861.19 321.93 865.31 C 321.31 865.82 320.71 866.36 320.13 866.93 C 319.47 868.13 318.80 869.34 318.14 870.56 L 317.60 870.51 C 317.16 872.16 316.64 873.80 316.23 875.48 L 315.63 875.39 C 315.07 881.29 316.42 887.28 313.88 892.91 L 315.17 892.22 L 315.17 894.80 L 314.23 893.92 C 314.58 896.62 314.58 899.36 314.22 902.08 L 315.17 901.21 C 315.42 904.72 314.82 908.20 314.50 911.70 C 314.56 914.50 314.51 917.31 314.21 920.12 L 315.16 919.18 C 315.16 924.25 315.12 929.33 315.19 934.41 L 314.43 934.11 C 314.54 937.72 314.56 941.33 314.33 944.95 L 315.15 944.33 C 315.23 949.58 314.94 955.01 316.95 959.99 C 318.77 964.40 322.34 967.63 325.91 970.65 C 326.30 970.57 327.09 970.43 327.49 970.36 L 327.46 971.38 C 330.41 972.18 333.43 972.70 336.49 972.85 L 336.27 973.57 C 339.43 973.48 342.60 973.48 345.76 973.58 L 345.24 972.83 C 348.06 972.75 350.82 972.12 353.13 970.45 C 353.45 970.52 354.09 970.68 354.41 970.76 L 354.46 969.93 C 356.59 968.54 358.47 966.83 360.30 965.09 C 360.39 964.87 360.56 964.43 360.65 964.20 C 365.87 958.65 366.74 950.35 366.33 943.06 C 366.26 925.06 366.24 907.05 366.33 889.04 C 367.08 880.80 364.89 872.02 359.21 865.84 C 353.01 859.46 343.43 857.46 334.88 859.00 Z" />
<path fill="#f26b3a" opacity="1.00" d=" M 724.51 845.63 L 724.43 844.48 C 728.49 844.22 732.74 843.82 736.59 845.50 L 736.68 846.01 C 738.41 847.40 739.98 848.99 741.37 850.74 C 741.84 851.71 742.31 852.68 742.78 853.67 L 743.85 853.59 C 743.68 854.02 743.35 854.89 743.19 855.32 L 744.60 855.65 C 744.53 856.10 744.39 856.98 744.32 857.43 L 745.68 857.61 C 745.57 858.07 745.34 858.99 745.23 859.44 L 746.62 859.52 C 746.57 859.99 746.49 860.93 746.44 861.40 L 747.67 861.57 C 747.61 862.03 747.49 862.95 747.42 863.41 L 748.73 863.54 C 748.64 864.02 748.46 864.96 748.37 865.43 L 749.75 865.52 C 749.66 865.98 749.48 866.90 749.38 867.36 L 750.29 867.41 C 750.73 868.36 751.18 869.32 751.64 870.29 C 751.92 870.72 752.48 871.60 752.76 872.04 C 752.98 872.67 753.43 873.91 753.66 874.53 L 754.17 874.56 C 754.63 875.91 755.18 877.24 755.68 878.61 L 756.77 878.60 C 756.64 879.04 756.40 879.92 756.27 880.36 L 757.69 880.61 C 757.60 881.05 757.42 881.93 757.33 882.37 L 758.75 882.65 C 758.62 883.08 758.35 883.95 758.22 884.39 L 759.69 884.58 C 759.60 885.04 759.43 885.95 759.35 886.40 L 760.34 886.45 C 760.82 887.76 761.35 889.08 761.83 890.42 L 762.24 890.42 C 762.90 891.86 763.59 893.29 764.30 894.73 C 764.77 895.65 765.25 896.59 765.74 897.54 L 766.53 897.64 C 766.49 898.00 766.42 898.72 766.39 899.08 C 767.40 900.75 768.38 902.43 769.43 904.10 C 769.40 904.44 769.36 905.12 769.34 905.46 L 770.67 905.62 C 770.64 905.95 770.58 906.61 770.55 906.93 C 770.86 907.54 771.50 908.76 771.81 909.37 L 772.57 909.49 C 772.53 910.04 772.45 911.13 772.41 911.67 C 773.38 911.58 774.35 911.49 775.34 911.42 C 775.41 910.69 775.54 909.23 775.61 908.51 L 776.56 908.56 L 776.52 907.82 C 777.77 905.48 779.00 903.13 780.40 900.87 C 780.38 900.55 780.32 899.90 780.29 899.57 L 781.17 899.42 C 781.85 897.86 782.58 896.33 783.51 894.92 C 783.51 894.71 783.50 894.28 783.49 894.06 C 784.94 891.88 786.23 889.60 787.34 887.23 C 787.77 886.40 788.21 885.58 788.66 884.78 C 788.94 884.22 789.48 883.11 789.76 882.55 L 790.53 882.39 C 790.49 881.92 790.41 880.99 790.37 880.53 L 791.64 880.39 C 791.54 879.93 791.34 879.02 791.24 878.56 L 792.62 878.40 C 792.55 877.94 792.41 877.03 792.34 876.58 L 793.71 876.39 C 793.62 875.95 793.43 875.06 793.34 874.62 L 794.76 874.40 C 794.65 873.96 794.41 873.07 794.30 872.63 L 795.78 872.40 C 795.66 871.96 795.42 871.08 795.31 870.63 L 796.21 870.51 C 796.49 869.93 797.06 868.78 797.35 868.21 C 798.58 865.68 799.91 863.21 801.51 860.89 C 801.46 860.57 801.35 859.91 801.30 859.59 L 802.70 859.39 C 802.59 858.95 802.38 858.07 802.27 857.63 L 803.67 857.40 C 803.58 856.95 803.39 856.05 803.30 855.60 L 804.66 855.38 C 804.57 854.93 804.41 854.02 804.32 853.56 L 805.30 853.63 C 805.76 852.56 806.23 851.50 806.72 850.45 L 807.10 850.45 C 808.58 848.62 810.20 846.92 811.91 845.31 C 812.27 845.40 813.01 845.58 813.38 845.67 L 813.39 844.47 C 816.55 844.39 819.80 843.87 822.91 844.72 C 824.16 845.70 825.02 847.07 825.93 848.37 L 826.40 848.53 C 826.35 892.73 826.40 936.93 826.37 981.14 C 826.57 983.15 825.13 984.76 823.66 985.92 L 823.47 986.48 C 819.78 986.80 816.08 986.80 812.40 986.49 L 812.53 985.32 C 812.16 985.34 811.41 985.39 811.03 985.41 C 810.64 984.82 809.85 983.63 809.45 983.03 C 809.40 949.48 809.24 915.92 809.54 882.37 C 808.98 882.31 807.85 882.19 807.29 882.13 L 807.57 883.45 L 806.40 883.69 C 806.48 884.12 806.63 884.97 806.71 885.40 L 805.46 885.62 C 805.52 886.10 805.65 887.05 805.72 887.53 L 804.44 887.55 C 804.47 887.92 804.53 888.66 804.56 889.03 C 804.21 889.64 803.50 890.86 803.15 891.48 L 802.24 891.64 C 802.38 892.07 802.65 892.92 802.79 893.35 L 801.29 893.60 C 801.38 894.05 801.57 894.94 801.67 895.38 L 800.36 895.54 C 800.41 896.01 800.52 896.93 800.58 897.40 L 799.67 897.43 C 799.43 898.02 798.97 899.20 798.73 899.79 C 798.24 900.62 797.76 901.46 797.29 902.31 C 797.03 902.86 796.52 903.96 796.27 904.51 L 795.41 904.61 C 795.50 905.08 795.67 906.03 795.76 906.50 L 794.45 906.56 C 794.49 907.05 794.58 908.03 794.62 908.52 L 793.30 908.59 C 793.39 909.03 793.56 909.91 793.64 910.35 L 792.22 910.67 C 792.36 911.09 792.65 911.95 792.79 912.38 L 791.35 912.48 C 791.41 912.96 791.52 913.93 791.57 914.41 L 790.40 914.37 L 790.65 915.58 L 789.95 915.68 C 789.43 916.90 788.87 918.13 788.33 919.36 C 788.04 919.88 787.46 920.93 787.17 921.45 L 786.27 921.64 C 786.40 922.09 786.65 922.99 786.78 923.43 L 785.38 923.57 C 785.43 923.94 785.52 924.70 785.57 925.07 C 784.82 926.01 784.08 926.96 783.35 927.92 C 783.42 928.29 783.57 929.03 783.64 929.40 L 782.74 929.39 C 782.26 930.36 781.80 931.34 781.34 932.33 C 780.59 933.69 779.88 935.08 779.19 936.49 L 778.31 936.49 L 778.63 937.76 L 777.31 937.24 L 777.59 938.52 C 775.22 938.65 772.86 938.70 770.50 938.63 C 768.35 936.53 766.87 933.90 765.56 931.23 C 765.08 929.99 764.61 928.76 764.16 927.54 L 763.62 927.63 C 763.18 926.53 762.75 925.44 762.33 924.36 L 761.33 924.43 C 761.44 923.96 761.67 923.03 761.78 922.56 L 760.80 922.45 C 760.34 921.08 759.81 919.76 759.35 918.42 L 758.33 918.44 C 758.41 917.98 758.56 917.06 758.64 916.60 L 757.28 916.40 C 757.38 915.95 757.57 915.05 757.67 914.61 L 756.27 914.38 C 756.37 913.94 756.59 913.07 756.70 912.63 L 755.23 912.40 C 755.35 911.95 755.60 911.07 755.73 910.62 L 754.82 910.54 C 754.53 909.97 753.96 908.83 753.67 908.27 C 752.50 906.00 751.35 903.73 750.28 901.44 L 749.49 901.38 C 749.51 900.90 749.56 899.93 749.58 899.45 L 748.23 899.38 C 748.38 898.94 748.68 898.06 748.82 897.62 L 747.36 897.38 C 747.45 896.94 747.62 896.05 747.70 895.60 L 746.37 895.40 C 746.46 894.94 746.65 894.01 746.74 893.54 L 745.39 893.44 C 745.45 892.97 745.56 892.02 745.62 891.55 L 744.78 891.42 C 744.45 890.81 743.78 889.58 743.44 888.97 C 743.50 888.63 743.63 887.95 743.69 887.62 L 742.25 887.42 C 742.32 887.07 742.47 886.36 742.54 886.01 C 741.87 885.10 741.22 884.19 740.58 883.29 C 739.90 881.85 739.25 880.38 738.62 878.95 C 738.05 913.50 738.43 948.08 738.42 982.64 L 737.95 982.52 C 737.56 983.91 737.10 985.36 735.59 985.91 L 735.35 986.80 C 734.91 986.66 734.03 986.38 733.59 986.24 L 733.61 987.45 C 730.91 987.48 728.21 987.47 725.52 987.42 L 725.38 986.88 C 724.06 986.01 722.83 985.01 721.53 984.16 C 721.26 940.11 721.52 896.05 721.39 852.00 C 721.18 849.73 722.03 847.64 722.87 845.60 C 723.28 845.61 724.10 845.62 724.51 845.63 Z" />
<path fill="#f26b3a" opacity="1.00" d=" M 926.63 845.71 L 926.46 844.60 C 931.16 844.31 936.09 843.67 940.58 845.55 L 940.40 846.26 C 940.76 846.59 941.50 847.26 941.86 847.60 L 942.28 847.50 C 942.73 849.17 943.29 850.82 943.75 852.51 L 944.11 852.46 C 944.35 854.00 944.69 855.59 945.38 857.03 C 945.44 857.70 945.56 859.02 945.61 859.69 L 946.55 859.39 C 946.52 860.19 946.46 861.78 946.44 862.58 L 947.14 862.38 C 947.63 864.82 948.38 867.20 948.86 869.66 L 949.34 869.44 C 949.81 871.51 950.34 873.57 950.75 875.67 L 951.26 875.33 C 951.66 877.41 952.19 879.49 952.65 881.58 L 953.13 881.48 C 953.40 882.98 953.72 884.53 954.31 885.97 C 954.44 886.47 954.70 887.49 954.83 888.00 C 955.15 889.13 955.47 890.29 955.79 891.46 L 956.41 891.39 C 956.46 892.77 956.53 894.17 956.62 895.58 L 957.40 895.41 C 957.88 897.62 958.39 899.87 959.35 901.95 C 959.42 902.49 959.58 903.55 959.66 904.09 C 960.15 905.34 960.65 906.63 961.15 907.92 C 961.72 910.12 962.42 912.28 962.89 914.51 L 963.32 914.48 C 963.79 916.52 964.32 918.54 964.73 920.62 L 965.22 920.48 C 965.89 923.68 966.93 926.80 967.86 929.95 C 968.37 931.29 968.85 932.63 969.39 933.99 C 969.42 934.64 969.49 935.94 969.52 936.60 L 970.18 936.30 C 970.54 938.59 971.24 940.81 971.99 943.02 C 972.25 944.19 972.50 945.37 972.74 946.57 L 973.47 946.36 C 973.52 947.02 973.60 948.35 973.65 949.01 C 974.06 950.16 974.46 951.34 974.84 952.53 L 975.14 952.37 C 975.63 954.82 976.37 957.22 976.83 959.70 L 977.55 959.39 C 977.54 960.18 977.50 961.77 977.49 962.57 L 978.48 962.33 C 978.47 963.15 978.46 964.78 978.45 965.59 L 979.47 965.49 C 979.50 966.81 979.55 968.15 979.61 969.50 L 980.19 969.47 C 980.55 970.64 980.95 971.81 981.39 972.98 C 981.44 973.63 981.52 974.95 981.57 975.60 L 982.46 975.39 C 982.71 978.30 982.82 981.24 982.52 984.17 C 981.48 984.70 980.44 985.24 979.42 985.78 L 979.41 986.78 C 978.95 986.66 978.03 986.41 977.57 986.28 L 977.61 987.42 C 974.96 987.45 972.30 987.64 969.67 987.38 C 967.83 986.59 966.99 984.60 965.89 983.08 C 965.71 981.54 965.51 980.04 965.36 978.52 L 964.72 978.60 C 964.32 976.34 963.72 974.14 963.03 971.97 C 962.57 970.65 962.13 969.37 961.66 968.08 C 961.56 967.55 961.35 966.48 961.25 965.95 C 960.89 964.78 960.55 963.63 960.24 962.48 L 959.67 962.56 C 959.58 961.70 959.41 959.97 959.33 959.11 C 958.83 957.91 958.36 956.66 957.95 955.46 C 940.89 955.37 923.82 955.30 906.75 955.50 C 906.62 956.12 906.35 957.34 906.22 957.95 C 905.87 959.18 905.56 960.42 905.29 961.68 L 904.59 961.32 C 904.51 962.74 904.44 964.18 904.38 965.63 L 903.51 965.49 C 903.50 966.24 903.47 967.75 903.46 968.50 L 902.82 968.39 C 902.36 970.78 901.63 973.11 901.13 975.50 L 900.49 975.47 C 900.49 976.25 900.51 977.81 900.52 978.58 L 899.83 978.32 C 899.44 980.56 898.77 982.74 898.13 984.92 C 897.39 985.74 896.66 986.59 895.95 987.45 C 893.11 987.68 890.26 987.58 887.44 987.41 L 887.44 986.30 C 886.98 986.39 886.08 986.57 885.62 986.66 L 885.53 985.33 C 885.03 985.35 884.05 985.38 883.56 985.40 C 883.57 984.93 883.60 983.98 883.62 983.50 L 882.44 983.55 C 882.41 981.48 882.44 979.42 882.50 977.37 L 883.16 977.63 C 883.62 975.22 884.34 972.88 884.84 970.50 L 885.50 970.60 C 885.51 969.80 885.54 968.20 885.56 967.40 L 886.75 967.45 C 886.66 967.12 886.48 966.46 886.39 966.13 C 887.43 963.64 888.11 961.02 888.68 958.40 L 889.14 958.47 C 889.44 956.94 889.79 955.46 890.33 954.01 C 890.41 953.33 890.58 951.96 890.66 951.28 L 891.56 951.63 C 891.53 950.80 891.48 949.15 891.45 948.33 L 892.17 948.67 C 892.65 946.19 893.38 943.78 893.84 941.31 L 894.20 941.60 C 894.56 940.38 894.94 939.18 895.33 937.98 C 895.39 937.34 895.50 936.05 895.56 935.40 L 896.18 935.65 C 896.64 933.26 897.34 930.93 897.83 928.56 L 898.14 928.48 C 898.51 927.32 898.92 926.17 899.36 925.05 C 899.44 924.53 899.60 923.49 899.69 922.97 C 900.09 921.83 900.48 920.69 900.86 919.55 L 901.13 919.58 C 901.62 917.12 902.40 914.73 902.88 912.27 L 903.21 912.57 C 903.54 911.37 903.91 910.19 904.32 909.02 C 904.36 908.35 904.43 907.00 904.47 906.33 L 905.21 906.69 C 905.62 904.58 906.16 902.51 906.65 900.43 L 907.40 900.54 C 907.44 899.12 907.49 897.71 907.56 896.32 L 908.45 896.70 C 908.52 896.03 908.67 894.69 908.74 894.02 C 909.10 892.81 909.44 891.61 909.77 890.41 L 910.39 890.64 C 910.46 889.22 910.54 887.81 910.64 886.41 L 911.42 886.65 C 911.74 884.84 912.18 883.06 912.53 881.27 L 913.12 881.91 C 913.39 879.53 913.96 877.22 914.73 874.96 C 915.54 872.49 916.41 870.03 916.91 867.48 L 917.29 867.51 C 917.77 865.46 918.32 863.42 918.75 861.37 L 919.40 861.54 C 919.47 860.90 919.63 859.63 919.71 858.99 C 920.09 857.79 920.45 856.60 920.79 855.40 L 921.43 855.54 C 921.46 854.14 921.50 852.76 921.55 851.39 L 922.24 851.58 C 922.61 849.43 923.47 847.36 925.18 845.94 L 925.42 845.31 L 926.63 845.71 M 931.79 870.61 C 931.30 872.98 930.71 875.32 930.33 877.72 L 929.60 877.27 C 929.51 878.69 929.44 880.12 929.39 881.56 L 928.54 881.38 C 928.52 882.17 928.48 883.74 928.46 884.52 L 927.57 884.38 C 927.50 885.79 927.44 887.21 927.40 888.65 L 926.38 888.30 C 926.39 889.10 926.41 890.71 926.43 891.51 L 925.57 891.48 C 925.55 892.24 925.52 893.77 925.50 894.53 L 924.57 894.33 C 924.51 895.77 924.46 897.22 924.42 898.68 L 923.52 898.34 C 923.45 898.99 923.33 900.29 923.27 900.94 C 922.88 902.14 922.53 903.36 922.22 904.60 L 921.56 904.42 C 921.49 905.83 921.43 907.25 921.39 908.68 L 920.28 908.51 C 920.31 908.84 920.39 909.50 920.42 909.83 C 919.96 911.41 919.57 913.03 919.31 914.67 L 918.57 914.30 C 918.49 915.68 918.41 917.06 918.35 918.47 L 917.62 918.45 C 917.19 920.47 916.70 922.48 916.37 924.54 C 916.13 924.52 915.67 924.48 915.44 924.46 C 915.40 925.63 915.36 926.81 915.33 928.00 C 914.74 929.28 914.18 930.57 913.61 931.87 C 913.48 933.11 913.39 934.40 913.29 935.67 C 913.11 935.58 912.75 935.41 912.56 935.33 C 912.17 937.12 911.63 938.88 911.24 940.70 C 925.41 940.81 939.59 940.71 953.76 940.75 C 953.65 939.65 953.45 937.45 953.34 936.35 L 952.83 936.43 C 952.46 935.28 952.09 934.15 951.70 933.03 C 951.66 932.36 951.57 931.01 951.53 930.34 L 950.60 930.57 C 950.51 929.15 950.44 927.75 950.37 926.35 L 949.49 926.56 C 949.50 925.78 949.51 924.21 949.52 923.43 L 948.85 923.67 C 948.38 921.20 947.62 918.82 947.12 916.38 L 946.21 916.38 C 946.40 915.91 946.79 914.98 946.98 914.51 L 945.87 914.54 C 945.48 911.80 944.74 909.15 944.17 906.46 L 943.56 906.56 C 943.54 905.77 943.50 904.20 943.48 903.42 L 942.75 903.66 C 942.29 901.20 941.62 898.79 941.18 896.35 L 940.44 896.65 C 940.48 895.82 940.55 894.15 940.59 893.32 L 939.83 893.74 C 939.38 891.26 938.67 888.84 938.19 886.38 L 937.51 886.65 C 937.51 885.86 937.52 884.28 937.52 883.49 L 936.80 883.46 C 936.32 881.06 935.63 878.70 935.19 876.31 L 934.75 876.64 C 934.45 874.53 933.97 872.46 933.51 870.40 C 933.08 870.45 932.22 870.56 931.79 870.61 Z" />
<path fill="#f26b3a" opacity="1.00" d=" M 1040.56 846.01 C 1041.13 845.63 1042.29 844.87 1042.87 844.50 C 1046.40 844.18 1049.95 844.22 1053.49 844.56 L 1053.58 845.13 C 1055.31 846.20 1056.74 847.68 1057.92 849.36 L 1058.32 849.46 C 1058.77 850.50 1059.23 851.55 1059.70 852.61 L 1060.60 852.61 C 1060.58 852.95 1060.55 853.63 1060.53 853.98 C 1060.83 854.60 1061.45 855.85 1061.76 856.47 L 1062.74 856.63 C 1062.61 857.06 1062.36 857.92 1062.23 858.35 L 1063.16 858.63 C 1063.48 859.24 1064.12 860.46 1064.44 861.06 C 1064.42 861.42 1064.37 862.12 1064.35 862.47 L 1065.74 862.60 C 1065.66 862.93 1065.50 863.60 1065.41 863.93 C 1065.73 864.47 1066.36 865.54 1066.67 866.08 C 1067.30 867.03 1067.94 867.98 1068.60 868.95 C 1068.56 869.31 1068.49 870.05 1068.46 870.42 L 1069.68 870.53 C 1069.62 871.00 1069.49 871.94 1069.43 872.40 L 1070.68 872.51 C 1070.62 872.99 1070.51 873.96 1070.45 874.44 L 1071.76 874.51 C 1071.67 874.98 1071.49 875.92 1071.40 876.39 L 1072.39 876.49 C 1072.86 877.79 1073.33 879.12 1073.81 880.44 L 1074.73 880.55 C 1074.65 881.01 1074.48 881.94 1074.40 882.40 L 1075.74 882.55 C 1075.64 883.01 1075.45 883.94 1075.36 884.40 L 1076.28 884.41 C 1076.72 885.35 1077.17 886.31 1077.65 887.28 C 1078.33 888.59 1079.01 889.90 1079.70 891.24 C 1080.74 893.32 1081.75 895.43 1082.70 897.57 L 1083.42 897.53 C 1083.47 898.27 1083.56 899.74 1083.60 900.47 L 1084.72 900.33 L 1084.57 901.09 C 1084.85 901.70 1085.40 902.93 1085.68 903.55 L 1086.64 903.60 C 1086.56 904.05 1086.41 904.95 1086.34 905.41 L 1087.16 905.64 C 1087.49 906.23 1088.14 907.43 1088.46 908.02 C 1088.43 908.38 1088.36 909.09 1088.32 909.45 L 1089.71 909.59 C 1089.63 909.96 1089.48 910.70 1089.41 911.07 C 1090.13 912.03 1090.87 912.99 1091.62 913.96 C 1091.53 914.32 1091.33 915.05 1091.24 915.42 L 1092.16 915.52 C 1092.83 917.08 1093.59 918.63 1094.50 920.11 C 1094.49 920.31 1094.46 920.72 1094.45 920.92 C 1095.77 922.83 1096.95 924.86 1097.97 926.97 C 1098.94 928.97 1099.95 930.96 1100.94 932.97 C 1102.92 937.15 1105.40 941.08 1107.02 945.43 C 1107.80 945.54 1108.61 945.66 1109.43 945.80 C 1109.20 919.85 1109.40 893.89 1109.33 867.94 C 1109.40 860.90 1109.14 853.86 1109.52 846.83 C 1113.55 843.12 1119.87 843.70 1124.62 845.64 C 1124.62 846.09 1124.60 847.00 1124.59 847.45 C 1125.09 847.44 1126.08 847.42 1126.58 847.41 C 1126.60 892.89 1126.52 938.37 1126.61 983.85 L 1125.18 982.34 L 1125.84 984.46 L 1124.43 984.35 L 1124.60 985.62 L 1123.26 985.37 L 1123.51 986.34 C 1120.57 987.32 1117.48 987.63 1114.41 987.46 L 1114.39 986.15 C 1113.96 986.32 1113.10 986.67 1112.67 986.85 L 1112.51 985.39 C 1112.13 985.41 1111.37 985.47 1110.99 985.49 C 1109.91 984.16 1108.80 982.87 1107.71 981.58 C 1106.80 979.60 1105.88 977.63 1105.09 975.62 L 1104.64 975.61 C 1104.20 974.51 1103.76 973.43 1103.33 972.35 L 1102.32 972.42 C 1102.40 972.04 1102.55 971.29 1102.63 970.91 C 1101.90 969.94 1101.18 968.98 1100.48 968.02 C 1100.52 967.77 1100.59 967.28 1100.63 967.04 C 1099.56 965.32 1098.52 963.60 1097.44 961.92 C 1097.50 961.60 1097.62 960.95 1097.68 960.63 L 1096.74 960.55 C 1095.87 958.56 1094.97 956.60 1094.12 954.61 L 1093.78 954.51 C 1092.58 951.89 1091.20 949.36 1089.66 946.94 C 1089.62 946.70 1089.55 946.23 1089.51 945.99 C 1088.70 944.48 1087.93 942.95 1087.20 941.42 L 1086.33 941.38 C 1086.43 940.93 1086.63 940.04 1086.72 939.59 L 1085.31 939.37 C 1085.39 938.94 1085.55 938.08 1085.63 937.66 L 1084.36 937.34 C 1084.44 936.91 1084.59 936.04 1084.67 935.61 L 1083.25 935.38 C 1083.37 934.95 1083.62 934.07 1083.74 933.64 L 1082.33 933.38 C 1082.41 932.94 1082.57 932.07 1082.65 931.63 L 1081.29 931.31 C 1081.41 930.88 1081.65 930.02 1081.78 929.59 L 1080.69 929.59 C 1080.17 928.25 1079.63 926.95 1079.16 925.63 L 1078.78 925.51 C 1078.01 923.98 1077.27 922.47 1076.48 920.97 C 1076.50 920.62 1076.54 919.91 1076.56 919.55 L 1075.65 919.66 C 1075.20 918.57 1074.76 917.48 1074.33 916.41 L 1073.33 916.39 C 1073.45 915.93 1073.68 915.00 1073.79 914.54 L 1072.42 914.44 C 1072.49 913.96 1072.62 912.99 1072.68 912.51 L 1071.38 912.42 C 1071.47 911.94 1071.64 910.99 1071.72 910.51 L 1070.35 910.40 C 1070.45 909.93 1070.65 909.01 1070.75 908.55 L 1069.38 908.41 C 1069.45 907.96 1069.59 907.05 1069.66 906.60 L 1068.29 906.38 C 1068.39 905.94 1068.60 905.06 1068.71 904.62 L 1067.24 904.39 C 1067.35 903.94 1067.58 903.05 1067.69 902.61 L 1066.37 902.47 C 1066.42 902.00 1066.52 901.07 1066.57 900.60 L 1065.23 900.38 C 1065.37 899.93 1065.63 899.03 1065.76 898.58 L 1064.40 898.51 C 1064.40 898.15 1064.41 897.43 1064.42 897.07 C 1062.19 893.82 1060.48 890.24 1059.10 886.57 L 1058.26 886.45 C 1058.31 886.02 1058.43 885.15 1058.49 884.72 C 1057.98 884.61 1056.94 884.38 1056.43 884.27 C 1056.57 917.36 1056.45 950.45 1056.49 983.54 C 1053.55 987.37 1048.17 988.61 1043.80 986.61 C 1043.50 986.63 1042.89 986.68 1042.58 986.70 L 1042.50 985.44 C 1042.01 985.43 1041.02 985.41 1040.53 985.40 C 1040.56 984.93 1040.61 983.99 1040.64 983.52 L 1039.52 983.55 C 1039.56 938.16 1039.54 892.78 1039.53 847.39 L 1040.67 847.49 C 1040.64 847.12 1040.58 846.38 1040.56 846.01 Z" />
<path fill="#f26b3a" opacity="1.00" d=" M 475.51 990.97 C 480.13 990.61 484.79 990.60 489.42 990.97 C 484.80 991.42 480.12 991.42 475.51 990.97 Z" />
</g>
<g id="#72321b79">
<path fill="#72321b" opacity="0.47" d=" M 813.27 294.42 C 815.52 292.95 818.54 293.79 819.94 296.02 C 824.51 304.02 824.43 314.95 818.01 321.98 C 815.76 325.16 809.61 324.12 809.17 320.06 C 810.33 316.60 813.29 313.82 813.39 310.01 C 813.95 305.83 812.13 301.95 811.26 297.96 C 810.80 296.42 811.90 294.99 813.27 294.42 M 812.33 296.90 C 812.99 300.94 815.02 304.77 814.47 309.00 C 814.98 313.33 812.14 316.80 809.99 320.22 C 810.93 321.04 811.91 321.82 812.93 322.57 C 817.01 323.29 819.28 318.76 820.66 315.65 C 822.42 309.76 822.13 303.05 819.52 297.45 C 818.51 294.58 813.73 294.40 812.33 296.90 Z" />
</g>
<g id="#9441239c">
<path fill="#944123" opacity="0.61" d=" M 679.45 347.37 C 690.99 339.81 702.91 331.44 717.00 329.89 C 722.88 329.13 728.54 331.36 733.60 334.14 L 733.01 335.26 C 724.81 329.79 714.04 330.45 705.27 334.11 C 696.25 337.51 688.35 343.10 680.26 348.21 L 679.45 347.37 Z" />
</g>
<g id="#7f381e86">
<path fill="#7f381e" opacity="0.53" d=" M 347.78 366.72 C 350.41 359.03 352.76 351.19 356.36 343.87 L 356.34 345.31 C 355.46 350.07 353.10 354.38 351.69 358.99 C 336.05 403.98 330.93 452.60 337.00 499.86 C 342.23 540.02 355.24 579.29 375.81 614.23 C 376.54 615.64 377.11 617.13 377.64 618.65 C 374.82 615.50 373.02 611.64 370.99 607.98 C 350.94 571.72 338.42 531.32 334.55 490.06 C 330.83 448.62 334.97 406.37 347.78 366.72 Z" />
</g>
<g id="#893c2091">
<path fill="#893c20" opacity="0.57" d=" M 736.77 357.17 C 739.05 352.99 742.66 349.67 746.48 346.90 C 750.56 351.65 753.72 357.66 753.24 364.09 C 752.31 372.82 747.77 380.69 742.38 387.44 C 740.33 389.89 738.47 392.64 735.58 394.18 C 742.60 385.21 751.04 375.96 751.69 363.97 C 752.31 358.10 749.64 352.61 746.08 348.14 C 742.99 351.16 739.92 354.21 736.77 357.17 Z" />
</g>
<g id="#6f311a75">
<path fill="#6f311a" opacity="0.46" d=" M 493.68 729.80 C 500.32 732.43 506.43 736.16 512.97 739.03 C 531.32 747.25 550.43 753.87 570.03 758.42 C 583.52 761.73 597.31 763.52 611.04 765.42 C 611.51 765.63 612.45 766.05 612.92 766.26 C 604.21 766.39 595.59 764.52 587.01 763.21 C 556.92 758.04 527.63 748.21 500.51 734.18 C 498.06 733.00 495.52 731.86 493.68 729.80 Z" />
</g>
<g id="#8c3e2194">
<path fill="#8c3e21" opacity="0.58" d=" M 769.89 738.02 C 775.74 735.49 781.16 732.02 787.17 729.85 C 784.71 732.39 781.31 733.57 778.26 735.22 C 730.33 759.54 675.83 770.53 622.22 767.15 C 619.13 766.74 615.97 766.84 612.92 766.26 C 612.45 766.05 611.51 765.63 611.04 765.42 C 617.14 765.73 623.26 765.70 629.35 766.18 C 677.56 768.25 726.11 758.22 769.89 738.02 Z" />
<path fill="#8c3e21" opacity="0.58" d=" M 308.92 853.98 C 326.05 840.18 352.37 839.79 370.01 852.88 C 370.76 853.61 371.47 854.40 372.14 855.24 C 368.14 853.12 364.40 850.50 360.23 848.71 C 344.57 842.02 325.56 843.73 311.51 853.45 C 301.30 860.76 298.83 874.24 298.50 886.02 C 298.46 902.36 298.51 918.72 298.49 935.07 C 298.39 947.35 297.98 960.57 304.49 971.51 C 308.13 977.99 314.92 981.78 321.60 984.47 C 337.02 990.51 355.42 988.53 369.00 978.97 C 378.07 972.48 381.44 960.71 381.62 950.04 C 381.57 927.01 381.67 903.99 381.57 880.96 C 381.52 871.83 377.79 863.31 372.77 855.86 C 380.62 862.35 382.44 873.35 383.22 882.96 C 383.36 904.30 383.19 925.65 383.30 947.00 C 383.13 957.91 380.61 969.64 372.57 977.56 C 354.68 993.23 325.38 993.14 307.55 977.44 C 300.08 969.68 297.39 958.57 297.31 948.08 C 297.30 926.71 297.28 905.35 297.32 883.99 C 297.44 873.11 300.50 861.42 308.92 853.98 Z" />
</g>
<g id="#692e196f">
<path fill="#692e19" opacity="0.44" d=" M 453.64 853.26 C 467.01 843.05 485.11 840.50 501.28 844.09 C 500.82 844.21 499.90 844.44 499.43 844.56 C 491.77 844.48 484.04 843.56 476.42 844.92 C 468.41 846.12 460.82 849.41 454.29 854.16 L 453.64 853.26 Z" />
</g>
<g id="#78351c7f">
<path fill="#78351c" opacity="0.50" d=" M 232.72 857.78 C 235.35 859.52 236.50 862.55 237.75 865.30 C 240.78 872.44 241.62 880.28 241.38 887.97 C 241.71 899.31 238.92 911.40 230.85 919.79 C 225.33 924.89 218.46 928.48 211.18 930.35 C 206.25 931.72 201.07 931.40 196.00 931.43 C 188.20 931.46 180.40 931.32 172.60 931.52 C 172.64 947.68 172.58 963.85 172.64 980.02 C 172.55 981.78 172.74 983.90 171.27 985.22 C 167.70 988.76 161.77 989.08 157.59 986.42 C 155.97 985.12 152.63 984.78 153.10 982.03 C 156.53 983.93 159.73 987.07 163.94 986.73 C 167.30 986.88 171.85 985.13 171.33 981.04 C 171.48 964.17 171.21 947.30 171.45 930.44 C 181.28 930.05 191.13 930.39 200.97 930.26 C 211.11 930.14 221.29 926.59 229.02 919.96 C 234.97 914.55 238.21 906.70 239.31 898.85 C 241.64 884.96 240.16 869.98 232.72 857.78 Z" />
</g>
<g id="#5e291664">
<path fill="#5e2916" opacity="0.39" d=" M 334.88 859.00 C 343.43 857.46 353.01 859.46 359.21 865.84 C 364.89 872.02 367.08 880.80 366.33 889.04 C 366.24 907.05 366.26 925.06 366.33 943.06 C 366.74 950.35 365.87 958.65 360.65 964.20 C 362.41 959.50 364.86 954.90 364.99 949.78 C 364.49 929.87 364.67 909.93 364.81 890.02 C 366.12 880.33 363.39 868.87 354.55 863.50 C 348.81 859.64 341.61 859.85 335.00 860.31 C 330.24 860.63 325.99 863.01 321.93 865.31 C 324.89 861.19 330.12 859.77 334.88 859.00 Z" />
</g>
</svg>
