<?xml version="1.0" encoding="UTF-8" ?>
<!DOCTYPE svg PUBLIC "-//W3C//DTD SVG 1.1//EN" "http://www.w3.org/Graphics/SVG/1.1/DTD/svg11.dtd">
<svg width="1280pt" height="699pt" viewBox="0 0 1280 699" version="1.1" xmlns="http://www.w3.org/2000/svg">
<g id="#1e444e50">
<path fill="#1e444e" opacity="0.31" d=" M 619.80 2.84 C 623.50 2.13 627.30 1.89 631.07 2.20 C 630.81 2.67 630.28 3.60 630.02 4.07 C 626.54 4.69 622.99 4.57 619.47 4.69 C 619.56 4.23 619.72 3.30 619.80 2.84 Z" />
</g>
<g id="#62dafbff">
<path fill="#62dafb" opacity="1.00" d=" M 631.07 2.20 C 641.67 2.14 652.28 1.90 662.89 2.35 L 662.26 3.44 C 666.37 3.36 670.34 4.69 674.46 4.64 L 674.37 5.47 C 677.95 6.18 681.74 6.45 684.93 8.40 C 686.44 8.51 687.98 8.61 689.51 8.68 C 689.51 9.06 689.50 9.83 689.49 10.21 C 691.08 10.38 692.68 10.60 694.08 11.46 C 694.43 11.43 695.14 11.36 695.49 11.32 L 695.51 12.73 C 695.89 12.65 696.64 12.50 697.02 12.42 C 700.29 14.32 703.78 15.85 707.06 17.76 C 723.82 27.56 737.81 41.98 747.16 58.99 C 747.80 60.24 748.47 61.49 749.14 62.74 C 750.11 65.23 751.43 67.56 752.57 69.97 C 752.51 70.35 752.39 71.11 752.34 71.49 L 753.75 71.49 C 753.70 71.85 753.59 72.56 753.54 72.91 C 754.10 74.05 754.50 75.24 754.73 76.49 L 755.76 76.51 C 755.70 76.86 755.60 77.57 755.55 77.92 C 756.14 79.05 756.52 80.26 756.67 81.54 L 757.70 81.52 C 757.65 81.87 757.56 82.58 757.51 82.93 C 758.40 84.28 758.50 85.89 758.68 87.45 L 759.42 87.41 C 760.09 89.39 760.56 91.42 760.68 93.51 L 761.77 93.54 C 761.63 94.02 761.36 94.98 761.22 95.46 L 762.46 95.50 C 762.49 97.14 762.52 98.78 762.57 100.41 L 763.74 100.56 C 763.62 101.05 763.38 102.02 763.27 102.51 L 764.34 102.47 C 764.56 105.19 765.14 107.86 765.67 110.54 L 766.41 110.43 C 766.39 114.74 768.18 118.72 768.89 122.92 C 769.35 124.75 769.52 126.63 769.61 128.52 L 770.40 128.43 C 771.06 132.29 770.92 136.39 772.43 140.04 C 772.47 140.27 772.55 140.75 772.59 140.98 C 773.99 143.94 773.32 147.34 773.54 150.50 L 774.52 150.44 L 774.55 151.09 C 773.75 156.92 776.00 162.46 777.42 167.99 C 781.78 183.13 789.47 197.95 802.27 207.61 C 815.95 218.07 833.24 221.94 849.95 224.35 C 851.63 224.55 853.27 224.31 854.88 223.63 L 855.48 223.48 L 855.56 224.41 C 861.46 224.10 867.26 225.43 873.06 226.23 C 875.88 226.48 878.72 226.53 881.57 226.55 L 881.40 227.44 C 886.45 227.63 891.42 228.88 896.51 228.57 L 896.39 229.43 C 898.00 229.51 899.63 229.68 901.13 230.38 C 901.79 230.30 903.10 230.12 903.76 230.03 C 903.60 230.36 903.27 231.02 903.11 231.35 C 912.34 231.95 921.18 235.55 930.45 235.63 C 930.66 235.77 931.09 236.07 931.31 236.22 C 933.01 236.48 934.72 236.54 936.46 236.64 L 936.56 237.56 C 937.30 237.52 938.76 237.45 939.50 237.41 L 939.48 238.36 C 941.88 238.55 944.23 239.05 946.58 239.58 L 946.50 240.30 C 948.04 240.50 949.56 240.81 951.06 241.30 C 951.68 241.36 952.92 241.47 953.54 241.53 L 953.39 242.40 C 957.02 242.69 959.99 245.07 963.54 245.68 L 963.49 246.71 C 963.96 246.62 964.90 246.44 965.38 246.35 L 965.57 247.19 C 967.54 247.99 969.46 248.89 971.40 249.79 L 971.47 250.26 C 976.19 252.46 980.27 255.74 984.49 258.75 C 992.95 265.09 1000.05 273.01 1006.19 281.58 C 1006.89 282.62 1007.62 283.64 1008.36 284.67 L 1008.59 285.38 C 1010.50 287.74 1011.49 290.70 1013.54 292.96 C 1013.54 293.21 1013.53 293.71 1013.53 293.96 C 1013.84 294.60 1014.45 295.86 1014.76 296.50 L 1015.70 296.53 C 1015.64 296.89 1015.51 297.63 1015.45 298.00 C 1016.56 299.91 1017.48 301.92 1018.45 303.91 C 1018.48 304.54 1018.52 305.81 1018.55 306.44 L 1019.50 306.28 C 1020.13 308.66 1020.54 311.16 1021.86 313.30 C 1022.50 314.95 1022.49 316.74 1022.62 318.49 L 1023.23 318.55 C 1023.54 319.69 1023.88 320.83 1024.26 321.96 C 1024.46 324.53 1024.61 327.13 1025.45 329.60 C 1026.48 340.03 1026.85 350.53 1026.24 361.01 C 1025.75 366.49 1023.64 371.80 1024.40 377.37 L 1023.63 377.80 C 1022.91 380.09 1022.47 382.46 1022.15 384.84 C 1020.64 386.61 1020.30 388.93 1019.58 391.06 C 1019.60 391.42 1019.66 392.15 1019.68 392.51 L 1018.70 392.48 C 1018.46 393.73 1018.07 394.92 1017.55 396.07 C 1017.58 396.43 1017.66 397.15 1017.69 397.52 L 1016.27 397.48 C 1016.35 397.86 1016.49 398.62 1016.56 399.00 C 1015.28 401.07 1014.21 403.26 1013.26 405.50 L 1012.38 405.61 C 1012.44 406.06 1012.57 406.97 1012.63 407.42 L 1011.38 407.57 C 1011.41 407.92 1011.47 408.63 1011.50 408.99 C 1010.70 409.80 1010.02 410.71 1009.48 411.71 C 1003.28 422.37 994.47 431.13 985.47 439.44 L 984.62 439.58 C 981.19 442.89 977.16 445.55 973.00 447.85 C 971.30 449.07 969.44 450.06 967.47 450.74 L 967.46 451.76 C 966.99 451.64 966.05 451.41 965.58 451.29 L 965.40 452.65 C 964.92 452.55 963.96 452.36 963.47 452.26 L 963.55 453.38 C 961.85 453.81 960.18 454.29 958.50 454.70 L 958.51 455.74 C 958.16 455.70 957.46 455.63 957.10 455.59 C 955.66 456.29 954.11 456.56 952.55 456.71 L 952.72 457.55 C 950.70 458.09 948.65 458.49 946.59 458.69 C 945.86 459.23 945.14 459.79 944.44 460.36 C 942.94 460.42 941.44 460.50 939.97 460.62 C 936.75 462.35 933.09 462.67 929.52 462.66 L 929.50 463.81 C 929.01 463.66 928.03 463.35 927.53 463.20 L 927.45 464.39 C 925.63 464.45 923.81 464.55 922.02 464.70 C 915.95 466.29 909.70 467.09 903.47 467.59 L 903.52 468.47 C 901.35 468.49 899.19 468.58 897.04 468.75 C 893.06 469.57 889.04 470.17 885.03 470.85 C 882.57 471.59 879.99 471.53 877.47 471.51 L 877.52 472.38 C 869.03 474.38 860.21 472.37 851.68 473.95 C 849.74 474.34 847.78 474.67 845.89 475.25 C 843.75 475.43 841.61 475.54 839.48 475.60 L 839.53 476.76 C 839.16 476.69 838.42 476.56 838.05 476.50 C 836.11 477.76 833.77 477.53 831.58 477.63 L 831.73 478.54 C 824.50 479.70 818.12 483.49 811.63 486.70 C 802.26 492.41 794.32 500.46 788.73 509.90 C 787.68 512.50 785.73 514.71 785.32 517.56 L 784.30 517.49 C 784.37 517.88 784.49 518.64 784.55 519.03 C 783.86 520.33 783.21 521.66 782.52 522.97 C 782.48 523.21 782.39 523.70 782.34 523.94 C 781.83 525.25 781.52 526.63 781.29 528.03 C 779.39 530.05 779.51 532.88 779.37 535.46 L 778.27 535.57 C 778.40 536.06 778.67 537.04 778.81 537.52 L 777.61 537.52 C 777.55 539.83 777.46 542.13 777.42 544.44 L 776.67 544.53 C 775.20 549.77 775.33 555.27 774.40 560.61 L 773.56 560.44 C 773.57 563.27 773.49 566.10 773.22 568.92 C 772.78 570.44 772.54 572.01 772.38 573.59 L 771.59 573.46 C 771.90 578.45 770.09 583.12 769.07 587.92 C 768.74 589.44 768.52 590.99 768.37 592.55 L 767.46 592.46 C 767.43 593.08 767.37 594.31 767.33 594.93 C 766.71 596.38 766.49 597.95 766.38 599.52 L 765.65 599.48 C 765.17 603.65 762.94 607.33 762.27 611.45 C 761.70 612.17 761.13 612.90 760.57 613.63 C 760.53 614.30 760.47 615.65 760.44 616.32 C 759.86 617.05 759.28 617.80 758.72 618.56 C 758.42 619.61 758.10 620.65 757.77 621.70 C 757.16 622.77 756.62 623.87 756.16 625.02 C 751.47 634.29 746.29 643.38 739.81 651.53 C 734.44 658.44 728.01 664.45 721.47 670.24 C 716.26 673.87 711.37 678.18 705.50 680.71 L 705.50 681.28 C 701.49 682.93 697.92 685.57 693.71 686.75 C 692.88 687.31 692.05 687.89 691.24 688.48 C 690.57 688.50 689.24 688.54 688.57 688.56 C 687.91 689.13 687.25 689.71 686.61 690.29 C 685.00 690.45 683.41 690.68 681.97 691.44 C 681.61 691.43 680.89 691.41 680.53 691.41 L 680.51 692.37 C 678.97 692.51 677.43 692.69 675.94 693.05 C 673.41 694.08 670.73 694.57 668.04 694.87 C 666.28 695.22 664.53 695.44 662.77 695.67 L 662.12 695.76 C 661.67 695.94 660.76 696.29 660.31 696.46 C 652.20 696.65 644.08 695.90 635.99 696.51 C 633.65 696.69 631.38 696.15 629.12 695.73 C 627.73 695.51 626.34 695.36 624.97 695.20 C 622.84 694.58 620.64 694.47 618.45 694.44 L 618.53 693.47 C 617.92 693.44 616.69 693.36 616.08 693.32 C 614.62 692.69 613.07 692.47 611.52 692.37 L 611.47 691.41 C 611.10 691.41 610.38 691.42 610.02 691.42 C 608.61 690.70 607.08 690.42 605.53 690.29 C 604.90 689.77 604.27 689.25 603.65 688.75 C 602.49 688.45 601.34 688.13 600.21 687.78 C 599.09 687.06 597.86 686.54 596.58 686.26 L 596.38 685.40 C 595.91 685.47 594.96 685.60 594.49 685.67 L 594.47 684.27 C 594.00 684.37 593.06 684.59 592.59 684.70 L 592.39 683.36 C 592.03 683.42 591.32 683.53 590.96 683.59 C 590.45 683.20 589.41 682.42 588.89 682.03 C 574.97 674.40 562.59 663.97 552.77 651.50 C 550.42 648.15 547.97 644.87 545.79 641.42 C 545.19 640.24 544.47 639.14 543.71 638.09 C 542.94 636.35 541.98 634.71 541.20 633.00 C 540.23 631.66 539.61 630.16 539.23 628.58 L 538.29 628.39 C 538.41 627.92 538.65 626.97 538.77 626.50 L 537.35 626.48 C 537.38 626.12 537.44 625.41 537.47 625.05 C 537.01 623.88 536.57 622.71 536.16 621.54 C 534.94 619.47 534.36 617.15 533.62 614.90 C 533.64 614.54 533.67 613.80 533.69 613.43 L 532.64 613.42 C 532.58 611.28 532.63 609.09 531.73 607.11 C 528.26 593.75 529.16 579.66 529.54 565.96 C 530.61 562.37 529.70 558.26 531.56 554.97 C 531.49 554.62 531.35 553.91 531.28 553.56 L 532.46 553.48 C 532.47 551.81 532.51 550.16 532.54 548.51 L 533.37 548.51 C 533.93 546.56 534.47 544.60 534.76 542.59 L 535.69 542.43 C 535.60 541.95 535.41 541.00 535.32 540.52 L 536.31 540.51 C 536.50 539.24 536.89 538.05 537.49 536.93 C 537.45 536.58 537.36 535.87 537.32 535.52 L 538.74 535.50 C 538.63 535.03 538.42 534.07 538.31 533.60 L 539.64 533.39 C 539.55 532.91 539.36 531.95 539.26 531.47 L 540.66 531.47 C 540.58 531.00 540.43 530.05 540.36 529.58 L 541.66 529.39 C 541.59 529.03 541.47 528.31 541.41 527.95 C 543.60 525.41 544.85 522.25 546.77 519.52 C 549.48 515.67 552.10 511.71 555.44 508.37 L 555.57 507.52 C 561.80 501.01 568.12 494.54 575.41 489.20 C 577.43 487.65 579.50 486.18 581.62 484.77 C 582.63 484.10 583.64 483.44 584.66 482.77 C 586.75 481.51 588.86 480.29 591.06 479.21 C 593.57 477.60 596.24 476.21 599.04 475.16 C 601.06 473.85 603.32 473.02 605.65 472.40 L 605.52 471.70 C 607.54 471.31 609.54 470.82 611.55 470.37 L 611.46 469.44 C 612.08 469.42 613.33 469.39 613.95 469.38 C 617.73 468.10 621.43 466.15 625.54 466.43 L 625.49 465.69 C 626.70 465.44 627.90 465.14 629.09 464.78 C 631.25 464.54 633.44 464.43 635.62 464.38 C 635.61 463.98 635.60 463.18 635.59 462.79 C 639.21 462.64 642.84 462.46 646.47 462.41 L 646.38 461.44 L 646.66 461.54 C 648.01 462.33 649.44 462.59 650.95 462.30 C 659.30 461.20 667.64 459.52 676.10 459.58 C 673.59 459.35 671.12 458.93 668.66 458.43 C 670.77 458.46 672.88 458.43 675.00 458.31 C 677.21 457.41 679.61 457.55 681.95 457.38 C 686.48 455.68 691.44 457.02 696.12 456.12 C 699.36 455.43 702.80 455.95 705.93 454.72 C 710.49 454.71 714.94 453.62 719.49 453.43 L 719.49 452.62 C 724.76 452.76 729.39 449.89 734.53 449.36 L 734.51 448.32 C 734.99 448.40 735.94 448.57 736.42 448.66 L 736.58 447.45 C 737.31 447.48 738.76 447.54 739.48 447.57 L 739.52 446.29 C 740.00 446.38 740.95 446.56 741.43 446.66 L 741.54 445.26 C 742.01 445.37 742.96 445.60 743.43 445.71 L 743.55 444.37 C 744.00 444.43 744.92 444.54 745.37 444.60 L 745.46 443.69 C 746.44 443.22 747.42 442.75 748.42 442.28 C 749.41 441.58 750.42 440.89 751.44 440.23 C 756.97 436.19 761.79 431.36 765.78 425.81 C 768.41 422.00 770.57 417.92 772.75 413.85 C 773.09 412.72 773.43 411.60 773.77 410.47 C 774.25 409.80 774.74 409.12 775.23 408.46 C 775.59 405.00 777.96 402.09 777.68 398.52 L 778.37 398.51 C 779.08 396.07 779.54 393.57 779.86 391.05 C 780.16 389.85 780.43 388.65 780.66 387.44 L 781.49 387.54 C 781.48 386.57 781.47 385.60 781.48 384.65 C 784.72 379.73 784.18 373.33 784.43 367.68 C 784.23 357.03 785.30 346.22 783.04 335.71 C 781.78 322.39 778.66 309.33 775.54 296.33 C 775.31 295.19 774.68 294.34 773.63 293.78 C 773.51 292.42 773.17 291.10 772.54 289.91 C 772.58 289.56 772.67 288.84 772.72 288.49 L 771.68 288.55 C 770.28 282.96 766.97 278.01 763.64 273.38 L 763.45 272.56 C 760.11 269.17 757.33 265.25 753.56 262.32 C 749.02 257.93 743.42 254.95 738.03 251.76 C 737.04 251.39 736.05 251.03 735.08 250.66 L 734.36 250.61 L 734.44 249.74 C 732.70 249.44 731.00 249.01 729.32 248.51 L 729.45 247.69 C 727.88 247.54 726.30 247.31 724.89 246.60 C 724.53 246.64 723.81 246.72 723.45 246.76 L 723.53 245.61 C 722.03 245.50 720.53 245.38 719.06 245.24 C 717.86 244.89 716.65 244.58 715.44 244.33 L 715.53 243.60 C 709.59 243.63 704.01 241.14 698.07 241.22 C 694.54 240.19 690.85 240.57 687.24 240.60 C 687.33 240.34 687.49 239.84 687.58 239.59 C 680.39 239.92 673.32 238.60 666.18 238.25 C 659.73 236.59 653.02 236.83 646.57 235.27 L 646.44 234.57 C 643.46 234.44 640.31 234.88 637.52 233.57 C 634.30 232.09 630.63 232.72 627.31 231.54 L 627.40 230.66 C 625.61 230.56 623.82 230.43 622.05 230.26 C 620.87 229.90 619.69 229.58 618.50 229.30 L 618.52 228.63 C 616.98 228.49 615.46 228.29 613.96 227.98 C 611.67 227.20 609.36 226.48 607.05 225.78 C 605.64 225.28 604.27 224.71 602.91 224.11 C 601.76 223.83 600.61 223.57 599.47 223.33 L 599.50 222.30 C 599.14 222.34 598.43 222.42 598.07 222.46 C 596.97 221.89 595.81 221.49 594.59 221.26 L 594.76 220.57 C 593.47 220.11 592.21 219.66 590.91 219.28 C 589.25 218.01 587.37 217.10 585.44 216.35 L 585.41 215.80 C 576.28 211.50 568.61 204.64 561.25 197.84 C 553.84 189.95 546.76 181.46 542.21 171.55 L 541.27 171.49 C 541.36 171.02 541.55 170.08 541.64 169.62 L 540.32 169.42 C 540.41 168.94 540.59 167.99 540.68 167.52 L 539.26 167.52 C 539.36 167.04 539.56 166.09 539.66 165.61 L 538.35 165.41 C 538.45 164.94 538.65 164.00 538.75 163.54 L 537.73 163.43 C 537.10 160.86 536.27 158.33 535.03 155.99 C 534.71 154.53 534.49 153.06 534.32 151.59 L 533.41 151.55 L 533.32 150.87 C 532.39 148.70 532.57 146.27 531.86 144.04 C 529.92 139.97 530.75 135.31 529.63 131.03 C 528.98 122.02 529.15 112.94 529.45 103.91 C 530.42 99.58 530.10 95.01 531.74 90.85 C 532.52 88.36 532.62 85.72 533.50 83.26 L 534.31 83.42 C 534.51 81.88 534.53 80.23 535.49 78.92 C 535.44 78.57 535.33 77.87 535.28 77.52 L 536.29 77.52 C 536.48 76.26 536.87 75.06 537.47 73.94 C 537.44 73.58 537.36 72.87 537.32 72.52 L 538.75 72.50 C 538.64 72.03 538.42 71.08 538.31 70.60 L 539.62 70.39 C 539.54 69.91 539.36 68.96 539.27 68.48 L 540.66 68.46 C 540.58 67.99 540.42 67.04 540.35 66.57 L 541.15 66.35 C 543.61 61.07 546.77 56.14 550.20 51.44 C 551.38 49.79 552.58 48.15 553.76 46.49 C 561.74 36.61 571.10 27.90 581.59 20.73 C 584.25 19.28 586.62 17.29 589.49 16.23 L 589.53 15.31 C 589.99 15.38 590.91 15.53 591.37 15.61 L 591.54 14.35 C 592.00 14.42 592.92 14.55 593.38 14.61 L 593.40 13.51 C 594.76 13.08 596.14 12.67 597.54 12.32 L 597.50 11.32 C 597.87 11.36 598.60 11.45 598.97 11.50 C 602.18 10.43 604.85 7.83 608.48 8.35 L 608.58 7.31 C 608.92 7.37 609.62 7.48 609.97 7.54 C 611.37 6.38 613.24 6.46 614.94 6.16 C 616.38 5.76 617.87 5.51 619.36 5.35 L 619.47 4.69 C 622.99 4.57 626.54 4.69 630.02 4.07 C 630.28 3.60 630.81 2.67 631.07 2.20 Z" />
</g>
<g id="#2f697a7b">
<path fill="#2f697a" opacity="0.48" d=" M 774.55 151.09 C 775.13 152.53 775.72 153.97 776.08 155.50 C 779.34 171.71 784.97 188.19 796.48 200.48 C 808.03 212.46 824.36 218.26 840.43 221.04 C 845.29 221.64 850.09 222.61 854.88 223.63 C 853.27 224.31 851.63 224.55 849.95 224.35 C 833.24 221.94 815.95 218.07 802.27 207.61 C 789.47 197.95 781.78 183.13 777.42 167.99 C 776.00 162.46 773.75 156.92 774.55 151.09 Z" />
</g>
<g id="#32728486">
<path fill="#327284" opacity="0.53" d=" M 903.76 230.03 C 907.23 229.30 910.55 231.07 913.98 231.40 C 917.10 231.72 920.15 232.50 923.20 233.26 C 925.64 233.90 928.46 233.81 930.45 235.63 C 921.18 235.55 912.34 231.95 903.11 231.35 C 903.27 231.02 903.60 230.36 903.76 230.03 Z" />
</g>
<g id="#424242ff">
<path fill="#424242" opacity="1.00" d=" M 362.76 236.69 C 365.92 236.77 369.00 236.09 372.01 235.16 C 373.95 234.48 376.02 234.50 378.06 234.46 C 388.40 234.29 398.78 233.99 409.09 234.75 C 412.98 235.91 416.98 236.40 420.95 237.17 C 424.66 238.39 428.46 239.24 432.06 240.79 C 434.43 241.77 436.78 242.78 439.17 243.71 C 461.00 253.67 479.77 270.37 491.77 291.19 C 494.34 295.99 497.39 300.67 498.86 305.96 C 500.41 307.32 500.64 309.28 500.65 311.24 C 501.21 312.04 501.79 312.84 502.38 313.64 C 502.46 314.78 502.56 315.92 502.66 317.07 C 504.37 319.78 504.42 323.00 505.22 326.01 C 505.52 327.66 505.16 329.60 506.39 330.96 C 506.94 343.01 506.96 355.11 506.43 367.16 C 506.25 367.60 505.88 368.48 505.70 368.92 C 505.52 370.64 505.40 372.37 504.78 374.01 C 504.61 375.33 504.48 376.68 504.33 378.02 C 503.61 379.25 503.13 380.60 502.67 381.95 C 502.56 383.05 502.46 384.14 502.36 385.24 C 501.77 386.07 501.20 386.91 500.64 387.76 C 500.59 389.72 500.42 391.75 498.69 393.00 C 498.61 393.66 498.46 394.98 498.38 395.63 C 497.79 396.25 497.20 396.87 496.61 397.50 C 496.53 398.10 496.35 399.31 496.26 399.91 C 495.08 400.96 494.38 402.33 494.08 403.87 C 488.84 413.03 482.79 421.79 475.49 429.46 C 466.86 438.32 456.90 445.95 446.00 451.82 C 445.44 452.05 444.32 452.52 443.77 452.76 C 442.59 453.68 441.20 454.23 439.82 454.74 C 437.66 456.02 435.25 456.76 432.99 457.83 C 431.47 458.35 429.71 458.31 428.40 459.30 C 426.67 460.91 424.10 460.16 422.11 461.20 C 419.33 462.86 416.00 462.15 413.05 463.17 C 406.59 465.38 399.68 464.38 392.99 464.70 C 384.98 464.42 376.71 465.50 369.02 462.71 C 367.04 462.47 364.92 462.76 363.11 461.78 C 361.06 460.77 358.80 460.40 356.54 460.32 C 355.86 459.73 355.18 459.15 354.51 458.57 C 353.84 458.53 352.52 458.46 351.85 458.43 C 350.29 457.52 348.67 456.73 346.94 456.24 C 346.40 456.00 345.31 455.50 344.77 455.26 C 319.74 444.11 298.74 423.74 287.24 398.86 C 286.72 397.98 286.21 397.10 285.70 396.23 C 284.26 391.41 281.48 387.11 280.83 382.07 C 275.43 367.03 276.11 350.73 276.74 334.96 C 277.60 332.72 277.44 330.30 277.67 327.96 C 278.52 326.43 278.72 324.66 279.21 323.02 C 279.55 321.42 279.13 319.51 280.33 318.21 C 281.45 312.81 283.84 307.90 285.70 302.73 C 286.19 301.83 286.69 300.93 287.21 300.04 C 290.07 293.01 294.50 286.77 298.75 280.53 C 308.29 268.23 319.85 257.29 333.39 249.52 C 334.25 248.94 335.08 248.33 335.88 247.68 C 336.42 247.58 337.51 247.39 338.06 247.30 C 338.43 246.90 339.17 246.11 339.54 245.72 C 345.14 243.77 350.46 241.04 356.11 239.16 C 357.47 238.60 358.94 238.45 360.40 238.38 C 361.19 237.82 361.97 237.25 362.76 236.69 Z" />
<path fill="#424242" opacity="1.00" d=" M 85.78 469.95 C 90.13 468.59 94.67 467.99 99.04 466.69 C 110.68 466.07 122.35 465.91 133.98 466.56 C 174.24 471.54 210.16 500.11 225.20 537.62 C 226.59 541.10 228.26 544.56 228.56 548.36 C 228.80 548.43 229.27 548.55 229.50 548.61 C 230.02 552.83 230.90 557.01 232.31 561.03 C 232.45 567.69 234.17 574.22 233.66 580.92 C 234.25 588.56 232.06 596.01 232.32 603.64 C 231.78 604.30 231.24 604.97 230.71 605.65 C 230.64 610.26 228.84 614.54 227.47 618.87 C 222.60 633.70 214.15 647.19 203.85 658.84 C 192.60 671.45 178.35 681.08 163.04 688.08 C 158.00 689.69 153.19 692.07 147.95 693.01 C 146.60 693.27 145.30 693.79 144.11 694.48 C 140.29 694.26 136.49 694.78 132.93 696.17 C 125.64 697.30 118.29 695.69 110.98 696.46 C 105.89 697.04 100.93 695.51 95.93 694.89 C 57.48 687.81 23.71 659.46 10.07 622.82 C 8.13 618.82 6.98 614.40 6.16 610.04 C 3.93 604.96 4.49 599.18 2.46 594.12 C 1.77 585.20 2.18 576.24 2.28 567.31 C 2.57 567.35 3.15 567.42 3.44 567.46 C 3.45 562.15 4.65 556.95 6.14 551.89 C 15.61 513.07 47.47 480.89 85.78 469.95 Z" />
<path fill="#424242" opacity="1.00" d=" M 1139.91 467.62 C 1140.93 467.49 1141.97 467.37 1143.02 467.27 C 1144.89 466.46 1146.94 466.52 1148.95 466.47 C 1160.29 466.02 1171.65 465.99 1182.98 466.74 C 1187.33 467.90 1191.74 468.80 1196.15 469.72 C 1197.37 470.29 1198.62 470.77 1199.92 471.25 C 1204.35 471.92 1208.11 474.73 1212.44 475.77 C 1213.62 476.57 1214.84 477.35 1216.24 477.79 C 1238.32 489.26 1256.86 507.66 1267.86 530.03 C 1269.11 532.24 1269.66 534.82 1271.36 536.79 C 1271.42 537.36 1271.55 538.50 1271.61 539.07 C 1271.91 539.60 1272.52 540.65 1272.83 541.17 C 1273.37 542.73 1273.76 544.34 1274.23 545.95 C 1275.91 550.48 1276.88 555.27 1277.85 560.00 C 1279.41 562.61 1277.20 566.69 1279.70 568.63 C 1279.97 576.86 1279.96 585.10 1279.72 593.34 C 1277.52 594.69 1279.04 597.92 1278.33 600.04 C 1276.77 607.49 1275.17 615.02 1272.17 622.05 C 1271.76 623.08 1271.49 624.15 1271.36 625.26 C 1270.79 625.99 1270.22 626.73 1269.67 627.46 C 1269.58 628.11 1269.41 629.42 1269.33 630.08 C 1268.93 630.46 1268.13 631.22 1267.74 631.59 C 1265.67 637.95 1261.50 643.40 1257.82 648.92 C 1250.55 659.13 1241.50 667.93 1231.45 675.40 L 1230.60 675.64 C 1226.13 679.34 1220.99 682.21 1215.76 684.71 C 1214.86 685.26 1213.98 685.83 1213.11 686.42 C 1212.58 686.47 1211.51 686.57 1210.97 686.62 C 1210.03 688.17 1208.50 688.72 1206.75 688.55 C 1205.87 689.14 1205.00 689.74 1204.15 690.36 C 1203.01 690.43 1201.88 690.51 1200.77 690.59 C 1199.94 691.16 1199.12 691.74 1198.32 692.33 C 1194.33 692.31 1190.84 694.47 1186.92 694.84 C 1184.31 695.59 1181.39 694.97 1178.97 696.31 C 1172.65 696.65 1166.30 696.91 1160.00 696.21 C 1156.05 695.80 1151.84 697.48 1148.11 695.72 C 1143.71 695.00 1139.10 694.95 1134.97 693.15 C 1133.32 692.57 1131.60 692.44 1129.90 692.32 C 1128.27 690.61 1125.91 690.47 1123.72 690.32 C 1123.31 689.90 1122.49 689.07 1122.08 688.65 C 1120.95 688.53 1119.84 688.43 1118.75 688.33 C 1118.36 687.93 1117.57 687.12 1117.18 686.72 C 1115.62 686.49 1114.09 686.04 1113.03 684.84 C 1106.06 682.13 1099.93 677.65 1093.92 673.28 C 1077.45 660.90 1064.65 643.89 1056.67 624.94 C 1056.57 624.43 1056.37 623.39 1056.27 622.87 C 1055.89 622.45 1055.12 621.60 1054.74 621.17 C 1054.50 618.99 1054.43 616.66 1052.75 615.05 C 1052.59 613.31 1052.39 611.57 1051.79 609.95 C 1051.68 609.42 1051.45 608.38 1051.34 607.86 C 1049.52 603.83 1050.51 599.00 1048.67 595.00 C 1048.22 588.02 1048.40 581.01 1048.41 574.02 C 1048.48 571.69 1048.23 569.24 1049.30 567.09 C 1049.46 565.37 1049.58 563.66 1049.78 561.96 C 1050.69 558.99 1050.33 555.74 1051.85 552.94 C 1052.45 550.25 1052.82 547.47 1054.29 545.07 C 1054.35 543.14 1054.58 541.18 1056.24 539.93 C 1056.37 538.90 1056.52 537.89 1056.68 536.88 C 1057.68 535.72 1058.42 534.38 1058.70 532.87 C 1059.20 531.95 1059.72 531.05 1060.26 530.16 C 1063.98 521.76 1069.44 514.27 1075.11 507.09 C 1083.19 498.03 1092.01 489.46 1102.47 483.16 C 1105.17 481.11 1108.56 480.13 1111.03 477.77 C 1112.62 477.65 1114.20 477.15 1115.05 475.67 C 1115.57 475.62 1116.62 475.52 1117.14 475.47 C 1120.57 473.64 1124.23 472.06 1128.03 471.22 C 1131.70 469.09 1136.23 469.44 1139.91 467.62 Z" />
</g>
<g id="#24515e5f">
<path fill="#24515e" opacity="0.37" d=" M 773.63 293.78 C 774.68 294.34 775.31 295.19 775.54 296.33 C 778.66 309.33 781.78 322.39 783.04 335.71 C 785.30 346.22 784.23 357.03 784.43 367.68 C 783.88 368.97 783.27 370.23 782.74 371.52 C 782.41 360.03 783.63 348.43 781.55 337.05 C 780.71 326.57 778.27 316.32 776.16 306.05 C 775.35 301.95 773.84 297.98 773.63 293.78 Z" />
</g>
<g id="#1e434d4f">
<path fill="#1e434d" opacity="0.31" d=" M 1025.45 329.60 C 1026.42 330.57 1027.39 331.71 1027.36 333.19 C 1028.84 345.43 1028.78 357.89 1026.62 370.05 C 1026.09 372.53 1025.94 375.25 1024.40 377.37 C 1023.64 371.80 1025.75 366.49 1026.24 361.01 C 1026.85 350.53 1026.48 340.03 1025.45 329.60 Z" />
</g>
<g id="#3f8ca3a6">
<path fill="#3f8ca3" opacity="0.65" d=" M 782.74 371.52 C 783.27 370.23 783.88 368.97 784.43 367.68 C 784.18 373.33 784.72 379.73 781.48 384.65 C 781.12 380.21 782.08 375.87 782.74 371.52 Z" />
</g>
<g id="#3f8aa0a4">
<path fill="#3f8aa0" opacity="0.64" d=" M 662.01 458.98 C 664.19 458.50 666.42 458.30 668.66 458.43 C 671.12 458.93 673.59 459.35 676.10 459.58 C 667.64 459.52 659.30 461.20 650.95 462.30 C 649.44 462.59 648.01 462.33 646.66 461.54 C 651.57 459.65 656.93 460.08 662.01 458.98 Z" />
</g>
<g id="#0c0c0c2f">
<path fill="#0c0c0c" opacity="0.18" d=" M 132.93 696.17 C 136.49 694.78 140.29 694.26 144.11 694.48 C 139.71 697.24 134.26 697.07 129.52 699.00 L 106.41 699.00 C 104.88 698.46 103.39 697.86 101.90 697.24 C 112.19 696.06 122.67 697.76 132.93 696.17 Z" />
</g>
<g id="#13283030">
<path fill="#132830" opacity="0.19" d=" M 623.71 696.34 C 625.48 695.97 627.28 695.61 629.12 695.73 C 631.38 696.15 633.65 696.69 635.99 696.51 C 644.08 695.90 652.20 696.65 660.31 696.46 C 658.82 697.09 657.22 697.36 655.63 697.37 C 649.01 696.66 642.36 697.10 635.73 696.97 C 636.08 697.48 636.78 698.49 637.13 699.00 L 630.86 699.00 C 628.52 697.97 626.13 697.09 623.71 696.34 Z" />
</g>
<g id="#0b1a1e1f">
<path fill="#0b1a1e" opacity="0.12" d=" M 660.31 696.46 C 660.76 696.29 661.67 695.94 662.12 695.76 L 662.77 695.67 C 664.78 695.47 666.81 695.57 668.84 695.78 C 666.17 697.24 663.21 698.01 660.36 699.00 L 653.77 699.00 C 654.23 698.59 655.16 697.78 655.63 697.37 C 657.22 697.36 658.82 697.09 660.31 696.46 Z" />
</g>
<g id="#16333a3c">
<path fill="#16333a" opacity="0.24" d=" M 635.73 696.97 C 642.36 697.10 649.01 696.66 655.63 697.37 C 655.16 697.78 654.23 698.59 653.77 699.00 L 637.13 699.00 C 636.78 698.49 636.08 697.48 635.73 696.97 Z" />
</g>
<g id="#0b0b0b2e">
<path fill="#0b0b0b" opacity="0.18" d=" M 1147.91 697.20 C 1153.22 696.46 1158.58 697.08 1163.92 696.99 C 1169.36 697.11 1174.83 696.20 1180.25 697.13 C 1179.08 697.77 1177.90 698.41 1176.72 699.00 L 1151.30 699.00 C 1150.13 698.42 1149.02 697.81 1147.91 697.20 Z" />
</g>
</svg>
