<?xml version="1.0" encoding="UTF-8" standalone="no"?>
<!-- Created with Inkscape (http://www.inkscape.org/) -->

<svg
   xmlns:dc="http://purl.org/dc/elements/1.1/"
   xmlns:cc="http://creativecommons.org/ns#"
   xmlns:rdf="http://www.w3.org/1999/02/22-rdf-syntax-ns#"
   xmlns:svg="http://www.w3.org/2000/svg"
   xmlns="http://www.w3.org/2000/svg"
   xmlns:sodipodi="http://sodipodi.sourceforge.net/DTD/sodipodi-0.dtd"
   xmlns:inkscape="http://www.inkscape.org/namespaces/inkscape"
   version="1.1"
   id="svg2"
   width="1024"
   height="670"
   viewBox="0 0 1024 670"
   sodipodi:docname="RT_2018_noirweb.svg"
   inkscape:version="0.92.2 (5c3e80d, 2017-08-06)">
  <metadata
     id="metadata8">
    <rdf:RDF>
      <cc:Work
         rdf:about="">
        <dc:format>image/svg+xml</dc:format>
        <dc:type
           rdf:resource="http://purl.org/dc/dcmitype/StillImage" />
        <dc:title></dc:title>
      </cc:Work>
    </rdf:RDF>
  </metadata>
  <defs
     id="defs6" />
  <sodipodi:namedview
     pagecolor="#ffffff"
     bordercolor="#666666"
     borderopacity="1"
     objecttolerance="10"
     gridtolerance="10"
     guidetolerance="10"
     inkscape:pageopacity="0"
     inkscape:pageshadow="2"
     inkscape:window-width="1440"
     inkscape:window-height="836"
     id="namedview4"
     showgrid="false"
     inkscape:zoom="0.4981409"
     inkscape:cx="475.13162"
     inkscape:cy="265.7133"
     inkscape:window-x="0"
     inkscape:window-y="27"
     inkscape:window-maximized="1"
     inkscape:current-layer="svg2" />
  <path
     style="fill:#1a1a1a"
     d="m 521.9401,574.27647 c -0.3825,-5.5 -1.15724,-12.925 -1.72163,-16.5 -0.5644,-3.575 -1.2802,-10.2125 -1.59068,-14.75 -0.31048,-4.5375 -0.91547,-8.25 -1.34441,-8.25 -0.42894,0 -1.09588,3.372 -1.48208,7.49333 -0.68827,7.3449 -2.47575,11.35632 -2.59145,5.81569 -0.0323,-1.54496 -0.47444,-9.10902 -0.98261,-16.80902 -2.45143,-37.1448 -2.8828,-65.07554 -3.01935,-195.5 -0.0809,-77.275 -0.43787,-142.66375 -0.79324,-145.30833 l -0.64614,-4.80834 -7,3.67 c -16.28006,8.53539 -21.23638,13.21792 -25.71462,24.29413 -2.2667,5.60634 -2.28538,6.03256 -2.28538,52.15254 0,46.13586 -0.0174,46.53254 -2.2221,50.65547 -4.24519,7.9388 -11.14623,11.29529 -19.23416,9.35502 -2.68312,-0.64367 -5.66034,-2.03435 -6.61606,-3.0904 -2.10739,-2.32864 -1.31979,-2.43278 2.69549,-0.3564 3.59804,1.86062 9.73758,2.11639 12.70327,0.5292 5.21827,-2.79273 6.601,-13.80818 2.80947,-22.38149 -1.53818,-3.4781 -2.38167,-7.44086 -2.49715,-11.73179 -0.25918,-9.63003 -1.07847,-21.29913 -2.2453,-31.97961 -1.47197,-13.47365 -1.95764,-34.61208 -0.9305,-40.5 1.5228,-8.72932 1.87105,-9.89992 4.37896,-14.71974 4.74185,-9.11309 11.7758,-17.23591 18.0073,-20.79487 4.58625,-2.61931 4.80187,-2.90148 2.57783,-3.37335 -20.89937,-4.43415 -23.99142,-5.42386 -28.50815,-9.12498 -6.85896,-5.62041 -12.20877,-12.95642 -14.03853,-19.25058 -2.35967,-8.11696 -1.4612,-30.28513 1.57702,-38.91024 8.11813,-23.046328 32.50688,-35.312458 70.23359,-35.323418 5.33004,-0.002 9.95776,0.42882 10.28381,0.95638 0.80492,1.30239 1.29449,15.06053 2.02974,57.040798 0.34197,19.525 0.81491,36.175 1.05098,37 0.37138,1.29786 5.31528,1.5 36.68686,1.5 19.94169,0 37.95482,0.27885 40.02917,0.61966 2.07434,0.34082 4.0134,0.22832 4.30901,-0.25 1.44367,-2.33591 5.31077,-0.66575 8.78568,3.79445 1.99857,2.56526 3.63377,5.21417 3.63377,5.88646 0,1.2536 -7.9062,3.06074 -11.5,2.62858 -6.06848,-0.72975 -9.50139,-2.33649 -10.10161,-4.72797 -0.35255,-1.40467 -0.0874,-3.12096 0.61239,-3.96417 1.07658,-1.2972 0.0378,-1.49707 -8.13834,-1.56579 -20.88482,-0.17555 -43.4855,0.73229 -52.62698,2.11394 -12.9366,1.95526 -11.6438,-4.21942 -10.85137,51.82858 0.66452,47.00074 0.86411,99.55206 0.53983,142.13626 -0.0859,11.275 -0.0981,54.925 -0.0273,97 0.11941,70.90973 -0.63168,100.97004 -2.83592,113.5 -0.58471,3.32377 -0.82124,2.30942 -1.39913,-6 z M 508.10184,181.80852 c -0.21486,-0.62394 -0.86644,-0.62394 -1.83333,0 -1.33333,0.8604 -1.33333,1.0755 0,1.9359 1.53807,0.99252 2.49413,-0.017 1.83333,-1.9359 z m 0.16667,-51.58171 V 88.677162 l -6.25,0.62699 c -25.19122,2.52716 -38.11666,7.87729 -45.47307,18.822338 -4.46487,6.64296 -5.26888,10.34482 -5.24513,24.14998 0.0234,13.62302 0.99499,16.76016 7.26474,23.45782 4.35799,4.65542 10.35318,7.93557 19.86381,10.86808 6.54402,2.01778 9.86658,2.61888 22.83965,4.13201 3.575,0.41698 6.6125,0.82203 6.75,0.90012 0.1375,0.0781 0.25,-18.55538 0.25,-41.40769 z m 121.5,416.67785 c -9.50022,-2.48351 -16.37365,-8.09317 -20.70486,-16.89799 -3.12204,-6.34672 -3.29514,-7.2773 -3.29514,-17.71441 0,-9.77635 0.29266,-11.63975 2.60111,-16.56142 3.58997,-7.65389 8.03125,-12.38095 14.71729,-15.66428 4.94379,-2.42777 6.85033,-2.78943 14.6816,-2.78504 7.258,0.004 9.96778,0.44913 14,2.29935 13.93302,6.3933 21.43141,22.27525 18.60299,39.40203 -2.85353,17.27878 -14.09856,27.71873 -30.60299,28.41198 -3.85,0.16172 -8.35,-0.0589 -10,-0.49022 z m 15.57772,-8.26962 c 5.07071,-1.51922 10.47435,-6.10585 13.2013,-11.2053 1.90832,-3.56859 2.22098,-5.7018 2.22098,-15.15327 0,-9.45147 -0.31266,-11.58468 -2.22098,-15.15327 -6.24273,-11.67404 -21.159,-15.70938 -32.81612,-8.87785 -5.62351,3.29559 -8.07854,6.87029 -10.07996,14.67714 -5.95505,23.22861 9.46496,41.77355 29.69478,35.71255 z M 121.26851,512.27647 v -34.5 h 4.5 4.5 v 30.5 30.5 h 17 17 v 4 4 h -21.5 -21.5 z m 54,0 v -34.5 h 24.5 24.5 v 4 4 h -20 -20 v 10.5 10.5 h 19 19 v 4 4 h -19 -19 v 12 12 h 21 21 v 4 4 h -25.5 -25.5 z m 90.98485,32 c -0.008,-1.375 -0.0152,-16.225 -0.0152,-33 0,-16.775 0.007,-31.175 0.0152,-32 0.0129,-1.27887 2.70561,-1.49648 18.26515,-1.47614 10.0375,0.0131 20.01517,0.43325 22.17261,0.93361 8.08382,1.87487 12.76015,7.42112 13.3704,15.85765 0.71541,9.89042 -4.10809,16.51633 -13.99336,19.2223 l -3.70034,1.01293 4.47747,4.12719 c 3.78314,3.48718 18.42322,25.05811 18.42322,27.14508 0,0.37256 -2.37889,0.67738 -5.28643,0.67738 h -5.28643 l -5.66376,-9.2812 C 296.79558,517.44363 294.80971,515.7859 283.01851,515.78021 l -7.75,-0.004 v 15.5 15.5 h -4.5 c -4.12929,0 -4.50125,-0.20595 -4.51515,-2.5 z m 38.03333,-38.12395 c 6.38069,-2.55305 8.56725,-8.40948 5.4154,-14.50449 -2.45256,-4.74273 -6.56708,-5.87156 -21.40146,-5.87156 h -13.03212 v 11 11 h 12.47976 c 9.18365,0 13.55173,-0.42891 16.53842,-1.62395 z m 23.28572,39.37395 c 0.28483,-0.6875 3.28984,-8.45 6.67781,-17.25 3.38797,-8.8 8.77431,-22.75 11.96964,-31 3.19534,-8.25 6.1188,-16.0125 6.49657,-17.25 0.58844,-1.9276 1.37831,-2.25 5.51248,-2.25 2.93112,0 5.019,0.49074 5.3182,1.25 0.27092,0.6875 6.44905,15.65 13.72917,33.25 7.28013,17.6 13.46455,32.58803 13.74317,33.30672 0.38626,0.99639 -0.74506,1.23388 -4.76361,1 l -5.27017,-0.30672 -3.96014,-10.25 -3.96014,-10.25 h -14.30345 -14.30346 l -3.80744,10.5 -3.80744,10.5 h -4.89453 c -3.52516,0 -4.74965,-0.34972 -4.37666,-1.25 z m 41.70448,-28.5 c 0.005,-0.4125 -2.35789,-7.15825 -5.25,-14.99056 -4.82485,-13.06648 -6.75838,-16.71151 -6.75838,-12.74066 0,1.55081 -2.74137,9.66923 -7.33803,21.73122 l -2.57234,6.75 h 10.95518 c 6.02536,0 10.95896,-0.3375 10.96357,-0.75 z m 30.99162,-4.75 v -34.5 h 4.5 4.5 v 34.5 34.5 h -4.5 -4.5 z m 25,0.081 v -34.58098 h 15.45078 c 8.49793,0 17.74227,0.49144 20.54299,1.09208 7.46212,1.60034 12.86223,6.1254 16.89557,14.15776 2.93253,5.8401 3.45554,8.01553 3.88055,16.14086 0.88605,16.93967 -4.73393,29.35771 -15.58924,34.44637 -5.36932,2.51699 -6.65345,2.68107 -23.43065,2.99391 l -17.75,0.33099 z m 37.2841,24.03691 c 4.82848,-2.39649 8.22376,-8.19042 9.73818,-16.61789 2.10657,-11.72269 -0.25386,-22.53487 -6.2786,-28.75978 -4.09347,-4.22946 -8.00217,-5.22785 -20.49368,-5.23464 l -10.25,-0.006 v 26.58375 26.58375 l 11.75,-0.33573 c 8.982,-0.25665 12.64144,-0.77818 15.5341,-2.21388 z m 103.7159,-20.11791 v -30.5 h -10.8865 -10.8865 l -0.41683,-2.84002 c -0.22925,-1.56201 -0.24283,-3.36201 -0.0302,-4 0.28059,-0.84167 7.77297,-1.15998 27.30336,-1.15998 h 26.91667 v 4 4 h -11.5 -11.5 v 30.5 30.5 h -4.5 -4.5 z m 116,-4 v -34.5 h 4.5 4.5 v 30.5 30.5 h 17 17 v 4 4 h -21.5 -21.5 z m 53,0 v -34.5 h 4.5 4.5 v 17.23928 17.23929 l 17.26042,-17.23929 17.26043,-17.23928 5.98957,0.0451 5.98958,0.0451 -14.34184,13.94584 -14.34184,13.94585 3.82517,5.25908 c 2.10385,2.8925 8.91298,12.14353 15.13142,20.55783 l 11.30624,15.29875 -6.24484,-0.29875 -6.24483,-0.29874 -11.1803,-15.83556 c -6.14917,-8.70956 -11.68539,-16.34065 -12.30271,-16.95797 -0.82988,-0.82988 -2.55379,0.29119 -6.61444,4.3014 l -5.49203,5.42375 v 11.78416 11.78416 h -4.5 -4.5 z m 66,0 v -34.5 h 4.5 4.5 v 34.5 34.5 h -4.5 -4.5 z m 26,0 v -34.5 h 24.5 24.5 v 4 4 h -20 -20 v 10.5 10.5 h 19 19 v 4 4 h -19 -19 v 12 12 h 21 21 v 4 4 h -25.5 -25.5 z m 63,0 v -34.5 h 4.8388 4.8388 l 17.9112,26.75 17.9112,26.75 0.2663,-26.75 0.2664,-26.75 h 3.9836 3.9837 v 34.5 34.5 h -4.5416 -4.5416 l -17.7084,-26.75 -17.7084,-26.75 -0.2663,26.75 -0.2664,26.75 h -4.4836 -4.4837 z"
     id="path14"
     inkscape:connector-curvature="0" />
</svg>
