<?xml version="1.0" encoding="UTF-8" ?>
<!DOCTYPE svg PUBLIC "-//W3C//DTD SVG 1.1//EN" "http://www.w3.org/Graphics/SVG/1.1/DTD/svg11.dtd">
<svg width="1280pt" height="1453pt" viewBox="0 0 1280 1453" version="1.1" xmlns="http://www.w3.org/2000/svg">
<g id="#264de4ff">
<path fill="#264de4" opacity="1.00" d=" M 0.00 1.48 C 375.33 1.43 750.66 1.47 1125.99 1.46 C 1177.32 1.53 1228.67 1.30 1280.00 1.57 L 1280.00 2.40 C 1278.70 5.44 1279.09 8.80 1278.63 12.00 C 1277.91 21.73 1276.33 31.41 1276.29 41.19 L 1276.20 41.93 C 1275.09 49.28 1274.46 56.73 1274.10 64.16 C 1271.98 64.93 1272.73 67.58 1273.46 69.11 C 1271.29 93.47 1269.27 117.83 1266.89 142.17 C 1266.39 149.52 1265.42 156.84 1265.32 164.21 L 1265.26 164.69 C 1262.92 183.44 1261.60 202.34 1260.08 221.17 C 1258.15 222.12 1258.74 224.55 1259.43 226.12 C 1258.55 237.43 1257.56 248.73 1256.34 260.00 C 1256.11 262.25 1256.18 264.51 1256.34 266.77 C 1254.50 282.45 1253.64 298.24 1251.87 313.93 C 1251.84 316.44 1251.87 319.00 1251.08 321.43 C 1249.23 327.58 1248.80 334.24 1249.56 340.61 C 1248.06 356.69 1247.07 372.83 1245.19 388.88 C 1243.51 390.15 1243.68 392.35 1244.49 394.08 C 1244.25 404.06 1243.02 414.01 1242.17 423.95 C 1241.31 427.60 1241.17 431.37 1241.05 435.11 L 1241.00 436.04 C 1239.32 437.96 1239.18 440.57 1240.17 442.86 C 1240.16 443.32 1240.15 444.23 1240.14 444.69 C 1236.25 484.07 1233.00 523.53 1229.38 562.94 C 1228.85 572.04 1227.43 581.08 1227.30 590.20 L 1227.21 590.96 C 1225.69 601.24 1225.20 611.66 1224.15 622.00 C 1223.62 630.59 1221.94 639.13 1222.28 647.76 C 1222.20 648.23 1222.05 649.19 1221.98 649.67 C 1218.93 675.03 1217.38 700.59 1214.84 726.03 C 1212.67 752.06 1209.99 778.07 1208.15 804.13 C 1208.07 804.77 1207.92 806.07 1207.84 806.72 C 1207.36 809.37 1207.12 812.06 1207.31 814.76 C 1206.41 823.53 1205.91 832.34 1204.85 841.09 C 1203.72 847.38 1203.29 853.77 1203.15 860.16 C 1199.61 902.36 1195.68 944.53 1191.92 986.72 C 1190.31 994.69 1190.48 1002.86 1189.46 1010.91 C 1188.56 1017.22 1188.42 1023.60 1188.02 1029.96 L 1187.93 1030.69 C 1186.69 1038.76 1186.07 1046.94 1185.76 1055.09 L 1185.69 1055.84 C 1184.13 1065.82 1183.87 1075.94 1182.74 1085.97 C 1181.27 1103.37 1179.38 1120.76 1178.30 1138.18 L 1178.23 1138.94 C 1176.65 1151.58 1175.95 1164.31 1174.64 1176.98 C 1173.80 1183.53 1173.15 1190.14 1173.30 1196.76 C 1173.23 1197.24 1173.07 1198.20 1172.99 1198.68 C 1171.81 1202.67 1171.73 1206.82 1171.62 1210.95 C 1169.37 1234.61 1167.34 1258.30 1165.26 1281.98 C 1164.73 1286.98 1164.23 1291.99 1164.20 1297.03 L 1164.02 1297.94 C 1163.25 1301.11 1163.27 1304.40 1163.21 1307.66 L 1162.86 1307.77 C 1159.50 1308.58 1156.16 1309.46 1152.90 1310.61 C 1152.20 1310.76 1150.80 1311.07 1150.11 1311.23 C 1149.53 1311.42 1148.37 1311.82 1147.80 1312.01 C 1137.01 1315.26 1126.05 1317.93 1115.26 1321.18 C 1112.55 1321.16 1109.86 1321.54 1107.58 1323.09 L 1106.99 1323.27 C 1103.61 1324.11 1100.20 1324.91 1096.90 1326.03 L 1096.57 1326.12 C 1093.36 1326.28 1090.17 1326.96 1087.51 1328.82 C 1084.69 1329.60 1081.87 1330.36 1079.07 1331.16 C 1074.56 1331.76 1070.23 1333.15 1065.99 1334.73 C 1065.52 1334.87 1064.59 1335.14 1064.12 1335.27 C 1058.92 1336.24 1053.80 1337.63 1048.83 1339.42 C 1048.14 1339.59 1046.76 1339.93 1046.07 1340.10 C 1044.65 1339.19 1043.61 1339.48 1042.97 1340.97 C 1032.15 1344.42 1021.14 1347.18 1010.21 1350.23 C 1006.70 1350.76 1003.22 1351.59 999.91 1352.89 C 997.35 1353.78 994.76 1354.63 992.11 1355.17 C 990.71 1354.40 989.63 1354.67 988.88 1356.00 L 988.20 1356.18 C 984.01 1357.08 979.85 1358.17 975.82 1359.65 C 968.15 1362.41 960.12 1363.93 952.34 1366.34 C 946.23 1367.75 940.33 1369.95 934.18 1371.15 C 933.61 1371.36 932.47 1371.77 931.90 1371.98 L 931.06 1372.18 C 927.93 1372.80 924.82 1373.53 921.82 1374.61 C 914.05 1377.19 906.09 1379.22 898.14 1381.14 C 896.18 1380.37 894.03 1380.85 892.91 1382.67 C 871.95 1388.64 850.98 1394.55 829.93 1400.20 C 827.76 1399.54 825.28 1399.89 823.96 1401.91 L 823.09 1402.10 C 819.85 1402.65 816.61 1403.31 813.58 1404.60 C 808.51 1406.43 803.27 1407.69 798.05 1408.98 C 795.53 1409.39 793.05 1409.97 790.72 1411.00 C 787.02 1412.25 783.19 1413.07 779.47 1414.22 C 775.99 1414.39 772.33 1414.73 769.47 1416.93 L 769.01 1417.06 C 760.93 1418.59 753.14 1421.29 745.22 1423.43 C 740.44 1424.69 735.65 1425.91 731.00 1427.59 C 729.06 1428.15 727.12 1428.71 725.18 1429.22 C 721.96 1429.63 718.87 1430.62 715.88 1431.84 C 694.99 1437.61 674.13 1443.59 653.18 1449.15 C 649.96 1449.59 646.84 1450.50 643.87 1451.79 C 643.36 1452.00 642.34 1452.41 641.83 1452.62 C 641.67 1452.72 641.34 1452.91 641.18 1453.00 L 638.41 1453.00 C 634.12 1451.07 629.55 1449.84 624.93 1449.07 C 612.93 1445.94 601.03 1442.45 589.10 1439.12 C 588.42 1437.73 587.36 1437.40 585.93 1438.12 C 585.51 1438.02 584.69 1437.82 584.28 1437.72 C 577.57 1435.54 570.80 1433.46 563.89 1431.97 L 563.12 1431.74 C 559.78 1430.52 556.36 1429.55 552.83 1429.11 C 543.27 1426.34 533.62 1423.95 524.09 1421.08 C 523.32 1419.85 522.24 1419.46 520.86 1419.91 L 519.94 1419.78 C 518.67 1417.75 516.09 1417.03 513.98 1418.15 C 513.62 1418.07 512.89 1417.90 512.53 1417.81 C 509.46 1415.92 505.89 1415.23 502.34 1415.09 C 493.64 1412.57 484.81 1410.49 476.18 1407.70 C 460.16 1402.87 444.02 1398.36 427.78 1394.33 C 425.89 1393.78 424.01 1393.24 422.13 1392.71 C 419.10 1391.56 415.99 1390.68 412.80 1390.14 C 397.87 1386.17 382.97 1382.12 368.16 1377.74 C 364.97 1376.52 361.69 1375.55 358.29 1375.21 C 343.60 1370.71 328.57 1367.34 313.98 1362.53 C 312.60 1360.66 310.23 1359.93 308.10 1360.95 C 284.55 1354.88 261.19 1348.09 237.77 1341.58 C 237.64 1341.54 237.38 1341.47 237.25 1341.43 C 200.17 1331.21 163.08 1321.00 126.08 1310.51 C 123.35 1309.47 120.52 1308.76 117.68 1308.16 L 116.75 1307.83 C 115.74 1295.19 114.59 1282.56 113.39 1269.94 C 113.19 1265.46 112.79 1261.00 111.96 1256.61 C 111.89 1256.14 111.74 1255.22 111.67 1254.75 C 111.64 1242.75 109.49 1230.89 108.93 1218.92 C 107.00 1202.40 106.27 1185.76 104.29 1169.25 C 101.27 1131.12 97.53 1093.06 94.27 1054.96 C 94.28 1051.19 93.62 1047.47 92.97 1043.78 C 92.84 1042.31 92.74 1040.85 92.61 1039.40 C 91.83 1029.22 91.04 1019.04 90.20 1008.87 C 88.26 990.94 87.26 972.91 85.14 955.02 C 84.39 951.42 84.37 947.74 84.49 944.10 C 85.09 942.38 85.48 940.16 83.72 939.00 L 83.63 938.29 C 83.47 932.11 82.82 925.96 82.06 919.83 C 82.00 919.42 81.88 918.61 81.82 918.20 C 81.46 907.07 79.81 896.04 79.20 884.93 C 79.04 881.80 78.59 878.70 77.98 875.64 C 77.91 875.18 77.77 874.26 77.69 873.79 C 77.87 870.78 77.62 867.78 77.21 864.81 C 77.06 863.33 76.88 861.86 76.72 860.41 C 73.10 815.59 68.86 770.79 64.94 725.98 C 64.18 719.86 64.36 713.63 62.97 707.59 C 62.90 707.13 62.76 706.20 62.69 705.74 C 62.78 696.04 61.40 686.42 60.31 676.82 C 59.04 663.94 57.94 651.05 56.68 638.16 C 56.77 634.91 56.69 631.66 56.24 628.45 C 54.11 605.30 52.12 582.14 50.08 558.98 C 49.38 552.93 49.26 546.82 48.15 540.83 C 48.05 539.31 47.92 537.80 47.78 536.31 C 47.45 525.17 45.85 514.11 45.05 503.01 C 44.84 499.90 44.53 496.80 43.98 493.74 C 43.93 493.28 43.83 492.34 43.78 491.87 C 43.01 478.57 41.53 465.31 40.62 452.02 C 41.27 450.37 41.86 448.17 39.96 447.10 C 37.25 414.87 34.47 382.63 31.35 350.43 C 31.67 347.51 32.22 344.44 30.86 341.70 C 29.74 336.45 30.04 331.02 29.09 325.75 C 27.48 312.24 26.44 298.67 25.39 285.12 C 23.05 263.22 21.62 241.25 19.44 219.35 C 18.93 204.89 16.97 190.50 15.98 176.07 C 15.18 169.98 15.06 163.82 14.11 157.75 C 13.98 156.60 13.85 155.45 13.71 154.30 C 13.18 145.12 12.62 135.90 11.30 126.80 C 9.10 105.24 7.36 83.63 5.49 62.06 C 3.86 46.05 2.39 30.04 1.37 14.01 C 1.58 11.80 2.43 9.26 1.04 7.27 L 0.48 7.06 C 0.36 6.73 0.12 6.07 0.00 5.75 L 0.00 1.48 M 640.27 108.21 C 639.17 113.44 640.22 118.71 640.02 123.98 C 640.01 155.33 639.99 186.68 639.98 218.04 C 640.15 234.59 639.66 251.15 640.23 267.69 C 772.83 267.62 905.42 267.66 1038.02 267.67 C 1042.42 267.03 1041.54 272.74 1040.23 275.23 C 1040.69 273.01 1040.55 270.73 1040.61 268.48 C 906.40 268.59 772.19 268.56 637.97 268.50 C 504.74 268.45 371.51 268.56 238.28 268.44 C 239.53 282.30 240.93 296.10 242.05 309.97 C 245.47 349.46 249.50 388.91 252.66 428.45 C 270.09 428.92 287.55 428.52 304.99 428.65 C 416.69 428.61 528.40 428.74 640.10 428.58 C 639.84 481.37 640.11 534.15 639.96 586.93 C 639.95 588.90 639.94 590.96 640.89 592.77 C 640.48 592.76 639.65 592.74 639.24 592.73 C 515.22 592.86 391.20 592.62 267.19 592.85 C 269.39 617.29 271.35 641.75 273.73 666.16 C 275.30 678.72 275.62 691.46 277.12 704.05 C 278.25 717.34 279.55 730.66 280.68 743.99 C 280.84 747.01 280.74 750.11 281.79 753.01 C 400.93 752.89 520.06 753.10 639.19 752.89 C 640.06 754.72 640.01 756.74 639.77 758.73 C 640.09 781.46 640.02 804.27 640.01 827.04 C 640.00 887.77 639.99 948.50 640.04 1009.24 C 580.28 993.23 520.55 977.01 460.82 960.86 C 457.01 918.34 453.16 875.83 449.53 833.33 C 427.03 833.00 404.51 833.29 382.00 833.19 C 350.76 833.26 319.51 833.04 288.27 833.30 C 288.83 834.79 289.39 836.29 289.26 837.93 C 289.20 843.65 290.39 849.29 290.56 855.01 C 295.52 909.87 300.36 964.84 305.31 1019.76 C 307.00 1040.90 309.41 1061.96 310.75 1083.12 C 310.37 1084.73 312.41 1084.88 313.44 1085.32 C 397.80 1108.81 482.20 1132.13 566.55 1155.64 C 576.78 1158.26 586.80 1161.68 597.12 1163.91 C 610.47 1168.00 624.00 1171.60 637.51 1175.14 L 636.96 1175.36 C 638.29 1175.44 639.63 1175.51 640.97 1175.58 C 639.42 1179.86 639.70 1184.55 640.00 1189.03 C 640.11 1240.00 639.80 1290.98 640.15 1341.95 C 655.27 1337.06 670.94 1334.12 685.95 1328.91 C 688.93 1328.52 691.85 1327.86 694.63 1326.68 C 717.95 1320.34 741.14 1313.88 764.43 1307.44 C 773.67 1304.53 783.23 1302.75 792.38 1299.57 C 796.79 1297.95 801.59 1297.79 805.96 1296.01 C 832.20 1288.35 858.72 1281.65 884.95 1273.90 C 893.49 1272.07 901.68 1268.85 910.27 1267.23 C 915.23 1264.98 920.70 1264.47 925.81 1262.67 C 937.17 1259.38 948.67 1256.59 959.98 1253.08 C 993.35 1244.22 1026.49 1234.49 1059.87 1225.64 C 1061.20 1225.24 1063.14 1225.01 1063.44 1223.33 C 1066.64 1192.26 1068.71 1161.03 1071.84 1129.93 C 1076.51 1077.96 1081.03 1025.96 1085.70 973.99 C 1087.14 962.05 1087.39 950.01 1089.04 938.10 C 1091.82 903.37 1095.26 868.71 1098.18 833.99 C 1099.47 818.97 1101.29 804.02 1102.09 788.97 C 1105.28 757.37 1107.69 725.68 1110.79 694.05 C 1120.63 582.36 1130.58 470.69 1140.65 359.05 C 1142.31 336.43 1144.94 313.90 1146.50 291.28 C 1148.02 282.67 1147.64 273.86 1149.21 265.27 C 1150.65 242.16 1153.31 219.15 1155.16 196.08 C 1156.82 176.61 1158.72 157.13 1160.39 137.66 C 1160.76 127.87 1162.47 118.16 1162.79 108.35 C 1160.85 108.28 1158.93 108.21 1157.02 108.20 C 984.77 108.24 812.52 108.20 640.27 108.21 Z" />
</g>
<g id="#3438484f">
<path fill="#343848" opacity="0.31" d=" M 1278.63 12.00 C 1279.09 8.80 1278.70 5.44 1280.00 2.40 L 1280.00 11.53 L 1278.63 12.00 Z" />
</g>
<g id="#ebebecff">
<path fill="#ebebec" opacity="1.00" d=" M 0.48 7.06 L 1.04 7.27 C 2.43 9.26 1.58 11.80 1.37 14.01 C -0.00 11.99 0.54 9.36 0.48 7.06 Z" />
<path fill="#ebebec" opacity="1.00" d=" M 1276.29 41.19 C 1276.33 31.41 1277.91 21.73 1278.63 12.00 C 1278.31 21.76 1277.05 31.46 1276.29 41.19 Z" />
<path fill="#ebebec" opacity="1.00" d=" M 1276.20 41.93 C 1275.72 50.80 1274.01 59.59 1274.40 68.48 C 1274.22 68.81 1273.87 69.49 1273.70 69.82 C 1271.00 101.29 1268.02 132.76 1265.32 164.21 C 1265.42 156.84 1266.39 149.52 1266.89 142.17 C 1269.27 117.83 1271.29 93.47 1273.46 69.11 L 1273.79 68.78 C 1274.21 67.28 1274.17 65.70 1274.10 64.16 C 1274.46 56.73 1275.09 49.28 1276.20 41.93 Z" />
<path fill="#ebebec" opacity="1.00" d=" M 11.30 126.80 C 12.62 135.90 13.18 145.12 13.71 154.30 C 12.73 145.16 12.01 135.97 11.30 126.80 Z" />
<path fill="#ebebec" opacity="1.00" d=" M 14.11 157.75 C 15.06 163.82 15.18 169.98 15.98 176.07 C 16.97 190.50 18.93 204.89 19.44 219.35 C 17.77 198.81 15.65 178.31 14.11 157.75 Z" />
<path fill="#ebebec" opacity="1.00" d=" M 1260.08 221.17 C 1261.60 202.34 1262.92 183.44 1265.26 164.69 C 1264.04 178.10 1262.81 191.49 1261.72 204.91 C 1261.53 210.97 1259.93 216.97 1260.55 223.05 C 1260.90 225.79 1259.52 228.29 1259.33 230.98 C 1258.36 242.91 1257.11 254.82 1256.34 266.77 C 1256.18 264.51 1256.11 262.25 1256.34 260.00 C 1257.56 248.73 1258.55 237.43 1259.43 226.12 L 1259.91 225.83 C 1260.29 224.30 1260.17 222.72 1260.08 221.17 Z" />
<path fill="#ebebec" opacity="1.00" d=" M 238.28 268.44 C 371.51 268.56 504.74 268.45 637.97 268.50 C 640.58 272.92 639.64 278.14 639.72 283.01 C 639.65 324.33 639.79 365.66 639.70 406.98 C 639.57 413.94 640.14 420.94 639.24 427.87 C 639.74 428.04 640.73 428.40 641.23 428.57 L 640.10 428.58 C 528.40 428.74 416.69 428.61 304.99 428.65 C 287.55 428.52 270.09 428.92 252.66 428.45 C 249.50 388.91 245.47 349.46 242.05 309.97 C 240.93 296.10 239.53 282.30 238.28 268.44 Z" />
<path fill="#ebebec" opacity="1.00" d=" M 29.09 325.75 C 30.04 331.02 29.74 336.45 30.86 341.70 C 30.80 344.61 30.82 347.54 31.35 350.43 C 34.47 382.63 37.25 414.87 39.96 447.10 C 39.61 448.72 39.57 450.62 40.62 452.02 C 41.53 465.31 43.01 478.57 43.78 491.87 C 42.18 479.49 41.86 467.01 40.35 454.62 C 39.58 452.54 39.21 450.34 39.55 448.14 C 40.02 444.35 39.15 440.62 38.65 436.89 C 35.95 399.80 31.95 362.82 29.09 325.75 Z" />
<path fill="#ebebec" opacity="1.00" d=" M 1242.17 423.95 C 1241.95 427.68 1241.30 431.37 1241.05 435.11 C 1241.17 431.37 1241.31 427.60 1242.17 423.95 Z" />
<path fill="#ebebec" opacity="1.00" d=" M 1240.17 442.86 C 1239.18 440.57 1239.32 437.96 1241.00 436.04 C 1241.56 438.36 1241.05 440.69 1240.17 442.86 Z" />
<path fill="#ebebec" opacity="1.00" d=" M 1229.38 562.94 C 1233.00 523.53 1236.25 484.07 1240.14 444.69 C 1236.04 493.20 1231.55 541.69 1227.30 590.20 C 1227.43 581.08 1228.85 572.04 1229.38 562.94 Z" />
<path fill="#ebebec" opacity="1.00" d=" M 43.98 493.74 C 44.53 496.80 44.84 499.90 45.05 503.01 C 45.85 514.11 47.45 525.17 47.78 536.31 C 46.41 522.15 45.18 507.93 43.98 493.74 Z" />
<path fill="#ebebec" opacity="1.00" d=" M 48.15 540.83 C 49.26 546.82 49.38 552.93 50.08 558.98 C 52.12 582.14 54.11 605.30 56.24 628.45 C 56.69 631.66 56.77 634.91 56.68 638.16 C 54.04 605.70 50.95 573.28 48.15 540.83 Z" />
<path fill="#ebebec" opacity="1.00" d=" M 1227.21 590.96 C 1225.61 609.89 1223.68 628.82 1222.28 647.76 C 1221.94 639.13 1223.62 630.59 1224.15 622.00 C 1225.20 611.66 1225.69 601.24 1227.21 590.96 Z" />
<path fill="#ebebec" opacity="1.00" d=" M 267.19 592.85 C 391.20 592.62 515.22 592.86 639.24 592.73 C 639.57 595.47 639.77 598.24 639.75 601.01 C 639.74 631.34 639.69 661.68 639.73 692.01 C 639.80 712.30 639.49 732.60 639.90 752.89 L 639.19 752.89 C 520.06 753.10 400.93 752.89 281.79 753.01 C 280.74 750.11 280.84 747.01 280.68 743.99 C 279.55 730.66 278.25 717.34 277.12 704.05 C 275.62 691.46 275.30 678.72 273.73 666.16 C 271.35 641.75 269.39 617.29 267.19 592.85 Z" />
<path fill="#ebebec" opacity="1.00" d=" M 1214.84 726.03 C 1217.38 700.59 1218.93 675.03 1221.98 649.67 C 1217.32 701.16 1212.92 752.65 1208.15 804.13 C 1209.99 778.07 1212.67 752.06 1214.84 726.03 Z" />
<path fill="#ebebec" opacity="1.00" d=" M 60.31 676.82 C 61.40 686.42 62.78 696.04 62.69 705.74 C 62.34 696.06 60.85 686.49 60.31 676.82 Z" />
<path fill="#ebebec" opacity="1.00" d=" M 62.97 707.59 C 64.36 713.63 64.18 719.86 64.94 725.98 C 68.86 770.79 73.10 815.59 76.72 860.41 C 75.80 852.39 74.95 844.35 74.60 836.29 C 74.26 835.66 73.93 835.03 73.60 834.41 C 74.19 830.25 73.80 826.06 73.14 821.95 C 69.82 783.81 66.40 745.72 62.97 707.59 Z" />
<path fill="#ebebec" opacity="1.00" d=" M 1207.31 814.76 C 1207.12 812.06 1207.36 809.37 1207.84 806.72 C 1207.84 809.40 1207.84 812.11 1207.31 814.76 Z" />
<path fill="#ebebec" opacity="1.00" d=" M 288.27 833.30 C 319.51 833.04 350.76 833.26 382.00 833.19 C 404.51 833.29 427.03 833.00 449.53 833.33 C 453.16 875.83 457.01 918.34 460.82 960.86 C 520.55 977.01 580.28 993.23 640.04 1009.24 C 639.55 1009.55 639.07 1009.88 638.60 1010.23 C 638.90 1011.04 639.30 1011.88 639.49 1012.76 C 640.00 1063.49 639.33 1114.25 639.77 1164.99 C 639.76 1168.17 639.99 1171.46 638.99 1174.55 C 638.62 1174.70 637.88 1174.99 637.51 1175.14 C 624.00 1171.60 610.47 1168.00 597.12 1163.91 C 586.80 1161.68 576.78 1158.26 566.55 1155.64 C 482.20 1132.13 397.80 1108.81 313.44 1085.32 C 312.41 1084.88 310.37 1084.73 310.75 1083.12 C 309.41 1061.96 307.00 1040.90 305.31 1019.76 C 300.36 964.84 295.52 909.87 290.56 855.01 C 290.39 849.29 289.20 843.65 289.26 837.93 C 289.39 836.29 288.83 834.79 288.27 833.30 Z" />
<path fill="#ebebec" opacity="1.00" d=" M 1203.15 860.16 C 1203.29 853.77 1203.72 847.38 1204.85 841.09 C 1204.19 847.44 1203.81 853.82 1203.15 860.16 Z" />
<path fill="#ebebec" opacity="1.00" d=" M 77.21 864.81 C 77.62 867.78 77.87 870.78 77.69 873.79 L 77.65 873.55 C 77.04 870.67 77.18 867.72 77.21 864.81 Z" />
<path fill="#ebebec" opacity="1.00" d=" M 77.98 875.64 C 78.59 878.70 79.04 881.80 79.20 884.93 C 79.81 896.04 81.46 907.07 81.82 918.20 C 80.45 904.04 79.27 889.82 77.98 875.64 Z" />
<path fill="#ebebec" opacity="1.00" d=" M 82.06 919.83 C 82.82 925.96 83.47 932.11 83.63 938.29 C 82.91 932.15 82.39 925.99 82.06 919.83 Z" />
<path fill="#ebebec" opacity="1.00" d=" M 85.14 955.02 C 87.26 972.91 88.26 990.94 90.20 1008.87 C 91.04 1019.04 91.83 1029.22 92.61 1039.40 C 91.93 1034.98 91.42 1030.52 91.26 1026.05 C 89.56 1002.35 86.85 978.72 85.14 955.02 Z" />
<path fill="#ebebec" opacity="1.00" d=" M 1189.46 1010.91 C 1190.48 1002.86 1190.31 994.69 1191.92 986.72 C 1190.75 997.45 1190.32 1008.25 1188.86 1018.95 C 1188.63 1022.62 1188.98 1026.35 1188.02 1029.96 C 1188.42 1023.60 1188.56 1017.22 1189.46 1010.91 Z" />
<path fill="#ebebec" opacity="1.00" d=" M 1185.76 1055.09 C 1186.07 1046.94 1186.69 1038.76 1187.93 1030.69 C 1187.31 1038.83 1186.54 1046.97 1185.76 1055.09 Z" />
<path fill="#ebebec" opacity="1.00" d=" M 92.97 1043.78 C 93.62 1047.47 94.28 1051.19 94.27 1054.96 C 97.53 1093.06 101.27 1131.12 104.29 1169.25 L 103.99 1168.20 C 100.40 1126.72 96.62 1085.26 92.97 1043.78 Z" />
<path fill="#ebebec" opacity="1.00" d=" M 1182.74 1085.97 C 1183.87 1075.94 1184.13 1065.82 1185.69 1055.84 C 1183.37 1083.30 1180.92 1110.74 1178.30 1138.18 C 1179.38 1120.76 1181.27 1103.37 1182.74 1085.97 Z" />
<path fill="#ebebec" opacity="1.00" d=" M 1178.23 1138.94 C 1176.94 1154.95 1175.66 1171.00 1173.81 1186.99 C 1173.66 1190.24 1174.02 1193.54 1173.30 1196.76 C 1173.15 1190.14 1173.80 1183.53 1174.64 1176.98 C 1175.95 1164.31 1176.65 1151.58 1178.23 1138.94 Z" />
<path fill="#ebebec" opacity="1.00" d=" M 104.29 1169.25 C 106.27 1185.76 107.00 1202.40 108.93 1218.92 C 109.49 1230.89 111.64 1242.75 111.67 1254.75 C 110.92 1243.13 109.55 1231.55 108.62 1219.93 C 107.17 1215.06 108.42 1209.92 107.31 1204.99 C 106.23 1193.08 105.09 1181.18 104.29 1169.25 Z" />
<path fill="#ebebec" opacity="1.00" d=" M 1171.62 1210.95 C 1171.73 1206.82 1171.81 1202.67 1172.99 1198.68 C 1170.02 1231.46 1167.15 1264.26 1164.20 1297.03 C 1164.23 1291.99 1164.73 1286.98 1165.26 1281.98 C 1167.34 1258.30 1169.37 1234.61 1171.62 1210.95 Z" />
<path fill="#ebebec" opacity="1.00" d=" M 111.96 1256.61 C 112.79 1261.00 113.19 1265.46 113.39 1269.94 C 114.59 1282.56 115.74 1295.19 116.75 1307.83 L 116.30 1307.58 C 115.27 1290.55 113.25 1273.62 111.96 1256.61 Z" />
<path fill="#ebebec" opacity="1.00" d=" M 1163.21 1307.66 C 1163.27 1304.40 1163.25 1301.11 1164.02 1297.94 C 1163.74 1301.17 1163.88 1304.45 1163.21 1307.66 Z" />
<path fill="#ebebec" opacity="1.00" d=" M 117.68 1308.16 C 120.52 1308.76 123.35 1309.47 126.08 1310.51 C 123.28 1309.71 120.41 1309.16 117.68 1308.16 Z" />
<path fill="#ebebec" opacity="1.00" d=" M 1152.90 1310.61 C 1156.16 1309.46 1159.50 1308.58 1162.86 1307.77 C 1159.58 1308.85 1156.27 1309.86 1152.90 1310.61 Z" />
<path fill="#ebebec" opacity="1.00" d=" M 1096.90 1326.03 C 1100.20 1324.91 1103.61 1324.11 1106.99 1323.27 C 1103.69 1324.42 1100.31 1325.31 1096.90 1326.03 Z" />
<path fill="#ebebec" opacity="1.00" d=" M 1065.99 1334.73 C 1070.23 1333.15 1074.56 1331.76 1079.07 1331.16 C 1074.72 1332.38 1070.33 1333.47 1065.99 1334.73 Z" />
<path fill="#ebebec" opacity="1.00" d=" M 1048.83 1339.42 C 1053.80 1337.63 1058.92 1336.24 1064.12 1335.27 C 1059.03 1336.69 1053.94 1338.09 1048.83 1339.42 Z" />
<path fill="#ebebec" opacity="1.00" d=" M 1042.97 1340.97 C 1043.61 1339.48 1044.65 1339.19 1046.07 1340.10 C 1045.16 1340.90 1044.12 1341.19 1042.97 1340.97 Z" />
<path fill="#ebebec" opacity="1.00" d=" M 999.91 1352.89 C 1003.22 1351.59 1006.70 1350.76 1010.21 1350.23 C 1006.82 1351.27 1003.34 1352.00 999.91 1352.89 Z" />
<path fill="#ebebec" opacity="1.00" d=" M 975.82 1359.65 C 979.85 1358.17 984.01 1357.08 988.20 1356.18 C 984.11 1357.47 980.00 1358.68 975.82 1359.65 Z" />
<path fill="#ebebec" opacity="1.00" d=" M 308.10 1360.95 C 310.23 1359.93 312.60 1360.66 313.98 1362.53 C 311.85 1362.99 309.83 1362.09 308.10 1360.95 Z" />
<path fill="#ebebec" opacity="1.00" d=" M 921.82 1374.61 C 924.82 1373.53 927.93 1372.80 931.06 1372.18 C 929.46 1372.68 928.00 1373.50 926.56 1374.33 C 924.97 1373.90 923.39 1373.99 921.82 1374.61 Z" />
<path fill="#ebebec" opacity="1.00" d=" M 358.29 1375.21 C 361.69 1375.55 364.97 1376.52 368.16 1377.74 C 364.87 1376.89 361.59 1375.98 358.29 1375.21 Z" />
<path fill="#ebebec" opacity="1.00" d=" M 412.80 1390.14 C 415.99 1390.68 419.10 1391.56 422.13 1392.71 C 418.99 1391.97 415.89 1391.05 412.80 1390.14 Z" />
<path fill="#ebebec" opacity="1.00" d=" M 427.78 1394.33 C 444.02 1398.36 460.16 1402.87 476.18 1407.70 C 460.01 1403.37 443.89 1398.86 427.78 1394.33 Z" />
<path fill="#ebebec" opacity="1.00" d=" M 813.58 1404.60 C 816.61 1403.31 819.85 1402.65 823.09 1402.10 C 819.91 1402.90 816.75 1403.77 813.58 1404.60 Z" />
<path fill="#ebebec" opacity="1.00" d=" M 790.72 1411.00 C 793.05 1409.97 795.53 1409.39 798.05 1408.98 C 795.61 1409.68 793.18 1410.41 790.72 1411.00 Z" />
<path fill="#ebebec" opacity="1.00" d=" M 745.22 1423.43 C 753.14 1421.29 760.93 1418.59 769.01 1417.06 C 756.30 1420.47 743.77 1424.44 731.00 1427.59 C 735.65 1425.91 740.44 1424.69 745.22 1423.43 Z" />
<path fill="#ebebec" opacity="1.00" d=" M 513.98 1418.15 C 516.09 1417.03 518.67 1417.75 519.94 1419.78 C 517.84 1419.79 515.73 1419.34 513.98 1418.15 Z" />
<path fill="#ebebec" opacity="1.00" d=" M 552.83 1429.11 C 556.36 1429.55 559.78 1430.52 563.12 1431.74 C 559.68 1430.89 556.21 1430.15 552.83 1429.11 Z" />
<path fill="#ebebec" opacity="1.00" d=" M 715.88 1431.84 C 718.87 1430.62 721.96 1429.63 725.18 1429.22 C 722.08 1430.09 718.99 1431.00 715.88 1431.84 Z" />
<path fill="#ebebec" opacity="1.00" d=" M 563.89 1431.97 C 570.80 1433.46 577.57 1435.54 584.28 1437.72 C 577.42 1436.07 570.64 1434.02 563.89 1431.97 Z" />
<path fill="#ebebec" opacity="1.00" d=" M 624.93 1449.07 C 629.55 1449.84 634.12 1451.07 638.41 1453.00 L 637.31 1453.00 C 633.33 1451.23 629.12 1450.15 624.93 1449.07 Z" />
<path fill="#ebebec" opacity="1.00" d=" M 643.87 1451.79 C 646.84 1450.50 649.96 1449.59 653.18 1449.15 C 650.04 1449.93 646.95 1450.85 643.87 1451.79 Z" />
</g>
<g id="#5471e6fc">
<path fill="#5471e6" opacity="1.00" d=" M 1273.46 69.11 C 1272.73 67.58 1271.98 64.93 1274.10 64.16 C 1274.17 65.70 1274.21 67.28 1273.79 68.78 L 1273.46 69.11 Z" />
</g>
<g id="#2965f1ff">
<path fill="#2965f1" opacity="1.00" d=" M 640.27 108.21 C 812.52 108.20 984.77 108.24 1157.02 108.20 C 1158.93 108.21 1160.85 108.28 1162.79 108.35 C 1162.47 118.16 1160.76 127.87 1160.39 137.66 C 1158.72 157.13 1156.82 176.61 1155.16 196.08 C 1153.31 219.15 1150.65 242.16 1149.21 265.27 C 1147.64 273.86 1148.02 282.67 1146.50 291.28 C 1144.94 313.90 1142.31 336.43 1140.65 359.05 C 1130.58 470.69 1120.63 582.36 1110.79 694.05 C 1107.69 725.68 1105.28 757.37 1102.09 788.97 C 1101.29 804.02 1099.47 818.97 1098.18 833.99 C 1095.26 868.71 1091.82 903.37 1089.04 938.10 C 1087.39 950.01 1087.14 962.05 1085.70 973.99 C 1081.03 1025.96 1076.51 1077.96 1071.84 1129.93 C 1068.71 1161.03 1066.64 1192.26 1063.44 1223.33 C 1063.14 1225.01 1061.20 1225.24 1059.87 1225.64 C 1026.49 1234.49 993.35 1244.22 959.98 1253.08 C 948.67 1256.59 937.17 1259.38 925.81 1262.67 C 920.70 1264.47 915.23 1264.98 910.27 1267.23 C 901.68 1268.85 893.49 1272.07 884.95 1273.90 C 858.72 1281.65 832.20 1288.35 805.96 1296.01 C 801.59 1297.79 796.79 1297.95 792.38 1299.57 C 783.23 1302.75 773.67 1304.53 764.43 1307.44 C 741.14 1313.88 717.95 1320.34 694.63 1326.68 C 691.85 1327.86 688.93 1328.52 685.95 1328.91 C 670.94 1334.12 655.27 1337.06 640.15 1341.95 C 639.80 1290.98 640.11 1240.00 640.00 1189.03 C 639.70 1184.55 639.42 1179.86 640.97 1175.58 C 649.03 1172.54 657.62 1171.06 665.84 1168.45 C 766.46 1140.56 867.07 1112.66 967.71 1084.78 C 976.63 986.53 985.24 888.25 994.06 790.00 C 1005.21 665.32 1016.42 540.63 1027.52 415.95 C 1028.04 408.93 1028.95 401.94 1029.04 394.89 C 1032.47 366.37 1034.06 337.63 1037.14 309.07 C 1038.01 297.78 1038.82 286.45 1040.23 275.23 C 1041.54 272.74 1042.42 267.03 1038.02 267.67 C 905.42 267.66 772.83 267.62 640.23 267.69 C 639.66 251.15 640.15 234.59 639.98 218.04 C 639.99 186.68 640.01 155.33 640.02 123.98 C 640.22 118.71 639.17 113.44 640.27 108.21 Z" />
<path fill="#2965f1" opacity="1.00" d=" M 640.10 428.58 L 641.23 428.57 C 715.74 428.67 790.25 428.50 864.77 428.65 C 864.65 432.79 864.60 436.95 863.98 441.06 C 861.07 474.70 857.99 508.32 855.06 541.96 C 853.23 558.90 852.51 575.96 850.32 592.85 C 780.51 592.73 710.70 592.91 640.89 592.77 C 639.94 590.96 639.95 588.90 639.96 586.93 C 640.11 534.15 639.84 481.37 640.10 428.58 Z" />
<path fill="#2965f1" opacity="1.00" d=" M 639.19 752.89 L 639.90 752.89 C 705.47 753.10 771.04 752.97 836.62 752.90 C 832.32 800.93 828.09 848.95 823.70 896.98 C 822.23 917.68 819.71 938.30 818.27 959.00 C 818.24 960.30 817.59 961.06 816.30 961.26 C 761.25 976.35 706.07 991.00 650.99 1005.98 C 647.31 1006.95 643.51 1007.62 640.04 1009.24 C 639.99 948.50 640.00 887.77 640.01 827.04 C 640.02 804.27 640.09 781.46 639.77 758.73 C 640.01 756.74 640.06 754.72 639.19 752.89 Z" />
</g>
<g id="#5b77e6fa">
<path fill="#5b77e6" opacity="0.98" d=" M 1259.43 226.12 C 1258.74 224.55 1258.15 222.12 1260.08 221.17 C 1260.17 222.72 1260.29 224.30 1259.91 225.83 L 1259.43 226.12 Z" />
</g>
<g id="#ffffffff">
<path fill="#ffffff" opacity="1.00" d=" M 637.97 268.50 C 772.19 268.56 906.40 268.59 1040.61 268.48 C 1040.55 270.73 1040.69 273.01 1040.23 275.23 C 1038.82 286.45 1038.01 297.78 1037.14 309.07 C 1034.06 337.63 1032.47 366.37 1029.04 394.89 C 1028.95 401.94 1028.04 408.93 1027.52 415.95 C 1016.42 540.63 1005.21 665.32 994.06 790.00 C 985.24 888.25 976.63 986.53 967.71 1084.78 C 867.07 1112.66 766.46 1140.56 665.84 1168.45 C 657.62 1171.06 649.03 1172.54 640.97 1175.58 C 639.63 1175.51 638.29 1175.44 636.96 1175.36 L 637.51 1175.14 C 637.88 1174.99 638.62 1174.70 638.99 1174.55 C 639.99 1171.46 639.76 1168.17 639.77 1164.99 C 639.33 1114.25 640.00 1063.49 639.49 1012.76 C 639.30 1011.88 638.90 1011.04 638.60 1010.23 C 639.07 1009.88 639.55 1009.55 640.04 1009.24 C 643.51 1007.62 647.31 1006.95 650.99 1005.98 C 706.07 991.00 761.25 976.35 816.30 961.26 C 817.59 961.06 818.24 960.30 818.27 959.00 C 819.71 938.30 822.23 917.68 823.70 896.98 C 828.09 848.95 832.32 800.93 836.62 752.90 C 771.04 752.97 705.47 753.10 639.90 752.89 C 639.49 732.60 639.80 712.30 639.73 692.01 C 639.69 661.68 639.74 631.34 639.75 601.01 C 639.77 598.24 639.57 595.47 639.24 592.73 C 639.65 592.74 640.48 592.76 640.89 592.77 C 710.70 592.91 780.51 592.73 850.32 592.85 C 852.51 575.96 853.23 558.90 855.06 541.96 C 857.99 508.32 861.07 474.70 863.98 441.06 C 864.60 436.95 864.65 432.79 864.77 428.65 C 790.25 428.50 715.74 428.67 641.23 428.57 C 640.73 428.40 639.74 428.04 639.24 427.87 C 640.14 420.94 639.57 413.94 639.70 406.98 C 639.79 365.66 639.65 324.33 639.72 283.01 C 639.64 278.14 640.58 272.92 637.97 268.50 Z" />
</g>
<g id="#536dd0e4">
<path fill="#536dd0" opacity="0.89" d=" M 1249.56 340.61 C 1248.80 334.24 1249.23 327.58 1251.08 321.43 C 1251.12 327.85 1250.23 334.23 1249.56 340.61 Z" />
</g>
<g id="#4566e4fa">
<path fill="#4566e4" opacity="0.98" d=" M 30.86 341.70 C 32.22 344.44 31.67 347.51 31.35 350.43 C 30.82 347.54 30.80 344.61 30.86 341.70 Z" />
</g>
<g id="#5c77def3">
<path fill="#5c77de" opacity="0.95" d=" M 1244.49 394.08 C 1243.68 392.35 1243.51 390.15 1245.19 388.88 C 1245.57 390.64 1245.45 392.51 1244.49 394.08 Z" />
</g>
<g id="#516fe3f7">
<path fill="#516fe3" opacity="0.97" d=" M 39.96 447.10 C 41.86 448.17 41.27 450.37 40.62 452.02 C 39.57 450.62 39.61 448.72 39.96 447.10 Z" />
</g>
<g id="#506fe9fe">
<path fill="#506fe9" opacity="1.00" d=" M 83.72 939.00 C 85.48 940.16 85.09 942.38 84.49 944.10 C 83.22 942.69 83.50 940.69 83.72 939.00 Z" />
</g>
<g id="#5d70b9c9">
<path fill="#5d70b9" opacity="0.79" d=" M 1147.80 1312.01 C 1148.37 1311.82 1149.53 1311.42 1150.11 1311.23 C 1149.53 1311.42 1148.37 1311.82 1147.80 1312.01 Z" />
</g>
<g id="#4557a0b0">
<path fill="#4557a0" opacity="0.69" d=" M 1107.58 1323.09 C 1109.86 1321.54 1112.55 1321.16 1115.26 1321.18 C 1112.75 1322.00 1110.18 1322.67 1107.58 1323.09 Z" />
</g>
<g id="#495ba2b2">
<path fill="#495ba2" opacity="0.70" d=" M 1087.51 1328.82 C 1090.17 1326.96 1093.36 1326.28 1096.57 1326.12 L 1095.51 1326.55 C 1092.94 1327.61 1090.21 1328.20 1087.51 1328.82 Z" />
</g>
<g id="#545c7a84">
<path fill="#545c7a" opacity="0.52" d=" M 237.25 1341.43 C 237.38 1341.47 237.64 1341.54 237.77 1341.58 C 237.64 1341.54 237.38 1341.47 237.25 1341.43 Z" />
</g>
<g id="#4f609eac">
<path fill="#4f609e" opacity="0.67" d=" M 988.88 1356.00 C 989.63 1354.67 990.71 1354.40 992.11 1355.17 C 991.18 1356.11 990.11 1356.39 988.88 1356.00 Z" />
</g>
<g id="#4d5c93a1">
<path fill="#4d5c93" opacity="0.63" d=" M 931.90 1371.98 C 932.47 1371.77 933.61 1371.36 934.18 1371.15 C 933.61 1371.36 932.47 1371.77 931.90 1371.98 Z" />
</g>
<g id="#455592a1">
<path fill="#455592" opacity="0.63" d=" M 892.91 1382.67 C 894.03 1380.85 896.18 1380.37 898.14 1381.14 C 897.07 1382.91 894.66 1382.48 892.91 1382.67 Z" />
</g>
<g id="#49578f9d">
<path fill="#49578f" opacity="0.62" d=" M 823.96 1401.91 C 825.28 1399.89 827.76 1399.54 829.93 1400.20 C 828.20 1401.45 826.14 1402.37 823.96 1401.91 Z" />
</g>
<g id="#4759a1b1">
<path fill="#4759a1" opacity="0.69" d=" M 769.47 1416.93 C 772.33 1414.73 775.99 1414.39 779.47 1414.22 C 776.21 1415.39 772.86 1416.24 769.47 1416.93 Z" />
</g>
<g id="#475794a3">
<path fill="#475794" opacity="0.64" d=" M 502.34 1415.09 C 505.89 1415.23 509.46 1415.92 512.53 1417.81 C 509.06 1417.21 505.57 1416.53 502.34 1415.09 Z" />
</g>
<g id="#536094a2">
<path fill="#536094" opacity="0.64" d=" M 520.86 1419.91 C 522.24 1419.46 523.32 1419.85 524.09 1421.08 C 522.67 1421.47 521.60 1421.08 520.86 1419.91 Z" />
</g>
<g id="#5162a4b2">
<path fill="#5162a4" opacity="0.70" d=" M 585.93 1438.12 C 587.36 1437.40 588.42 1437.73 589.10 1439.12 C 587.84 1439.41 586.78 1439.08 585.93 1438.12 Z" />
</g>
<g id="#949ab3c6">
<path fill="#949ab3" opacity="0.78" d=" M 641.18 1453.00 C 641.34 1452.91 641.67 1452.72 641.83 1452.62 L 641.56 1453.00 L 641.18 1453.00 Z" />
</g>
</svg>
