<?xml version="1.0" encoding="UTF-8" ?>
<!DOCTYPE svg PUBLIC "-//W3C//DTD SVG 1.1//EN" "http://www.w3.org/Graphics/SVG/1.1/DTD/svg11.dtd">
<svg width="988pt" height="1126pt" viewBox="0 0 988 1126" version="1.1" xmlns="http://www.w3.org/2000/svg">
<g id="#2f0e052f">
<path fill="#2f0e05" opacity="0.18" d=" M 0.00 0.00 L 0.26 0.00 L 1.59 0.32 C 1.76 2.98 1.82 5.66 1.91 8.33 C 1.31 6.62 0.62 4.95 0.00 3.25 L 0.00 0.00 Z" />
</g>
<g id="#a33112a3">
<path fill="#a33112" opacity="0.64" d=" M 0.26 0.00 L 75.88 0.00 L 78.04 0.49 C 73.05 0.91 68.05 1.14 63.05 1.03 C 47.37 0.96 31.69 1.01 16.01 1.00 C 11.20 0.95 6.31 1.46 1.59 0.32 L 0.26 0.00 Z" />
</g>
<g id="#ff4e1dff">
<path fill="#ff4e1d" opacity="1.00" d=" M 1.59 0.32 C 6.31 1.46 11.20 0.95 16.01 1.00 C 31.69 1.01 47.37 0.96 63.05 1.03 C 68.05 1.14 73.05 0.91 78.04 0.49 C 101.69 0.70 125.35 0.51 149.01 0.58 C 179.00 1.15 209.01 0.21 238.99 1.16 C 284.67 1.04 330.34 1.39 376.02 1.28 C 390.68 1.72 405.35 1.44 420.02 1.51 C 498.35 1.71 576.69 1.89 655.03 1.94 C 765.58 1.99 876.13 2.64 986.69 2.57 C 957.63 338.06 928.53 673.56 899.45 1009.05 C 773.97 1045.46 648.46 1081.73 522.97 1118.10 C 514.58 1120.66 506.01 1122.66 497.77 1125.71 C 491.64 1123.47 485.28 1121.98 479.03 1120.15 C 347.30 1083.11 215.54 1046.15 83.83 1009.05 C 56.49 675.48 29.28 341.90 1.91 8.33 C 1.82 5.66 1.76 2.98 1.59 0.32 M 498.00 96.17 C 497.49 104.10 497.87 112.05 497.75 120.00 C 497.88 148.72 497.58 177.44 497.86 206.15 C 391.59 206.14 285.32 206.17 179.05 206.14 C 190.46 332.03 202.02 457.91 213.53 583.80 C 308.33 583.71 403.14 583.78 497.94 583.76 C 497.78 588.16 497.69 592.56 497.75 596.97 C 497.77 652.34 497.72 707.72 497.77 763.09 C 497.80 768.50 497.14 774.00 498.68 779.28 C 495.07 779.94 491.48 782.18 487.76 781.20 C 441.74 767.84 395.72 754.50 349.69 741.19 C 347.17 709.20 344.68 677.21 342.27 645.22 C 300.94 645.21 259.60 645.30 218.27 645.17 C 223.87 710.62 229.47 776.07 235.22 841.50 C 319.49 864.96 403.73 888.57 488.00 912.05 C 491.32 912.82 494.51 910.90 497.72 910.28 C 497.87 949.52 497.58 988.77 497.87 1028.02 C 505.28 1026.25 512.49 1023.77 519.83 1021.75 C 622.94 991.93 726.00 961.92 829.11 932.08 C 830.86 931.86 831.44 930.16 831.60 928.64 C 855.56 651.77 879.69 374.91 903.68 98.04 C 894.78 97.80 885.89 97.93 877.00 97.40 C 768.32 97.28 659.64 97.00 550.95 96.78 C 533.30 96.66 515.64 97.10 498.00 96.17 Z" />
<path fill="#ff4e1d" opacity="1.00" d=" M 315.14 329.40 C 376.10 329.42 437.05 329.40 498.01 329.41 C 497.54 342.94 497.87 356.48 497.75 370.02 C 497.88 399.51 497.54 429.00 497.94 458.48 C 441.29 458.48 384.63 458.50 327.97 458.47 C 323.77 415.44 319.48 372.42 315.14 329.40 Z" />
</g>
<g id="#ff6520ff">
<path fill="#ff6520" opacity="1.00" d=" M 498.00 96.17 C 515.64 97.10 533.30 96.66 550.95 96.78 C 659.64 97.00 768.32 97.28 877.00 97.40 C 885.89 97.93 894.78 97.80 903.68 98.04 C 879.69 374.91 855.56 651.77 831.60 928.64 C 831.44 930.16 830.86 931.86 829.11 932.08 C 726.00 961.92 622.94 991.93 519.83 1021.75 C 512.49 1023.77 505.28 1026.25 497.87 1028.02 C 497.58 988.77 497.87 949.52 497.72 910.28 C 580.52 887.28 663.37 864.44 746.16 841.39 C 757.49 713.73 769.12 586.10 780.59 458.46 C 686.38 458.52 592.16 458.47 497.94 458.48 C 497.54 429.00 497.88 399.51 497.75 370.02 C 497.87 356.48 497.54 342.94 498.01 329.41 C 596.04 329.41 694.07 329.41 792.10 329.41 C 795.88 288.31 799.79 247.21 803.57 206.10 C 701.67 206.22 599.76 206.12 497.86 206.15 C 497.58 177.44 497.88 148.72 497.75 120.00 C 497.87 112.05 497.49 104.10 498.00 96.17 Z" />
<path fill="#ff6520" opacity="1.00" d=" M 497.94 583.76 C 546.78 583.75 595.63 583.78 644.47 583.75 C 638.71 637.34 633.18 690.95 627.55 744.56 C 584.59 756.11 541.64 767.71 498.68 779.28 C 497.14 774.00 497.80 768.50 497.77 763.09 C 497.72 707.72 497.77 652.34 497.75 596.97 C 497.69 592.56 497.78 588.16 497.94 583.76 Z" />
</g>
<g id="#ffffffff">
<path fill="#ffffff" opacity="1.00" d=" M 179.05 206.14 C 285.32 206.17 391.59 206.14 497.86 206.15 C 599.76 206.12 701.67 206.22 803.57 206.10 C 799.79 247.21 795.88 288.31 792.10 329.41 C 694.07 329.41 596.04 329.41 498.01 329.41 C 437.05 329.40 376.10 329.42 315.14 329.40 C 319.48 372.42 323.77 415.44 327.97 458.47 C 384.63 458.50 441.29 458.48 497.94 458.48 C 592.16 458.47 686.38 458.52 780.59 458.46 C 769.12 586.10 757.49 713.73 746.16 841.39 C 663.37 864.44 580.52 887.28 497.72 910.28 C 494.51 910.90 491.32 912.82 488.00 912.05 C 403.73 888.57 319.49 864.96 235.22 841.50 C 229.47 776.07 223.87 710.62 218.27 645.17 C 259.60 645.30 300.94 645.21 342.27 645.22 C 344.68 677.21 347.17 709.20 349.69 741.19 C 395.72 754.50 441.74 767.84 487.76 781.20 C 491.48 782.18 495.07 779.94 498.68 779.28 C 541.64 767.71 584.59 756.11 627.55 744.56 C 633.18 690.95 638.71 637.34 644.47 583.75 C 595.63 583.78 546.78 583.75 497.94 583.76 C 403.14 583.78 308.33 583.71 213.53 583.80 C 202.02 457.91 190.46 332.03 179.05 206.14 Z" />
</g>
</svg>
