<?xml version="1.0" encoding="UTF-8" ?>
<!DOCTYPE svg PUBLIC "-//W3C//DTD SVG 1.1//EN" "http://www.w3.org/Graphics/SVG/1.1/DTD/svg11.dtd">
<svg width="1280pt" height="1141pt" viewBox="0 0 1280 1141" version="1.1" xmlns="http://www.w3.org/2000/svg">
<g id="#132b3233">
<path fill="#132b32" opacity="0.20" d=" M 888.30 0.00 L 909.56 0.00 C 908.18 0.43 906.83 0.91 905.47 1.34 C 899.38 0.54 893.31 0.87 887.21 1.49 L 888.30 0.00 Z" />
<path fill="#132b32" opacity="0.20" d=" M 0.00 577.74 L 0.10 576.40 C 0.73 580.28 1.50 584.15 2.00 588.06 C 1.37 586.43 0.65 584.84 0.00 583.23 L 0.00 577.74 Z" />
</g>
<g id="#61dafbff">
<path fill="#61dafb" opacity="1.00" d=" M 775.28 39.44 C 809.98 20.54 847.51 5.01 887.21 1.49 C 893.31 0.87 899.38 0.54 905.47 1.34 C 927.96 1.92 950.48 8.82 968.56 22.39 C 983.99 33.78 995.87 49.40 1004.61 66.36 C 1018.05 92.63 1024.67 121.84 1028.03 150.99 C 1032.32 189.85 1030.87 229.14 1026.47 267.91 C 1023.06 297.51 1017.78 326.87 1011.26 355.93 C 1037.44 363.87 1063.24 373.06 1088.50 383.57 C 1125.05 398.86 1160.60 417.02 1192.98 439.98 C 1219.13 458.70 1243.62 480.74 1260.81 508.20 C 1271.64 525.52 1278.96 545.33 1280.00 565.85 L 1280.00 575.41 C 1279.11 595.73 1271.93 615.36 1261.36 632.58 C 1243.11 662.16 1216.45 685.50 1188.16 705.19 C 1134.76 741.71 1074.22 766.34 1012.74 785.59 C 1024.26 835.23 1031.65 885.99 1032.45 936.99 C 1032.64 959.78 1031.43 982.63 1027.91 1005.17 C 1024.20 1028.61 1018.00 1051.87 1007.35 1073.17 C 999.99 1087.70 990.48 1101.35 978.25 1112.20 C 966.47 1122.82 952.19 1130.62 936.90 1134.84 C 913.79 1141.34 889.22 1140.32 865.89 1135.61 C 832.80 1128.82 801.56 1115.06 772.17 1098.68 C 724.48 1071.91 681.44 1037.65 641.22 1000.78 C 610.54 1029.64 577.72 1056.32 542.64 1079.69 C 511.99 1099.86 479.44 1117.62 444.52 1129.20 C 418.73 1137.63 391.30 1142.65 364.15 1139.50 C 345.11 1137.35 326.54 1130.38 311.29 1118.70 C 291.54 1103.84 277.89 1082.27 268.86 1059.55 C 257.34 1030.44 252.55 999.15 250.67 968.04 C 247.70 906.77 255.91 845.48 269.40 785.81 C 227.83 773.02 186.99 757.54 148.15 737.90 C 117.42 722.22 87.78 703.99 61.69 681.30 C 46.42 667.92 32.37 652.95 21.32 635.86 C 11.97 621.33 4.84 605.17 2.00 588.06 C 1.50 584.15 0.73 580.28 0.10 576.40 C 0.31 570.89 -0.02 565.35 0.74 559.86 C 1.94 555.36 2.35 550.69 3.51 546.19 C 8.26 526.52 18.33 508.49 30.75 492.66 C 46.38 472.74 65.62 455.93 86.10 441.15 C 113.16 421.70 142.61 405.78 172.89 391.97 C 203.88 377.92 235.88 366.18 268.38 356.13 C 256.52 304.62 248.92 251.94 248.63 199.02 C 248.89 163.15 252.26 126.83 263.78 92.66 C 272.41 67.16 286.21 42.49 307.57 25.53 C 321.21 14.55 337.78 7.41 354.99 4.36 C 378.46 0.19 402.68 2.22 425.67 8.18 C 468.42 19.14 507.83 40.24 544.42 64.50 C 578.33 87.12 609.96 113.01 639.84 140.71 C 681.07 102.15 725.81 66.87 775.28 39.44 M 826.55 78.54 C 810.04 86.09 794.22 95.08 778.89 104.78 C 744.01 127.15 711.68 153.33 681.41 181.57 C 720.52 222.29 756.44 266.03 789.64 311.68 C 845.34 317.92 900.83 326.77 955.26 340.25 C 967.63 283.48 975.87 225.15 971.28 166.97 C 969.27 144.59 965.54 122.07 956.91 101.20 C 951.47 88.36 943.87 75.79 932.13 67.80 C 920.61 60.32 906.35 58.95 892.94 59.50 C 869.79 61.26 847.55 68.99 826.55 78.54 M 358.08 63.47 C 342.83 68.17 332.33 81.59 325.57 95.40 C 316.66 113.75 312.36 133.95 309.76 154.07 C 308.12 167.64 307.15 181.31 307.20 194.98 C 306.48 244.03 314.13 292.78 324.82 340.52 C 379.27 326.76 434.85 317.88 490.64 311.73 C 523.48 266.05 559.31 222.47 598.21 181.83 C 564.94 151.13 529.34 122.71 490.51 99.33 C 465.92 84.77 439.96 71.94 412.18 64.80 C 394.60 60.35 375.73 58.29 358.08 63.47 M 639.41 222.89 C 614.29 249.47 590.10 277.00 568.09 306.20 C 576.32 305.25 584.63 305.53 592.89 304.95 C 632.54 303.79 672.26 304.00 711.87 306.20 C 689.13 277.25 665.19 249.18 639.41 222.89 M 527.94 367.53 C 525.53 367.80 522.31 367.22 521.13 369.97 C 477.23 433.92 438.38 501.39 405.68 571.74 C 423.29 608.63 442.05 645.00 462.80 680.24 C 481.74 712.39 501.66 743.99 523.18 774.48 C 601.32 780.89 679.99 781.15 758.11 774.19 C 802.73 709.80 841.60 641.49 874.92 570.61 C 841.74 499.75 802.25 431.88 757.51 367.69 C 730.03 365.67 702.52 363.88 674.96 363.32 C 625.93 361.85 576.83 363.59 527.94 367.53 M 339.19 396.94 C 349.47 432.03 361.59 466.55 375.04 500.55 C 396.78 458.03 420.54 416.54 446.39 376.38 C 410.38 381.73 374.62 388.63 339.19 396.94 M 833.68 376.39 C 859.71 416.16 883.55 457.35 905.32 499.60 C 918.38 465.87 930.40 431.72 940.35 396.95 C 905.15 388.39 869.50 381.73 833.68 376.39 M 232.30 430.17 C 191.48 446.02 151.57 465.22 116.21 491.28 C 98.66 504.42 81.90 519.27 69.85 537.76 C 62.05 549.86 56.45 564.55 59.39 579.11 C 62.59 595.40 72.61 609.34 83.53 621.43 C 106.87 646.41 135.96 665.16 165.85 681.34 C 203.23 701.40 243.06 716.38 283.36 729.39 C 299.10 675.43 318.65 622.62 341.38 571.23 C 318.28 519.77 298.55 466.76 282.69 412.62 C 265.79 418.15 248.90 423.79 232.30 430.17 M 996.84 412.34 C 981.39 466.27 961.76 518.97 939.00 570.22 C 961.90 621.83 981.85 674.78 997.66 729.00 C 1034.21 717.44 1070.23 703.94 1104.49 686.66 C 1135.56 670.75 1165.73 652.21 1190.89 627.79 C 1202.35 616.18 1213.09 603.21 1218.79 587.73 C 1222.22 578.66 1222.99 568.56 1220.49 559.17 C 1217.57 547.89 1211.36 537.78 1204.27 528.68 C 1193.69 515.34 1180.89 503.92 1167.39 493.62 C 1150.86 481.07 1133.11 470.18 1114.84 460.38 C 1077.35 440.21 1037.33 425.24 996.84 412.34 M 834.02 765.33 C 870.01 759.85 905.84 753.16 941.19 744.40 C 930.71 709.42 919.04 674.77 905.16 640.98 C 883.72 683.68 859.74 725.07 834.02 765.33 M 375.03 642.07 C 362.02 675.80 349.97 709.93 340.03 744.70 C 375.20 753.39 410.89 759.82 446.68 765.37 C 430.96 740.91 415.76 716.11 401.35 690.86 C 392.18 674.81 383.66 658.41 375.03 642.07 M 790.26 829.52 C 757.19 875.21 721.28 918.83 682.45 959.75 C 703.76 979.18 725.80 997.85 749.14 1014.81 C 779.64 1036.96 812.14 1056.97 847.59 1070.15 C 868.41 1077.57 890.71 1083.16 912.94 1080.34 C 923.40 1079.13 933.44 1074.49 940.80 1066.91 C 952.94 1054.51 959.59 1037.95 964.27 1021.53 C 971.31 995.64 973.51 968.67 973.48 941.92 C 973.54 894.44 966.36 847.22 955.81 801.02 C 901.38 814.38 845.99 823.78 790.26 829.52 M 308.22 931.22 C 307.89 951.54 308.39 971.93 311.30 992.07 C 313.97 1010.77 318.24 1029.48 326.47 1046.58 C 331.94 1057.63 339.31 1068.33 350.05 1074.84 C 360.76 1081.19 373.62 1082.83 385.88 1082.27 C 408.16 1080.95 429.65 1073.87 449.97 1064.98 C 471.26 1055.61 491.40 1043.83 510.76 1030.99 C 542.24 1009.97 571.55 985.83 599.30 960.12 C 559.98 919.43 524.18 875.43 490.76 829.81 C 435.12 823.94 379.76 814.80 325.41 801.44 C 316.00 844.09 309.13 887.48 308.22 931.22 M 568.39 835.61 C 591.37 864.39 615.24 892.48 640.90 918.90 C 666.06 892.31 690.07 864.61 712.40 835.59 C 664.44 838.25 616.36 837.87 568.39 835.61 Z" />
<path fill="#61dafb" opacity="1.00" d=" M 622.60 452.82 C 644.00 449.69 666.23 452.42 686.18 460.80 C 715.54 472.98 739.47 497.45 751.03 527.06 C 764.47 560.74 761.41 600.55 742.68 631.65 C 724.84 662.07 692.87 683.77 657.92 688.76 C 621.38 694.56 582.44 682.03 556.35 655.75 C 531.29 631.49 518.06 595.70 521.22 560.97 C 523.79 525.70 543.38 492.30 572.58 472.44 C 587.47 462.19 604.73 455.46 622.60 452.82 Z" />
</g>
</svg>
