<?xml version="1.0" encoding="UTF-8" ?>
<!DOCTYPE svg PUBLIC "-//W3C//DTD SVG 1.1//EN" "http://www.w3.org/Graphics/SVG/1.1/DTD/svg11.dtd">
<svg width="1280pt" height="1280pt" viewBox="0 0 1280 1280" version="1.1" xmlns="http://www.w3.org/2000/svg">
<g id="#68344e82">
<path fill="#68344e" opacity="0.51" d=" M 607.54 0.00 L 614.85 0.00 C 612.50 1.01 610.08 1.98 607.49 1.98 C 607.50 1.49 607.53 0.50 607.54 0.00 Z" />
</g>
<g id="#cb6599ff">
<path fill="#cb6599" opacity="1.00" d=" M 614.85 0.00 L 668.59 0.00 C 668.09 1.81 670.51 2.75 671.87 1.95 C 677.17 1.97 682.49 2.08 687.76 2.73 C 694.09 3.48 700.57 2.28 706.83 3.79 C 715.09 5.81 723.77 4.71 732.00 6.98 C 734.94 7.84 737.99 8.05 741.05 8.04 C 744.78 7.96 748.29 9.40 751.85 10.33 C 756.01 11.58 760.60 10.31 764.61 12.32 C 769.02 14.47 774.13 13.39 778.58 15.34 C 782.73 17.21 787.45 16.57 791.61 18.37 C 795.51 19.95 799.90 19.74 803.67 21.72 C 806.24 22.26 808.82 22.80 811.42 23.22 C 812.39 23.75 813.38 24.28 814.38 24.81 C 816.73 25.13 819.06 25.61 821.38 26.14 C 822.36 26.70 823.35 27.26 824.35 27.81 C 827.76 27.90 831.03 28.99 833.97 30.70 C 838.27 30.87 841.91 33.33 846.02 34.25 C 851.84 36.19 857.46 38.78 863.39 40.39 C 865.93 41.64 868.58 42.65 871.31 43.41 C 879.28 47.00 887.57 49.89 895.48 53.65 C 898.56 54.66 901.32 56.43 904.43 57.39 C 913.37 61.96 922.64 65.91 931.50 70.65 C 935.24 72.67 939.18 74.38 942.71 76.77 C 943.11 76.87 943.91 77.08 944.31 77.18 C 985.69 100.16 1025.20 126.86 1060.65 158.29 C 1071.30 167.28 1081.54 176.75 1091.25 186.75 C 1101.73 196.97 1111.83 207.56 1121.23 218.78 C 1125.95 224.67 1131.53 229.82 1135.83 236.06 C 1161.35 267.02 1183.31 300.75 1202.83 335.76 C 1202.91 336.15 1203.06 336.94 1203.14 337.33 C 1209.45 347.62 1214.18 358.78 1219.64 369.52 C 1220.46 371.61 1221.49 373.62 1222.59 375.58 C 1223.28 378.03 1224.46 380.29 1225.59 382.56 C 1228.11 388.99 1231.07 395.25 1233.63 401.67 C 1236.66 409.42 1239.43 417.29 1242.68 424.96 C 1244.10 432.21 1248.28 438.71 1249.30 446.07 C 1251.58 450.02 1251.69 454.71 1253.70 458.76 C 1254.91 464.18 1256.90 469.39 1257.93 474.86 C 1258.28 476.64 1259.01 478.32 1259.72 480.00 C 1260.02 485.59 1263.02 490.56 1263.23 496.16 C 1263.62 499.89 1265.88 503.17 1265.95 506.96 C 1265.98 510.62 1267.16 514.10 1268.27 517.56 C 1269.25 520.44 1268.78 523.55 1269.29 526.53 C 1270.15 530.33 1271.88 533.98 1271.94 537.94 C 1272.03 541.32 1271.81 544.80 1272.93 548.07 C 1274.48 553.22 1274.75 558.63 1274.90 563.98 C 1274.76 570.10 1277.59 575.87 1277.02 582.03 C 1276.43 590.40 1278.32 598.66 1277.98 607.02 C 1277.93 609.63 1279.05 612.02 1280.00 614.39 L 1280.00 666.75 C 1278.20 665.81 1277.16 668.46 1278.17 669.72 C 1278.15 670.18 1278.11 671.10 1278.09 671.55 C 1278.31 678.06 1276.84 684.47 1276.99 690.97 C 1276.89 695.72 1277.45 700.57 1276.27 705.24 C 1274.00 713.91 1275.36 723.12 1272.79 731.75 C 1271.66 735.42 1272.18 739.28 1271.79 743.05 C 1271.37 746.24 1270.05 749.21 1269.33 752.34 C 1268.78 755.13 1269.20 758.03 1268.68 760.84 C 1267.91 764.24 1266.20 767.43 1266.07 770.98 C 1265.98 776.99 1262.17 782.30 1262.87 788.45 C 1262.29 789.47 1261.72 790.51 1261.17 791.55 C 1260.33 798.25 1257.74 804.52 1256.68 811.18 C 1255.07 814.19 1254.77 817.64 1253.63 820.82 C 1251.85 825.10 1251.68 829.90 1249.33 833.97 C 1249.02 837.12 1247.77 840.03 1246.30 842.80 C 1245.99 847.16 1243.31 850.79 1242.53 855.04 C 1239.95 861.17 1237.96 867.54 1235.30 873.63 C 1234.76 875.20 1234.22 876.77 1233.71 878.35 C 1232.47 880.59 1231.63 883.01 1230.70 885.39 C 1228.85 889.36 1227.11 893.39 1225.65 897.52 C 1223.68 901.14 1222.33 905.07 1220.10 908.56 C 1220.04 908.99 1219.91 909.85 1219.84 910.28 C 1214.24 921.05 1209.38 932.25 1203.21 942.71 C 1203.10 943.11 1202.89 943.91 1202.79 944.30 C 1200.66 947.18 1199.26 950.49 1197.36 953.51 C 1195.70 956.97 1193.66 960.22 1191.75 963.55 C 1188.78 968.57 1185.64 973.49 1182.68 978.52 C 1161.87 1011.66 1138.18 1042.97 1111.78 1071.86 C 1104.77 1080.13 1096.85 1087.54 1089.25 1095.25 C 1077.33 1107.74 1063.91 1118.63 1051.05 1130.12 C 1043.71 1135.70 1036.96 1142.03 1029.34 1147.25 C 1020.97 1154.37 1011.63 1160.19 1002.85 1166.77 C 994.74 1172.08 986.73 1177.52 978.53 1182.69 C 967.33 1189.59 956.03 1196.34 944.47 1202.63 C 933.29 1208.70 921.67 1213.91 910.48 1219.94 C 910.00 1219.97 909.05 1220.03 908.58 1220.05 C 901.27 1224.44 893.14 1227.17 885.42 1230.69 C 881.51 1232.30 877.67 1234.11 873.62 1235.33 C 870.29 1237.00 866.62 1237.85 863.35 1239.63 C 860.43 1240.06 857.75 1241.27 855.20 1242.70 C 850.74 1242.87 847.25 1246.23 842.77 1246.29 C 840.01 1247.78 837.09 1249.01 833.95 1249.32 C 830.96 1250.87 827.74 1252.01 824.35 1252.22 C 823.36 1252.73 822.38 1253.26 821.41 1253.80 C 811.44 1255.97 801.81 1259.47 791.75 1261.26 C 787.70 1263.58 782.81 1262.70 778.64 1264.71 C 774.72 1266.59 770.20 1265.44 766.21 1267.03 C 762.93 1268.25 759.53 1269.19 756.00 1269.03 C 751.15 1268.91 746.87 1271.80 742.06 1271.92 C 738.41 1272.01 734.70 1271.87 731.18 1273.04 C 723.02 1275.49 714.35 1274.10 706.14 1276.17 C 699.69 1277.80 693.00 1276.50 686.47 1277.22 C 682.22 1277.71 677.96 1278.11 673.69 1278.06 C 672.96 1278.09 671.52 1278.16 670.80 1278.20 C 669.44 1277.08 667.22 1278.19 667.64 1280.00 L 613.77 1280.00 C 614.51 1278.37 612.36 1277.37 611.13 1278.18 C 610.67 1278.15 609.74 1278.11 609.27 1278.09 C 604.67 1278.11 600.06 1277.97 595.51 1277.32 C 588.04 1276.31 580.35 1278.01 573.00 1276.06 C 564.79 1273.96 556.07 1275.32 547.94 1272.81 C 544.09 1271.56 540.00 1272.24 536.06 1271.73 C 531.63 1271.07 527.53 1268.73 522.96 1268.99 C 517.77 1269.13 513.19 1266.03 508.01 1265.98 C 503.88 1265.86 500.26 1263.45 496.16 1263.14 C 490.97 1263.04 486.30 1260.52 481.22 1259.73 C 472.95 1256.83 464.00 1256.05 456.02 1252.31 C 452.95 1251.98 450.01 1251.08 447.20 1249.87 C 440.86 1248.06 434.45 1246.21 428.51 1243.31 C 419.21 1241.04 410.62 1236.40 401.43 1233.66 C 400.96 1233.34 400.03 1232.69 399.56 1232.37 C 396.00 1231.73 392.91 1229.82 389.56 1228.61 C 387.26 1227.43 384.97 1226.20 382.43 1225.63 C 380.93 1224.81 379.46 1223.95 378.00 1223.08 C 377.43 1223.03 376.29 1222.94 375.72 1222.89 C 363.09 1215.97 349.55 1210.76 337.28 1203.17 C 336.90 1203.08 336.13 1202.90 335.75 1202.82 C 300.35 1183.14 266.26 1160.91 235.06 1135.03 C 228.83 1130.64 223.68 1124.99 217.73 1120.28 C 212.10 1115.97 207.34 1110.69 201.89 1106.18 C 185.62 1090.45 169.53 1074.46 155.22 1056.90 C 149.02 1050.95 144.44 1043.63 138.72 1037.26 C 122.68 1016.91 107.88 995.60 94.25 973.55 C 90.50 967.52 87.21 961.21 83.21 955.34 C 83.11 954.92 82.90 954.08 82.79 953.66 C 80.76 950.64 79.36 947.24 77.23 944.29 C 77.13 943.89 76.93 943.07 76.83 942.67 C 70.48 932.33 65.85 921.05 60.11 910.37 C 60.05 909.94 59.93 909.07 59.87 908.64 C 57.65 905.03 56.33 900.98 54.12 897.37 C 54.07 896.93 53.95 896.06 53.89 895.63 C 50.78 890.12 49.09 883.96 46.26 878.33 C 45.75 876.69 45.23 875.07 44.76 873.43 C 44.40 872.97 43.69 872.05 43.34 871.58 C 41.80 865.96 39.73 860.46 37.35 855.14 C 36.80 851.59 34.80 848.53 34.02 845.06 C 32.14 838.10 28.76 831.53 27.78 824.36 C 27.25 823.36 26.72 822.38 26.19 821.41 C 25.21 815.35 22.61 809.72 21.69 803.65 C 19.62 799.59 19.95 794.87 18.20 790.70 C 17.28 788.54 17.06 786.20 16.76 783.91 C 16.24 779.82 13.83 776.17 13.99 771.97 C 14.01 769.12 13.10 766.41 12.14 763.77 C 10.24 759.20 11.68 754.05 9.76 749.48 C 7.37 743.87 8.67 737.67 7.04 731.91 C 4.96 723.76 5.82 715.19 3.95 707.01 C 2.90 702.75 2.90 698.36 3.00 694.01 C 3.27 686.54 1.63 679.17 2.00 671.70 C 2.65 670.36 1.73 668.05 0.00 668.57 L 0.00 612.60 C 0.79 610.34 1.64 608.08 1.86 605.68 C 3.15 595.82 2.89 585.90 3.19 576.00 C 5.00 569.14 5.39 562.06 5.87 555.01 C 6.06 549.92 8.31 545.13 8.02 540.00 C 7.66 534.12 11.25 528.92 11.00 523.07 C 10.65 517.47 14.00 512.52 14.03 506.97 C 14.14 502.80 16.74 499.20 16.92 495.04 C 17.00 491.00 19.08 487.41 19.62 483.46 C 20.22 478.33 22.68 473.67 23.23 468.53 C 23.76 467.54 24.28 466.57 24.80 465.59 C 25.16 461.95 26.09 458.37 27.73 455.08 C 27.90 451.67 29.03 448.45 30.69 445.49 C 31.03 441.38 33.45 437.91 34.26 433.93 C 36.30 428.12 38.35 422.32 40.34 416.50 C 41.58 413.98 42.65 411.39 43.43 408.70 C 46.23 403.10 47.67 396.93 50.59 391.40 C 51.37 389.00 52.41 386.70 53.60 384.48 C 54.64 381.43 56.38 378.68 57.42 375.63 C 59.41 371.98 60.70 368.00 62.80 364.41 C 62.90 363.99 63.10 363.14 63.20 362.72 C 64.91 360.10 66.13 357.20 67.66 354.48 C 70.76 348.09 74.19 341.86 77.32 335.48 C 81.76 327.83 86.00 320.05 90.61 312.49 C 93.82 306.57 97.74 301.06 101.26 295.33 C 106.22 287.90 110.76 280.18 116.21 273.09 C 119.62 268.20 123.27 263.48 126.49 258.46 C 134.46 248.43 142.27 238.26 150.35 228.32 C 155.31 223.28 159.77 217.80 164.30 212.37 C 178.11 197.18 192.48 182.47 207.67 168.64 C 214.28 162.19 221.90 156.88 228.37 150.28 C 235.47 144.78 242.31 138.95 249.54 133.62 C 259.46 125.33 270.41 118.40 280.78 110.70 C 291.40 104.07 301.66 96.86 312.51 90.61 C 317.17 87.96 321.71 85.08 326.47 82.60 C 329.44 80.65 332.71 79.21 335.62 77.16 C 336.04 77.05 336.87 76.85 337.28 76.75 C 345.41 71.75 354.32 68.16 362.58 63.39 C 365.67 62.26 368.47 60.36 371.74 59.69 C 373.02 58.97 374.28 58.21 375.55 57.45 C 378.67 56.51 381.40 54.65 384.49 53.60 C 386.70 52.39 389.00 51.35 391.40 50.58 C 394.64 48.71 398.36 47.98 401.68 46.27 C 403.30 45.75 404.93 45.25 406.57 44.78 C 407.03 44.42 407.94 43.71 408.39 43.35 C 411.26 42.86 413.96 41.73 416.53 40.38 C 422.33 38.30 428.14 36.30 433.94 34.27 C 438.03 33.77 441.41 31.10 445.52 30.67 C 448.46 29.01 451.67 27.88 455.07 27.73 C 459.36 25.41 464.41 25.48 468.74 23.32 C 472.31 22.64 475.79 21.62 479.21 20.43 C 482.58 19.78 486.05 19.48 489.28 18.22 C 492.84 16.66 496.89 17.24 500.46 15.68 C 504.92 13.44 510.09 14.40 514.67 12.50 C 519.99 10.16 526.01 11.84 531.34 9.51 C 536.67 7.27 542.58 8.68 548.03 7.01 C 556.44 4.83 565.37 6.10 573.73 3.62 C 581.10 2.14 588.70 3.65 596.14 2.73 C 599.90 2.21 603.69 1.95 607.49 1.98 C 610.08 1.98 612.50 1.01 614.85 0.00 M 843.40 153.53 C 838.14 154.36 832.69 153.49 827.56 155.14 C 817.67 154.87 807.83 156.22 797.95 156.01 C 792.94 155.97 788.02 157.19 783.00 157.02 C 772.91 156.78 763.09 159.83 753.03 160.02 C 747.25 160.01 741.80 162.18 736.10 162.80 C 731.91 163.20 727.72 163.86 723.76 165.34 C 719.84 165.55 715.98 166.38 712.18 167.31 C 695.89 171.09 679.62 175.09 663.71 180.26 L 663.26 180.20 C 648.45 185.74 633.08 189.82 618.56 196.09 C 611.21 198.89 603.64 201.16 596.47 204.45 C 586.89 208.82 576.79 211.98 567.42 216.83 C 566.95 216.91 566.01 217.06 565.54 217.14 C 560.44 220.09 555.00 222.34 549.62 224.70 C 531.51 233.77 513.17 242.42 495.59 252.49 C 465.36 269.25 436.14 287.82 408.06 307.96 C 398.62 315.20 388.58 321.66 379.58 329.46 C 374.20 333.41 369.29 337.95 363.91 341.91 C 356.47 347.41 349.93 353.98 342.75 359.79 C 338.49 363.51 334.69 367.71 330.37 371.36 C 325.31 375.66 321.27 380.96 316.70 385.75 C 310.46 391.87 305.19 398.88 299.26 405.29 C 296.17 408.62 293.49 412.30 290.89 416.02 C 272.26 439.53 256.53 465.49 245.43 493.40 C 239.69 509.41 234.17 525.90 233.75 543.06 C 232.82 548.67 232.92 554.35 233.76 559.97 C 233.86 569.75 238.12 578.74 240.30 588.11 C 244.38 598.19 248.53 608.30 254.21 617.62 C 261.23 629.67 268.96 641.38 278.15 651.90 C 286.12 662.46 295.46 671.87 304.74 681.27 C 308.32 685.04 312.72 687.92 316.26 691.75 C 320.39 696.33 325.69 699.58 330.31 703.62 C 334.26 706.67 337.65 710.38 341.72 713.30 C 360.94 728.53 380.68 743.13 400.98 756.89 C 428.28 776.32 456.41 794.64 482.52 815.66 C 483.39 816.65 485.10 818.14 483.29 819.15 C 457.04 832.36 431.41 846.87 406.46 862.40 C 393.74 871.00 380.72 879.17 368.66 888.70 C 362.34 893.71 355.55 898.09 349.41 903.32 C 337.70 914.63 324.28 924.24 314.26 937.22 C 310.48 942.26 305.76 946.51 302.03 951.59 C 299.90 954.94 297.71 958.25 295.55 961.58 C 291.34 968.01 288.49 975.20 285.72 982.33 L 285.54 982.13 C 282.76 988.55 280.59 995.23 279.02 1002.06 C 276.76 1012.52 274.28 1023.08 274.78 1033.87 C 274.85 1038.05 274.98 1042.23 275.02 1046.42 L 275.56 1046.67 C 276.18 1051.96 277.18 1057.19 278.29 1062.40 C 280.02 1067.15 281.15 1072.11 283.33 1076.69 C 286.92 1084.11 290.44 1091.78 296.25 1097.79 C 302.87 1105.89 311.07 1113.45 321.26 1116.61 C 327.53 1117.63 333.57 1120.16 340.01 1120.04 C 346.05 1120.10 351.93 1121.94 357.98 1122.00 C 366.09 1122.08 374.20 1121.84 382.32 1121.95 C 389.93 1120.01 397.88 1120.57 405.50 1118.82 C 423.57 1115.14 441.27 1109.57 457.80 1101.34 L 457.10 1101.02 C 458.48 1101.44 459.76 1100.39 460.98 1099.90 C 467.53 1096.11 474.15 1092.43 480.39 1088.13 C 481.98 1087.62 483.28 1086.47 484.62 1085.51 C 491.95 1079.46 500.14 1074.28 506.28 1066.93 C 516.67 1057.41 526.49 1047.04 534.12 1035.15 C 547.99 1015.46 558.42 993.41 565.29 970.35 C 568.05 958.30 571.74 946.35 572.28 933.92 C 574.27 919.68 574.65 905.24 572.86 890.96 C 571.72 882.84 571.69 874.53 569.52 866.60 C 566.84 855.56 564.74 844.27 560.31 833.77 C 560.51 833.38 560.90 832.61 561.10 832.22 C 565.46 831.50 569.75 830.42 574.07 829.46 C 580.06 828.49 586.12 827.92 592.10 826.79 C 597.04 825.81 602.10 826.24 607.09 825.77 C 619.03 824.59 631.06 825.19 643.01 826.01 C 652.78 825.94 662.32 828.20 671.97 829.35 C 691.64 833.14 711.20 838.56 728.99 847.96 C 737.03 851.94 744.28 857.25 751.52 862.50 C 755.56 865.75 759.00 869.67 762.73 873.26 C 767.75 878.04 771.30 884.05 775.27 889.68 C 781.96 899.69 785.09 911.49 787.72 923.09 C 788.24 928.39 788.15 933.77 787.83 939.09 C 786.25 946.18 783.85 953.12 780.57 959.62 C 775.95 968.83 768.72 976.43 761.01 983.13 C 755.41 987.96 748.28 990.72 743.04 995.97 C 739.41 1000.38 744.97 1006.86 749.94 1005.76 C 770.19 1000.91 787.80 987.75 799.91 971.02 C 810.85 955.33 816.88 936.08 815.92 916.92 C 814.63 905.80 813.10 894.60 808.96 884.13 C 804.35 870.57 797.18 858.02 788.72 846.52 C 784.27 841.54 780.09 836.31 775.26 831.69 C 755.87 812.87 731.66 799.18 705.90 791.19 C 694.27 787.18 682.06 785.25 669.98 783.14 C 644.28 780.94 618.37 781.17 592.71 783.51 C 575.14 786.13 557.54 789.02 540.59 794.50 C 538.41 794.92 535.58 796.40 533.84 794.29 C 528.25 789.13 523.85 782.81 518.02 777.90 C 508.32 769.63 499.27 760.66 489.37 752.62 C 482.12 746.11 473.93 740.78 466.66 734.30 C 460.29 729.39 454.04 724.30 447.42 719.73 C 438.75 713.05 430.36 706.00 421.46 699.62 C 412.73 691.62 402.89 684.87 394.74 676.24 C 391.52 673.12 387.79 670.57 384.73 667.28 C 379.70 661.97 374.09 657.21 369.64 651.39 C 355.70 636.86 344.66 619.56 337.32 600.82 C 334.10 590.50 330.44 579.96 330.97 569.00 C 331.05 562.01 330.94 555.02 330.99 548.04 C 331.05 541.21 333.13 534.65 334.26 527.97 C 338.58 508.87 347.54 491.20 357.52 474.49 C 365.13 462.97 373.50 451.95 382.31 441.33 C 390.63 432.65 399.31 424.30 407.75 415.73 C 414.30 408.91 421.72 403.01 429.17 397.22 C 435.37 391.74 442.11 386.93 448.54 381.74 C 457.56 375.70 465.83 368.61 475.05 362.87 C 483.67 357.57 491.76 351.45 500.61 346.54 C 505.45 343.89 509.87 340.55 514.63 337.76 C 545.87 319.73 577.51 302.31 610.36 287.34 C 624.71 281.22 639.00 274.92 653.57 269.34 C 661.24 266.68 668.77 263.66 676.57 261.37 C 693.14 255.23 710.36 251.12 727.41 246.55 C 737.25 244.32 747.18 242.58 756.98 240.25 C 765.12 240.16 772.88 237.33 780.99 236.89 C 790.30 235.76 799.60 234.40 808.97 233.97 C 823.98 234.00 838.98 233.86 853.99 233.95 C 866.29 235.05 878.65 236.30 890.64 239.38 C 899.05 240.27 907.04 243.19 914.96 246.02 C 931.06 252.27 947.32 259.91 959.22 272.81 C 967.47 281.01 971.88 292.18 974.54 303.30 C 975.43 307.04 975.41 311.10 977.13 314.60 C 976.98 318.39 977.07 322.18 977.02 325.98 C 976.93 331.87 975.23 337.58 974.71 343.44 C 972.42 354.16 969.13 364.67 964.56 374.65 C 953.47 400.06 937.42 423.29 917.82 442.87 C 912.06 449.41 905.29 454.95 899.26 461.25 C 880.87 477.70 860.53 491.86 839.15 504.14 C 828.33 510.18 817.53 516.35 806.01 520.98 C 795.62 525.55 785.22 530.16 774.40 533.65 C 748.09 543.18 720.71 549.47 693.08 553.72 C 689.42 554.09 685.73 554.03 682.13 554.79 C 667.11 558.02 651.57 558.84 636.27 557.56 C 606.38 555.28 577.42 543.47 553.95 524.91 C 548.67 520.75 544.30 515.59 539.49 510.92 C 537.74 510.89 536.00 510.89 534.26 510.90 C 532.53 513.03 530.02 515.03 529.92 517.99 C 529.76 525.30 532.73 532.26 536.80 538.21 C 541.29 546.08 547.18 553.04 553.72 559.28 C 573.22 580.10 600.88 592.26 629.04 595.20 C 633.68 596.00 638.30 597.02 643.03 597.19 C 654.28 598.82 665.62 600.29 677.01 600.00 C 689.34 599.95 701.67 600.07 714.00 599.96 C 728.05 598.74 742.13 597.43 755.98 594.71 C 767.47 593.54 778.52 589.99 789.82 587.72 C 808.05 582.84 826.06 577.01 843.42 569.55 C 876.93 556.90 908.39 538.80 936.16 516.17 C 947.08 506.05 959.33 497.33 969.15 486.06 C 977.65 476.20 986.18 466.37 994.24 456.15 C 1007.65 437.58 1019.75 417.90 1028.59 396.72 L 1028.46 396.43 C 1030.51 391.34 1033.76 386.36 1033.95 380.78 L 1034.24 381.76 C 1035.95 376.49 1038.34 371.34 1039.10 365.83 L 1039.51 366.67 C 1040.20 360.44 1042.48 354.54 1043.42 348.35 C 1044.59 340.51 1046.51 332.67 1045.90 324.68 C 1046.92 317.27 1046.81 309.68 1045.94 302.26 C 1046.44 295.77 1044.65 289.47 1043.80 283.10 C 1043.63 282.93 1043.27 282.58 1043.10 282.41 C 1042.09 273.75 1039.31 265.32 1035.77 257.38 L 1035.19 256.94 C 1035.11 256.33 1034.95 255.13 1034.87 254.53 C 1030.34 245.61 1025.60 236.62 1018.84 229.16 C 1016.04 225.94 1013.59 222.42 1010.69 219.29 C 1000.90 210.63 991.48 201.32 980.00 194.86 C 959.57 181.50 936.49 172.93 913.07 166.47 C 908.16 163.04 902.76 160.42 897.63 157.36 C 893.83 155.45 890.19 152.93 885.95 152.14 C 877.32 151.47 868.64 151.64 859.99 151.37 C 854.36 151.10 848.95 153.00 843.40 153.53 Z" />
<path fill="#cb6599" opacity="1.00" d=" M 497.97 861.09 C 503.00 858.59 507.65 855.28 513.05 853.54 C 514.17 860.40 516.45 867.02 517.22 873.94 C 520.23 890.40 520.06 907.42 517.14 923.88 C 516.23 929.63 514.49 935.21 513.63 940.98 C 508.36 962.04 497.44 981.28 484.33 998.42 C 480.25 1005.15 474.04 1010.09 468.92 1015.96 C 463.18 1021.20 458.00 1027.12 451.34 1031.26 C 443.48 1037.31 434.91 1042.36 425.95 1046.62 C 413.17 1053.12 399.13 1057.64 384.72 1058.12 C 374.82 1058.55 364.02 1056.80 357.10 1049.04 C 352.47 1043.12 350.55 1035.70 350.17 1028.31 C 350.31 1020.88 351.41 1013.49 353.25 1006.30 C 356.09 993.84 361.99 982.36 368.16 971.27 C 373.51 962.46 379.16 953.75 386.06 946.05 C 394.22 935.62 404.82 927.54 414.25 918.34 C 420.37 912.72 427.08 907.81 433.62 902.71 C 443.05 894.51 453.70 887.92 464.01 880.92 C 474.98 873.73 486.28 867.04 497.97 861.09 Z" />
</g>
<g id="#6b365187">
<path fill="#6b3651" opacity="0.53" d=" M 668.59 0.00 L 671.27 0.00 C 671.42 0.49 671.72 1.46 671.87 1.95 C 670.51 2.75 668.09 1.81 668.59 0.00 Z" />
</g>
<g id="#cf75a3ff">
<path fill="#cf75a3" opacity="1.00" d=" M 843.40 153.53 C 848.95 153.00 854.36 151.10 859.99 151.37 C 868.64 151.64 877.32 151.47 885.95 152.14 C 890.19 152.93 893.83 155.45 897.63 157.36 C 902.76 160.42 908.16 163.04 913.07 166.47 C 902.73 164.39 892.51 161.62 882.06 160.12 C 873.29 159.73 864.80 157.13 856.02 156.92 C 849.38 156.70 842.78 155.91 836.15 155.68 C 833.28 155.52 830.42 155.27 827.56 155.14 C 832.69 153.49 838.14 154.36 843.40 153.53 Z" />
</g>
<g id="#d8d8d8d8">
<path fill="#d8d8d8" opacity="0.85" d=" M 797.95 156.01 C 807.83 156.22 817.67 154.87 827.56 155.14 C 830.42 155.27 833.28 155.52 836.15 155.68 C 828.15 155.65 819.93 154.93 812.14 157.07 C 807.17 158.39 803.93 163.04 799.05 164.40 C 784.37 165.31 769.67 163.20 755.01 164.40 C 747.07 164.71 738.93 163.00 731.24 165.78 C 728.74 165.70 726.26 165.43 723.76 165.34 C 727.72 163.86 731.91 163.20 736.10 162.80 C 741.80 162.18 747.25 160.01 753.03 160.02 C 763.09 159.83 772.91 156.78 783.00 157.02 C 788.02 157.19 792.94 155.97 797.95 156.01 Z" />
</g>
<g id="#ffffffff">
<path fill="#ffffff" opacity="1.00" d=" M 812.14 157.07 C 819.93 154.93 828.15 155.65 836.15 155.68 C 842.78 155.91 849.38 156.70 856.02 156.92 C 864.80 157.13 873.29 159.73 882.06 160.12 C 892.51 161.62 902.73 164.39 913.07 166.47 C 936.49 172.93 959.57 181.50 980.00 194.86 C 991.48 201.32 1000.90 210.63 1010.69 219.29 C 1013.59 222.42 1016.04 225.94 1018.84 229.16 C 1025.60 236.62 1030.34 245.61 1034.87 254.53 C 1034.95 255.13 1035.11 256.33 1035.19 256.94 C 1032.78 255.11 1030.46 253.16 1028.15 251.21 C 1028.29 255.63 1028.73 260.05 1029.64 264.39 C 1031.31 272.27 1029.45 280.33 1030.49 288.26 L 1031.14 288.68 C 1037.30 291.61 1043.04 295.88 1045.94 302.26 C 1046.81 309.68 1046.92 317.27 1045.90 324.68 C 1045.30 328.01 1044.68 331.38 1043.38 334.52 C 1042.11 337.66 1040.19 340.58 1039.62 343.97 C 1038.93 347.94 1038.51 352.00 1036.89 355.73 C 1033.36 360.01 1031.82 365.32 1031.72 370.82 C 1029.38 379.00 1023.76 388.03 1028.46 396.43 L 1028.59 396.72 C 1019.75 417.90 1007.65 437.58 994.24 456.15 C 986.18 466.37 977.65 476.20 969.15 486.06 C 959.33 497.33 947.08 506.05 936.16 516.17 C 908.39 538.80 876.93 556.90 843.42 569.55 C 826.06 577.01 808.05 582.84 789.82 587.72 C 778.52 589.99 767.47 593.54 755.98 594.71 C 742.13 597.43 728.05 598.74 714.00 599.96 C 701.67 600.07 689.34 599.95 677.01 600.00 C 665.62 600.29 654.28 598.82 643.03 597.19 C 638.30 597.02 633.68 596.00 629.04 595.20 C 600.88 592.26 573.22 580.10 553.72 559.28 C 547.18 553.04 541.29 546.08 536.80 538.21 C 532.73 532.26 529.76 525.30 529.92 517.99 C 530.02 515.03 532.53 513.03 534.26 510.90 C 536.00 510.89 537.74 510.89 539.49 510.92 C 544.30 515.59 548.67 520.75 553.95 524.91 C 577.42 543.47 606.38 555.28 636.27 557.56 C 651.57 558.84 667.11 558.02 682.13 554.79 C 685.73 554.03 689.42 554.09 693.08 553.72 C 720.71 549.47 748.09 543.18 774.40 533.65 C 785.22 530.16 795.62 525.55 806.01 520.98 C 817.53 516.35 828.33 510.18 839.15 504.14 C 860.53 491.86 880.87 477.70 899.26 461.25 C 905.29 454.95 912.06 449.41 917.82 442.87 C 937.42 423.29 953.47 400.06 964.56 374.65 C 969.13 364.67 972.42 354.16 974.71 343.44 C 975.89 344.87 977.09 346.31 978.28 347.76 C 980.33 341.98 986.15 336.79 983.98 330.20 C 983.26 324.40 980.79 319.10 977.13 314.60 C 975.41 311.10 975.43 307.04 974.54 303.30 C 971.88 292.18 967.47 281.01 959.22 272.81 C 947.32 259.91 931.06 252.27 914.96 246.02 C 907.04 243.19 899.05 240.27 890.64 239.38 C 878.65 236.30 866.29 235.05 853.99 233.95 C 838.98 233.86 823.98 234.00 808.97 233.97 C 799.60 234.40 790.30 235.76 780.99 236.89 C 772.88 237.33 765.12 240.16 756.98 240.25 C 747.18 242.58 737.25 244.32 727.41 246.55 C 710.36 251.12 693.14 255.23 676.57 261.37 C 668.77 263.66 661.24 266.68 653.57 269.34 C 639.00 274.92 624.71 281.22 610.36 287.34 C 577.51 302.31 545.87 319.73 514.63 337.76 C 509.87 340.55 505.45 343.89 500.61 346.54 C 491.76 351.45 483.67 357.57 475.05 362.87 C 465.83 368.61 457.56 375.70 448.54 381.74 C 442.11 386.93 435.37 391.74 429.17 397.22 C 421.72 403.01 414.30 408.91 407.75 415.73 C 399.31 424.30 390.63 432.65 382.31 441.33 C 373.50 451.95 365.13 462.97 357.52 474.49 C 347.54 491.20 338.58 508.87 334.26 527.97 C 333.13 534.65 331.05 541.21 330.99 548.04 C 330.94 555.02 331.05 562.01 330.97 569.00 C 330.44 579.96 334.10 590.50 337.32 600.82 C 344.66 619.56 355.70 636.86 369.64 651.39 C 374.09 657.21 379.70 661.97 384.73 667.28 C 387.79 670.57 391.52 673.12 394.74 676.24 C 402.89 684.87 412.73 691.62 421.46 699.62 C 430.36 706.00 438.75 713.05 447.42 719.73 C 454.04 724.30 460.29 729.39 466.66 734.30 C 473.93 740.78 482.12 746.11 489.37 752.62 C 499.27 760.66 508.32 769.63 518.02 777.90 C 523.85 782.81 528.25 789.13 533.84 794.29 C 535.58 796.40 538.41 794.92 540.59 794.50 C 557.54 789.02 575.14 786.13 592.71 783.51 C 618.37 781.17 644.28 780.94 669.98 783.14 C 682.06 785.25 694.27 787.18 705.90 791.19 C 731.66 799.18 755.87 812.87 775.26 831.69 C 780.09 836.31 784.27 841.54 788.72 846.52 C 797.18 858.02 804.35 870.57 808.96 884.13 C 813.10 894.60 814.63 905.80 815.92 916.92 C 816.88 936.08 810.85 955.33 799.91 971.02 C 787.80 987.75 770.19 1000.91 749.94 1005.76 C 744.97 1006.86 739.41 1000.38 743.04 995.97 C 748.28 990.72 755.41 987.96 761.01 983.13 C 768.72 976.43 775.95 968.83 780.57 959.62 C 783.85 953.12 786.25 946.18 787.83 939.09 C 788.15 933.77 788.24 928.39 787.72 923.09 C 785.09 911.49 781.96 899.69 775.27 889.68 C 771.30 884.05 767.75 878.04 762.73 873.26 C 759.00 869.67 755.56 865.75 751.52 862.50 C 744.28 857.25 737.03 851.94 728.99 847.96 C 711.20 838.56 691.64 833.14 671.97 829.35 C 662.32 828.20 652.78 825.94 643.01 826.01 C 631.06 825.19 619.03 824.59 607.09 825.77 C 602.10 826.24 597.04 825.81 592.10 826.79 C 586.12 827.92 580.06 828.49 574.07 829.46 C 569.75 830.42 565.46 831.50 561.10 832.22 C 560.90 832.61 560.51 833.38 560.31 833.77 C 564.74 844.27 566.84 855.56 569.52 866.60 C 571.69 874.53 571.72 882.84 572.86 890.96 C 574.65 905.24 574.27 919.68 572.28 933.92 C 571.74 946.35 568.05 958.30 565.29 970.35 C 558.42 993.41 547.99 1015.46 534.12 1035.15 C 526.49 1047.04 516.67 1057.41 506.28 1066.93 C 501.72 1069.16 496.96 1070.99 492.60 1073.62 C 483.29 1079.25 472.22 1080.76 462.64 1085.82 C 455.02 1089.56 450.42 1097.43 442.58 1100.84 C 437.70 1102.69 433.43 1105.91 428.36 1107.26 C 420.69 1109.10 413.09 1111.42 405.17 1111.81 C 395.15 1112.90 384.78 1113.66 375.51 1117.96 C 377.77 1119.30 380.04 1120.63 382.32 1121.95 C 374.20 1121.84 366.09 1122.08 357.98 1122.00 C 351.93 1121.94 346.05 1120.10 340.01 1120.04 C 333.57 1120.16 327.53 1117.63 321.26 1116.61 C 311.07 1113.45 302.87 1105.89 296.25 1097.79 C 290.44 1091.78 286.92 1084.11 283.33 1076.69 C 281.15 1072.11 280.02 1067.15 278.29 1062.40 C 277.18 1057.19 276.18 1051.96 275.56 1046.67 C 277.27 1047.45 278.97 1048.23 280.68 1049.04 C 281.42 1041.83 280.18 1034.67 278.95 1027.59 C 278.33 1022.81 278.32 1017.82 280.29 1013.34 C 283.11 1006.89 284.88 999.87 289.27 994.23 C 292.60 989.59 295.83 984.87 299.38 980.39 C 303.63 974.66 306.59 967.91 307.95 960.92 C 308.92 956.66 304.53 954.21 302.03 951.59 C 305.76 946.51 310.48 942.26 314.26 937.22 C 324.28 924.24 337.70 914.63 349.41 903.32 C 355.55 898.09 362.34 893.71 368.66 888.70 C 380.72 879.17 393.74 871.00 406.46 862.40 C 431.41 846.87 457.04 832.36 483.29 819.15 C 485.10 818.14 483.39 816.65 482.52 815.66 C 456.41 794.64 428.28 776.32 400.98 756.89 C 380.68 743.13 360.94 728.53 341.72 713.30 C 337.65 710.38 334.26 706.67 330.31 703.62 C 325.69 699.58 320.39 696.33 316.26 691.75 C 312.72 687.92 308.32 685.04 304.74 681.27 C 295.46 671.87 286.12 662.46 278.15 651.90 C 268.96 641.38 261.23 629.67 254.21 617.62 C 248.53 608.30 244.38 598.19 240.30 588.11 C 238.12 578.74 233.86 569.75 233.76 559.97 C 232.92 554.35 232.82 548.67 233.75 543.06 C 234.17 525.90 239.69 509.41 245.43 493.40 C 256.53 465.49 272.26 439.53 290.89 416.02 C 293.49 412.30 296.17 408.62 299.26 405.29 C 305.19 398.88 310.46 391.87 316.70 385.75 C 321.27 380.96 325.31 375.66 330.37 371.36 C 334.69 367.71 338.49 363.51 342.75 359.79 C 349.93 353.98 356.47 347.41 363.91 341.91 C 369.29 337.95 374.20 333.41 379.58 329.46 C 388.58 321.66 398.62 315.20 408.06 307.96 C 436.14 287.82 465.36 269.25 495.59 252.49 C 513.17 242.42 531.51 233.77 549.62 224.70 C 555.00 222.34 560.44 220.09 565.54 217.14 C 566.01 217.06 566.95 216.91 567.42 216.83 C 576.79 211.98 586.89 208.82 596.47 204.45 C 603.64 201.16 611.21 198.89 618.56 196.09 C 626.05 195.77 633.51 194.71 641.02 195.02 C 651.07 195.49 660.26 190.65 670.02 189.10 C 679.93 186.90 690.35 187.37 700.01 184.08 C 703.37 181.42 706.64 178.64 709.98 175.94 C 713.27 173.26 716.28 169.95 720.46 168.67 C 724.00 167.54 727.65 166.78 731.24 165.78 C 738.93 163.00 747.07 164.71 755.01 164.40 C 769.67 163.20 784.37 165.31 799.05 164.40 C 803.93 163.04 807.17 158.39 812.14 157.07 M 497.97 861.09 C 486.28 867.04 474.98 873.73 464.01 880.92 C 453.70 887.92 443.05 894.51 433.62 902.71 C 427.08 907.81 420.37 912.72 414.25 918.34 C 404.82 927.54 394.22 935.62 386.06 946.05 C 379.16 953.75 373.51 962.46 368.16 971.27 C 361.99 982.36 356.09 993.84 353.25 1006.30 C 352.60 1004.04 350.32 1003.13 348.55 1001.94 C 343.28 1007.60 337.96 1013.20 333.65 1019.66 C 332.49 1021.82 331.09 1023.93 330.55 1026.37 C 330.39 1028.76 331.12 1031.11 331.52 1033.48 C 340.08 1034.13 348.82 1037.90 353.36 1045.53 C 357.66 1051.85 357.64 1059.76 357.20 1067.10 C 360.28 1067.19 363.38 1066.96 366.35 1066.05 C 370.94 1065.94 375.33 1064.51 379.69 1063.22 C 385.56 1063.59 391.20 1061.71 396.99 1061.23 C 402.74 1060.71 408.52 1059.83 413.93 1057.76 C 419.19 1055.71 422.83 1051.12 425.95 1046.62 C 434.91 1042.36 443.48 1037.31 451.34 1031.26 C 458.00 1027.12 463.18 1021.20 468.92 1015.96 C 474.04 1010.09 480.25 1005.15 484.33 998.42 C 497.44 981.28 508.36 962.04 513.63 940.98 C 514.49 935.21 516.23 929.63 517.14 923.88 C 520.06 907.42 520.23 890.40 517.22 873.94 C 516.45 867.02 514.17 860.40 513.05 853.54 C 507.65 855.28 503.00 858.59 497.97 861.09 Z" />
</g>
<g id="#f0f0f0f0">
<path fill="#f0f0f0" opacity="0.94" d=" M 712.18 167.31 C 715.98 166.38 719.84 165.55 723.76 165.34 C 726.26 165.43 728.74 165.70 731.24 165.78 C 727.65 166.78 724.00 167.54 720.46 168.67 C 716.28 169.95 713.27 173.26 709.98 175.94 C 706.64 178.64 703.37 181.42 700.01 184.08 C 687.79 184.20 675.83 181.33 663.71 180.26 C 679.62 175.09 695.89 171.09 712.18 167.31 Z" />
<path fill="#f0f0f0" opacity="0.94" d=" M 1028.46 396.43 C 1023.76 388.03 1029.38 379.00 1031.72 370.82 C 1032.01 374.22 1032.95 377.52 1033.95 380.78 C 1033.76 386.36 1030.51 391.34 1028.46 396.43 Z" />
</g>
<g id="#f8f8f8f8">
<path fill="#f8f8f8" opacity="0.97" d=" M 618.56 196.09 C 633.08 189.82 648.45 185.74 663.26 180.20 L 663.71 180.26 C 675.83 181.33 687.79 184.20 700.01 184.08 C 690.35 187.37 679.93 186.90 670.02 189.10 C 660.26 190.65 651.07 195.49 641.02 195.02 C 633.51 194.71 626.05 195.77 618.56 196.09 Z" />
</g>
<g id="#edededed">
<path fill="#ededed" opacity="0.93" d=" M 1028.15 251.21 C 1030.46 253.16 1032.78 255.11 1035.19 256.94 L 1035.77 257.38 C 1039.31 265.32 1042.09 273.75 1043.10 282.41 C 1039.18 278.76 1035.66 274.72 1032.09 270.75 C 1031.10 276.67 1030.92 282.68 1031.14 288.68 L 1030.49 288.26 C 1029.45 280.33 1031.31 272.27 1029.64 264.39 C 1028.73 260.05 1028.29 255.63 1028.15 251.21 Z" />
</g>
<g id="#dededede">
<path fill="#dedede" opacity="0.87" d=" M 1032.09 270.75 C 1035.66 274.72 1039.18 278.76 1043.10 282.41 C 1043.27 282.58 1043.63 282.93 1043.80 283.10 C 1044.65 289.47 1046.44 295.77 1045.94 302.26 C 1043.04 295.88 1037.30 291.61 1031.14 288.68 C 1030.92 282.68 1031.10 276.67 1032.09 270.75 Z" />
</g>
<g id="#f5f5f5f5">
<path fill="#f5f5f5" opacity="0.96" d=" M 977.13 314.60 C 980.79 319.10 983.26 324.40 983.98 330.20 C 986.15 336.79 980.33 341.98 978.28 347.76 C 977.09 346.31 975.89 344.87 974.71 343.44 C 975.23 337.58 976.93 331.87 977.02 325.98 C 977.07 322.18 976.98 318.39 977.13 314.60 Z" />
</g>
<g id="#dfdfdfdf">
<path fill="#dfdfdf" opacity="0.87" d=" M 1043.38 334.52 C 1044.68 331.38 1045.30 328.01 1045.90 324.68 C 1046.51 332.67 1044.59 340.51 1043.42 348.35 C 1042.48 354.54 1040.20 360.44 1039.51 366.67 L 1039.10 365.83 C 1037.44 362.72 1035.76 359.35 1036.89 355.73 C 1038.51 352.00 1038.93 347.94 1039.62 343.97 C 1040.19 340.58 1042.11 337.66 1043.38 334.52 Z" />
</g>
<g id="#e8e8e8e8">
<path fill="#e8e8e8" opacity="0.91" d=" M 1031.72 370.82 C 1031.82 365.32 1033.36 360.01 1036.89 355.73 C 1035.76 359.35 1037.44 362.72 1039.10 365.83 C 1038.34 371.34 1035.95 376.49 1034.24 381.76 L 1033.95 380.78 C 1032.95 377.52 1032.01 374.22 1031.72 370.82 Z" />
<path fill="#e8e8e8" opacity="0.91" d=" M 278.95 1027.59 C 280.18 1034.67 281.42 1041.83 280.68 1049.04 C 278.97 1048.23 277.27 1047.45 275.56 1046.67 L 275.02 1046.42 C 274.98 1042.23 274.85 1038.05 274.78 1033.87 C 276.11 1034.83 277.44 1035.82 278.77 1036.80 C 278.88 1033.73 279.01 1030.66 278.95 1027.59 Z" />
<path fill="#e8e8e8" opacity="0.91" d=" M 384.72 1058.12 C 399.13 1057.64 413.17 1053.12 425.95 1046.62 C 422.83 1051.12 419.19 1055.71 413.93 1057.76 C 408.52 1059.83 402.74 1060.71 396.99 1061.23 C 391.20 1061.71 385.56 1063.59 379.69 1063.22 C 382.83 1062.30 386.01 1061.55 389.19 1060.80 C 387.71 1059.87 386.24 1058.95 384.72 1058.12 Z" />
</g>
<g id="#6c365189">
<path fill="#6c3651" opacity="0.54" d=" M 0.00 607.83 C 0.47 607.29 1.40 606.22 1.86 605.68 C 1.64 608.08 0.79 610.34 0.00 612.60 L 0.00 607.83 Z" />
</g>
<g id="#5a2d4472">
<path fill="#5a2d44" opacity="0.45" d=" M 1277.98 607.02 C 1278.48 607.62 1279.49 608.83 1280.00 609.43 L 1280.00 614.39 C 1279.05 612.02 1277.93 609.63 1277.98 607.02 Z" />
</g>
<g id="#8b4569af">
<path fill="#8b4569" opacity="0.69" d=" M 1278.17 669.72 C 1277.16 668.46 1278.20 665.81 1280.00 666.75 L 1280.00 669.65 C 1279.54 669.67 1278.62 669.71 1278.17 669.72 Z" />
</g>
<g id="#5f2f4878">
<path fill="#5f2f48" opacity="0.47" d=" M 0.00 668.57 C 1.73 668.05 2.65 670.36 2.00 671.70 C 1.50 671.62 0.50 671.47 0.00 671.39 L 0.00 668.57 Z" />
</g>
<g id="#47233559">
<path fill="#472335" opacity="0.35" d=" M 1278.17 669.72 C 1278.62 669.71 1279.54 669.67 1280.00 669.65 L 1280.00 671.59 C 1279.52 671.58 1278.57 671.56 1278.09 671.55 C 1278.11 671.10 1278.15 670.18 1278.17 669.72 Z" />
</g>
<g id="#ebebebeb">
<path fill="#ebebeb" opacity="0.92" d=" M 295.55 961.58 C 297.71 958.25 299.90 954.94 302.03 951.59 C 304.53 954.21 308.92 956.66 307.95 960.92 C 306.59 967.91 303.63 974.66 299.38 980.39 C 295.83 984.87 292.60 989.59 289.27 994.23 C 289.89 992.52 290.57 990.78 290.57 988.95 C 289.56 986.36 287.48 984.40 285.72 982.33 C 288.49 975.20 291.34 968.01 295.55 961.58 Z" />
</g>
<g id="#dbdbdbdb">
<path fill="#dbdbdb" opacity="0.86" d=" M 285.54 982.13 L 285.72 982.33 C 287.48 984.40 289.56 986.36 290.57 988.95 C 290.57 990.78 289.89 992.52 289.27 994.23 C 284.88 999.87 283.11 1006.89 280.29 1013.34 C 278.32 1017.82 278.33 1022.81 278.95 1027.59 C 279.01 1030.66 278.88 1033.73 278.77 1036.80 C 277.44 1035.82 276.11 1034.83 274.78 1033.87 C 274.28 1023.08 276.76 1012.52 279.02 1002.06 C 280.59 995.23 282.76 988.55 285.54 982.13 Z" />
<path fill="#dbdbdb" opacity="0.86" d=" M 357.10 1049.04 C 364.02 1056.80 374.82 1058.55 384.72 1058.12 C 386.24 1058.95 387.71 1059.87 389.19 1060.80 C 386.01 1061.55 382.83 1062.30 379.69 1063.22 C 375.33 1064.51 370.94 1065.94 366.35 1066.05 C 363.64 1066.05 360.93 1065.96 358.22 1065.90 C 358.22 1060.26 358.40 1054.56 357.10 1049.04 Z" />
</g>
<g id="#eaeaeaea">
<path fill="#eaeaea" opacity="0.92" d=" M 348.55 1001.94 C 350.32 1003.13 352.60 1004.04 353.25 1006.30 C 351.41 1013.49 350.31 1020.88 350.17 1028.31 C 345.58 1025.23 341.20 1021.88 336.85 1018.49 C 335.78 1018.87 334.71 1019.25 333.65 1019.66 C 337.96 1013.20 343.28 1007.60 348.55 1001.94 Z" />
</g>
<g id="#e1e1e1e1">
<path fill="#e1e1e1" opacity="0.88" d=" M 333.65 1019.66 C 334.71 1019.25 335.78 1018.87 336.85 1018.49 C 341.20 1021.88 345.58 1025.23 350.17 1028.31 C 350.55 1035.70 352.47 1043.12 357.10 1049.04 C 358.40 1054.56 358.22 1060.26 358.22 1065.90 C 360.93 1065.96 363.64 1066.05 366.35 1066.05 C 363.38 1066.96 360.28 1067.19 357.20 1067.10 C 357.64 1059.76 357.66 1051.85 353.36 1045.53 C 348.82 1037.90 340.08 1034.13 331.52 1033.48 C 331.12 1031.11 330.39 1028.76 330.55 1026.37 C 331.09 1023.93 332.49 1021.82 333.65 1019.66 Z" />
<path fill="#e1e1e1" opacity="0.88" d=" M 462.64 1085.82 C 468.67 1083.41 474.63 1086.53 480.39 1088.13 C 474.15 1092.43 467.53 1096.11 460.98 1099.90 C 459.76 1100.39 458.48 1101.44 457.10 1101.02 C 455.03 1100.24 453.07 1098.93 450.83 1098.81 C 447.99 1099.05 445.28 1100.00 442.58 1100.84 C 450.42 1097.43 455.02 1089.56 462.64 1085.82 Z" />
</g>
<g id="#ecececec">
<path fill="#ececec" opacity="0.93" d=" M 492.60 1073.62 C 496.96 1070.99 501.72 1069.16 506.28 1066.93 C 500.14 1074.28 491.95 1079.46 484.62 1085.51 C 483.28 1086.47 481.98 1087.62 480.39 1088.13 C 474.63 1086.53 468.67 1083.41 462.64 1085.82 C 472.22 1080.76 483.29 1079.25 492.60 1073.62 Z" />
</g>
<g id="#d6d6d6d6">
<path fill="#d6d6d6" opacity="0.84" d=" M 442.58 1100.84 C 445.28 1100.00 447.99 1099.05 450.83 1098.81 C 453.07 1098.93 455.03 1100.24 457.10 1101.02 L 457.80 1101.34 C 441.27 1109.57 423.57 1115.14 405.50 1118.82 C 403.07 1117.34 400.64 1115.90 398.22 1114.45 C 400.51 1113.52 402.80 1112.56 405.17 1111.81 C 413.09 1111.42 420.69 1109.10 428.36 1107.26 C 433.43 1105.91 437.70 1102.69 442.58 1100.84 Z" />
</g>
<g id="#e3e3e3e3">
<path fill="#e3e3e3" opacity="0.89" d=" M 375.51 1117.96 C 384.78 1113.66 395.15 1112.90 405.17 1111.81 C 402.80 1112.56 400.51 1113.52 398.22 1114.45 C 400.64 1115.90 403.07 1117.34 405.50 1118.82 C 397.88 1120.57 389.93 1120.01 382.32 1121.95 C 380.04 1120.63 377.77 1119.30 375.51 1117.96 Z" />
</g>
<g id="#552a406b">
<path fill="#552a40" opacity="0.42" d=" M 609.27 1278.09 C 609.74 1278.11 610.67 1278.15 611.13 1278.18 C 611.15 1278.63 611.20 1279.54 611.22 1280.00 L 609.38 1280.00 C 609.35 1279.52 609.30 1278.57 609.27 1278.09 Z" />
</g>
<g id="#994c73c0">
<path fill="#994c73" opacity="0.75" d=" M 611.13 1278.18 C 612.36 1277.37 614.51 1278.37 613.77 1280.00 L 611.22 1280.00 C 611.20 1279.54 611.15 1278.63 611.13 1278.18 Z" />
</g>
<g id="#9b4d75c3">
<path fill="#9b4d75" opacity="0.76" d=" M 667.64 1280.00 C 667.22 1278.19 669.44 1277.08 670.80 1278.20 C 670.76 1278.65 670.68 1279.55 670.64 1280.00 L 667.64 1280.00 Z" />
</g>
<g id="#4d263a61">
<path fill="#4d263a" opacity="0.38" d=" M 670.80 1278.20 C 671.52 1278.16 672.96 1278.09 673.69 1278.06 C 673.63 1278.54 673.51 1279.51 673.45 1280.00 L 670.64 1280.00 C 670.68 1279.55 670.76 1278.65 670.80 1278.20 Z" />
</g>
</svg>
