<?xml version="1.0" encoding="UTF-8" ?>
<!DOCTYPE svg PUBLIC "-//W3C//DTD SVG 1.1//EN" "http://www.w3.org/Graphics/SVG/1.1/DTD/svg11.dtd">
<svg width="1280pt" height="1247pt" viewBox="0 0 1280 1247" version="1.1" xmlns="http://www.w3.org/2000/svg">
<g id="#ffffffff">
<path fill="#ffffff" opacity="1.00" d=" M 624.04 0.00 L 652.63 0.00 C 661.69 1.03 670.85 0.46 679.93 1.42 C 766.95 6.53 852.82 29.98 930.47 69.59 C 1018.78 114.60 1096.42 180.39 1155.19 260.22 C 1204.40 326.66 1240.47 402.82 1260.61 483.02 C 1271.80 527.83 1278.27 573.85 1279.52 620.02 C 1279.61 622.56 1279.70 625.10 1280.00 627.64 L 1280.00 640.74 C 1279.56 689.78 1274.14 738.81 1262.76 786.54 C 1244.11 865.87 1209.83 941.46 1162.65 1007.89 C 1087.98 1113.66 980.49 1195.88 858.72 1239.94 C 850.62 1242.47 842.76 1246.89 834.03 1246.26 C 818.23 1246.29 804.25 1235.67 796.38 1222.55 C 790.38 1212.85 787.26 1201.39 787.63 1189.99 C 787.64 1128.99 787.63 1067.99 787.63 1006.99 C 787.81 990.28 787.43 973.53 785.06 956.98 C 783.22 945.32 779.93 933.66 773.41 923.70 C 818.10 915.34 862.43 903.28 903.62 883.72 C 938.00 867.73 970.20 846.72 997.57 820.39 C 1027.74 791.39 1051.34 755.56 1065.55 716.17 C 1080.86 674.34 1085.30 629.16 1082.35 584.91 C 1079.80 539.91 1069.53 494.96 1049.30 454.52 C 1036.83 429.40 1020.57 406.18 1001.19 385.91 C 1009.40 372.91 1013.04 357.68 1015.92 342.76 C 1021.42 310.76 1020.86 277.42 1012.10 246.05 C 1007.04 228.54 999.60 211.30 988.00 197.13 C 929.84 196.33 872.66 218.51 827.33 254.37 C 817.01 262.76 806.82 271.45 798.08 281.51 C 764.65 269.21 729.11 263.99 693.79 260.65 C 663.24 258.21 632.50 257.76 601.89 259.58 C 560.97 262.42 519.73 268.27 481.18 282.87 C 470.18 269.80 456.87 258.90 443.38 248.53 C 400.13 216.51 347.00 196.70 292.88 197.07 C 291.17 196.78 290.38 198.51 289.48 199.58 C 272.29 223.16 263.87 252.10 261.37 280.91 C 259.40 307.01 261.49 333.58 269.11 358.69 C 272.34 369.03 276.47 379.27 282.98 388.01 C 252.64 418.87 229.37 456.62 215.21 497.51 C 203.09 532.33 197.31 569.22 196.92 606.03 C 195.95 651.15 204.12 696.81 223.26 737.84 C 237.74 769.51 258.75 798.04 283.98 821.99 C 310.77 847.35 342.05 867.73 375.44 883.30 C 417.10 903.17 461.97 915.42 507.23 923.78 C 499.98 936.21 496.85 950.50 494.80 964.59 C 492.98 979.43 491.99 994.39 492.44 1009.35 C 481.97 1014.02 470.62 1016.47 459.32 1018.14 C 445.97 1020.22 432.41 1019.82 418.94 1019.58 C 395.33 1018.00 371.77 1012.27 350.75 1001.20 C 328.94 989.92 310.28 972.59 297.64 951.52 C 289.20 937.10 277.46 924.84 264.50 914.41 C 248.72 901.94 229.98 893.00 210.09 889.67 C 200.48 887.81 190.42 887.78 180.89 890.16 C 176.70 891.31 172.09 892.97 169.73 896.90 C 168.52 900.46 169.40 904.47 171.66 907.44 C 178.74 917.43 189.50 923.73 199.06 931.03 C 213.54 943.01 224.99 958.21 234.80 974.13 C 242.79 987.23 249.69 1000.98 255.51 1015.17 C 260.81 1029.10 269.59 1041.40 279.24 1052.63 C 295.50 1071.29 315.67 1086.51 338.12 1096.92 C 357.85 1106.20 379.20 1111.87 400.86 1114.20 C 431.41 1117.56 462.41 1114.78 492.33 1108.13 C 492.41 1135.77 492.35 1163.41 492.38 1191.05 C 492.66 1209.49 483.58 1227.90 468.59 1238.70 C 459.71 1245.06 448.28 1247.75 437.55 1245.63 C 360.59 1220.02 288.64 1179.51 226.77 1127.08 C 129.98 1045.60 58.13 934.74 24.03 812.84 C 8.15 756.92 0.43 698.81 0.00 640.72 L 0.00 638.28 C 0.40 616.53 1.18 594.76 3.54 573.13 C 8.44 525.22 18.83 477.87 34.40 432.30 C 58.22 362.80 94.17 297.47 140.18 240.18 C 220.48 139.61 331.76 63.88 455.22 27.23 L 455.94 26.79 C 502.89 13.06 551.31 4.17 600.16 1.39 C 608.09 0.44 616.13 1.24 624.04 0.00 Z" />
</g>
</svg>
