<?xml version="1.0" encoding="UTF-8" ?>
<!DOCTYPE svg PUBLIC "-//W3C//DTD SVG 1.1//EN" "http://www.w3.org/Graphics/SVG/1.1/DTD/svg11.dtd">
<svg width="1280pt" height="1247pt" viewBox="0 0 1280 1247" version="1.1" xmlns="http://www.w3.org/2000/svg">
<g id="#000000ff">
<path fill="#000000" opacity="1.00" d=" M 484.26 19.23 C 557.16 0.95 633.29 -4.07 708.00 3.78 C 823.69 15.72 935.75 60.33 1028.02 131.11 C 1097.31 183.83 1155.60 250.91 1198.24 326.82 C 1239.89 400.65 1266.34 482.95 1275.75 567.18 C 1278.60 590.78 1279.47 614.54 1280.00 638.29 L 1280.00 641.63 C 1279.44 668.78 1278.05 695.93 1274.37 722.85 C 1263.54 805.88 1236.10 886.68 1194.00 959.06 C 1154.40 1027.32 1102.07 1088.17 1040.47 1137.48 C 982.84 1183.93 916.99 1220.04 846.99 1244.04 C 842.56 1245.88 837.75 1246.49 832.98 1246.21 C 820.12 1245.87 808.44 1238.38 800.60 1228.52 C 792.64 1218.45 787.91 1205.82 787.68 1192.96 C 787.70 1136.97 787.68 1080.98 787.69 1024.99 C 787.55 1001.63 788.58 978.11 784.78 954.96 C 782.96 943.99 779.56 933.14 773.49 923.74 C 815.95 915.77 858.05 904.49 897.50 886.63 C 929.39 872.29 959.64 853.98 986.04 830.97 C 1013.48 807.20 1036.57 778.27 1052.83 745.77 C 1071.00 709.91 1080.56 670.05 1082.77 630.00 C 1084.71 584.36 1080.07 538.08 1065.76 494.56 C 1052.67 454.18 1030.66 416.63 1001.28 385.94 C 1010.03 371.80 1013.73 355.26 1016.59 339.07 C 1021.88 305.07 1020.38 269.56 1009.27 236.82 C 1004.50 222.96 997.88 209.64 988.95 197.98 C 988.09 196.63 986.32 197.11 985.02 196.97 C 949.82 197.15 914.82 205.44 882.89 220.16 C 851.09 234.92 821.82 255.58 798.06 281.41 C 759.92 267.66 719.33 262.33 679.08 259.55 C 637.67 257.18 595.99 258.36 554.94 264.45 C 529.92 268.27 504.97 273.62 481.34 282.81 C 471.29 271.11 459.47 261.09 447.42 251.52 C 404.28 218.26 350.75 197.54 296.00 196.98 C 294.07 197.14 291.45 196.40 290.29 198.45 C 276.89 216.17 268.77 237.41 264.41 259.07 C 260.60 277.77 259.99 296.99 261.20 316.00 C 262.69 333.32 265.81 350.61 271.88 366.95 C 274.64 374.41 278.18 381.61 282.90 388.04 C 252.83 418.65 229.64 456.01 215.50 496.53 C 201.83 535.42 196.11 576.87 196.89 618.01 C 197.38 663.87 207.94 709.91 229.46 750.55 C 245.77 781.60 268.41 809.18 295.01 831.98 C 319.50 853.07 347.19 870.28 376.48 883.85 C 417.81 903.41 462.28 915.49 507.11 923.81 C 499.98 936.28 496.72 950.49 494.75 964.59 C 492.89 979.43 491.95 994.39 492.37 1009.36 C 477.75 1015.66 461.81 1018.17 446.05 1019.50 C 433.72 1019.71 421.32 1020.20 409.06 1018.55 C 379.30 1015.28 349.96 1004.43 326.73 985.26 C 315.09 975.51 304.98 963.86 297.26 950.77 C 289.76 938.09 279.60 927.18 268.48 917.60 C 252.42 903.93 233.04 893.86 212.22 889.97 C 202.01 887.86 191.28 887.51 181.12 890.01 C 176.87 891.20 172.15 892.81 169.73 896.80 C 168.45 900.34 169.30 904.41 171.56 907.39 C 180.67 920.49 196.08 926.77 206.89 938.14 C 226.48 957.69 240.59 982.01 251.99 1007.04 C 255.10 1013.64 257.27 1020.67 260.93 1027.00 C 272.66 1047.72 289.35 1065.44 308.47 1079.51 C 331.61 1096.43 358.89 1107.38 387.07 1112.29 C 421.95 1118.40 457.85 1115.76 492.30 1108.23 C 492.35 1136.15 492.29 1164.07 492.33 1191.99 C 492.25 1210.08 483.30 1228.03 468.59 1238.64 C 459.69 1245.03 448.17 1247.79 437.40 1245.52 C 360.79 1219.98 289.13 1179.72 227.45 1127.60 C 142.01 1055.76 75.80 961.21 37.98 856.15 C 21.50 810.56 10.34 763.06 4.63 714.93 C 1.58 690.62 0.54 666.14 0.00 641.67 L 0.00 638.26 C 0.50 609.15 2.09 580.02 6.24 551.18 C 14.83 488.99 32.58 428.02 59.08 371.08 C 110.69 259.31 195.45 163.22 299.78 97.89 C 356.56 62.08 419.11 35.45 484.26 19.23 Z" />
</g>
</svg>
