<?xml version="1.0" encoding="UTF-8" ?>
<!DOCTYPE svg PUBLIC "-//W3C//DTD SVG 1.1//EN" "http://www.w3.org/Graphics/SVG/1.1/DTD/svg11.dtd">
<svg width="1280pt" height="720pt" viewBox="0 0 1280 720" version="1.1" xmlns="http://www.w3.org/2000/svg">
<g id="#2684ffff">
<path fill="#2684ff" opacity="1.00" d=" M 630.62 15.56 C 633.66 12.61 636.65 9.01 639.91 6.57 C 660.10 27.41 680.86 47.78 701.08 68.63 C 754.20 122.59 807.54 176.33 860.58 230.37 C 897.06 266.94 933.07 303.95 969.44 340.61 C 973.56 345.14 976.69 351.03 976.70 357.26 L 977.37 357.75 C 977.28 359.22 977.27 360.70 977.32 362.18 C 976.14 363.06 976.83 364.72 976.51 365.95 C 975.26 371.39 972.51 376.52 968.46 380.40 C 935.84 413.13 903.74 446.38 871.05 479.04 C 866.98 482.72 863.90 487.36 859.58 490.75 C 858.48 488.72 858.35 486.12 856.30 484.71 C 849.66 479.14 844.42 472.16 837.65 466.75 C 837.53 463.16 833.63 461.85 831.75 459.30 C 827.19 453.56 821.81 448.55 816.31 443.75 C 810.89 437.49 804.87 431.78 798.67 426.31 C 797.12 424.84 796.27 422.77 794.60 421.42 C 786.92 415.82 781.88 407.45 774.46 401.54 C 762.10 389.47 750.22 376.84 737.63 365.01 C 739.29 363.28 741.01 361.61 742.71 359.92 C 708.40 325.29 674.29 290.46 640.04 255.77 C 629.04 244.36 619.39 231.70 611.57 217.90 C 592.12 183.39 585.06 142.22 591.23 103.13 C 596.26 72.22 609.22 42.39 629.54 18.44 C 630.11 17.58 630.47 16.62 630.62 15.56 Z" />
<path fill="#2684ff" opacity="1.00" d=" M 314.92 335.86 C 349.49 300.04 385.20 265.34 419.55 229.32 C 422.69 234.16 428.04 236.87 431.66 241.24 C 433.36 244.52 436.75 246.28 438.93 249.18 C 440.02 250.78 441.88 251.45 443.40 252.54 C 447.47 257.19 451.98 261.48 455.11 266.87 C 460.19 271.10 464.46 276.18 469.27 280.71 C 472.64 283.83 475.37 287.72 479.44 290.00 C 481.02 291.96 482.27 294.23 484.35 295.74 C 489.87 300.14 494.60 305.46 498.96 310.98 C 502.92 314.03 505.95 318.06 509.88 321.14 C 513.70 324.29 516.43 328.57 520.36 331.61 C 524.89 334.75 527.43 339.87 531.88 343.12 C 535.21 347.14 539.78 349.98 542.73 354.32 C 540.86 356.17 538.99 358.03 537.13 359.89 C 541.90 365.68 547.68 370.68 552.82 376.19 C 581.37 405.71 610.72 434.45 639.18 464.04 C 654.46 479.22 666.60 497.38 675.46 516.98 C 690.78 551.62 694.61 591.20 686.24 628.13 C 680.55 653.41 669.32 677.52 653.20 697.85 C 653.63 697.96 654.51 698.18 654.94 698.29 C 650.13 703.63 644.39 708.16 639.95 713.81 C 616.89 689.96 593.42 666.52 570.09 642.94 C 515.60 587.47 460.83 532.27 406.30 476.83 C 374.12 443.99 341.45 411.61 309.47 378.57 C 306.31 375.03 303.92 370.59 303.26 365.88 C 301.67 362.70 302.60 358.59 302.67 355.09 C 302.81 354.86 303.10 354.42 303.24 354.19 C 304.14 346.62 309.62 340.86 314.92 335.86 Z" />
</g>
<g id="#0053cdff">
<path fill="#0053cd" opacity="1.00" d=" M 596.77 49.77 C 608.02 38.34 619.10 26.72 630.62 15.56 C 630.47 16.62 630.11 17.58 629.54 18.44 C 609.22 42.39 596.26 72.22 591.23 103.13 C 585.06 142.22 592.12 183.39 611.57 217.90 C 611.18 218.49 610.39 219.67 609.99 220.26 C 608.03 216.64 606.50 212.42 603.02 209.96 C 597.00 205.15 592.68 198.72 587.09 193.49 C 579.68 186.71 573.32 178.84 565.53 172.45 C 558.36 162.73 548.73 155.30 540.83 146.26 C 535.06 140.37 528.54 135.17 523.56 128.55 C 521.98 129.02 520.25 129.93 518.78 128.66 C 544.63 102.22 570.91 76.20 596.77 49.77 Z" />
<path fill="#0053cd" opacity="1.00" d=" M 675.46 516.98 C 676.08 515.99 676.76 515.04 677.41 514.06 C 678.56 517.57 679.51 521.62 682.70 523.88 C 685.98 526.36 689.00 529.22 691.45 532.54 C 694.26 536.37 698.17 539.16 701.43 542.59 C 705.85 547.83 711.45 551.90 715.71 557.29 C 717.05 559.33 719.38 560.23 721.07 561.87 C 724.48 567.07 729.59 570.75 733.94 575.11 C 740.50 581.65 746.65 588.60 753.74 594.59 C 755.67 592.49 757.90 590.58 760.97 590.97 C 725.86 626.97 690.43 662.68 654.94 698.29 C 654.51 698.18 653.63 697.96 653.20 697.85 C 669.32 677.52 680.55 653.41 686.24 628.13 C 694.61 591.20 690.78 551.62 675.46 516.98 Z" />
</g>
<g id="#075bd6ff">
<path fill="#075bd6" opacity="1.00" d=" M 518.78 128.66 C 520.25 129.93 521.98 129.02 523.56 128.55 C 528.54 135.17 535.06 140.37 540.83 146.26 C 548.73 155.30 558.36 162.73 565.53 172.45 C 573.32 178.84 579.68 186.71 587.09 193.49 C 592.68 198.72 597.00 205.15 603.02 209.96 C 606.50 212.42 608.03 216.64 609.99 220.26 C 610.39 219.67 611.18 218.49 611.57 217.90 C 619.39 231.70 629.04 244.36 640.04 255.77 C 634.08 261.75 628.13 267.73 622.20 273.74 C 621.92 273.27 621.37 272.33 621.10 271.86 C 622.46 269.86 624.25 268.21 625.86 266.41 C 624.76 266.12 623.67 265.83 622.59 265.54 C 622.46 264.73 622.34 263.93 622.24 263.13 C 621.77 263.49 620.82 264.21 620.34 264.57 C 618.80 262.64 618.47 260.12 617.30 258.00 C 616.27 258.57 615.25 259.15 614.23 259.73 C 614.29 258.65 614.31 257.57 614.39 256.50 C 610.84 255.09 607.06 252.46 606.30 248.49 C 604.80 247.25 603.32 246.01 602.03 244.57 C 601.49 244.48 600.96 244.40 600.44 244.31 C 600.39 243.58 600.33 242.86 600.25 242.14 C 596.50 239.51 592.53 236.92 590.04 233.00 C 586.96 229.26 581.01 227.34 580.90 221.81 C 579.72 221.51 578.34 221.52 577.41 220.63 C 572.46 216.05 567.36 211.54 563.61 205.86 C 563.14 205.95 562.67 206.05 562.22 206.15 C 559.42 202.80 556.11 199.91 553.58 196.34 C 550.90 193.75 547.87 191.53 545.07 189.07 C 545.60 188.43 546.15 187.80 546.71 187.17 C 545.70 187.31 544.68 187.37 543.68 187.34 C 542.02 185.31 540.93 182.90 539.48 180.73 C 538.74 179.39 536.93 179.39 535.96 178.31 C 535.45 177.19 535.16 176.00 534.81 174.84 C 533.78 174.67 532.73 174.55 531.73 174.26 C 530.32 173.42 530.53 171.63 530.18 170.25 C 527.66 169.42 525.51 167.84 523.66 165.99 C 523.89 165.21 524.14 164.44 524.38 163.67 C 520.53 163.96 518.07 160.78 515.77 158.21 C 514.17 156.63 514.95 153.92 513.10 152.46 C 512.40 152.79 511.71 153.11 511.02 153.44 C 509.09 151.73 507.25 149.93 505.60 147.95 C 506.30 145.97 505.70 143.91 505.86 141.88 C 510.09 137.41 514.53 133.13 518.78 128.66 Z" />
</g>
<g id="#0d63deff">
<path fill="#0d63de" opacity="1.00" d=" M 477.12 171.24 C 486.48 161.25 496.36 151.74 505.86 141.88 C 505.70 143.91 506.30 145.97 505.60 147.95 C 507.25 149.93 509.09 151.73 511.02 153.44 C 511.71 153.11 512.40 152.79 513.10 152.46 C 514.95 153.92 514.17 156.63 515.77 158.21 C 518.07 160.78 520.53 163.96 524.38 163.67 C 524.14 164.44 523.89 165.21 523.66 165.99 C 525.51 167.84 527.66 169.42 530.18 170.25 C 530.53 171.63 530.32 173.42 531.73 174.26 C 532.73 174.55 533.78 174.67 534.81 174.84 C 535.16 176.00 535.45 177.19 535.96 178.31 C 536.93 179.39 538.74 179.39 539.48 180.73 C 540.93 182.90 542.02 185.31 543.68 187.34 C 544.68 187.37 545.70 187.31 546.71 187.17 C 546.15 187.80 545.60 188.43 545.07 189.07 C 547.87 191.53 550.90 193.75 553.58 196.34 C 556.11 199.91 559.42 202.80 562.22 206.15 C 562.67 206.05 563.14 205.95 563.61 205.86 C 567.36 211.54 572.46 216.05 577.41 220.63 C 578.34 221.52 579.72 221.51 580.90 221.81 C 581.01 227.34 586.96 229.26 590.04 233.00 C 592.53 236.92 596.50 239.51 600.25 242.14 C 600.33 242.86 600.39 243.58 600.44 244.31 C 600.96 244.40 601.49 244.48 602.03 244.57 C 603.32 246.01 604.80 247.25 606.30 248.49 C 607.06 252.46 610.84 255.09 614.39 256.50 C 614.31 257.57 614.29 258.65 614.23 259.73 C 615.25 259.15 616.27 258.57 617.30 258.00 C 618.47 260.12 618.80 262.64 620.34 264.57 C 620.82 264.21 621.77 263.49 622.24 263.13 C 622.34 263.93 622.46 264.73 622.59 265.54 C 623.67 265.83 624.76 266.12 625.86 266.41 C 624.25 268.21 622.46 269.86 621.10 271.86 C 621.37 272.33 621.92 273.27 622.20 273.74 C 615.54 280.45 608.91 287.21 602.25 293.92 C 599.78 289.42 595.36 286.34 593.36 281.56 C 591.93 281.00 590.39 280.66 589.13 279.79 C 588.20 278.27 587.86 276.49 587.30 274.82 C 586.16 274.62 584.93 274.70 583.89 274.18 C 580.06 269.61 574.99 266.26 571.57 261.32 C 569.88 258.64 566.36 257.99 564.73 255.27 C 562.83 252.52 561.08 249.43 557.91 247.97 C 557.62 247.31 557.35 246.65 557.08 245.99 C 553.63 244.71 551.57 241.50 548.79 239.29 C 547.21 238.22 547.85 235.81 546.19 234.81 C 542.59 232.07 540.04 228.28 536.70 225.27 C 534.62 223.36 532.96 221.07 531.57 218.63 C 531.08 218.95 530.60 219.26 530.11 219.56 C 529.59 217.96 528.31 216.90 527.02 215.92 C 522.34 210.97 517.22 206.41 513.22 200.84 C 512.10 198.93 509.82 198.03 509.10 195.85 C 508.43 193.44 505.60 193.77 503.68 193.22 C 503.50 191.46 503.20 189.71 502.61 188.04 C 502.22 188.96 501.84 189.88 501.49 190.81 C 501.10 187.78 499.40 185.25 496.97 183.46 C 496.51 183.72 495.59 184.25 495.13 184.52 C 494.77 182.62 493.87 180.91 492.55 179.51 C 492.11 179.88 491.67 180.25 491.24 180.63 C 491.05 179.23 490.84 177.82 490.66 176.42 C 489.11 175.99 487.53 175.63 486.04 175.02 C 485.11 174.12 485.02 172.71 484.53 171.57 C 484.09 171.85 483.20 172.39 482.76 172.67 C 482.63 171.52 482.60 170.37 482.65 169.22 C 481.07 170.56 479.36 172.24 477.12 171.24 Z" />
</g>
<g id="#146de8ff">
<path fill="#146de8" opacity="1.00" d=" M 477.12 171.24 C 479.36 172.24 481.07 170.56 482.65 169.22 C 482.60 170.37 482.63 171.52 482.76 172.67 C 483.20 172.39 484.09 171.85 484.53 171.57 C 485.02 172.71 485.11 174.12 486.04 175.02 C 487.53 175.63 489.11 175.99 490.66 176.42 C 490.84 177.82 491.05 179.23 491.24 180.63 C 491.67 180.25 492.11 179.88 492.55 179.51 C 493.87 180.91 494.77 182.62 495.13 184.52 C 495.59 184.25 496.51 183.72 496.97 183.46 C 499.40 185.25 501.10 187.78 501.49 190.81 C 501.84 189.88 502.22 188.96 502.61 188.04 C 503.20 189.71 503.50 191.46 503.68 193.22 C 505.60 193.77 508.43 193.44 509.10 195.85 C 509.82 198.03 512.10 198.93 513.22 200.84 C 517.22 206.41 522.34 210.97 527.02 215.92 C 528.31 216.90 529.59 217.96 530.11 219.56 C 530.60 219.26 531.08 218.95 531.57 218.63 C 532.96 221.07 534.62 223.36 536.70 225.27 C 540.04 228.28 542.59 232.07 546.19 234.81 C 547.85 235.81 547.21 238.22 548.79 239.29 C 551.57 241.50 553.63 244.71 557.08 245.99 C 557.35 246.65 557.62 247.31 557.91 247.97 C 561.08 249.43 562.83 252.52 564.73 255.27 C 566.36 257.99 569.88 258.64 571.57 261.32 C 574.99 266.26 580.06 269.61 583.89 274.18 C 584.93 274.70 586.16 274.62 587.30 274.82 C 587.86 276.49 588.20 278.27 589.13 279.79 C 590.39 280.66 591.93 281.00 593.36 281.56 C 595.36 286.34 599.78 289.42 602.25 293.92 C 595.22 300.96 588.34 308.14 581.41 315.28 C 580.57 313.32 579.55 311.36 577.60 310.32 C 575.24 309.03 574.38 306.20 572.03 304.92 C 569.58 303.87 569.56 300.88 567.68 299.29 C 564.00 295.98 560.92 292.06 557.09 288.91 C 553.94 286.39 551.96 282.74 548.82 280.21 C 541.54 273.84 535.03 266.67 528.24 259.78 C 521.51 253.83 515.80 246.84 509.17 240.79 C 505.48 237.49 502.37 233.62 498.76 230.25 C 493.83 225.65 490.05 219.86 484.65 215.77 C 482.31 214.39 480.96 211.97 479.55 209.75 C 478.60 210.35 476.92 210.78 476.70 209.21 C 474.74 202.56 466.56 200.76 464.06 194.46 C 462.85 192.09 459.96 191.48 457.61 190.82 C 463.99 184.22 470.47 177.72 476.95 171.21 L 477.12 171.24 Z" />
</g>
<g id="#1b76f1ff">
<path fill="#1b76f1" opacity="1.00" d=" M 437.92 210.66 C 444.46 204.03 451.09 197.48 457.61 190.82 C 459.96 191.48 462.85 192.09 464.06 194.46 C 466.56 200.76 474.74 202.56 476.70 209.21 C 476.92 210.78 478.60 210.35 479.55 209.75 C 480.96 211.97 482.31 214.39 484.65 215.77 C 490.05 219.86 493.83 225.65 498.76 230.25 C 502.37 233.62 505.48 237.49 509.17 240.79 C 515.80 246.84 521.51 253.83 528.24 259.78 C 535.03 266.67 541.54 273.84 548.82 280.21 C 551.96 282.74 553.94 286.39 557.09 288.91 C 560.92 292.06 564.00 295.98 567.68 299.29 C 569.56 300.88 569.58 303.87 572.03 304.92 C 574.38 306.20 575.24 309.03 577.60 310.32 C 579.55 311.36 580.57 313.32 581.41 315.28 C 574.48 322.26 567.58 329.26 560.65 336.23 C 557.24 331.71 553.35 327.57 549.24 323.69 C 547.56 321.70 546.32 319.27 543.91 318.03 C 538.70 313.60 533.78 308.81 529.21 303.72 C 524.61 298.80 519.19 294.59 515.44 288.94 C 511.59 286.96 508.90 283.51 506.52 280.00 C 504.25 279.20 502.39 277.49 501.83 275.11 C 499.23 271.50 495.45 268.92 492.56 265.55 C 488.97 261.44 484.65 258.07 480.83 254.20 C 476.68 249.35 472.14 244.84 467.39 240.58 C 465.40 237.24 461.73 235.60 459.50 232.48 C 452.21 225.30 445.29 217.72 437.92 210.66 Z" />
<path fill="#1b76f1" opacity="1.00" d=" M 698.83 404.15 C 706.48 396.48 714.09 388.78 721.76 381.13 C 724.21 382.83 726.32 385.47 729.52 385.66 C 730.21 387.48 730.32 389.72 731.94 391.04 C 734.17 392.85 735.38 395.63 737.80 397.25 C 741.88 399.98 744.37 404.41 748.25 407.37 C 749.11 407.20 749.89 406.72 750.71 406.38 C 750.57 407.48 750.28 408.59 750.44 409.71 C 754.06 414.55 759.30 417.85 763.15 422.49 C 764.29 422.03 765.47 421.47 766.74 421.79 C 766.34 422.76 765.92 423.73 765.54 424.71 C 769.41 428.52 772.33 433.59 777.39 435.95 C 778.40 437.30 779.29 438.77 780.54 439.96 C 780.59 438.90 780.65 437.84 780.73 436.79 C 782.68 438.58 781.11 441.96 783.25 443.59 C 785.23 445.27 786.91 447.40 789.24 448.64 C 792.23 450.06 793.22 453.78 796.24 455.21 C 797.91 455.79 798.27 457.63 799.13 458.98 C 801.27 462.88 806.84 463.42 808.20 467.88 C 808.61 467.03 809.04 466.19 809.48 465.35 C 810.28 466.24 811.07 467.15 811.89 468.06 C 810.94 468.51 810.01 468.98 809.07 469.43 C 813.84 469.97 815.04 475.07 818.12 477.92 C 820.31 480.01 822.47 482.14 824.38 484.50 C 825.46 486.20 827.80 486.37 828.84 488.10 C 830.69 490.74 832.80 493.19 835.14 495.42 C 835.53 495.20 836.30 494.77 836.69 494.56 C 837.23 495.17 837.79 495.79 838.36 496.42 C 838.12 497.10 837.93 497.80 837.78 498.52 C 839.57 500.72 841.75 502.56 843.70 504.64 C 844.29 503.93 844.89 503.23 845.50 502.54 C 845.98 502.77 846.93 503.24 847.40 503.47 C 838.24 512.82 829.01 522.11 819.81 531.41 C 816.72 530.81 814.68 528.48 812.67 526.28 C 807.92 522.06 803.87 517.15 799.29 512.75 C 796.77 509.56 793.19 507.43 790.94 504.02 C 786.19 499.13 781.08 494.57 776.39 489.60 C 769.87 481.18 761.39 474.61 754.37 466.65 C 750.01 462.32 745.30 458.33 741.46 453.50 C 732.17 445.51 724.12 436.20 715.21 427.78 C 710.09 421.91 704.37 416.62 698.92 411.07 C 696.66 408.95 701.23 406.40 698.83 404.15 Z" />
</g>
<g id="#217ef9ff">
<path fill="#217ef9" opacity="1.00" d=" M 419.55 229.32 C 425.68 223.11 431.79 216.88 437.92 210.66 C 445.29 217.72 452.21 225.30 459.50 232.48 C 461.73 235.60 465.40 237.24 467.39 240.58 C 472.14 244.84 476.68 249.35 480.83 254.20 C 484.65 258.07 488.97 261.44 492.56 265.55 C 495.45 268.92 499.23 271.50 501.83 275.11 C 502.39 277.49 504.25 279.20 506.52 280.00 C 508.90 283.51 511.59 286.96 515.44 288.94 C 519.19 294.59 524.61 298.80 529.21 303.72 C 533.78 308.81 538.70 313.60 543.91 318.03 C 546.32 319.27 547.56 321.70 549.24 323.69 C 553.35 327.57 557.24 331.71 560.65 336.23 C 554.64 342.23 548.72 348.31 542.73 354.32 C 539.78 349.98 535.21 347.14 531.88 343.12 C 527.43 339.87 524.89 334.75 520.36 331.61 C 516.43 328.57 513.70 324.29 509.88 321.14 C 505.95 318.06 502.92 314.03 498.96 310.98 C 494.60 305.46 489.87 300.14 484.35 295.74 C 482.27 294.23 481.02 291.96 479.44 290.00 C 475.37 287.72 472.64 283.83 469.27 280.71 C 464.46 276.18 460.19 271.10 455.11 266.87 C 451.98 261.48 447.47 257.19 443.40 252.54 C 441.88 251.45 440.02 250.78 438.93 249.18 C 436.75 246.28 433.36 244.52 431.66 241.24 C 428.04 236.87 422.69 234.16 419.55 229.32 Z" />
</g>
<g id="#227ffaff">
<path fill="#227ffa" opacity="1.00" d=" M 721.76 381.13 C 727.08 375.79 732.37 370.41 737.63 365.01 C 750.22 376.84 762.10 389.47 774.46 401.54 C 781.88 407.45 786.92 415.82 794.60 421.42 C 796.27 422.77 797.12 424.84 798.67 426.31 C 804.87 431.78 810.89 437.49 816.31 443.75 C 821.81 448.55 827.19 453.56 831.75 459.30 C 833.63 461.85 837.53 463.16 837.65 466.75 C 844.42 472.16 849.66 479.14 856.30 484.71 C 858.35 486.12 858.48 488.72 859.58 490.75 L 859.67 491.07 C 855.53 495.15 851.52 499.37 847.40 503.47 C 846.93 503.24 845.98 502.77 845.50 502.54 C 844.89 503.23 844.29 503.93 843.70 504.64 C 841.75 502.56 839.57 500.72 837.78 498.52 C 837.93 497.80 838.12 497.10 838.36 496.42 C 837.79 495.79 837.23 495.17 836.69 494.56 C 836.30 494.77 835.53 495.20 835.14 495.42 C 832.80 493.19 830.69 490.74 828.84 488.10 C 827.80 486.37 825.46 486.20 824.38 484.50 C 822.47 482.14 820.31 480.01 818.12 477.92 C 815.04 475.07 813.84 469.97 809.07 469.43 C 810.01 468.98 810.94 468.51 811.89 468.06 C 811.07 467.15 810.28 466.24 809.48 465.35 C 809.04 466.19 808.61 467.03 808.20 467.88 C 806.84 463.42 801.27 462.88 799.13 458.98 C 798.27 457.63 797.91 455.79 796.24 455.21 C 793.22 453.78 792.23 450.06 789.24 448.64 C 786.91 447.40 785.23 445.27 783.25 443.59 C 781.11 441.96 782.68 438.58 780.73 436.79 C 780.65 437.84 780.59 438.90 780.54 439.96 C 779.29 438.77 778.40 437.30 777.39 435.95 C 772.33 433.59 769.41 428.52 765.54 424.71 C 765.92 423.73 766.34 422.76 766.74 421.79 C 765.47 421.47 764.29 422.03 763.15 422.49 C 759.30 417.85 754.06 414.55 750.44 409.71 C 750.28 408.59 750.57 407.48 750.71 406.38 C 749.89 406.72 749.11 407.20 748.25 407.37 C 744.37 404.41 741.88 399.98 737.80 397.25 C 735.38 395.63 734.17 392.85 731.94 391.04 C 730.32 389.72 730.21 387.48 729.52 385.66 C 726.32 385.47 724.21 382.83 721.76 381.13 Z" />
</g>
<g id="#136ce6ff">
<path fill="#136ce6" opacity="1.00" d=" M 675.72 427.50 C 683.39 419.68 691.15 411.95 698.83 404.15 C 701.23 406.40 696.66 408.95 698.92 411.07 C 704.37 416.62 710.09 421.91 715.21 427.78 C 724.12 436.20 732.17 445.51 741.46 453.50 C 745.30 458.33 750.01 462.32 754.37 466.65 C 761.39 474.61 769.87 481.18 776.39 489.60 C 781.08 494.57 786.19 499.13 790.94 504.02 C 793.19 507.43 796.77 509.56 799.29 512.75 C 803.87 517.15 807.92 522.06 812.67 526.28 C 814.68 528.48 816.72 530.81 819.81 531.41 C 812.70 538.82 805.40 546.06 798.15 553.34 C 793.47 551.87 790.57 547.96 787.63 544.34 C 779.69 537.67 772.81 529.84 765.35 522.66 C 763.26 521.10 761.64 519.06 759.95 517.11 C 755.82 512.85 751.48 508.80 747.35 504.54 C 746.45 503.62 745.07 503.59 743.93 503.20 C 743.29 501.55 742.73 499.79 741.41 498.55 C 734.38 491.94 727.39 485.24 720.98 478.02 C 720.00 476.70 718.28 476.62 716.86 476.20 C 716.16 472.58 713.58 469.34 710.32 467.67 C 702.12 457.51 693.04 447.78 682.71 439.66 C 682.88 439.28 683.22 438.54 683.39 438.17 C 680.98 436.02 678.06 434.47 675.94 431.99 C 676.46 430.73 676.99 429.47 677.52 428.21 C 677.07 428.03 676.17 427.68 675.72 427.50 Z" />
</g>
<g id="#0c62ddff">
<path fill="#0c62dd" opacity="1.00" d=" M 650.65 453.08 C 659.01 444.55 667.24 435.90 675.72 427.50 C 676.17 427.68 677.07 428.03 677.52 428.21 C 676.99 429.47 676.46 430.73 675.94 431.99 C 678.06 434.47 680.98 436.02 683.39 438.17 C 683.22 438.54 682.88 439.28 682.71 439.66 C 693.04 447.78 702.12 457.51 710.32 467.67 C 713.58 469.34 716.16 472.58 716.86 476.20 C 718.28 476.62 720.00 476.70 720.98 478.02 C 727.39 485.24 734.38 491.94 741.41 498.55 C 742.73 499.79 743.29 501.55 743.93 503.20 C 745.07 503.59 746.45 503.62 747.35 504.54 C 751.48 508.80 755.82 512.85 759.95 517.11 C 761.64 519.06 763.26 521.10 765.35 522.66 C 772.81 529.84 779.69 537.67 787.63 544.34 C 790.57 547.96 793.47 551.87 798.15 553.34 C 791.36 560.29 784.52 567.18 777.72 574.11 C 777.35 573.64 776.63 572.71 776.26 572.24 C 774.86 573.43 773.72 575.12 771.96 575.79 C 768.23 573.78 765.96 569.88 762.48 567.47 C 756.80 561.21 750.59 555.44 744.97 549.12 C 744.00 547.85 742.39 547.58 740.99 547.08 C 738.08 542.01 733.65 537.97 729.63 533.77 C 729.08 533.92 728.55 534.09 728.04 534.28 C 727.10 532.28 726.63 529.72 724.50 528.63 C 721.70 527.30 720.06 524.65 718.03 522.46 C 717.46 522.75 716.90 523.05 716.34 523.35 C 716.20 518.98 711.59 517.58 709.60 514.28 C 708.02 511.93 705.23 510.70 703.82 508.20 C 701.67 504.41 697.92 502.04 695.22 498.72 C 692.87 495.74 689.52 493.76 687.34 490.64 C 686.09 488.47 683.37 488.06 681.90 486.16 C 677.58 480.38 671.72 475.96 667.54 470.10 C 667.30 470.75 666.82 472.06 666.58 472.71 C 665.66 469.56 664.10 466.58 661.62 464.39 C 657.69 460.89 653.98 457.15 650.65 453.08 Z" />
</g>
<g id="#0659d4ff">
<path fill="#0659d4" opacity="1.00" d=" M 639.18 464.04 C 643.57 461.09 646.71 456.60 650.65 453.08 C 653.98 457.15 657.69 460.89 661.62 464.39 C 664.10 466.58 665.66 469.56 666.58 472.71 C 666.82 472.06 667.30 470.75 667.54 470.10 C 671.72 475.96 677.58 480.38 681.90 486.16 C 683.37 488.06 686.09 488.47 687.34 490.64 C 689.52 493.76 692.87 495.74 695.22 498.72 C 697.92 502.04 701.67 504.41 703.82 508.20 C 705.23 510.70 708.02 511.93 709.60 514.28 C 711.59 517.58 716.20 518.98 716.34 523.35 C 716.90 523.05 717.46 522.75 718.03 522.46 C 720.06 524.65 721.70 527.30 724.50 528.63 C 726.63 529.72 727.10 532.28 728.04 534.28 C 728.55 534.09 729.08 533.92 729.63 533.77 C 733.65 537.97 738.08 542.01 740.99 547.08 C 742.39 547.58 744.00 547.85 744.97 549.12 C 750.59 555.44 756.80 561.21 762.48 567.47 C 765.96 569.88 768.23 573.78 771.96 575.79 C 773.72 575.12 774.86 573.43 776.26 572.24 C 776.63 572.71 777.35 573.64 777.72 574.11 C 772.12 579.71 766.59 585.39 760.97 590.97 C 757.90 590.58 755.67 592.49 753.74 594.59 C 746.65 588.60 740.50 581.65 733.94 575.11 C 729.59 570.75 724.48 567.07 721.07 561.87 C 719.38 560.23 717.05 559.33 715.71 557.29 C 711.45 551.90 705.85 547.83 701.43 542.59 C 698.17 539.16 694.26 536.37 691.45 532.54 C 689.00 529.22 685.98 526.36 682.70 523.88 C 679.51 521.62 678.56 517.57 677.41 514.06 C 676.76 515.04 676.08 515.99 675.46 516.98 C 666.60 497.38 654.46 479.22 639.18 464.04 Z" />
</g>
</svg>
