<?xml version="1.0" encoding="UTF-8" ?>
<!DOCTYPE svg PUBLIC "-//W3C//DTD SVG 1.1//EN" "http://www.w3.org/Graphics/SVG/1.1/DTD/svg11.dtd">
<svg width="1280pt" height="1334pt" viewBox="0 0 1280 1334" version="1.1" xmlns="http://www.w3.org/2000/svg">
<g id="#000000ff">
<path fill="#000000" opacity="1.00" d=" M 866.81 0.00 L 883.95 0.00 C 901.79 0.80 919.91 2.65 936.59 9.45 C 953.29 15.96 968.59 25.51 983.16 35.84 C 1059.76 90.00 1136.76 143.58 1213.32 197.79 C 1228.34 208.70 1243.97 218.81 1258.26 230.70 C 1268.77 239.74 1278.82 251.62 1279.49 266.10 C 1278.48 270.66 1278.93 275.36 1278.88 279.98 C 1279.04 489.99 1279.21 700.00 1279.02 910.00 C 1279.00 989.66 1279.15 1069.31 1279.09 1148.97 C 1278.94 1158.82 1278.45 1168.75 1280.00 1178.53 L 1280.00 1187.39 C 1279.61 1204.93 1277.74 1222.93 1270.01 1238.93 C 1262.60 1254.24 1248.72 1265.81 1233.04 1272.00 C 1213.09 1280.16 1191.28 1281.55 1170.00 1282.65 C 902.68 1298.79 635.35 1314.93 368.03 1331.07 C 348.91 1332.13 329.80 1333.67 310.64 1334.00 L 306.45 1334.00 C 287.96 1333.85 268.92 1331.45 252.38 1322.65 C 237.46 1314.91 226.01 1302.14 215.84 1289.06 C 166.68 1225.22 117.47 1161.43 68.30 1097.60 C 52.70 1076.85 35.68 1057.02 22.67 1034.46 C 10.63 1013.79 1.71 990.79 0.31 966.72 C 0.62 964.80 1.02 962.92 1.09 961.00 C 0.80 693.66 1.24 426.32 0.81 158.98 C 0.71 156.77 0.33 154.60 0.00 152.42 L 0.00 145.71 C 0.65 126.72 4.29 107.12 15.14 91.15 C 25.62 75.20 43.17 65.12 61.40 60.60 C 72.70 57.60 84.44 57.43 96.02 56.47 C 328.99 39.23 561.97 22.14 794.95 4.95 C 818.90 3.33 842.81 1.05 866.81 0.00 M 143.97 127.34 C 137.32 127.78 130.53 128.59 124.37 131.29 C 120.03 133.28 115.81 136.69 114.53 141.47 C 113.48 147.10 117.63 151.99 121.72 155.28 C 155.93 182.43 190.15 209.56 224.34 236.74 C 236.25 246.06 249.00 254.97 263.75 259.08 C 281.35 264.10 299.87 262.97 317.94 262.27 C 570.28 246.78 822.66 231.94 1075.01 216.64 C 1082.97 216.01 1091.22 216.56 1098.73 213.37 C 1097.75 210.15 1096.72 206.88 1094.78 204.09 C 1092.41 200.46 1088.57 198.26 1085.18 195.73 C 1041.56 164.04 997.67 132.71 954.23 100.77 C 926.33 80.78 890.96 72.26 856.94 75.38 C 619.28 92.59 381.63 110.00 143.97 127.34 M 1142.20 304.17 C 1134.15 304.90 1126.12 305.83 1118.03 305.80 C 848.36 321.54 578.68 337.29 309.00 353.01 C 299.31 353.63 289.21 355.29 281.01 360.85 C 273.98 365.55 269.50 373.27 267.43 381.34 C 264.46 392.64 264.91 404.43 264.86 416.01 C 264.85 670.33 264.84 924.66 264.86 1178.98 C 265.06 1191.08 266.83 1203.81 273.86 1213.99 C 280.11 1223.16 290.69 1228.38 301.30 1230.67 C 316.69 1233.92 332.51 1232.27 348.07 1231.47 C 607.03 1216.52 866.00 1201.54 1124.96 1186.54 C 1135.50 1185.78 1146.21 1185.93 1156.53 1183.30 C 1163.95 1181.43 1171.18 1178.16 1176.82 1172.88 C 1182.88 1167.16 1186.76 1159.46 1188.77 1151.44 C 1191.57 1140.22 1191.65 1128.56 1191.66 1117.07 C 1191.65 866.72 1191.66 616.37 1191.65 366.02 C 1191.60 353.21 1192.39 340.05 1188.26 327.71 C 1185.47 318.95 1179.72 310.63 1171.11 306.83 C 1161.96 303.15 1151.85 303.28 1142.20 304.17 Z" />
<path fill="#000000" opacity="1.00" d=" M 882.00 457.10 C 941.99 453.31 1002.03 450.27 1062.02 446.38 C 1064.23 456.84 1064.85 468.05 1061.15 478.25 C 1058.54 485.54 1052.80 491.98 1045.24 494.22 C 1030.21 498.12 1014.80 500.23 999.65 503.58 C 999.75 693.63 999.37 883.67 999.86 1073.72 C 982.74 1083.20 964.84 1091.47 945.99 1096.86 C 926.58 1102.41 905.90 1104.58 885.96 1100.80 C 877.90 1099.38 870.27 1096.01 863.53 1091.41 C 849.18 1081.59 838.95 1067.25 828.24 1053.83 C 824.49 1049.37 821.70 1044.24 818.49 1039.41 C 735.97 910.14 653.51 780.83 571.32 651.35 C 571.28 780.25 571.25 909.15 571.34 1038.06 C 598.27 1043.76 625.04 1050.17 651.94 1056.01 C 651.14 1074.95 636.71 1090.83 619.61 1097.52 C 607.44 1102.86 593.93 1102.00 580.98 1103.05 C 522.93 1106.30 464.91 1109.91 406.85 1112.99 C 404.51 1102.53 406.02 1090.97 412.11 1082.01 C 415.27 1077.50 419.68 1073.58 425.05 1072.00 C 440.78 1067.12 456.78 1063.18 472.60 1058.60 C 472.62 888.25 472.62 717.90 472.59 547.55 C 450.68 545.95 428.77 544.41 406.92 542.23 C 404.38 526.73 408.93 510.18 419.24 498.31 C 425.99 490.45 435.56 484.88 445.91 483.62 C 511.80 478.24 577.84 474.87 643.75 469.67 C 711.62 573.31 779.43 676.99 847.28 780.64 C 867.80 811.76 887.98 843.13 908.70 874.09 C 908.46 754.89 908.71 635.69 908.57 516.49 C 885.96 513.99 863.35 511.46 840.77 508.69 C 838.76 498.37 840.92 487.40 846.59 478.56 C 854.18 466.43 867.60 457.87 882.00 457.10 Z" />
</g>
<g id="#000000db">
<path fill="#000000" opacity="0.86" d=" M 0.00 152.42 C 0.33 154.60 0.71 156.77 0.81 158.98 C 1.24 426.32 0.80 693.66 1.09 961.00 C 1.02 962.92 0.62 964.80 0.31 966.72 L 0.00 965.13 L 0.00 152.42 Z" />
</g>
<g id="#000000dd">
<path fill="#000000" opacity="0.87" d=" M 1279.49 266.10 L 1280.00 264.76 L 1280.00 1178.53 C 1278.45 1168.75 1278.94 1158.82 1279.09 1148.97 C 1279.15 1069.31 1279.00 989.66 1279.02 910.00 C 1279.21 700.00 1279.04 489.99 1278.88 279.98 C 1278.93 275.36 1278.48 270.66 1279.49 266.10 Z" />
</g>
</svg>
