<?xml version="1.0" encoding="UTF-8" ?>
<!DOCTYPE svg PUBLIC "-//W3C//DTD SVG 1.1//EN" "http://www.w3.org/Graphics/SVG/1.1/DTD/svg11.dtd">
<svg width="640pt" height="667pt" viewBox="0 0 640 667" version="1.1" xmlns="http://www.w3.org/2000/svg">
<g id="#ffffffff">
<path fill="#ffffff" opacity="1.00" d=" M 424.55 0.00 L 449.42 0.00 C 455.32 1.02 461.33 1.75 466.97 3.90 C 475.00 6.96 482.47 11.31 489.51 16.20 C 532.16 46.33 575.06 76.11 617.60 106.40 C 626.65 112.95 637.65 119.69 640.00 131.52 L 640.00 601.53 C 638.76 611.99 635.66 623.19 627.05 630.01 C 615.99 639.37 600.86 640.70 587.00 641.50 C 466.83 648.72 346.65 656.03 226.48 663.25 C 206.81 664.56 187.09 665.41 167.45 667.00 L 144.56 667.00 C 139.57 666.05 134.50 665.31 129.80 663.29 C 121.22 659.85 114.36 653.30 108.83 646.06 C 84.21 614.24 59.73 582.33 35.14 550.51 C 24.21 535.98 11.91 522.06 4.98 505.02 C 2.40 499.11 1.10 492.75 0.00 486.42 L 0.00 66.58 C 1.23 57.48 4.18 48.37 10.42 41.43 C 18.31 33.18 29.74 29.04 40.99 28.48 C 131.87 21.74 222.75 15.05 313.63 8.37 C 350.60 5.52 387.62 3.15 424.55 0.00 M 406.93 39.52 C 387.82 40.87 368.71 42.49 349.59 43.56 C 317.64 46.11 285.59 48.47 253.58 50.56 C 239.98 51.79 226.26 52.77 212.58 53.57 C 164.57 57.45 116.38 60.46 68.33 64.37 C 64.14 64.82 59.30 66.24 57.49 70.48 C 57.08 72.89 58.29 75.27 60.15 76.75 C 78.09 91.02 96.04 105.29 114.01 119.52 C 119.89 123.91 126.25 128.04 133.51 129.65 C 141.17 131.83 149.20 130.73 157.04 131.01 C 169.22 130.07 181.42 129.63 193.59 128.66 C 306.88 122.03 420.11 114.88 533.42 108.44 C 538.59 107.59 543.99 108.21 549.11 106.68 C 548.45 104.07 547.21 101.45 544.97 99.85 C 524.14 84.76 503.24 69.78 482.47 54.61 C 478.02 51.26 473.55 47.86 468.48 45.48 C 459.24 40.50 448.76 38.46 438.41 37.57 C 427.90 37.59 417.42 39.02 406.93 39.52 M 567.58 152.59 C 538.96 154.41 510.26 156.15 481.58 157.56 L 480.58 157.82 C 372.45 163.99 264.32 170.48 156.19 176.66 C 149.35 177.07 141.30 178.03 137.03 184.11 C 132.73 189.83 133.17 197.27 132.51 204.01 C 132.49 321.02 132.51 438.03 132.50 555.04 C 132.75 568.64 131.90 582.29 133.14 595.85 C 134.11 601.88 136.53 608.42 142.10 611.62 C 150.24 616.71 160.39 616.41 169.59 615.65 C 235.54 612.06 301.45 607.84 367.41 604.44 C 396.02 602.51 424.73 600.87 453.42 599.44 C 456.72 598.42 460.24 599.48 463.59 598.66 C 496.40 596.85 529.18 594.92 561.97 593.00 C 571.16 592.51 581.49 592.67 588.72 585.99 C 593.89 580.33 595.23 572.43 595.51 565.04 C 595.48 434.36 595.51 303.69 595.50 173.01 C 595.09 166.87 593.60 160.26 589.01 155.84 C 582.96 150.95 574.75 151.96 567.58 152.59 Z" />
<path fill="#ffffff" opacity="1.00" d=" M 439.96 228.61 C 470.31 226.58 500.70 225.19 531.04 223.12 C 532.13 228.47 532.50 234.22 530.51 239.40 C 529.10 243.13 526.01 246.36 522.06 247.29 C 514.73 249.14 507.25 250.21 499.87 251.80 C 499.89 346.83 499.75 441.86 499.95 536.89 C 483.55 545.91 464.95 553.36 445.88 550.90 C 439.00 550.27 432.57 547.07 427.53 542.42 C 415.07 530.77 406.82 515.68 397.61 501.53 C 360.23 442.92 322.81 384.33 285.60 325.61 C 285.82 390.07 285.60 454.54 285.72 519.01 C 299.20 521.85 312.59 525.07 326.05 527.99 C 325.31 541.13 312.46 550.52 299.98 551.01 C 267.76 552.79 235.55 554.87 203.32 556.50 C 201.75 549.09 204.07 539.81 211.42 536.38 C 219.59 533.63 228.00 531.70 236.27 529.29 C 236.25 444.14 236.25 358.98 236.26 273.83 C 225.30 272.98 214.33 272.24 203.39 271.16 C 201.17 258.53 209.26 243.78 222.56 241.83 C 255.63 239.05 288.78 237.44 321.86 234.79 C 366.04 302.26 410.24 369.70 454.33 437.22 C 454.16 377.58 454.30 317.94 454.26 258.29 C 442.92 256.98 431.56 255.81 420.25 254.32 C 417.90 242.13 427.79 229.76 439.96 228.61 Z" />
</g>
</svg>
