<?xml version="1.0" encoding="UTF-8" ?>
<!DOCTYPE svg PUBLIC "-//W3C//DTD SVG 1.1//EN" "http://www.w3.org/Graphics/SVG/1.1/DTD/svg11.dtd">
<svg width="1280pt" height="720pt" viewBox="0 0 1280 720" version="1.1" xmlns="http://www.w3.org/2000/svg">
<g id="#008de2ff">
<path fill="#008de2" opacity="1.00" d=" M 306.93 31.98 C 319.24 18.11 337.43 9.72 355.97 9.35 C 540.99 9.34 726.02 9.35 911.04 9.34 C 918.31 9.46 925.64 8.91 932.85 10.16 C 947.53 12.38 961.37 19.61 971.58 30.38 C 983.36 42.49 990.31 59.11 990.66 75.99 C 990.66 110.97 990.64 145.95 990.67 180.92 C 988.19 180.86 985.70 180.71 983.36 179.86 C 983.02 180.04 982.32 180.40 981.98 180.58 C 978.99 179.62 976.13 180.81 974.60 183.52 C 973.69 182.29 973.05 180.10 971.17 180.34 C 970.09 180.96 969.17 181.78 968.22 182.56 C 968.11 182.05 967.88 181.03 967.76 180.52 C 965.09 182.19 961.98 181.58 959.23 180.53 C 958.61 181.18 958.02 181.82 957.44 182.48 C 957.09 182.19 956.39 181.60 956.05 181.31 C 955.45 181.62 954.87 181.93 954.30 182.24 C 948.39 180.48 942.18 181.33 936.11 180.86 C 935.69 180.51 934.83 179.80 934.40 179.45 C 933.75 180.14 933.11 180.82 932.49 181.51 C 932.76 181.84 933.31 182.49 933.59 182.81 C 932.48 183.10 931.39 183.41 930.30 183.71 C 930.33 182.95 930.37 182.20 930.42 181.46 C 929.14 180.89 927.87 180.32 926.61 179.77 C 923.85 181.81 920.45 180.86 917.37 180.34 C 916.53 181.27 915.71 182.20 914.90 183.14 C 914.18 183.05 912.73 182.87 912.01 182.78 C 912.95 182.26 913.90 181.73 914.86 181.21 C 912.09 180.64 909.41 181.26 907.02 182.67 C 904.69 181.54 902.14 181.13 899.59 181.05 C 899.59 165.36 899.59 149.67 899.59 133.98 C 899.69 126.59 897.31 119.16 892.75 113.32 C 886.57 105.07 876.28 100.22 866.00 100.41 C 816.66 100.42 767.32 100.36 717.98 100.44 C 701.16 100.27 686.04 114.89 685.55 131.68 C 685.35 163.00 685.54 194.33 685.45 225.65 C 682.28 227.84 684.51 231.84 682.65 234.59 C 680.79 233.71 678.78 233.26 676.72 233.30 C 676.49 233.97 676.26 234.64 676.05 235.31 C 675.72 235.48 675.05 235.81 674.72 235.97 C 674.56 235.12 674.40 234.27 674.26 233.43 C 669.63 233.51 664.99 233.23 660.38 233.62 C 658.15 233.75 655.99 233.10 653.86 232.60 C 653.20 232.96 652.55 233.32 651.91 233.69 C 650.54 233.31 649.18 232.95 647.82 232.60 C 642.40 234.87 636.42 232.25 630.89 233.85 C 628.97 234.46 626.98 233.74 625.05 233.56 C 624.56 232.45 624.05 231.35 623.57 230.26 C 622.93 231.33 622.30 232.41 621.67 233.49 C 620.90 233.19 620.14 232.89 619.38 232.59 C 619.00 233.32 618.63 234.06 618.27 234.79 C 617.71 234.00 617.16 233.21 616.62 232.43 C 615.49 232.86 614.36 233.28 613.23 233.70 C 611.18 232.62 608.81 232.68 606.57 232.43 C 606.63 233.89 606.71 235.34 606.79 236.80 C 605.75 235.74 604.70 234.68 603.67 233.63 C 603.03 233.63 602.40 233.63 601.78 233.64 C 601.46 232.77 601.15 231.91 600.86 231.05 C 600.02 231.96 599.17 232.86 598.33 233.76 C 594.49 230.10 596.15 224.28 596.50 219.64 C 597.03 217.67 595.63 216.08 594.55 214.63 C 594.47 187.20 594.63 159.77 594.46 132.35 C 594.32 115.59 579.61 100.72 562.85 100.45 C 513.56 100.33 464.28 100.44 414.99 100.40 C 408.97 100.26 402.88 101.51 397.59 104.45 C 387.29 109.95 380.46 121.27 380.43 132.95 C 380.35 158.15 380.50 183.36 380.37 208.57 C 376.72 214.59 381.19 222.50 377.70 228.64 C 378.10 229.64 378.53 230.63 378.93 231.64 C 377.98 231.22 377.04 230.81 376.10 230.40 C 375.35 231.52 375.04 233.10 373.86 233.85 C 372.78 233.64 371.79 233.13 370.78 232.76 C 367.45 233.99 363.51 234.13 360.20 232.75 C 359.90 233.07 359.30 233.71 359.00 234.03 C 358.63 233.39 358.39 232.70 358.04 232.06 C 357.53 232.47 357.03 232.88 356.52 233.30 C 355.52 232.75 354.48 232.31 353.52 231.70 C 353.58 232.78 353.65 233.85 353.74 234.93 C 352.88 234.06 352.03 233.18 351.18 232.30 C 350.11 233.09 349.05 233.88 347.99 234.68 C 346.88 234.02 345.77 233.36 344.66 232.72 C 340.96 234.21 336.98 233.45 333.13 233.71 C 332.20 232.23 331.33 230.72 330.52 229.19 C 328.91 231.15 327.23 233.56 324.48 233.81 C 322.50 233.92 320.56 234.33 318.62 234.68 C 317.23 234.28 316.16 233.22 314.98 232.45 C 314.04 232.95 313.09 233.42 312.16 233.93 C 311.26 233.43 310.38 232.94 309.49 232.45 C 308.95 233.38 308.42 234.32 307.89 235.26 C 306.74 233.86 305.62 232.44 304.53 231.00 C 303.74 232.21 303.02 233.46 302.42 234.77 C 301.71 233.91 300.98 233.06 300.28 232.21 C 300.43 234.49 301.10 237.07 299.35 238.94 C 299.01 236.28 299.17 233.20 296.65 231.55 C 295.37 232.19 294.09 232.84 292.81 233.48 C 292.64 233.82 292.30 234.48 292.13 234.81 C 291.20 234.19 290.25 233.59 289.33 232.98 C 289.36 180.68 289.34 128.38 289.34 76.09 C 289.66 59.91 296.01 43.92 306.93 31.98 Z" />
</g>
<g id="#0089dcff">
<path fill="#0089dc" opacity="1.00" d=" M 917.37 180.34 C 920.45 180.86 923.85 181.81 926.61 179.77 C 927.87 180.32 929.14 180.89 930.42 181.46 C 930.37 182.20 930.33 182.95 930.30 183.71 C 931.39 183.41 932.48 183.10 933.59 182.81 C 933.31 182.49 932.76 181.84 932.49 181.51 C 933.11 180.82 933.75 180.14 934.40 179.45 C 934.83 179.80 935.69 180.51 936.11 180.86 C 942.18 181.33 948.39 180.48 954.30 182.24 C 954.87 181.93 955.45 181.62 956.05 181.31 C 956.39 181.60 957.09 182.19 957.44 182.48 C 958.02 181.82 958.61 181.18 959.23 180.53 C 961.98 181.58 965.09 182.19 967.76 180.52 C 967.88 181.03 968.11 182.05 968.22 182.56 C 969.17 181.78 970.09 180.96 971.17 180.34 C 973.05 180.10 973.69 182.29 974.60 183.52 C 976.13 180.81 978.99 179.62 981.98 180.58 C 982.32 180.40 983.02 180.04 983.36 179.86 C 985.70 180.71 988.19 180.86 990.67 180.92 C 990.68 240.28 990.62 299.64 990.69 358.99 C 983.37 362.27 975.11 359.92 967.38 360.66 C 959.25 361.63 951.08 359.82 942.95 360.85 C 929.15 360.59 915.32 360.79 901.53 360.62 C 901.18 358.20 901.06 355.64 899.65 353.56 C 899.50 296.06 899.63 238.55 899.59 181.05 C 902.14 181.13 904.69 181.54 907.02 182.67 C 909.41 181.26 912.09 180.64 914.86 181.21 C 913.90 181.73 912.95 182.26 912.01 182.78 C 912.73 182.87 914.18 183.05 914.90 183.14 C 915.71 182.20 916.53 181.27 917.37 180.34 Z" />
</g>
<g id="#0088daff">
<path fill="#0088da" opacity="1.00" d=" M 377.70 228.64 C 381.19 222.50 376.72 214.59 380.37 208.57 C 380.49 259.08 380.37 309.60 380.42 360.11 C 375.35 361.76 370.03 360.11 364.83 360.64 C 354.09 360.42 343.37 361.03 332.65 360.57 C 328.08 360.77 323.52 361.27 318.95 361.03 C 309.11 359.88 299.16 361.21 289.32 360.12 C 289.36 317.74 289.32 275.36 289.33 232.98 C 290.25 233.59 291.20 234.19 292.13 234.81 C 292.30 234.48 292.64 233.82 292.81 233.48 C 294.09 232.84 295.37 232.19 296.65 231.55 C 299.17 233.20 299.01 236.28 299.35 238.94 C 301.10 237.07 300.43 234.49 300.28 232.21 C 300.98 233.06 301.71 233.91 302.42 234.77 C 303.02 233.46 303.74 232.21 304.53 231.00 C 305.62 232.44 306.74 233.86 307.89 235.26 C 308.42 234.32 308.95 233.38 309.49 232.45 C 310.38 232.94 311.26 233.43 312.16 233.93 C 313.09 233.42 314.04 232.95 314.98 232.45 C 316.16 233.22 317.23 234.28 318.62 234.68 C 320.56 234.33 322.50 233.92 324.48 233.81 C 327.23 233.56 328.91 231.15 330.52 229.19 C 331.33 230.72 332.20 232.23 333.13 233.71 C 336.98 233.45 340.96 234.21 344.66 232.72 C 345.77 233.36 346.88 234.02 347.99 234.68 C 349.05 233.88 350.11 233.09 351.18 232.30 C 352.03 233.18 352.88 234.06 353.74 234.93 C 353.65 233.85 353.58 232.78 353.52 231.70 C 354.48 232.31 355.52 232.75 356.52 233.30 C 357.03 232.88 357.53 232.47 358.04 232.06 C 358.39 232.70 358.63 233.39 359.00 234.03 C 359.30 233.71 359.90 233.07 360.20 232.75 C 363.51 234.13 367.45 233.99 370.78 232.76 C 371.79 233.13 372.78 233.64 373.86 233.85 C 375.04 233.10 375.35 231.52 376.10 230.40 C 377.04 230.81 377.98 231.22 378.93 231.64 C 378.53 230.63 378.10 229.64 377.70 228.64 Z" />
<path fill="#0088da" opacity="1.00" d=" M 594.55 214.63 C 595.63 216.08 597.03 217.67 596.50 219.64 C 596.15 224.28 594.49 230.10 598.33 233.76 C 599.17 232.86 600.02 231.96 600.86 231.05 C 601.15 231.91 601.46 232.77 601.78 233.64 C 602.40 233.63 603.03 233.63 603.67 233.63 C 604.70 234.68 605.75 235.74 606.79 236.80 C 606.71 235.34 606.63 233.89 606.57 232.43 C 608.81 232.68 611.18 232.62 613.23 233.70 C 614.36 233.28 615.49 232.86 616.62 232.43 C 617.16 233.21 617.71 234.00 618.27 234.79 C 618.63 234.06 619.00 233.32 619.38 232.59 C 620.14 232.89 620.90 233.19 621.67 233.49 C 622.30 232.41 622.93 231.33 623.57 230.26 C 624.05 231.35 624.56 232.45 625.05 233.56 C 626.98 233.74 628.97 234.46 630.89 233.85 C 636.42 232.25 642.40 234.87 647.82 232.60 C 649.18 232.95 650.54 233.31 651.91 233.69 C 652.55 233.32 653.20 232.96 653.86 232.60 C 655.99 233.10 658.15 233.75 660.38 233.62 C 664.99 233.23 669.63 233.51 674.26 233.43 C 674.40 234.27 674.56 235.12 674.72 235.97 C 675.05 235.81 675.72 235.48 676.05 235.31 C 676.26 234.64 676.49 233.97 676.72 233.30 C 678.78 233.26 680.79 233.71 682.65 234.59 C 684.51 231.84 682.28 227.84 685.45 225.65 C 685.51 258.44 685.46 291.23 685.48 324.03 C 685.62 341.98 685.19 359.95 685.69 377.90 C 682.62 380.09 678.66 378.85 675.56 380.88 C 675.53 380.48 675.46 379.67 675.43 379.26 C 670.79 380.40 666.13 377.16 661.48 378.85 C 659.91 379.61 658.19 379.63 656.50 379.45 C 656.29 379.99 655.89 381.06 655.69 381.59 C 654.65 380.77 653.90 378.90 652.36 379.27 C 651.13 380.31 650.17 381.59 649.16 382.83 C 649.27 381.54 649.39 380.26 649.51 378.98 C 648.75 379.45 648.01 379.92 647.28 380.40 C 646.50 380.00 645.74 379.61 644.98 379.22 C 643.85 379.78 642.72 380.35 641.60 380.92 C 641.50 380.39 641.28 379.32 641.18 378.78 C 640.59 379.70 640.00 380.61 639.40 381.51 C 638.60 380.59 637.79 379.69 637.02 378.77 C 635.57 380.01 634.24 381.38 633.11 382.91 C 633.24 381.70 633.36 380.51 633.52 379.32 C 631.53 379.55 629.54 379.29 627.62 378.79 C 625.19 380.85 622.42 379.03 619.76 378.68 C 616.72 378.88 613.59 379.58 611.27 381.68 C 611.36 380.75 611.46 379.84 611.56 378.93 C 610.86 379.41 610.17 379.91 609.50 380.41 C 608.64 379.99 607.75 379.66 606.91 379.25 C 605.84 379.79 604.78 380.32 603.72 380.87 C 603.47 380.15 603.23 379.44 603.00 378.73 C 602.53 379.71 602.06 380.69 601.61 381.68 C 600.96 380.89 600.31 380.09 599.68 379.31 C 598.47 379.44 597.27 379.58 596.08 379.72 C 596.08 378.57 596.07 377.42 596.04 376.28 C 602.29 377.48 608.67 376.92 614.99 376.98 C 618.63 376.51 622.30 376.33 625.95 376.96 C 626.32 374.48 623.64 375.07 622.05 374.92 C 614.35 374.94 606.64 375.04 598.94 375.00 C 596.71 375.38 595.52 373.28 594.50 371.71 C 594.56 319.35 594.48 266.99 594.55 214.63 Z" />
</g>
<g id="#0084d4ff">
<path fill="#0084d4" opacity="1.00" d=" M 899.65 353.56 C 901.06 355.64 901.18 358.20 901.53 360.62 C 915.32 360.79 929.15 360.59 942.95 360.85 C 951.08 359.82 959.25 361.63 967.38 360.66 C 975.11 359.92 983.37 362.27 990.69 358.99 C 990.62 401.59 990.64 444.19 990.67 486.79 C 985.82 486.49 980.90 488.27 976.10 486.72 C 974.23 485.77 972.73 487.40 971.35 488.43 C 970.81 487.79 970.28 487.17 969.77 486.55 C 964.86 487.21 959.91 486.26 955.00 486.93 C 949.98 487.52 945.00 486.33 939.99 486.63 C 934.65 486.49 929.33 486.89 924.02 487.08 C 917.69 486.41 911.35 487.37 905.02 486.94 C 902.61 486.48 900.46 488.53 898.13 487.75 C 892.85 486.32 887.33 486.51 881.94 487.02 C 878.18 487.40 874.41 486.15 870.70 487.19 C 862.28 485.83 853.72 488.01 845.27 486.61 C 839.36 487.40 833.26 487.70 827.37 486.85 C 824.30 488.27 821.13 486.57 817.98 486.51 C 814.01 486.18 810.06 487.46 806.11 486.76 C 800.99 485.78 795.87 487.62 790.73 486.77 C 780.70 487.34 770.66 486.95 760.63 486.63 C 759.99 487.17 759.36 487.73 758.75 488.29 C 754.83 486.10 750.30 486.28 746.01 486.88 C 741.15 486.86 735.83 485.70 731.41 488.40 C 731.17 487.78 730.94 487.17 730.73 486.57 C 729.49 486.95 728.24 487.45 726.93 487.26 C 721.71 486.74 716.45 487.39 711.25 486.64 C 708.22 486.23 705.25 487.62 702.24 487.17 C 697.54 486.13 692.74 487.44 687.99 487.06 C 681.80 486.63 675.59 487.01 669.40 486.58 C 667.83 486.38 666.40 487.12 664.98 487.64 C 662.92 487.01 660.84 486.24 658.66 486.52 C 650.27 487.35 641.81 487.14 633.41 486.66 C 629.68 487.38 625.89 486.01 622.25 487.24 C 617.20 486.00 612.02 487.16 606.92 487.20 C 603.28 487.81 599.80 485.98 596.17 486.69 C 595.64 477.78 596.22 468.84 595.98 459.92 C 595.88 458.65 595.41 457.52 594.58 456.53 C 594.44 428.26 594.58 399.98 594.50 371.71 C 595.52 373.28 596.71 375.38 598.94 375.00 C 606.64 375.04 614.35 374.94 622.05 374.92 C 623.64 375.07 626.32 374.48 625.95 376.96 C 622.30 376.33 618.63 376.51 614.99 376.98 C 608.67 376.92 602.29 377.48 596.04 376.28 C 596.07 377.42 596.08 378.57 596.08 379.72 C 597.27 379.58 598.47 379.44 599.68 379.31 C 600.31 380.09 600.96 380.89 601.61 381.68 C 602.06 380.69 602.53 379.71 603.00 378.73 C 603.23 379.44 603.47 380.15 603.72 380.87 C 604.78 380.32 605.84 379.79 606.91 379.25 C 607.75 379.66 608.64 379.99 609.50 380.41 C 610.17 379.91 610.86 379.41 611.56 378.93 C 611.46 379.84 611.36 380.75 611.27 381.68 C 613.59 379.58 616.72 378.88 619.76 378.68 C 622.42 379.03 625.19 380.85 627.62 378.79 C 629.54 379.29 631.53 379.55 633.52 379.32 C 633.36 380.51 633.24 381.70 633.11 382.91 C 634.24 381.38 635.57 380.01 637.02 378.77 C 637.79 379.69 638.60 380.59 639.40 381.51 C 640.00 380.61 640.59 379.70 641.18 378.78 C 641.28 379.32 641.50 380.39 641.60 380.92 C 642.72 380.35 643.85 379.78 644.98 379.22 C 645.74 379.61 646.50 380.00 647.28 380.40 C 648.01 379.92 648.75 379.45 649.51 378.98 C 649.39 380.26 649.27 381.54 649.16 382.83 C 650.17 381.59 651.13 380.31 652.36 379.27 C 653.90 378.90 654.65 380.77 655.69 381.59 C 655.89 381.06 656.29 379.99 656.50 379.45 C 658.19 379.63 659.91 379.61 661.48 378.85 C 666.13 377.16 670.79 380.40 675.43 379.26 C 675.46 379.67 675.53 380.48 675.56 380.88 C 678.66 378.85 682.62 380.09 685.69 377.90 C 687.01 393.67 701.19 407.07 717.03 407.35 C 767.36 407.35 817.70 407.35 868.03 407.35 C 880.05 407.02 891.51 399.38 896.46 388.41 C 901.65 377.52 898.80 365.15 899.65 353.56 Z" />
<path fill="#0084d4" opacity="1.00" d=" M 289.32 360.12 C 299.16 361.21 309.11 359.88 318.95 361.03 C 323.52 361.27 328.08 360.77 332.65 360.57 C 343.37 361.03 354.09 360.42 364.83 360.64 C 370.03 360.11 375.35 361.76 380.42 360.11 C 380.38 393.91 380.49 427.72 380.36 461.52 C 378.39 463.93 379.08 467.12 379.00 469.98 C 379.00 474.99 379.24 480.01 378.93 485.02 C 378.90 486.78 377.14 487.73 376.13 488.95 C 375.31 488.27 374.50 487.60 373.69 486.94 C 373.55 488.46 373.44 489.98 373.39 491.51 C 372.46 492.24 371.50 492.95 370.53 493.63 C 369.72 492.87 368.94 492.08 368.14 491.33 C 367.57 492.16 366.99 493.00 366.43 493.84 C 365.98 493.32 365.53 492.80 365.09 492.29 C 365.62 491.51 366.14 490.74 366.67 489.98 C 365.68 489.27 364.51 488.85 363.45 488.27 C 362.15 490.44 360.69 492.55 358.60 494.03 C 358.04 492.42 357.57 490.77 357.30 489.09 C 356.40 489.69 355.52 490.32 354.63 490.93 C 354.54 490.48 354.36 489.59 354.27 489.14 C 353.87 489.13 353.08 489.10 352.69 489.09 C 352.52 489.83 352.36 490.57 352.20 491.33 C 350.83 491.79 349.47 492.25 348.11 492.71 C 348.84 493.74 349.49 494.84 350.07 495.98 C 344.80 495.62 347.20 486.85 342.06 486.21 C 340.18 486.70 338.44 487.58 336.68 488.36 C 337.53 489.90 336.74 491.54 336.26 493.06 C 335.26 492.08 334.27 491.10 333.29 490.12 C 333.96 492.42 333.69 494.77 331.33 495.91 C 331.47 494.66 331.61 493.41 331.78 492.17 C 330.75 493.14 329.73 494.10 328.71 495.08 C 328.32 492.32 328.94 487.15 325.09 487.03 C 322.11 487.79 324.14 491.28 323.27 493.33 C 318.87 492.94 317.31 486.83 312.75 486.47 C 311.58 486.30 310.73 487.32 309.79 487.81 C 310.74 488.63 311.71 489.45 312.67 490.27 C 312.38 491.44 312.09 492.60 311.81 493.78 C 309.39 492.34 306.98 490.37 304.02 490.43 C 302.21 490.65 300.42 491.06 298.60 490.75 C 297.20 491.37 296.86 493.35 295.90 494.52 C 294.75 494.19 293.65 493.75 292.53 493.34 C 292.12 493.77 291.30 494.63 290.89 495.07 C 291.94 496.08 292.99 497.09 294.04 498.11 C 293.59 498.64 293.13 499.16 292.68 499.70 C 291.58 498.69 290.47 497.68 289.37 496.69 C 289.31 451.16 289.40 405.64 289.32 360.12 Z" />
</g>
<g id="#007fccff">
<path fill="#007fcc" opacity="1.00" d=" M 594.58 456.53 C 595.41 457.52 595.88 458.65 595.98 459.92 C 596.22 468.84 595.64 477.78 596.17 486.69 C 599.80 485.98 603.28 487.81 606.92 487.20 C 612.02 487.16 617.20 486.00 622.25 487.24 C 625.89 486.01 629.68 487.38 633.41 486.66 C 641.81 487.14 650.27 487.35 658.66 486.52 C 660.84 486.24 662.92 487.01 664.98 487.64 C 666.40 487.12 667.83 486.38 669.40 486.58 C 675.59 487.01 681.80 486.63 687.99 487.06 C 692.74 487.44 697.54 486.13 702.24 487.17 C 705.25 487.62 708.22 486.23 711.25 486.64 C 716.45 487.39 721.71 486.74 726.93 487.26 C 728.24 487.45 729.49 486.95 730.73 486.57 C 730.94 487.17 731.17 487.78 731.41 488.40 C 735.83 485.70 741.15 486.86 746.01 486.88 C 750.30 486.28 754.83 486.10 758.75 488.29 C 759.36 487.73 759.99 487.17 760.63 486.63 C 770.66 486.95 780.70 487.34 790.73 486.77 C 795.87 487.62 800.99 485.78 806.11 486.76 C 810.06 487.46 814.01 486.18 817.98 486.51 C 821.13 486.57 824.30 488.27 827.37 486.85 C 833.26 487.70 839.36 487.40 845.27 486.61 C 853.72 488.01 862.28 485.83 870.70 487.19 C 874.41 486.15 878.18 487.40 881.94 487.02 C 887.33 486.51 892.85 486.32 898.13 487.75 C 900.46 488.53 902.61 486.48 905.02 486.94 C 911.35 487.37 917.69 486.41 924.02 487.08 C 929.33 486.89 934.65 486.49 939.99 486.63 C 945.00 486.33 949.98 487.52 955.00 486.93 C 959.91 486.26 964.86 487.21 969.77 486.55 C 970.28 487.17 970.81 487.79 971.35 488.43 C 972.73 487.40 974.23 485.77 976.10 486.72 C 980.90 488.27 985.82 486.49 990.67 486.79 C 990.64 532.87 990.66 578.95 990.66 625.02 C 990.51 632.99 990.97 640.98 990.36 648.93 C 988.87 664.80 981.55 680.05 970.08 691.12 C 957.94 703.17 941.07 710.30 923.97 710.65 C 735.98 710.66 547.98 710.65 359.98 710.66 C 346.55 711.09 333.00 707.49 321.61 700.35 C 306.18 690.74 294.69 674.82 290.93 656.98 C 288.80 648.46 289.43 639.63 289.34 630.95 C 289.36 586.19 289.30 541.44 289.37 496.69 C 290.47 497.68 291.58 498.69 292.68 499.70 C 293.13 499.16 293.59 498.64 294.04 498.11 C 292.99 497.09 291.94 496.08 290.89 495.07 C 291.30 494.63 292.12 493.77 292.53 493.34 C 293.65 493.75 294.75 494.19 295.90 494.52 C 296.86 493.35 297.20 491.37 298.60 490.75 C 300.42 491.06 302.21 490.65 304.02 490.43 C 306.98 490.37 309.39 492.34 311.81 493.78 C 312.09 492.60 312.38 491.44 312.67 490.27 C 311.71 489.45 310.74 488.63 309.79 487.81 C 310.73 487.32 311.58 486.30 312.75 486.47 C 317.31 486.83 318.87 492.94 323.27 493.33 C 324.14 491.28 322.11 487.79 325.09 487.03 C 328.94 487.15 328.32 492.32 328.71 495.08 C 329.73 494.10 330.75 493.14 331.78 492.17 C 331.61 493.41 331.47 494.66 331.33 495.91 C 333.69 494.77 333.96 492.42 333.29 490.12 C 334.27 491.10 335.26 492.08 336.26 493.06 C 336.74 491.54 337.53 489.90 336.68 488.36 C 338.44 487.58 340.18 486.70 342.06 486.21 C 347.20 486.85 344.80 495.62 350.07 495.98 C 349.49 494.84 348.84 493.74 348.11 492.71 C 349.47 492.25 350.83 491.79 352.20 491.33 C 352.36 490.57 352.52 489.83 352.69 489.09 C 353.08 489.10 353.87 489.13 354.27 489.14 C 354.36 489.59 354.54 490.48 354.63 490.93 C 355.52 490.32 356.40 489.69 357.30 489.09 C 357.57 490.77 358.04 492.42 358.60 494.03 C 360.69 492.55 362.15 490.44 363.45 488.27 C 364.51 488.85 365.68 489.27 366.67 489.98 C 366.14 490.74 365.62 491.51 365.09 492.29 C 365.53 492.80 365.98 493.32 366.43 493.84 C 366.99 493.00 367.57 492.16 368.14 491.33 C 368.94 492.08 369.72 492.87 370.53 493.63 C 371.50 492.95 372.46 492.24 373.39 491.51 C 373.44 489.98 373.55 488.46 373.69 486.94 C 374.50 487.60 375.31 488.27 376.13 488.95 C 377.14 487.73 378.90 486.78 378.93 485.02 C 379.24 480.01 379.00 474.99 379.00 469.98 C 379.08 467.12 378.39 463.93 380.36 461.52 C 380.54 491.31 380.32 521.10 380.47 550.89 C 380.63 567.55 395.28 582.48 411.99 582.66 C 462.34 582.66 512.70 582.66 563.05 582.66 C 576.16 582.36 588.32 573.15 592.60 560.83 C 595.00 554.48 594.47 547.59 594.52 540.95 C 594.56 512.81 594.43 484.67 594.58 456.53 Z" />
</g>
</svg>
